<svg width="141" height="47" viewBox="0 0 141 47" fill="none" xmlns="http://www.w3.org/2000/svg">
<g clip-path="url(#clip0_2952_4794)">
<path d="M129.772 0.00015275H11.2347C10.8026 0.00015275 10.3757 0.00015275 9.94478 0.00250275C9.58405 0.00485275 9.22618 0.0116795 8.86198 0.0174252C8.07077 0.0267099 7.28142 0.0961224 6.50079 0.225059C5.72126 0.356804 4.96614 0.605179 4.26099 0.961784C3.55669 1.32141 2.91316 1.7887 2.35373 2.34671C1.79137 2.90315 1.3226 3.54632 0.965439 4.25149C0.607295 4.95526 0.358957 5.70941 0.229002 6.48789C0.0978117 7.2654 0.0272168 8.05186 0.0178512 8.84024C0.00691661 9.2005 0.00576188 9.56195 0 9.92225V37.0815C0.00576188 37.4463 0.00691661 37.7998 0.0178512 38.1647C0.0272197 38.9531 0.0978146 39.7395 0.229002 40.517C0.358599 41.2959 0.606951 42.0505 0.965439 42.7545C1.32243 43.4574 1.79127 44.098 2.35373 44.6513C2.91104 45.2118 3.55499 45.6794 4.26099 46.0363C4.96614 46.3939 5.72117 46.6437 6.50079 46.7775C7.28155 46.9054 8.07082 46.9748 8.86198 46.9852C9.22618 46.9932 9.58405 46.9978 9.94478 46.9978C10.3757 47.0002 10.8026 47.0001 11.2347 47.0001H129.772C130.195 47.0001 130.625 47.0002 131.049 46.9978C131.408 46.9978 131.776 46.9932 132.135 46.9852C132.925 46.9754 133.713 46.9059 134.492 46.7775C135.274 46.6428 136.032 46.393 136.74 46.0363C137.446 45.6792 138.089 45.2116 138.646 44.6513C139.207 44.0958 139.677 43.4557 140.038 42.7545C140.394 42.05 140.64 41.2955 140.768 40.517C140.899 39.7394 140.972 38.9531 140.986 38.1647C140.991 37.7998 140.991 37.4463 140.991 37.0815C141 36.6546 141 36.2301 141 35.7963V11.2051C141 10.7748 141 10.348 140.991 9.92225C140.991 9.56195 140.991 9.2005 140.986 8.84019C140.972 8.05175 140.899 7.26545 140.768 6.48784C140.639 5.70981 140.393 4.95572 140.038 4.25144C139.311 2.83801 138.157 1.68748 136.74 0.961679C136.032 0.605944 135.274 0.357635 134.492 0.224954C133.713 0.0954485 132.925 0.0260119 132.135 0.0172607C131.776 0.0115267 131.408 0.00464125 131.049 0.00235C130.625 0 130.195 0 129.772 0V0.00015275Z" fill="#A6A6A6"/>
<path d="M9.95067 45.9716C9.59167 45.9716 9.24134 45.967 8.88515 45.959C8.14728 45.9494 7.41113 45.8854 6.68274 45.7674C6.00356 45.6507 5.34562 45.4337 4.73061 45.1236C4.12124 44.816 3.56545 44.4127 3.08453 43.9291C2.59664 43.4512 2.19045 42.8969 1.88206 42.2882C1.57027 41.6755 1.35449 41.0188 1.24225 40.341C1.12103 39.6126 1.05544 38.8761 1.04606 38.1379C1.03859 37.89 1.02881 37.065 1.02881 37.065V9.92181C1.02881 9.92181 1.03922 9.1094 1.04612 8.87072C1.0551 8.13362 1.12031 7.39827 1.24116 6.67104C1.35362 5.99133 1.56956 5.33274 1.88152 4.71807C2.18878 4.10979 2.59271 3.55509 3.07766 3.07548C3.56206 2.59131 4.11963 2.18592 4.73003 1.87408C5.34363 1.56492 6.00033 1.34947 6.67814 1.23495C7.40891 1.11576 8.14762 1.05133 8.88805 1.04218L9.95125 1.02783H131.043L132.119 1.04275C132.853 1.05145 133.585 1.11531 134.309 1.2338C134.994 1.34975 135.657 1.56671 136.278 1.87752C137.501 2.50597 138.496 3.50022 139.123 4.72094C139.43 5.33136 139.643 5.98458 139.754 6.65842C139.876 7.39162 139.945 8.13275 139.959 8.87589C139.962 9.20865 139.962 9.56609 139.962 9.92181C139.971 10.3624 139.971 10.7818 139.971 11.2047V35.7958C139.971 36.2227 139.971 36.6393 139.962 37.0592C139.962 37.4413 139.962 37.7913 139.958 38.1516C139.944 38.8815 139.877 39.6094 139.756 40.3295C139.646 41.0122 139.432 41.674 139.12 42.2917C138.809 42.8938 138.406 43.4433 137.923 43.9199C137.442 44.4061 136.885 44.8118 136.274 45.1214C135.655 45.4339 134.993 45.6517 134.309 45.7674C133.581 45.886 132.844 45.9501 132.106 45.959C131.761 45.967 131.4 45.9716 131.049 45.9716L129.772 45.9739L9.95067 45.9716Z" fill="black"/>
<path d="M49.8445 31.889H44.2672L42.9278 35.8328H40.5654L45.8482 21.2417H48.3026L53.5854 35.8328H51.1828L49.8445 31.889ZM44.8448 30.0691H49.2658L47.0864 23.6686H47.0254L44.8448 30.0691Z" fill="white"/>
<path d="M64.9943 30.5144C64.9943 33.8203 63.2199 35.9442 60.5423 35.9442C59.864 35.9796 59.1894 35.8238 58.5958 35.4946C58.0022 35.1655 57.5135 34.6763 57.1857 34.083H57.1351V39.3522H54.9453V25.1948H57.0649V26.9642H57.1052C57.448 26.3738 57.9449 25.8871 58.5431 25.556C59.1412 25.2248 59.8182 25.0615 60.502 25.0835C63.2095 25.0835 64.9943 27.2178 64.9943 30.5144ZM62.7435 30.5144C62.7435 28.3607 61.6273 26.9447 59.9243 26.9447C58.2513 26.9447 57.1259 28.3905 57.1259 30.5144C57.1259 32.6579 58.2513 34.0934 59.9243 34.0934C61.6274 34.0934 62.7435 32.6877 62.7435 30.5144Z" fill="white"/>
<path d="M76.7359 30.5144C76.7359 33.8203 74.9616 35.9442 72.284 35.9442C71.6057 35.9796 70.9311 35.8238 70.3375 35.4946C69.7439 35.1655 69.2552 34.6763 68.9274 34.083H68.8768V39.3522H66.687V25.1948H68.8066V26.9642H68.8468C69.1897 26.3738 69.6866 25.8871 70.2847 25.556C70.8829 25.2248 71.5599 25.0615 72.2437 25.0835C74.9512 25.0835 76.7359 27.2178 76.7359 30.5144ZM74.4852 30.5144C74.4852 28.3607 73.369 26.9447 71.666 26.9447C69.993 26.9447 68.8676 28.3905 68.8676 30.5144C68.8676 32.6579 69.993 34.0934 71.666 34.0934C73.3691 34.0934 74.4852 32.6877 74.4852 30.5144H74.4852Z" fill="white"/>
<path d="M84.496 31.7675C84.6582 33.2145 86.0678 34.1645 87.994 34.1645C89.8397 34.1645 91.1676 33.2144 91.1676 31.9097C91.1676 30.7772 90.3667 30.0991 88.4704 29.6343L86.5741 29.1788C83.8873 28.5316 82.6399 27.2786 82.6399 25.2453C82.6399 22.7278 84.84 20.9985 87.9641 20.9985C91.056 20.9985 93.1756 22.7278 93.2469 25.2453H91.0364C90.9041 23.7892 89.697 22.9102 87.933 22.9102C86.169 22.9102 84.962 23.7995 84.962 25.0938C84.962 26.1254 85.7329 26.7324 87.6189 27.1971L89.231 27.5918C92.2331 28.2998 93.4805 29.5024 93.4805 31.6366C93.4805 34.3664 91.2999 36.0761 87.8318 36.0761C84.5868 36.0761 82.3959 34.4066 82.2544 31.7674L84.496 31.7675Z" fill="white"/>
<path d="M98.2063 22.6772V25.1948H100.235V26.924H98.2063V32.7887C98.2063 33.6998 98.6125 34.1243 99.5043 34.1243C99.7451 34.1201 99.9855 34.1033 100.225 34.0738V35.7927C99.8236 35.8674 99.4161 35.9012 99.0083 35.8937C96.8485 35.8937 96.0062 35.0847 96.0062 33.0216V26.924H94.4551V25.1948H96.0062V22.6772H98.2063Z" fill="white"/>
<path d="M101.41 30.5144C101.41 27.1673 103.387 25.064 106.469 25.064C109.562 25.064 111.53 27.1672 111.53 30.5144C111.53 33.8707 109.573 35.9648 106.469 35.9648C103.367 35.9648 101.41 33.8707 101.41 30.5144ZM109.299 30.5144C109.299 28.2183 108.244 26.8632 106.469 26.8632C104.695 26.8632 103.641 28.2287 103.641 30.5144C103.641 32.8196 104.695 34.1645 106.469 34.1645C108.244 34.1645 109.299 32.8196 109.299 30.5144H109.299Z" fill="white"/>
<path d="M113.335 25.1947H115.424V27.0054H115.475C115.616 26.4399 115.948 25.9401 116.415 25.5901C116.883 25.2401 117.457 25.0612 118.041 25.0834C118.293 25.0825 118.545 25.1098 118.791 25.1649V27.2073C118.472 27.1103 118.14 27.0657 117.807 27.0754C117.489 27.0625 117.172 27.1185 116.877 27.2393C116.583 27.3602 116.318 27.5432 116.102 27.7757C115.885 28.0083 115.721 28.2848 115.622 28.5864C115.522 28.888 115.489 29.2075 115.525 29.5229V35.8328H113.335L113.335 25.1947Z" fill="white"/>
<path d="M128.887 32.7083C128.592 34.6395 126.706 35.9648 124.293 35.9648C121.19 35.9648 119.264 33.8914 119.264 30.5649C119.264 27.2281 121.2 25.064 124.201 25.064C127.153 25.064 129.009 27.0858 129.009 30.3113V31.0594H121.474V31.1914C121.439 31.5829 121.489 31.9773 121.618 32.3484C121.748 32.7195 121.956 33.0589 122.227 33.3439C122.499 33.6289 122.828 33.853 123.193 34.0014C123.558 34.1498 123.95 34.2191 124.344 34.2046C124.861 34.253 125.381 34.1335 125.825 33.8639C126.268 33.5943 126.613 33.189 126.808 32.7083L128.887 32.7083ZM121.484 29.5333H126.818C126.838 29.1813 126.784 28.829 126.661 28.4986C126.537 28.1682 126.347 27.8667 126.101 27.6132C125.855 27.3597 125.56 27.1596 125.233 27.0253C124.906 26.8911 124.555 26.8258 124.201 26.8333C123.845 26.8312 123.491 26.8995 123.161 27.0344C122.831 27.1692 122.531 27.3678 122.279 27.6189C122.026 27.8699 121.826 28.1683 121.69 28.4969C121.553 28.8255 121.484 29.1777 121.484 29.5333V29.5333Z" fill="white"/>
<path d="M44.5703 10.2589C45.0294 10.2261 45.4901 10.2952 45.9191 10.4614C46.3481 10.6276 46.7348 10.8867 47.0513 11.2199C47.3678 11.5532 47.6061 11.9523 47.7492 12.3886C47.8922 12.8248 47.9364 13.2873 47.8785 13.7426C47.8785 15.9825 46.6646 17.27 44.5703 17.27H42.0308V10.2589H44.5703ZM43.1228 16.2785H44.4483C44.7764 16.298 45.1047 16.2444 45.4093 16.1215C45.7139 15.9985 45.9873 15.8094 46.2094 15.5679C46.4315 15.3263 46.5968 15.0385 46.6932 14.7252C46.7897 14.4119 46.8149 14.0811 46.767 13.7569C46.8114 13.434 46.7836 13.1052 46.6857 12.7943C46.5878 12.4833 46.4221 12.1978 46.2005 11.9581C45.9789 11.7185 45.7069 11.5307 45.404 11.4083C45.101 11.2858 44.7747 11.2316 44.4483 11.2497H43.1228V16.2785Z" fill="white"/>
<path d="M49.1119 14.6222C49.0786 14.2745 49.1185 13.9237 49.229 13.5922C49.3396 13.2608 49.5184 12.9561 49.754 12.6976C49.9896 12.4391 50.2768 12.2326 50.5971 12.0913C50.9174 11.95 51.2638 11.877 51.6141 11.877C51.9644 11.877 52.3108 11.95 52.6311 12.0913C52.9514 12.2326 53.2386 12.4391 53.4742 12.6976C53.7098 12.9561 53.8886 13.2608 53.9992 13.5922C54.1097 13.9237 54.1496 14.2745 54.1163 14.6222C54.1502 14.9703 54.1108 15.3216 54.0005 15.6535C53.8903 15.9855 53.7116 16.2908 53.4759 16.5498C53.2403 16.8088 52.9529 17.0157 52.6322 17.1573C52.3116 17.299 51.9648 17.3721 51.6141 17.3721C51.2634 17.3721 50.9166 17.299 50.5959 17.1573C50.2753 17.0157 49.9879 16.8088 49.7523 16.5498C49.5166 16.2908 49.3379 15.9855 49.2276 15.6535C49.1174 15.3216 49.0779 14.9703 49.1119 14.6222ZM53.0392 14.6222C53.0392 13.4753 52.5225 12.8046 51.6158 12.8046C50.7056 12.8046 50.1936 13.4753 50.1936 14.6222C50.1936 15.7783 50.7057 16.4438 51.6158 16.4438C52.5226 16.4438 53.0392 15.7737 53.0392 14.6222H53.0392Z" fill="white"/>
<path d="M60.7686 17.2699H59.6824L58.5858 13.3732H58.503L57.411 17.2699H56.3351L54.8726 11.979H55.9346L56.8851 16.0163H56.9634L58.0542 11.979H59.0587L60.1496 16.0163H60.2324L61.1783 11.979H62.2254L60.7686 17.2699Z" fill="white"/>
<path d="M63.4556 11.9789H64.4636V12.8194H64.5418C64.6746 12.5176 64.8984 12.2645 65.1823 12.0955C65.4661 11.9265 65.7957 11.8501 66.1252 11.8768C66.3833 11.8574 66.6425 11.8963 66.8836 11.9904C67.1247 12.0845 67.3414 12.2315 67.5178 12.4205C67.6942 12.6095 67.8257 12.8356 67.9025 13.0821C67.9793 13.3287 67.9995 13.5893 67.9616 13.8447V17.2698H66.9145V14.1069C66.9145 13.2566 66.544 12.8338 65.7696 12.8338C65.5943 12.8256 65.4193 12.8554 65.2567 12.921C65.094 12.9866 64.9475 13.0865 64.8271 13.2138C64.7068 13.3412 64.6155 13.493 64.5595 13.6588C64.5035 13.8246 64.4841 14.0006 64.5027 14.1746V17.2699H63.4556L63.4556 11.9789Z" fill="white"/>
<path d="M69.6299 9.91357H70.677V17.2699H69.6299V9.91357Z" fill="white"/>
<path d="M72.1324 14.6223C72.0991 14.2746 72.139 13.9237 72.2496 13.5923C72.3602 13.2608 72.539 12.9561 72.7747 12.6976C73.0103 12.4391 73.2975 12.2326 73.6178 12.0913C73.9381 11.95 74.2846 11.877 74.6349 11.877C74.9852 11.877 75.3316 11.95 75.6519 12.0913C75.9723 12.2326 76.2595 12.4391 76.4951 12.6976C76.7307 12.9561 76.9095 13.2608 77.0201 13.5923C77.1307 13.9237 77.1706 14.2746 77.1373 14.6223C77.1713 14.9704 77.1318 15.3217 77.0215 15.6536C76.9112 15.9856 76.7324 16.2909 76.4968 16.5499C76.2611 16.8088 75.9737 17.0158 75.653 17.1574C75.3324 17.299 74.9856 17.3722 74.6349 17.3722C74.2842 17.3722 73.9373 17.299 73.6167 17.1574C73.296 17.0158 73.0086 16.8088 72.773 16.5499C72.5373 16.2909 72.3585 15.9856 72.2482 15.6536C72.1379 15.3217 72.0985 14.9704 72.1324 14.6223ZM76.0597 14.6223C76.0597 13.4754 75.543 12.8047 74.6363 12.8047C73.7261 12.8047 73.2141 13.4754 73.2141 14.6223C73.2141 15.7784 73.7261 16.4439 74.6363 16.4439C75.543 16.4439 76.0597 15.7738 76.0597 14.6223H76.0597Z" fill="white"/>
<path d="M78.2402 15.7737C78.2402 14.8213 78.9514 14.2723 80.2136 14.1942L81.6509 14.1116V13.6549C81.6509 13.0961 81.2803 12.7806 80.5646 12.7806C79.9801 12.7806 79.575 12.9946 79.4588 13.3687H78.4451C78.5521 12.4599 79.4093 11.877 80.6129 11.877C81.9431 11.877 82.6934 12.5373 82.6934 13.6549V17.27H81.6854V16.5265H81.6025C81.4344 16.7932 81.1982 17.0106 80.9182 17.1566C80.6382 17.3025 80.3244 17.3717 80.0088 17.3572C79.7861 17.3803 79.561 17.3566 79.348 17.2876C79.135 17.2187 78.9389 17.1059 78.7722 16.9568C78.6056 16.8076 78.4722 16.6252 78.3805 16.4214C78.2889 16.2177 78.2411 15.997 78.2402 15.7737ZM81.6509 15.3216V14.8793L80.3552 14.9619C79.6245 15.0107 79.2931 15.2585 79.2931 15.7249C79.2931 16.2011 79.7073 16.4783 80.277 16.4783C80.4439 16.4951 80.6125 16.4783 80.7727 16.4288C80.933 16.3794 81.0816 16.2983 81.2098 16.1904C81.338 16.0825 81.4431 15.9499 81.5189 15.8007C81.5946 15.6514 81.6395 15.4885 81.6509 15.3216Z" fill="white"/>
<path d="M84.0693 14.6222C84.0693 12.9503 84.9312 11.8912 86.2717 11.8912C86.6033 11.876 86.9324 11.9552 87.2206 12.1196C87.5087 12.284 87.7439 12.5267 87.8988 12.8195H87.9771V9.91357H89.0242V17.2699H88.0208V16.434H87.9379C87.7711 16.7248 87.5276 16.9646 87.2339 17.1273C86.9402 17.29 86.6075 17.3695 86.2718 17.3571C84.922 17.3572 84.0693 16.2981 84.0693 14.6222ZM85.151 14.6222C85.151 15.7444 85.6815 16.4197 86.5687 16.4197C87.4512 16.4197 87.9966 15.7347 87.9966 14.6268C87.9966 13.5241 87.4455 12.8293 86.5687 12.8293C85.6872 12.8293 85.151 13.5092 85.151 14.6222H85.151Z" fill="white"/>
<path d="M93.3561 14.6222C93.3227 14.2745 93.3626 13.9237 93.4732 13.5922C93.5837 13.2608 93.7626 12.9561 93.9982 12.6976C94.2337 12.4391 94.5209 12.2326 94.8412 12.0913C95.1615 11.95 95.508 11.877 95.8582 11.877C96.2085 11.877 96.5549 11.95 96.8752 12.0913C97.1956 12.2326 97.4827 12.4391 97.7183 12.6976C97.9539 12.9561 98.1327 13.2608 98.2433 13.5922C98.3539 13.9237 98.3937 14.2745 98.3604 14.6222C98.3944 14.9703 98.355 15.3216 98.2447 15.6535C98.1344 15.9855 97.9557 16.2908 97.72 16.5498C97.4844 16.8088 97.197 17.0157 96.8764 17.1573C96.5557 17.299 96.2089 17.3721 95.8582 17.3721C95.5075 17.3721 95.1607 17.299 94.8401 17.1573C94.5194 17.0157 94.2321 16.8088 93.9964 16.5498C93.7608 16.2908 93.5821 15.9855 93.4718 15.6535C93.3615 15.3216 93.3221 14.9703 93.3561 14.6222ZM97.2833 14.6222C97.2833 13.4753 96.7667 12.8046 95.86 12.8046C94.9498 12.8046 94.4378 13.4753 94.4378 14.6222C94.4378 15.7783 94.9498 16.4438 95.86 16.4438C96.7667 16.4438 97.2833 15.7737 97.2833 14.6222Z" fill="white"/>
<path d="M99.7656 11.9789H100.774V12.8194H100.852C100.985 12.5176 101.208 12.2645 101.492 12.0955C101.776 11.9265 102.106 11.8501 102.435 11.8768C102.693 11.8574 102.953 11.8963 103.194 11.9904C103.435 12.0845 103.652 12.2315 103.828 12.4205C104.004 12.6095 104.136 12.8356 104.213 13.0821C104.289 13.3287 104.31 13.5893 104.272 13.8447V17.2698H103.225V14.1069C103.225 13.2566 102.854 12.8338 102.08 12.8338C101.904 12.8256 101.729 12.8554 101.567 12.921C101.404 12.9866 101.258 13.0865 101.137 13.2138C101.017 13.3412 100.926 13.493 100.87 13.6588C100.814 13.8246 100.794 14.0006 100.813 14.1746V17.2699H99.7656V11.9789Z" fill="white"/>
<path d="M110.189 10.6616V12.003H111.338V12.8825H110.189V15.6032C110.189 16.1574 110.418 16.4001 110.939 16.4001C111.073 16.3996 111.206 16.3916 111.338 16.376V17.2457C111.15 17.2793 110.96 17.2971 110.769 17.2991C109.604 17.2991 109.141 16.8906 109.141 15.8705V12.8825H108.298V12.003H109.141V10.6616H110.189Z" fill="white"/>
<path d="M112.769 9.91357H113.806V12.8293H113.889C114.029 12.5246 114.259 12.2701 114.548 12.1005C114.838 11.9309 115.172 11.8544 115.507 11.8815C115.764 11.8675 116.021 11.9103 116.259 12.0067C116.497 12.1031 116.711 12.2508 116.886 12.4392C117.061 12.6276 117.191 12.852 117.269 13.0966C117.346 13.3412 117.369 13.5998 117.334 13.854V17.27H116.286V14.1116C116.286 13.2664 115.892 12.8384 115.152 12.8384C114.972 12.8237 114.791 12.8484 114.621 12.9107C114.452 12.9731 114.298 13.0716 114.171 13.1993C114.044 13.3271 113.946 13.4811 113.885 13.6504C113.823 13.8198 113.8 14.0005 113.816 14.1798V17.2699H112.769L112.769 9.91357Z" fill="white"/>
<path d="M123.44 15.8415C123.298 16.3251 122.99 16.7434 122.569 17.0232C122.149 17.303 121.643 17.4266 121.141 17.3722C120.792 17.3814 120.444 17.3147 120.123 17.1766C119.802 17.0385 119.515 16.8323 119.282 16.5725C119.048 16.3127 118.875 16.0053 118.773 15.6719C118.67 15.3384 118.642 14.9867 118.69 14.6413C118.644 14.2948 118.672 13.9424 118.774 13.6079C118.876 13.2734 119.049 12.9646 119.281 12.7025C119.513 12.4404 119.798 12.2311 120.119 12.0886C120.439 11.9462 120.786 11.8741 121.136 11.877C122.613 11.877 123.503 12.8828 123.503 14.5443V14.9086H119.757V14.9672C119.74 15.1613 119.765 15.3568 119.829 15.5409C119.892 15.7251 119.994 15.894 120.127 16.0367C120.26 16.1794 120.422 16.2928 120.601 16.3697C120.781 16.4465 120.974 16.4851 121.17 16.4829C121.42 16.5129 121.674 16.4679 121.899 16.3537C122.124 16.2395 122.309 16.0612 122.432 15.8415L123.44 15.8415ZM119.757 14.1364H122.437C122.45 13.9588 122.426 13.7805 122.366 13.6128C122.306 13.4451 122.211 13.2917 122.088 13.1627C121.965 13.0336 121.816 12.9316 121.651 12.8632C121.487 12.7949 121.309 12.7617 121.131 12.7658C120.95 12.7635 120.77 12.7974 120.602 12.8655C120.434 12.9336 120.282 13.0344 120.154 13.1622C120.026 13.2899 119.925 13.4419 119.857 13.6092C119.788 13.7766 119.754 13.9558 119.757 14.1364H119.757Z" fill="white"/>
<path d="M30.4271 24.9387C30.4403 23.9134 30.7127 22.908 31.2188 22.0162C31.725 21.1244 32.4485 20.3752 33.322 19.8381C32.7671 19.0456 32.035 18.3934 31.1839 17.9333C30.3328 17.4731 29.3861 17.2178 28.4191 17.1876C26.3563 16.971 24.3564 18.4219 23.3052 18.4219C22.2337 18.4219 20.6152 17.2091 18.8724 17.2449C17.7451 17.2813 16.6465 17.6091 15.6835 18.1964C14.7206 18.7837 13.9262 19.6104 13.3777 20.5959C11.0019 24.7093 12.774 30.7545 15.0499 34.0794C16.1885 35.7075 17.5192 37.5261 19.2605 37.4616C20.9644 37.391 21.6008 36.3751 23.6576 36.3751C25.6952 36.3751 26.2923 37.4616 28.0689 37.4206C29.8973 37.391 31.0492 35.7853 32.1479 34.1418C32.966 32.9817 33.5956 31.6995 34.0132 30.3428C32.951 29.8935 32.0445 29.1415 31.4068 28.1805C30.7691 27.2195 30.4283 26.092 30.4271 24.9387Z" fill="white"/>
<path d="M27.0717 15.0004C28.0686 13.8037 28.5597 12.2654 28.4408 10.7124C26.9178 10.8724 25.5109 11.6003 24.5005 12.7511C24.0065 13.3133 23.6281 13.9674 23.3871 14.6759C23.146 15.3845 23.0469 16.1336 23.0955 16.8804C23.8573 16.8882 24.611 16.7231 25.2997 16.3975C25.9885 16.0718 26.5943 15.5942 27.0717 15.0004Z" fill="white"/>
</g>
<defs>
<clipPath id="clip0_2952_4794">
<rect width="141" height="47" fill="white"/>
</clipPath>
</defs>
</svg>
