<svg width="16" height="16" viewBox="0 0 16 16" fill="none" xmlns="http://www.w3.org/2000/svg">
<g clip-path="url(#clip0_262_6044)">
<path d="M15.4909 7.74545C15.4909 3.46776 12.0232 0 7.74545 0C3.46776 0 0 3.46776 0 7.74545C0 11.6114 2.83239 14.8158 6.53523 15.3968V9.98438H4.56861V7.74545H6.53523V6.03903C6.53523 4.09783 7.6916 3.02557 9.4608 3.02557C10.308 3.02557 11.1946 3.17685 11.1946 3.17685V5.08295H10.2179C9.25582 5.08295 8.95568 5.68005 8.95568 6.29318V7.74545H11.1038L10.7604 9.98438H8.95568V15.3968C12.6585 14.8158 15.4909 11.6114 15.4909 7.74545Z" fill="#B4B3B7"/>
</g>
<defs>
<clipPath id="clip0_262_6044">
<rect width="15.4909" height="15.4909" fill="white"/>
</clipPath>
</defs>
</svg>
