<svg width="16" height="16" viewBox="0 0 16 16" fill="none" xmlns="http://www.w3.org/2000/svg">
<g clip-path="url(#clip0_262_6045)">
<path d="M7.74545 1.39479C9.81494 1.39479 10.06 1.40386 10.8739 1.44017C11.6303 1.47345 12.0387 1.60053 12.311 1.70642C12.6711 1.8456 12.9313 2.01503 13.2006 2.2843C13.4729 2.55661 13.6393 2.81378 13.7784 3.17382C13.8843 3.44612 14.0114 3.8576 14.0447 4.61097C14.081 5.42787 14.0901 5.67294 14.0901 7.7394C14.0901 9.80889 14.081 10.054 14.0447 10.8678C14.0114 11.6242 13.8843 12.0327 13.7784 12.305C13.6393 12.665 13.4698 12.9252 13.2006 13.1945C12.9283 13.4668 12.6711 13.6332 12.311 13.7724C12.0387 13.8783 11.6273 14.0054 10.8739 14.0386C10.057 14.0749 9.81192 14.084 7.74545 14.084C5.67597 14.084 5.4309 14.0749 4.61702 14.0386C3.86063 14.0054 3.45217 13.8783 3.17987 13.7724C2.81983 13.6332 2.55963 13.4638 2.29036 13.1945C2.01805 12.9222 1.85165 12.665 1.71247 12.305C1.60658 12.0327 1.4795 11.6212 1.44622 10.8678C1.40991 10.0509 1.40084 9.80587 1.40084 7.7394C1.40084 5.66991 1.40991 5.42484 1.44622 4.61097C1.4795 3.85457 1.60658 3.44612 1.71247 3.17382C1.85165 2.81378 2.02108 2.55358 2.29036 2.2843C2.56266 2.012 2.81983 1.8456 3.17987 1.70642C3.45217 1.60053 3.86365 1.47345 4.61702 1.44017C5.4309 1.40386 5.67597 1.39479 7.74545 1.39479ZM7.74545 0C5.64268 0 5.37946 0.0090767 4.55348 0.0453835C3.73053 0.0816903 3.16474 0.214815 2.6746 0.405426C2.16328 0.605114 1.73063 0.868338 1.30099 1.30099C0.868338 1.73062 0.605114 2.16328 0.405426 2.67158C0.214815 3.16474 0.0816903 3.7275 0.0453835 4.55045C0.00907671 5.37946 0 5.64268 0 7.74545C0 9.84822 0.00907671 10.1114 0.0453835 10.9374C0.0816903 11.7604 0.214815 12.3262 0.405426 12.8163C0.605114 13.3276 0.868338 13.7603 1.30099 14.1899C1.73063 14.6195 2.16328 14.8858 2.67158 15.0825C3.16474 15.2731 3.7275 15.4062 4.55045 15.4425C5.37643 15.4788 5.63966 15.4879 7.74243 15.4879C9.8452 15.4879 10.1084 15.4788 10.9344 15.4425C11.7574 15.4062 12.3231 15.2731 12.8133 15.0825C13.3216 14.8858 13.7542 14.6195 14.1839 14.1899C14.6135 13.7603 14.8797 13.3276 15.0764 12.8193C15.267 12.3262 15.4001 11.7634 15.4364 10.9405C15.4728 10.1145 15.4818 9.85125 15.4818 7.74848C15.4818 5.64571 15.4728 5.38249 15.4364 4.55651C15.4001 3.73355 15.267 3.16777 15.0764 2.67763C14.8858 2.16328 14.6226 1.73062 14.1899 1.30099C13.7603 0.871364 13.3276 0.605114 12.8193 0.408452C12.3262 0.217841 11.7634 0.0847159 10.9405 0.0484091C10.1114 0.00907671 9.84822 0 7.74545 0Z" fill="#B4B3B7"/>
<path d="M7.74425 3.76758C5.54768 3.76758 3.76562 5.54964 3.76562 7.7462C3.76562 9.94276 5.54768 11.7248 7.74425 11.7248C9.94081 11.7248 11.7229 9.94276 11.7229 7.7462C11.7229 5.54964 9.94081 3.76758 7.74425 3.76758ZM7.74425 10.327C6.3192 10.327 5.16344 9.17124 5.16344 7.7462C5.16344 6.32116 6.3192 5.16539 7.74425 5.16539C9.16929 5.16539 10.3251 6.32116 10.3251 7.7462C10.3251 9.17124 9.16929 10.327 7.74425 10.327Z" fill="#B4B3B7"/>
<path d="M12.8108 3.60854C12.8108 4.12289 12.3933 4.53739 11.882 4.53739C11.3676 4.53739 10.9531 4.11986 10.9531 3.60854C10.9531 3.09419 11.3707 2.67969 11.882 2.67969C12.3933 2.67969 12.8108 3.09722 12.8108 3.60854Z" fill="#B4B3B7"/>
</g>
<defs>
<clipPath id="clip0_262_6045">
<rect width="15.4909" height="15.4909" fill="white"/>
</clipPath>
</defs>
</svg>
