<svg width="16" height="16" viewBox="0 0 16 16" fill="none" xmlns="http://www.w3.org/2000/svg">
<g clip-path="url(#clip0_262_6046)">
<path d="M14.3442 0H1.14366C0.511321 0 0 0.499219 0 1.11643V14.3714C0 14.9887 0.511321 15.4909 1.14366 15.4909H14.3442C14.9766 15.4909 15.4909 14.9887 15.4909 14.3745V1.11643C15.4909 0.499219 14.9766 0 14.3442 0ZM4.59584 13.2006H2.29641V5.80606H4.59584V13.2006ZM3.44612 4.79855C2.70788 4.79855 2.11185 4.20251 2.11185 3.4673C2.11185 2.73209 2.70788 2.13605 3.44612 2.13605C4.18133 2.13605 4.77737 2.73209 4.77737 3.4673C4.77737 4.19949 4.18133 4.79855 3.44612 4.79855ZM13.2006 13.2006H10.9041V9.60618C10.9041 8.74994 10.889 7.64561 9.70905 7.64561C8.51395 7.64561 8.33241 8.58051 8.33241 9.54567V13.2006H6.03903V5.80606H8.24165V6.81661H8.2719C8.57749 6.2357 9.32783 5.62151 10.4443 5.62151C12.7709 5.62151 13.2006 7.15244 13.2006 9.14327V13.2006Z" fill="#B4B3B7"/>
</g>
<defs>
<clipPath id="clip0_262_6046">
<rect width="15.4909" height="15.4909" fill="white"/>
</clipPath>
</defs>
</svg>
