<svg width="148" height="46" viewBox="0 0 148 46" fill="none" xmlns="http://www.w3.org/2000/svg">
<rect x="0.398687" y="0.398687" width="147.203" height="44.9187" rx="7.04347" fill="#020304"/>
<rect x="0.398687" y="0.398687" width="147.203" height="44.9187" rx="7.04347" stroke="white" stroke-width="0.797374"/>
<path d="M27.1481 26.9127C30.209 25.2019 32.5497 23.8985 32.7497 23.7967C33.3899 23.4504 34.0501 22.534 32.7497 21.8211C32.3296 21.5971 30.069 20.3344 27.1481 18.7051L23.127 22.8191L27.1481 26.9127Z" fill="#FCD601"/>
<path d="M23.1269 22.8184L10.2832 35.9954C10.5833 36.0361 10.9234 35.9547 11.3235 35.7306C12.1637 35.2622 21.0863 30.2928 27.1481 26.912L23.1269 22.8184Z" fill="#E83C51"/>
<path d="M23.1264 22.8184L27.1476 18.7044C27.1476 18.7044 12.2233 10.4153 11.323 9.92646C10.9829 9.7228 10.6028 9.6617 10.2627 9.7228L23.1264 22.8184Z" fill="#71C16A"/>
<path d="M23.1267 22.8182L10.263 9.72266C9.74286 9.84485 9.30273 10.3133 9.30273 11.2705C9.30273 12.798 9.30273 33.1643 9.30273 34.4474C9.30273 35.3232 9.64283 35.9545 10.283 36.0156L23.1267 22.8182Z" fill="#58CAF5"/>
<path d="M43.5158 15.7409C42.9245 15.7409 42.42 15.6381 42.0022 15.4324C41.5909 15.2268 41.2695 14.9311 41.0382 14.5455C40.8132 14.1535 40.6911 13.6875 40.6718 13.1476C40.6654 12.8713 40.6622 12.5756 40.6622 12.2607C40.6622 11.9393 40.6654 11.6373 40.6718 11.3545C40.6911 10.821 40.8132 10.3647 41.0382 9.98552C41.2695 9.60633 41.5941 9.3139 42.0119 9.10823C42.4361 8.90257 42.9374 8.79973 43.5158 8.79973C43.985 8.79973 44.3963 8.864 44.7498 8.99254C45.1033 9.11466 45.3957 9.27533 45.6271 9.47457C45.8649 9.66738 46.0416 9.87626 46.1573 10.1012C46.2794 10.3262 46.3437 10.535 46.3501 10.7278C46.3565 10.7857 46.3405 10.8339 46.3019 10.8725C46.2634 10.911 46.2119 10.9303 46.1477 10.9303H45.1547C45.0904 10.9303 45.0422 10.9174 45.0101 10.8917C44.9779 10.866 44.949 10.8275 44.9233 10.776C44.8719 10.6411 44.7916 10.5093 44.6823 10.3808C44.573 10.2458 44.4252 10.1333 44.2388 10.0434C44.0525 9.95339 43.8114 9.9084 43.5158 9.9084C43.0788 9.9084 42.7285 10.0241 42.465 10.2555C42.2079 10.4868 42.0697 10.8692 42.0504 11.4027C42.0312 11.9618 42.0312 12.5274 42.0504 13.0994C42.0697 13.6457 42.2111 14.0378 42.4746 14.2756C42.7446 14.5134 43.098 14.6323 43.5351 14.6323C43.8243 14.6323 44.0814 14.5809 44.3063 14.478C44.5377 14.3752 44.7177 14.2145 44.8462 13.996C44.9812 13.7775 45.0486 13.4979 45.0486 13.1573V12.8584H43.8725C43.8082 12.8584 43.7536 12.8359 43.7086 12.7909C43.6636 12.7459 43.6411 12.6881 43.6411 12.6174V12.1064C43.6411 12.0357 43.6636 11.9779 43.7086 11.9329C43.7536 11.8879 43.8082 11.8654 43.8725 11.8654H46.1766C46.2473 11.8654 46.3019 11.8879 46.3405 11.9329C46.3855 11.9779 46.408 12.0357 46.408 12.1064V13.1187C46.408 13.6586 46.2891 14.1245 46.0513 14.5166C45.8199 14.9086 45.4857 15.2107 45.0486 15.4228C44.618 15.6349 44.1071 15.7409 43.5158 15.7409ZM47.8752 15.6445C47.8109 15.6445 47.7563 15.622 47.7113 15.577C47.6663 15.5321 47.6438 15.4774 47.6438 15.4132V9.13715C47.6438 9.06646 47.6663 9.00861 47.7113 8.96362C47.7563 8.91863 47.8109 8.89614 47.8752 8.89614H52.1171C52.1878 8.89614 52.2456 8.91863 52.2906 8.96362C52.3356 9.00861 52.3581 9.06646 52.3581 9.13715V9.77343C52.3581 9.8377 52.3356 9.89233 52.2906 9.93732C52.2456 9.98231 52.1878 10.0048 52.1171 10.0048H48.9453V11.7112H51.905C51.9757 11.7112 52.0335 11.7337 52.0785 11.7787C52.1235 11.8172 52.146 11.8719 52.146 11.9426V12.5403C52.146 12.611 52.1235 12.6688 52.0785 12.7138C52.0335 12.7524 51.9757 12.7716 51.905 12.7716H48.9453V14.5359H52.1942C52.2649 14.5359 52.3227 14.5584 52.3677 14.6034C52.4127 14.6483 52.4352 14.7062 52.4352 14.7769V15.4132C52.4352 15.4774 52.4127 15.5321 52.3677 15.577C52.3227 15.622 52.2649 15.6445 52.1942 15.6445H47.8752ZM55.357 15.6445C55.2927 15.6445 55.2381 15.622 55.1931 15.577C55.1481 15.5321 55.1256 15.4774 55.1256 15.4132V10.0819H53.3421C53.2778 10.0819 53.2232 10.0594 53.1782 10.0144C53.1332 9.96946 53.1107 9.91483 53.1107 9.85056V9.13715C53.1107 9.06646 53.1332 9.00861 53.1782 8.96362C53.2232 8.91863 53.2778 8.89614 53.3421 8.89614H58.2588C58.3295 8.89614 58.3873 8.91863 58.4323 8.96362C58.4773 9.00861 58.4998 9.06646 58.4998 9.13715V9.85056C58.4998 9.91483 58.4773 9.96946 58.4323 10.0144C58.3873 10.0594 58.3295 10.0819 58.2588 10.0819H56.4849V15.4132C56.4849 15.4774 56.4624 15.5321 56.4174 15.577C56.3724 15.622 56.3146 15.6445 56.2439 15.6445H55.357ZM61.677 15.6445C61.6128 15.6445 61.5581 15.622 61.5131 15.577C61.4681 15.5321 61.4457 15.4774 61.4457 15.4132V9.12751C61.4457 9.06324 61.4681 9.00861 61.5131 8.96362C61.5581 8.91863 61.6128 8.89614 61.677 8.89614H62.5832C62.6539 8.89614 62.7086 8.91863 62.7471 8.96362C62.7921 9.00861 62.8146 9.06324 62.8146 9.12751V15.4132C62.8146 15.4774 62.7921 15.5321 62.7471 15.577C62.7086 15.622 62.6539 15.6445 62.5832 15.6445H61.677ZM66.0425 15.6445C65.9783 15.6445 65.9236 15.622 65.8787 15.577C65.8337 15.5321 65.8112 15.4774 65.8112 15.4132V10.0819H64.0277C63.9634 10.0819 63.9088 10.0594 63.8638 10.0144C63.8188 9.96946 63.7963 9.91483 63.7963 9.85056V9.13715C63.7963 9.06646 63.8188 9.00861 63.8638 8.96362C63.9088 8.91863 63.9634 8.89614 64.0277 8.89614H68.9444C69.0151 8.89614 69.0729 8.91863 69.1179 8.96362C69.1629 9.00861 69.1854 9.06646 69.1854 9.13715V9.85056C69.1854 9.91483 69.1629 9.96946 69.1179 10.0144C69.0729 10.0594 69.0151 10.0819 68.9444 10.0819H67.1705V15.4132C67.1705 15.4774 67.148 15.5321 67.103 15.577C67.058 15.622 67.0002 15.6445 66.9295 15.6445H66.0425ZM74.7245 15.7409C74.1525 15.7409 73.6609 15.6477 73.2495 15.4614C72.8382 15.2685 72.5169 14.9761 72.2855 14.5841C72.0541 14.1856 71.9288 13.6907 71.9095 13.0994C71.9031 12.8231 71.8999 12.5499 71.8999 12.28C71.8999 12.01 71.9031 11.7337 71.9095 11.4509C71.9288 10.866 72.0573 10.3776 72.2951 9.98552C72.5329 9.59347 72.8575 9.29783 73.2688 9.09859C73.6866 8.89935 74.1718 8.79973 74.7245 8.79973C75.2773 8.79973 75.7625 8.89935 76.1803 9.09859C76.598 9.29783 76.9258 9.59347 77.1636 9.98552C77.4014 10.3776 77.5299 10.866 77.5492 11.4509C77.5621 11.7337 77.5685 12.01 77.5685 12.28C77.5685 12.5499 77.5621 12.8231 77.5492 13.0994C77.5299 13.6907 77.4046 14.1856 77.1732 14.5841C76.9419 14.9761 76.6173 15.2685 76.1996 15.4614C75.7882 15.6477 75.2966 15.7409 74.7245 15.7409ZM74.7245 14.6323C75.1423 14.6323 75.4829 14.5102 75.7464 14.2659C76.01 14.0153 76.1513 13.6104 76.1706 13.0512C76.1835 12.7684 76.1899 12.5081 76.1899 12.2703C76.1899 12.0261 76.1835 11.7658 76.1706 11.4895C76.1578 11.1167 76.0871 10.8146 75.9585 10.5832C75.8364 10.3454 75.6693 10.1751 75.4572 10.0723C75.2451 9.96303 75.0009 9.9084 74.7245 9.9084C74.4546 9.9084 74.2136 9.96303 74.0015 10.0723C73.7894 10.1751 73.6191 10.3454 73.4906 10.5832C73.3684 10.8146 73.301 11.1167 73.2881 11.4895C73.2817 11.7658 73.2785 12.0261 73.2785 12.2703C73.2785 12.5081 73.2817 12.7684 73.2881 13.0512C73.3074 13.6104 73.4488 14.0153 73.7123 14.2659C73.9758 14.5102 74.3132 14.6323 74.7245 14.6323ZM79.0658 15.6445C79.0015 15.6445 78.9469 15.622 78.9019 15.577C78.8569 15.5321 78.8344 15.4774 78.8344 15.4132V9.13715C78.8344 9.06646 78.8569 9.00861 78.9019 8.96362C78.9469 8.91863 79.0015 8.89614 79.0658 8.89614H79.8081C79.8981 8.89614 79.9624 8.91863 80.0009 8.96362C80.0459 9.00219 80.0749 9.03111 80.0877 9.05039L82.8642 13.3694V9.13715C82.8642 9.06646 82.8835 9.00861 82.922 8.96362C82.967 8.91863 83.0249 8.89614 83.0956 8.89614H83.9054C83.9761 8.89614 84.0339 8.91863 84.0789 8.96362C84.1239 9.00861 84.1464 9.06646 84.1464 9.13715V15.4035C84.1464 15.4742 84.1239 15.5321 84.0789 15.577C84.0339 15.622 83.9793 15.6445 83.915 15.6445H83.163C83.0731 15.6445 83.0088 15.622 82.9702 15.577C82.9317 15.5321 82.9028 15.5031 82.8835 15.4903L80.1166 11.2677V15.4132C80.1166 15.4774 80.0941 15.5321 80.0491 15.577C80.0042 15.622 79.9463 15.6445 79.8756 15.6445H79.0658Z" fill="white"/>
<path d="M47.293 34.0881C46.0398 34.0881 44.9705 33.8702 44.0851 33.4343C43.2133 32.9984 42.5322 32.3718 42.0418 31.5545C41.5651 30.7236 41.3063 29.736 41.2654 28.5918C41.2518 28.006 41.245 27.3794 41.245 26.712C41.245 26.0309 41.2518 25.3907 41.2654 24.7913C41.3063 23.6607 41.5651 22.6936 42.0418 21.8899C42.5322 21.0862 43.2201 20.4665 44.1055 20.0306C45.0045 19.5947 46.067 19.3767 47.293 19.3767C48.2874 19.3767 49.1591 19.5129 49.9083 19.7854C50.6575 20.0442 51.2773 20.3847 51.7677 20.807C52.2717 21.2156 52.6463 21.6584 52.8915 22.1351C53.1503 22.6119 53.2865 23.0546 53.3001 23.4632C53.3137 23.5858 53.2797 23.688 53.198 23.7697C53.1162 23.8514 53.0073 23.8923 52.871 23.8923H50.7665C50.6303 23.8923 50.5281 23.8651 50.46 23.8106C50.3919 23.7561 50.3306 23.6744 50.2761 23.5654C50.1671 23.2793 49.9969 23.0001 49.7653 22.7277C49.5337 22.4416 49.2204 22.2032 48.8254 22.0125C48.4304 21.8218 47.9196 21.7265 47.293 21.7265C46.3667 21.7265 45.6243 21.9717 45.0658 22.462C44.521 22.9524 44.2281 23.7629 44.1872 24.8935C44.1464 26.0786 44.1464 27.2773 44.1872 28.4896C44.2281 29.6475 44.5278 30.4784 45.0863 30.9824C45.6584 31.4864 46.4076 31.7384 47.3338 31.7384C47.9468 31.7384 48.4917 31.6294 48.9684 31.4115C49.4588 31.1935 49.8402 30.853 50.1127 30.3898C50.3987 29.9267 50.5417 29.3342 50.5417 28.6122V27.9788H48.049C47.9128 27.9788 47.797 27.9311 47.7016 27.8358C47.6063 27.7404 47.5586 27.6178 47.5586 27.468V26.3851C47.5586 26.2352 47.6063 26.1126 47.7016 26.0173C47.797 25.9219 47.9128 25.8743 48.049 25.8743H52.9323C53.0822 25.8743 53.198 25.9219 53.2797 26.0173C53.375 26.1126 53.4227 26.2352 53.4227 26.3851V28.5305C53.4227 29.6747 53.1707 30.6623 52.6667 31.4932C52.1763 32.3241 51.468 32.9643 50.5417 33.4138C49.6291 33.8634 48.5462 34.0881 47.293 34.0881ZM59.0661 34.0881C57.9763 34.0881 57.0569 33.8974 56.3077 33.516C55.5721 33.1346 55.0068 32.5965 54.6118 31.9018C54.2304 31.2071 54.0124 30.3966 53.958 29.4704C53.9443 29.2252 53.9375 28.9255 53.9375 28.5713C53.9375 28.2172 53.9443 27.9175 53.958 27.6723C54.0124 26.7324 54.2372 25.9219 54.6322 25.2408C55.0409 24.5461 55.613 24.0081 56.3486 23.6267C57.0977 23.2453 58.0036 23.0546 59.0661 23.0546C60.1286 23.0546 61.0276 23.2453 61.7632 23.6267C62.5124 24.0081 63.0845 24.5461 63.4795 25.2408C63.8881 25.9219 64.1197 26.7324 64.1742 27.6723C64.1878 27.9175 64.1946 28.2172 64.1946 28.5713C64.1946 28.9255 64.1878 29.2252 64.1742 29.4704C64.1197 30.3966 63.8949 31.2071 63.4999 31.9018C63.1185 32.5965 62.5532 33.1346 61.804 33.516C61.0685 33.8974 60.1558 34.0881 59.0661 34.0881ZM59.0661 32.0653C59.788 32.0653 60.3465 31.8405 60.7415 31.391C61.1366 30.9279 61.3545 30.2536 61.3954 29.3682C61.409 29.1639 61.4158 28.8983 61.4158 28.5713C61.4158 28.2444 61.409 27.9788 61.3954 27.7745C61.3545 26.9027 61.1366 26.2352 60.7415 25.7721C60.3465 25.309 59.788 25.0774 59.0661 25.0774C58.3441 25.0774 57.7856 25.309 57.3906 25.7721C56.9956 26.2352 56.7776 26.9027 56.7368 27.7745C56.7231 27.9788 56.7163 28.2444 56.7163 28.5713C56.7163 28.8983 56.7231 29.1639 56.7368 29.3682C56.7776 30.2536 56.9956 30.9279 57.3906 31.391C57.7856 31.8405 58.3441 32.0653 59.0661 32.0653ZM69.7277 34.0881C68.6379 34.0881 67.7185 33.8974 66.9693 33.516C66.2337 33.1346 65.6684 32.5965 65.2734 31.9018C64.892 31.2071 64.674 30.3966 64.6196 29.4704C64.6059 29.2252 64.5991 28.9255 64.5991 28.5713C64.5991 28.2172 64.6059 27.9175 64.6196 27.6723C64.674 26.7324 64.8988 25.9219 65.2938 25.2408C65.7025 24.5461 66.2746 24.0081 67.0102 23.6267C67.7593 23.2453 68.6652 23.0546 69.7277 23.0546C70.7902 23.0546 71.6892 23.2453 72.4248 23.6267C73.174 24.0081 73.7461 24.5461 74.1411 25.2408C74.5497 25.9219 74.7813 26.7324 74.8358 27.6723C74.8494 27.9175 74.8562 28.2172 74.8562 28.5713C74.8562 28.9255 74.8494 29.2252 74.8358 29.4704C74.7813 30.3966 74.5566 31.2071 74.1615 31.9018C73.7801 32.5965 73.2148 33.1346 72.4656 33.516C71.7301 33.8974 70.8174 34.0881 69.7277 34.0881ZM69.7277 32.0653C70.4496 32.0653 71.0081 31.8405 71.4031 31.391C71.7982 30.9279 72.0161 30.2536 72.057 29.3682C72.0706 29.1639 72.0774 28.8983 72.0774 28.5713C72.0774 28.2444 72.0706 27.9788 72.057 27.7745C72.0161 26.9027 71.7982 26.2352 71.4031 25.7721C71.0081 25.309 70.4496 25.0774 69.7277 25.0774C69.0057 25.0774 68.4472 25.309 68.0522 25.7721C67.6572 26.2352 67.4392 26.9027 67.3984 27.7745C67.3848 27.9788 67.3779 28.2444 67.3779 28.5713C67.3779 28.8983 67.3848 29.1639 67.3984 29.3682C67.4392 30.2536 67.6572 30.9279 68.0522 31.391C68.4472 31.8405 69.0057 32.0653 69.7277 32.0653ZM80.4914 38.3789C79.4971 38.3789 78.6798 38.2495 78.0396 37.9907C77.3993 37.7319 76.8953 37.4186 76.5275 37.0508C76.1598 36.683 75.8941 36.3153 75.7307 35.9475C75.5808 35.5933 75.4991 35.3141 75.4855 35.1097C75.4719 34.9735 75.5127 34.8509 75.6081 34.742C75.7171 34.6466 75.8397 34.5989 75.9759 34.5989H77.7535C77.8897 34.5989 77.9987 34.6262 78.0804 34.6807C78.1621 34.7488 78.2303 34.8645 78.2847 35.028C78.3665 35.2051 78.4754 35.3958 78.6117 35.6001C78.7479 35.8044 78.9522 35.9747 79.2246 36.1109C79.5107 36.2608 79.8989 36.3357 80.3893 36.3357C80.9069 36.3357 81.3428 36.2608 81.697 36.1109C82.0511 35.9611 82.3168 35.7091 82.4938 35.3549C82.6845 35.0008 82.7799 34.5104 82.7799 33.8838V32.4944C82.453 32.8894 82.0307 33.2095 81.5131 33.4547C81.0091 33.6999 80.3825 33.8225 79.6333 33.8225C78.8977 33.8225 78.2643 33.7067 77.7331 33.4751C77.2018 33.2299 76.7591 32.8962 76.405 32.4739C76.0508 32.0381 75.7784 31.5272 75.5877 30.9415C75.4106 30.3558 75.3084 29.7088 75.2812 29.0004C75.2675 28.6326 75.2675 28.2649 75.2812 27.8971C75.3084 27.216 75.4106 26.5826 75.5877 25.9969C75.7647 25.4111 76.0304 24.9003 76.3845 24.4644C76.7523 24.0149 77.2018 23.6675 77.7331 23.4224C78.2643 23.1772 78.8977 23.0546 79.6333 23.0546C80.4097 23.0546 81.0636 23.2044 81.5948 23.5041C82.126 23.7901 82.5619 24.1511 82.9025 24.587V23.7697C82.9025 23.6199 82.9502 23.4973 83.0455 23.4019C83.1409 23.3066 83.2566 23.2589 83.3929 23.2589H85.0479C85.1841 23.2589 85.2999 23.3066 85.3952 23.4019C85.4906 23.4973 85.5383 23.6199 85.5383 23.7697L85.5587 33.6182C85.5587 34.5989 85.3748 35.4435 85.007 36.1518C84.6392 36.8601 84.0808 37.405 83.3316 37.7864C82.596 38.1814 81.6493 38.3789 80.4914 38.3789ZM80.3893 31.6566C80.9478 31.6566 81.3973 31.5341 81.7378 31.2889C82.0784 31.0437 82.3304 30.7236 82.4938 30.3285C82.6573 29.9335 82.7526 29.5317 82.7799 29.123C82.7935 28.9459 82.8003 28.7212 82.8003 28.4487C82.8003 28.1763 82.7935 27.9584 82.7799 27.7949C82.7526 27.3726 82.6573 26.9708 82.4938 26.5894C82.3304 26.1944 82.0784 25.8743 81.7378 25.6291C81.3973 25.3703 80.9478 25.2408 80.3893 25.2408C79.8308 25.2408 79.3813 25.3703 79.0407 25.6291C78.7002 25.8743 78.455 26.2012 78.3052 26.6098C78.169 27.0185 78.0872 27.468 78.06 27.9584C78.0327 28.2853 78.0327 28.619 78.06 28.9596C78.0872 29.4363 78.169 29.8858 78.3052 30.3081C78.455 30.7168 78.7002 31.0437 79.0407 31.2889C79.3813 31.5341 79.8308 31.6566 80.3893 31.6566ZM87.3611 33.8838C87.2249 33.8838 87.1091 33.8361 87.0137 33.7408C86.9184 33.6454 86.8707 33.5296 86.8707 33.3934V19.8671C86.8707 19.7309 86.9184 19.6151 87.0137 19.5198C87.1091 19.4244 87.2249 19.3767 87.3611 19.3767H89.057C89.1932 19.3767 89.309 19.4244 89.4043 19.5198C89.4997 19.6151 89.5473 19.7309 89.5473 19.8671V33.3934C89.5473 33.5296 89.4997 33.6454 89.4043 33.7408C89.309 33.8361 89.1932 33.8838 89.057 33.8838H87.3611ZM95.4043 34.0881C93.8923 34.0881 92.6936 33.6522 91.8082 32.7804C90.9228 31.9086 90.446 30.6691 90.3779 29.0617C90.3643 28.9255 90.3575 28.7552 90.3575 28.5509C90.3575 28.333 90.3643 28.1627 90.3779 28.0401C90.4324 27.0185 90.664 26.1331 91.0726 25.3839C91.4949 24.6347 92.0738 24.0626 92.8094 23.6675C93.5449 23.2589 94.4099 23.0546 95.4043 23.0546C96.5076 23.0546 97.4339 23.2861 98.1831 23.7493C98.9323 24.1988 99.4976 24.8322 99.879 25.6495C100.26 26.4532 100.451 27.3863 100.451 28.4487V28.8778C100.451 29.014 100.403 29.1298 100.308 29.2252C100.213 29.3205 100.09 29.3682 99.9403 29.3682H93.1567C93.1567 29.3682 93.1567 29.3886 93.1567 29.4295C93.1567 29.4704 93.1567 29.5044 93.1567 29.5317C93.1703 30.0084 93.2589 30.4511 93.4223 30.8598C93.5994 31.2548 93.8514 31.5749 94.1783 31.8201C94.5189 32.0653 94.9207 32.1879 95.3839 32.1879C95.7653 32.1879 96.0854 32.1334 96.3442 32.0244C96.603 31.9018 96.8141 31.7656 96.9776 31.6158C97.141 31.4659 97.2568 31.3434 97.3249 31.248C97.4475 31.0845 97.5429 30.9892 97.611 30.9619C97.6927 30.9211 97.8085 30.9006 97.9583 30.9006H99.7155C99.8518 30.9006 99.9607 30.9415 100.042 31.0232C100.138 31.105 100.179 31.2071 100.165 31.3297C100.151 31.5477 100.036 31.8133 99.8177 32.1266C99.6134 32.4399 99.3137 32.7464 98.9187 33.0461C98.5236 33.3457 98.0265 33.5977 97.4271 33.8021C96.8414 33.9928 96.1671 34.0881 95.4043 34.0881ZM93.1567 27.6519H97.6723V27.5906C97.6723 27.0593 97.5838 26.5962 97.4067 26.2012C97.2296 25.8061 96.9708 25.4928 96.6302 25.2613C96.2897 25.0297 95.881 24.9139 95.4043 24.9139C94.9275 24.9139 94.5189 25.0297 94.1783 25.2613C93.8378 25.4928 93.579 25.8061 93.4019 26.2012C93.2384 26.5962 93.1567 27.0593 93.1567 27.5906V27.6519ZM105.164 33.8838C105.028 33.8838 104.912 33.8361 104.817 33.7408C104.721 33.6454 104.674 33.5296 104.674 33.3934V20.0919C104.674 19.942 104.721 19.8194 104.817 19.7241C104.912 19.6287 105.028 19.581 105.164 19.581H110.64C111.703 19.581 112.629 19.7513 113.419 20.0919C114.209 20.4188 114.822 20.9228 115.258 21.6039C115.694 22.2713 115.912 23.1091 115.912 24.1171C115.912 25.1387 115.694 25.9832 115.258 26.6507C114.822 27.3045 114.209 27.7949 113.419 28.1218C112.629 28.4487 111.703 28.6122 110.64 28.6122H107.596V33.3934C107.596 33.5296 107.548 33.6454 107.453 33.7408C107.371 33.8361 107.255 33.8838 107.105 33.8838H105.164ZM107.555 26.3442H110.538C111.328 26.3442 111.934 26.1603 112.356 25.7925C112.779 25.4111 112.99 24.8526 112.99 24.1171C112.99 23.436 112.792 22.8911 112.397 22.4825C112.002 22.0602 111.382 21.8491 110.538 21.8491H107.555V26.3442ZM116.978 33.8838C116.842 33.8838 116.726 33.8361 116.63 33.7408C116.535 33.6454 116.487 33.5296 116.487 33.3934V19.8671C116.487 19.7309 116.535 19.6151 116.63 19.5198C116.726 19.4244 116.842 19.3767 116.978 19.3767H118.674C118.81 19.3767 118.926 19.4244 119.021 19.5198C119.116 19.6151 119.164 19.7309 119.164 19.8671V33.3934C119.164 33.5296 119.116 33.6454 119.021 33.7408C118.926 33.8361 118.81 33.8838 118.674 33.8838H116.978ZM123.529 34.0881C122.821 34.0881 122.181 33.9519 121.609 33.6795C121.037 33.3934 120.58 33.0188 120.24 32.5557C119.913 32.0789 119.749 31.5477 119.749 30.9619C119.749 30.0084 120.131 29.2524 120.894 28.6939C121.67 28.1218 122.692 27.7404 123.959 27.5497L126.758 27.1411V26.712C126.758 26.1399 126.615 25.6972 126.329 25.3839C126.043 25.0706 125.552 24.9139 124.858 24.9139C124.367 24.9139 123.965 25.0161 123.652 25.2204C123.352 25.4111 123.128 25.6699 122.978 25.9969C122.869 26.1739 122.712 26.2625 122.508 26.2625H120.894C120.744 26.2625 120.628 26.2216 120.546 26.1399C120.478 26.0581 120.444 25.9492 120.444 25.813C120.458 25.595 120.546 25.3294 120.71 25.0161C120.873 24.7028 121.132 24.4031 121.486 24.1171C121.84 23.8174 122.297 23.5654 122.855 23.3611C123.414 23.1567 124.088 23.0546 124.878 23.0546C125.736 23.0546 126.458 23.1635 127.044 23.3815C127.643 23.5858 128.12 23.8651 128.474 24.2192C128.828 24.5734 129.087 24.9888 129.251 25.4656C129.414 25.9424 129.496 26.4464 129.496 26.9776V33.3934C129.496 33.5296 129.448 33.6454 129.353 33.7408C129.257 33.8361 129.142 33.8838 129.005 33.8838H127.35C127.2 33.8838 127.078 33.8361 126.983 33.7408C126.901 33.6454 126.86 33.5296 126.86 33.3934V32.5965C126.683 32.8554 126.444 33.1005 126.145 33.3321C125.845 33.5501 125.477 33.734 125.041 33.8838C124.619 34.02 124.115 34.0881 123.529 34.0881ZM124.224 32.147C124.701 32.147 125.13 32.0449 125.511 31.8405C125.906 31.6362 126.213 31.3229 126.431 30.9006C126.662 30.4648 126.778 29.9199 126.778 29.266V28.837L124.735 29.1639C123.931 29.2865 123.332 29.484 122.937 29.7564C122.542 30.0289 122.344 30.3626 122.344 30.7576C122.344 31.0573 122.433 31.3161 122.61 31.5341C122.801 31.7384 123.039 31.895 123.325 32.004C123.611 32.0994 123.911 32.147 124.224 32.147ZM132.328 37.766C132.219 37.766 132.124 37.7251 132.042 37.6434C131.96 37.5616 131.919 37.4663 131.919 37.3573C131.919 37.3028 131.919 37.2483 131.919 37.1939C131.933 37.153 131.96 37.0985 132.001 37.0304L133.595 33.2504L129.672 23.9945C129.617 23.8582 129.59 23.7629 129.59 23.7084C129.604 23.5858 129.651 23.4837 129.733 23.4019C129.815 23.3066 129.917 23.2589 130.04 23.2589H131.695C131.858 23.2589 131.981 23.2998 132.062 23.3815C132.144 23.4632 132.205 23.5518 132.246 23.6471L134.964 30.3285L137.763 23.6471C137.804 23.5381 137.865 23.4496 137.947 23.3815C138.029 23.2998 138.151 23.2589 138.315 23.2589H139.949C140.058 23.2589 140.154 23.2998 140.235 23.3815C140.331 23.4632 140.378 23.5586 140.378 23.6675C140.378 23.7493 140.351 23.8582 140.297 23.9945L134.514 37.3777C134.46 37.4867 134.392 37.5753 134.31 37.6434C134.228 37.7251 134.106 37.766 133.942 37.766H132.328Z" fill="white"/>
</svg>
