<svg width="18" height="18" viewBox="0 0 18 18" fill="none" xmlns="http://www.w3.org/2000/svg">
<path d="M17.8207 5.39961C17.8207 5.39961 17.6449 4.15859 17.1035 3.61367C16.418 2.89648 15.6516 2.89297 15.3 2.85078C12.7828 2.66797 9.00352 2.66797 9.00352 2.66797H8.99648C8.99648 2.66797 5.21719 2.66797 2.7 2.85078C2.34844 2.89297 1.58203 2.89648 0.896484 3.61367C0.355078 4.15859 0.182812 5.39961 0.182812 5.39961C0.182812 5.39961 0 6.85859 0 8.31406V9.67812C0 11.1336 0.179297 12.5926 0.179297 12.5926C0.179297 12.5926 0.355078 13.8336 0.892969 14.3785C1.57852 15.0957 2.47852 15.0711 2.8793 15.1484C4.3207 15.2855 9 15.3277 9 15.3277C9 15.3277 12.7828 15.3207 15.3 15.1414C15.6516 15.0992 16.418 15.0957 17.1035 14.3785C17.6449 13.8336 17.8207 12.5926 17.8207 12.5926C17.8207 12.5926 18 11.1371 18 9.67812V8.31406C18 6.85859 17.8207 5.39961 17.8207 5.39961ZM7.14023 11.334V6.275L12.0023 8.81328L7.14023 11.334Z" fill="#B4B3B7"/>
</svg>
