<svg width="21" height="26" viewBox="0 0 21 26" fill="none" xmlns="http://www.w3.org/2000/svg">
<path d="M3.34961 0.046875H18.958C19.8041 0.046875 20.4922 0.732503 20.4922 1.5752V22.3564C20.4981 23.2745 19.6809 23.9645 18.7744 23.8838L18.7236 23.8799V24.2314C18.7235 25.0089 18.091 25.6406 17.3135 25.6406H1.45605C0.678757 25.6404 0.0469836 25.0088 0.046875 24.2314V3.21289C0.0489221 2.28466 0.871689 1.70073 1.76367 1.80273L1.81445 1.80859V1.5752C1.81445 0.732508 2.50356 0.046875 3.34961 0.046875ZM1.45605 2.5957C1.11603 2.59593 0.839957 2.87265 0.839844 3.21289V24.2314C0.839952 24.5713 1.11605 24.8474 1.45605 24.8477H17.3135C17.6537 24.8477 17.9306 24.5714 17.9307 24.2314V3.21289C17.9306 2.87251 17.6537 2.5957 17.3135 2.5957H1.45605ZM3.34961 0.839844C2.93466 0.839844 2.60742 1.16299 2.60742 1.5752V1.80273H17.3135C18.0909 1.80273 18.7235 2.43543 18.7236 3.21289V23.085L18.7637 23.0908C19.2288 23.1549 19.6993 22.8593 19.6992 22.3555V1.5752C19.6992 1.16948 19.3665 0.839844 18.958 0.839844H3.34961Z" fill="white" stroke="#080219" stroke-width="0.0927765"/>
<path d="M2.88086 4.69531H5.04004C5.25902 4.69531 5.43652 4.87263 5.43652 5.0918V7.24023C5.43641 7.4593 5.25895 7.63672 5.04004 7.63672H2.88086C2.66195 7.63672 2.48449 7.4593 2.48438 7.24023V5.0918C2.48438 4.87263 2.66188 4.69531 2.88086 4.69531ZM3.27734 6.84375H4.64355V5.48828H3.27734V6.84375Z" fill="white" stroke="#080219" stroke-width="0.0927765"/>
<path d="M2.88086 11.5625H5.04004C5.25902 11.5625 5.43652 11.7398 5.43652 11.959V14.1064C5.43652 14.3256 5.25902 14.5029 5.04004 14.5029H2.88086C2.66188 14.5029 2.48438 14.3256 2.48438 14.1064V11.959C2.48438 11.7398 2.66188 11.5625 2.88086 11.5625ZM3.27734 13.71H4.64355V12.3555H3.27734V13.71Z" fill="white" stroke="#080219" stroke-width="0.0927765"/>
<path d="M2.88086 18.4297H5.04004C5.25902 18.4297 5.43652 18.607 5.43652 18.8262V20.9746C5.43641 21.1937 5.25895 21.3711 5.04004 21.3711H2.88086C2.66195 21.3711 2.48449 21.1937 2.48438 20.9746V18.8262C2.48438 18.607 2.66188 18.4297 2.88086 18.4297ZM3.27734 20.5781H4.64355V19.2227H3.27734V20.5781Z" fill="white" stroke="#080219" stroke-width="0.0927765"/>
<path d="M15.2324 4.91699C15.3659 4.91934 15.4628 4.97054 15.5264 5.04297C15.5906 5.11625 15.6233 5.21486 15.623 5.31445C15.6227 5.414 15.5888 5.51176 15.5244 5.58496C15.4606 5.65738 15.3647 5.70883 15.2324 5.71094H7.08594C6.95237 5.70867 6.8556 5.65738 6.79199 5.58496C6.72767 5.51166 6.69505 5.41315 6.69531 5.31348C6.69563 5.21401 6.72866 5.11614 6.79297 5.04297C6.85668 4.97062 6.9529 4.91918 7.08496 4.91699V4.91797H15.2324V4.91699Z" fill="white" stroke="#080219" stroke-width="0.0927765"/>
<path d="M15.2324 6.69043C15.3659 6.69278 15.4628 6.74398 15.5264 6.81641C15.5906 6.88969 15.6233 6.9883 15.623 7.08789C15.6227 7.18743 15.5888 7.2852 15.5244 7.3584C15.4606 7.43081 15.3647 7.48227 15.2324 7.48438H7.08594C6.95237 7.48211 6.8556 7.43082 6.79199 7.3584C6.72767 7.2851 6.69505 7.18658 6.69531 7.08691C6.69563 6.98745 6.72866 6.88958 6.79297 6.81641C6.85668 6.74405 6.9529 6.69262 7.08496 6.69043V6.69141H15.2324V6.69043Z" fill="white" stroke="#080219" stroke-width="0.0927765"/>
<path d="M15.2324 11.6709C15.3659 11.6732 15.4628 11.7244 15.5264 11.7969C15.5906 11.8702 15.6233 11.9688 15.623 12.0684C15.6227 12.1679 15.5888 12.2657 15.5244 12.3389C15.4606 12.4113 15.3647 12.4627 15.2324 12.4648H7.08594C6.95237 12.4626 6.8556 12.4113 6.79199 12.3389C6.72767 12.2656 6.69505 12.1671 6.69531 12.0674C6.69563 11.9679 6.72866 11.8701 6.79297 11.7969C6.85668 11.7245 6.9529 11.6731 7.08496 11.6709V11.6719H15.2324V11.6709Z" fill="white" stroke="#080219" stroke-width="0.0927765"/>
<path d="M15.2324 13.4443C15.3659 13.4467 15.4628 13.4979 15.5264 13.5703C15.5906 13.6436 15.6233 13.7422 15.623 13.8418C15.6227 13.9413 15.5888 14.0391 15.5244 14.1123C15.4606 14.1847 15.3647 14.2362 15.2324 14.2383H7.08594C6.95237 14.236 6.8556 14.1847 6.79199 14.1123C6.72767 14.039 6.69505 13.9405 6.69531 13.8408C6.69563 13.7414 6.72866 13.6435 6.79297 13.5703C6.85668 13.498 6.9529 13.4465 7.08496 13.4443V13.4453H15.2324V13.4443Z" fill="white" stroke="#080219" stroke-width="0.0927765"/>
<path d="M15.2324 18.4287C15.3659 18.4311 15.4628 18.4823 15.5264 18.5547C15.5906 18.628 15.6233 18.7266 15.623 18.8262C15.6227 18.9257 15.5888 19.0235 15.5244 19.0967C15.4606 19.1691 15.3647 19.2206 15.2324 19.2227H7.08594C6.95237 19.2204 6.8556 19.1691 6.79199 19.0967C6.72767 19.0234 6.69505 18.9249 6.69531 18.8252C6.69563 18.7257 6.72866 18.6279 6.79297 18.5547C6.85668 18.4823 6.9529 18.4309 7.08496 18.4287V18.4297H15.2324V18.4287Z" fill="white" stroke="#080219" stroke-width="0.0927765"/>
<path d="M15.2324 20.1943C15.3659 20.1967 15.4628 20.2479 15.5264 20.3203C15.5906 20.3936 15.6233 20.4922 15.623 20.5918C15.6227 20.6913 15.5888 20.7891 15.5244 20.8623C15.4606 20.9347 15.3647 20.9862 15.2324 20.9883H7.08594C6.95237 20.986 6.8556 20.9347 6.79199 20.8623C6.72767 20.789 6.69505 20.6905 6.69531 20.5908C6.69563 20.4914 6.72866 20.3935 6.79297 20.3203C6.85668 20.248 6.9529 20.1965 7.08496 20.1943V20.1953H15.2324V20.1943Z" fill="white" stroke="#080219" stroke-width="0.0927765"/>
</svg>
