<svg width="20" height="26" viewBox="0 0 20 26" fill="none" xmlns="http://www.w3.org/2000/svg">
<path d="M4.07812 7.88574C4.42821 7.88598 4.71484 8.1733 4.71484 8.52344V15.8662H6.07617V13.2539C6.07617 12.9036 6.36359 12.6162 6.71387 12.6162C7.06412 12.6162 7.35059 12.9037 7.35059 13.2539V15.8662H8.71289V11.8809C8.71315 11.5309 8.99963 11.2443 9.34961 11.2441C9.69973 11.2441 9.98704 11.5308 9.9873 11.8809V15.8662H11.3486V10.5088C11.3488 10.1587 11.6362 9.87207 11.9863 9.87207C12.3364 9.87224 12.6229 10.1588 12.623 10.5088V15.8662H13.9854V9.13672C13.9854 8.78073 14.2414 8.50005 14.5859 8.5C14.9362 8.5 15.2235 8.78652 15.2236 9.13672V15.8662H15.5605C15.9108 15.8662 16.1982 16.1536 16.1982 16.5039C16.1981 16.854 15.9107 17.1406 15.5605 17.1406H4.07812C3.72796 17.1406 3.44062 16.854 3.44043 16.5039V8.52344C3.44043 8.17316 3.72785 7.88574 4.07812 7.88574Z" fill="white" stroke="#080219" stroke-width="0.17"/>
<path d="M3.64453 18.6455H16.0664C16.4166 18.6456 16.7031 18.933 16.7031 19.2832C16.7029 19.6333 16.4165 19.9199 16.0664 19.9199H3.64453C3.2944 19.9199 3.00707 19.6333 3.00684 19.2832C3.00684 18.9329 3.29425 18.6455 3.64453 18.6455Z" fill="white" stroke="#080219" stroke-width="0.17"/>
<path d="M13.7539 21.6431H16.0645C16.4147 21.6431 16.7021 21.9305 16.7021 22.2808C16.7019 22.6308 16.4146 22.9175 16.0645 22.9175H13.7539C13.4038 22.9175 13.1164 22.6308 13.1162 22.2808C13.1162 21.9305 13.4036 21.6431 13.7539 21.6431Z" fill="white" stroke="#080219" stroke-width="0.17"/>
<path d="M3.64453 21.6431H11.5889C11.939 21.6432 12.2256 21.9306 12.2256 22.2808C12.2253 22.6307 11.9389 22.9173 11.5889 22.9175H3.64453C3.2944 22.9175 3.00707 22.6308 3.00684 22.2808C3.00684 21.9305 3.29425 21.6431 3.64453 21.6431Z" fill="white" stroke="#080219" stroke-width="0.17"/>
<path d="M2.09082 0.0849609H14.043C14.5978 0.0849609 15.0823 0.292273 15.4639 0.673828L19.0391 4.24902C19.42 4.63003 19.6279 5.1505 19.6279 5.66992V23.9053C19.6279 25.0139 18.7268 25.915 17.6182 25.915H2.09082C0.982209 25.915 0.0810547 25.0139 0.0810547 23.9053V2.09473C0.0810547 0.986115 0.982209 0.0849609 2.09082 0.0849609ZM2.09082 1.35938C1.68276 1.35938 1.35547 1.68667 1.35547 2.09473V23.9053C1.35547 24.3133 1.68276 24.6406 2.09082 24.6406H17.6182C17.9974 24.6406 18.303 24.3577 18.3447 23.9902H18.3896V5.76465H14.6211C14.2709 5.76465 13.9835 5.47814 13.9834 5.12793V1.35938H2.09082ZM15.2588 4.4541H17.4629L17.3174 4.30957L15.4033 2.39551L15.2588 2.25V4.4541Z" fill="white" stroke="#080219" stroke-width="0.17"/>
</svg>
