<svg width="28" height="22" viewBox="0 0 28 22" fill="none" xmlns="http://www.w3.org/2000/svg">
<path d="M23.7657 7.02969V2.1247C23.7657 1.9216 23.7257 1.72048 23.648 1.53284C23.5702 1.34519 23.4563 1.1747 23.3127 1.03108C23.1691 0.887465 22.9986 0.773546 22.8109 0.695827C22.6233 0.618108 22.4222 0.578113 22.2191 0.578125H2.10908C1.90597 0.578113 1.70486 0.618107 1.51721 0.695826C1.32957 0.773544 1.15907 0.887464 1.01545 1.03108C0.871839 1.17469 0.757919 1.34519 0.680201 1.53284C0.602483 1.72048 0.562488 1.9216 0.5625 2.1247L0.5625 14.9784C0.563722 15.3092 0.670908 15.6308 0.868335 15.8962C1.06576 16.1616 1.34304 16.3568 1.65949 16.453V20.0048C1.65962 20.0965 1.68763 20.1861 1.73982 20.2616C1.79201 20.337 1.86591 20.3949 1.95172 20.4274C2.00221 20.4454 2.05546 20.4545 2.10908 20.4543C2.17398 20.4541 2.23807 20.4399 2.29702 20.4128C2.35597 20.3856 2.4084 20.3462 2.45076 20.297L5.71926 16.5205H12.8407C13.3018 17.6413 14.023 18.6363 14.9448 19.4231C15.8666 20.21 16.9625 20.7661 18.1418 21.0455C19.3211 21.3249 20.55 21.3196 21.7269 21.03C22.9037 20.7403 23.9947 20.1747 24.9097 19.3799C25.8246 18.5851 26.5372 17.5838 26.9885 16.4591C27.4398 15.3343 27.6169 14.1182 27.5051 12.9114C27.3934 11.7046 26.9959 10.5417 26.3457 9.51897C25.6954 8.49621 24.811 7.64294 23.7657 7.02969ZM4.09175 12.681H12.3192C12.2793 12.9896 12.2598 13.3005 12.2607 13.6116C12.2603 14.2906 12.351 14.9665 12.5305 15.6213H5.51245C5.44756 15.6216 5.3835 15.6358 5.32456 15.663C5.26562 15.6901 5.21318 15.7295 5.17076 15.7786L2.55866 18.7999V16.0709C2.55831 15.9517 2.51083 15.8376 2.42659 15.7534C2.34235 15.6691 2.22821 15.6216 2.10908 15.6213C1.93809 15.6215 1.77398 15.554 1.65265 15.4335C1.53133 15.313 1.46266 15.1494 1.46167 14.9784V2.1247C1.46248 1.95325 1.53095 1.78905 1.65218 1.66781C1.77342 1.54657 1.93762 1.4781 2.10908 1.4773H22.2191C22.3905 1.4781 22.5547 1.54657 22.676 1.6678C22.7972 1.78904 22.8657 1.95325 22.8665 2.1247V6.57561C21.4862 5.99142 19.9642 5.8274 18.4911 6.10411C17.0181 6.38081 15.6593 7.08593 14.5851 8.13118C14.5626 8.12219 4.09175 8.12219 4.09175 8.12219C3.97252 8.12219 3.85816 8.16955 3.77385 8.25387C3.68954 8.33818 3.64217 8.45254 3.64217 8.57177C3.64217 8.69101 3.68954 8.80537 3.77385 8.88968C3.85816 8.97399 3.97252 9.02136 4.09175 9.02136H13.7983C13.1771 9.84296 12.7289 10.7821 12.481 11.7818H4.09175C3.97252 11.7818 3.85816 11.8292 3.77385 11.9135C3.68954 11.9978 3.64217 12.1122 3.64217 12.2314C3.64217 12.3506 3.68954 12.465 3.77385 12.5493C3.85816 12.6336 3.97252 12.681 4.09175 12.681ZM19.8992 20.3509C18.5663 20.3509 17.2633 19.9557 16.1551 19.2152C15.0468 18.4746 14.183 17.4221 13.6729 16.1907C13.1628 14.9592 13.0294 13.6042 13.2894 12.2969C13.5494 10.9896 14.1913 9.78874 15.1338 8.84623C16.0763 7.90372 17.2771 7.26187 18.5844 7.00183C19.8917 6.74179 21.2468 6.87525 22.4782 7.38534C23.7097 7.89542 24.7622 8.75921 25.5027 9.86748C26.2433 10.9758 26.6385 12.2787 26.6385 13.6116C26.6364 15.3984 25.9257 17.1113 24.6623 18.3747C23.3989 19.6381 21.6859 20.3488 19.8992 20.3509ZM23.5813 15.5584H23.1812V12.3888C23.1812 11.5183 22.8354 10.6835 22.2199 10.0681C21.6044 9.45256 20.7697 9.10678 19.8992 9.10678C19.0288 9.10678 18.194 9.45256 17.5785 10.0681C16.963 10.6835 16.6172 11.5183 16.6172 12.3888V15.5584H16.2171C16.0979 15.5584 15.9835 15.6057 15.8992 15.69C15.8149 15.7743 15.7675 15.8887 15.7675 16.0079C15.7675 16.1272 15.8149 16.2415 15.8992 16.3258C15.9835 16.4102 16.0979 16.4575 16.2171 16.4575H18.2402C18.2402 16.8975 18.415 17.3195 18.7261 17.6306C19.0373 17.9417 19.4592 18.1165 19.8992 18.1165C20.3392 18.1165 20.7612 17.9417 21.0723 17.6306C21.3834 17.3195 21.5582 16.8975 21.5582 16.4575H23.5813C23.7006 16.4575 23.8149 16.4102 23.8992 16.3258C23.9836 16.2415 24.0309 16.1272 24.0309 16.0079C24.0309 15.8887 23.9836 15.7743 23.8992 15.69C23.8149 15.6057 23.7006 15.5584 23.5813 15.5584ZM19.8992 17.2173C19.6979 17.2168 19.5049 17.1366 19.3625 16.9942C19.2201 16.8518 19.1399 16.6589 19.1394 16.4575H20.659C20.6585 16.6589 20.5783 16.8518 20.4359 16.9942C20.2935 17.1366 20.1006 17.2168 19.8992 17.2173ZM22.282 15.5584H17.5164V12.3888C17.5164 11.7568 17.7675 11.1507 18.2143 10.7039C18.6612 10.257 19.2673 10.006 19.8992 10.006C20.5312 10.006 21.1373 10.257 21.5841 10.7039C22.031 11.1507 22.282 11.7568 22.282 12.3888V15.5584ZM20.8344 4.91214C20.834 5.03127 20.7865 5.14542 20.7023 5.22966C20.6181 5.3139 20.5039 5.36138 20.3848 5.36173H4.09175C3.97252 5.36173 3.85816 5.31436 3.77385 5.23004C3.68954 5.14573 3.64217 5.03138 3.64217 4.91214C3.64217 4.7929 3.68954 4.67855 3.77385 4.59423C3.85816 4.50992 3.97252 4.46255 4.09175 4.46255H20.3848C20.5039 4.46291 20.618 4.51039 20.7023 4.59463C20.7865 4.67886 20.834 4.79301 20.8344 4.91214Z" fill="white"/>
</svg>
