<svg width="59" height="22" viewBox="0 0 59 22" fill="none" xmlns="http://www.w3.org/2000/svg">
<rect width="58.477" height="21.5441" fill="#0B051E"/>
<path d="M22.307 6.914V8.344H21.059V15H19.343C19.0223 14.532 18.6323 14.1203 18.173 13.765C17.7223 13.4097 17.2197 13.115 16.665 12.881C16.1103 12.6383 15.508 12.465 14.858 12.361L14.208 10.827C15.0053 10.385 15.8763 9.96033 16.821 9.553C17.7743 9.137 18.7103 8.80767 19.629 8.565L19.395 8.994V8.344H13.87V6.914H22.307ZM19.343 9.813L19.616 10.099C19.044 10.2637 18.5023 10.4543 17.991 10.671C17.4883 10.879 16.9553 11.1173 16.392 11.386C16.7473 11.4553 17.1157 11.5767 17.497 11.75C17.887 11.9147 18.264 12.1313 18.628 12.4C19.0007 12.6687 19.3343 12.9807 19.629 13.336L19.382 13.479C19.3733 13.2797 19.3647 13.0803 19.356 12.881C19.3473 12.6817 19.343 12.4867 19.343 12.296V9.813ZM26.2578 6.914V8.344H25.0098V15H23.2938V9.228C23.1898 8.95933 23.0424 8.747 22.8518 8.591C22.6611 8.42633 22.4141 8.344 22.1108 8.344H22.0458V6.914H22.3058C22.5051 6.914 22.6914 6.966 22.8648 7.07C23.0381 7.174 23.1984 7.395 23.3458 7.733C23.3371 7.68967 23.3241 7.59 23.3068 7.434C23.2981 7.278 23.2938 7.14367 23.2938 7.031V6.056H24.6978L24.9968 6.914H26.2578ZM27.97 10.866C28.5247 11.1953 29.036 11.5767 29.504 12.01C29.972 12.4347 30.3967 12.894 30.778 13.388C31.1594 13.882 31.5017 14.3933 31.805 14.922L30.505 15.611C30.1844 15.1517 29.855 14.7227 29.517 14.324C29.179 13.9253 28.7977 13.544 28.373 13.18C27.957 12.816 27.4717 12.4693 26.917 12.14L27.97 10.866ZM26.956 8.838C26.956 8.45667 27.0427 8.123 27.216 7.837C27.398 7.551 27.6407 7.32567 27.944 7.161C28.2474 6.99633 28.5897 6.914 28.971 6.914C29.3524 6.914 29.6947 6.99633 29.998 7.161C30.3014 7.32567 30.5397 7.551 30.713 7.837C30.895 8.123 30.986 8.45667 30.986 8.838C30.986 9.21933 30.895 9.55733 30.713 9.852C30.5397 10.138 30.3014 10.3633 29.998 10.528C29.6947 10.6927 29.3524 10.775 28.971 10.775C28.5897 10.775 28.2474 10.697 27.944 10.541C27.6407 10.3763 27.398 10.1467 27.216 9.852C27.0427 9.55733 26.956 9.21933 26.956 8.838ZM28.269 8.838C28.269 9.046 28.334 9.21933 28.464 9.358C28.6027 9.488 28.7717 9.553 28.971 9.553C29.1704 9.553 29.335 9.488 29.465 9.358C29.6037 9.21933 29.673 9.046 29.673 8.838C29.673 8.63867 29.6037 8.474 29.465 8.344C29.335 8.20533 29.1704 8.136 28.971 8.136C28.7717 8.136 28.6027 8.20533 28.464 8.344C28.334 8.474 28.269 8.63867 28.269 8.838ZM42.0422 6.914V8.344H40.7942V15H39.0782V10.905L39.4292 11.646C39.2906 11.3947 39.1259 11.178 38.9352 10.996C38.7446 10.814 38.5279 10.723 38.2852 10.723C38.1986 10.723 38.0989 10.7447 37.9862 10.788C37.8822 10.8313 37.7912 10.9137 37.7132 11.035C37.6439 11.1563 37.6092 11.334 37.6092 11.568C37.6092 11.646 37.6136 11.7197 37.6222 11.789C37.6309 11.8497 37.6396 11.9147 37.6482 11.984L36.1792 12.075C36.1359 11.789 36.0492 11.542 35.9192 11.334C35.7979 11.1173 35.6419 10.9527 35.4512 10.84C35.2606 10.7273 35.0309 10.671 34.7622 10.671C34.6062 10.671 34.4676 10.7013 34.3462 10.762C34.2249 10.814 34.1296 10.892 34.0602 10.996C33.9996 11.1 33.9692 11.2213 33.9692 11.36C33.9692 11.672 34.0906 11.9147 34.3332 12.088C34.5846 12.2613 34.8879 12.4043 35.2432 12.517L34.7492 13.973C34.2292 13.8257 33.7786 13.6307 33.3972 13.388C33.0159 13.1367 32.7212 12.8377 32.5132 12.491C32.3052 12.1443 32.2012 11.7457 32.2012 11.295C32.2012 10.8617 32.3052 10.489 32.5132 10.177C32.7299 9.865 33.0159 9.62667 33.3712 9.462C33.7266 9.28867 34.1166 9.202 34.5412 9.202C35.0526 9.202 35.4816 9.28867 35.8282 9.462C36.1749 9.62667 36.5346 9.89967 36.9072 10.281L36.6732 10.19C36.7686 9.88667 36.9376 9.657 37.1802 9.501C37.4229 9.345 37.6786 9.267 37.9472 9.267C38.2506 9.267 38.5192 9.32767 38.7532 9.449C38.9959 9.57033 39.2212 9.735 39.4292 9.943L39.1432 10.151C39.1259 9.96033 39.1086 9.76967 39.0912 9.579C39.0826 9.38833 39.0782 9.19767 39.0782 9.007V8.344H31.6942V6.914H42.0422ZM45.999 6.914V8.344H44.751V15H43.035V9.228C42.931 8.95933 42.7837 8.747 42.593 8.591C42.4023 8.42633 42.1553 8.344 41.852 8.344H41.787V6.914H42.047C42.2463 6.914 42.4327 6.966 42.606 7.07C42.7793 7.174 42.9397 7.395 43.087 7.733C43.0783 7.68967 43.0653 7.59 43.048 7.434C43.0393 7.278 43.035 7.14367 43.035 7.031V6.056H44.439L44.738 6.914H45.999Z" fill="white"/>
</svg>
