<svg width="59" height="22" viewBox="0 0 59 22" fill="none" xmlns="http://www.w3.org/2000/svg">
<rect width="58.477" height="21.5441" fill="#0B051E"/>
<path d="M8.717 7.395V9.67H11.772V11.113H8.717V13.518H12.162V15H6.897V5.913H12.162V7.395H8.717ZM17.8069 7.694C18.6649 7.694 19.3583 7.967 19.8869 8.513C20.4156 9.05033 20.6799 9.80433 20.6799 10.775V15H18.8599V11.022C18.8599 10.45 18.7169 10.0123 18.4309 9.709C18.1449 9.397 17.7549 9.241 17.2609 9.241C16.7583 9.241 16.3596 9.397 16.0649 9.709C15.7789 10.0123 15.6359 10.45 15.6359 11.022V15H13.8159V7.798H15.6359V8.695C15.8786 8.383 16.1863 8.14033 16.5589 7.967C16.9403 7.785 17.3563 7.694 17.8069 7.694ZM25.2317 7.681C25.769 7.681 26.2413 7.78933 26.6487 8.006C27.056 8.214 27.3767 8.487 27.6107 8.825V7.798H29.4437V15.052C29.4437 15.7193 29.3093 16.313 29.0407 16.833C28.772 17.3617 28.369 17.7777 27.8317 18.081C27.2943 18.393 26.6443 18.549 25.8817 18.549C24.859 18.549 24.0183 18.3107 23.3597 17.834C22.7097 17.3573 22.3413 16.7073 22.2547 15.884H24.0617C24.157 16.2133 24.3607 16.4733 24.6727 16.664C24.9933 16.8633 25.379 16.963 25.8297 16.963C26.3583 16.963 26.7873 16.8027 27.1167 16.482C27.446 16.17 27.6107 15.6933 27.6107 15.052V13.934C27.3767 14.272 27.0517 14.5537 26.6357 14.779C26.2283 15.0043 25.7603 15.117 25.2317 15.117C24.625 15.117 24.0703 14.961 23.5677 14.649C23.065 14.337 22.6663 13.8993 22.3717 13.336C22.0857 12.764 21.9427 12.1097 21.9427 11.373C21.9427 10.645 22.0857 9.99933 22.3717 9.436C22.6663 8.87267 23.0607 8.43933 23.5547 8.136C24.0573 7.83267 24.6163 7.681 25.2317 7.681ZM27.6107 11.399C27.6107 10.957 27.524 10.58 27.3507 10.268C27.1773 9.94733 26.9433 9.70467 26.6487 9.54C26.354 9.36667 26.0377 9.28 25.6997 9.28C25.3617 9.28 25.0497 9.36233 24.7637 9.527C24.4777 9.69167 24.2437 9.93433 24.0617 10.255C23.8883 10.567 23.8017 10.9397 23.8017 11.373C23.8017 11.8063 23.8883 12.1877 24.0617 12.517C24.2437 12.8377 24.4777 13.0847 24.7637 13.258C25.0583 13.4313 25.3703 13.518 25.6997 13.518C26.0377 13.518 26.354 13.4357 26.6487 13.271C26.9433 13.0977 27.1773 12.855 27.3507 12.543C27.524 12.2223 27.6107 11.841 27.6107 11.399ZM33.0412 5.38V15H31.2212V5.38H33.0412ZM35.7624 6.94C35.4417 6.94 35.173 6.84033 34.9564 6.641C34.7484 6.433 34.6444 6.17733 34.6444 5.874C34.6444 5.57067 34.7484 5.31933 34.9564 5.12C35.173 4.912 35.4417 4.808 35.7624 4.808C36.083 4.808 36.3474 4.912 36.5554 5.12C36.772 5.31933 36.8804 5.57067 36.8804 5.874C36.8804 6.17733 36.772 6.433 36.5554 6.641C36.3474 6.84033 36.083 6.94 35.7624 6.94ZM36.6594 7.798V15H34.8394V7.798H36.6594ZM41.2135 15.117C40.6242 15.117 40.0955 15.013 39.6275 14.805C39.1595 14.5883 38.7869 14.298 38.5095 13.934C38.2409 13.57 38.0935 13.167 38.0675 12.725H39.9005C39.9352 13.0023 40.0695 13.232 40.3035 13.414C40.5462 13.596 40.8452 13.687 41.2005 13.687C41.5472 13.687 41.8159 13.6177 42.0065 13.479C42.2059 13.3403 42.3055 13.1627 42.3055 12.946C42.3055 12.712 42.1842 12.5387 41.9415 12.426C41.7075 12.3047 41.3305 12.1747 40.8105 12.036C40.2732 11.906 39.8312 11.7717 39.4845 11.633C39.1465 11.4943 38.8519 11.282 38.6005 10.996C38.3579 10.71 38.2365 10.3243 38.2365 9.839C38.2365 9.44033 38.3492 9.07633 38.5745 8.747C38.8085 8.41767 39.1379 8.15767 39.5625 7.967C39.9959 7.77633 40.5029 7.681 41.0835 7.681C41.9415 7.681 42.6262 7.89767 43.1375 8.331C43.6489 8.75567 43.9305 9.332 43.9825 10.06H42.2405C42.2145 9.774 42.0932 9.54867 41.8765 9.384C41.6685 9.21067 41.3869 9.124 41.0315 9.124C40.7022 9.124 40.4465 9.18467 40.2645 9.306C40.0912 9.42733 40.0045 9.59633 40.0045 9.813C40.0045 10.0557 40.1259 10.242 40.3685 10.372C40.6112 10.4933 40.9882 10.619 41.4995 10.749C42.0195 10.879 42.4485 11.0133 42.7865 11.152C43.1245 11.2907 43.4149 11.5073 43.6575 11.802C43.9089 12.088 44.0389 12.4693 44.0475 12.946C44.0475 13.362 43.9305 13.7347 43.6965 14.064C43.4712 14.3933 43.1419 14.6533 42.7085 14.844C42.2839 15.026 41.7855 15.117 41.2135 15.117ZM49.5975 7.694C50.1435 7.694 50.6289 7.81533 51.0535 8.058C51.4782 8.292 51.8075 8.643 52.0415 9.111C52.2842 9.57033 52.4055 10.125 52.4055 10.775V15H50.5855V11.022C50.5855 10.45 50.4425 10.0123 50.1565 9.709C49.8705 9.397 49.4805 9.241 48.9865 9.241C48.4839 9.241 48.0852 9.397 47.7905 9.709C47.5045 10.0123 47.3615 10.45 47.3615 11.022V15H45.5415V5.38H47.3615V8.695C47.5955 8.383 47.9075 8.14033 48.2975 7.967C48.6875 7.785 49.1209 7.694 49.5975 7.694Z" fill="white"/>
</svg>
