<svg width="59" height="22" viewBox="0 0 59 22" fill="none" xmlns="http://www.w3.org/2000/svg">
<rect width="58.477" height="21.5441" fill="#0B051E"/>
<path d="M10.964 12.842C10.5393 12.842 10.1537 12.7727 9.807 12.634C9.46033 12.4953 9.144 12.296 8.858 12.036C8.572 11.7673 8.30767 11.4467 8.065 11.074L9.352 10.32C9.55133 10.6233 9.75933 10.8703 9.976 11.061C10.2013 11.2517 10.4743 11.347 10.795 11.347C11.0723 11.347 11.3063 11.2603 11.497 11.087C11.6877 10.9137 11.783 10.5757 11.783 10.073C11.783 9.53567 11.6747 9.163 11.458 8.955C11.25 8.73833 10.9467 8.63 10.548 8.63C10.288 8.63 10.041 8.66033 9.807 8.721C9.58167 8.773 9.36933 8.84667 9.17 8.942L8.689 7.603C8.96633 7.48167 9.274 7.37767 9.612 7.291C9.95 7.20433 10.3313 7.161 10.756 7.161C11.3453 7.161 11.8437 7.28233 12.251 7.525C12.667 7.759 12.9833 8.097 13.2 8.539C13.4167 8.981 13.525 9.50533 13.525 10.112C13.525 10.632 13.4513 11.0697 13.304 11.425C13.1653 11.7717 12.9703 12.049 12.719 12.257C12.4763 12.465 12.2033 12.6167 11.9 12.712C11.5967 12.7987 11.2847 12.842 10.964 12.842ZM14.474 15.585V7.161L16.216 7.304V15.585H14.474ZM15.0706 18.484C14.4466 18.484 13.8876 18.393 13.3936 18.211C12.8996 18.0377 12.4489 17.7863 12.0416 17.457C11.6256 17.1363 11.2226 16.7593 10.8326 16.326L12.0286 15.468C12.3926 15.8667 12.7349 16.1917 13.0556 16.443C13.3676 16.6943 13.6796 16.8763 13.9916 16.989C14.2949 17.1103 14.6156 17.171 14.9536 17.171C15.2482 17.171 15.4779 17.1147 15.6426 17.002C15.8072 16.898 15.8896 16.7377 15.8896 16.521C15.8896 16.2957 15.8159 16.1397 15.6686 16.053C15.5126 15.9663 15.3306 15.923 15.1226 15.923C14.9492 15.923 14.7802 15.9403 14.6156 15.975C14.4509 16.0183 14.2906 16.0703 14.1346 16.131L13.6926 14.909C13.9439 14.8137 14.1952 14.74 14.4466 14.688C14.6979 14.636 14.9449 14.61 15.1876 14.61C15.8896 14.61 16.4399 14.792 16.8386 15.156C17.2286 15.5287 17.4236 16.001 17.4236 16.573C17.4236 17.1277 17.2199 17.5827 16.8126 17.938C16.3966 18.302 15.8159 18.484 15.0706 18.484ZM25.1196 15.13C24.5129 15.13 24.0189 15.0173 23.6376 14.792C23.2649 14.558 22.9919 14.2677 22.8186 13.921C22.6539 13.5743 22.5716 13.2147 22.5716 12.842C22.5716 12.4347 22.6409 12.049 22.7796 11.685C22.9182 11.3123 23.1522 10.9353 23.4816 10.554C23.8109 10.1727 24.2529 9.761 24.8076 9.319C25.1109 9.07633 25.4316 8.83367 25.7696 8.591C26.1076 8.34833 26.4629 8.10567 26.8356 7.863C27.2082 7.62033 27.5852 7.38633 27.9666 7.161L28.9156 8.5C28.5602 8.71667 28.2136 8.929 27.8756 9.137C27.5462 9.345 27.2256 9.54867 26.9136 9.748C26.6016 9.94733 26.2982 10.151 26.0036 10.359C25.5442 10.7057 25.1889 11.0133 24.9376 11.282C24.6949 11.542 24.5259 11.7847 24.4306 12.01C24.3352 12.2353 24.2876 12.478 24.2876 12.738C24.2876 13.0673 24.3612 13.31 24.5086 13.466C24.6646 13.622 24.8682 13.7 25.1196 13.7C25.3969 13.7 25.6092 13.6177 25.7566 13.453C25.9126 13.2883 25.9906 13.0587 25.9906 12.764C25.9906 12.244 25.8779 11.7933 25.6526 11.412C25.4272 11.0307 25.0589 10.606 24.5476 10.138C24.2616 9.80867 23.8889 9.53133 23.4296 9.306C22.9702 9.072 22.4892 8.89433 21.9866 8.773C21.4926 8.643 21.0376 8.578 20.6216 8.578C20.1709 8.578 19.8416 8.67767 19.6336 8.877C19.4256 9.06767 19.3216 9.30167 19.3216 9.579C19.3216 9.82167 19.3866 10.008 19.5166 10.138C19.6466 10.268 19.8242 10.333 20.0496 10.333C20.3356 10.333 20.5392 10.2637 20.6606 10.125C20.7906 9.97767 20.8556 9.76533 20.8556 9.488C20.8556 9.31467 20.8339 9.15433 20.7906 9.007C20.7559 8.85967 20.6909 8.70367 20.5956 8.539L21.9866 8.318C22.0559 8.41333 22.1426 8.59533 22.2466 8.864C22.3506 9.124 22.4026 9.41433 22.4026 9.735C22.4026 9.95167 22.3636 10.1813 22.2856 10.424C22.2162 10.658 22.0906 10.879 21.9086 11.087C21.7352 11.2863 21.4969 11.451 21.1936 11.581C20.8902 11.711 20.5046 11.776 20.0366 11.776C19.5079 11.776 19.0616 11.6807 18.6976 11.49C18.3422 11.2907 18.0736 11.0263 17.8916 10.697C17.7096 10.3677 17.6186 10.008 17.6186 9.618C17.6186 9.18467 17.7312 8.78167 17.9566 8.409C18.1819 8.03633 18.5242 7.73733 18.9836 7.512C19.4516 7.278 20.0366 7.161 20.7386 7.161C21.8479 7.161 22.8576 7.369 23.7676 7.785C24.6776 8.19233 25.5139 8.80767 26.2766 9.631C26.7966 10.151 27.1649 10.6623 27.3816 11.165C27.6069 11.6677 27.7196 12.1877 27.7196 12.725C27.7196 13.4357 27.4942 14.0163 27.0436 14.467C26.6016 14.909 25.9602 15.13 25.1196 15.13ZM34.6443 15C34.2023 15 33.7906 14.9567 33.4093 14.87C33.028 14.7833 32.664 14.6403 32.3173 14.441C31.9793 14.2417 31.6456 13.973 31.3163 13.635C30.987 13.2883 30.649 12.8593 30.3023 12.348L30.6403 11.321C30.987 11.2863 31.312 11.204 31.6153 11.074C31.9186 10.9353 32.1656 10.7577 32.3563 10.541C32.547 10.3157 32.6423 10.0513 32.6423 9.748C32.6423 9.34067 32.508 9.05467 32.2393 8.89C31.9793 8.72533 31.6543 8.643 31.2643 8.643C30.9523 8.643 30.6663 8.67333 30.4063 8.734C30.1463 8.79467 29.9036 8.877 29.6783 8.981L29.1843 7.603C29.4963 7.473 29.843 7.369 30.2243 7.291C30.6056 7.20433 31.0216 7.161 31.4723 7.161C32.0443 7.161 32.5513 7.26067 32.9933 7.46C33.444 7.65067 33.795 7.93667 34.0463 8.318C34.3063 8.69933 34.4363 9.17167 34.4363 9.735C34.4363 10.177 34.341 10.5843 34.1503 10.957C33.9683 11.321 33.704 11.6417 33.3573 11.919C33.0193 12.1963 32.6163 12.413 32.1483 12.569C31.6803 12.7163 31.1603 12.79 30.5883 12.79C30.1376 12.79 29.791 12.6947 29.5483 12.504C29.3143 12.3133 29.1973 12.0577 29.1973 11.737C29.1973 11.425 29.3013 11.191 29.5093 11.035C29.7173 10.8703 29.9816 10.788 30.3023 10.788C30.5536 10.788 30.7876 10.84 31.0043 10.944C31.221 11.048 31.468 11.2387 31.7453 11.516L31.7843 11.815C32.183 12.3263 32.547 12.699 32.8763 12.933C33.2143 13.167 33.5306 13.3187 33.8253 13.388C34.1286 13.4487 34.4276 13.479 34.7223 13.479H35.0083L34.8913 15H34.6443ZM38.2916 15C37.763 15 37.3513 14.9437 37.0566 14.831C36.7706 14.7183 36.554 14.5623 36.4066 14.363C36.2766 14.181 36.177 13.9687 36.1076 13.726C36.047 13.4747 36.0166 13.1323 36.0166 12.699V7.161L37.7586 7.304V12.569C37.7586 12.7597 37.7716 12.92 37.7976 13.05C37.8236 13.1713 37.867 13.2623 37.9276 13.323C38.023 13.4097 38.127 13.466 38.2396 13.492C38.3523 13.5093 38.53 13.518 38.7726 13.518L38.6426 15H38.2916ZM41.3855 14.87C40.9435 14.506 40.5622 14.1507 40.2415 13.804C39.9209 13.4573 39.6739 13.102 39.5005 12.738C39.3359 12.3653 39.2535 11.971 39.2535 11.555C39.2535 11.165 39.3185 10.827 39.4485 10.541C39.5872 10.255 39.7735 10.021 40.0075 9.839C40.2849 9.62233 40.6099 9.46633 40.9825 9.371C41.3639 9.27567 41.8709 9.228 42.5035 9.228H44.3495V10.71H42.7505C42.4732 10.71 42.2392 10.7187 42.0485 10.736C41.8665 10.7533 41.7149 10.788 41.5935 10.84C41.4722 10.8833 41.3682 10.944 41.2815 11.022C41.1949 11.1 41.1299 11.191 41.0865 11.295C41.0432 11.399 41.0215 11.5247 41.0215 11.672C41.0215 11.9233 41.0735 12.153 41.1775 12.361C41.2902 12.569 41.4592 12.7857 41.6845 13.011C41.9099 13.2277 42.1959 13.479 42.5425 13.765L41.3855 14.87ZM46.3645 15C45.8359 15 45.4242 14.9437 45.1295 14.831C44.8435 14.7183 44.6269 14.5623 44.4795 14.363C44.3495 14.181 44.2499 13.9687 44.1805 13.726C44.1199 13.4747 44.0895 13.1323 44.0895 12.699V7.161L45.8315 7.304V12.569C45.8315 12.7597 45.8445 12.92 45.8705 13.05C45.8965 13.1713 45.9399 13.2623 46.0005 13.323C46.0959 13.4097 46.1999 13.466 46.3125 13.492C46.4252 13.5093 46.6029 13.518 46.8455 13.518L46.7155 15H46.3645ZM50.1617 15C49.6331 15 49.2257 14.9437 48.9397 14.831C48.6537 14.7097 48.4371 14.5537 48.2897 14.363C48.1337 14.155 48.0254 13.921 47.9647 13.661C47.9127 13.401 47.8867 13.0803 47.8867 12.699V7.239C47.8261 6.85767 47.7481 6.51967 47.6527 6.225C47.5574 5.92167 47.4447 5.666 47.3147 5.458C47.1934 5.24133 47.0547 5.081 46.8987 4.977C46.7427 4.86433 46.5781 4.808 46.4047 4.808C46.1621 4.808 45.9757 4.89033 45.8457 5.055C45.7071 5.211 45.6377 5.45367 45.6377 5.783C45.6377 5.887 45.6421 5.99533 45.6507 6.108C45.6594 6.212 45.6724 6.316 45.6897 6.42L43.9607 6.394C43.9434 6.27267 43.9304 6.147 43.9217 6.017C43.9044 5.887 43.8957 5.75267 43.8957 5.614C43.8957 4.89467 44.0994 4.34 44.5067 3.95C44.9141 3.55133 45.5077 3.352 46.2877 3.352C46.7904 3.352 47.2324 3.46033 47.6137 3.677C48.0037 3.885 48.3331 4.16667 48.6017 4.522C48.8791 4.87733 49.1001 5.28033 49.2647 5.731C49.4381 6.173 49.5594 6.63233 49.6287 7.109V12.569C49.6287 12.7597 49.6417 12.92 49.6677 13.05C49.6937 13.1713 49.7371 13.2623 49.7977 13.323C49.8844 13.4097 49.9841 13.466 50.0967 13.492C50.2181 13.5093 50.4001 13.518 50.6427 13.518L50.5127 15H50.1617Z" fill="white"/>
</svg>
