<svg width="47" height="22" viewBox="0 0 47 22" fill="none" xmlns="http://www.w3.org/2000/svg">
<rect width="46.166" height="21.5441" fill="#0B051E"/>
<path d="M14.8695 3.41782C15.6128 3.41782 16.2727 3.55055 16.8492 3.81602C17.4332 4.0815 17.8883 4.46453 18.2145 4.96514C18.5406 5.46575 18.7037 6.04978 18.7037 6.71726V6.91067H17.2702V6.74001C17.2702 6.26216 17.1526 5.86775 16.9175 5.55676C16.6899 5.2382 16.3941 5.00306 16.03 4.85137C15.6659 4.69967 15.2791 4.62382 14.8695 4.62382C14.2248 4.62382 13.6711 4.7831 13.2084 5.10167C12.7457 5.41265 12.503 5.90567 12.4803 6.58073H13.7545V7.80949H12.4916V15H11.024V7.80949H9.76107V6.58073H11.024C11.0467 5.91326 11.2212 5.34439 11.5473 4.87412C11.8811 4.39627 12.3324 4.03599 12.9012 3.79327C13.4701 3.54297 14.1262 3.41782 14.8695 3.41782ZM16.8787 9.85742C16.6132 9.85742 16.3971 9.91051 16.2302 10.0167C16.0633 10.1229 15.9799 10.2973 15.9799 10.5401C15.9799 10.6918 16.0216 10.8245 16.105 10.9383C16.1885 11.052 16.3022 11.1393 16.4464 11.2C16.6056 11.1696 16.7953 11.1544 17.0152 11.1544C17.7965 11.1544 18.4071 11.3441 18.847 11.7233C19.2869 12.1026 19.5448 12.588 19.6207 13.1796H18.2099C18.1568 12.9521 18.024 12.7549 17.8116 12.588C17.5993 12.4135 17.3262 12.3263 16.9925 12.3263C16.5981 12.3263 16.2795 12.4515 16.0368 12.7018C15.8016 12.9521 15.6841 13.2782 15.6841 13.6802C15.6841 14.0822 15.8016 14.4084 16.0368 14.6587C16.2795 14.9014 16.5981 15.0228 16.9925 15.0228C17.311 15.0228 17.5765 14.9431 17.7889 14.7838C18.0089 14.617 18.1492 14.4198 18.2099 14.1922H19.6207C19.5524 14.799 19.2793 15.292 18.8015 15.6713C18.3312 16.0505 17.7282 16.2401 16.9925 16.2401C16.4312 16.2401 15.942 16.1302 15.5248 15.9102C15.1152 15.6902 14.8004 15.3868 14.5805 15C14.3605 14.6056 14.2505 14.1543 14.2505 13.6461C14.2505 13.1986 14.3453 12.8004 14.535 12.4515C14.7322 12.095 15.0052 11.8067 15.3541 11.5868C15.0887 11.4427 14.8839 11.2606 14.7398 11.0407C14.5956 10.8131 14.5236 10.5514 14.5236 10.2556C14.5236 9.80053 14.6867 9.44404 15.0128 9.18615C15.3465 8.92826 15.7941 8.79932 16.3553 8.79932H17.4931V7.80949H13.2721V6.58073H20.4057V7.80949H18.8925V9.85742H16.8787ZM29.78 10.1077C29.2793 10.1077 28.8736 10.2367 28.5626 10.4946C28.2516 10.7524 28.0961 11.1127 28.0961 11.5754C28.0961 11.9926 28.2212 12.3263 28.4716 12.5766C28.7219 12.8193 29.0556 12.9407 29.4728 12.9407C29.8141 12.9407 30.1061 12.8345 30.3488 12.6221C30.5991 12.4097 30.7243 12.1063 30.7243 11.7119H32.0782V15.3072H30.6446V13.4299C30.4778 13.6499 30.2578 13.8205 29.9847 13.9419C29.7117 14.0557 29.4007 14.1126 29.0518 14.1126C28.5967 14.1126 28.1833 14.014 27.8117 13.8168C27.44 13.6195 27.1442 13.3275 26.9242 12.9407C26.7043 12.5539 26.5943 12.0836 26.5943 11.5299C26.5943 11.181 26.6474 10.8548 26.7536 10.5514H25.1835C25.449 10.9155 25.5817 11.3516 25.5817 11.8598C25.5817 12.3074 25.4793 12.6942 25.2745 13.0203C25.0697 13.3465 24.7891 13.593 24.4326 13.7599C24.0837 13.9267 23.693 14.0102 23.2607 14.0102C22.8056 14.0102 22.3922 13.9154 22.0206 13.7257C21.6489 13.5361 21.3531 13.2668 21.1331 12.9179C20.9132 12.5614 20.8032 12.1443 20.8032 11.6664C20.8032 11.1658 20.917 10.7411 21.1445 10.3922C21.3721 10.0357 21.6792 9.77019 22.0661 9.59574C22.4605 9.4137 22.9004 9.32268 23.3859 9.32268H27.7548C28.2706 9.00411 28.8963 8.84483 29.632 8.84483H30.2009V7.80949H19.9385V6.58073H33.1135L33.1022 7.80949H31.68V10.1077H29.78ZM23.2835 12.77C23.6096 12.77 23.8789 12.6676 24.0913 12.4628C24.3036 12.2505 24.4098 11.9812 24.4098 11.655C24.4098 11.3365 24.3036 11.0748 24.0913 10.87C23.8789 10.6576 23.6096 10.5514 23.2835 10.5514C22.9421 10.5514 22.6615 10.6576 22.4415 10.87C22.2292 11.0748 22.123 11.3403 22.123 11.6664C22.123 11.9926 22.2292 12.258 22.4415 12.4628C22.6615 12.6676 22.9421 12.77 23.2835 12.77ZM36.6204 6.58073V7.80949H35.3575V15H33.8899V7.80949H32.627V6.58073H33.9354V6.12563C33.9354 5.71605 33.8595 5.37093 33.7078 5.09029C33.5561 4.80206 33.2793 4.65795 32.8773 4.65795C32.4677 4.65795 32.187 4.80206 32.0353 5.09029C31.8761 5.37093 31.7964 5.71605 31.7964 6.12563V6.91067H30.3742V6.20528C30.3742 5.34818 30.5752 4.66933 30.9772 4.16872C31.3717 3.66812 32.005 3.41782 32.8773 3.41782C34.5308 3.41782 35.3575 4.34697 35.3575 6.20528V6.58073H36.6204Z" fill="white"/>
</svg>
