<svg width="59" height="22" viewBox="0 0 59 22" fill="none" xmlns="http://www.w3.org/2000/svg">
<rect width="58.477" height="21.5441" fill="#0B051E"/>
<path d="M14.345 14.1365C13.7761 14.1365 13.2755 14.0607 12.8431 13.909C12.4108 13.7497 12.0733 13.5221 11.8305 13.2263C11.5878 12.9229 11.4665 12.5551 11.4665 12.1227C11.4665 11.7056 11.5878 11.3453 11.8305 11.0419C12.0809 10.7309 12.4753 10.4882 13.0138 10.3137C13.5599 10.1393 14.2691 10.052 15.1414 10.052H17.0414C17.7999 10.052 18.4712 10.1431 19.0552 10.3251C19.6392 10.5071 20.0981 10.8067 20.4319 11.2239C20.7732 11.6335 20.9438 12.191 20.9438 12.8964C20.9438 13.4122 20.8339 13.8483 20.6139 14.2048C20.4015 14.5689 20.0943 14.8836 19.6923 15.1491C19.442 15.316 19.1386 15.4563 18.7821 15.5701C18.4332 15.6914 18.0199 15.7787 17.542 15.8318C17.0717 15.8924 16.5256 15.9228 15.9037 15.9228H15.0162C14.5535 15.9228 14.2236 15.9417 14.0264 15.9797C13.8368 16.0252 13.6813 16.0896 13.5599 16.1731C13.4386 16.2641 13.3437 16.3779 13.2755 16.5144C13.2072 16.6585 13.1731 16.8519 13.1731 17.0947C13.1731 17.1781 13.1769 17.2577 13.1845 17.3336C13.192 17.4094 13.1996 17.4891 13.2072 17.5725L11.5461 17.6521C11.5234 17.4929 11.5044 17.3336 11.4892 17.1743C11.4816 17.0226 11.4779 16.8557 11.4779 16.6737C11.4779 16.3324 11.5461 16.0328 11.6826 15.7749C11.8192 15.5246 12.0012 15.3198 12.2288 15.1605C12.3805 15.0543 12.5511 14.9671 12.7407 14.8988C12.9304 14.8305 13.1655 14.7812 13.4461 14.7509C13.7268 14.7206 14.0757 14.7054 14.4929 14.7054H15.5168C16.1767 14.7054 16.719 14.6789 17.1438 14.6258C17.5685 14.5802 17.9099 14.5044 18.1678 14.3982C18.4332 14.292 18.6494 14.1517 18.8163 13.9772C18.968 13.8255 19.0817 13.6511 19.1576 13.4539C19.2334 13.2491 19.2714 13.0178 19.2714 12.7599C19.2714 12.4261 19.1993 12.1569 19.0552 11.9521C18.9187 11.7473 18.7328 11.5918 18.4977 11.4856C18.2702 11.3718 18.0161 11.296 17.7354 11.258C17.4624 11.2201 17.1893 11.2012 16.9162 11.2012H14.9252C14.6597 11.2012 14.4056 11.2163 14.1629 11.2467C13.9278 11.2694 13.7268 11.3225 13.5599 11.406C13.4158 11.4818 13.3096 11.5766 13.2413 11.6904C13.1731 11.8042 13.1389 11.9369 13.1389 12.0886C13.1389 12.3692 13.2565 12.5778 13.4916 12.7144C13.7344 12.8509 14.0567 12.9191 14.4587 12.9191C14.7545 12.9191 15.0048 12.8736 15.2096 12.7826C15.422 12.6916 15.5851 12.5285 15.6989 12.2934C15.8126 12.0507 15.8695 11.7169 15.8695 11.2922V8.82329H14.1515V10.564L12.627 10.7461V7.60591H19.6696V8.82329H17.5192V11.2694C17.5192 11.8004 17.4662 12.2213 17.36 12.5323C17.2614 12.8357 17.1172 13.0936 16.9276 13.306C16.6546 13.6094 16.2981 13.8255 15.8581 13.9545C15.4182 14.0758 14.9138 14.1365 14.345 14.1365ZM28.4655 7.46938C29.1709 7.46938 29.7436 7.62108 30.1835 7.92447C30.6235 8.22028 30.9458 8.62987 31.1506 9.15323C31.363 9.67659 31.4692 10.2682 31.4692 10.9281C31.4692 11.5046 31.4009 11.9862 31.2644 12.373C31.1354 12.7599 30.9269 13.0746 30.6386 13.3174C30.4338 13.4918 30.2025 13.6283 29.9446 13.7269C29.6867 13.8255 29.3757 13.8976 29.0117 13.9431C28.6552 13.981 28.2114 14 27.6805 14H22.2762V7.60591H23.9715V12.7826H26.0649V9.96103C26.0649 9.49076 26.1142 9.10772 26.2128 8.81191C26.319 8.5161 26.4707 8.26959 26.6679 8.07238C26.8727 7.87517 27.123 7.72726 27.4188 7.62866C27.7222 7.52247 28.0711 7.46938 28.4655 7.46938ZM28.5793 8.68676C28.4807 8.68676 28.3821 8.70193 28.2835 8.73227C28.1925 8.76261 28.109 8.8157 28.0332 8.89155C27.9346 8.99015 27.8625 9.12668 27.817 9.30114C27.7791 9.46801 27.7601 9.74486 27.7601 10.1317V12.7826H28.1925C28.5945 12.7826 28.9093 12.7257 29.1368 12.612C29.3719 12.4906 29.535 12.2934 29.626 12.0203C29.7246 11.7473 29.7739 11.3832 29.7739 10.9281C29.7739 10.5109 29.736 10.1355 29.6602 9.80174C29.5843 9.46042 29.4592 9.19116 29.2847 8.99395C29.1103 8.78915 28.8751 8.68676 28.5793 8.68676ZM31.0886 4.31784C31.6878 4.31784 32.1998 4.40507 32.6245 4.57952C33.0569 4.74639 33.402 4.96256 33.6599 5.22803C33.8343 5.41007 33.9936 5.63762 34.1377 5.91067C34.2818 6.17615 34.3956 6.52885 34.479 6.96877C34.57 7.40111 34.6156 7.96619 34.6156 8.664V14H32.9203V9.10772C32.9203 8.52368 32.9014 8.03445 32.8634 7.64004C32.8255 7.23804 32.7572 6.9043 32.6586 6.63883C32.56 6.36577 32.4197 6.13822 32.2377 5.95618C32.0936 5.81207 31.9305 5.70209 31.7485 5.62624C31.5664 5.55039 31.3578 5.51247 31.1227 5.51247C30.7965 5.51247 30.5387 5.57314 30.349 5.6945C30.1518 5.81586 30.0115 5.97135 29.9281 6.16098C29.8446 6.34302 29.8029 6.53643 29.8029 6.74122C29.8029 6.9536 29.837 7.18115 29.9053 7.42387C29.966 7.659 30.0608 7.89792 30.1897 8.14064H28.5059C28.4073 7.9586 28.3314 7.74243 28.2783 7.49213C28.2177 7.24183 28.1873 6.99911 28.1873 6.76398C28.1873 6.33164 28.2708 5.96377 28.4376 5.66037C28.6045 5.34939 28.8283 5.09529 29.1089 4.89809C29.3895 4.70088 29.7043 4.55676 30.0532 4.46574C30.3945 4.36714 30.7397 4.31784 31.0886 4.31784ZM42.6095 7.46938C43.3149 7.46938 43.8876 7.62108 44.3275 7.92447C44.7674 8.22028 45.0898 8.62987 45.2946 9.15323C45.5069 9.67659 45.6131 10.2682 45.6131 10.9281C45.6131 11.5046 45.5449 11.9862 45.4083 12.373C45.2794 12.7599 45.0708 13.0746 44.7826 13.3174C44.5778 13.4918 44.3465 13.6283 44.0886 13.7269C43.8307 13.8255 43.5197 13.8976 43.1556 13.9431C42.7991 13.981 42.3554 14 41.8245 14H36.4202V7.60591H38.1154V12.7826H40.2089V9.96103C40.2089 9.49076 40.2582 9.10772 40.3568 8.81191C40.463 8.5161 40.6147 8.26959 40.8119 8.07238C41.0167 7.87517 41.267 7.72726 41.5628 7.62866C41.8662 7.52247 42.2151 7.46938 42.6095 7.46938ZM42.7233 8.68676C42.6247 8.68676 42.5261 8.70193 42.4275 8.73227C42.3364 8.76261 42.253 8.8157 42.1772 8.89155C42.0786 8.99015 42.0065 9.12668 41.961 9.30114C41.9231 9.46801 41.9041 9.74486 41.9041 10.1317V12.7826H42.3364C42.7385 12.7826 43.0532 12.7257 43.2808 12.612C43.5159 12.4906 43.679 12.2934 43.77 12.0203C43.8686 11.7473 43.9179 11.3832 43.9179 10.9281C43.9179 10.5109 43.88 10.1355 43.8041 9.80174C43.7283 9.46042 43.6031 9.19116 43.4287 8.99395C43.2542 8.78915 43.0191 8.68676 42.7233 8.68676ZM38.1154 14.4892C38.2671 14.4892 38.4226 14.493 38.5819 14.5006C38.7488 14.5158 38.9005 14.5385 39.037 14.5689L38.9574 15.6952C38.8815 15.6801 38.7905 15.6687 38.6843 15.6611C38.5781 15.6611 38.4643 15.6611 38.343 15.6611C38.1534 15.6611 37.9903 15.6876 37.8538 15.7407C37.7248 15.8014 37.6603 15.9 37.6603 16.0366C37.6603 16.1579 37.7059 16.2489 37.7969 16.3096C37.8955 16.3703 38.0168 16.412 38.1609 16.4348C38.3126 16.4575 38.4681 16.4689 38.6274 16.4689H38.9346C39.2683 16.4689 39.5566 16.431 39.7993 16.3551C40.0496 16.2793 40.262 16.1617 40.4364 16.0024C40.6185 15.8507 40.7702 15.6573 40.8915 15.4222C40.937 15.3387 41.0167 15.2591 41.1304 15.1832C41.2442 15.115 41.4035 15.0581 41.6083 15.0126C41.8131 14.9747 42.0672 14.9557 42.3706 14.9557L43.4059 15.2856C43.0798 15.3539 42.8408 15.4336 42.6891 15.5246C42.545 15.6232 42.4388 15.7483 42.3706 15.9C42.1961 16.302 41.9572 16.632 41.6538 16.8899C41.358 17.1553 40.9977 17.3487 40.573 17.4701C40.1482 17.5915 39.6476 17.6521 39.0711 17.6521H38.6502C38.2406 17.6521 37.8575 17.6066 37.5011 17.5156C37.1522 17.4246 36.8753 17.307 36.6705 17.1629C36.5112 17.0567 36.3671 16.9088 36.2382 16.7192C36.1168 16.5296 36.0561 16.2944 36.0561 16.0138C36.0561 15.5435 36.2344 15.1719 36.5909 14.8988C36.9474 14.6258 37.4555 14.4892 38.1154 14.4892ZM41.9382 16.0934L41.8358 15.9569C41.5324 15.8886 41.2594 15.7787 41.0167 15.627C40.7815 15.4829 40.5919 15.2743 40.4478 15.0012C40.3113 14.7357 40.2354 14.3982 40.2203 13.9886L41.8586 13.9772C41.8586 14.1593 41.8889 14.3148 41.9496 14.4437C42.0179 14.5802 42.1241 14.6826 42.2682 14.7509C42.3744 14.804 42.4957 14.8381 42.6323 14.8533C42.7688 14.8761 42.9546 14.8874 43.1898 14.8874H44.3958V16.0934H41.9382ZM40.846 6.46817C40.573 6.46817 40.3492 6.38094 40.1747 6.20649C40.0003 6.02445 39.9131 5.7969 39.9131 5.52384C39.9131 5.25079 40.0003 5.02703 40.1747 4.85258C40.3492 4.67054 40.573 4.57952 40.846 4.57952C41.1115 4.57952 41.3314 4.67054 41.5059 4.85258C41.6804 5.02703 41.7676 5.25079 41.7676 5.52384C41.7676 5.7969 41.6804 6.02445 41.5059 6.20649C41.3314 6.38094 41.1115 6.46817 40.846 6.46817Z" fill="white"/>
</svg>
