<svg width="59" height="22" viewBox="0 0 59 22" fill="none" xmlns="http://www.w3.org/2000/svg">
<rect width="58.477" height="21.5441" fill="#0B051E"/>
<path d="M20.101 7.889C20.101 8.19233 20.0403 8.474 19.919 8.734C19.7977 8.994 19.6287 9.19767 19.412 9.345C19.178 9.50967 18.8747 9.64833 18.502 9.761C18.138 9.865 17.7653 9.917 17.384 9.917H15.265V8.5H17.397C17.6483 8.5 17.8347 8.487 17.956 8.461C18.086 8.42633 18.1857 8.37867 18.255 8.318C18.307 8.266 18.346 8.20967 18.372 8.149C18.398 8.07967 18.411 8.006 18.411 7.928C18.411 7.824 18.398 7.73733 18.372 7.668C18.346 7.59 18.3027 7.525 18.242 7.473C18.1727 7.41233 18.073 7.369 17.943 7.343C17.8217 7.317 17.618 7.304 17.332 7.304H12.327V5.835H17.163C17.7783 5.835 18.255 5.88267 18.593 5.978C18.9397 6.06467 19.2387 6.212 19.49 6.42C19.672 6.576 19.8193 6.77533 19.932 7.018C20.0447 7.26067 20.101 7.551 20.101 7.889ZM15.538 15.156C14.342 15.156 13.367 15.0173 12.613 14.74C11.859 14.4627 11.3043 14.0727 10.949 13.57C10.5937 13.0673 10.416 12.4867 10.416 11.828C10.416 11.3253 10.533 10.8833 10.767 10.502C11.001 10.1207 11.3217 9.82167 11.729 9.605C12.145 9.38833 12.6173 9.28 13.146 9.28C13.6227 9.28 14.0213 9.36667 14.342 9.54C14.6627 9.70467 14.9053 9.93 15.07 10.216C15.2347 10.502 15.317 10.8227 15.317 11.178C15.317 11.7847 15.122 12.244 14.732 12.556C14.342 12.8593 13.809 13.011 13.133 13.011C12.821 13.011 12.5263 12.9633 12.249 12.868C11.9803 12.764 11.7377 12.6383 11.521 12.491C11.3043 12.3437 11.1223 12.205 10.975 12.075L11.417 11.022C11.5817 11.2127 11.781 11.3947 12.015 11.568C12.249 11.7327 12.5263 11.815 12.847 11.815C13.107 11.815 13.3193 11.763 13.484 11.659C13.6573 11.555 13.744 11.3903 13.744 11.165C13.744 10.9917 13.6877 10.8487 13.575 10.736C13.4623 10.6233 13.2933 10.567 13.068 10.567C12.886 10.567 12.7127 10.619 12.548 10.723C12.3833 10.8183 12.249 10.9657 12.145 11.165C12.041 11.3557 11.989 11.594 11.989 11.88V11.958C11.989 12.218 12.054 12.452 12.184 12.66C12.3227 12.868 12.535 13.0457 12.821 13.193C13.107 13.3317 13.4753 13.44 13.926 13.518C14.3767 13.5873 14.9183 13.622 15.551 13.622C16.2183 13.622 16.799 13.5917 17.293 13.531C17.787 13.4703 18.1943 13.375 18.515 13.245C18.8357 13.1063 19.074 12.9243 19.23 12.699C19.3947 12.465 19.477 12.179 19.477 11.841V11.802C19.477 11.4553 19.373 11.1607 19.165 10.918C18.957 10.6753 18.6623 10.554 18.281 10.554C18.0903 10.554 17.9127 10.606 17.748 10.71C17.592 10.8053 17.514 10.9613 17.514 11.178C17.514 11.412 17.5877 11.5767 17.735 11.672C17.8823 11.7587 18.0643 11.802 18.281 11.802C18.4977 11.802 18.6797 11.7587 18.827 11.672C18.9743 11.5853 19.1 11.464 19.204 11.308C19.308 11.1433 19.3903 10.9527 19.451 10.736L20.166 11.685C19.984 11.945 19.7977 12.179 19.607 12.387C19.425 12.5863 19.204 12.7423 18.944 12.855C18.684 12.9677 18.346 13.024 17.93 13.024C17.6007 13.024 17.2843 12.972 16.981 12.868C16.6777 12.7553 16.4307 12.5777 16.24 12.335C16.058 12.0837 15.967 11.75 15.967 11.334C15.967 10.8313 16.1533 10.4327 16.526 10.138C16.8987 9.83467 17.4187 9.683 18.086 9.683C18.2507 9.683 18.398 9.68733 18.528 9.696C18.658 9.70467 18.7793 9.71767 18.892 9.735C19.0047 9.74367 19.113 9.761 19.217 9.787L17.709 9.813C17.5963 9.77833 17.475 9.75233 17.345 9.735C17.2237 9.709 17.098 9.69167 16.968 9.683C16.8467 9.66567 16.7167 9.657 16.578 9.657L17.137 8.643C17.683 8.669 18.19 8.76 18.658 8.916C19.1347 9.06333 19.5507 9.27567 19.906 9.553C20.2613 9.82167 20.5387 10.151 20.738 10.541C20.946 10.9223 21.05 11.36 21.05 11.854C21.05 12.4087 20.946 12.894 20.738 13.31C20.53 13.7173 20.205 14.0597 19.763 14.337C19.321 14.6057 18.749 14.8093 18.047 14.948C17.3537 15.0867 16.5173 15.156 15.538 15.156ZM26.4689 15.156C25.4809 15.156 24.6445 14.9957 23.9599 14.675C23.2752 14.3457 22.7552 13.9037 22.3999 13.349C22.0532 12.7857 21.8799 12.153 21.8799 11.451C21.8799 10.8443 21.9969 10.32 22.2309 9.878C22.4735 9.436 22.8115 9.098 23.2449 8.864C23.6782 8.62133 24.1765 8.5 24.7399 8.5C25.2599 8.5 25.6802 8.59533 26.0009 8.786C26.3215 8.968 26.5555 9.20633 26.7029 9.501C26.8502 9.787 26.9239 10.086 26.9239 10.398C26.9239 10.7967 26.8372 11.139 26.6639 11.425C26.4905 11.711 26.2392 11.9277 25.9099 12.075C25.5805 12.2223 25.1775 12.296 24.7009 12.296C24.3542 12.296 24.0465 12.2483 23.7779 12.153C23.5092 12.0577 23.2752 11.9407 23.0759 11.802C22.8852 11.6633 22.7249 11.5377 22.5949 11.425L22.8939 10.203C22.9979 10.333 23.1192 10.463 23.2579 10.593C23.4052 10.723 23.5699 10.8313 23.7519 10.918C23.9339 10.996 24.1289 11.035 24.3369 11.035C24.6055 11.035 24.8222 10.9873 24.9869 10.892C25.1515 10.788 25.2339 10.619 25.2339 10.385C25.2339 10.2377 25.1819 10.1033 25.0779 9.982C24.9739 9.852 24.8222 9.787 24.6229 9.787C24.3195 9.787 24.0682 9.917 23.8689 10.177C23.6695 10.4283 23.5699 10.7317 23.5699 11.087V11.594C23.5699 11.802 23.6132 12.023 23.6999 12.257C23.7952 12.4823 23.9512 12.699 24.1679 12.907C24.3932 13.1063 24.6965 13.271 25.0779 13.401C25.4679 13.5223 25.9532 13.583 26.5339 13.583C27.3485 13.583 28.0029 13.4443 28.4969 13.167C28.9995 12.881 29.2509 12.4347 29.2509 11.828C29.2509 11.4207 29.1252 11.0827 28.8739 10.814C28.6312 10.5367 28.2499 10.255 27.7299 9.969L28.7439 8.5C29.4285 8.838 29.9832 9.28433 30.4079 9.839C30.8412 10.385 31.0579 11.0567 31.0579 11.854C31.0579 12.4693 30.8932 13.0283 30.5639 13.531C30.2432 14.025 29.7449 14.4193 29.0689 14.714C28.3929 15.0087 27.5262 15.156 26.4689 15.156ZM32.8198 15.156C32.1611 15.156 31.6064 15.0043 31.1558 14.701C30.7051 14.3977 30.2761 14.0163 29.8688 13.557L30.8698 12.439C31.0518 12.647 31.2424 12.8377 31.4418 13.011C31.6324 13.1843 31.8404 13.323 32.0658 13.427C32.2998 13.531 32.5511 13.583 32.8198 13.583C33.1231 13.583 33.3571 13.4963 33.5218 13.323C33.6864 13.1497 33.7688 12.8897 33.7688 12.543C33.7688 12.1357 33.6778 11.776 33.4958 11.464C33.3138 11.152 33.0754 10.8747 32.7808 10.632C32.4861 10.3807 32.1741 10.151 31.8448 9.943L32.8718 8.5C33.3831 8.77733 33.8424 9.10667 34.2498 9.488C34.6571 9.86933 34.9778 10.3027 35.2118 10.788C35.4544 11.2647 35.5758 11.802 35.5758 12.4C35.5758 13.232 35.3418 13.8993 34.8738 14.402C34.4058 14.9047 33.7211 15.156 32.8198 15.156ZM40.069 8.5C40.7883 8.5 41.4123 8.63 41.941 8.89C42.4697 9.14133 42.877 9.50967 43.163 9.995C43.449 10.4717 43.592 11.0523 43.592 11.737C43.592 12.2657 43.5443 12.7337 43.449 13.141C43.3537 13.5483 43.2323 13.9123 43.085 14.233C42.9377 14.545 42.7903 14.8353 42.643 15.104L40.901 14.428C41.0483 14.2287 41.187 14.0077 41.317 13.765C41.4557 13.5137 41.5683 13.2363 41.655 12.933C41.7417 12.6297 41.785 12.3003 41.785 11.945C41.785 11.607 41.7287 11.2863 41.616 10.983C41.5033 10.6797 41.317 10.437 41.057 10.255C40.8057 10.0643 40.459 9.969 40.017 9.969C39.6703 9.969 39.367 10.0513 39.107 10.216C38.847 10.3807 38.6477 10.6103 38.509 10.905C38.3703 11.191 38.301 11.5247 38.301 11.906C38.301 12.4087 38.3833 12.8723 38.548 13.297C38.7213 13.713 38.9337 14.0857 39.185 14.415L37.43 15.104C37.1613 14.6447 36.936 14.142 36.754 13.596C36.572 13.05 36.481 12.4737 36.481 11.867C36.481 11.2517 36.6153 10.6927 36.884 10.19C37.1613 9.67867 37.5643 9.27133 38.093 8.968C38.6303 8.656 39.289 8.5 40.069 8.5ZM39.835 9.852C39.4277 9.852 39.068 9.787 38.756 9.657C38.444 9.51833 38.1797 9.29733 37.963 8.994C37.7463 8.682 37.5773 8.26167 37.456 7.733L39.224 7.278C39.3193 7.72 39.4233 8.03633 39.536 8.227C39.6487 8.409 39.8047 8.5 40.004 8.5C40.134 8.5 40.264 8.45233 40.394 8.357C40.524 8.26167 40.6973 8.07967 40.914 7.811L41.46 7.122C41.7633 6.74067 42.0493 6.44167 42.318 6.225C42.5867 5.99967 42.877 5.835 43.189 5.731C43.5097 5.627 43.891 5.57067 44.333 5.562L44.437 7.07C44.1423 7.08733 43.8867 7.13933 43.67 7.226C43.462 7.304 43.2713 7.41667 43.098 7.564C42.9247 7.71133 42.7427 7.90633 42.552 8.149L42.123 8.682C41.9583 8.89 41.7633 9.085 41.538 9.267C41.3127 9.44033 41.057 9.58333 40.771 9.696C40.4937 9.8 40.1817 9.852 39.835 9.852ZM45.4389 15.156C44.7802 15.156 44.2256 15.0043 43.7749 14.701C43.3242 14.3977 42.8952 14.0163 42.4879 13.557L43.4889 12.439C43.6709 12.647 43.8616 12.8377 44.0609 13.011C44.2516 13.1843 44.4596 13.323 44.6849 13.427C44.9189 13.531 45.1702 13.583 45.4389 13.583C45.7422 13.583 45.9762 13.4963 46.1409 13.323C46.3056 13.1497 46.3879 12.8897 46.3879 12.543C46.3879 12.1357 46.2969 11.776 46.1149 11.464C45.9329 11.152 45.6946 10.8747 45.3999 10.632C45.1052 10.3807 44.7932 10.151 44.4639 9.943L45.4909 8.5C46.0022 8.77733 46.4616 9.10667 46.8689 9.488C47.2762 9.86933 47.5969 10.3027 47.8309 10.788C48.0736 11.2647 48.1949 11.802 48.1949 12.4C48.1949 13.232 47.9609 13.8993 47.4929 14.402C47.0249 14.9047 46.3402 15.156 45.4389 15.156Z" fill="white"/>
</svg>
