<svg width="59" height="22" viewBox="0 0 59 22" fill="none" xmlns="http://www.w3.org/2000/svg">
<rect width="58.477" height="21.5441" fill="#0B051E"/>
<path d="M22.946 7.784H21.503V16H19.813V11.385H17.876V12.152C17.876 13.0533 17.6463 13.7553 17.187 14.258C16.7363 14.7607 16.0863 15.012 15.237 15.012C14.431 15.012 13.781 14.7823 13.287 14.323C12.8017 13.8637 12.559 13.257 12.559 12.503C12.559 11.7057 12.8147 11.0947 13.326 10.67C13.846 10.2367 14.5133 10.02 15.328 10.02H16.316V7.784H11.727V6.38H22.946V7.784ZM19.813 7.784H17.876V10.02H19.813V7.784ZM16.316 11.385H15.38C14.9987 11.385 14.691 11.4847 14.457 11.684C14.2317 11.8747 14.119 12.1433 14.119 12.49C14.119 12.828 14.2187 13.0967 14.418 13.296C14.626 13.4953 14.8903 13.595 15.211 13.595C15.5577 13.595 15.8263 13.4737 16.017 13.231C16.2163 12.9883 16.316 12.659 16.316 12.243V11.385ZM25.2635 11.918V13.387C25.2635 13.777 25.3501 14.0933 25.5235 14.336C25.7055 14.57 25.9698 14.687 26.3165 14.687C26.6371 14.687 26.8885 14.5787 27.0705 14.362C27.2611 14.1367 27.3565 13.842 27.3565 13.478V13.153H28.9685C28.9771 13.231 28.9815 13.322 28.9815 13.426C28.9815 14.2493 28.7475 14.9037 28.2795 15.389C27.8115 15.8743 27.1658 16.117 26.3425 16.117C25.4585 16.117 24.7781 15.857 24.3015 15.337C23.8335 14.817 23.5995 14.141 23.5995 13.309V10.553H24.9385C25.6318 10.553 26.1345 10.397 26.4465 10.085C26.7671 9.76433 26.9275 9.29633 26.9275 8.681V7.784H22.4165V6.38H29.8785V7.784H28.6045V8.681C28.6045 10.839 27.5861 11.918 25.5495 11.918H25.2635ZM30.7911 16V7.784H29.3481V6.38H33.9111V7.784H32.4681V16H30.7911ZM38.8198 7.784V9.006C39.6345 9.15333 40.3018 9.50867 40.8218 10.072C41.3505 10.6353 41.6148 11.3547 41.6148 12.23C41.6148 12.8887 41.4545 13.4693 41.1338 13.972C40.8218 14.4747 40.3928 14.8603 39.8468 15.129C39.3008 15.3977 38.6855 15.532 38.0008 15.532C37.3248 15.532 36.7138 15.3977 36.1678 15.129C35.6218 14.8603 35.1885 14.4747 34.8678 13.972C34.5558 13.4693 34.3998 12.8887 34.3998 12.23C34.3998 11.3547 34.6555 10.6397 35.1668 10.085C35.6868 9.52167 36.3498 9.162 37.1558 9.006V7.784H33.3598V6.38H42.6418V7.784H38.8198ZM39.9508 12.23C39.9508 11.6753 39.7688 11.2247 39.4048 10.878C39.0495 10.5227 38.5815 10.345 38.0008 10.345C37.4375 10.345 36.9738 10.5227 36.6098 10.878C36.2545 11.2247 36.0768 11.6753 36.0768 12.23C36.0768 12.7847 36.2545 13.2397 36.6098 13.595C36.9738 13.9503 37.4375 14.128 38.0008 14.128C38.5815 14.128 39.0495 13.9503 39.4048 13.595C39.7688 13.2397 39.9508 12.7847 39.9508 12.23ZM46.6699 6.38V7.784H45.2269V16H43.5499V7.784H42.1069V6.38H43.6019V5.86C43.6019 5.392 43.5152 4.99767 43.3419 4.677C43.1685 4.34767 42.8522 4.183 42.3929 4.183C41.9249 4.183 41.6042 4.34767 41.4309 4.677C41.2489 4.99767 41.1579 5.392 41.1579 5.86V6.757H39.5329V5.951C39.5329 4.97167 39.7625 4.196 40.2219 3.624C40.6725 3.052 41.3962 2.766 42.3929 2.766C44.2822 2.766 45.2269 3.82767 45.2269 5.951V6.38H46.6699Z" fill="white"/>
</svg>
