<svg width="59" height="22" viewBox="0 0 59 22" fill="none" xmlns="http://www.w3.org/2000/svg">
<rect width="58.477" height="21.5441" fill="#0B051E"/>
<path fill-rule="evenodd" clip-rule="evenodd" d="M41.7451 2.10059C41.1804 2.32583 40.327 3.34544 40.0918 4.07592C39.9655 4.46854 39.8159 5.167 39.7594 5.62801L39.6565 6.46633L29.7468 6.50242L19.837 6.53851L19.7963 10.0797L19.7557 13.6209L19.1115 13.9627C18.2606 14.4143 17.6333 14.5218 16.9058 14.341C16.2111 14.1684 15.1599 13.5031 14.8155 13.018C14.5944 12.7067 14.6019 12.6253 14.9153 11.9271C15.3751 10.903 15.4076 8.63446 14.9814 7.34594L14.6909 6.4683H13.3455H12V6.95978V7.45126H12.9168C13.7728 7.45126 13.8453 7.47695 14.0099 7.83742C14.107 8.04988 14.1908 8.82951 14.1965 9.57009C14.2058 10.8159 14.1705 10.9809 13.725 11.7781L13.2436 12.6396L13.5596 13.0294C15.3452 15.2312 17.2158 15.9444 19.016 15.1101L19.7609 14.7649V15.8824V17H20.2915H20.822L20.8622 12.2607L20.9022 7.52147L24.8207 7.48398L28.7391 7.44648V9.69956V11.9525L26.5707 11.9135L24.4022 11.8746L24.3567 10.9919L24.3113 10.1092L23.748 10.2014C23.4383 10.2523 22.967 10.415 22.701 10.5629C22.1319 10.8794 21.5448 11.9076 21.6143 12.4659C21.66 12.8327 21.7139 12.8602 22.462 12.8999L23.2609 12.9425V14.9712V17H23.7894H24.3177L24.36 14.999L24.4022 12.998L26.5707 12.9591L28.7391 12.92V14.9601V17H29.3478H29.9565V12.2176V7.43511L30.6033 7.47836L31.25 7.52147L31.2912 10.3035L31.3326 13.0856L31.8238 13.0418L32.3152 12.998L32.3565 10.2246L32.3977 7.45126H33.6928C34.5948 7.45126 35.0064 7.50448 35.0489 7.62679C35.571 9.12762 35.8674 9.6646 36.5615 10.3652L37.3307 11.142L36.9535 11.3667C36.4271 11.6799 34.9783 12.943 34.9783 13.0885C34.9783 13.1545 35.3958 13.5939 35.9064 14.065C37.4931 15.5292 39.1719 15.9482 40.913 15.3149C41.3378 15.1605 41.7168 15.0341 41.7556 15.0341C41.7944 15.0341 41.8261 15.4764 41.8261 16.017V17H42.3567H42.8872L42.9274 12.2607L42.9674 7.52147L43.6141 7.47836L44.2609 7.43511V12.2176V17H44.8696H45.4783V12.2256V7.45126H46.2391H47V6.95978V6.4683H46.2615H45.523L45.4369 5.13583C45.3418 3.66616 44.9978 2.87488 44.2248 2.34731C43.7666 2.03459 42.2815 1.88687 41.7451 2.10059ZM19.9176 2.85649C19.4022 3.09717 18.8478 3.89533 18.8478 4.39664C18.8478 5.16798 19.5705 6.16414 19.8391 5.76296C19.8875 5.69064 19.8514 5.50093 19.7587 5.34127C19.2678 4.4948 20.0243 3.54245 21.047 3.71952C21.4806 3.79451 21.6538 3.91991 21.8511 4.30186C22.0665 4.71877 22.0745 4.86004 21.9068 5.28791C21.6507 5.94143 21.824 6.07666 22.2847 5.58279C22.5735 5.2733 22.6522 5.02911 22.6522 4.44354C22.6522 3.81768 22.5851 3.63611 22.2337 3.31146C21.5416 2.67197 20.6768 2.50206 19.9176 2.85649ZM43.8669 3.53023C44.2263 3.9244 44.2609 4.07213 44.2609 5.21531V6.4683H42.5669H40.873L40.9439 5.44925C40.9983 4.66752 41.1075 4.2947 41.4126 3.84843C41.8699 3.18002 41.9773 3.12427 42.8397 3.10925C43.3676 3.09998 43.5385 3.17005 43.8669 3.53023ZM41.8261 8.99591V10.5406H40.2995C38.6702 10.5406 37.9418 10.3608 37.286 9.7966C36.8905 9.45649 36.2961 8.44166 36.1384 7.83742L36.0377 7.45126H38.9319H41.8261V8.99591ZM41.8261 12.6923V13.8608L41.1241 14.1844C40.6294 14.4124 40.1467 14.51 39.4882 14.5151C38.4839 14.5228 38.1923 14.4204 37.0612 13.6626L36.329 13.1719L36.7569 12.7549C36.9923 12.5254 37.5272 12.1553 37.9457 11.932C38.6488 11.5569 38.8246 11.526 40.2663 11.5248L41.8261 11.5235V12.6923Z" fill="white"/>
</svg>
