<svg width="31" height="21" viewBox="0 0 31 21" fill="none" xmlns="http://www.w3.org/2000/svg">
<rect x="0.46707" y="7.02664" width="29.8194" height="0.387265" fill="#A553FF" stroke="white" stroke-width="0.387265"/>
<rect x="0.731227" y="1.09451" width="29.2911" height="19.2222" rx="4.96392" stroke="white" stroke-width="0.915579"/>
<circle cx="4.91515" cy="4.50695" r="0.457789" fill="#7040D3" stroke="white" stroke-width="0.633482"/>
<circle cx="8.01672" cy="4.50695" r="0.457789" fill="#7040D3" stroke="white" stroke-width="0.633482"/>
<circle cx="11.1105" cy="4.50695" r="0.457789" fill="#7040D3" stroke="white" stroke-width="0.633482"/>
<rect x="9.75613" y="10.8977" width="5.03445" height="0.387265" fill="#3A3153" stroke="white" stroke-width="0.387265"/>
<rect x="9.75613" y="13.222" width="6.58351" height="0.387265" fill="#3A3153" stroke="white" stroke-width="0.387265"/>
<path d="M25.6461 12.3553C25.6461 12.7136 25.5467 13.0648 25.3589 13.37C25.1711 13.6752 24.9024 13.9222 24.5825 14.0837C24.2627 14.2452 23.9043 14.3148 23.5473 14.2848C23.1903 14.2547 22.8486 14.1262 22.5602 13.9135C22.2719 13.7007 22.0482 13.4122 21.9142 13.0799C21.7801 12.7477 21.7408 12.3847 21.8007 12.0315C21.8606 11.6782 22.0174 11.3485 22.2535 11.0791C22.4897 10.8096 22.796 10.6109 23.1383 10.5052" stroke="white" stroke-width="0.915579" stroke-linejoin="round"/>
<path d="M23.036 10.5423C23.3945 10.4077 23.7849 10.3824 24.1578 10.4696C24.5307 10.5569 24.8694 10.7527 25.131 11.0324C25.3926 11.3121 25.5653 11.6631 25.6274 12.041C25.6895 12.4189 25.6382 12.8068 25.4799 13.1555" stroke="white" stroke-width="0.915579" stroke-linejoin="round"/>
<path d="M4.77183 11.1816V11.5577H5.27173V12.0131H4.74213C4.68934 12.3266 4.559 12.5542 4.35112 12.6961C4.14654 12.838 3.83636 12.909 3.4206 12.909V13.1713C3.4206 13.3264 3.45195 13.4485 3.51464 13.5376C3.58064 13.6266 3.69118 13.6712 3.84626 13.6712C3.99475 13.6712 4.10199 13.6299 4.16798 13.5475C4.23398 13.4617 4.26697 13.3379 4.26697 13.1762H4.91042C4.90382 13.5095 4.80977 13.7652 4.62829 13.9434C4.44681 14.1183 4.18778 14.2057 3.85121 14.2057C3.50145 14.2057 3.23417 14.1117 3.04939 13.9236C2.8646 13.7355 2.77221 13.4617 2.77221 13.102V12.4437C3.12528 12.4437 3.38596 12.4355 3.55424 12.419C3.72252 12.3992 3.84791 12.3596 3.93041 12.3002C4.0129 12.2408 4.06734 12.1451 4.09374 12.0131H2.61383V11.5577H4.11849V11.1816H2.61383V10.6965H5.27173V11.1816H4.77183Z" fill="white"/>
</svg>
