<svg width="30" height="14" viewBox="0 0 30 14" fill="none" xmlns="http://www.w3.org/2000/svg">
<path d="M2.71289 0.545898H21.9746C22.9967 0.545898 23.8633 1.41483 23.8633 2.48926V10.6973C23.8632 11.7716 22.9967 12.6406 21.9746 12.6406H2.71289C1.6905 12.6406 0.824301 11.7716 0.824219 10.6973V2.48926C0.824219 1.41487 1.69045 0.545898 2.71289 0.545898ZM2.71289 1.14941C1.95672 1.14941 1.39062 1.74463 1.39062 2.48926V10.6973C1.39074 11.4418 1.95677 12.0371 2.71289 12.0371H21.9746C22.7307 12.0371 23.2968 11.4418 23.2969 10.6973V2.48926C23.2969 1.74465 22.7308 1.14941 21.9746 1.14941H2.71289ZM26.3652 3.82812L26.377 3.8291H28.3955C28.5409 3.82926 28.6786 3.95308 28.6787 4.13086V9.05566C28.6784 9.23322 28.5408 9.35726 28.3955 9.35742H26.3809C26.3272 9.35815 26.2733 9.34193 26.2266 9.31055L26.1826 9.27441C26.1272 9.21857 26.0938 9.13985 26.0938 9.05566C26.0938 8.9713 26.1272 8.89285 26.1826 8.83691V8.83594C26.2372 8.78089 26.3094 8.75294 26.3818 8.75391H28.1123V4.43262H26.3643C26.3102 4.43515 26.2562 4.42159 26.209 4.39258L26.1641 4.3584C26.1217 4.319 26.0907 4.26562 26.0762 4.20605L26.0674 4.14551C26.0637 4.06152 26.0914 3.98074 26.1436 3.92188L26.1445 3.92285C26.1836 3.87904 26.2327 3.84931 26.2852 3.83594L26.3389 3.82812C26.3468 3.8278 26.3559 3.8277 26.3652 3.82812ZM7.09961 3.40039C7.18999 3.38777 7.28372 3.42242 7.34766 3.49902L7.34863 3.5C7.41349 3.57779 7.43665 3.6876 7.40625 3.79004L7.4043 3.79883L5.79883 9.54395V9.5459C5.75207 9.71516 5.58895 9.79694 5.44629 9.75586C5.29902 9.71336 5.19709 9.54707 5.24512 9.37305L5.24414 9.37207L6.84961 3.62891L6.85156 3.62012C6.88402 3.49663 6.98355 3.41501 7.0918 3.40137L7.09961 3.40039ZM13.1182 3.40039C13.2087 3.38758 13.3031 3.42226 13.3672 3.49902L13.3682 3.5C13.433 3.57778 13.4562 3.68763 13.4258 3.79004L13.4238 3.79883L11.8184 9.54395V9.5459C11.7716 9.71515 11.6085 9.79688 11.4658 9.75586C11.3185 9.71336 11.2166 9.54707 11.2646 9.37305L11.2637 9.37207L12.8691 3.62891L12.8711 3.62012C12.9036 3.49664 13.0031 3.41501 13.1113 3.40137L13.1182 3.40039ZM19.1377 3.40039C19.2283 3.38758 19.3227 3.42222 19.3867 3.49902V3.5C19.4517 3.57779 19.4757 3.6875 19.4453 3.79004L19.4434 3.79883L17.8379 9.54395V9.5459C17.7912 9.71513 17.628 9.79683 17.4854 9.75586C17.3386 9.71351 17.2364 9.54835 17.2832 9.375L18.8887 3.62891L18.8906 3.62012C18.9231 3.49679 19.0218 3.41514 19.1299 3.40137L19.1377 3.40039Z" fill="white" stroke="white" stroke-width="1.03843"/>
</svg>
