<svg width="27" height="28" viewBox="0 0 27 28" fill="none" xmlns="http://www.w3.org/2000/svg">
<path d="M25.0337 0.146484H12.9934C12.5581 0.146484 12.1404 0.328833 11.8326 0.653353C11.5246 0.978065 11.3516 1.4183 11.3516 1.87725V10.5311H2.04808C1.6127 10.5311 1.19508 10.7135 0.887071 11.038C0.579228 11.3627 0.40625 11.8029 0.40625 12.2619V23.8002C0.40625 24.2593 0.579228 24.6996 0.887071 25.0241C1.1951 25.3486 1.61271 25.5309 2.04808 25.5309H3.14257V27.2617C3.14257 27.4147 3.20029 27.5615 3.3029 27.6697C3.40552 27.7779 3.54478 27.8387 3.6899 27.8387C3.92518 27.8387 3.7227 27.931 7.13774 25.5309H14.0883C14.5237 25.5309 14.9413 25.3486 15.2491 25.0241C15.5571 24.6996 15.7301 24.2593 15.7301 23.8002V15.1463H19.9441C23.3371 17.5348 23.1622 17.4541 23.3919 17.4541C23.5371 17.4541 23.6763 17.3932 23.7789 17.2851C23.8815 17.1769 23.9393 17.0301 23.9393 16.8771V15.1463H25.0338C25.4691 15.1463 25.8868 14.964 26.1948 14.6395C26.5026 14.3149 26.6756 13.8747 26.6756 13.4156V1.87725C26.6756 1.41829 26.5026 0.978045 26.1948 0.653353C25.8867 0.328833 25.469 0.146484 25.0337 0.146484ZM14.6353 23.8002C14.6353 23.9532 14.5777 24.1 14.4751 24.2081C14.3723 24.3163 14.2332 24.3772 14.0881 24.3772H6.97337C6.74359 24.3772 6.85298 24.3426 4.23705 26.1829V24.9541C4.23705 23.8004 2.17379 24.7581 1.65943 24.1983C1.42946 23.9675 1.50056 24.8156 1.50056 12.2619C1.50056 11.9434 1.74574 11.6849 2.0479 11.6849H11.3514V13.4157C11.3514 13.8749 11.5244 14.3151 11.8324 14.6396C12.1403 14.9641 12.5579 15.1465 12.9933 15.1465H14.6351L14.6353 23.8002ZM25.5811 13.4156C25.5811 13.5685 25.5234 13.7153 25.4208 13.8235C25.3181 13.9317 25.1789 13.9925 25.0338 13.9925H23.3919C23.0898 13.9925 22.8446 14.2508 22.8446 14.5695V15.7985C20.2232 13.958 20.338 13.9925 20.1083 13.9925H12.9935C12.6914 13.9925 12.4464 13.7343 12.4464 13.4156V1.87725C12.4464 1.55872 12.6914 1.30026 12.9935 1.30026H25.0338C25.1789 1.30026 25.3181 1.36111 25.4208 1.46929C25.5234 1.57746 25.5811 1.72426 25.5811 1.87725V13.4156Z" fill="white"/>
<path d="M8.57257 15.5227C8.49396 15.2944 8.28836 15.1426 8.05802 15.1426C7.82787 15.1426 7.62227 15.2944 7.54366 15.5227L5.90183 20.138C5.7961 20.4377 5.94049 20.7707 6.2247 20.8823C6.5089 20.9938 6.82481 20.8414 6.93073 20.542L7.20431 19.7631H8.91171L9.18529 20.542C9.29102 20.8414 9.60729 20.9938 9.8915 20.8823C10.1755 20.7707 10.3201 20.4377 10.2144 20.138L8.57257 15.5227ZM7.61477 18.6091L8.05803 17.3688L8.50147 18.6091H7.61477Z" fill="white"/>
<path d="M21.1989 4.76316H19.5571V4.18636C19.5571 3.86764 19.3121 3.60938 19.0099 3.60938C18.7076 3.60938 18.4626 3.86764 18.4626 4.18636V4.76316H16.8208C16.5186 4.76316 16.2734 5.02161 16.2734 5.34014C16.2734 5.65868 16.5186 5.91713 16.8208 5.91713H20.0442C19.8818 6.67066 19.5237 7.36183 19.0099 7.9133C18.8441 7.73231 18.6906 7.53953 18.5502 7.33632C18.3717 7.0937 18.0445 7.04077 17.8053 7.21597C17.5662 7.39118 17.4991 7.73308 17.6527 7.99403C17.8189 8.24572 18.0018 8.48486 18.1998 8.70933C17.8557 8.99135 17.4896 9.24226 17.1053 9.4594C16.8598 9.61509 16.7698 9.94444 16.8992 10.2141C17.0284 10.4838 17.3333 10.6024 17.5979 10.4863C18.0994 10.2072 18.5726 9.87453 19.01 9.49401C19.4424 9.86836 19.9101 10.195 20.4055 10.4689C20.6701 10.5852 20.9749 10.4664 21.1042 10.1968C21.2336 9.92709 21.1436 9.59796 20.8981 9.44204C20.514 9.22685 20.1479 8.97786 19.8034 8.69776C20.5162 7.93998 20.9901 6.96892 21.1607 5.91715C21.463 5.92816 21.7167 5.67898 21.7271 5.36044C21.7377 5.04172 21.5013 4.77433 21.1989 4.76316Z" fill="white"/>
</svg>
