<svg width="26" height="20" viewBox="0 0 26 20" fill="none" xmlns="http://www.w3.org/2000/svg">
<path d="M14.2914 0.244289L6.20041 4.99353H1.44998C1.14342 4.99353 0.898438 5.25203 0.898438 5.57496V14.3304C0.898438 14.6535 1.14364 14.9118 1.44998 14.9118H6.20041L14.2914 19.661C14.3833 19.7257 14.4752 19.7257 14.5671 19.7257C14.6591 19.7257 14.751 19.6935 14.8429 19.6288C15.0268 19.5319 15.1187 19.3381 15.1187 19.1118V0.696396C15.1187 0.502584 15.0268 0.308771 14.8429 0.179419C14.6898 0.147193 14.4752 0.147193 14.2914 0.244098L14.2914 0.244289ZM14.0156 18.1751L6.62952 13.8459H6.59895C6.56838 13.8137 6.5376 13.8137 6.50702 13.8137C6.47645 13.8137 6.44567 13.7815 6.4151 13.7815H6.38453L2.00182 13.7813V6.18892H6.35377H6.38434C6.41491 6.18892 6.4457 6.18892 6.50684 6.15669C6.53741 6.15669 6.56819 6.12447 6.59876 6.12447H6.62934L14.0154 1.79528L14.0156 18.1751Z" fill="white"/>
<path d="M17.6045 6.99814C17.4512 6.70742 17.0835 6.64274 16.8383 6.80433C16.5931 6.96592 16.5012 7.35353 16.6544 7.61203C17.6658 9.29209 17.6658 10.8428 16.685 12.2966C16.5012 12.5551 16.5625 12.9427 16.8075 13.1043C16.8994 13.169 17.0221 13.2012 17.1446 13.2012C17.3285 13.2012 17.4818 13.1043 17.6043 12.9427C18.8611 11.1013 18.8611 9.09809 17.6045 6.99814Z" fill="white"/>
<path d="M19.4404 5.28623C19.2871 4.99551 18.9194 4.93083 18.6742 5.09242C18.429 5.254 18.3371 5.64162 18.4904 5.90011C20.2374 8.8077 20.2374 11.4571 18.5209 14.0094C18.3371 14.2679 18.3984 14.6555 18.6434 14.8171C18.7354 14.8817 18.8581 14.914 18.9806 14.914C19.1644 14.914 19.3177 14.8171 19.4402 14.6555C21.4019 11.7801 21.4019 8.61392 19.4404 5.28622V5.28623Z" fill="white"/>
<path d="M21.1357 3.31553C20.9824 3.02481 20.6147 2.96013 20.3695 3.12171C20.1243 3.2833 20.0324 3.67092 20.1857 3.92941C22.76 8.2586 22.76 12.2002 20.2163 15.9802C20.0324 16.2387 20.0938 16.6263 20.3388 16.7879C20.4307 16.8526 20.5534 16.8848 20.6759 16.8848C20.8597 16.8848 21.013 16.7879 21.1355 16.6263C23.9245 12.5232 23.9245 8.03245 21.1357 3.31551V3.31553Z" fill="white"/>
<path d="M22.6415 1.08239C22.4882 0.823902 22.1511 0.726996 21.8753 0.888581C21.5996 1.05017 21.5382 1.43778 21.6915 1.69628C25.2158 7.64091 25.2158 13.004 21.7221 18.1733C21.5382 18.4317 21.5996 18.8194 21.8446 18.9809C21.9365 19.0456 22.0592 19.0779 22.1817 19.0779C22.3655 19.0779 22.5188 18.9809 22.6413 18.8194C26.35 13.3593 26.3805 7.3824 22.6415 1.08238V1.08239Z" fill="white"/>
</svg>
