<svg width="28" height="30" viewBox="0 0 28 30" fill="none" xmlns="http://www.w3.org/2000/svg">
<mask id="path-1-inside-1_2088_19655" fill="white">
<path d="M14.0567 6.20312C9.2672 6.20312 5.375 10.3027 5.375 15.3474C5.375 20.392 9.2672 24.4916 14.0567 24.4916C18.8462 24.4916 22.7384 20.392 22.7384 15.3474C22.7384 10.3027 18.8462 6.20312 14.0567 6.20312ZM15.3153 20.6007V23.5219C14.9074 23.5956 14.4879 23.6324 14.0684 23.6324C13.6372 23.6324 13.2293 23.5956 12.8215 23.5219V20.6007C12.8215 20.4166 12.7049 20.257 12.5418 20.1957C10.5724 19.496 9.24389 17.5567 9.24389 15.3719C9.24389 13.408 10.316 11.6283 11.9708 10.7937V15.5315C11.9708 16.2434 12.5185 16.8203 13.1944 16.8203H14.954C15.6299 16.8203 16.1776 16.2434 16.1776 15.5315V10.7937C17.8324 11.6283 18.9045 13.408 18.9045 15.3719C18.9045 17.569 17.576 19.496 15.6066 20.1957C15.4201 20.257 15.3153 20.4166 15.3153 20.6007ZM16.131 23.3378V20.9076C18.2868 20.0115 19.7086 17.8267 19.7086 15.3719C19.7086 12.8312 18.1703 10.5727 15.8863 9.75035C15.7581 9.70126 15.6299 9.7258 15.5134 9.81172C15.4085 9.89764 15.3386 10.0204 15.3386 10.1554V15.5315C15.3386 15.7647 15.1521 15.9611 14.9307 15.9611H13.1711C12.9496 15.9611 12.7632 15.7647 12.7632 15.5315V10.1431C12.7632 10.0081 12.7049 9.87309 12.5884 9.79945C12.4835 9.71353 12.3437 9.70126 12.2155 9.73808C9.93144 10.5604 8.3932 12.8189 8.3932 15.3596C8.3932 17.8145 9.81491 19.9993 11.9708 20.8953V23.3256C8.63792 22.3682 6.17908 19.1523 6.17908 15.3351C6.17908 10.7691 9.71003 7.05004 14.0451 7.05004C18.3801 7.05004 21.911 10.7691 21.911 15.3351C21.9227 19.1646 19.4638 22.3804 16.131 23.3378Z"/>
</mask>
<path d="M14.0567 6.20312C9.2672 6.20312 5.375 10.3027 5.375 15.3474C5.375 20.392 9.2672 24.4916 14.0567 24.4916C18.8462 24.4916 22.7384 20.392 22.7384 15.3474C22.7384 10.3027 18.8462 6.20312 14.0567 6.20312ZM15.3153 20.6007V23.5219C14.9074 23.5956 14.4879 23.6324 14.0684 23.6324C13.6372 23.6324 13.2293 23.5956 12.8215 23.5219V20.6007C12.8215 20.4166 12.7049 20.257 12.5418 20.1957C10.5724 19.496 9.24389 17.5567 9.24389 15.3719C9.24389 13.408 10.316 11.6283 11.9708 10.7937V15.5315C11.9708 16.2434 12.5185 16.8203 13.1944 16.8203H14.954C15.6299 16.8203 16.1776 16.2434 16.1776 15.5315V10.7937C17.8324 11.6283 18.9045 13.408 18.9045 15.3719C18.9045 17.569 17.576 19.496 15.6066 20.1957C15.4201 20.257 15.3153 20.4166 15.3153 20.6007ZM16.131 23.3378V20.9076C18.2868 20.0115 19.7086 17.8267 19.7086 15.3719C19.7086 12.8312 18.1703 10.5727 15.8863 9.75035C15.7581 9.70126 15.6299 9.7258 15.5134 9.81172C15.4085 9.89764 15.3386 10.0204 15.3386 10.1554V15.5315C15.3386 15.7647 15.1521 15.9611 14.9307 15.9611H13.1711C12.9496 15.9611 12.7632 15.7647 12.7632 15.5315V10.1431C12.7632 10.0081 12.7049 9.87309 12.5884 9.79945C12.4835 9.71353 12.3437 9.70126 12.2155 9.73808C9.93144 10.5604 8.3932 12.8189 8.3932 15.3596C8.3932 17.8145 9.81491 19.9993 11.9708 20.8953V23.3256C8.63792 22.3682 6.17908 19.1523 6.17908 15.3351C6.17908 10.7691 9.71003 7.05004 14.0451 7.05004C18.3801 7.05004 21.911 10.7691 21.911 15.3351C21.9227 19.1646 19.4638 22.3804 16.131 23.3378Z" fill="#A553FF"/>
<path d="M15.3153 23.5219L15.5047 24.5709L16.3811 24.4126V23.5219H15.3153ZM12.8215 23.5219H11.7556V24.4126L12.6321 24.5709L12.8215 23.5219ZM12.5418 20.1957L12.9171 19.198L12.9079 19.1946L12.8986 19.1913L12.5418 20.1957ZM11.9708 10.7937H13.0366V9.06224L11.4908 9.84197L11.9708 10.7937ZM16.1776 10.7937L16.6576 9.84197L15.1117 9.06224V10.7937H16.1776ZM15.6066 20.1957L15.9398 21.2081L15.9517 21.2042L15.9634 21.2L15.6066 20.1957ZM16.131 23.3378H15.0651V24.753L16.4253 24.3623L16.131 23.3378ZM16.131 20.9076L15.7219 19.9233L15.0651 20.1963V20.9076H16.131ZM15.8863 9.75035L15.505 10.7457L15.5151 10.7496L15.5252 10.7532L15.8863 9.75035ZM15.5134 9.81172L14.8808 8.95381L14.8589 8.96995L14.8379 8.98719L15.5134 9.81172ZM12.5884 9.79945L11.9129 10.624L11.9636 10.6655L12.019 10.7005L12.5884 9.79945ZM12.2155 9.73808L11.9212 8.71362L11.8874 8.72332L11.8544 8.73522L12.2155 9.73808ZM11.9708 20.8953H13.0366V20.184L12.3798 19.911L11.9708 20.8953ZM11.9708 23.3256L11.6765 24.35L13.0366 24.7407V23.3256H11.9708ZM21.911 15.3351L20.8451 15.3351L20.8451 15.3383L21.911 15.3351ZM14.0567 6.20312V5.13724C8.62707 5.13724 4.30912 9.76683 4.30912 15.3474H5.375H6.44088C6.44088 10.8386 9.90733 7.26901 14.0567 7.26901V6.20312ZM5.375 15.3474H4.30912C4.30912 20.9279 8.62707 25.5575 14.0567 25.5575V24.4916V23.4257C9.90733 23.4257 6.44088 19.8562 6.44088 15.3474H5.375ZM14.0567 24.4916V25.5575C19.4863 25.5575 23.8043 20.9279 23.8043 15.3474H22.7384H21.6725C21.6725 19.8562 18.2061 23.4257 14.0567 23.4257V24.4916ZM22.7384 15.3474H23.8043C23.8043 9.76683 19.4863 5.13724 14.0567 5.13724V6.20312V7.26901C18.2061 7.26901 21.6725 10.8386 21.6725 15.3474H22.7384ZM15.3153 20.6007H14.2494V23.5219H15.3153H16.3811V20.6007H15.3153ZM15.3153 23.5219L15.1259 22.473C14.7821 22.5351 14.426 22.5665 14.0684 22.5665V23.6324V24.6983C14.5497 24.6983 15.0327 24.6561 15.5047 24.5709L15.3153 23.5219ZM14.0684 23.6324V22.5665C13.6999 22.5665 13.3555 22.5352 13.0109 22.473L12.8215 23.5219L12.6321 24.5709C13.1032 24.6559 13.5745 24.6983 14.0684 24.6983V23.6324ZM12.8215 23.5219H13.8873V20.6007H12.8215H11.7556V23.5219H12.8215ZM12.8215 20.6007H13.8873C13.8873 19.9617 13.4853 19.4118 12.9171 19.198L12.5418 20.1957L12.1665 21.1933C11.9246 21.1023 11.7556 20.8715 11.7556 20.6007H12.8215ZM12.5418 20.1957L12.8986 19.1913C11.3782 18.6512 10.3098 17.1316 10.3098 15.3719H9.24389H8.17801C8.17801 17.9818 9.7665 20.3409 12.185 21.2L12.5418 20.1957ZM9.24389 15.3719H10.3098C10.3098 13.7881 11.1748 12.3889 12.4508 11.7453L11.9708 10.7937L11.4908 9.84197C9.4572 10.8677 8.17801 13.028 8.17801 15.3719H9.24389ZM11.9708 10.7937H10.9049V15.5315H11.9708H13.0366V10.7937H11.9708ZM11.9708 15.5315H10.9049C10.9049 16.7792 11.8783 17.8861 13.1944 17.8861V16.8203V15.7544C13.169 15.7544 13.1367 15.7454 13.1021 15.7089C13.0666 15.6715 13.0366 15.6112 13.0366 15.5315H11.9708ZM13.1944 16.8203V17.8861H14.954V16.8203V15.7544H13.1944V16.8203ZM14.954 16.8203V17.8861C16.27 17.8861 17.2435 16.7792 17.2435 15.5315H16.1776H15.1117C15.1117 15.6112 15.0818 15.6715 15.0463 15.7089C15.0117 15.7454 14.9793 15.7544 14.954 15.7544V16.8203ZM16.1776 15.5315H17.2435V10.7937H16.1776H15.1117V15.5315H16.1776ZM16.1776 10.7937L15.6976 11.7453C16.9736 12.3889 17.8386 13.7881 17.8386 15.3719H18.9045H19.9704C19.9704 13.028 18.6912 10.8677 16.6576 9.84197L16.1776 10.7937ZM18.9045 15.3719H17.8386C17.8386 17.1423 16.7715 18.6507 15.2498 19.1913L15.6066 20.1957L15.9634 21.2C18.3805 20.3414 19.9704 17.9956 19.9704 15.3719H18.9045ZM15.6066 20.1957L15.2733 19.1832C14.6258 19.3964 14.2494 19.982 14.2494 20.6007H15.3153H16.3811C16.3811 20.7126 16.3483 20.8436 16.2635 20.9644C16.1767 21.0882 16.0573 21.1694 15.9398 21.2081L15.6066 20.1957ZM16.131 23.3378H17.1969V20.9076H16.131H15.0651V23.3378H16.131ZM16.131 20.9076L16.5401 21.8918C19.1152 20.8216 20.7744 18.2336 20.7744 15.3719H19.7086H18.6427C18.6427 17.4199 17.4585 19.2015 15.7219 19.9233L16.131 20.9076ZM19.7086 15.3719H20.7744C20.7744 12.4085 18.9789 9.73098 16.2473 8.74749L15.8863 9.75035L15.5252 10.7532C17.3617 11.4145 18.6427 13.2539 18.6427 15.3719H19.7086ZM15.8863 9.75035L16.2675 8.75498C15.7488 8.55629 15.2426 8.68705 14.8808 8.95381L15.5134 9.81172L16.1459 10.6696C16.093 10.7087 16.0022 10.7592 15.8756 10.781C15.7438 10.8036 15.6142 10.7875 15.505 10.7457L15.8863 9.75035ZM15.5134 9.81172L14.8379 8.98719C14.5379 9.23298 14.2727 9.6393 14.2727 10.1554H15.3386H16.4045C16.4045 10.4015 16.2791 10.5623 16.1888 10.6363L15.5134 9.81172ZM15.3386 10.1554H14.2727V15.5315H15.3386H16.4045V10.1554H15.3386ZM15.3386 15.5315H14.2727C14.2727 15.2288 14.512 14.8952 14.9307 14.8952V15.9611V17.027C15.7922 17.027 16.4045 16.3005 16.4045 15.5315H15.3386ZM14.9307 15.9611V14.8952H13.1711V15.9611V17.027H14.9307V15.9611ZM13.1711 15.9611V14.8952C13.5898 14.8952 13.8291 15.2288 13.8291 15.5315H12.7632H11.6973C11.6973 16.3005 12.3095 17.027 13.1711 17.027V15.9611ZM12.7632 15.5315H13.8291V10.1431H12.7632H11.6973V15.5315H12.7632ZM12.7632 10.1431H13.8291C13.8291 9.72817 13.6495 9.20913 13.1578 8.89841L12.5884 9.79945L12.019 10.7005C11.7604 10.5371 11.6973 10.2881 11.6973 10.1431H12.7632ZM12.5884 9.79945L13.2639 8.97492C12.8173 8.60907 12.2869 8.60856 11.9212 8.71362L12.2155 9.73808L12.5098 10.7625C12.4004 10.794 12.1497 10.818 11.9129 10.624L12.5884 9.79945ZM12.2155 9.73808L11.8544 8.73522C9.12285 9.71871 7.32732 12.3962 7.32732 15.3596H8.3932H9.45909C9.45909 13.2416 10.74 11.4022 12.5766 10.7409L12.2155 9.73808ZM8.3932 15.3596H7.32732C7.32732 18.2213 8.9866 20.8093 11.5617 21.8795L11.9708 20.8953L12.3798 19.911C10.6432 19.1892 9.45909 17.4077 9.45909 15.3596H8.3932ZM11.9708 20.8953H10.9049V23.3256H11.9708H13.0366V20.8953H11.9708ZM11.9708 23.3256L12.265 22.3011C9.40756 21.4803 7.24496 18.6965 7.24496 15.3351H6.17908H5.11319C5.11319 19.6082 7.86828 23.2561 11.6765 24.35L11.9708 23.3256ZM6.17908 15.3351H7.24496C7.24496 11.305 10.3502 8.11593 14.0451 8.11593V7.05004V5.98416C9.0699 5.98416 5.11319 10.2332 5.11319 15.3351H6.17908ZM14.0451 7.05004V8.11593C17.7399 8.11593 20.8451 11.305 20.8451 15.3351H21.911H22.9769C22.9769 10.2332 19.0202 5.98416 14.0451 5.98416V7.05004ZM21.911 15.3351L20.8451 15.3383C20.8554 18.7103 18.6936 21.4927 15.8367 22.3134L16.131 23.3378L16.4253 24.3623C20.2341 23.2682 22.9899 19.6189 22.9769 15.3318L21.911 15.3351Z" fill="white" mask="url(#path-1-inside-1_2088_19655)"/>
<mask id="path-3-inside-2_2088_19655" fill="white">
<path d="M27.7563 14.642V13.9792C27.7563 13.39 27.3834 12.8745 26.8357 12.6781L24.3652 11.954L24.2486 11.6594C24.202 11.5244 24.1437 11.4139 24.1088 11.2912C23.9689 10.9598 23.8641 10.6652 23.7242 10.2724L23.6193 9.9901L24.8779 7.65801C25.1692 7.13022 25.0877 6.44287 24.6565 6.03782L22.8735 4.17215C22.6288 3.91439 22.2909 3.7671 21.9413 3.7671C21.7199 3.7671 21.5101 3.82847 21.3237 3.95121L19.1095 5.27682C19.1095 5.27682 18.5502 5.03134 18.4103 4.96997C18.119 4.84723 17.851 4.72449 17.5247 4.58947L17.2333 4.46673L16.5808 1.95053L16.5691 1.92598L16.5575 1.87688C16.3943 1.31227 15.8816 0.907227 15.3222 0.907227H12.7818C12.1875 0.907227 11.6747 1.31227 11.5465 1.90143L10.894 4.49128L10.6143 4.61402C10.4744 4.67539 10.3462 4.73676 10.2297 4.78586L10.2064 4.79813C9.92673 4.92087 9.6587 5.04361 9.32076 5.17863L9.04108 5.2891L6.82695 3.95121C6.62885 3.82847 6.40743 3.7671 6.18602 3.7671C5.84808 3.7671 5.51013 3.91439 5.27707 4.18442L3.4708 6.05009C3.05129 6.49196 2.95806 7.16704 3.26105 7.69483L4.50795 10.0146C4.50795 10.0146 4.27488 10.6038 4.21662 10.7511C4.10008 11.0579 3.98355 11.3403 3.85536 11.6962L3.73883 12.0031L1.3499 12.6904L1.3266 12.7027L1.27999 12.715C0.743934 12.8868 0.359375 13.4269 0.359375 14.016V16.6918C0.359375 17.3178 0.743934 17.8455 1.29164 17.9928L3.73883 18.7047L3.85536 18.9993C4.05347 19.478 4.20496 19.8585 4.39141 20.374L4.49629 20.6563L3.23774 23.0007C2.94641 23.5285 3.03963 24.2158 3.4708 24.6332L5.24211 26.4988C5.49848 26.7689 5.82477 26.9039 6.16272 26.9039C6.38413 26.9039 6.60554 26.8425 6.80365 26.7198L9.00612 25.4064L9.69366 25.7133C9.985 25.836 10.253 25.9588 10.591 26.1061L10.8823 26.2288L11.5815 28.8923V28.9046C11.768 29.4323 12.269 29.8006 12.7934 29.8006H15.3339C15.9282 29.8006 16.4293 29.3955 16.5691 28.8186L17.245 26.2288L17.5247 26.1061C17.6529 26.057 17.7577 25.9956 17.8743 25.9588H17.8859C18.2006 25.8237 18.4802 25.701 18.8415 25.5537L19.1095 25.4432L21.3353 26.7689C21.5218 26.8916 21.7432 26.953 21.9646 26.953C22.3142 26.953 22.6521 26.8057 22.8968 26.5356L24.6681 24.67C25.0877 24.2281 25.1692 23.553 24.8663 23.0375L23.6077 20.7054C23.6077 20.7054 23.8408 20.104 23.899 19.969C24.0156 19.6621 24.1321 19.3921 24.2603 19.0361L24.3768 18.7293L26.9056 17.9928H26.9172C27.4183 17.7965 27.7679 17.2687 27.7679 16.7163V14.642H27.7563ZM26.8706 16.9864L23.7009 17.8946L23.6193 18.1279C23.2814 19.0361 23.1299 19.4535 22.757 20.3372L22.6172 20.6932L24.237 23.7003L22.0112 26.057L19.1678 24.3386L18.9697 24.4122C18.0491 24.7927 17.6529 24.9646 16.7905 25.3573L16.4875 25.4923L15.6252 28.8186H12.4555L11.5932 25.4801L11.3834 25.3941C10.521 25.0382 10.1248 24.8786 9.2858 24.4859L8.92455 24.3263L6.06949 26.0447L3.84371 23.6758L5.47517 20.6809L5.40525 20.4722C5.05565 19.5026 4.89251 19.0852 4.50795 18.1401L4.39141 17.8455L1.24503 16.9373V13.5987L4.41472 12.6904L4.49629 12.4695C4.85755 11.4875 4.99739 11.107 5.35864 10.2479L5.49848 9.8919L3.86702 6.95838L6.10445 4.60174L8.94785 6.30785L9.15761 6.22193C10.0899 5.85371 10.4861 5.68187 11.3484 5.27682L11.6281 5.15408L12.4905 1.82779H15.6601L16.5225 5.16636L16.7323 5.25227C17.4081 5.52231 17.7927 5.69414 18.2938 5.91508C18.2938 5.91508 18.6434 6.07464 18.8532 6.16056L19.1911 6.30785L22.0462 4.58947L24.2603 6.94611L22.6521 9.941L22.7337 10.1497C23.025 10.9598 23.1998 11.4016 23.4562 12.0522L23.7359 12.7518L26.8823 13.6601V16.9864H26.8706Z"/>
</mask>
<path d="M27.7563 14.642V13.9792C27.7563 13.39 27.3834 12.8745 26.8357 12.6781L24.3652 11.954L24.2486 11.6594C24.202 11.5244 24.1437 11.4139 24.1088 11.2912C23.9689 10.9598 23.8641 10.6652 23.7242 10.2724L23.6193 9.9901L24.8779 7.65801C25.1692 7.13022 25.0877 6.44287 24.6565 6.03782L22.8735 4.17215C22.6288 3.91439 22.2909 3.7671 21.9413 3.7671C21.7199 3.7671 21.5101 3.82847 21.3237 3.95121L19.1095 5.27682C19.1095 5.27682 18.5502 5.03134 18.4103 4.96997C18.119 4.84723 17.851 4.72449 17.5247 4.58947L17.2333 4.46673L16.5808 1.95053L16.5691 1.92598L16.5575 1.87688C16.3943 1.31227 15.8816 0.907227 15.3222 0.907227H12.7818C12.1875 0.907227 11.6747 1.31227 11.5465 1.90143L10.894 4.49128L10.6143 4.61402C10.4744 4.67539 10.3462 4.73676 10.2297 4.78586L10.2064 4.79813C9.92673 4.92087 9.6587 5.04361 9.32076 5.17863L9.04108 5.2891L6.82695 3.95121C6.62885 3.82847 6.40743 3.7671 6.18602 3.7671C5.84808 3.7671 5.51013 3.91439 5.27707 4.18442L3.4708 6.05009C3.05129 6.49196 2.95806 7.16704 3.26105 7.69483L4.50795 10.0146C4.50795 10.0146 4.27488 10.6038 4.21662 10.7511C4.10008 11.0579 3.98355 11.3403 3.85536 11.6962L3.73883 12.0031L1.3499 12.6904L1.3266 12.7027L1.27999 12.715C0.743934 12.8868 0.359375 13.4269 0.359375 14.016V16.6918C0.359375 17.3178 0.743934 17.8455 1.29164 17.9928L3.73883 18.7047L3.85536 18.9993C4.05347 19.478 4.20496 19.8585 4.39141 20.374L4.49629 20.6563L3.23774 23.0007C2.94641 23.5285 3.03963 24.2158 3.4708 24.6332L5.24211 26.4988C5.49848 26.7689 5.82477 26.9039 6.16272 26.9039C6.38413 26.9039 6.60554 26.8425 6.80365 26.7198L9.00612 25.4064L9.69366 25.7133C9.985 25.836 10.253 25.9588 10.591 26.1061L10.8823 26.2288L11.5815 28.8923V28.9046C11.768 29.4323 12.269 29.8006 12.7934 29.8006H15.3339C15.9282 29.8006 16.4293 29.3955 16.5691 28.8186L17.245 26.2288L17.5247 26.1061C17.6529 26.057 17.7577 25.9956 17.8743 25.9588H17.8859C18.2006 25.8237 18.4802 25.701 18.8415 25.5537L19.1095 25.4432L21.3353 26.7689C21.5218 26.8916 21.7432 26.953 21.9646 26.953C22.3142 26.953 22.6521 26.8057 22.8968 26.5356L24.6681 24.67C25.0877 24.2281 25.1692 23.553 24.8663 23.0375L23.6077 20.7054C23.6077 20.7054 23.8408 20.104 23.899 19.969C24.0156 19.6621 24.1321 19.3921 24.2603 19.0361L24.3768 18.7293L26.9056 17.9928H26.9172C27.4183 17.7965 27.7679 17.2687 27.7679 16.7163V14.642H27.7563ZM26.8706 16.9864L23.7009 17.8946L23.6193 18.1279C23.2814 19.0361 23.1299 19.4535 22.757 20.3372L22.6172 20.6932L24.237 23.7003L22.0112 26.057L19.1678 24.3386L18.9697 24.4122C18.0491 24.7927 17.6529 24.9646 16.7905 25.3573L16.4875 25.4923L15.6252 28.8186H12.4555L11.5932 25.4801L11.3834 25.3941C10.521 25.0382 10.1248 24.8786 9.2858 24.4859L8.92455 24.3263L6.06949 26.0447L3.84371 23.6758L5.47517 20.6809L5.40525 20.4722C5.05565 19.5026 4.89251 19.0852 4.50795 18.1401L4.39141 17.8455L1.24503 16.9373V13.5987L4.41472 12.6904L4.49629 12.4695C4.85755 11.4875 4.99739 11.107 5.35864 10.2479L5.49848 9.8919L3.86702 6.95838L6.10445 4.60174L8.94785 6.30785L9.15761 6.22193C10.0899 5.85371 10.4861 5.68187 11.3484 5.27682L11.6281 5.15408L12.4905 1.82779H15.6601L16.5225 5.16636L16.7323 5.25227C17.4081 5.52231 17.7927 5.69414 18.2938 5.91508C18.2938 5.91508 18.6434 6.07464 18.8532 6.16056L19.1911 6.30785L22.0462 4.58947L24.2603 6.94611L22.6521 9.941L22.7337 10.1497C23.025 10.9598 23.1998 11.4016 23.4562 12.0522L23.7359 12.7518L26.8823 13.6601V16.9864H26.8706Z" fill="#3A3153" stroke="white" stroke-width="2.13177" mask="url(#path-3-inside-2_2088_19655)"/>
</svg>
