<svg width="31" height="26" viewBox="0 0 31 26" fill="none" xmlns="http://www.w3.org/2000/svg">
<path d="M18.767 6.80523C19.2097 6.80523 19.5696 6.44539 19.5696 6.00262V4.53657C19.611 2.52607 17.8239 0.731038 15.8082 0.775213C13.7335 0.775213 12.0469 2.462 12.0469 4.53657V11.8507C12.2355 16.8387 19.3812 16.8414 19.5699 11.8507V9.21288C19.5512 8.15615 17.9835 8.15882 17.9647 9.21288V11.8507C17.9647 13.0426 16.9976 14.0124 15.8084 14.0124C14.6192 14.0124 13.6521 13.0426 13.6521 11.8507V4.53657C13.7565 1.67531 17.8604 1.69271 17.9648 4.53657V6.00262C17.9648 6.44539 18.3242 6.80523 18.767 6.80523Z" fill="white" stroke="#4F31B4" stroke-width="0.262667"/>
<path d="M10.8005 11.2578C10.7858 10.2078 9.21271 10.1997 9.19531 11.2578V12.5607C9.19531 15.9316 11.7342 18.7153 14.9979 19.1126V21.0829H13.5947C13.152 21.0829 12.7921 21.4428 12.7921 21.8855C12.7921 22.3283 13.152 22.6882 13.5947 22.6882H18.0064C19.0604 22.6681 19.0618 21.103 18.0064 21.083H16.6032V19.1126C19.8684 18.7153 22.4058 15.9317 22.4058 12.5607V11.2578C22.3857 10.2051 20.8207 10.2011 20.8006 11.2578V12.5607C20.8006 15.3176 18.5574 17.561 15.8003 17.561C13.0433 17.561 10.8 15.3178 10.8 12.5607L10.8005 11.2578Z" fill="white" stroke="#4F31B4" stroke-width="0.262667"/>
<path d="M11.4785 23.7188C10.4258 23.7361 10.4218 25.3052 11.4785 25.3239H20.1238C21.1765 25.3065 21.1805 23.7375 20.1238 23.7188H11.4785Z" fill="white" stroke="#4F31B4" stroke-width="0.262667"/>
<path d="M10.554 5.74055H9.47718L8.24518 2.27198C8.01243 1.54029 6.91022 1.58577 6.71893 2.31479L5.30236 7.15448L4.9024 6.22616C4.77532 5.93188 4.4864 5.74058 4.16536 5.74058H1.62649C0.575094 5.75797 0.569752 7.32703 1.62649 7.34577H3.63698L4.70844 9.83646C4.97597 10.516 6.03405 10.4518 6.21596 9.7455L7.56298 5.14791L8.15423 6.8133C8.26793 7.13299 8.57023 7.34702 8.91 7.34702H10.554C11.6067 7.32963 11.6107 5.76057 10.554 5.74184V5.74055Z" fill="white" stroke="#4F31B4" stroke-width="0.262667"/>
<path d="M29.9801 5.74061H27.4412C27.1202 5.74061 26.8313 5.9319 26.7042 6.22619L26.3042 7.15451L24.8877 2.31482C24.6977 1.58713 23.5861 1.53899 23.3614 2.27201L22.1294 5.74058H21.0526C20.6098 5.74058 20.25 6.10041 20.25 6.54319C20.25 6.98596 20.6098 7.3458 21.0526 7.3458H22.6966C23.0364 7.3458 23.3387 7.13177 23.4524 6.81207L24.0436 5.14669L25.3906 9.74565C25.5725 10.4519 26.6306 10.5188 26.8981 9.83661L27.9696 7.34591H29.9801C31.0315 7.32852 31.0368 5.75934 29.9801 5.74061Z" fill="white" stroke="#4F31B4" stroke-width="0.262667"/>
</svg>
