<svg width="12" height="13" viewBox="0 0 12 13" fill="none" xmlns="http://www.w3.org/2000/svg">
<path d="M5.73187 1.19037C6.04104 0.881205 6.54229 0.881205 6.85146 1.19037L11.6015 5.94037C11.9106 6.24954 11.9106 6.75079 11.6015 7.05996L6.85146 11.81C6.54229 12.1191 6.04104 12.1191 5.73187 11.81C5.42271 11.5008 5.42271 10.9995 5.73187 10.6904L9.92208 6.50016L5.73187 2.30996C5.42271 2.00079 5.42271 1.49953 5.73187 1.19037ZM0.981875 1.19037C1.29104 0.881205 1.7923 0.881205 2.10146 1.19037L6.85146 5.94037C6.99993 6.08884 7.08333 6.2902 7.08333 6.50016C7.08333 6.71013 6.99993 6.91149 6.85146 7.05996L2.10146 11.81C1.79229 12.1191 1.29104 12.1191 0.981874 11.81C0.672709 11.5008 0.672709 10.9995 0.981874 10.6904L5.17208 6.50016L0.981874 2.30996C0.672709 2.00079 0.672709 1.49953 0.981875 1.19037Z" fill="white"/>
</svg>
