<svg width="55" height="59" viewBox="0 0 55 59" fill="none" xmlns="http://www.w3.org/2000/svg">
<path fill-rule="evenodd" clip-rule="evenodd" d="M20.9774 34.2175H34.3895C34.8306 34.2175 35.1875 34.5743 35.1875 35.0155V57.2489C35.1875 57.6901 34.8306 58.0469 34.3895 58.0469H20.9774C20.5362 58.0469 20.1794 57.6901 20.1794 57.2489V35.0155C20.1794 34.5743 20.5373 34.2175 20.9774 34.2175ZM45.8088 1.04688C43.4456 1.04688 41.3058 2.00447 39.7566 3.55374C38.2073 5.103 37.2497 7.24278 37.2497 9.606C37.2497 11.9692 38.2073 14.109 39.7566 15.6583C41.3058 17.2075 43.4456 18.1651 45.8088 18.1651C48.1721 18.1651 50.3118 17.2075 51.8611 15.6583C53.4104 14.109 54.368 11.9692 54.368 9.606C54.368 7.24278 53.4104 5.103 51.8611 3.55374C50.3118 2.00447 48.1721 1.04688 45.8088 1.04688ZM50.7325 4.68233C49.4728 3.42263 47.732 2.64287 45.8088 2.64287C43.8857 2.64287 42.1449 3.42263 40.8852 4.68233C39.6255 5.94203 38.8457 7.68282 38.8457 9.606C38.8457 11.5292 39.6255 13.27 40.8852 14.5297C42.1449 15.7894 43.8857 16.5691 45.8088 16.5691C47.732 16.5691 49.4728 15.7894 50.7325 14.5297C51.9922 13.27 52.772 11.5292 52.772 9.606C52.772 7.68282 51.9922 5.94203 50.7325 4.68233ZM27.684 12.9804C25.3208 12.9804 23.181 13.938 21.6317 15.4873C20.0825 17.0365 19.1249 19.1763 19.1249 21.5395C19.1249 23.9027 20.0825 26.0425 21.6317 27.5918C23.181 29.141 25.3208 30.0986 27.684 30.0986C30.0472 30.0986 32.187 29.141 33.7362 27.5918C35.2855 26.0425 36.2431 23.9027 36.2431 21.5395C36.2431 19.1763 35.2855 17.0365 33.7362 15.4873C32.187 13.9391 30.0472 12.9804 27.684 12.9804ZM32.6076 16.6159C31.3479 15.3562 29.6072 14.5764 27.684 14.5764C25.7608 14.5764 24.02 15.3562 22.7603 16.6159C21.5006 17.8756 20.7209 19.6163 20.7209 21.5395C20.7209 23.4627 21.5006 25.2035 22.7603 26.4632C24.02 27.7229 25.7608 28.5026 27.684 28.5026C29.6072 28.5026 31.3479 27.7229 32.6076 26.4632C33.8673 25.2035 34.6471 23.4627 34.6471 21.5395C34.6471 19.6163 33.8673 17.8756 32.6076 16.6159ZM9.55912 4.16021C7.1959 4.16021 5.05612 5.11781 3.50686 6.66707C1.9576 8.21633 1 10.3561 1 12.7193C1 15.0826 1.9576 17.2223 3.50686 18.7716C5.05612 20.3209 7.1959 21.2785 9.55912 21.2785C11.9223 21.2785 14.0621 20.3209 15.6114 18.7716C17.1606 17.2223 18.1182 15.0826 18.1182 12.7193C18.1182 10.3561 17.1606 8.21633 15.6114 6.66707C14.0621 5.11781 11.9223 4.16021 9.55912 4.16021ZM14.4828 7.79568C13.2231 6.53598 11.4823 5.75622 9.55912 5.75622C7.63594 5.75622 5.89516 6.53484 4.63546 7.79568C3.37576 9.05652 2.596 10.7962 2.596 12.7193C2.596 14.6425 3.37576 16.3833 4.63546 17.643C5.89516 18.9027 7.63594 19.6825 9.55912 19.6825C11.4823 19.6825 13.2231 18.9027 14.4828 17.643C15.7425 16.3833 16.5222 14.6425 16.5222 12.7193C16.5211 10.7962 15.7425 9.05538 14.4828 7.79568ZM2.8525 25.2308H16.2646C16.7058 25.2308 17.0626 25.5877 17.0626 26.0288V57.2489C17.0626 57.6901 16.7058 58.0469 16.2646 58.0469H2.8525C2.41132 58.0469 2.0545 57.6901 2.0545 57.2489V26.0288C2.0545 25.5877 2.41246 25.2308 2.8525 25.2308ZM15.4677 26.8268H3.6505V56.4509H15.4666V26.8268H15.4677ZM52.5155 58.0469H39.1022C38.661 58.0469 38.3042 57.6901 38.3042 57.2489V23.8982C38.3042 23.457 38.661 23.1002 39.1022 23.1002H52.5143C52.9555 23.1002 53.3123 23.457 53.3123 23.8982V57.2489C53.3135 57.6901 52.9555 58.0469 52.5155 58.0469ZM39.9002 56.4509H51.7163V24.6962H39.9002V56.4509ZM33.5926 35.8135H21.7754V56.4509H33.5915V35.8135H33.5926Z" fill="#FBFBFD" stroke="#0B041D" stroke-width="0.5"/>
<path opacity="0.999985" d="M12.0644 11.5612L11.828 12.368H7.32117L7.55763 11.5612H12.0644ZM9.95014 17L7.40463 13.8842L7.39072 13.3H8.65652C8.98572 13.3 9.26623 13.2536 9.49807 13.1609C9.7299 13.0658 9.90725 12.9244 10.0301 12.7366C10.153 12.5465 10.2144 12.3077 10.2144 12.0203C10.2144 11.596 10.0869 11.2633 9.8319 11.0222C9.57689 10.7788 9.18509 10.6571 8.65652 10.6571H7.32117L7.55763 9.87813H8.65652C9.22219 9.87813 9.68585 9.97203 10.0475 10.1598C10.4115 10.3453 10.6804 10.6003 10.8543 10.9249C11.0305 11.2471 11.1186 11.6122 11.1186 12.0203C11.1186 12.3889 11.0374 12.7285 10.8751 13.0392C10.7152 13.3475 10.4578 13.5956 10.1031 13.7833C9.75076 13.9711 9.28478 14.065 8.7052 14.065H8.68434L11.0351 16.9444V17H9.95014ZM12.0644 9.87813L11.828 10.6849L8.28095 10.6571L8.51742 9.87813H12.0644Z" fill="#FBFBFD" fill-opacity="0.9"/>
<path opacity="0.999985" d="M30.0762 20.3405L29.8397 21.1473H25.3329L25.5694 20.3405H30.0762ZM27.9619 25.7793L25.4163 22.6635L25.4024 22.0793H26.6682C26.9974 22.0793 27.278 22.0329 27.5098 21.9402C27.7416 21.8451 27.919 21.7037 28.0418 21.5159C28.1647 21.3258 28.2261 21.087 28.2261 20.7996C28.2261 20.3753 28.0986 20.0426 27.8436 19.8015C27.5886 19.5581 27.1968 19.4364 26.6682 19.4364H25.3329L25.5694 18.6574H26.6682C27.2339 18.6574 27.6976 18.7513 28.0592 18.9391C28.4232 19.1246 28.6921 19.3796 28.866 19.7042C29.0422 20.0264 29.1303 20.3915 29.1303 20.7996C29.1303 21.1682 29.0491 21.5078 28.8869 21.8185C28.7269 22.1268 28.4696 22.3749 28.1149 22.5626C27.7625 22.7504 27.2965 22.8443 26.7169 22.8443H26.6961L29.0468 25.7237V25.7793H27.9619ZM30.0762 18.6574L29.8397 19.4642L26.2927 19.4364L26.5291 18.6574H30.0762Z" fill="#FBFBFD" fill-opacity="0.9"/>
<path opacity="0.999985" d="M48.2012 8.48311L47.9647 9.28988H43.4579L43.6944 8.48311H48.2012ZM46.0869 13.9219L43.5413 10.8061L43.5274 10.2218H44.7932C45.1224 10.2218 45.403 10.1755 45.6348 10.0827C45.8666 9.98769 46.044 9.84628 46.1668 9.65849C46.2897 9.46839 46.3511 9.2296 46.3511 8.94213C46.3511 8.51788 46.2236 8.1852 45.9686 7.9441C45.7136 7.70067 45.3218 7.57896 44.7932 7.57896H43.4579L43.6944 6.80001H44.7932C45.3589 6.80001 45.8226 6.8939 46.1842 7.08168C46.5482 7.26715 46.8171 7.52216 46.991 7.84673C47.1672 8.16897 47.2553 8.53411 47.2553 8.94213C47.2553 9.31074 47.1741 9.65038 47.0119 9.96103C46.8519 10.2694 46.5946 10.5174 46.2399 10.7052C45.8875 10.893 45.4215 10.9869 44.8419 10.9869H44.8211L47.1718 13.8662V13.9219H46.0869ZM48.2012 6.80001L47.9647 7.60678L44.4177 7.57896L44.6541 6.80001H48.2012Z" fill="#FBFBFD" fill-opacity="0.9"/>
</svg>
