<svg width="38" height="39" viewBox="0 0 38 39" fill="none" xmlns="http://www.w3.org/2000/svg">
<path d="M29.5439 14.472L5.85739 14.4192C4.96157 14.4192 4.237 13.6947 4.25018 12.7989V12.3246C4.26335 11.6791 4.65857 11.0995 5.23822 10.8492L5.67296 10.6647C6.02865 10.5198 6.38435 10.3618 6.68735 10.23L16.515 5.61916C17.2923 5.27664 18.1618 5.28982 18.9258 5.61916L30.2159 10.6647C30.8087 10.915 31.1907 11.4947 31.1907 12.1533C31.1907 12.4827 31.1907 12.5091 31.1907 12.5486C31.1907 12.5882 31.1907 12.6539 31.1907 12.8648C31.1907 13.7474 30.4661 14.472 29.5704 14.472H29.5439ZM17.7007 6.68616C17.4768 6.68616 17.2527 6.73883 17.042 6.81787L7.21429 11.4155C6.89812 11.5604 6.52927 11.7054 6.17357 11.8636L5.73883 12.048C5.63344 12.1007 5.5544 12.2061 5.5544 12.3246V12.7989C5.5544 12.9438 5.68613 13.0886 5.85739 13.0886L29.5439 13.1414C29.7152 13.1414 29.847 13.0096 29.847 12.8385C29.847 12.4696 29.847 12.4299 29.847 12.3903C29.847 12.364 29.847 12.2983 29.847 12.127C29.847 12.0085 29.7811 11.903 29.6626 11.8504L18.3858 6.80469C18.1618 6.71247 17.9379 6.65979 17.7007 6.65979V6.68616Z" fill="white"/>
<path d="M18.937 8.91518L16.7238 8.91016L16.7188 11.1233L18.9319 11.1283L18.937 8.91518Z" fill="white"/>
<path d="M8.03613 15.6992L6.71875 15.7007L6.73154 26.1741L8.04892 26.1725L8.03613 15.6992Z" fill="white"/>
<path d="M14.7315 15.7705L13.4141 15.7721L13.4268 26.2453L14.7442 26.2436L14.7315 15.7705Z" fill="white"/>
<path d="M21.9659 18.2002V15.6973H20.6484V19.1358C21.0569 18.7801 21.5048 18.4637 21.9659 18.2002Z" fill="white"/>
<path d="M25.9488 32.5322C21.9571 32.5322 18.7031 29.2914 18.7031 25.2866C18.7031 21.2817 21.9571 18.041 25.9488 18.041C29.9405 18.041 33.1944 21.2949 33.1944 25.2866C33.1944 29.2783 29.9405 32.5322 25.9488 32.5322ZM25.9488 19.3715C22.6817 19.3715 20.0205 22.0327 20.0205 25.2998C20.0205 28.5669 22.6817 31.228 25.9488 31.228C29.2159 31.228 31.877 28.5669 31.877 25.2998C31.877 22.0327 29.2159 19.3715 25.9488 19.3715Z" fill="white"/>
<path d="M24.7369 28.5145C24.5658 28.5145 24.3945 28.4485 24.2627 28.3169L22.1813 26.1432C21.9309 25.8797 21.9442 25.4581 22.1944 25.2079C22.4579 24.9575 22.8795 24.9707 23.1298 25.221L24.7765 26.9467L28.9921 23.2579C29.2688 23.0208 29.6772 23.0472 29.9275 23.3239C30.1646 23.6005 30.1383 24.0088 29.8617 24.2592L25.1717 28.3565C25.0532 28.4618 24.8951 28.5145 24.7369 28.5145Z" fill="white"/>
<path d="M28.6767 17.5412V15.6836H27.3594V17.2118C27.8204 17.2909 28.2551 17.3962 28.6767 17.5412Z" fill="white"/>
<path d="M18.1589 27.501H5.14307C4.77421 27.501 4.48438 27.7908 4.48438 28.1597C4.48438 28.5286 4.77421 28.8184 5.14307 28.8184H18.6463C18.4487 28.3968 18.2774 27.9621 18.1457 27.501H18.1589Z" fill="white"/>
</svg>
