<svg width="38" height="39" viewBox="0 0 38 39" fill="none" xmlns="http://www.w3.org/2000/svg">
<path d="M24.4727 23.335C20.0858 23.335 16.5156 19.7648 16.5156 15.3779C16.5156 10.9911 20.0858 7.4209 24.4727 7.4209C28.8596 7.4209 32.4297 10.9911 32.4297 15.3779C32.4297 19.7648 28.8596 23.335 24.4727 23.335ZM24.4727 8.75147C20.8103 8.75147 17.833 11.7288 17.833 15.3911C17.833 19.0535 20.8103 22.0308 24.4727 22.0308C28.135 22.0308 31.1123 19.0535 31.1123 15.3911C31.1123 11.7288 28.135 8.75147 24.4727 8.75147Z" fill="#959595"/>
<path d="M24.5578 20.3296C21.8045 20.3296 19.5781 18.09 19.5781 15.3498C19.5781 12.6097 21.8176 10.3701 24.5578 10.3701C27.2979 10.3701 29.5375 12.6097 29.5375 15.3498C29.5375 18.09 27.2979 20.3296 24.5578 20.3296ZM24.5578 11.3581C22.3578 11.3581 20.5661 13.1499 20.5661 15.3498C20.5661 17.5499 22.3578 19.3416 24.5578 19.3416C26.7578 19.3416 28.5495 17.5499 28.5495 15.3498C28.5495 13.1499 26.7578 11.3581 24.5578 11.3581Z" fill="#959595"/>
<path d="M8.73602 31.5425C6.61502 31.5425 5.00781 29.8958 5.00781 27.6957V14.1662C5.00781 12.3218 6.29885 10.4248 8.47255 10.4248H14.6774C15.0463 10.4248 15.3361 10.7146 15.3361 11.0835C15.3361 11.4524 15.0463 11.7422 14.6774 11.7422H8.47255C6.89168 11.7422 6.31202 13.2307 6.31202 14.1662V27.6957C6.31202 28.9472 7.15515 30.2251 8.73602 30.2251L23.5302 30.1988C25.559 30.1988 25.9279 29.5665 25.9279 28.3019V25.5352C25.9279 25.1663 26.2177 24.8765 26.5866 24.8765C26.9555 24.8765 27.2453 25.1663 27.2453 25.5352V28.3019C27.2453 31.1737 25.1243 31.5162 23.5302 31.5162L8.73602 31.5425Z" fill="#959595"/>
<path d="M12.0211 15.5097C11.8499 15.5097 11.6786 15.4438 11.5469 15.3121C11.2966 15.0486 11.2966 14.6403 11.5469 14.3768L14.8799 11.1229L11.4151 7.98748C11.1385 7.73717 11.1253 7.32884 11.3624 7.05218C11.6127 6.78871 12.0211 6.76231 12.2978 6.99944L16.2895 10.6091C16.4212 10.7276 16.5002 10.8989 16.5002 11.0833C16.5002 11.2677 16.4343 11.439 16.3026 11.5707L12.4691 15.3121C12.3373 15.4438 12.1793 15.4965 12.008 15.4965L12.0211 15.5097Z" fill="#959595"/>
</svg>
