<svg width="38" height="39" viewBox="0 0 38 39" fill="none" xmlns="http://www.w3.org/2000/svg">
<path d="M27.572 33.0551C23.8361 33.0551 20.7969 30.016 20.7969 26.2801C20.7969 22.5442 23.8361 19.5049 27.572 19.5049C31.3079 19.5049 34.3471 22.5442 34.3471 26.2801C34.3471 30.016 31.3079 33.0551 27.572 33.0551ZM27.572 20.6697C24.6514 20.6697 21.9925 23.3596 21.9925 26.2801C21.9925 29.2007 24.6514 31.7172 27.572 31.7172C30.4925 31.7172 33.1282 29.2007 33.1282 26.2801C33.1282 23.3596 30.4925 20.6697 27.572 20.6697Z" fill="#959595"/>
<path d="M27.5666 30.55C25.2094 30.55 23.2969 28.6376 23.2969 26.2804C23.2969 23.9232 25.2094 22.0107 27.5666 22.0107C29.9238 22.0107 31.8362 23.9232 31.8362 26.2804C31.8362 28.6376 29.9238 30.55 27.5666 30.55ZM27.5666 23.1227C25.8172 23.1227 24.4087 24.5459 24.4087 26.2804C24.4087 28.0149 25.832 29.438 27.5666 29.438C29.3011 29.438 30.7243 28.0149 30.7243 26.2804C30.7243 24.5459 29.3011 23.1227 27.5666 23.1227Z" fill="#959595"/>
<path d="M31.2236 15.5383L7.53707 15.4856C6.64125 15.4856 5.91669 14.761 5.92986 13.8652V13.391C5.94304 12.7454 6.33825 12.1658 6.91791 11.9155L7.35264 11.7311C7.70833 11.5862 8.06403 11.4281 8.36703 11.2964L18.1947 6.68557C18.9719 6.34305 19.8414 6.35622 20.6055 6.68557L31.8954 11.7311C32.4882 11.9814 32.8702 12.561 32.8702 13.2198C32.8702 13.5491 32.8702 13.5754 32.8702 13.615C32.8702 13.6545 32.8702 13.7204 32.8702 13.9311C32.8702 14.8138 32.1458 15.5383 31.2499 15.5383H31.2236ZM19.3804 7.75256C19.1563 7.75256 18.9324 7.80523 18.7217 7.88427L8.89398 12.482C8.5778 12.6268 8.20894 12.7719 7.85325 12.9299L7.41851 13.1143C7.31312 13.1671 7.23408 13.2724 7.23408 13.391V13.8652C7.23408 14.0101 7.36582 14.1551 7.53707 14.1551L31.2236 14.2077C31.3949 14.2077 31.5266 14.0761 31.5266 13.9048C31.5266 13.5359 31.5266 13.4962 31.5266 13.4568C31.5266 13.4304 31.5266 13.3646 31.5266 13.1933C31.5266 13.0748 31.4607 12.9695 31.3421 12.9167L20.0654 7.87108C19.8415 7.77887 19.6174 7.72619 19.3804 7.72619V7.75256Z" fill="#959595"/>
<path d="M20.6166 9.98158L18.4034 9.97656L18.3984 12.1897L20.6116 12.1947L20.6166 9.98158Z" fill="#959595"/>
<path d="M9.72362 16.7646L8.40625 16.7663L8.41905 27.2395L9.73642 27.2379L9.72362 16.7646Z" fill="#959595"/>
<path d="M16.419 16.8359L15.1016 16.8375L15.1144 27.3106L16.4317 27.309L16.419 16.8359Z" fill="#959595"/>
<path d="M23.6532 19.2658V16.7627H22.3359V20.2012C22.7443 19.8455 23.1921 19.5293 23.6532 19.2658Z" fill="#959595"/>
<path d="M30.3565 18.6075V16.75H29.0391V18.2781C29.5002 18.3572 29.9348 18.4626 30.3565 18.6075Z" fill="#959595"/>
<path d="M19.8462 28.5674H6.83056C6.4617 28.5674 6.17188 28.8572 6.17188 29.2261C6.17188 29.5949 6.4617 29.8848 6.83056 29.8848H20.3336C20.1362 29.4631 19.9649 29.0285 19.8331 28.5674H19.8462Z" fill="#959595"/>
</svg>
