<svg width="318" height="290" viewBox="0 0 318 290" fill="none" xmlns="http://www.w3.org/2000/svg">
<rect x="68" y="26" width="174.318" height="195" rx="10.3271" fill="white"/>
<rect x="101" y="105" width="109" height="3" rx="1.5" fill="#D9D9D9"/>
<rect x="110" y="114" width="90" height="3" rx="1.5" fill="#F2F2F2"/>
<path d="M135.579 93.1094L138.055 87.6073H139.061L141.545 93.1094H140.476L138.346 88.1497H138.755L136.632 93.1094H135.579ZM136.719 91.836L136.994 91.0343H139.965L140.24 91.836H136.719ZM144.477 93.1644C144.136 93.1644 143.824 93.0858 143.541 92.9286C143.264 92.7714 143.041 92.5356 142.873 92.2212C142.711 91.9015 142.63 91.4981 142.63 91.0107C142.63 90.5182 142.708 90.1147 142.866 89.8003C143.028 89.4859 143.248 89.2527 143.526 89.1007C143.803 88.9435 144.121 88.8649 144.477 88.8649C144.891 88.8649 145.255 88.954 145.569 89.1322C145.889 89.3104 146.141 89.5593 146.324 89.8789C146.513 90.1985 146.607 90.5758 146.607 91.0107C146.607 91.4457 146.513 91.8256 146.324 92.1504C146.141 92.4701 145.889 92.719 145.569 92.8972C145.255 93.0753 144.891 93.1644 144.477 93.1644ZM142.15 94.6342V88.9121H143.086V89.9025L143.054 91.0186L143.133 92.1347V94.6342H142.15ZM144.367 92.3234C144.603 92.3234 144.812 92.271 144.996 92.1662C145.184 92.0614 145.334 91.9094 145.444 91.7103C145.554 91.5112 145.609 91.278 145.609 91.0107C145.609 90.7383 145.554 90.5051 145.444 90.3112C145.334 90.1121 145.184 89.9601 144.996 89.8553C144.812 89.7505 144.603 89.6981 144.367 89.6981C144.131 89.6981 143.919 89.7505 143.73 89.8553C143.541 89.9601 143.392 90.1121 143.282 90.3112C143.172 90.5051 143.117 90.7383 143.117 91.0107C143.117 91.278 143.172 91.5112 143.282 91.7103C143.392 91.9094 143.541 92.0614 143.73 92.1662C143.919 92.271 144.131 92.3234 144.367 92.3234ZM149.865 93.1644C149.525 93.1644 149.213 93.0858 148.93 92.9286C148.652 92.7714 148.43 92.5356 148.262 92.2212C148.099 91.9015 148.018 91.4981 148.018 91.0107C148.018 90.5182 148.097 90.1147 148.254 89.8003C148.416 89.4859 148.636 89.2527 148.914 89.1007C149.192 88.9435 149.509 88.8649 149.865 88.8649C150.279 88.8649 150.643 88.954 150.958 89.1322C151.277 89.3104 151.529 89.5593 151.712 89.8789C151.901 90.1985 151.995 90.5758 151.995 91.0107C151.995 91.4457 151.901 91.8256 151.712 92.1504C151.529 92.4701 151.277 92.719 150.958 92.8972C150.643 93.0753 150.279 93.1644 149.865 93.1644ZM147.539 94.6342V88.9121H148.474V89.9025L148.443 91.0186L148.521 92.1347V94.6342H147.539ZM149.755 92.3234C149.991 92.3234 150.201 92.271 150.384 92.1662C150.573 92.0614 150.722 91.9094 150.832 91.7103C150.942 91.5112 150.997 91.278 150.997 91.0107C150.997 90.7383 150.942 90.5051 150.832 90.3112C150.722 90.1121 150.573 89.9601 150.384 89.8553C150.201 89.7505 149.991 89.6981 149.755 89.6981C149.519 89.6981 149.307 89.7505 149.119 89.8553C148.93 89.9601 148.781 90.1121 148.671 90.3112C148.561 90.5051 148.505 90.7383 148.505 91.0107C148.505 91.278 148.561 91.5112 148.671 91.7103C148.781 91.9094 148.93 92.0614 149.119 92.1662C149.307 92.271 149.519 92.3234 149.755 92.3234ZM152.927 93.1094V88.9121H153.862V90.0675L153.752 89.7296C153.878 89.4466 154.075 89.2318 154.342 89.085C154.614 88.9383 154.952 88.8649 155.356 88.8649V89.8003C155.314 89.7898 155.275 89.7846 155.238 89.7846C155.201 89.7793 155.165 89.7767 155.128 89.7767C154.756 89.7767 154.46 89.8868 154.24 90.1068C154.02 90.3217 153.91 90.6439 153.91 91.0736V93.1094H152.927ZM158.037 93.1644C157.608 93.1644 157.225 93.0727 156.89 92.8893C156.554 92.7007 156.29 92.4439 156.096 92.119C155.902 91.7941 155.805 91.4247 155.805 91.0107C155.805 90.5915 155.902 90.2221 156.096 89.9025C156.29 89.5776 156.554 89.3235 156.89 89.1401C157.225 88.9566 157.608 88.8649 158.037 88.8649C158.472 88.8649 158.857 88.9566 159.193 89.1401C159.533 89.3235 159.798 89.575 159.987 89.8946C160.181 90.2143 160.278 90.5863 160.278 91.0107C160.278 91.4247 160.181 91.7941 159.987 92.119C159.798 92.4439 159.533 92.7007 159.193 92.8893C158.857 93.0727 158.472 93.1644 158.037 93.1644ZM158.037 92.3234C158.278 92.3234 158.493 92.271 158.682 92.1662C158.871 92.0614 159.017 91.9094 159.122 91.7103C159.232 91.5112 159.287 91.278 159.287 91.0107C159.287 90.7383 159.232 90.5051 159.122 90.3112C159.017 90.1121 158.871 89.9601 158.682 89.8553C158.493 89.7505 158.281 89.6981 158.045 89.6981C157.804 89.6981 157.589 89.7505 157.401 89.8553C157.217 89.9601 157.071 90.1121 156.961 90.3112C156.851 90.5051 156.796 90.7383 156.796 91.0107C156.796 91.278 156.851 91.5112 156.961 91.7103C157.071 91.9094 157.217 92.0614 157.401 92.1662C157.589 92.271 157.802 92.3234 158.037 92.3234ZM162.218 93.1094L160.418 88.9121H161.44L162.988 92.6142H162.485L164.089 88.9121H165.032L163.232 93.1094H162.218ZM167.504 93.1644C167.037 93.1644 166.629 93.0727 166.278 92.8893C165.932 92.7007 165.662 92.4439 165.468 92.119C165.279 91.7941 165.185 91.4247 165.185 91.0107C165.185 90.5915 165.277 90.2221 165.46 89.9025C165.649 89.5776 165.906 89.3235 166.23 89.1401C166.561 88.9566 166.935 88.8649 167.354 88.8649C167.763 88.8649 168.127 88.954 168.447 89.1322C168.767 89.3104 169.018 89.5619 169.201 89.8868C169.385 90.2116 169.477 90.5942 169.477 91.0343C169.477 91.0762 169.474 91.1234 169.469 91.1758C169.469 91.2282 169.466 91.278 169.461 91.3251H165.963V90.6728H168.942L168.557 90.8771C168.562 90.6361 168.512 90.4239 168.408 90.2405C168.303 90.0571 168.159 89.913 167.975 89.8082C167.797 89.7034 167.59 89.651 167.354 89.651C167.113 89.651 166.901 89.7034 166.718 89.8082C166.54 89.913 166.398 90.0597 166.293 90.2483C166.194 90.4317 166.144 90.6492 166.144 90.9007V91.0579C166.144 91.3094 166.202 91.5321 166.317 91.726C166.432 91.9199 166.595 92.0692 166.804 92.174C167.014 92.2788 167.255 92.3312 167.527 92.3312C167.763 92.3312 167.975 92.2945 168.164 92.2212C168.353 92.1478 168.52 92.0325 168.667 91.8753L169.194 92.4806C169.005 92.7007 168.767 92.871 168.478 92.9915C168.195 93.1068 167.871 93.1644 167.504 93.1644ZM172.197 93.1644C171.793 93.1644 171.429 93.0753 171.104 92.8972C170.785 92.7138 170.533 92.4622 170.35 92.1426C170.166 91.8229 170.074 91.4457 170.074 91.0107C170.074 90.5758 170.166 90.1985 170.35 89.8789C170.533 89.5593 170.785 89.3104 171.104 89.1322C171.429 88.954 171.793 88.8649 172.197 88.8649C172.548 88.8649 172.862 88.9435 173.14 89.1007C173.418 89.2527 173.638 89.4859 173.8 89.8003C173.963 90.1147 174.044 90.5182 174.044 91.0107C174.044 91.4981 173.965 91.9015 173.808 92.2212C173.651 92.5356 173.433 92.7714 173.156 92.9286C172.878 93.0858 172.558 93.1644 172.197 93.1644ZM172.315 92.3234C172.55 92.3234 172.76 92.271 172.943 92.1662C173.132 92.0614 173.281 91.9094 173.391 91.7103C173.507 91.5112 173.564 91.278 173.564 91.0107C173.564 90.7383 173.507 90.5051 173.391 90.3112C173.281 90.1121 173.132 89.9601 172.943 89.8553C172.76 89.7505 172.55 89.6981 172.315 89.6981C172.079 89.6981 171.867 89.7505 171.678 89.8553C171.495 89.9601 171.345 90.1121 171.23 90.3112C171.12 90.5051 171.065 90.7383 171.065 91.0107C171.065 91.278 171.12 91.5112 171.23 91.7103C171.345 91.9094 171.495 92.0614 171.678 92.1662C171.867 92.271 172.079 92.3234 172.315 92.3234ZM173.588 93.1094V92.119L173.627 91.0029L173.549 89.8868V87.2772H174.523V93.1094H173.588Z" fill="#565656"/>
<path d="M155.161 37.9297C150.079 37.9297 145.205 39.9484 141.612 43.5418C138.019 47.1349 136 52.0086 136 57.0903C136 62.1719 138.019 67.0455 141.612 70.6388C145.205 74.2322 150.079 76.2509 155.161 76.2509C160.242 76.2509 165.116 74.2322 168.709 70.6388C172.302 67.0456 174.321 62.1719 174.321 57.0903C174.321 53.7271 173.436 50.4228 171.754 47.51C170.072 44.5972 167.654 42.1787 164.741 40.4966C161.828 38.815 158.524 37.9297 155.161 37.9297ZM155.161 73.8555C150.714 73.8555 146.45 72.0892 143.306 68.9451C140.162 65.8008 138.395 61.5362 138.395 57.0903C138.395 52.6444 140.162 48.3798 143.306 45.2354C146.45 42.0914 150.715 40.325 155.161 40.325C159.606 40.325 163.871 42.0913 167.015 45.2354C170.159 48.3797 171.926 52.6444 171.926 57.0903C171.926 60.0333 171.151 62.9242 169.68 65.473C168.208 68.0217 166.092 70.138 163.543 71.6095C160.994 73.081 158.103 73.8557 155.16 73.8557L155.161 73.8555Z" fill="#1D9522"/>
<path d="M163.071 50.536L152.066 61.5409L146.976 56.4635C146.668 56.1996 146.247 56.1095 145.858 56.2247C145.469 56.3397 145.164 56.6442 145.049 57.0333C144.934 57.4228 145.024 57.8438 145.288 58.152L150.366 63.2295C150.815 63.6793 151.424 63.932 152.06 63.932C152.696 63.932 153.305 63.6794 153.754 63.2295L164.759 52.2245C165.023 51.9163 165.113 51.4953 164.998 51.1058C164.883 50.7166 164.579 50.4122 164.19 50.2973C163.8 50.182 163.379 50.2721 163.071 50.536Z" fill="#1D9522"/>
<line x1="82.0156" y1="133.91" x2="228.802" y2="133.91" stroke="#E1E1E1" stroke-width="0.472713" stroke-dasharray="0.95 0.95"/>
<path d="M81.8808 155.48V151.51H82.346L84.9724 154.771H84.7284V151.51H85.2957V155.48H84.8306L82.2042 152.219H82.4481V155.48H81.8808ZM88.2711 155.48V154.845L88.2427 154.726V153.643C88.2427 153.412 88.1747 153.234 88.0385 153.109C87.9062 152.981 87.7057 152.916 87.4372 152.916C87.2595 152.916 87.0855 152.947 86.9153 153.007C86.7452 153.064 86.6015 153.141 86.4842 153.24L86.2573 152.831C86.4124 152.707 86.5977 152.612 86.8132 152.548C87.0326 152.48 87.2614 152.446 87.4996 152.446C87.9118 152.446 88.2295 152.546 88.4526 152.746C88.6757 152.947 88.7873 153.253 88.7873 153.665V155.48H88.2711ZM87.2841 155.515C87.0609 155.515 86.8643 155.477 86.6941 155.401C86.5277 155.325 86.3991 155.221 86.3084 155.089C86.2176 154.953 86.1722 154.8 86.1722 154.63C86.1722 154.467 86.2101 154.319 86.2857 154.187C86.3651 154.055 86.4918 153.949 86.6658 153.869C86.8435 153.79 87.0817 153.75 87.3805 153.75H88.3335V154.142H87.4032C87.1309 154.142 86.9475 154.187 86.853 154.278C86.7584 154.369 86.7111 154.478 86.7111 154.607C86.7111 154.754 86.7698 154.874 86.887 154.964C87.0042 155.051 87.1668 155.095 87.3748 155.095C87.579 155.095 87.7568 155.049 87.908 154.959C88.0631 154.868 88.1747 154.735 88.2427 154.562L88.3505 154.936C88.2787 155.114 88.152 155.255 87.9704 155.361C87.7889 155.463 87.5601 155.515 87.2841 155.515ZM93.556 152.446C93.798 152.446 94.0117 152.493 94.197 152.587C94.3823 152.682 94.526 152.826 94.6281 153.019C94.734 153.211 94.7869 153.455 94.7869 153.75V155.48H94.2423V153.813C94.2423 153.522 94.1743 153.302 94.0381 153.155C93.902 153.007 93.711 152.933 93.4652 152.933C93.2837 152.933 93.1249 152.971 92.9887 153.047C92.8526 153.123 92.7467 153.234 92.671 153.382C92.5992 153.529 92.5633 153.713 92.5633 153.932V155.48H92.0187V153.813C92.0187 153.522 91.9506 153.302 91.8145 153.155C91.6821 153.007 91.4912 152.933 91.2416 152.933C91.0638 152.933 90.9069 152.971 90.7707 153.047C90.6346 153.123 90.5287 153.234 90.4531 153.382C90.3774 153.529 90.3396 153.713 90.3396 153.932V155.48H89.7951V152.474H90.3169V153.274L90.2318 153.07C90.3264 152.873 90.472 152.72 90.6686 152.61C90.8653 152.5 91.0941 152.446 91.355 152.446C91.6424 152.446 91.8901 152.518 92.0981 152.661C92.3061 152.801 92.4423 153.015 92.5065 153.302L92.2853 153.211C92.3761 152.981 92.5349 152.795 92.7618 152.656C92.9887 152.516 93.2534 152.446 93.556 152.446ZM97.1276 155.515C96.8062 155.515 96.5226 155.448 96.2768 155.316C96.0347 155.184 95.8456 155.002 95.7095 154.771C95.5771 154.541 95.511 154.276 95.511 153.977C95.511 153.678 95.5752 153.414 95.7038 153.183C95.8362 152.952 96.0158 152.773 96.2427 152.644C96.4734 152.512 96.7325 152.446 97.0199 152.446C97.3111 152.446 97.5682 152.51 97.7913 152.639C98.0144 152.767 98.1884 152.949 98.3132 153.183C98.4418 153.414 98.5061 153.684 98.5061 153.994C98.5061 154.017 98.5042 154.043 98.5004 154.074C98.5004 154.104 98.4985 154.132 98.4947 154.159H95.9364V153.767H98.2111L97.9899 153.903C97.9937 153.711 97.9539 153.539 97.8707 153.387C97.7875 153.236 97.6722 153.119 97.5247 153.036C97.381 152.949 97.2127 152.905 97.0199 152.905C96.8308 152.905 96.6625 152.949 96.515 153.036C96.3675 153.119 96.2522 153.238 96.169 153.393C96.0858 153.544 96.0442 153.718 96.0442 153.915V154.006C96.0442 154.206 96.0896 154.386 96.1803 154.544C96.2749 154.7 96.4053 154.821 96.5717 154.908C96.7381 154.995 96.9291 155.038 97.1447 155.038C97.3224 155.038 97.4831 155.008 97.6268 154.947C97.7743 154.887 97.9029 154.796 98.0126 154.675L98.3132 155.027C98.1771 155.185 98.0069 155.307 97.8027 155.39C97.6022 155.473 97.3772 155.515 97.1276 155.515Z" fill="#979797"/>
<path d="M82.1122 183.188L83.9104 179.217H84.472L86.2758 183.188H85.6802L84.0749 179.534H84.3018L82.6965 183.188H82.1122ZM82.878 182.195L83.0311 181.741H85.2661L85.4306 182.195H82.878ZM88.0714 183.222C87.7651 183.222 87.4909 183.155 87.2489 183.023C87.0107 182.891 86.8235 182.709 86.6873 182.478C86.5512 182.248 86.4831 181.983 86.4831 181.684C86.4831 181.386 86.5512 181.121 86.6873 180.89C86.8235 180.659 87.0107 180.48 87.2489 180.351C87.4909 180.219 87.7651 180.153 88.0714 180.153C88.3437 180.153 88.5857 180.208 88.7975 180.317C89.0131 180.423 89.1795 180.582 89.2967 180.794L88.8826 181.06C88.7843 180.913 88.6633 180.805 88.5196 180.737C88.3796 180.665 88.2284 180.629 88.0658 180.629C87.8691 180.629 87.6933 180.673 87.5382 180.76C87.3832 180.847 87.2603 180.97 87.1695 181.128C87.0787 181.283 87.0333 181.469 87.0333 181.684C87.0333 181.9 87.0787 182.087 87.1695 182.246C87.2603 182.405 87.3832 182.528 87.5382 182.615C87.6933 182.702 87.8691 182.745 88.0658 182.745C88.2284 182.745 88.3796 182.711 88.5196 182.643C88.6633 182.571 88.7843 182.461 88.8826 182.314L89.2967 182.575C89.1795 182.783 89.0131 182.944 88.7975 183.057C88.5857 183.167 88.3437 183.222 88.0714 183.222ZM91.2678 183.222C90.9615 183.222 90.6873 183.155 90.4453 183.023C90.207 182.891 90.0198 182.709 89.8837 182.478C89.7475 182.248 89.6795 181.983 89.6795 181.684C89.6795 181.386 89.7475 181.121 89.8837 180.89C90.0198 180.659 90.207 180.48 90.4453 180.351C90.6873 180.219 90.9615 180.153 91.2678 180.153C91.5401 180.153 91.7821 180.208 91.9939 180.317C92.2094 180.423 92.3758 180.582 92.4931 180.794L92.079 181.06C91.9806 180.913 91.8596 180.805 91.7159 180.737C91.576 180.665 91.4247 180.629 91.2621 180.629C91.0655 180.629 90.8896 180.673 90.7346 180.76C90.5795 180.847 90.4566 180.97 90.3658 181.128C90.2751 181.283 90.2297 181.469 90.2297 181.684C90.2297 181.9 90.2751 182.087 90.3658 182.246C90.4566 182.405 90.5795 182.528 90.7346 182.615C90.8896 182.702 91.0655 182.745 91.2621 182.745C91.4247 182.745 91.576 182.711 91.7159 182.643C91.8596 182.571 91.9806 182.461 92.079 182.314L92.4931 182.575C92.3758 182.783 92.2094 182.944 91.9939 183.057C91.7821 183.167 91.5401 183.222 91.2678 183.222ZM94.4414 183.222C94.1389 183.222 93.8704 183.155 93.6359 183.023C93.4015 182.891 93.2162 182.709 93.08 182.478C92.9439 182.244 92.8758 181.979 92.8758 181.684C92.8758 181.386 92.9439 181.121 93.08 180.89C93.2162 180.659 93.4015 180.48 93.6359 180.351C93.8704 180.219 94.1389 180.153 94.4414 180.153C94.7402 180.153 95.0068 180.219 95.2413 180.351C95.4795 180.48 95.6648 180.659 95.7972 180.89C95.9333 181.117 96.0014 181.382 96.0014 181.684C96.0014 181.983 95.9333 182.248 95.7972 182.478C95.6648 182.709 95.4795 182.891 95.2413 183.023C95.0068 183.155 94.7402 183.222 94.4414 183.222ZM94.4414 182.745C94.6343 182.745 94.8064 182.702 94.9576 182.615C95.1127 182.528 95.2337 182.405 95.3207 182.246C95.4077 182.083 95.4512 181.896 95.4512 181.684C95.4512 181.469 95.4077 181.283 95.3207 181.128C95.2337 180.97 95.1127 180.847 94.9576 180.76C94.8064 180.673 94.6343 180.629 94.4414 180.629C94.2486 180.629 94.0765 180.673 93.9252 180.76C93.774 180.847 93.653 180.97 93.5622 181.128C93.4714 181.283 93.4261 181.469 93.4261 181.684C93.4261 181.896 93.4714 182.083 93.5622 182.246C93.653 182.405 93.774 182.528 93.9252 182.615C94.0765 182.702 94.2486 182.745 94.4414 182.745ZM98.0195 183.222C97.7623 183.222 97.5354 183.174 97.3388 183.08C97.1459 182.985 96.9947 182.841 96.885 182.649C96.7791 182.452 96.7262 182.206 96.7262 181.911V180.181H97.2707V181.849C97.2707 182.144 97.3407 182.365 97.4806 182.512C97.6243 182.66 97.8247 182.734 98.0819 182.734C98.271 182.734 98.4355 182.696 98.5754 182.62C98.7153 182.541 98.8231 182.427 98.8987 182.28C98.9744 182.129 99.0122 181.947 99.0122 181.735V180.181H99.5568V183.188H99.0406V182.376L99.1256 182.592C99.0273 182.792 98.8798 182.947 98.6832 183.057C98.4865 183.167 98.2653 183.222 98.0195 183.222ZM102.199 180.153C102.445 180.153 102.66 180.2 102.845 180.294C103.035 180.389 103.182 180.533 103.288 180.726C103.394 180.918 103.447 181.162 103.447 181.457V183.188H102.902V181.52C102.902 181.229 102.83 181.009 102.687 180.862C102.547 180.714 102.348 180.641 102.091 180.641C101.898 180.641 101.73 180.678 101.586 180.754C101.442 180.83 101.331 180.941 101.251 181.089C101.176 181.236 101.138 181.42 101.138 181.639V183.188H100.593V180.181H101.115V180.992L101.03 180.777C101.129 180.58 101.28 180.427 101.484 180.317C101.688 180.208 101.927 180.153 102.199 180.153ZM105.487 183.222C105.184 183.222 104.95 183.14 104.784 182.978C104.617 182.815 104.534 182.582 104.534 182.28V179.523H105.079V182.257C105.079 182.42 105.118 182.545 105.198 182.632C105.281 182.719 105.398 182.762 105.549 182.762C105.72 182.762 105.861 182.715 105.975 182.62L106.145 183.012C106.062 183.084 105.962 183.136 105.844 183.17C105.731 183.205 105.612 183.222 105.487 183.222ZM104.023 180.629V180.181H105.941V180.629H104.023ZM108.406 183.188V179.217H108.871L111.498 182.478H111.254V179.217H111.821V183.188H111.356L108.73 179.926H108.973V183.188H108.406ZM114.195 183.222C113.938 183.222 113.711 183.174 113.514 183.08C113.322 182.985 113.17 182.841 113.061 182.649C112.955 182.452 112.902 182.206 112.902 181.911V180.181H113.446V181.849C113.446 182.144 113.516 182.365 113.656 182.512C113.8 182.66 114 182.734 114.258 182.734C114.447 182.734 114.611 182.696 114.751 182.62C114.891 182.541 114.999 182.427 115.074 182.28C115.15 182.129 115.188 181.947 115.188 181.735V180.181H115.732V183.188H115.216V182.376L115.301 182.592C115.203 182.792 115.055 182.947 114.859 183.057C114.662 183.167 114.441 183.222 114.195 183.222ZM120.53 180.153C120.772 180.153 120.986 180.2 121.171 180.294C121.356 180.389 121.5 180.533 121.602 180.726C121.708 180.918 121.761 181.162 121.761 181.457V183.188H121.216V181.52C121.216 181.229 121.148 181.009 121.012 180.862C120.876 180.714 120.685 180.641 120.439 180.641C120.258 180.641 120.099 180.678 119.963 180.754C119.827 180.83 119.721 180.941 119.645 181.089C119.573 181.236 119.537 181.42 119.537 181.639V183.188H118.993V181.52C118.993 181.229 118.925 181.009 118.789 180.862C118.656 180.714 118.465 180.641 118.216 180.641C118.038 180.641 117.881 180.678 117.745 180.754C117.609 180.83 117.503 180.941 117.427 181.089C117.352 181.236 117.314 181.42 117.314 181.639V183.188H116.769V180.181H117.291V180.981L117.206 180.777C117.3 180.58 117.446 180.427 117.643 180.317C117.839 180.208 118.068 180.153 118.329 180.153C118.616 180.153 118.864 180.225 119.072 180.368C119.28 180.508 119.416 180.722 119.481 181.009L119.259 180.918C119.35 180.688 119.509 180.502 119.736 180.363C119.963 180.223 120.227 180.153 120.53 180.153ZM124.357 183.222C124.1 183.222 123.867 183.165 123.659 183.051C123.455 182.934 123.292 182.762 123.171 182.535C123.054 182.308 122.996 182.025 122.996 181.684C122.996 181.344 123.056 181.06 123.177 180.833C123.302 180.606 123.466 180.436 123.671 180.323C123.879 180.209 124.107 180.153 124.357 180.153C124.652 180.153 124.913 180.217 125.14 180.346C125.367 180.474 125.546 180.654 125.679 180.884C125.811 181.111 125.877 181.378 125.877 181.684C125.877 181.991 125.811 182.259 125.679 182.49C125.546 182.72 125.367 182.9 125.14 183.029C124.913 183.157 124.652 183.222 124.357 183.222ZM122.763 183.188V178.978H123.308V180.981L123.251 181.679L123.285 182.376V183.188H122.763ZM124.312 182.745C124.504 182.745 124.677 182.702 124.828 182.615C124.983 182.528 125.104 182.405 125.191 182.246C125.282 182.083 125.327 181.896 125.327 181.684C125.327 181.469 125.282 181.283 125.191 181.128C125.104 180.97 124.983 180.847 124.828 180.76C124.677 180.673 124.504 180.629 124.312 180.629C124.123 180.629 123.95 180.673 123.795 180.76C123.644 180.847 123.523 180.97 123.432 181.128C123.345 181.283 123.302 181.469 123.302 181.684C123.302 181.896 123.345 182.083 123.432 182.246C123.523 182.405 123.644 182.528 123.795 182.615C123.95 182.702 124.123 182.745 124.312 182.745ZM127.968 183.222C127.647 183.222 127.363 183.155 127.117 183.023C126.875 182.891 126.686 182.709 126.55 182.478C126.418 182.248 126.352 181.983 126.352 181.684C126.352 181.386 126.416 181.121 126.545 180.89C126.677 180.659 126.857 180.48 127.083 180.351C127.314 180.219 127.573 180.153 127.861 180.153C128.152 180.153 128.409 180.217 128.632 180.346C128.855 180.474 129.029 180.656 129.154 180.89C129.282 181.121 129.347 181.391 129.347 181.701C129.347 181.724 129.345 181.75 129.341 181.781C129.341 181.811 129.339 181.839 129.335 181.866H126.777V181.474H129.052L128.831 181.611C128.834 181.418 128.795 181.246 128.711 181.094C128.628 180.943 128.513 180.826 128.365 180.743C128.222 180.656 128.053 180.612 127.861 180.612C127.671 180.612 127.503 180.656 127.356 180.743C127.208 180.826 127.093 180.945 127.01 181.1C126.926 181.251 126.885 181.425 126.885 181.622V181.713C126.885 181.913 126.93 182.093 127.021 182.252C127.116 182.407 127.246 182.528 127.412 182.615C127.579 182.702 127.77 182.745 127.985 182.745C128.163 182.745 128.324 182.715 128.468 182.654C128.615 182.594 128.744 182.503 128.853 182.382L129.154 182.734C129.018 182.893 128.848 183.014 128.643 183.097C128.443 183.18 128.218 183.222 127.968 183.222ZM130.103 183.188V180.181H130.625V180.998L130.574 180.794C130.657 180.586 130.797 180.427 130.994 180.317C131.19 180.208 131.432 180.153 131.72 180.153V180.68C131.697 180.676 131.674 180.675 131.652 180.675C131.633 180.675 131.614 180.675 131.595 180.675C131.304 180.675 131.073 180.762 130.903 180.935C130.733 181.109 130.648 181.361 130.648 181.69V183.188H130.103Z" fill="#979797"/>
<path d="M186.68 183.422V179.451H187.247V183.422H186.68ZM188.946 181.329H190.994V181.817H188.946V181.329ZM189.003 183.422H188.436V179.451H191.238V179.945H189.003V183.422ZM193.188 183.467C192.886 183.467 192.596 183.422 192.32 183.331C192.044 183.237 191.827 183.116 191.668 182.968L191.878 182.526C192.029 182.658 192.222 182.768 192.456 182.855C192.691 182.942 192.935 182.985 193.188 182.985C193.419 182.985 193.606 182.959 193.75 182.906C193.894 182.853 193.999 182.781 194.068 182.69C194.136 182.596 194.17 182.49 194.17 182.372C194.17 182.236 194.124 182.127 194.033 182.043C193.946 181.96 193.831 181.894 193.687 181.845C193.548 181.792 193.392 181.747 193.222 181.709C193.052 181.671 192.88 181.627 192.706 181.578C192.536 181.525 192.379 181.459 192.235 181.38C192.095 181.3 191.982 181.194 191.895 181.062C191.808 180.926 191.764 180.752 191.764 180.54C191.764 180.336 191.817 180.149 191.923 179.979C192.033 179.805 192.199 179.667 192.422 179.565C192.649 179.459 192.937 179.406 193.285 179.406C193.515 179.406 193.744 179.436 193.971 179.496C194.198 179.557 194.395 179.644 194.561 179.757L194.374 180.211C194.204 180.098 194.024 180.016 193.835 179.967C193.646 179.914 193.462 179.888 193.285 179.888C193.062 179.888 192.878 179.916 192.734 179.973C192.591 180.03 192.485 180.105 192.417 180.2C192.352 180.294 192.32 180.4 192.32 180.518C192.32 180.657 192.364 180.769 192.451 180.852C192.542 180.935 192.657 181.002 192.797 181.051C192.941 181.1 193.097 181.145 193.268 181.187C193.438 181.225 193.608 181.268 193.778 181.317C193.952 181.367 194.109 181.431 194.249 181.51C194.393 181.59 194.508 181.696 194.595 181.828C194.682 181.96 194.726 182.13 194.726 182.338C194.726 182.539 194.671 182.726 194.561 182.9C194.451 183.07 194.281 183.208 194.05 183.314C193.824 183.416 193.536 183.467 193.188 183.467ZM197.33 183.467C197.027 183.467 196.747 183.418 196.49 183.32C196.237 183.218 196.016 183.076 195.827 182.894C195.641 182.709 195.496 182.493 195.39 182.248C195.284 182.002 195.231 181.731 195.231 181.436C195.231 181.142 195.284 180.871 195.39 180.625C195.496 180.379 195.643 180.166 195.832 179.984C196.021 179.799 196.243 179.657 196.496 179.559C196.753 179.457 197.033 179.406 197.335 179.406C197.642 179.406 197.923 179.459 198.181 179.565C198.442 179.667 198.663 179.82 198.844 180.024L198.476 180.381C198.324 180.223 198.154 180.105 197.965 180.03C197.776 179.95 197.574 179.911 197.358 179.911C197.135 179.911 196.927 179.948 196.734 180.024C196.545 180.1 196.381 180.206 196.241 180.342C196.101 180.478 195.991 180.64 195.912 180.83C195.836 181.015 195.798 181.217 195.798 181.436C195.798 181.656 195.836 181.86 195.912 182.049C195.991 182.234 196.101 182.395 196.241 182.531C196.381 182.667 196.545 182.773 196.734 182.849C196.927 182.925 197.135 182.962 197.358 182.962C197.574 182.962 197.776 182.925 197.965 182.849C198.154 182.77 198.324 182.649 198.476 182.486L198.844 182.843C198.663 183.047 198.442 183.203 198.181 183.308C197.923 183.414 197.64 183.467 197.33 183.467ZM202.952 183.467C202.65 183.467 202.37 183.418 202.113 183.32C201.86 183.218 201.638 183.076 201.449 182.894C201.264 182.709 201.118 182.493 201.012 182.248C200.907 182.002 200.854 181.731 200.854 181.436C200.854 181.142 200.907 180.871 201.012 180.625C201.118 180.379 201.266 180.166 201.455 179.984C201.644 179.799 201.865 179.657 202.119 179.559C202.376 179.457 202.656 179.406 202.958 179.406C203.264 179.406 203.546 179.459 203.803 179.565C204.064 179.667 204.286 179.82 204.467 180.024L204.098 180.381C203.947 180.223 203.777 180.105 203.588 180.03C203.399 179.95 203.196 179.911 202.981 179.911C202.758 179.911 202.55 179.948 202.357 180.024C202.168 180.1 202.003 180.206 201.863 180.342C201.723 180.478 201.614 180.64 201.534 180.83C201.459 181.015 201.421 181.217 201.421 181.436C201.421 181.656 201.459 181.86 201.534 182.049C201.614 182.234 201.723 182.395 201.863 182.531C202.003 182.667 202.168 182.773 202.357 182.849C202.55 182.925 202.758 182.962 202.981 182.962C203.196 182.962 203.399 182.925 203.588 182.849C203.777 182.77 203.947 182.649 204.098 182.486L204.467 182.843C204.286 183.047 204.064 183.203 203.803 183.308C203.546 183.414 203.263 183.467 202.952 183.467ZM206.357 183.456C206.055 183.456 205.786 183.39 205.552 183.257C205.317 183.125 205.132 182.943 204.996 182.713C204.86 182.478 204.791 182.214 204.791 181.919C204.791 181.62 204.86 181.355 204.996 181.124C205.132 180.894 205.317 180.714 205.552 180.586C205.786 180.453 206.055 180.387 206.357 180.387C206.656 180.387 206.922 180.453 207.157 180.586C207.395 180.714 207.58 180.894 207.713 181.124C207.849 181.351 207.917 181.616 207.917 181.919C207.917 182.217 207.849 182.482 207.713 182.713C207.58 182.943 207.395 183.125 207.157 183.257C206.922 183.39 206.656 183.456 206.357 183.456ZM206.357 182.979C206.55 182.979 206.722 182.936 206.873 182.849C207.028 182.762 207.149 182.639 207.236 182.48C207.323 182.318 207.367 182.13 207.367 181.919C207.367 181.703 207.323 181.518 207.236 181.363C207.149 181.204 207.028 181.081 206.873 180.994C206.722 180.907 206.55 180.864 206.357 180.864C206.164 180.864 205.992 180.907 205.841 180.994C205.69 181.081 205.569 181.204 205.478 181.363C205.387 181.518 205.342 181.703 205.342 181.919C205.342 182.13 205.387 182.318 205.478 182.48C205.569 182.639 205.69 182.762 205.841 182.849C205.992 182.936 206.164 182.979 206.357 182.979ZM209.912 183.456C209.621 183.456 209.36 183.392 209.13 183.263C208.903 183.134 208.723 182.955 208.591 182.724C208.458 182.493 208.392 182.225 208.392 181.919C208.392 181.612 208.458 181.346 208.591 181.119C208.723 180.888 208.903 180.709 209.13 180.58C209.36 180.451 209.621 180.387 209.912 180.387C210.166 180.387 210.395 180.444 210.599 180.557C210.803 180.671 210.966 180.841 211.087 181.068C211.211 181.295 211.274 181.578 211.274 181.919C211.274 182.259 211.213 182.543 211.092 182.77C210.975 182.996 210.814 183.169 210.61 183.286C210.406 183.399 210.173 183.456 209.912 183.456ZM209.958 182.979C210.147 182.979 210.317 182.936 210.468 182.849C210.623 182.762 210.744 182.639 210.831 182.48C210.922 182.318 210.968 182.13 210.968 181.919C210.968 181.703 210.922 181.518 210.831 181.363C210.744 181.204 210.623 181.081 210.468 180.994C210.317 180.907 210.147 180.864 209.958 180.864C209.765 180.864 209.593 180.907 209.442 180.994C209.29 181.081 209.169 181.204 209.079 181.363C208.988 181.518 208.942 181.703 208.942 181.919C208.942 182.13 208.988 182.318 209.079 182.48C209.169 182.639 209.29 182.762 209.442 182.849C209.593 182.936 209.765 182.979 209.958 182.979ZM210.985 183.422V182.611L211.019 181.913L210.962 181.215V179.213H211.506V183.422H210.985ZM213.876 183.456C213.554 183.456 213.27 183.39 213.025 183.257C212.783 183.125 212.594 182.943 212.457 182.713C212.325 182.482 212.259 182.217 212.259 181.919C212.259 181.62 212.323 181.355 212.452 181.124C212.584 180.894 212.764 180.714 212.991 180.586C213.221 180.453 213.48 180.387 213.768 180.387C214.059 180.387 214.316 180.451 214.539 180.58C214.762 180.709 214.936 180.89 215.061 181.124C215.19 181.355 215.254 181.626 215.254 181.936C215.254 181.958 215.252 181.985 215.248 182.015C215.248 182.045 215.246 182.074 215.243 182.1H212.684V181.709H214.959L214.738 181.845C214.742 181.652 214.702 181.48 214.619 181.329C214.535 181.177 214.42 181.06 214.273 180.977C214.129 180.89 213.961 180.847 213.768 180.847C213.579 180.847 213.41 180.89 213.263 180.977C213.115 181.06 213 181.179 212.917 181.334C212.834 181.486 212.792 181.66 212.792 181.856V181.947C212.792 182.147 212.837 182.327 212.928 182.486C213.023 182.641 213.153 182.762 213.32 182.849C213.486 182.936 213.677 182.979 213.893 182.979C214.07 182.979 214.231 182.949 214.375 182.889C214.522 182.828 214.651 182.737 214.76 182.616L215.061 182.968C214.925 183.127 214.755 183.248 214.551 183.331C214.35 183.414 214.125 183.456 213.876 183.456Z" fill="#979797"/>
<path d="M82.975 165.455H82.1844L83.9608 160.519H84.8213L86.5978 165.455H85.8072L84.4116 161.415H84.373L82.975 165.455ZM83.1075 163.522H85.6722V164.149H83.1075V163.522ZM87.2528 165.455V161.753H87.9494V162.341H87.988C88.0555 162.142 88.1744 161.985 88.3447 161.871C88.5167 161.755 88.7111 161.697 88.928 161.697C88.973 161.697 89.0261 161.699 89.0871 161.702C89.1498 161.705 89.1988 161.709 89.2342 161.714V162.404C89.2052 162.395 89.1538 162.387 89.0799 162.377C89.006 162.366 88.9321 162.36 88.8581 162.36C88.6878 162.36 88.5359 162.396 88.4026 162.469C88.2708 162.539 88.1664 162.638 88.0892 162.765C88.0121 162.89 87.9735 163.033 87.9735 163.194V165.455H87.2528ZM91.2848 165.53C90.9265 165.53 90.6179 165.449 90.3592 165.286C90.1021 165.122 89.9045 164.897 89.7663 164.609C89.6281 164.321 89.559 163.992 89.559 163.621C89.559 163.245 89.6297 162.913 89.7711 162.625C89.9125 162.336 90.1117 162.11 90.3689 161.948C90.626 161.786 90.9289 161.705 91.2776 161.705C91.5588 161.705 91.8095 161.757 92.0296 161.861C92.2498 161.964 92.4273 162.109 92.5623 162.295C92.6989 162.481 92.7801 162.699 92.8058 162.948H92.1043C92.0658 162.775 91.9774 162.625 91.8392 162.5C91.7026 162.375 91.5194 162.312 91.2896 162.312C91.0888 162.312 90.9128 162.365 90.7617 162.471C90.6123 162.575 90.4958 162.725 90.4122 162.919C90.3287 163.112 90.2869 163.34 90.2869 163.604C90.2869 163.874 90.3279 164.107 90.4098 164.303C90.4918 164.499 90.6075 164.651 90.7569 164.758C90.908 164.866 91.0855 164.92 91.2896 164.92C91.4262 164.92 91.5499 164.895 91.6608 164.845C91.7733 164.794 91.8673 164.721 91.9428 164.626C92.02 164.531 92.0738 164.417 92.1043 164.284H92.8058C92.7801 164.523 92.7021 164.737 92.572 164.925C92.4418 165.113 92.2674 165.261 92.0489 165.368C91.832 165.476 91.5773 165.53 91.2848 165.53ZM94.2972 163.257V165.455H93.5765V160.519H94.2876V162.355H94.3334C94.4201 162.156 94.5527 161.998 94.7311 161.88C94.9094 161.763 95.1424 161.705 95.4301 161.705C95.684 161.705 95.9057 161.757 96.0954 161.861C96.2866 161.966 96.4344 162.121 96.5389 162.329C96.6449 162.534 96.698 162.792 96.698 163.1V165.455H95.9772V163.187C95.9772 162.915 95.9073 162.705 95.7675 162.555C95.6277 162.404 95.4333 162.329 95.1842 162.329C95.0139 162.329 94.8612 162.365 94.7262 162.437C94.5929 162.51 94.4876 162.616 94.4105 162.755C94.335 162.894 94.2972 163.061 94.2972 163.257ZM98.7371 165.537C98.5025 165.537 98.2904 165.494 98.1008 165.407C97.9112 165.318 97.7609 165.191 97.6501 165.024C97.5408 164.856 97.4862 164.652 97.4862 164.409C97.4862 164.2 97.5263 164.028 97.6067 163.893C97.687 163.758 97.7955 163.651 97.9321 163.573C98.0687 163.494 98.2213 163.434 98.3901 163.394C98.5588 163.354 98.7307 163.323 98.9059 163.303C99.1276 163.277 99.3076 163.256 99.4458 163.24C99.584 163.222 99.6844 163.194 99.7471 163.156C99.8098 163.117 99.8411 163.054 99.8411 162.968V162.951C99.8411 162.74 99.7817 162.577 99.6627 162.461C99.5454 162.346 99.3703 162.288 99.1373 162.288C98.8946 162.288 98.7034 162.342 98.5636 162.449C98.4254 162.555 98.3298 162.673 98.2768 162.804L97.5994 162.649C97.6798 162.424 97.7971 162.243 97.9514 162.105C98.1072 161.965 98.2864 161.864 98.4889 161.801C98.6914 161.737 98.9043 161.705 99.1276 161.705C99.2755 161.705 99.4321 161.722 99.5977 161.758C99.7648 161.791 99.9207 161.854 100.065 161.946C100.212 162.037 100.331 162.168 100.424 162.338C100.518 162.507 100.564 162.727 100.564 162.996V165.455H99.8604V164.949H99.8315C99.7849 165.042 99.715 165.134 99.6218 165.224C99.5286 165.314 99.4088 165.388 99.2626 165.448C99.1164 165.507 98.9412 165.537 98.7371 165.537ZM98.8938 164.959C99.0931 164.959 99.2634 164.919 99.4048 164.84C99.5478 164.762 99.6563 164.659 99.7302 164.532C99.8058 164.403 99.8435 164.266 99.8435 164.12V163.642C99.8178 163.668 99.768 163.692 99.6941 163.715C99.6218 163.736 99.539 163.754 99.4458 163.77C99.3526 163.785 99.2618 163.798 99.1734 163.811C99.0851 163.822 99.0111 163.832 98.9517 163.84C98.8119 163.858 98.6841 163.888 98.5684 163.929C98.4543 163.971 98.3627 164.031 98.2936 164.11C98.2261 164.187 98.1924 164.29 98.1924 164.419C98.1924 164.597 98.2583 164.732 98.3901 164.824C98.5218 164.914 98.6897 164.959 98.8938 164.959ZM102.245 163.257V165.455H101.524V161.753H102.216V162.355H102.262C102.347 162.159 102.48 162.002 102.662 161.883C102.845 161.764 103.076 161.705 103.354 161.705C103.606 161.705 103.827 161.758 104.017 161.864C104.206 161.968 104.353 162.124 104.458 162.331C104.562 162.538 104.614 162.795 104.614 163.1V165.455H103.894V163.187C103.894 162.919 103.824 162.709 103.684 162.558C103.544 162.405 103.352 162.329 103.108 162.329C102.941 162.329 102.792 162.365 102.662 162.437C102.533 162.51 102.431 162.616 102.356 162.755C102.282 162.894 102.245 163.061 102.245 163.257ZM106.658 165.537C106.424 165.537 106.212 165.494 106.022 165.407C105.832 165.318 105.682 165.191 105.571 165.024C105.462 164.856 105.407 164.652 105.407 164.409C105.407 164.2 105.447 164.028 105.528 163.893C105.608 163.758 105.717 163.651 105.853 163.573C105.99 163.494 106.142 163.434 106.311 163.394C106.48 163.354 106.652 163.323 106.827 163.303C107.049 163.277 107.229 163.256 107.367 163.24C107.505 163.222 107.606 163.194 107.668 163.156C107.731 163.117 107.762 163.054 107.762 162.968V162.951C107.762 162.74 107.703 162.577 107.584 162.461C107.467 162.346 107.291 162.288 107.058 162.288C106.816 162.288 106.625 162.342 106.485 162.449C106.347 162.555 106.251 162.673 106.198 162.804L105.521 162.649C105.601 162.424 105.718 162.243 105.873 162.105C106.028 161.965 106.208 161.864 106.41 161.801C106.613 161.737 106.825 161.705 107.049 161.705C107.197 161.705 107.353 161.722 107.519 161.758C107.686 161.791 107.842 161.854 107.986 161.946C108.133 162.037 108.252 162.168 108.346 162.338C108.439 162.507 108.485 162.727 108.485 162.996V165.455H107.782V164.949H107.753C107.706 165.042 107.636 165.134 107.543 165.224C107.45 165.314 107.33 165.388 107.184 165.448C107.038 165.507 106.862 165.537 106.658 165.537ZM106.815 164.959C107.014 164.959 107.185 164.919 107.326 164.84C107.469 164.762 107.577 164.659 107.651 164.532C107.727 164.403 107.765 164.266 107.765 164.12V163.642C107.739 163.668 107.689 163.692 107.615 163.715C107.543 163.736 107.46 163.754 107.367 163.77C107.274 163.785 107.183 163.798 107.095 163.811C107.006 163.822 106.932 163.832 106.873 163.84C106.733 163.858 106.605 163.888 106.49 163.929C106.375 163.971 106.284 164.031 106.215 164.11C106.147 164.187 106.114 164.29 106.114 164.419C106.114 164.597 106.179 164.732 106.311 164.824C106.443 164.914 106.611 164.959 106.815 164.959ZM113.992 161.815C113.966 161.587 113.86 161.41 113.674 161.285C113.487 161.158 113.253 161.095 112.97 161.095C112.767 161.095 112.592 161.127 112.444 161.191C112.297 161.254 112.182 161.341 112.1 161.451C112.019 161.561 111.979 161.685 111.979 161.825C111.979 161.942 112.007 162.044 112.061 162.129C112.117 162.214 112.191 162.285 112.281 162.343C112.372 162.399 112.47 162.447 112.575 162.485C112.679 162.522 112.78 162.553 112.876 162.577L113.358 162.702C113.515 162.741 113.677 162.793 113.843 162.859C114.008 162.925 114.161 163.012 114.303 163.119C114.444 163.227 114.558 163.36 114.645 163.52C114.734 163.679 114.778 163.869 114.778 164.091C114.778 164.37 114.705 164.619 114.561 164.836C114.418 165.053 114.21 165.224 113.937 165.349C113.665 165.474 113.336 165.537 112.951 165.537C112.581 165.537 112.261 165.478 111.991 165.361C111.721 165.244 111.51 165.077 111.357 164.862C111.205 164.645 111.12 164.388 111.104 164.091H111.852C111.866 164.269 111.924 164.418 112.025 164.537C112.128 164.654 112.259 164.742 112.418 164.799C112.579 164.856 112.755 164.884 112.946 164.884C113.156 164.884 113.344 164.851 113.507 164.785C113.673 164.717 113.803 164.624 113.898 164.505C113.993 164.385 114.04 164.244 114.04 164.084C114.04 163.937 113.998 163.818 113.915 163.724C113.833 163.631 113.721 163.554 113.58 163.493C113.44 163.432 113.282 163.378 113.105 163.332L112.522 163.172C112.126 163.065 111.813 162.906 111.582 162.698C111.352 162.489 111.237 162.212 111.237 161.868C111.237 161.584 111.314 161.336 111.468 161.124C111.623 160.911 111.831 160.747 112.095 160.629C112.359 160.511 112.656 160.451 112.987 160.451C113.321 160.451 113.616 160.51 113.871 160.627C114.129 160.744 114.331 160.906 114.479 161.112C114.627 161.316 114.704 161.55 114.71 161.815H113.992ZM116.331 163.257V165.455H115.61V160.519H116.321V162.355H116.367C116.454 162.156 116.586 161.998 116.765 161.88C116.943 161.763 117.176 161.705 117.464 161.705C117.717 161.705 117.939 161.757 118.129 161.861C118.32 161.966 118.468 162.121 118.572 162.329C118.678 162.534 118.731 162.792 118.731 163.1V165.455H118.011V163.187C118.011 162.915 117.941 162.705 117.801 162.555C117.661 162.404 117.467 162.329 117.218 162.329C117.047 162.329 116.895 162.365 116.76 162.437C116.626 162.51 116.521 162.616 116.444 162.755C116.368 162.894 116.331 163.061 116.331 163.257ZM122.038 163.92V161.753H122.762V165.455H122.053V164.814H122.014C121.929 165.012 121.793 165.176 121.605 165.308C121.418 165.438 121.186 165.503 120.908 165.503C120.67 165.503 120.46 165.451 120.276 165.347C120.095 165.241 119.952 165.084 119.847 164.877C119.745 164.669 119.693 164.413 119.693 164.108V161.753H120.414V164.021C120.414 164.273 120.484 164.474 120.624 164.623C120.763 164.773 120.945 164.848 121.168 164.848C121.303 164.848 121.437 164.814 121.571 164.746C121.706 164.679 121.818 164.577 121.906 164.44C121.996 164.304 122.04 164.13 122.038 163.92ZM124.393 164.199L124.388 163.319H124.513L125.988 161.753H126.851L125.169 163.536H125.056L124.393 164.199ZM123.73 165.455V160.519H124.451V165.455H123.73ZM126.068 165.455L124.742 163.695L125.239 163.192L126.953 165.455H126.068ZM128.229 160.519V165.455H127.508V160.519H128.229ZM130.276 165.537C130.041 165.537 129.829 165.494 129.64 165.407C129.45 165.318 129.3 165.191 129.189 165.024C129.08 164.856 129.025 164.652 129.025 164.409C129.025 164.2 129.065 164.028 129.146 163.893C129.226 163.758 129.334 163.651 129.471 163.573C129.608 163.494 129.76 163.434 129.929 163.394C130.098 163.354 130.27 163.323 130.445 163.303C130.666 163.277 130.846 163.256 130.985 163.24C131.123 163.222 131.223 163.194 131.286 163.156C131.349 163.117 131.38 163.054 131.38 162.968V162.951C131.38 162.74 131.32 162.577 131.202 162.461C131.084 162.346 130.909 162.288 130.676 162.288C130.433 162.288 130.242 162.342 130.102 162.449C129.964 162.555 129.869 162.673 129.816 162.804L129.138 162.649C129.219 162.424 129.336 162.243 129.49 162.105C129.646 161.965 129.825 161.864 130.028 161.801C130.23 161.737 130.443 161.705 130.666 161.705C130.814 161.705 130.971 161.722 131.136 161.758C131.304 161.791 131.459 161.854 131.604 161.946C131.75 162.037 131.87 162.168 131.963 162.338C132.056 162.507 132.103 162.727 132.103 162.996V165.455H131.399V164.949H131.37C131.324 165.042 131.254 165.134 131.161 165.224C131.067 165.314 130.948 165.388 130.801 165.448C130.655 165.507 130.48 165.537 130.276 165.537ZM130.433 164.959C130.632 164.959 130.802 164.919 130.944 164.84C131.087 164.762 131.195 164.659 131.269 164.532C131.345 164.403 131.382 164.266 131.382 164.12V163.642C131.357 163.668 131.307 163.692 131.233 163.715C131.161 163.736 131.078 163.754 130.985 163.77C130.891 163.785 130.801 163.798 130.712 163.811C130.624 163.822 130.55 163.832 130.491 163.84C130.351 163.858 130.223 163.888 130.107 163.929C129.993 163.971 129.902 164.031 129.832 164.11C129.765 164.187 129.731 164.29 129.731 164.419C129.731 164.597 129.797 164.732 129.929 164.824C130.061 164.914 130.229 164.959 130.433 164.959Z" fill="#1C1C1C"/>
<path d="M83.0762 188.228L84.2573 190.158H84.2959L85.477 188.228H86.3399L84.802 190.696L86.3495 193.164H85.4818L84.2959 191.26H84.2573L83.0714 193.164H82.2036L83.7776 190.696L82.2133 188.228H83.0762ZM87.5969 188.228L88.778 190.158H88.8166L89.9977 188.228H90.8606L89.3227 190.696L90.8702 193.164H90.0025L88.8166 191.26H88.778L87.5921 193.164H86.7243L88.2983 190.696L86.734 188.228H87.5969ZM92.1176 188.228L93.2987 190.158H93.3373L94.5184 188.228H95.3813L93.8434 190.696L95.3909 193.164H94.5232L93.3373 191.26H93.2987L92.1128 193.164H91.245L92.819 190.696L91.2547 188.228H92.1176ZM96.6383 188.228L97.8194 190.158H97.858L99.0391 188.228H99.902L98.3641 190.696L99.9116 193.164H99.0439L97.858 191.26H97.8194L96.6335 193.164H95.7657L97.3397 190.696L95.7754 188.228H96.6383ZM101.159 188.228L102.34 190.158H102.379L103.56 188.228H104.423L102.885 190.696L104.432 193.164H103.565L102.379 191.26H102.34L101.154 193.164H100.286L101.86 190.696L100.296 188.228H101.159ZM105.68 188.228L106.861 190.158H106.899L108.08 188.228H108.943L107.406 190.696L108.953 193.164H108.085L106.899 191.26H106.861L105.675 193.164H104.807L106.381 190.696L104.817 188.228H105.68ZM110.2 188.228L111.381 190.158H111.42L112.601 188.228H113.464L111.926 190.696L113.474 193.164H112.606L111.42 191.26H111.381L110.196 193.164H109.328L110.902 190.696L109.337 188.228H110.2ZM114.721 188.228L115.902 190.158H115.941L117.122 188.228H117.985L116.447 190.696L117.994 193.164H117.127L115.941 191.26H115.902L114.716 193.164H113.849L115.423 190.696L113.858 188.228H114.721ZM120.379 193.232C120.159 193.228 119.942 193.188 119.729 193.111C119.517 193.034 119.324 192.905 119.15 192.725C118.977 192.545 118.838 192.304 118.733 192C118.63 191.696 118.579 191.317 118.579 190.862C118.579 190.431 118.622 190.049 118.707 189.715C118.793 189.381 118.918 189.099 119.08 188.869C119.243 188.637 119.439 188.461 119.668 188.341C119.898 188.22 120.156 188.16 120.442 188.16C120.736 188.16 120.997 188.218 121.226 188.334C121.454 188.449 121.639 188.609 121.78 188.813C121.923 189.017 122.014 189.25 122.052 189.51H121.317C121.267 189.304 121.169 189.136 121.021 189.006C120.873 188.876 120.68 188.811 120.442 188.811C120.081 188.811 119.799 188.968 119.596 189.283C119.395 189.598 119.294 190.036 119.292 190.597H119.329C119.414 190.457 119.518 190.338 119.642 190.24C119.767 190.141 119.907 190.064 120.061 190.011C120.217 189.957 120.381 189.929 120.553 189.929C120.839 189.929 121.098 189.999 121.329 190.139C121.562 190.277 121.748 190.468 121.886 190.713C122.024 190.957 122.093 191.237 122.093 191.552C122.093 191.866 122.022 192.152 121.879 192.407C121.737 192.663 121.538 192.865 121.281 193.015C121.024 193.162 120.723 193.235 120.379 193.232ZM120.377 192.605C120.567 192.605 120.736 192.558 120.886 192.465C121.035 192.372 121.153 192.247 121.24 192.089C121.327 191.932 121.37 191.756 121.37 191.561C121.37 191.372 121.328 191.199 121.242 191.043C121.159 190.887 121.043 190.763 120.895 190.672C120.749 190.58 120.582 190.534 120.394 190.534C120.251 190.534 120.118 190.562 119.996 190.616C119.876 190.671 119.77 190.746 119.678 190.843C119.586 190.939 119.514 191.05 119.461 191.175C119.41 191.299 119.384 191.43 119.384 191.568C119.384 191.753 119.427 191.924 119.512 192.082C119.599 192.239 119.717 192.366 119.866 192.463C120.017 192.557 120.187 192.605 120.377 192.605ZM123.138 193.164L125.292 188.902V188.866H122.8V188.228H126.064V188.888L123.916 193.164H123.138ZM128.471 193.232C128.125 193.232 127.82 193.172 127.555 193.053C127.291 192.934 127.085 192.77 126.935 192.561C126.786 192.353 126.712 192.115 126.713 191.848C126.712 191.639 126.754 191.447 126.841 191.272C126.93 191.095 127.049 190.948 127.2 190.831C127.351 190.712 127.52 190.636 127.707 190.604V190.575C127.461 190.516 127.264 190.384 127.116 190.18C126.968 189.976 126.895 189.741 126.897 189.476C126.895 189.224 126.962 188.999 127.097 188.801C127.233 188.602 127.42 188.445 127.658 188.331C127.896 188.217 128.167 188.16 128.471 188.16C128.771 188.16 129.039 188.218 129.276 188.334C129.513 188.448 129.701 188.604 129.837 188.804C129.974 189.001 130.043 189.225 130.045 189.476C130.043 189.741 129.967 189.976 129.818 190.18C129.669 190.384 129.474 190.516 129.235 190.575V190.604C129.419 190.636 129.586 190.712 129.734 190.831C129.883 190.948 130.002 191.095 130.09 191.272C130.18 191.447 130.226 191.639 130.228 191.848C130.226 192.115 130.151 192.353 130.001 192.561C129.852 192.77 129.644 192.934 129.379 193.053C129.116 193.172 128.813 193.232 128.471 193.232ZM128.471 192.622C128.675 192.622 128.851 192.588 129.001 192.52C129.15 192.451 129.266 192.356 129.348 192.234C129.43 192.11 129.472 191.965 129.473 191.8C129.472 191.628 129.427 191.476 129.338 191.344C129.252 191.212 129.133 191.109 128.984 191.033C128.835 190.958 128.663 190.92 128.471 190.92C128.276 190.92 128.103 190.958 127.952 191.033C127.801 191.109 127.682 191.212 127.596 191.344C127.509 191.476 127.466 191.628 127.468 191.8C127.466 191.965 127.506 192.11 127.586 192.234C127.668 192.356 127.784 192.451 127.935 192.52C128.087 192.588 128.265 192.622 128.471 192.622ZM128.471 190.325C128.635 190.325 128.78 190.292 128.907 190.226C129.034 190.16 129.133 190.068 129.206 189.951C129.28 189.834 129.317 189.696 129.319 189.539C129.317 189.385 129.28 189.25 129.208 189.134C129.137 189.018 129.039 188.929 128.912 188.866C128.785 188.802 128.638 188.77 128.471 188.77C128.3 188.77 128.151 188.802 128.022 188.866C127.895 188.929 127.796 189.018 127.726 189.134C127.655 189.25 127.621 189.385 127.622 189.539C127.621 189.696 127.656 189.834 127.728 189.951C127.801 190.068 127.9 190.16 128.027 190.226C128.156 190.292 128.303 190.325 128.471 190.325ZM132.733 188.16C132.953 188.162 133.17 188.202 133.384 188.281C133.597 188.359 133.79 188.488 133.962 188.666C134.136 188.845 134.274 189.086 134.377 189.389C134.481 189.691 134.534 190.068 134.536 190.517C134.536 190.95 134.492 191.335 134.406 191.672C134.319 192.008 134.194 192.291 134.032 192.523C133.871 192.754 133.676 192.93 133.446 193.051C133.216 193.171 132.958 193.232 132.67 193.232C132.376 193.232 132.115 193.174 131.887 193.058C131.659 192.942 131.473 192.782 131.33 192.578C131.187 192.373 131.098 192.136 131.062 191.87H131.798C131.846 192.082 131.944 192.254 132.092 192.386C132.241 192.516 132.434 192.581 132.67 192.581C133.032 192.581 133.314 192.423 133.516 192.108C133.719 191.792 133.821 191.35 133.822 190.783H133.784C133.7 190.921 133.596 191.04 133.47 191.139C133.347 191.239 133.208 191.316 133.053 191.371C132.899 191.425 132.734 191.453 132.559 191.453C132.275 191.453 132.016 191.383 131.783 191.243C131.55 191.103 131.364 190.911 131.226 190.667C131.088 190.423 131.019 190.144 131.019 189.83C131.019 189.519 131.09 189.236 131.231 188.982C131.374 188.728 131.573 188.527 131.829 188.379C132.086 188.23 132.387 188.157 132.733 188.16ZM132.735 188.787C132.547 188.787 132.378 188.833 132.227 188.927C132.077 189.018 131.959 189.143 131.872 189.3C131.785 189.456 131.742 189.63 131.742 189.821C131.742 190.012 131.784 190.186 131.867 190.341C131.953 190.496 132.068 190.619 132.215 190.71C132.362 190.8 132.531 190.845 132.721 190.845C132.862 190.845 132.994 190.818 133.116 190.763C133.238 190.709 133.345 190.633 133.437 190.537C133.528 190.439 133.6 190.328 133.651 190.204C133.703 190.08 133.728 189.95 133.728 189.814C133.728 189.632 133.685 189.463 133.598 189.307C133.513 189.152 133.396 189.026 133.246 188.931C133.097 188.835 132.926 188.787 132.735 188.787Z" fill="#1C1C1C"/>
<path d="M187.298 191.235L187.344 190.218L186.486 190.77L186.223 190.312L187.134 189.846L186.223 189.381L186.486 188.923L187.344 189.475L187.298 188.458H187.821L187.775 189.475L188.633 188.923L188.896 189.381L187.985 189.846L188.896 190.312L188.633 190.77L187.775 190.218L187.821 191.235H187.298ZM190.838 191.235L190.883 190.218L190.025 190.77L189.763 190.312L190.674 189.846L189.763 189.381L190.025 188.923L190.883 189.475L190.838 188.458H191.361L191.315 189.475L192.173 188.923L192.436 189.381L191.525 189.846L192.436 190.312L192.173 190.77L191.315 190.218L191.361 191.235H190.838ZM194.377 191.235L194.423 190.218L193.565 190.77L193.302 190.312L194.213 189.846L193.302 189.381L193.565 188.923L194.423 189.475L194.377 188.458H194.9L194.855 189.475L195.713 188.923L195.975 189.381L195.064 189.846L195.975 190.312L195.713 190.77L194.855 190.218L194.9 191.235H194.377ZM197.917 191.235L197.963 190.218L197.105 190.77L196.842 190.312L197.753 189.846L196.842 189.381L197.105 188.923L197.963 189.475L197.917 188.458H198.44L198.394 189.475L199.252 188.923L199.515 189.381L198.604 189.846L199.515 190.312L199.252 190.77L198.394 190.218L198.44 191.235H197.917ZM201.457 191.235L201.502 190.218L200.644 190.77L200.382 190.312L201.293 189.846L200.382 189.381L200.644 188.923L201.502 189.475L201.457 188.458H201.98L201.934 189.475L202.792 188.923L203.055 189.381L202.144 189.846L203.055 190.312L202.792 190.77L201.934 190.218L201.98 191.235H201.457ZM204.996 191.235L205.042 190.218L204.184 190.77L203.921 190.312L204.832 189.846L203.921 189.381L204.184 188.923L205.042 189.475L204.996 188.458H205.519L205.474 189.475L206.332 188.923L206.594 189.381L205.683 189.846L206.594 190.312L206.332 190.77L205.474 190.218L205.519 191.235H204.996ZM208.536 191.235L208.582 190.218L207.724 190.77L207.461 190.312L208.372 189.846L207.461 189.381L207.724 188.923L208.582 189.475L208.536 188.458H209.059L209.013 189.475L209.871 188.923L210.134 189.381L209.223 189.846L210.134 190.312L209.871 190.77L209.013 190.218L209.059 191.235H208.536ZM210.626 192.43V191.828L212.76 188.458H213.234V189.345H212.933L211.407 191.76V191.799H214.331V192.43H210.626ZM212.967 193.395V192.247L212.972 191.972V188.458H213.678V193.395H212.967ZM216.89 193.462C216.559 193.462 216.263 193.405 216.003 193.291C215.744 193.177 215.539 193.019 215.388 192.816C215.239 192.612 215.158 192.376 215.147 192.107H215.904C215.914 192.254 215.963 192.381 216.051 192.488C216.141 192.594 216.258 192.676 216.403 192.734C216.548 192.792 216.708 192.821 216.885 192.821C217.079 192.821 217.251 192.787 217.401 192.72C217.552 192.652 217.67 192.558 217.755 192.438C217.84 192.315 217.883 192.175 217.883 192.016C217.883 191.85 217.84 191.705 217.755 191.58C217.672 191.453 217.549 191.353 217.386 191.281C217.226 191.208 217.031 191.172 216.803 191.172H216.386V190.565H216.803C216.986 190.565 217.147 190.532 217.285 190.466C217.425 190.4 217.534 190.308 217.613 190.191C217.692 190.072 217.731 189.933 217.731 189.774C217.731 189.621 217.696 189.489 217.627 189.376C217.56 189.262 217.463 189.173 217.338 189.109C217.214 189.045 217.068 189.012 216.899 189.012C216.739 189.012 216.589 189.042 216.449 189.102C216.311 189.159 216.198 189.243 216.111 189.352C216.024 189.46 215.978 189.589 215.971 189.74H215.251C215.259 189.474 215.338 189.239 215.487 189.037C215.638 188.834 215.837 188.676 216.085 188.562C216.332 188.448 216.607 188.391 216.909 188.391C217.226 188.391 217.499 188.452 217.729 188.576C217.96 188.698 218.138 188.861 218.264 189.065C218.391 189.27 218.453 189.493 218.452 189.736C218.453 190.012 218.376 190.247 218.22 190.439C218.066 190.632 217.86 190.762 217.603 190.827V190.866C217.931 190.916 218.185 191.046 218.365 191.257C218.547 191.467 218.637 191.728 218.635 192.04C218.637 192.311 218.561 192.555 218.408 192.77C218.257 192.986 218.051 193.155 217.789 193.279C217.527 193.401 217.227 193.462 216.89 193.462ZM219.546 193.395V192.855L221.216 191.124C221.395 190.936 221.542 190.771 221.658 190.63C221.775 190.487 221.862 190.351 221.92 190.222C221.978 190.094 222.007 189.957 222.007 189.813C222.007 189.649 221.969 189.507 221.891 189.388C221.814 189.268 221.709 189.176 221.576 189.111C221.442 189.045 221.292 189.012 221.125 189.012C220.948 189.012 220.794 189.049 220.662 189.121C220.53 189.193 220.429 189.295 220.358 189.427C220.288 189.559 220.252 189.713 220.252 189.89H219.541C219.541 189.589 219.61 189.327 219.749 189.102C219.887 188.877 220.076 188.702 220.317 188.579C220.558 188.453 220.832 188.391 221.139 188.391C221.449 188.391 221.723 188.452 221.959 188.576C222.197 188.698 222.382 188.865 222.516 189.078C222.649 189.288 222.716 189.526 222.716 189.791C222.716 189.974 222.681 190.153 222.612 190.329C222.545 190.504 222.426 190.699 222.258 190.914C222.089 191.128 221.854 191.387 221.554 191.693L220.573 192.72V192.756H222.795V193.395H219.546Z" fill="#1C1C1C"/>
<path d="M70 234C70 231.239 72.2386 229 75 229H234.339C237.101 229 239.339 231.239 239.339 234V253C239.339 255.761 237.101 258 234.339 258H75C72.2386 258 70 255.761 70 253V234Z" fill="#4F31B4"/>
<path d="M144.182 248.582H141.717V241.309H144.232C144.954 241.309 145.574 241.455 146.092 241.746C146.613 242.035 147.013 242.45 147.293 242.993C147.572 243.535 147.712 244.183 147.712 244.939C147.712 245.696 147.571 246.347 147.289 246.892C147.01 247.436 146.606 247.854 146.078 248.145C145.553 248.436 144.92 248.582 144.182 248.582ZM143.035 247.442H144.118C144.625 247.442 145.047 247.35 145.386 247.165C145.724 246.978 145.979 246.7 146.149 246.331C146.32 245.959 146.405 245.495 146.405 244.939C146.405 244.382 146.32 243.921 146.149 243.554C145.979 243.184 145.727 242.908 145.393 242.726C145.061 242.542 144.649 242.449 144.157 242.449H143.035V247.442ZM151.286 248.689C150.753 248.689 150.292 248.571 149.901 248.337C149.51 248.103 149.207 247.775 148.992 247.353C148.779 246.932 148.672 246.44 148.672 245.876C148.672 245.313 148.779 244.819 148.992 244.395C149.207 243.971 149.51 243.642 149.901 243.408C150.292 243.174 150.753 243.056 151.286 243.056C151.819 243.056 152.28 243.174 152.671 243.408C153.061 243.642 153.363 243.971 153.576 244.395C153.792 244.819 153.9 245.313 153.9 245.876C153.9 246.44 153.792 246.932 153.576 247.353C153.363 247.775 153.061 248.103 152.671 248.337C152.28 248.571 151.819 248.689 151.286 248.689ZM151.293 247.659C151.582 247.659 151.823 247.579 152.017 247.421C152.212 247.26 152.356 247.044 152.451 246.775C152.548 246.505 152.596 246.204 152.596 245.873C152.596 245.539 152.548 245.237 152.451 244.967C152.356 244.695 152.212 244.478 152.017 244.317C151.823 244.156 151.582 244.076 151.293 244.076C150.997 244.076 150.751 244.156 150.554 244.317C150.36 244.478 150.215 244.695 150.118 244.967C150.023 245.237 149.975 245.539 149.975 245.873C149.975 246.204 150.023 246.505 150.118 246.775C150.215 247.044 150.36 247.26 150.554 247.421C150.751 247.579 150.997 247.659 151.293 247.659ZM156.276 245.386V248.582H154.991V243.127H156.219V244.054H156.283C156.409 243.749 156.609 243.506 156.883 243.326C157.16 243.146 157.502 243.056 157.91 243.056C158.286 243.056 158.614 243.137 158.893 243.298C159.175 243.459 159.393 243.692 159.547 243.998C159.703 244.303 159.78 244.673 159.778 245.109V248.582H158.492V245.308C158.492 244.943 158.397 244.658 158.208 244.452C158.021 244.246 157.762 244.143 157.43 244.143C157.205 244.143 157.005 244.193 156.83 244.292C156.657 244.389 156.521 244.53 156.422 244.715C156.325 244.9 156.276 245.123 156.276 245.386ZM163.499 248.689C162.952 248.689 162.48 248.575 162.082 248.348C161.687 248.118 161.383 247.794 161.17 247.375C160.956 246.953 160.85 246.457 160.85 245.887C160.85 245.326 160.956 244.833 161.17 244.409C161.385 243.983 161.686 243.652 162.072 243.415C162.457 243.176 162.911 243.056 163.432 243.056C163.768 243.056 164.085 243.111 164.383 243.22C164.684 243.326 164.949 243.492 165.179 243.717C165.411 243.942 165.593 244.228 165.726 244.576C165.858 244.922 165.925 245.334 165.925 245.812V246.206H161.454V245.34H164.692C164.69 245.094 164.637 244.875 164.532 244.683C164.428 244.489 164.283 244.336 164.096 244.225C163.911 244.114 163.696 244.058 163.449 244.058C163.187 244.058 162.956 244.122 162.757 244.25C162.558 244.375 162.403 244.541 162.292 244.747C162.183 244.95 162.127 245.174 162.125 245.418V246.174C162.125 246.492 162.183 246.764 162.299 246.991C162.415 247.216 162.577 247.389 162.785 247.51C162.994 247.628 163.238 247.687 163.517 247.687C163.704 247.687 163.873 247.661 164.025 247.609C164.176 247.555 164.308 247.475 164.419 247.371C164.53 247.267 164.614 247.138 164.671 246.984L165.871 247.119C165.796 247.436 165.651 247.713 165.438 247.95C165.227 248.184 164.957 248.367 164.628 248.497C164.299 248.625 163.923 248.689 163.499 248.689Z" fill="white"/>
</svg>
