<svg width="28" height="28" viewBox="0 0 28 28" fill="none" xmlns="http://www.w3.org/2000/svg">
<path d="M14 0.150391C21.6489 0.150391 27.8496 6.35112 27.8496 14C27.8496 21.6489 21.6494 27.8496 14 27.8496C6.35058 27.8496 0.150391 21.6494 0.150391 14C0.150391 6.35058 6.35058 0.150391 14 0.150391ZM14 1.92773C12.3701 1.92773 10.7888 2.24682 9.30176 2.87598C8.04389 3.40753 6.89841 4.14164 5.88867 5.05957L5.46387 5.46387C4.3549 6.57339 3.48401 7.86475 2.87598 9.30176C2.24682 10.7888 1.92773 12.3701 1.92773 14C1.92773 15.6299 2.24682 17.2112 2.87598 18.6982C3.40753 19.9561 4.14163 21.1016 5.05957 22.1113L5.46387 22.5361C6.57337 23.6451 7.86418 24.516 9.30176 25.124C10.7888 25.7532 12.3701 26.0723 14 26.0723C15.6299 26.0723 17.2112 25.7532 18.6982 25.124C19.9561 24.5925 21.1016 23.8584 22.1113 22.9404L22.5361 22.5361C23.6451 21.4266 24.516 20.1353 25.124 18.6982C25.7532 17.2112 26.0723 15.6299 26.0723 14C26.0723 12.3701 25.7532 10.7888 25.124 9.30176C24.5925 8.04389 23.8584 6.89841 22.9404 5.88867L22.5361 5.46387C21.4266 4.3549 20.1353 3.48401 18.6982 2.87598C17.2112 2.24682 15.6304 1.92773 14 1.92773Z" fill="#D9D9D9" stroke="#0B051E" stroke-width="0.3"/>
<path d="M20.3623 10.4316C20.7027 10.0559 21.2484 10.056 21.5889 10.4316C21.9371 10.816 21.937 11.4448 21.5889 11.8291L14.5781 19.5674C14.406 19.7574 14.1836 19.8496 13.9648 19.8496L13.8818 19.8457C13.6906 19.8255 13.5019 19.7347 13.3516 19.5684V19.5674L6.41113 11.9082C6.06299 11.5239 6.06312 10.8951 6.41113 10.5107C6.75158 10.135 7.29725 10.135 7.6377 10.5107L13.8535 17.3711L13.9648 17.4941L14.0752 17.3711L20.3623 10.4316Z" fill="#D9D9D9" stroke="#0B051E" stroke-width="0.3"/>
</svg>
