<svg width="30" height="30" viewBox="0 0 30 30" fill="none" xmlns="http://www.w3.org/2000/svg">
<path d="M14.8331 1.09268L1.4984 7.68153C1.19337 7.82988 1 8.14157 1 8.48161V11.4219C1.005 11.9103 1.40337 12.302 1.89174 12.3003H28.5612C29.0512 12.302 29.4496 11.9103 29.4546 11.4219V8.55996C29.4546 8.21992 29.2613 7.90824 28.9562 7.75987L15.6215 1.09251C15.3732 0.969164 15.0815 0.969335 14.8331 1.09268ZM15.2265 2.89118L27.6694 9.11178V10.5286H2.78531V9.03177L15.2265 2.89118Z" fill="white" stroke="#4F31B4" stroke-width="0.361851"/>
<path d="M1.8918 27.6699C1.6551 27.6683 1.42843 27.7616 1.26005 27.93C1.09337 28.0967 0.998357 28.325 1.00002 28.5617C0.998355 28.7984 1.09336 29.0267 1.26005 29.1935C1.4284 29.3618 1.65509 29.4552 1.8918 29.4552H28.5612C28.7996 29.4552 29.0263 29.3618 29.1947 29.1935C29.3613 29.0268 29.4547 28.7984 29.4547 28.5617C29.4547 28.325 29.3613 28.0967 29.1947 27.93C29.0263 27.7616 28.7996 27.6683 28.5612 27.6699H1.8918Z" fill="white" stroke="#4F31B4" stroke-width="0.361851"/>
<path d="M16.6888 7.1043C16.6888 7.90937 16.0371 8.56279 15.2319 8.56279C14.4268 8.56279 13.7734 7.90941 13.7734 7.1043C13.7734 6.29918 14.4268 5.64746 15.2319 5.64746C16.0371 5.64746 16.6888 6.29918 16.6888 7.1043Z" fill="white" stroke="#4F31B4" stroke-width="0.361851"/>
<path d="M4.7526 14.336C4.26422 14.3427 3.87084 14.741 3.87417 15.2294C3.87083 15.7178 4.26421 16.1162 4.7526 16.1212H6.72114V23.8651H3.79416C3.30579 23.8701 2.9124 24.2685 2.91407 24.7569C2.92074 25.2403 3.31078 25.6303 3.79416 25.6353H26.6582H26.6565C27.1449 25.6386 27.5433 25.2453 27.55 24.7569C27.55 24.5202 27.4566 24.2935 27.2883 24.1251C27.1216 23.9585 26.8932 23.8634 26.6565 23.8651H23.7296V16.1212H25.6981C25.9348 16.1228 26.1631 16.0278 26.3299 15.8611C26.4982 15.6928 26.5915 15.4661 26.5915 15.2294C26.5915 14.991 26.4982 14.7643 26.3299 14.596C26.1632 14.4293 25.9348 14.3359 25.6981 14.3359L4.7526 14.336ZM8.49298 16.1212H14.3338V23.8651H8.49298V16.1212ZM16.1187 16.1212H21.9596V23.8651H16.1187V16.1212Z" fill="white" stroke="#4F31B4" stroke-width="0.361851"/>
</svg>
