<svg width="35" height="24" viewBox="0 0 35 24" fill="none" xmlns="http://www.w3.org/2000/svg">
<path fill-rule="evenodd" clip-rule="evenodd" d="M7.34679 23C3.84396 23 1 20.1108 1 16.5524C1 13.5959 2.96232 11.1024 5.63567 10.3426C6.42427 5.05733 10.9189 1 16.3404 1C20.6063 1 24.2997 3.51229 26.0632 7.15809C26.1097 7.15666 26.1563 7.15666 26.2029 7.15666C30.507 7.15666 34 10.7065 34 15.0776C34 19.4501 30.5056 22.9986 26.2029 22.9986H7.3456L7.34679 23ZM7.34679 21.5669H26.204C29.7294 21.5669 32.5905 18.6591 32.5905 15.079C32.5905 11.4976 29.7282 8.59106 26.204 8.59106C26.0277 8.59106 25.8542 8.59822 25.6807 8.61255C25.3802 8.63692 25.098 8.46494 24.9767 8.18547C23.5251 4.80327 20.2027 2.43571 16.3403 2.43571C11.476 2.43571 7.4669 6.19037 6.9743 11.0016C6.94185 11.3155 6.7119 11.5706 6.40719 11.6308C4.13168 12.0765 2.41075 14.1129 2.41075 16.555C2.41075 19.3224 4.62277 21.5696 7.34689 21.5696L7.34679 21.5669ZM10.9781 12.1571C11.3816 8.86236 14.1509 6.30979 17.5011 6.30979C18.7934 6.30979 19.9995 6.68959 21.0167 7.34594C21.3454 7.55804 21.4427 8.00089 21.2339 8.33479C21.0251 8.66871 20.5892 8.7676 20.2605 8.55549C19.4621 8.04101 18.5155 7.74292 17.4997 7.74292C15.0761 7.74292 13.0418 9.44261 12.486 11.7298L12.8937 11.6152C13.0107 11.5822 13.1377 11.6123 13.228 11.6969C13.3183 11.7814 13.3578 11.9061 13.3352 12.0279L12.6764 15.4731C12.651 15.6064 12.5537 15.7139 12.4253 15.7497C12.2969 15.7856 12.1587 15.7454 12.0698 15.6451L9.75196 13.0425C9.67014 12.9508 9.64051 12.8218 9.67437 12.7029C9.70823 12.5839 9.80133 12.4908 9.91842 12.4578L10.9779 12.1583L10.9781 12.1571ZM22.5149 14.2466L22.1072 14.3613C21.9901 14.3942 21.8632 14.3641 21.7729 14.2796C21.6826 14.195 21.6431 14.0704 21.6657 13.9485L22.3245 10.5033C22.3499 10.37 22.4472 10.2625 22.5756 10.2267C22.704 10.1909 22.8422 10.231 22.9311 10.3313L25.2489 12.9339C25.3307 13.0256 25.3604 13.1546 25.3265 13.2736C25.2927 13.3925 25.1995 13.4857 25.0825 13.5186L24.023 13.8182C23.6195 17.1129 20.8503 19.6655 17.5 19.6655C16.2078 19.6655 15.0016 19.2857 13.9844 18.6294C13.6557 18.4173 13.5584 17.9744 13.7672 17.6405C13.976 17.3066 14.4119 17.2077 14.7406 17.4198C15.539 17.9343 16.4856 18.2324 17.5014 18.2324C19.925 18.2324 21.9594 16.5327 22.5152 14.2455L22.5149 14.2466Z" fill="white" stroke="#4F31B4" stroke-width="0.3"/>
</svg>
