<svg width="30" height="30" viewBox="0 0 30 30" fill="none" xmlns="http://www.w3.org/2000/svg">
<path d="M28.5333 20.6H24.8V10.8C24.7989 10.429 24.651 10.0736 24.3887 9.81127C24.1264 9.54896 23.771 9.40111 23.4 9.4H21.0667V3.33333C21.0667 2.71449 20.8208 2.121 20.3832 1.68342C19.9457 1.24583 19.3522 1 18.7333 1H11.2667C10.6478 1 10.0543 1.24583 9.61675 1.68342C9.17917 2.121 8.93333 2.71449 8.93333 3.33333V9.4H6.6C6.22904 9.40111 5.87359 9.54896 5.61127 9.81127C5.34896 10.0736 5.20111 10.429 5.2 10.8V20.6H2.4C2.02904 20.6011 1.67359 20.749 1.41127 21.0113C1.14896 21.2736 1.00111 21.629 1 22V27.6C1.00111 27.971 1.14896 28.3264 1.41127 28.5887C1.67359 28.851 2.02904 28.9989 2.4 29H11.7333C12.1043 28.9989 12.4597 28.851 12.7221 28.5887C12.9844 28.3264 13.1322 27.971 13.1333 27.6V25.2667H16.8667V28.5333C16.8667 28.6571 16.9158 28.7758 17.0033 28.8633C17.0909 28.9508 17.2096 29 17.3333 29H28.5333C28.6571 29 28.7758 28.9508 28.8633 28.8633C28.9508 28.7758 29 28.6571 29 28.5333V21.0667C29 20.9429 28.9508 20.8242 28.8633 20.7367C28.7758 20.6492 28.6571 20.6 28.5333 20.6ZM9.86667 3.33333C9.86777 2.96237 10.0156 2.60692 10.2779 2.34461C10.5403 2.0823 10.8957 1.93444 11.2667 1.93333H18.7333C19.1043 1.93444 19.4597 2.0823 19.7221 2.34461C19.9844 2.60692 20.1322 2.96237 20.1333 3.33333V3.8H9.86667V3.33333ZM9.86667 4.73333H20.1333V15H9.86667V4.73333ZM9.86667 15.9333H20.1333V16.4C20.1322 16.771 19.9844 17.1264 19.7221 17.3887C19.4597 17.651 19.1043 17.7989 18.7333 17.8H11.2667C10.8957 17.7989 10.5403 17.651 10.2779 17.3887C10.0156 17.1264 9.86777 16.771 9.86667 16.4V15.9333ZM12.2 27.6C12.2 27.7238 12.1508 27.8425 12.0633 27.93C11.9758 28.0175 11.8571 28.0667 11.7333 28.0667H2.4C2.27623 28.0667 2.15753 28.0175 2.07002 27.93C1.9825 27.8425 1.93333 27.7238 1.93333 27.6V24.8H12.2V27.6ZM12.2 23.8667H1.93333V23.4H12.2V23.8667ZM12.2 22.4667H1.93333V22C1.93333 21.8762 1.9825 21.7575 2.07002 21.67C2.15753 21.5825 2.27623 21.5333 2.4 21.5333H11.7333C11.8571 21.5333 11.9758 21.5825 12.0633 21.67C12.1508 21.7575 12.2 21.8762 12.2 22V22.4667ZM16.8667 21.0667V24.3333H13.1333V22C13.1322 21.629 12.9844 21.2736 12.7221 21.0113C12.4597 20.749 12.1043 20.6011 11.7333 20.6H6.13333V10.8C6.13333 10.6762 6.1825 10.5575 6.27002 10.47C6.35753 10.3825 6.47623 10.3333 6.6 10.3333H8.93333V16.4C8.93333 17.0188 9.17917 17.6123 9.61675 18.0499C10.0543 18.4875 10.6478 18.7333 11.2667 18.7333H18.7333C19.3522 18.7333 19.9457 18.4875 20.3832 18.0499C20.8208 17.6123 21.0667 17.0188 21.0667 16.4V10.3333H23.4C23.5238 10.3333 23.6425 10.3825 23.73 10.47C23.8175 10.5575 23.8667 10.6762 23.8667 10.8V20.6H17.3333C17.2096 20.6 17.0909 20.6492 17.0033 20.7367C16.9158 20.8242 16.8667 20.9429 16.8667 21.0667ZM18.6493 21.5333C18.5786 21.7285 18.4659 21.9057 18.3192 22.0525C18.1724 22.1993 17.9952 22.312 17.8 22.3827V21.5333H18.6493ZM17.8 28.0667V27.2173C17.9952 27.288 18.1724 27.4007 18.3192 27.5475C18.4659 27.6943 18.5786 27.8715 18.6493 28.0667H17.8ZM28.0667 28.0667H27.2173C27.288 27.8715 27.4007 27.6943 27.5475 27.5475C27.6943 27.4007 27.8715 27.288 28.0667 27.2173V28.0667ZM28.0667 26.2467C27.6185 26.3387 27.2072 26.5602 26.8837 26.8837C26.5602 27.2072 26.3387 27.6185 26.2467 28.0667H19.62C19.528 27.6185 19.3065 27.2072 18.983 26.8837C18.6595 26.5602 18.2482 26.3387 17.8 26.2467V23.3533C18.2482 23.2613 18.6595 23.0398 18.983 22.7163C19.3065 22.3928 19.528 21.9815 19.62 21.5333H26.2467C26.3387 21.9815 26.5602 22.3928 26.8837 22.7163C27.2072 23.0398 27.6185 23.2613 28.0667 23.3533V26.2467ZM28.0667 22.3827C27.8715 22.312 27.6943 22.1993 27.5475 22.0525C27.4007 21.9057 27.288 21.7285 27.2173 21.5333H28.0667V22.3827Z" fill="white" stroke="#4F31B4" stroke-width="0.3"/>
<path d="M22.9331 22.9336C22.5639 22.9336 22.203 23.0431 21.896 23.2482C21.589 23.4533 21.3498 23.7448 21.2085 24.0859C21.0672 24.427 21.0302 24.8023 21.1023 25.1644C21.1743 25.5265 21.3521 25.8591 21.6131 26.1202C21.8742 26.3813 22.2068 26.559 22.5689 26.6311C22.931 26.7031 23.3063 26.6661 23.6474 26.5248C23.9885 26.3836 24.28 26.1443 24.4852 25.8373C24.6903 25.5304 24.7997 25.1695 24.7997 24.8003C24.7997 24.3052 24.6031 23.8304 24.253 23.4803C23.9029 23.1303 23.4281 22.9336 22.9331 22.9336ZM22.9331 25.7336C22.7485 25.7336 22.568 25.6789 22.4145 25.5763C22.2611 25.4737 22.1414 25.328 22.0708 25.1574C22.0001 24.9869 21.9817 24.7992 22.0177 24.6182C22.0537 24.4371 22.1426 24.2708 22.2731 24.1403C22.4036 24.0098 22.5699 23.9209 22.751 23.8849C22.932 23.8488 23.1197 23.8673 23.2902 23.938C23.4608 24.0086 23.6066 24.1282 23.7091 24.2817C23.8117 24.4352 23.8664 24.6157 23.8664 24.8003C23.8664 25.0478 23.7681 25.2852 23.593 25.4602C23.418 25.6353 23.1806 25.7336 22.9331 25.7336Z" fill="white" stroke="#4F31B4" stroke-width="0.5"/>
<path d="M14.5331 3.33372H15.4664C15.5902 3.33372 15.7089 3.28456 15.7964 3.19704C15.8839 3.10952 15.9331 2.99082 15.9331 2.86706C15.9331 2.74329 15.8839 2.62459 15.7964 2.53707C15.7089 2.44956 15.5902 2.40039 15.4664 2.40039H14.5331C14.4093 2.40039 14.2906 2.44956 14.2031 2.53707C14.1156 2.62459 14.0664 2.74329 14.0664 2.86706C14.0664 2.99082 14.1156 3.10952 14.2031 3.19704C14.2906 3.28456 14.4093 3.33372 14.5331 3.33372Z" fill="white" stroke="#4F31B4" stroke-width="0.205882"/>
<path d="M14.5331 17.3337H15.4664C15.5902 17.3337 15.7089 17.2846 15.7964 17.197C15.8839 17.1095 15.9331 16.9908 15.9331 16.8671C15.9331 16.7433 15.8839 16.6246 15.7964 16.5371C15.7089 16.4496 15.5902 16.4004 15.4664 16.4004H14.5331C14.4093 16.4004 14.2906 16.4496 14.2031 16.5371C14.1156 16.6246 14.0664 16.7433 14.0664 16.8671C14.0664 16.9908 14.1156 17.1095 14.2031 17.197C14.2906 17.2846 14.4093 17.3337 14.5331 17.3337Z" fill="white" stroke="#4F31B4" stroke-width="0.205882"/>
<path d="M9.16667 27.5999H10.5667C10.8761 27.5999 11.1728 27.477 11.3916 27.2582C11.6104 27.0394 11.7333 26.7427 11.7333 26.4333C11.7333 26.1238 11.6104 25.8271 11.3916 25.6083C11.1728 25.3895 10.8761 25.2666 10.5667 25.2666H9.16667C8.85725 25.2666 8.5605 25.3895 8.34171 25.6083C8.12292 25.8271 8 26.1238 8 26.4333C8 26.7427 8.12292 27.0394 8.34171 27.2582C8.5605 27.477 8.85725 27.5999 9.16667 27.5999ZM9.16667 26.1999H10.5667C10.6286 26.1999 10.6879 26.2245 10.7317 26.2683C10.7754 26.312 10.8 26.3714 10.8 26.4333C10.8 26.4952 10.7754 26.5545 10.7317 26.5983C10.6879 26.642 10.6286 26.6666 10.5667 26.6666H9.16667C9.10478 26.6666 9.04543 26.642 9.00167 26.5983C8.95792 26.5545 8.93333 26.4952 8.93333 26.4333C8.93333 26.3714 8.95792 26.312 9.00167 26.2683C9.04543 26.2245 9.10478 26.1999 9.16667 26.1999Z" fill="white" stroke="#4F31B4" stroke-width="0.5"/>
<path d="M15.0828 14.1354C15.9135 14.1354 16.7255 13.889 17.4162 13.4275C18.1069 12.966 18.6452 12.3101 18.9631 11.5426C19.281 10.7752 19.3642 9.93069 19.2021 9.11597C19.0401 8.30125 18.64 7.55289 18.0527 6.9655C17.4653 6.37812 16.7169 5.97811 15.9022 5.81606C15.0875 5.654 14.243 5.73717 13.4755 6.05506C12.7081 6.37295 12.0521 6.91127 11.5906 7.60196C11.1291 8.29264 10.8828 9.10467 10.8828 9.93535C10.884 11.0489 11.3269 12.1165 12.1143 12.9038C12.9017 13.6912 13.9693 14.1341 15.0828 14.1354ZM15.0828 6.66869C15.7289 6.66869 16.3605 6.86027 16.8977 7.21922C17.4349 7.57816 17.8536 8.08835 18.1008 8.68525C18.3481 9.28216 18.4128 9.93898 18.2867 10.5726C18.1607 11.2063 17.8495 11.7884 17.3927 12.2452C16.9358 12.7021 16.3538 13.0132 15.7201 13.1393C15.0864 13.2653 14.4296 13.2006 13.8327 12.9534C13.2358 12.7061 12.7256 12.2874 12.3667 11.7502C12.0077 11.213 11.8161 10.5814 11.8161 9.93535C11.8171 9.06928 12.1616 8.23897 12.774 7.62656C13.3864 7.01416 14.2167 6.66967 15.0828 6.66869Z" fill="white" stroke="#4F31B4" stroke-width="0.3"/>
<path d="M15.7527 8.83051V8.90991H16.3552V9.21815H15.7293C15.7013 9.43299 15.6391 9.60113 15.5425 9.72256C15.4491 9.84399 15.3121 9.93117 15.1315 9.9841C14.9541 10.037 14.7174 10.0635 14.4216 10.0635V10.4325C14.4216 10.8528 14.6053 11.063 14.9727 11.063C15.3339 11.063 15.5145 10.8606 15.5145 10.4558H15.9068C15.9037 10.7672 15.8212 11.0023 15.6593 11.1611C15.4974 11.3198 15.267 11.3992 14.9681 11.3992C14.6598 11.3992 14.4247 11.3136 14.2628 11.1424C14.104 10.9711 14.0246 10.7314 14.0246 10.4231V9.76459C14.3796 9.76459 14.6411 9.7537 14.8093 9.7319C14.9805 9.70699 15.1051 9.65717 15.1829 9.58245C15.2607 9.50461 15.3106 9.38318 15.3324 9.21815H13.8145V8.90991H15.351V8.82584V8.4055H13.8145V8.09258H16.3552V8.4055H15.7527V8.83051Z" fill="white"/>
</svg>
