<svg width="28" height="26" viewBox="0 0 28 26" fill="none" xmlns="http://www.w3.org/2000/svg">
<path d="M7.67639 25.1819C3.4443 25.1819 0 21.7376 0 17.5055C0 13.2734 3.4443 9.8291 7.67639 9.8291C11.9085 9.8291 15.3528 13.2734 15.3528 17.5055C15.3528 21.7376 11.9085 25.1819 7.67639 25.1819ZM7.67639 10.4841C3.80614 10.4841 0.659546 13.6307 0.659546 17.5009C0.659546 21.3712 3.80614 24.5178 7.67639 24.5178C11.5467 24.5178 14.6932 21.3712 14.6932 17.5009C14.6932 13.6307 11.5467 10.4841 7.67639 10.4841Z" fill="white"/>
<path d="M10.0218 15.7914L9.7908 16.5794H5.38891L5.61987 15.7914H10.0218ZM7.95668 21.1035L5.47043 18.0602L5.45684 17.4896H6.69317C7.01471 17.4896 7.28869 17.4443 7.51513 17.3538C7.74156 17.2609 7.91479 17.1228 8.0348 16.9394C8.15481 16.7537 8.21481 16.5205 8.21481 16.2397C8.21481 15.8253 8.09027 15.5004 7.8412 15.2649C7.59212 15.0271 7.20944 14.9083 6.69317 14.9083H5.38891L5.61987 14.1474H6.69317C7.24567 14.1474 7.69854 14.2392 8.05178 14.4226C8.40728 14.6037 8.66995 14.8528 8.83977 15.1698C9.01186 15.4845 9.09791 15.8412 9.09791 16.2397C9.09791 16.5997 9.01865 16.9315 8.86015 17.2349C8.70391 17.536 8.45257 17.7783 8.10612 17.9617C7.76194 18.1451 7.30681 18.2369 6.74072 18.2369H6.72034L9.01639 21.0492V21.1035H7.95668ZM10.0218 14.1474L9.7908 14.9354L6.32635 14.9083L6.55731 14.1474H10.0218Z" fill="white"/>
<circle cx="17.3423" cy="9.86965" r="9.50411" fill="#4F31B4" stroke="white" stroke-width="0.731085"/>
<path d="M20.3567 8.09489L20.0597 9.10803H14.4001L14.6971 8.09489H20.3567ZM17.7016 14.9248L14.5049 11.012L14.4875 10.2784H16.077C16.4905 10.2784 16.8427 10.2201 17.1338 10.1037C17.425 9.98433 17.6477 9.80674 17.802 9.57092C17.9563 9.3322 18.0334 9.03233 18.0334 8.67133C18.0334 8.13856 17.8733 7.72079 17.5531 7.41802C17.2328 7.11233 16.7408 6.95949 16.077 6.95949H14.4001L14.6971 5.98129H16.077C16.7874 5.98129 17.3697 6.0992 17.8238 6.33501C18.2809 6.56792 18.6186 6.88816 18.837 7.29574C19.0582 7.70041 19.1688 8.15894 19.1688 8.67133C19.1688 9.13423 19.067 9.56073 18.8632 9.95085C18.6623 10.3381 18.3391 10.6496 17.8937 10.8854C17.4512 11.1212 16.866 11.2391 16.1382 11.2391H16.112L19.064 14.8549V14.9248H17.7016ZM20.3567 5.98129L20.0597 6.99442L15.6054 6.95949L15.9024 5.98129H20.3567Z" fill="white"/>
</svg>
