<svg width="26" height="25" viewBox="0 0 26 25" fill="none" xmlns="http://www.w3.org/2000/svg">
<path fill-rule="evenodd" clip-rule="evenodd" d="M23.2046 13.9649C22.3738 14.7956 21.2279 15.311 19.9667 15.311H5.11083C3.84966 15.311 2.70369 14.7956 1.87302 13.9649C1.04232 13.1342 0.526937 11.9883 0.526937 10.7271C0.526937 9.56251 0.969049 8.49449 1.69503 7.68112C2.32097 6.98072 3.15748 6.47231 4.10217 6.25709C4.24527 4.58291 4.98871 3.08213 6.11723 1.9697C7.35278 0.751597 9.04909 0 10.9187 0C12.1624 0 13.3305 0.332746 14.3379 0.915617C15.2803 1.4601 16.0819 2.22447 16.6717 3.14012C17.6385 3.18898 18.5274 3.54151 19.2452 4.10229C19.9328 4.6398 20.461 5.36926 20.7519 6.21042C21.7652 6.38726 22.6669 6.90034 23.337 7.6298C24.0886 8.4477 24.5493 9.5355 24.5493 10.7258C24.5493 11.987 24.0339 13.133 23.2032 13.9636L23.2046 13.9649ZM19.9679 14.1441C20.9068 14.1441 21.7608 13.7602 22.3797 13.1401C22.9987 12.5211 23.3838 11.6671 23.3838 10.7282C23.3838 9.84053 23.0418 9.02963 22.4821 8.42115C21.9179 7.80686 21.1326 7.39849 20.2565 7.32403C19.9889 7.30192 19.7771 7.10181 19.7306 6.84933C19.541 6.11403 19.1128 5.47531 18.5323 5.02158C17.9576 4.57134 17.2316 4.30373 16.4404 4.30373C16.2962 4.30373 16.5068 4.30024 16.4009 4.30141L16.359 4.30257C16.1321 4.30722 15.9332 4.18157 15.8331 3.99308C15.3352 3.13796 14.6174 2.42246 13.7564 1.92566C12.9234 1.44516 11.9554 1.16942 10.92 1.16942C9.3656 1.16942 7.95902 1.79185 6.93398 2.80173C5.90668 3.8139 5.26328 5.21238 5.24118 6.7609C5.23769 7.05758 5.01199 7.30074 4.72345 7.33216V7.33332C3.86949 7.42989 3.1086 7.84641 2.56179 8.45719C2.02312 9.05983 1.69502 9.85679 1.69502 10.727C1.69502 11.6659 2.07897 12.5199 2.69907 13.1389C3.31801 13.7578 4.17197 14.1429 5.11088 14.1429H19.9668L19.9679 14.1441ZM2.84341 21.761C2.66657 21.5841 2.42107 21.4736 2.15117 21.4736C1.88127 21.4736 1.63576 21.583 1.45893 21.761C1.28209 21.9378 1.17157 22.1833 1.17157 22.4532C1.17157 22.7231 1.28093 22.9686 1.45893 23.1455C1.63578 23.3223 1.88127 23.4328 2.15117 23.4328C2.42107 23.4328 2.66658 23.3235 2.84341 23.1455C3.02025 22.9686 3.13078 22.7231 3.13078 22.4532C3.13078 22.1833 3.02141 21.9378 2.84341 21.761ZM13.2318 21.761C13.055 21.5841 12.8095 21.4736 12.5396 21.4736C12.2697 21.4736 12.0241 21.583 11.8473 21.761C11.6705 21.9378 11.56 22.1833 11.56 22.4532C11.56 22.7231 11.6693 22.9686 11.8473 23.1455C12.0242 23.3223 12.2697 23.4328 12.5396 23.4328C12.8095 23.4328 13.055 23.3235 13.2318 23.1455C13.4086 22.9686 13.5192 22.7231 13.5192 22.4532C13.5192 22.1833 13.4098 21.9378 13.2318 21.761ZM23.6214 21.761C23.4445 21.5841 23.199 21.4736 22.9291 21.4736C22.6592 21.4736 22.4137 21.583 22.2369 21.761C22.0601 21.9378 21.9495 22.1833 21.9495 22.4532C21.9495 22.7231 22.0589 22.9686 22.2369 23.1455C22.4137 23.3223 22.6592 23.4328 22.9291 23.4328C23.199 23.4328 23.4446 23.3235 23.6214 23.1455C23.7982 22.9686 23.9087 22.7231 23.9087 22.4532C23.9087 22.1833 23.7994 21.9378 23.6214 21.761ZM22.3451 20.387V19.0187H13.1225V20.387C13.4808 20.4882 13.8008 20.679 14.0567 20.9361C14.4453 21.3247 14.6861 21.8611 14.6861 22.4544C14.6861 23.0466 14.4453 23.5841 14.0567 23.9727C13.6681 24.3613 13.1318 24.601 12.5384 24.601C11.9462 24.601 11.4087 24.3601 11.0201 23.9727C10.6315 23.5841 10.3907 23.0478 10.3907 22.4544C10.3907 21.8622 10.6315 21.3247 11.0201 20.9361C11.2761 20.6802 11.596 20.4882 11.9544 20.387V19.0187H2.73178V20.387C3.09011 20.4882 3.41005 20.679 3.66601 20.9361C4.0546 21.3247 4.29543 21.8611 4.29543 22.4544C4.29543 23.0466 4.05461 23.5841 3.66601 23.9727C3.27742 24.3613 2.74107 24.601 2.14772 24.601C1.55552 24.601 1.01801 24.3601 0.629423 23.9727C0.240833 23.5841 0 23.0478 0 22.4544C0 21.8622 0.24083 21.3247 0.629423 20.9361C0.88538 20.6802 1.20532 20.4882 1.56365 20.387V18.4359C1.56365 18.1136 1.82543 17.8518 2.14769 17.8518H11.9531V16.7571C11.9531 16.4348 12.2149 16.173 12.5372 16.173C12.8594 16.173 13.1212 16.4348 13.1212 16.7571V17.8518H22.9267H22.9418C22.9464 17.8518 22.9523 17.8518 22.9569 17.853C22.9616 17.853 22.9662 17.8542 22.972 17.8542C22.9767 17.8542 22.9813 17.8553 22.9872 17.8553C22.9918 17.8565 22.9965 17.8565 23.0023 17.8577C23.0069 17.8588 23.0116 17.8588 23.0174 17.86C23.0221 17.8612 23.0267 17.8612 23.0314 17.8623C23.036 17.8635 23.0407 17.8646 23.0453 17.8646C23.05 17.8658 23.0546 17.867 23.0593 17.8681C23.064 17.8693 23.0686 17.8705 23.0733 17.8716C23.0779 17.8728 23.0826 17.874 23.0872 17.8751C23.0919 17.8763 23.0965 17.8774 23.1012 17.8798C23.1058 17.8809 23.1105 17.8833 23.1151 17.8844C23.1198 17.8856 23.1245 17.8879 23.1291 17.8891C23.1338 17.8914 23.1384 17.8926 23.1431 17.8937C23.1477 17.8961 23.1524 17.8972 23.1559 17.8995C23.1605 17.9019 23.164 17.903 23.1687 17.9054C23.1733 17.9077 23.1768 17.9089 23.1815 17.9112C23.1861 17.9135 23.1896 17.9158 23.1943 17.917C23.1989 17.9193 23.2024 17.9217 23.2071 17.924C23.2117 17.9263 23.2152 17.9286 23.2187 17.931C23.2233 17.9333 23.2268 17.9356 23.2303 17.9379C23.2338 17.9403 23.2385 17.9426 23.242 17.9449C23.2454 17.9472 23.2501 17.9496 23.2536 17.9531C23.2571 17.9554 23.2617 17.9589 23.2652 17.9612C23.2687 17.9635 23.2722 17.967 23.2769 17.9694C23.2804 17.9717 23.2838 17.9752 23.2873 17.9775C23.2908 17.981 23.2943 17.9833 23.2978 17.9868C23.3013 17.9903 23.3048 17.9926 23.3083 17.9961C23.3118 17.9996 23.3153 18.0019 23.3187 18.0054C23.3222 18.0089 23.3257 18.0112 23.3292 18.0147C23.3327 18.0182 23.3362 18.0217 23.3397 18.024C23.3432 18.0275 23.3467 18.031 23.349 18.0345C23.3525 18.038 23.3548 18.0415 23.3583 18.045C23.3618 18.0485 23.3641 18.052 23.3676 18.0554C23.3711 18.0589 23.3734 18.0624 23.3769 18.0659C23.3804 18.0694 23.3827 18.0729 23.3862 18.0764C23.3897 18.0799 23.392 18.0834 23.3944 18.0869C23.3967 18.0903 23.4002 18.0938 23.4025 18.0985C23.4048 18.102 23.4083 18.1066 23.4107 18.1101C23.413 18.1136 23.4153 18.1183 23.4188 18.1218C23.4211 18.1253 23.4235 18.1299 23.4258 18.1334C23.4281 18.1369 23.4304 18.1415 23.4328 18.145C23.4351 18.1497 23.4374 18.1532 23.4397 18.1567C23.4421 18.1613 23.4444 18.1648 23.4467 18.1695C23.449 18.1741 23.4514 18.1776 23.4525 18.1823C23.4549 18.1869 23.4572 18.1904 23.4584 18.1951C23.4607 18.1997 23.4618 18.2032 23.4642 18.2079C23.4665 18.2125 23.4677 18.216 23.47 18.2207C23.4723 18.2253 23.4735 18.23 23.4746 18.2346C23.477 18.2393 23.4781 18.2439 23.4793 18.2486C23.4805 18.2532 23.4828 18.2579 23.484 18.2625C23.4851 18.2672 23.4863 18.2718 23.4886 18.2765C23.4898 18.2812 23.4909 18.2858 23.4921 18.2905L23.4956 18.3044C23.4967 18.3091 23.4979 18.3137 23.4991 18.3184C23.5002 18.323 23.5014 18.3277 23.5014 18.3323C23.5026 18.337 23.5037 18.3417 23.5037 18.3463C23.5049 18.351 23.5049 18.3556 23.5061 18.3614C23.5072 18.3661 23.5072 18.3707 23.5084 18.3766C23.5095 18.3812 23.5095 18.3859 23.5095 18.3917C23.5095 18.3963 23.5107 18.401 23.5107 18.4068C23.5107 18.4115 23.5107 18.4161 23.5119 18.4219V18.4371V20.3881C23.8702 20.4894 24.1901 20.6802 24.4461 20.9373C24.8347 21.3259 25.0755 21.8622 25.0755 22.4556C25.0755 23.0478 24.8347 23.5853 24.4461 23.9739C24.0575 24.3625 23.5212 24.6021 22.9278 24.6021C22.3356 24.6021 21.7981 24.3613 21.4095 23.9739C21.0209 23.5853 20.7801 23.0489 20.7801 22.4556C20.7801 21.8634 21.0209 21.3259 21.4095 20.9373C21.6655 20.6813 21.9854 20.4894 22.3438 20.3881L22.3451 20.387Z" fill="white"/>
</svg>
