<svg width="34" height="34" viewBox="0 0 34 34" fill="none" xmlns="http://www.w3.org/2000/svg">
<path d="M1.67701 21.6282C1.79667 22.0282 2.17346 22.2943 2.59137 22.2765C2.67887 22.2854 2.76816 22.2854 2.85567 22.2765C3.08961 22.2069 3.28606 22.0479 3.40035 21.8336C3.51464 21.6175 3.53964 21.3675 3.46821 21.1336C3.05032 19.796 2.83424 18.403 2.8289 17.0011C2.83068 13.2437 4.32541 9.63968 6.98275 6.98258C9.64008 4.32547 13.2438 2.83051 17.0013 2.82872C20.0819 2.81801 23.0804 3.82345 25.5322 5.69142L25.6411 5.77357H24.5178C24.0124 5.77357 23.6035 6.18253 23.6035 6.68792C23.6035 7.19155 24.0125 7.60227 24.5178 7.60227H27.9735C28.2163 7.60227 28.4485 7.50584 28.6199 7.3344C28.7914 7.16295 28.8878 6.92901 28.8878 6.6879V3.19481C28.8878 2.6894 28.4789 2.28046 27.9735 2.28046C27.4681 2.28046 27.0591 2.68941 27.0591 3.19481V4.59313L26.593 4.22703C23.8357 2.13047 20.466 0.996442 17.0015 1.00001C11.9406 1.00537 7.17952 3.40375 4.15942 7.46676C1.14133 11.5295 0.221632 16.7799 1.6771 21.6287L1.67701 21.6282Z" fill="white" stroke="#4F31B4" stroke-width="0.8"/>
<path d="M32.324 12.3736C32.1776 11.8896 31.6669 11.6146 31.1811 11.7611C30.6971 11.9075 30.4221 12.42 30.5686 12.904C30.9722 14.2326 31.1758 15.6131 31.1722 17.0007C31.1704 20.7581 29.6757 24.3621 27.0183 27.0192C24.361 29.6763 20.7573 31.1713 16.9998 31.1731C13.9192 31.1838 10.9207 30.1784 8.4689 28.3104L8.35996 28.2282H9.48503H9.48324C9.98865 28.2282 10.3976 27.8193 10.3976 27.3139C10.3976 26.8103 9.98863 26.3995 9.48324 26.3995H6.02763C5.52222 26.3995 5.11328 26.8103 5.11328 27.3139V30.807C5.11328 31.3124 5.52224 31.7213 6.02763 31.7213C6.53303 31.7213 6.94198 31.3124 6.94198 30.807V29.4087L7.40807 29.7748C10.1654 31.8713 13.5351 33.0054 16.9996 33.0018C22.0606 32.9964 26.8216 30.5981 29.8417 26.535C32.8598 22.4723 33.7795 17.2219 32.324 12.3731L32.324 12.3736Z" fill="white" stroke="#4F31B4" stroke-width="0.8"/>
<path d="M16.9986 26.5461C19.531 26.5461 21.9581 25.5407 23.7493 23.7512C25.5387 21.96 26.5441 19.5331 26.5441 17.0006C26.5441 14.4681 25.5387 12.0411 23.7493 10.2499C21.9581 8.4605 19.5311 7.45508 16.9986 7.45508C14.4662 7.45508 12.0392 8.4605 10.248 10.2499C8.45855 12.0411 7.45312 14.4681 7.45312 17.0006C7.45491 19.5311 8.46211 21.9582 10.2515 23.7476C12.041 25.537 14.468 26.5443 16.9986 26.5461ZM16.9986 9.28401C19.0452 9.28401 21.0078 10.0966 22.4564 11.5431C23.9029 12.9914 24.7155 14.954 24.7155 17.0009C24.7155 19.0477 23.9029 21.0101 22.4564 22.4586C21.0081 23.9052 19.0455 24.7177 16.9986 24.7177C14.9518 24.7177 12.9894 23.9052 11.5409 22.4586C10.0943 21.0103 9.28178 19.0477 9.28178 17.0009C9.28178 14.954 10.0943 12.9917 11.5409 11.5431C12.9892 10.0966 14.9518 9.28401 16.9986 9.28401Z" fill="white"/>
<path d="M16.9986 9.28223V9.28401M16.9986 9.28401C19.0452 9.28401 21.0078 10.0966 22.4564 11.5431C23.9029 12.9914 24.7155 14.954 24.7155 17.0009C24.7155 19.0477 23.9029 21.0101 22.4564 22.4586C21.0081 23.9052 19.0455 24.7177 16.9986 24.7177C14.9518 24.7177 12.9894 23.9052 11.5409 22.4586C10.0943 21.0103 9.28178 19.0477 9.28178 17.0009C9.28178 14.954 10.0943 12.9917 11.5409 11.5431C12.9892 10.0966 14.9518 9.28401 16.9986 9.28401ZM16.9986 26.5461C19.531 26.5461 21.9581 25.5407 23.7493 23.7512C25.5387 21.96 26.5441 19.5331 26.5441 17.0006C26.5441 14.4681 25.5387 12.0411 23.7493 10.2499C21.9581 8.4605 19.5311 7.45508 16.9986 7.45508C14.4662 7.45508 12.0392 8.4605 10.248 10.2499C8.45855 12.0411 7.45312 14.4681 7.45312 17.0006C7.45491 19.5311 8.46211 21.9582 10.2515 23.7476C12.041 25.537 14.468 26.5443 16.9986 26.5461Z" stroke="#4F31B4" stroke-width="0.8"/>
<path d="M20.3059 15.172L20.0089 16.1852H14.3494L14.6463 15.172H20.3059ZM17.6508 22.002L14.4542 18.0892L14.4367 17.3555H16.0263C16.4397 17.3555 16.7919 17.2973 17.0831 17.1808C17.3742 17.0615 17.5969 16.8839 17.7512 16.6481C17.9055 16.4093 17.9827 16.1095 17.9827 15.7485C17.9827 15.2157 17.8225 14.7979 17.5023 14.4952C17.1821 14.1895 16.69 14.0366 16.0263 14.0366H14.3494L14.6463 13.0584H16.0263C16.7366 13.0584 17.3189 13.1763 17.773 13.4122C18.2301 13.6451 18.5678 13.9653 18.7862 14.3729C19.0074 14.7776 19.1181 15.2361 19.1181 15.7485C19.1181 16.2114 19.0162 16.6379 18.8124 17.028C18.6115 17.4152 18.2883 17.7267 17.8429 17.9625C17.4004 18.1983 16.8152 18.3162 16.0874 18.3162H16.0612L19.0133 21.9321V22.002H17.6508ZM20.3059 13.0584L20.0089 14.0716L15.5546 14.0366L15.8516 13.0584H20.3059Z" fill="white"/>
</svg>
