<svg width="36" height="26" viewBox="0 0 36 26" fill="none" xmlns="http://www.w3.org/2000/svg">
<path d="M28.2272 25.1819C23.9951 25.1819 20.5508 21.7376 20.5508 17.5055C20.5508 13.2734 23.9951 9.8291 28.2272 9.8291C32.4593 9.8291 35.9036 13.2734 35.9036 17.5055C35.9036 21.7376 32.4593 25.1819 28.2272 25.1819ZM28.2272 10.4841C24.3569 10.4841 21.2103 13.6307 21.2103 17.5009C21.2103 21.3712 24.3569 24.5178 28.2272 24.5178C32.0974 24.5178 35.244 21.3712 35.244 17.5009C35.244 13.6307 32.0974 10.4841 28.2272 10.4841Z" fill="white"/>
<path d="M30.5725 15.7914L30.3416 16.5794H25.9397L26.1707 15.7914H30.5725ZM28.5075 21.1035L26.0212 18.0602L26.0076 17.4896H27.244C27.5655 17.4896 27.8395 17.4443 28.0659 17.3538C28.2923 17.2609 28.4656 17.1228 28.5856 16.9394C28.7056 16.7537 28.7656 16.5205 28.7656 16.2397C28.7656 15.8253 28.6411 15.5004 28.392 15.2649C28.1429 15.0271 27.7602 14.9083 27.244 14.9083H25.9397L26.1707 14.1474H27.244C27.7965 14.1474 28.2493 14.2392 28.6026 14.4226C28.9581 14.6037 29.2207 14.8528 29.3906 15.1698C29.5626 15.4845 29.6487 15.8412 29.6487 16.2397C29.6487 16.5997 29.5694 16.9315 29.4109 17.2349C29.2547 17.536 29.0033 17.7783 28.6569 17.9617C28.3127 18.1451 27.8576 18.2369 27.2915 18.2369H27.2711L29.5672 21.0492V21.1035H28.5075ZM30.5725 14.1474L30.3416 14.9354L26.8771 14.9083L27.1081 14.1474H30.5725Z" fill="white"/>
<path d="M7.67639 25.1819C3.4443 25.1819 0 21.7376 0 17.5055C0 13.2734 3.4443 9.8291 7.67639 9.8291C11.9085 9.8291 15.3528 13.2734 15.3528 17.5055C15.3528 21.7376 11.9085 25.1819 7.67639 25.1819ZM7.67639 10.4841C3.80614 10.4841 0.659546 13.6307 0.659546 17.5009C0.659546 21.3712 3.80614 24.5178 7.67639 24.5178C11.5467 24.5178 14.6932 21.3712 14.6932 17.5009C14.6932 13.6307 11.5467 10.4841 7.67639 10.4841Z" fill="white"/>
<path d="M10.0218 15.7914L9.7908 16.5794H5.38891L5.61987 15.7914H10.0218ZM7.95668 21.1035L5.47043 18.0602L5.45684 17.4896H6.69317C7.01471 17.4896 7.28869 17.4443 7.51513 17.3538C7.74156 17.2609 7.91479 17.1228 8.0348 16.9394C8.15481 16.7537 8.21481 16.5205 8.21481 16.2397C8.21481 15.8253 8.09027 15.5004 7.8412 15.2649C7.59212 15.0271 7.20944 14.9083 6.69317 14.9083H5.38891L5.61987 14.1474H6.69317C7.24567 14.1474 7.69854 14.2392 8.05178 14.4226C8.40728 14.6037 8.66995 14.8528 8.83977 15.1698C9.01186 15.4845 9.09791 15.8412 9.09791 16.2397C9.09791 16.5997 9.01865 16.9315 8.86015 17.2349C8.70391 17.536 8.45257 17.7783 8.10612 17.9617C7.76194 18.1451 7.30681 18.2369 6.74072 18.2369H6.72034L9.01639 21.0492V21.1035H7.95668ZM10.0218 14.1474L9.7908 14.9354L6.32635 14.9083L6.55731 14.1474H10.0218Z" fill="white"/>
<circle cx="17.3443" cy="9.86965" r="9.50411" fill="#4F31B4" stroke="white" stroke-width="0.731085"/>
<path d="M20.3606 8.09489L20.0636 9.10803H14.404L14.701 8.09489H20.3606ZM17.7055 14.9248L14.5089 11.012L14.4914 10.2784H16.081C16.4944 10.2784 16.8466 10.2201 17.1378 10.1037C17.4289 9.98433 17.6516 9.80674 17.8059 9.57092C17.9602 9.3322 18.0373 9.03233 18.0373 8.67133C18.0373 8.13856 17.8772 7.72079 17.557 7.41802C17.2367 7.11233 16.7447 6.95949 16.081 6.95949H14.404L14.701 5.98129H16.081C16.7913 5.98129 17.3736 6.0992 17.8277 6.33501C18.2848 6.56792 18.6225 6.88816 18.8409 7.29574C19.0621 7.70041 19.1728 8.15894 19.1728 8.67133C19.1728 9.13423 19.0709 9.56073 18.8671 9.95085C18.6662 10.3381 18.343 10.6496 17.8976 10.8854C17.4551 11.1212 16.8699 11.2391 16.1421 11.2391H16.1159L19.0679 14.8549V14.9248H17.7055ZM20.3606 5.98129L20.0636 6.99442L15.6093 6.95949L15.9063 5.98129H20.3606Z" fill="white"/>
</svg>
