<svg width="12" height="11" viewBox="0 0 12 11" fill="none" xmlns="http://www.w3.org/2000/svg">
<path d="M11.6818 5.73764C11.8396 5.56226 11.9185 5.36057 11.9185 5.13257C11.9185 4.90458 11.8396 4.70289 11.6818 4.5275L7.47258 0.31832C7.29719 0.160476 7.0955 0.0815535 6.86751 0.0815535C6.63951 0.0815535 6.43782 0.160476 6.26244 0.31832C6.10459 0.493703 6.02567 0.695393 6.02567 0.92339C6.02567 1.15139 6.10459 1.35308 6.26244 1.52846L9.05102 4.29074H0.974649C0.729114 4.29074 0.527423 4.36966 0.369579 4.5275C0.211735 4.68535 0.132812 4.88704 0.132812 5.13257C0.132812 5.37811 0.211735 5.5798 0.369579 5.73764C0.527423 5.89549 0.729114 5.97441 0.974649 5.97441H9.05102L6.26244 8.73669C6.10459 8.91207 6.02567 9.11376 6.02567 9.34176C6.02567 9.56975 6.10459 9.77144 6.26244 9.94683C6.43782 10.1047 6.63951 10.1836 6.86751 10.1836C7.0955 10.1836 7.29719 10.1047 7.47258 9.94683L11.6818 5.73764Z" fill="white"/>
</svg>
