<svg width="203" height="147" viewBox="0 0 203 147" fill="none" xmlns="http://www.w3.org/2000/svg">
<path d="M182.193 134.331H20.2893C20.2893 134.331 -14.6206 116.414 7.14357 83.6746C17.833 67.5948 39.7764 76.621 39.7098 45.0049C39.6597 21.0813 53.7424 8.94922 70.0159 8.94922C88.2355 8.94922 95.2285 27.5714 118.009 25.0769C182.081 18.0606 161.819 55.9802 182.081 67.6131C226.996 93.3993 182.192 134.331 182.192 134.331H182.193Z" fill="#463B69"/>
<path d="M65.7812 35.2674V8.96191" stroke="white" stroke-width="1.4618" stroke-linecap="round" stroke-linejoin="round"/>
<path d="M65.7812 134.317V58.8325" stroke="white" stroke-width="1.4618" stroke-linecap="round" stroke-linejoin="round"/>
<path d="M160.258 39.8176V110.879" stroke="white" stroke-width="1.4618" stroke-linecap="round" stroke-linejoin="round"/>
<path d="M187.794 94.3939C187.899 93.6397 188.704 93.0794 189.816 92.8705C190.156 92.8067 190.384 92.4871 190.33 92.1456C190.232 91.5163 190.061 90.888 189.811 90.2725C189.535 89.5936 189.181 88.9703 188.763 88.409C188.568 88.1473 188.206 88.0739 187.927 88.2435C186.889 88.875 185.84 88.9981 185.247 88.4605C184.74 88.0009 184.682 87.1615 185.005 86.2437C185.122 85.9104 184.941 85.5429 184.605 85.4339C183.564 85.0969 182.454 84.9606 181.338 85.0513C181.002 85.0787 180.743 85.3632 180.754 85.7002C180.788 86.7639 180.442 87.617 179.766 87.891C179.091 88.1655 178.248 87.7944 177.531 87.0083C177.304 86.7593 176.92 86.7356 176.66 86.9504C175.789 87.6699 175.084 88.5494 174.571 89.5265C174.408 89.8375 174.533 90.226 174.847 90.3833C175.709 90.816 176.244 91.4543 176.201 92.1328C176.151 92.9248 175.327 93.564 174.158 93.8385C173.842 93.9129 173.635 94.2174 173.677 94.5398C173.77 95.2319 173.95 95.9236 174.225 96.6003C174.474 97.2135 174.787 97.7817 175.153 98.2996C175.35 98.5782 175.74 98.6502 176.025 98.4633C176.96 97.8514 177.916 97.6987 178.512 98.1624C179.095 98.6165 179.19 99.5512 178.851 100.583C178.744 100.91 178.921 101.263 179.247 101.377C180.398 101.779 181.638 101.933 182.884 101.804C183.193 101.772 183.434 101.52 183.451 101.21C183.5 100.322 183.839 99.631 184.434 99.3894C185.029 99.1477 185.754 99.4067 186.409 100.009C186.637 100.22 186.985 100.232 187.229 100.04C188.204 99.2703 188.982 98.3037 189.527 97.2231C189.682 96.9135 189.562 96.5346 189.254 96.3755C188.282 95.8716 187.69 95.1312 187.793 94.3943L187.794 94.3939ZM183.649 97.5199C181.412 98.4136 178.872 97.3403 177.953 95.1134C177.03 92.8737 178.137 90.2515 180.387 89.3528C182.624 88.4591 185.165 89.5325 186.083 91.7594C187.007 93.999 185.899 96.6212 183.649 97.5199Z" fill="white"/>
<path d="M71.2918 48.4543C71.5252 47.7293 72.4153 47.3172 73.5469 47.3039C73.8926 47.2998 74.1725 47.0244 74.1789 46.6788C74.1912 46.0418 74.131 45.3935 73.991 44.7437C73.8369 44.0274 73.5957 43.3522 73.2811 42.727C73.1343 42.4357 72.7905 42.3007 72.4864 42.4193C71.3552 42.8615 70.3005 42.8014 69.8095 42.1694C69.3895 41.6286 69.4771 40.7924 69.954 39.9443C70.1273 39.6361 70.0124 39.2431 69.7 39.0776C68.733 38.5655 67.6637 38.2395 66.548 38.1356C66.2124 38.1045 65.9088 38.3398 65.8609 38.6736C65.71 39.7268 65.2221 40.5074 64.5094 40.6606C63.7968 40.8138 63.0308 40.3032 62.4604 39.4049C62.2798 39.1204 61.9059 39.0306 61.6127 39.197C60.6301 39.7547 59.7834 40.4992 59.11 41.3728C58.8957 41.651 58.9518 42.055 59.2336 42.2642C60.0073 42.8392 60.4241 43.5605 60.2645 44.2217C60.0784 44.9931 59.1556 45.4801 57.9573 45.5485C57.6327 45.5672 57.3764 45.8312 57.3628 46.1558C57.3336 46.8534 57.3915 47.5657 57.5451 48.2801C57.6842 48.9271 57.8949 49.5409 58.1662 50.1144C58.3121 50.4227 58.6832 50.5613 58.9965 50.4263C60.0233 49.9854 60.9913 50 61.4974 50.5599C61.9935 51.1084 61.9251 52.045 61.413 53.0025C61.2502 53.3066 61.3638 53.685 61.6647 53.8533C62.7289 54.4483 63.9244 54.8149 65.1738 54.9029C65.4833 54.9248 65.7642 54.7187 65.8349 54.4164C66.0369 53.5501 66.4906 52.9282 67.1184 52.7932C67.7463 52.6582 68.4152 53.0385 68.9559 53.7452C69.1442 53.9914 69.4853 54.0639 69.7584 53.9171C70.8527 53.328 71.786 52.5105 72.5092 51.5402C72.7162 51.2625 72.6633 50.8686 72.3879 50.6584C71.517 49.9941 71.0629 49.1624 71.2909 48.4543H71.2918ZM66.6688 50.8166C64.3111 51.31 61.9944 49.8135 61.475 47.4612C60.9525 45.0953 62.4968 42.7047 64.8683 42.2082C67.226 41.7148 69.5427 43.2113 70.0621 45.5635C70.5846 47.9295 69.0403 50.3201 66.6688 50.8166Z" fill="white"/>
<path d="M52.8188 76.2398C53.0084 75.9111 53.4854 75.8035 54.0384 75.9156C54.2076 75.9498 54.3727 75.845 54.4119 75.6772C54.4844 75.368 54.5231 75.0457 54.5231 74.7147C54.5231 74.3494 54.4766 73.9952 54.3886 73.6573C54.3476 73.5 54.1939 73.3979 54.0334 73.4238C53.4357 73.521 52.9282 73.381 52.7549 73.0217C52.6067 72.7144 52.7371 72.3159 53.0586 71.9525C53.1753 71.8202 53.1607 71.6169 53.0258 71.5034C52.6081 71.1523 52.1211 70.8814 51.5881 70.7141C51.4281 70.6639 51.2553 70.7469 51.1969 70.9042C51.0132 71.4017 50.6935 71.7309 50.3297 71.7309C49.9658 71.7309 49.6467 71.4017 49.4625 70.9042C49.4041 70.7465 49.2313 70.6639 49.0713 70.7141C48.5341 70.8828 48.0431 71.1573 47.6231 71.5125C47.4895 71.6256 47.4745 71.8285 47.5899 71.9598C47.9067 72.3213 48.0344 72.7167 47.8871 73.0217C47.7157 73.3783 47.2151 73.5187 46.6237 73.4266C46.4636 73.4015 46.3109 73.5036 46.2703 73.6605C46.1832 73.9974 46.1367 74.3508 46.1367 74.7151C46.1367 75.0452 46.175 75.3662 46.2471 75.6744C46.2858 75.84 46.4522 75.9462 46.6191 75.9134C47.1658 75.8062 47.6359 75.9147 47.8242 76.2408C48.0084 76.5599 47.8771 77.0095 47.5269 77.4221C47.4157 77.5534 47.4316 77.7495 47.5607 77.863C48.0171 78.2647 48.561 78.5689 49.1611 78.7426C49.3097 78.7854 49.4684 78.7148 49.5341 78.5748C49.7233 78.1735 50.0096 77.9182 50.3297 77.9182C50.6498 77.9182 50.9361 78.1735 51.1253 78.5748C51.1915 78.7148 51.3497 78.7854 51.4983 78.7426C52.0933 78.5702 52.6341 78.2693 53.0882 77.8726C53.2182 77.7591 53.2337 77.5612 53.1215 77.4299C52.7668 77.015 52.6327 76.5617 52.8179 76.2408L52.8188 76.2398ZM50.3178 76.9064C49.1169 76.8996 48.1447 75.9275 48.1379 74.727C48.1311 73.5191 49.1346 72.5156 50.3425 72.5224C51.5435 72.5293 52.5156 73.5014 52.5224 74.7019C52.5292 75.9097 51.5257 76.9133 50.3178 76.9064Z" fill="white"/>
<path d="M171.161 82.4888C171.213 82.1127 171.614 81.8336 172.169 81.7297C172.338 81.6977 172.452 81.5386 172.425 81.3681C172.376 81.0544 172.291 80.7411 172.166 80.4343C172.029 80.096 171.852 79.785 171.644 79.505C171.546 79.3746 171.366 79.3382 171.227 79.4225C170.709 79.7371 170.187 79.7987 169.891 79.5306C169.638 79.3012 169.609 78.8831 169.77 78.4253C169.828 78.2589 169.738 78.0761 169.571 78.0218C169.052 77.8536 168.499 77.7856 167.942 77.8312C167.775 77.8449 167.646 77.9867 167.651 78.1545C167.668 78.6848 167.496 79.1102 167.159 79.247C166.822 79.3838 166.402 79.1991 166.044 78.807C165.931 78.683 165.74 78.6711 165.61 78.7782C165.176 79.1366 164.824 79.5753 164.569 80.0627C164.488 80.2177 164.55 80.4115 164.707 80.4899C165.136 80.7056 165.403 81.0238 165.382 81.3622C165.357 81.757 164.946 82.0757 164.363 82.2125C164.206 82.2495 164.102 82.4013 164.124 82.5622C164.17 82.9074 164.26 83.2521 164.397 83.5895C164.521 83.8955 164.677 84.1786 164.86 84.4367C164.958 84.5753 165.152 84.6113 165.294 84.5183C165.76 84.2133 166.237 84.1371 166.534 84.3683C166.825 84.5949 166.872 85.0604 166.703 85.5747C166.649 85.738 166.738 85.914 166.9 85.971C167.474 86.1716 168.093 86.2482 168.714 86.1839C168.867 86.1679 168.988 86.0425 168.996 85.888C169.021 85.4452 169.19 85.1005 169.486 84.9802C169.783 84.8598 170.144 84.9888 170.471 85.2893C170.585 85.3942 170.758 85.4001 170.879 85.3044C171.366 84.9209 171.753 84.439 172.025 83.9C172.103 83.7459 172.043 83.5567 171.889 83.4773C171.405 83.2261 171.11 82.8568 171.161 82.4897V82.4888ZM169.094 84.0468C167.979 84.4923 166.713 83.9575 166.255 82.8472C165.794 81.7306 166.346 80.4233 167.468 79.9756C168.583 79.5301 169.849 80.065 170.308 81.1752C170.768 82.2919 170.216 83.5991 169.094 84.0473V84.0468Z" fill="white"/>
<path d="M173.348 122.184C174.438 122.184 175.322 121.3 175.322 120.21C175.322 119.121 174.438 118.237 173.348 118.237C172.259 118.237 171.375 119.121 171.375 120.21C171.375 121.3 172.259 122.184 173.348 122.184Z" fill="white"/>
<path d="M145.638 45.4318C145.889 44.3711 145.232 43.3082 144.171 43.0579C143.11 42.8075 142.047 43.4645 141.797 44.5252C141.547 45.5859 142.204 46.6488 143.264 46.8991C144.325 47.1495 145.388 46.4925 145.638 45.4318Z" fill="white"/>
<path d="M11.6588 102.882C12.4295 102.112 12.4295 100.862 11.6588 100.091C10.8882 99.3208 9.6387 99.3208 8.86805 100.091C8.09739 100.862 8.0974 102.112 8.86805 102.882C9.6387 103.653 10.8882 103.653 11.6588 102.882Z" fill="white"/>
<path d="M132.725 28.4061C132.725 35.2158 127.804 46.5313 127.804 46.5313C115.242 52.114 103.129 52.4401 91.505 47.0671C91.505 47.0671 85.707 35.1698 85.707 28.1822C85.707 17.46 90.4148 7.55064 98.1952 3.37271C100.665 2.04633 103.296 2.63087 103.296 2.63087C103.296 2.63087 105.148 0 109.484 0C122.616 0 132.726 12.8416 132.726 28.4061H132.725Z" fill="#241F40"/>
<path d="M147.652 68.7848C146.669 64.5818 143.834 61.0408 139.931 59.1974C135.186 56.9564 129.295 56.5838 124.491 56.5118C86.7355 55.946 125.704 103.935 135.47 115.317C136.704 116.755 138.722 117.233 140.47 116.502L141.299 116.155C141.456 116.559 141.617 116.966 141.782 117.374C134.757 119.606 130.716 124.51 124.354 128.263C119.267 132.016 124.519 140.133 130.544 138.396C132.337 138.137 134.123 137.8 135.893 137.419C141.744 136.122 147.516 134.485 153.047 132.171C157.198 130.617 160.857 128.148 160.157 123.062C159.336 118.506 158.326 113.992 157.178 109.513L147.652 68.7839L147.652 68.7848Z" fill="#FFCB22"/>
<path d="M71.99 70.2051C73.4181 64.0998 78.1176 59.2831 84.1937 57.7342C87.9617 56.7735 92.0074 56.5642 95.4836 56.5118C133.239 55.946 94.2699 103.935 84.5037 115.317C83.2699 116.755 81.2518 117.233 79.5037 116.502L78.6752 116.155C78.5179 116.559 78.3574 116.966 78.1924 117.374C85.2173 119.606 89.2584 124.51 95.62 128.263C100.707 132.016 95.4554 140.133 89.4299 138.396C87.6371 138.137 85.8511 137.8 84.0815 137.419C78.2298 136.122 72.4578 134.485 66.9275 132.171C62.7765 130.617 59.117 128.148 59.8169 123.062C60.638 118.506 61.6484 113.992 62.7961 109.513L71.99 70.2046V70.2051Z" fill="#FFCB22"/>
<path d="M142.613 113.285L150.002 117.375L140.129 117.885L142.613 113.285Z" fill="#F4BB19"/>
<path d="M79.8464 112.753L69.9727 117.377L79.8464 117.887V112.753Z" fill="#F4BB19"/>
<path d="M141.045 135.871L79.3125 135.686L81.4838 72.9745C81.4838 63.7167 88.9888 56.2117 98.2466 56.2117H120.575C121.15 56.2117 121.719 56.2409 122.28 56.2974C130.737 57.1514 130.92 69.237 130.92 77.9193L141.045 135.871Z" fill="white"/>
<path d="M116.62 52.8963V39.8171H101.94V52.4526C101.94 54.3699 100.622 55.7966 98.75 56.2097C102.875 67.0565 114.53 66.6944 119.36 56.2097C117.721 55.8481 116.62 54.5737 116.62 52.8963Z" fill="#FFAEB1"/>
<path d="M116.617 47.0094V39.8171H101.938V47.1371C104.122 49.012 106.583 50.1414 109.191 50.1414C111.8 50.1414 114.382 48.9604 116.617 47.0094Z" fill="#EE8F98"/>
<path d="M125.699 24.0584C125.699 35.2585 118.275 48.95 109.191 48.95C100.108 48.95 92.8047 35.2581 92.8047 24.0584C92.8047 22.8063 92.8968 21.5803 93.0733 20.3916C94.4726 10.9414 101.184 3.77881 109.252 3.77881C112.928 3.77881 116.322 5.26614 119.061 7.77937C119.491 8.17332 119.904 8.59234 120.3 9.03553C121.054 9.87905 121.745 10.8074 122.361 11.8091C124.456 15.2128 125.699 19.4569 125.699 24.0589V24.0584Z" fill="#FFAEB1"/>
<path d="M91.9256 32.203C94.0116 32.203 95.7027 30.054 95.7027 27.4031C95.7027 24.7522 94.0116 22.6033 91.9256 22.6033C89.8395 22.6033 88.1484 24.7522 88.1484 27.4031C88.1484 30.054 89.8395 32.203 91.9256 32.203Z" fill="#FFAEB1"/>
<path d="M126.469 32.203C128.555 32.203 130.246 30.054 130.246 27.4031C130.246 24.7522 128.555 22.6033 126.469 22.6033C124.382 22.6033 122.691 24.7522 122.691 27.4031C122.691 30.054 124.382 32.203 126.469 32.203Z" fill="#FFAEB1"/>
<path d="M91.3031 33.2077H89.6552C88.7802 33.2077 88.0325 32.5771 87.8852 31.7144C87.3768 28.732 87.3768 25.7496 87.8852 22.7672C88.032 21.9045 88.7802 21.2739 89.6552 21.2739H91.3031C92.2943 21.2739 93.0982 22.0773 93.0982 23.069V31.413C93.0982 32.4043 92.2948 33.2081 91.3031 33.2081V33.2077Z" fill="#6737C4"/>
<path d="M127.135 33.2077H128.783C129.658 33.2077 130.406 32.5771 130.553 31.7144C131.061 28.732 131.061 25.7496 130.553 22.7672C130.406 21.9045 129.658 21.2739 128.783 21.2739H127.135C126.144 21.2739 125.34 22.0773 125.34 23.069V31.413C125.34 32.4043 126.143 33.2081 127.135 33.2081V33.2077Z" fill="#6737C4"/>
<path d="M126.471 31.675C126.471 31.675 122.047 40.066 111.961 41.3714" stroke="#6737C4" stroke-width="0.876805" stroke-linecap="round" stroke-linejoin="round"/>
<path d="M113.714 42.4439L111.415 42.8278C110.717 42.9446 110.056 42.4727 109.94 41.7746C109.823 41.0761 110.295 40.4158 110.993 40.2991L113.292 39.9152C113.99 39.7985 114.651 40.2704 114.767 40.9685C114.884 41.667 114.412 42.3272 113.714 42.4439Z" fill="#6737C4"/>
<path d="M138.35 90.0275C134.231 91.0275 115.469 94.3281 115.469 94.3281C117.408 81.6147 118.705 68.909 119.359 56.2115C135.34 55.5435 137.345 64.292 137.345 72.9743L138.35 90.0271L138.35 90.0275Z" fill="#FFCB22"/>
<path d="M79.7695 90.0275C83.8886 91.0275 103.275 94.3281 103.275 94.3281C100.527 83.1307 99.269 70.1264 98.7615 56.2115C82.7798 55.5435 80.7754 64.292 80.7754 72.9743L79.77 90.0271L79.7695 90.0275Z" fill="#FFCB22"/>
<path d="M103.961 3.7962C103.961 3.7962 108.653 24.2632 126.486 21.2913C126.486 21.2913 127.787 2.28561 103.961 3.7962Z" fill="#241F40"/>
<path d="M107.818 4.48189C107.818 4.48189 105.43 19.3429 92.3253 21.2916C92.3253 21.2916 89.7902 3.94614 107.818 4.48189Z" fill="#241F40"/>
<path d="M105.13 7.45752C105.13 7.45752 100.945 17.5082 91.2539 19.4907" stroke="#332F5B" stroke-width="0.487418" stroke-linecap="round" stroke-linejoin="round"/>
<path d="M90.6133 25.0959C90.6133 13.334 98.9349 3.79907 109.2 3.79907C119.466 3.79907 127.787 13.334 127.787 25.0959" stroke="#6737C4" stroke-width="0.876805" stroke-linecap="round" stroke-linejoin="round"/>
<path d="M109.277 8.96533C109.277 8.96533 115.135 18.2185 124.996 19.0005" stroke="#332F5B" stroke-width="0.487418" stroke-linecap="round" stroke-linejoin="round"/>
<path d="M126.473 9.50146C126.473 9.50146 142.747 32.3531 127.593 46.2881" stroke="#241F40" stroke-width="0.487418" stroke-linecap="round" stroke-linejoin="round"/>
<path d="M119.527 56.3C119.527 56.3 129.161 61.8787 124.338 87.5076" stroke="white" stroke-width="0.487418" stroke-linecap="round" stroke-linejoin="round"/>
<path d="M98.5893 56.3C98.5893 56.3 89.0717 61.8787 93.8957 87.5076" stroke="white" stroke-width="0.487418" stroke-linecap="round" stroke-linejoin="round"/>
<path d="M145.845 85.005L141.396 128.814L141.174 130.997C141.074 131.984 140.136 132.74 139.011 132.74H80.4784C79.3544 132.74 78.4156 131.984 78.3157 130.997L78.0942 128.814L73.6454 85.005C73.6103 83.7789 74.6686 82.7676 75.9863 82.7676H143.504C144.823 82.7676 145.88 83.7789 145.845 85.005H145.845Z" fill="#261753"/>
<path d="M108.992 111.93C111.95 111.93 114.348 109.832 114.348 107.244C114.348 104.656 111.95 102.558 108.992 102.558C106.035 102.558 103.637 104.656 103.637 107.244C103.637 109.832 106.035 111.93 108.992 111.93Z" fill="#AEAAF9"/>
<path d="M141.396 128.813L141.174 130.996C141.073 131.983 140.135 132.739 139.01 132.739H80.4779C79.354 132.739 78.4152 131.983 78.3153 130.996L78.0938 128.813H141.396Z" fill="#0B051E"/>
<path d="M90.0787 11.937C90.0787 11.937 79.7977 34.2037 90.6144 47.0671" stroke="#241F40" stroke-width="0.487418" stroke-linecap="round" stroke-linejoin="round"/>
<path d="M185.449 134.312H15.8516V146.572H185.449V134.312Z" fill="#EAEAEA"/>
<path d="M192.569 136.66H8.44728C7.49296 136.66 6.71875 135.562 6.71875 134.207C6.71875 132.852 7.49251 131.754 8.44728 131.754H192.569C193.523 131.754 194.298 132.852 194.298 134.207C194.298 135.562 193.524 136.66 192.569 136.66Z" fill="#AEAAF9"/>
<path d="M161.891 7.30469H198.672C199.388 7.30469 199.967 7.88467 199.967 8.59961V34.0493C199.967 34.7647 199.387 35.3442 198.672 35.3442H173.189C173.011 35.3442 172.839 35.4058 172.701 35.5188L164.928 41.9031C164.618 42.1576 164.152 41.9373 164.152 41.5366V36.1125" stroke="#6737C4" stroke-width="0.487418" stroke-linecap="round" stroke-linejoin="round"/>
<path d="M160.858 5.93506H197.639C198.355 5.93506 198.934 6.51503 198.934 7.22997V32.6797C198.934 33.3951 198.354 33.9746 197.639 33.9746H172.156C171.978 33.9746 171.806 34.0361 171.669 34.1492L163.895 40.5335C163.585 40.7879 163.119 40.5677 163.119 40.1669V34.7429C163.119 34.3188 162.775 33.975 162.351 33.975H160.857C160.142 33.975 159.562 33.3951 159.562 32.6801V7.23043C159.562 6.51503 160.142 5.93551 160.857 5.93551L160.858 5.93506Z" fill="#ADA9F8"/>
<path d="M183.726 12.959H165.441" stroke="#6737C4" stroke-width="0.487418" stroke-linecap="round" stroke-linejoin="round"/>
<path d="M193.268 12.959H187.449" stroke="#6737C4" stroke-width="0.487418" stroke-linecap="round" stroke-linejoin="round"/>
<path d="M172.31 19.6252H165.441" stroke="#6737C4" stroke-width="0.487418" stroke-linecap="round" stroke-linejoin="round"/>
<path d="M193.271 19.6252H176.629" stroke="#6737C4" stroke-width="0.487418" stroke-linecap="round" stroke-linejoin="round"/>
<path d="M189.563 26.2935H165.441" stroke="#6737C4" stroke-width="0.487418" stroke-linecap="round" stroke-linejoin="round"/>
<path d="M43.3562 19.8262H2.96165C2.17603 19.8262 1.53906 20.4631 1.53906 21.2483V49.198C1.53906 49.9836 2.17603 50.6201 2.96165 50.6201H30.9483C31.1434 50.6201 31.3326 50.6881 31.4836 50.8116L40.0204 57.8233C40.3606 58.1028 40.8726 57.8607 40.8726 57.4207V51.4636" stroke="#6737C4" stroke-width="0.487418" stroke-linecap="round" stroke-linejoin="round"/>
<path d="M44.473 18.3242H4.07884C3.29322 18.3242 2.65625 18.9612 2.65625 19.7468V47.6965C2.65625 48.4821 3.29322 49.1186 4.07884 49.1186H32.0655C32.2606 49.1186 32.4498 49.1866 32.6008 49.3101L41.1376 56.3218C41.4778 56.6013 41.9898 56.3592 41.9898 55.9192V49.9621C41.9898 49.4962 42.3673 49.1186 42.8333 49.1186H44.4739C45.2595 49.1186 45.896 48.4817 45.896 47.6965V19.7468C45.896 18.9612 45.259 18.3242 44.4739 18.3242H44.473Z" fill="#ADA9F8"/>
<path d="M19.3594 26.0347H39.4393" stroke="#6737C4" stroke-width="0.487418" stroke-linecap="round" stroke-linejoin="round"/>
<path d="M8.87891 26.0347H15.2687" stroke="#6737C4" stroke-width="0.487418" stroke-linecap="round" stroke-linejoin="round"/>
<path d="M31.8984 33.3577H39.4413" stroke="#6737C4" stroke-width="0.487418" stroke-linecap="round" stroke-linejoin="round"/>
<path d="M8.87891 33.3577H27.1559" stroke="#6737C4" stroke-width="0.487418" stroke-linecap="round" stroke-linejoin="round"/>
<path d="M12.9531 40.6804H39.4442" stroke="#6737C4" stroke-width="0.487418" stroke-linecap="round" stroke-linejoin="round"/>
<path d="M39.6027 124.553C39.3496 124.553 39.191 124.539 39.1641 124.537L39.2739 123.316C39.2972 123.317 41.7293 123.507 43.2909 122.073C44.1905 121.247 44.6469 120.018 44.6469 118.419C44.6469 116.821 44.212 115.568 43.3538 114.906C42.0133 113.872 40.0418 114.373 40.0222 114.378L39.7108 113.192C39.8152 113.165 42.2906 112.536 44.103 113.934C45.278 114.841 45.8735 116.35 45.8735 118.419C45.8735 120.379 45.2812 121.915 44.1126 122.983C42.5783 124.386 40.5 124.552 39.6027 124.552V124.553Z" fill="white"/>
<path d="M41.0243 111.729L40.0002 129.077C39.9487 129.946 39.6396 130.719 39.1699 131.287C38.6652 131.897 37.9744 132.271 37.2171 132.271H30.789C29.3267 132.271 28.1121 130.878 28.0058 129.077L26.9818 111.73C26.9567 111.296 27.3005 110.932 27.7341 110.932H40.2715C40.7051 110.932 41.0494 111.296 41.0239 111.73L41.0243 111.729Z" fill="white"/>
<path d="M32.8671 101.116C34.002 103.75 32.636 106.002 32.636 106.002C32.636 106.002 33.1594 104.277 32.2183 101.334C31.455 98.9481 33.4877 96.9766 33.4877 96.9766C33.4877 96.9766 31.9748 99.0443 32.8671 101.116Z" fill="white"/>
<path d="M34.5787 104.077C33.6499 106.756 35.1842 108.866 35.1842 108.866C35.1842 108.866 34.4784 106.667 35.31 103.855C35.9748 101.605 34.2422 100.191 34.2422 100.191C34.2422 100.191 35.3493 101.856 34.5791 104.077H34.5787Z" fill="white"/>
</svg>
