<svg width="33" height="32" viewBox="0 0 33 32" fill="none" xmlns="http://www.w3.org/2000/svg">
<g clip-path="url(#clip0_2276_6878)">
<g clip-path="url(#clip1_2276_6878)">
<rect width="33" height="32" fill="white"/>
<path d="M16.9584 8.66602C17.8424 8.66602 18.6903 9.01721 19.3154 9.64233C19.9405 10.2675 20.2917 11.1153 20.2917 11.9994C20.2917 12.4371 20.2055 12.8706 20.038 13.275C19.8705 13.6794 19.6249 14.0469 19.3154 14.3564C19.0059 14.6659 18.6384 14.9115 18.234 15.079C17.8296 15.2465 17.3961 15.3327 16.9584 15.3327C16.0743 15.3327 15.2265 14.9815 14.6014 14.3564C13.9762 13.7313 13.625 12.8834 13.625 11.9994C13.625 11.1153 13.9762 10.2675 14.6014 9.64233C15.2265 9.01721 16.0743 8.66602 16.9584 8.66602ZM16.9584 2.66602C19.4337 2.66602 21.8077 3.64935 23.558 5.39969C25.3084 7.15003 26.2917 9.524 26.2917 11.9994C26.2917 18.9994 16.9584 29.3327 16.9584 29.3327C16.9584 29.3327 7.625 18.9994 7.625 11.9994C7.625 9.524 8.60833 7.15003 10.3587 5.39969C12.1091 3.64935 14.483 2.66602 16.9584 2.66602ZM16.9584 5.33268C15.1903 5.33268 13.4946 6.03506 12.2443 7.28531C10.9941 8.53555 10.2917 10.2313 10.2917 11.9994C10.2917 13.3327 10.2917 15.9994 16.9584 24.946C23.625 15.9994 23.625 13.3327 23.625 11.9994C23.625 10.2313 22.9227 8.53555 21.6724 7.28531C20.4222 6.03506 18.7265 5.33268 16.9584 5.33268Z" fill="#4F31B4"/>
</g>
</g>
<defs>
<clipPath id="clip0_2276_6878">
<rect width="33" height="32" fill="white"/>
</clipPath>
<clipPath id="clip1_2276_6878">
<rect width="33" height="32" fill="white"/>
</clipPath>
</defs>
</svg>
