<svg width="52" height="52" viewBox="0 0 52 52" fill="none" xmlns="http://www.w3.org/2000/svg">
<rect x="0.188339" y="0.188339" width="51.6233" height="51.6233" rx="10.759" fill="#080219" stroke="url(#paint0_linear_800_1061)" stroke-width="0.376677"/>
<path d="M8.71918 26.2192H10.3973C10.7812 33.9858 17.0142 40.2676 24.7808 40.6027V42.2808C24.7808 42.6648 25.1161 43 25.5 43C25.8839 43 26.2192 42.6648 26.2192 42.2808V40.6027C33.9858 40.2188 40.2676 33.9858 40.6027 26.2192H42.2808C42.6648 26.2192 43 25.8839 43 25.5C43 25.1161 42.6648 24.7808 42.2808 24.7808H40.6027C40.2188 17.0142 33.9858 10.7324 26.2192 10.3973V8.71918C26.2192 8.33524 25.8839 8 25.5 8C25.1161 8 24.7808 8.33524 24.7808 8.71918V10.3973C17.0142 10.7812 10.7324 17.0142 10.3973 24.7808H8.71918C8.33524 24.7808 8 25.1161 8 25.5C8 25.8839 8.33524 26.2192 8.71918 26.2192ZM24.7808 11.8356V13.465C24.7808 13.8489 25.1161 14.1842 25.5 14.1842C25.8839 14.1842 26.2192 13.8489 26.2192 13.465V11.8356C33.2201 12.2196 38.8292 17.8288 39.1644 24.7808H37.535C37.1511 24.7808 36.8158 25.1161 36.8158 25.5C36.8158 25.8839 37.1511 26.2192 37.535 26.2192H39.1644C38.7804 33.2201 33.1712 38.8292 26.2192 39.1644V37.535C26.2192 37.1511 25.8839 36.8158 25.5 36.8158C25.1161 36.8158 24.7808 37.1511 24.7808 37.535V39.1644C17.7799 38.7804 12.1708 33.1712 11.8356 26.2192H13.465C13.8489 26.2192 14.1842 25.8839 14.1842 25.5C14.1842 25.1161 13.8489 24.7808 13.465 24.7808H11.8356C12.1709 17.7799 17.7799 12.1708 24.7808 11.8356Z" fill="white"/>
<path d="M19.0282 33.122C19.4121 33.122 19.7474 32.7867 19.7474 32.4028C19.7474 28.7114 22.3356 25.6905 25.5008 25.6905C28.6659 25.6905 31.2542 28.7114 31.2542 32.4028C31.2542 32.7867 31.5894 33.122 31.9734 33.122C32.3573 33.122 32.6926 32.7867 32.6926 32.4028C32.6926 28.9024 30.726 25.9302 28.0423 24.7315C28.9057 24.0124 29.4319 22.958 29.4319 21.7593C29.4319 19.6018 27.7051 17.875 25.5476 17.875C23.39 17.875 21.6632 19.6018 21.6632 21.7593C21.6632 22.958 22.1914 24.0124 23.0529 24.7315C20.3204 25.8815 18.4026 28.8556 18.4026 32.4028C18.3089 32.7867 18.6442 33.122 19.0282 33.122ZM23.0548 21.7594C23.0548 20.4166 24.1579 19.3135 25.5008 19.3135C26.8436 19.3135 27.9468 20.4166 27.9468 21.7594C27.9468 23.1023 26.8436 24.2054 25.5008 24.2054C24.1579 24.2054 23.0548 23.1023 23.0548 21.7594Z" fill="white"/>
<defs>
<linearGradient id="paint0_linear_800_1061" x1="6.10578" y1="6.62987" x2="69.2589" y2="52.9321" gradientUnits="userSpaceOnUse">
<stop stop-color="#A901A3"/>
<stop offset="0.360577" stop-color="#6F41D2"/>
</linearGradient>
</defs>
</svg>
