<svg width="52" height="52" viewBox="0 0 52 52" fill="none" xmlns="http://www.w3.org/2000/svg">
<rect x="0.188339" y="0.188339" width="51.6233" height="51.6233" rx="10.759" fill="#080219" stroke="url(#paint0_linear_800_1063)" stroke-width="0.376677"/>
<path d="M33.8741 19.7148H29.517C28.9179 19.7148 28.4277 20.205 28.4277 20.8041C28.4277 21.4033 28.9179 21.8934 29.517 21.8934H31.249L26.2491 26.8933L24.8439 25.4882C24.4191 25.0633 23.7328 25.0633 23.308 25.4882L17.8616 30.9346C17.4368 31.3594 17.4368 32.0457 17.8616 32.4705C18.2864 32.8953 18.9727 32.8953 19.3975 32.4705L24.0704 27.7975L25.4756 29.2027C25.9004 29.6275 26.5867 29.6275 27.0115 29.2027L32.7737 23.4404V25.1724C32.7737 25.7716 33.2639 26.2617 33.863 26.2617C34.4621 26.2617 34.9523 25.7716 34.9523 25.1724V20.8153C34.9523 20.2489 34.4621 19.726 33.863 19.726L33.8741 19.7148Z" fill="white"/>
<path d="M26.25 11C17.8407 11 11 17.8407 11 26.25C11 34.6593 17.8407 41.5 26.25 41.5C34.6593 41.5 41.5 34.6593 41.5 26.25C41.5 17.8407 34.6593 11 26.25 11ZM26.25 39.3214C19.0388 39.3214 13.1786 33.4612 13.1786 26.25C13.1786 19.0388 19.0388 13.1786 26.25 13.1786C33.4612 13.1786 39.3214 19.0388 39.3214 26.25C39.3214 33.4612 33.4612 39.3214 26.25 39.3214Z" fill="white"/>
<defs>
<linearGradient id="paint0_linear_800_1063" x1="6.10578" y1="6.62987" x2="69.2589" y2="52.9321" gradientUnits="userSpaceOnUse">
<stop stop-color="#A901A3"/>
<stop offset="0.360577" stop-color="#6F41D2"/>
</linearGradient>
</defs>
</svg>
