<svg width="52" height="52" viewBox="0 0 52 52" fill="none" xmlns="http://www.w3.org/2000/svg">
<rect x="0.188339" y="0.188339" width="51.6233" height="51.6233" rx="10.759" fill="#080219" stroke="url(#paint0_linear_800_1064)" stroke-width="0.376677"/>
<path d="M38.2222 11H13.7778C13.0413 11.0009 12.3353 11.2938 11.8146 11.8146C11.2938 12.3353 11.0009 13.0413 11 13.7778V31.5556C11.0009 32.292 11.2938 32.998 11.8146 33.5188C12.3353 34.0395 13.0413 34.3325 13.7778 34.3333H23.1485L22.7318 37.6667H20.4444C20.0026 37.6672 19.5789 37.8429 19.2665 38.1554C18.954 38.4678 18.7783 38.8915 18.7778 39.3333V40.4444C18.7778 40.5918 18.8363 40.7331 18.9405 40.8373C19.0447 40.9415 19.186 41 19.3333 41H32.6667C32.814 41 32.9553 40.9415 33.0595 40.8373C33.1637 40.7331 33.2222 40.5918 33.2222 40.4444V39.3333C33.2217 38.8915 33.046 38.4678 32.7335 38.1554C32.4211 37.8429 31.9974 37.6672 31.5556 37.6667H29.2682L28.8515 34.3333H38.2222C38.9587 34.3325 39.6647 34.0395 40.1855 33.5188C40.7062 32.998 40.9991 32.292 41 31.5556V13.7778C40.9991 13.0413 40.7062 12.3353 40.1855 11.8146C39.6647 11.2938 38.9587 11.0009 38.2222 11ZM13.7778 12.1111H38.2222C38.6641 12.1116 39.0877 12.2873 39.4002 12.5998C39.7127 12.9123 39.8884 13.3359 39.8889 13.7778V14.3333H12.1111V13.7778C12.1116 13.3359 12.2873 12.9123 12.5998 12.5998C12.9123 12.2873 13.3359 12.1116 13.7778 12.1111ZM39.8889 28.7778H12.1111V15.4444H39.8889V28.7778ZM32.1111 39.3333V39.8889H19.8889V39.3333C19.889 39.186 19.9475 39.0448 20.0517 38.9406C20.1559 38.8364 20.2971 38.7779 20.4444 38.7778H31.5556C31.7029 38.7779 31.8441 38.8364 31.9483 38.9406C32.0525 39.0448 32.111 39.186 32.1111 39.3333ZM28.1484 37.6667H23.8516L24.2682 34.3333H27.7318L28.1484 37.6667ZM38.2222 33.2222H13.7778C13.3359 33.2217 12.9123 33.046 12.5998 32.7335C12.2873 32.4211 12.1116 31.9974 12.1111 31.5556V29.8889H39.8889V31.5556C39.8884 31.9974 39.7127 32.4211 39.4002 32.7335C39.0877 33.046 38.6641 33.2217 38.2222 33.2222Z" fill="white"/>
<path d="M13.7785 27.1113C13.8957 27.1113 14.0099 27.0741 14.1046 27.005L18.478 23.8242C18.7318 24.0348 19.0295 24.1859 19.3493 24.2665C19.669 24.3471 20.0028 24.3551 20.3261 24.29C20.6494 24.2249 20.954 24.0882 21.2176 23.89C21.4813 23.6919 21.6972 23.4372 21.8496 23.1448L27.1163 24.3812C27.1201 24.7111 27.1973 25.036 27.3425 25.3323C27.4876 25.6286 27.697 25.8888 27.9553 26.094C28.2136 26.2992 28.5144 26.4442 28.8359 26.5186C29.1573 26.5929 29.4913 26.5947 29.8135 26.5237C30.1357 26.4528 30.438 26.3109 30.6985 26.1085C30.959 25.906 31.171 25.648 31.3193 25.3533C31.4675 25.0585 31.5482 24.7345 31.5555 24.4046C31.5628 24.0748 31.4964 23.7475 31.3613 23.4465L37.4482 18.9327L37.119 20.9088C37.1061 20.9811 37.1077 21.0553 37.1236 21.127C37.1396 21.1987 37.1696 21.2665 37.212 21.3265C37.2544 21.3866 37.3082 21.4376 37.3704 21.4767C37.4326 21.5157 37.502 21.5421 37.5745 21.5542C37.6469 21.5663 37.7211 21.5639 37.7926 21.5471C37.8641 21.5304 37.9316 21.4996 37.9912 21.4566C38.0507 21.4136 38.1012 21.3592 38.1396 21.2965C38.178 21.2339 38.2035 21.1643 38.2148 21.0917L38.7704 17.7583V17.7534C38.7821 17.678 38.7782 17.6011 38.7588 17.5273C38.7504 17.5059 38.7406 17.4851 38.7295 17.4649C38.7152 17.4194 38.6949 17.3761 38.6692 17.3359C38.665 17.3304 38.6585 17.3279 38.6542 17.3224C38.6506 17.318 38.6501 17.3121 38.6464 17.3077C38.6288 17.2923 38.6101 17.2781 38.5906 17.2652C38.5564 17.2312 38.5179 17.2018 38.4761 17.1779C38.4499 17.1662 38.4228 17.1567 38.3951 17.1493C38.3511 17.1334 38.3052 17.1233 38.2585 17.1192C38.2458 17.1184 38.2349 17.1113 38.2224 17.1113H34.8891C34.7417 17.1113 34.6004 17.1699 34.4962 17.274C34.392 17.3782 34.3335 17.5195 34.3335 17.6669C34.3335 17.8142 34.392 17.9555 34.4962 18.0597C34.6004 18.1639 34.7417 18.2224 34.8891 18.2224H36.5406L30.6785 22.5696C30.4227 22.3727 30.1269 22.2344 29.8119 22.1642C29.4969 22.094 29.1703 22.0937 28.8552 22.1634C28.5401 22.233 28.244 22.3709 27.9879 22.5673C27.7318 22.7636 27.5219 23.0138 27.3729 23.3001L22.1065 22.0637C22.0948 21.4785 21.8526 20.9217 21.4324 20.5142C21.0123 20.1068 20.4483 19.8817 19.8631 19.888C19.2778 19.8943 18.7188 20.1314 18.3075 20.5478C17.8962 20.9641 17.666 21.5261 17.6668 22.1113C17.6679 22.3901 17.722 22.6661 17.8262 22.9247L13.4513 26.1066C13.3565 26.1756 13.2859 26.2729 13.2497 26.3844C13.2136 26.496 13.2136 26.6162 13.25 26.7278C13.2863 26.8393 13.357 26.9365 13.4519 27.0054C13.5469 27.0743 13.6612 27.1114 13.7785 27.1113ZM29.3335 23.2224C29.6277 23.2241 29.9093 23.3417 30.1174 23.5497C30.3254 23.7577 30.443 24.0394 30.4446 24.3336C30.4446 24.6282 30.3276 24.9109 30.1192 25.1192C29.9108 25.3276 29.6282 25.4447 29.3335 25.4447C29.0388 25.4447 28.7562 25.3276 28.5478 25.1192C28.3395 24.9109 28.2224 24.6282 28.2224 24.3336C28.223 24.2474 28.2329 24.1616 28.2521 24.0776V24.076C28.3087 23.8321 28.4466 23.6147 28.6431 23.4596C28.8397 23.3045 29.0831 23.2209 29.3335 23.2224ZM19.8891 21.0002C20.1836 21.0006 20.4661 21.1177 20.6744 21.326C20.8827 21.5343 20.9998 21.8167 21.0002 22.1113C20.9996 22.1975 20.9897 22.2833 20.9705 22.3673V22.3689C20.9216 22.5765 20.8138 22.7656 20.6601 22.9134C20.5063 23.0612 20.3131 23.1614 20.1038 23.2021C19.8944 23.2428 19.6777 23.2221 19.4798 23.1426C19.2819 23.0631 19.1112 22.9281 18.9881 22.7539C18.8495 22.5686 18.7757 22.3428 18.778 22.1113C18.7783 21.8167 18.8955 21.5343 19.1038 21.326C19.3121 21.1177 19.5945 21.0006 19.8891 21.0002Z" fill="white"/>
<path d="M27.1098 31H24.8876C24.7402 31 24.5989 31.0585 24.4947 31.1627C24.3906 31.2669 24.332 31.4082 24.332 31.5556C24.332 31.7029 24.3906 31.8442 24.4947 31.9484C24.5989 32.0526 24.7402 32.1111 24.8876 32.1111H27.1098C27.2572 32.1111 27.3985 32.0526 27.5026 31.9484C27.6068 31.8442 27.6654 31.7029 27.6654 31.5556C27.6654 31.4082 27.6068 31.2669 27.5026 31.1627C27.3985 31.0585 27.2572 31 27.1098 31Z" fill="white"/>
<defs>
<linearGradient id="paint0_linear_800_1064" x1="6.10578" y1="6.62987" x2="69.2589" y2="52.9321" gradientUnits="userSpaceOnUse">
<stop stop-color="#A901A3"/>
<stop offset="0.360577" stop-color="#6F41D2"/>
</linearGradient>
</defs>
</svg>
