<svg width="52" height="52" viewBox="0 0 52 52" fill="none" xmlns="http://www.w3.org/2000/svg">
<rect x="0.188339" y="0.188339" width="51.6233" height="51.6233" rx="10.759" fill="#080219" stroke="url(#paint0_linear_772_1211)" stroke-width="0.376677"/>
<path d="M26.3319 11C26.2339 11.0014 26.136 11.0154 26.0422 11.0448L13.1845 14.997H13.1859C12.7674 15.1244 12.4819 15.5093 12.4805 15.9459V29.0093C12.4805 33.1672 16.0087 36.5121 19.3215 38.9054C22.6343 41.2987 25.933 42.7627 25.933 42.7627L25.9316 42.7613C26.1891 42.8761 26.483 42.8761 26.7405 42.7613C26.7405 42.7613 30.0336 41.2974 33.3465 38.904C36.6593 36.5108 40.1876 33.1658 40.1876 29.0079L40.1862 15.9459C40.1862 15.5107 39.9035 15.1272 39.4892 14.997L26.6247 11.0448C26.5295 11.0154 26.4313 11 26.3319 11ZM26.3361 13.0349L38.1946 16.6794V29.008C38.1946 31.968 35.3031 35.0429 32.1862 37.2947C29.2709 39.401 26.7026 40.5431 26.3375 40.7096C25.9695 40.5444 23.4055 39.4024 20.4889 37.2961C17.3721 35.0442 14.4708 31.9681 14.4708 29.0094V16.6808L26.3361 13.0349ZM31.3897 21.0809C31.1266 21.0851 30.8761 21.1929 30.6927 21.3804L24.7266 27.4279L21.9793 24.6442C21.7945 24.4553 21.5412 24.3489 21.2753 24.3475C21.0108 24.3461 20.7561 24.4497 20.5685 24.6372C20.381 24.822 20.2732 25.0753 20.2718 25.3398C20.2704 25.6043 20.374 25.859 20.5601 26.0466L24.0142 29.551H24.0156C24.2017 29.7414 24.4579 29.8477 24.7238 29.8477C24.9897 29.8477 25.2444 29.7413 25.432 29.551L32.1107 22.7787H32.1121C32.2969 22.5898 32.4004 22.3351 32.3976 22.0691C32.3948 21.8046 32.2857 21.5527 32.0967 21.368C31.9078 21.1818 31.6542 21.0795 31.3897 21.0809Z" fill="white"/>
<defs>
<linearGradient id="paint0_linear_772_1211" x1="6.10578" y1="6.62987" x2="69.2589" y2="52.9321" gradientUnits="userSpaceOnUse">
<stop stop-color="#A901A3"/>
<stop offset="0.360577" stop-color="#6F41D2"/>
</linearGradient>
</defs>
</svg>
