<svg width="52" height="52" viewBox="0 0 52 52" fill="none" xmlns="http://www.w3.org/2000/svg">
<rect x="0.188339" y="0.188339" width="51.6233" height="51.6233" rx="10.759" fill="#080219" stroke="url(#paint0_linear_800_1062)" stroke-width="0.376677"/>
<path d="M38.9991 38.3227C38.9991 38.9407 38.4974 39.4424 37.8794 39.4424L12.1197 39.4438C11.5017 39.4438 11 38.942 11 38.3241C11 37.7062 11.5017 37.2044 12.1197 37.2044H14.3057V30.1403C14.3057 29.5224 14.8075 29.0207 15.4254 29.0207C16.0447 29.0207 16.5451 29.5224 16.5451 30.1403V37.2044H20.823V26.7458C20.823 26.1279 21.3247 25.6262 21.9427 25.6262C22.562 25.6262 23.0623 26.1279 23.0623 26.7458V37.2044H27.3402V22.1428C27.3402 21.5249 27.842 21.0232 28.4599 21.0232C29.0792 21.0232 29.5796 21.5249 29.5796 22.1428V37.2044H33.8589L33.8616 18.1096C33.8616 17.4917 34.3633 16.9899 34.9813 16.9899C35.6006 16.9899 36.101 17.4917 36.101 18.1096V37.203H37.8796C38.4975 37.203 38.9991 37.7048 38.9991 38.3227ZM17.3465 24.4847C17.5365 24.4847 17.7293 24.4368 17.9056 24.3343L28.6471 18.1343C28.5008 18.7249 28.8535 19.3264 29.4441 19.4851C29.5412 19.511 29.6382 19.5233 29.7339 19.5233C30.2288 19.5233 30.6813 19.1939 30.8153 18.6935L31.5085 16.1042C31.585 15.8171 31.5454 15.5122 31.3964 15.2538C31.2473 14.9968 31.004 14.8095 30.7169 14.7316L28.1262 14.0384C27.5288 13.8785 26.9149 14.2326 26.7549 14.83C26.5964 15.4206 26.9422 16.0262 27.526 16.1944L16.7856 22.3943C16.2497 22.7033 16.0665 23.3882 16.3755 23.9242C16.5833 24.2837 16.9596 24.4847 17.3465 24.4847Z" fill="white"/>
<defs>
<linearGradient id="paint0_linear_800_1062" x1="6.10578" y1="6.62987" x2="69.2589" y2="52.9321" gradientUnits="userSpaceOnUse">
<stop stop-color="#A901A3"/>
<stop offset="0.360577" stop-color="#6F41D2"/>
</linearGradient>
</defs>
</svg>
