<svg width="22" height="22" viewBox="0 0 22 22" fill="none" xmlns="http://www.w3.org/2000/svg">
<path d="M18.709 8.70139C19.0642 8.70139 19.4049 8.56029 19.656 8.30914C19.9072 8.05798 20.0483 7.71735 20.0483 7.36216V6.17918C20.0485 6.12033 20.0332 6.06246 20.0038 6.01148C19.9743 5.96051 19.9319 5.91825 19.8808 5.88902L11.6915 1.17942C11.4879 1.06188 11.257 1 11.0219 1C10.7868 1 10.5559 1.06188 10.3523 1.17942L2.16741 5.89348C2.11633 5.92271 2.07392 5.96497 2.04451 6.01595C2.0151 6.06693 1.99974 6.1248 2.00001 6.18365V7.36663C1.99897 7.70436 2.12558 8.03002 2.35447 8.27836C2.58336 8.5267 2.89762 8.67939 3.23432 8.70585V16.1609H3.01112C2.74571 16.1614 2.49137 16.2673 2.30391 16.4552C2.11645 16.6431 2.01117 16.8976 2.01117 17.163V18.6652C2.01117 18.754 2.04644 18.8391 2.10923 18.9019C2.17202 18.9647 2.25718 19 2.34597 19H19.709C19.7978 19 19.8829 18.9647 19.9457 18.9019C20.0085 18.8391 20.0438 18.754 20.0438 18.6652V17.1519C20.0438 16.8865 19.9385 16.6319 19.751 16.444C19.5636 16.2561 19.3092 16.1503 19.0438 16.1497H18.5974V8.70139H18.709ZM10.6893 1.75975C10.7911 1.70098 10.9066 1.67004 11.0241 1.67004C11.1417 1.67004 11.2571 1.70098 11.3589 1.75975L18.4568 5.84884H3.58698L10.6893 1.75975ZM2.66962 7.36663V6.51845H19.3742V7.36663C19.3742 7.54422 19.3036 7.71454 19.1781 7.84011C19.0525 7.96569 18.8822 8.03624 18.7046 8.03624H3.33476C3.15795 8.03506 2.98877 7.96399 2.86416 7.83854C2.73955 7.71309 2.66961 7.54345 2.66962 7.36663ZM14.2271 16.1497C14.191 15.5533 13.9896 14.9787 13.6455 14.4903C13.3013 14.0019 12.828 13.6189 12.2785 13.3842C12.6418 13.1191 12.9119 12.7458 13.0502 12.3178C13.1885 11.8899 13.1879 11.4291 13.0485 11.0015C12.909 10.5739 12.6379 10.2014 12.2739 9.93723C11.9099 9.67307 11.4717 9.53081 11.0219 9.53081C10.5721 9.53081 10.1339 9.67307 9.76991 9.93723C9.4059 10.2014 9.13478 10.5739 8.99534 11.0015C8.8559 11.4291 8.85528 11.8899 8.99357 12.3178C9.13186 12.7458 9.40197 13.1191 9.76526 13.3842C9.21578 13.6189 8.74248 14.0019 8.39833 14.4903C8.05419 14.9787 7.85279 15.5533 7.81669 16.1497H6.35248V8.70139H15.486V16.1497H14.2271ZM9.55991 11.6655C9.55859 11.3761 9.6432 11.0928 9.80304 10.8515C9.96288 10.6102 10.1907 10.4217 10.4578 10.3101C10.7248 10.1984 11.019 10.1685 11.303 10.2241C11.587 10.2798 11.8482 10.4185 12.0533 10.6227C12.2584 10.8269 12.3983 11.0874 12.4553 11.3711C12.5122 11.6549 12.4837 11.9492 12.3732 12.2168C12.2628 12.4843 12.0754 12.713 11.8348 12.874C11.5943 13.0349 11.3113 13.1208 11.0219 13.1208C10.6355 13.1202 10.265 12.9669 9.99112 12.6943C9.71727 12.4217 9.56227 12.0519 9.55991 11.6655ZM13.5575 16.1497H8.4863C8.53289 15.509 8.82026 14.9098 9.29065 14.4724C9.76103 14.0349 10.3796 13.7918 11.0219 13.7918C11.6642 13.7918 12.2828 14.0349 12.7531 14.4724C13.2235 14.9098 13.5109 15.509 13.5575 16.1497ZM3.90393 8.70139H5.68956V16.1497H3.90393V8.70139ZM19.3742 17.1519V18.3192H2.66962V17.1519C2.66962 17.0641 2.70435 16.9798 2.76624 16.9175C2.82812 16.8552 2.91214 16.8199 2.99996 16.8193H19.0438C19.1317 16.8199 19.2157 16.8552 19.2776 16.9175C19.3394 16.9798 19.3742 17.0641 19.3742 17.1519ZM17.9234 16.1497H16.1556V8.70139H17.9412L17.9234 16.1497Z" fill="white"/>
</svg>
