<svg width="38" height="40" viewBox="0 0 38 40" fill="none" xmlns="http://www.w3.org/2000/svg">
<path d="M24.8946 23.9649C20.5076 23.9649 16.9375 20.3947 16.9375 16.0078C16.9375 11.6209 20.5076 8.05078 24.8946 8.05078C29.2815 8.05078 32.8516 11.6209 32.8516 16.0078C32.8516 20.3947 29.2815 23.9649 24.8946 23.9649ZM24.8946 9.38135C21.2322 9.38135 18.2549 12.3587 18.2549 16.021C18.2549 19.6834 21.2322 22.6607 24.8946 22.6607C28.5569 22.6607 31.5342 19.6834 31.5342 16.021C31.5342 12.3587 28.5569 9.38135 24.8946 9.38135Z" fill="#959595"/>
<path d="M24.8937 21.0015C22.1405 21.0015 19.9141 18.7619 19.9141 16.0217C19.9141 13.2816 22.1536 11.042 24.8937 11.042C27.6338 11.042 29.8735 13.2816 29.8735 16.0217C29.8735 18.7619 27.6338 21.0015 24.8937 21.0015ZM24.8937 12.03C22.6937 12.03 20.902 13.8218 20.902 16.0217C20.902 18.2218 22.6937 20.0135 24.8937 20.0135C27.0938 20.0135 28.8854 18.2218 28.8854 16.0217C28.8854 13.8218 27.0938 12.03 24.8937 12.03Z" fill="#959595"/>
<path d="M9.15789 32.1724C7.03689 32.1724 5.42969 30.5256 5.42969 28.3256V14.796C5.42969 12.9517 6.72072 11.0547 8.89442 11.0547H15.0993C15.4682 11.0547 15.758 11.3445 15.758 11.7134C15.758 12.0822 15.4682 12.372 15.0993 12.372H8.89442C7.31355 12.372 6.7339 13.8606 6.7339 14.796V28.3256C6.7339 29.5771 7.57702 30.855 9.15789 30.855L23.9521 30.8287C25.9809 30.8287 26.3498 30.1964 26.3498 28.9317V26.1651C26.3498 25.7962 26.6396 25.5063 27.0085 25.5063C27.3774 25.5063 27.6672 25.7962 27.6672 26.1651V28.9317C27.6672 31.8036 25.5462 32.1461 23.9521 32.1461L9.15789 32.1724Z" fill="#959595"/>
<path d="M12.443 16.1396C12.2718 16.1396 12.1005 16.0737 11.9687 15.942C11.7184 15.6785 11.7184 15.2702 11.9687 15.0067L15.3017 11.7527L11.837 8.61736C11.5603 8.36705 11.5472 7.95872 11.7843 7.68206C12.0346 7.41859 12.443 7.3922 12.7197 7.62932L16.7113 11.2389C16.8431 11.3575 16.9221 11.5288 16.9221 11.7132C16.9221 11.8976 16.8562 12.0689 16.7244 12.2006L12.8909 15.942C12.7592 16.0737 12.6011 16.1264 12.4298 16.1264L12.443 16.1396Z" fill="#959595"/>
</svg>
