<svg width="38" height="39" viewBox="0 0 38 39" fill="none" xmlns="http://www.w3.org/2000/svg">
<g clip-path="url(#clip0_905_4882)">
<path d="M29.9658 14.472L6.27927 14.4192C5.38345 14.4192 4.65888 13.6947 4.67205 12.7989V12.3246C4.68523 11.6791 5.08044 11.0995 5.66009 10.8492L6.09483 10.6647C6.45052 10.5198 6.80623 10.3618 7.10922 10.23L16.9369 5.61916C17.7141 5.27664 18.5837 5.28982 19.3477 5.61916L30.6377 10.6647C31.2306 10.915 31.6126 11.4947 31.6126 12.1533C31.6126 12.4827 31.6126 12.5091 31.6126 12.5486C31.6126 12.5882 31.6126 12.6539 31.6126 12.8648C31.6126 13.7474 30.888 14.472 29.9922 14.472H29.9658ZM18.1226 6.68616C17.8987 6.68616 17.6746 6.73883 17.4639 6.81787L7.63616 11.4155C7.32 11.5604 6.95114 11.7054 6.59545 11.8636L6.1607 12.048C6.05532 12.1007 5.97627 12.2061 5.97627 12.3246V12.7989C5.97627 12.9438 6.108 13.0886 6.27927 13.0886L29.9658 13.1414C30.1371 13.1414 30.2688 13.0096 30.2688 12.8385C30.2688 12.4696 30.2688 12.4299 30.2688 12.3903C30.2688 12.364 30.2688 12.2983 30.2688 12.127C30.2688 12.0085 30.203 11.903 30.0844 11.8504L18.8076 6.80469C18.5837 6.71247 18.3598 6.65979 18.1226 6.65979V6.68616Z" fill="white"/>
<path d="M19.3588 8.91518L17.1457 8.91016L17.1406 11.1233L19.3538 11.1283L19.3588 8.91518Z" fill="white"/>
<path d="M8.45801 15.6992L7.14062 15.7007L7.15341 26.1741L8.4708 26.1725L8.45801 15.6992Z" fill="white"/>
<path d="M15.1534 15.7705L13.8359 15.7721L13.8487 26.2453L15.1661 26.2436L15.1534 15.7705Z" fill="white"/>
<path d="M22.3877 18.2002V15.6973H21.0703V19.1358C21.4788 18.7801 21.9266 18.4637 22.3877 18.2002Z" fill="white"/>
<path d="M26.3707 32.5322C22.379 32.5322 19.125 29.2914 19.125 25.2866C19.125 21.2817 22.379 18.041 26.3707 18.041C30.3624 18.041 33.6163 21.2949 33.6163 25.2866C33.6163 29.2783 30.3624 32.5322 26.3707 32.5322ZM26.3707 19.3715C23.1036 19.3715 20.4424 22.0327 20.4424 25.2998C20.4424 28.5669 23.1036 31.228 26.3707 31.228C29.6378 31.228 32.2988 28.5669 32.2988 25.2998C32.2988 22.0327 29.6378 19.3715 26.3707 19.3715Z" fill="white"/>
<path d="M25.1588 28.5145C24.9877 28.5145 24.8164 28.4485 24.6846 28.3169L22.6032 26.1432C22.3528 25.8797 22.366 25.4581 22.6163 25.2079C22.8798 24.9575 23.3013 24.9707 23.5517 25.221L25.1984 26.9467L29.414 23.2579C29.6907 23.0208 30.099 23.0472 30.3494 23.3239C30.5865 23.6005 30.5601 24.0088 30.2835 24.2592L25.5936 28.3565C25.4751 28.4618 25.317 28.5145 25.1588 28.5145Z" fill="white"/>
<path d="M29.0986 17.5412V15.6836H27.7812V17.2118C28.2422 17.2909 28.677 17.3962 29.0986 17.5412Z" fill="white"/>
<path d="M18.5808 27.501H5.56495C5.19608 27.501 4.90625 27.7908 4.90625 28.1597C4.90625 28.5286 5.19608 28.8184 5.56495 28.8184H19.0682C18.8706 28.3968 18.6993 27.9621 18.5675 27.501H18.5808Z" fill="white"/>
</g>
<defs>
<clipPath id="clip0_905_4882">
<rect width="37.44" height="38.61" fill="white" transform="translate(0.421875)"/>
</clipPath>
</defs>
</svg>
