<svg width="22" height="22" viewBox="0 0 22 22" fill="none" xmlns="http://www.w3.org/2000/svg">
<g clip-path="url(#clip0_399_5231)">
<path d="M21.0772 2.40383V2.39621C21.0772 2.37335 21.0696 2.35049 21.062 2.33525C21.062 2.32763 21.0544 2.32001 21.0544 2.32001C21.0467 2.29715 21.0391 2.28191 21.0239 2.25905C21.0163 2.24381 21.001 2.22095 20.9858 2.20571C20.9858 2.19809 20.9782 2.19809 20.9782 2.19047C20.9629 2.17523 20.9477 2.15999 20.9324 2.14475C20.9324 2.14475 20.9324 2.14475 20.9248 2.14475C20.9172 2.13713 20.902 2.12951 20.8944 2.12189C20.8867 2.12189 20.8791 2.11427 20.8791 2.11427C20.8715 2.11427 20.8715 2.10665 20.8639 2.10665C20.8258 2.09141 20.7801 2.07617 20.742 2.07617C20.7343 2.07617 20.7267 2.07617 20.7267 2.07617C20.7115 2.07617 20.6886 2.07617 20.6734 2.07617C20.6658 2.07617 20.6658 2.07617 20.6581 2.07617C20.6353 2.07617 20.62 2.08379 20.5972 2.09141C20.5896 2.09141 20.5819 2.09903 20.5743 2.09903C20.5515 2.10665 20.5362 2.11427 20.5134 2.12951L20.2695 2.27429L19.2485 2.86864L18.7608 2.48764L18.3341 2.15999C18.2655 2.10665 18.1741 2.07617 18.0902 2.08379C18.0826 2.08379 18.0674 2.08379 18.0598 2.08379C18.0521 2.08379 18.0445 2.08379 18.0369 2.08379C17.9378 2.08379 17.8388 2.12189 17.7702 2.19809C17.7473 2.22095 17.7321 2.24381 17.7169 2.26667L16.8101 2.86864L15.8424 2.15999C15.7128 2.06093 15.53 2.06093 15.4004 2.15999L14.4098 2.86102L13.6555 2.25905L13.5488 2.17523C13.5412 2.16761 13.5259 2.15999 13.5183 2.15237C13.5107 2.14475 13.5031 2.14475 13.4955 2.13713H13.4878C13.4193 2.09903 13.3354 2.08379 13.2592 2.09141C13.2516 2.09141 13.244 2.09141 13.244 2.09141C13.2288 2.09141 13.2135 2.09903 13.1983 2.09903C13.1907 2.09903 13.183 2.10665 13.1678 2.10665C13.1602 2.10665 13.1449 2.11427 13.1373 2.11427C13.1297 2.11427 13.1297 2.12189 13.1221 2.12189C13.1068 2.12951 13.0992 2.13713 13.084 2.14475L12.9925 2.21333L12.101 2.84578L11.3162 2.17523C11.2171 2.09141 11.08 2.06093 10.958 2.09903H10.9504C10.9123 2.11427 10.8742 2.12951 10.8437 2.15237L10.2113 2.6248L9.92174 2.84578L9.06069 2.17523L9.04545 2.15999C8.87781 2.03045 8.6416 2.06855 8.51206 2.22857C8.43586 2.33525 8.413 2.46479 8.4511 2.57908V2.60956C8.40538 3.23439 8.04725 8.19493 7.2624 12.5002H1.64656C1.53226 12.5002 1.42558 12.5535 1.34938 12.6373C1.2808 12.7211 1.25032 12.843 1.26556 12.9497C2.16471 17.5674 3.21625 19.7238 4.59545 19.7238H16.4977C17.9302 19.7238 19.0046 17.4226 19.8961 12.4849C20.5591 8.80452 20.9172 4.67455 21.0467 3.11247L21.0696 2.83054C21.0696 2.82292 21.0696 2.80768 21.0696 2.80006V2.44193C21.0772 2.42669 21.0772 2.41907 21.0772 2.40383ZM16.4977 18.9618C16.0786 18.9618 14.989 18.3598 13.9222 12.7973C13.8917 12.6145 13.7317 12.4849 13.5488 12.4849H8.00915C8.67208 8.81976 9.02259 4.73551 9.14451 3.20391L9.66266 3.60777C9.73124 3.6611 9.81506 3.68396 9.89126 3.69158C9.97508 3.69158 10.0513 3.66872 10.1199 3.61539L11.0266 2.9296L11.3848 3.23439L11.8115 3.60015C11.941 3.71444 12.1391 3.72206 12.2763 3.62301L13.2669 2.92198L13.4955 3.10485L14.1203 3.60777C14.1736 3.64586 14.227 3.67634 14.2879 3.68396C14.3032 3.68396 14.326 3.69158 14.3413 3.69158C14.4251 3.69158 14.5013 3.66872 14.5699 3.62301L15.5757 2.91436L16.5358 3.61539C16.6653 3.70682 16.8406 3.71444 16.9701 3.62301L17.0082 3.60015L18.0445 2.91436L18.9437 3.61539L18.9513 3.62301C18.9665 3.63063 18.9741 3.63825 18.9894 3.64586C18.997 3.64586 19.0046 3.65348 19.0122 3.65348C19.0199 3.6611 19.0351 3.6611 19.0427 3.66872C19.0503 3.66872 19.058 3.67634 19.0656 3.67634C19.0732 3.67634 19.0884 3.68396 19.0961 3.68396C19.1037 3.68396 19.1113 3.68396 19.1189 3.68396C19.1265 3.68396 19.1418 3.68396 19.1494 3.68396C19.157 3.68396 19.157 3.68396 19.1646 3.68396C19.1723 3.68396 19.1799 3.68396 19.1799 3.68396C19.1875 3.68396 19.1951 3.68396 19.2027 3.68396C19.2104 3.68396 19.2256 3.68396 19.2332 3.67634C19.2408 3.67634 19.2485 3.67634 19.2561 3.66872C19.2637 3.66872 19.2789 3.6611 19.2866 3.6611C19.2942 3.6611 19.3018 3.65348 19.3094 3.65348C19.317 3.65348 19.3247 3.64587 19.3323 3.63825C19.3399 3.63825 19.3475 3.63063 19.3551 3.63063L19.7437 3.40203L20.239 3.11247C20.1019 4.71265 19.7514 8.75118 19.1037 12.3401C18.075 18.3141 16.9396 18.9618 16.4977 18.9618ZM4.59545 18.9618C4.19159 18.9618 3.15529 18.3903 2.11137 13.2469H7.09477H7.48338H7.87199H13.244C13.8155 16.1272 14.4556 18.0017 15.2023 18.9618H5.39553H4.59545ZM19.0961 5.93183C19.0961 6.14518 18.9284 6.31282 18.7151 6.31282H10.1046C9.89126 6.31282 9.72362 6.14518 9.72362 5.93183C9.72362 5.71847 9.89126 5.55083 10.1046 5.55083H18.7151C18.9284 5.55083 19.0961 5.71847 19.0961 5.93183ZM18.4103 8.06539C18.4103 8.27875 18.2426 8.44638 18.0293 8.44638H9.34263C9.12927 8.44638 8.96163 8.27875 8.96163 8.06539C8.96163 7.85203 9.12927 7.6844 9.34263 7.6844H18.0293C18.2426 7.6844 18.4103 7.85203 18.4103 8.06539Z" fill="white" stroke="#4F31B4" stroke-width="0.1"/>
</g>
<defs>
<clipPath id="clip0_399_5231">
<rect width="21.8" height="21.8" fill="white"/>
</clipPath>
</defs>
</svg>
