<svg width="22" height="22" viewBox="0 0 22 22" fill="none" xmlns="http://www.w3.org/2000/svg">
<path d="M19.0287 19.083H2.15507C1.90534 19.083 1.70312 19.2854 1.70312 19.535C1.70312 19.7845 1.90534 19.9869 2.15507 19.9869H19.0287C19.2784 19.9869 19.4807 19.7845 19.4807 19.535C19.4804 19.2856 19.2784 19.083 19.0287 19.083Z" fill="white" stroke="#4F31B4" stroke-width="0.2"/>
<path d="M19.4753 6.76006C19.4738 6.74892 19.4734 6.73715 19.4711 6.72622C19.4677 6.71109 19.4621 6.69637 19.4572 6.68166C19.453 6.66862 19.4501 6.65517 19.4446 6.64256C19.4389 6.6289 19.4308 6.6167 19.4236 6.60388C19.4167 6.59148 19.411 6.57824 19.4028 6.56646C19.395 6.55511 19.3849 6.54481 19.3759 6.53388C19.3662 6.52211 19.3572 6.51013 19.3467 6.4992C19.3383 6.491 19.3286 6.48448 19.3196 6.47649C19.3057 6.46472 19.2922 6.45274 19.2767 6.44265C19.2752 6.44181 19.2739 6.44034 19.272 6.43908L10.8352 1.07079C10.6872 0.976404 10.498 0.976404 10.3501 1.07079L1.9127 6.43972C1.91123 6.44056 1.90997 6.44204 1.90808 6.4433C1.89273 6.45318 1.87907 6.46537 1.8652 6.47714C1.85616 6.48471 1.84628 6.49164 1.83808 6.49984C1.82715 6.51035 1.81853 6.52276 1.80886 6.53453C1.79982 6.54546 1.78994 6.55555 1.78195 6.56711C1.77418 6.57888 1.76808 6.59191 1.76114 6.60453C1.75421 6.61756 1.7458 6.62975 1.74012 6.6432C1.73466 6.65582 1.73171 6.66906 1.72751 6.6823C1.72267 6.69702 1.717 6.71152 1.71364 6.72687C1.71132 6.7378 1.7109 6.74957 1.70943 6.76071C1.70712 6.77942 1.70397 6.79771 1.70376 6.81642C1.70376 6.81831 1.70312 6.81999 1.70312 6.82188C1.70312 6.83176 1.70544 6.8408 1.70607 6.85047C1.70733 6.86876 1.70817 6.88726 1.71153 6.90533C1.71427 6.91921 1.71868 6.93224 1.72246 6.94548C1.72667 6.9602 1.73024 6.97533 1.73634 6.98984C1.74264 7.0056 1.75084 7.01969 1.75904 7.0344C1.76451 7.04428 1.76808 7.05458 1.77418 7.06425C1.77544 7.06614 1.77691 7.06719 1.77817 7.06909C1.78721 7.08275 1.79814 7.09473 1.80823 7.10734C1.81706 7.11827 1.82504 7.12963 1.83471 7.1393C1.84228 7.14686 1.8509 7.15296 1.8591 7.16011C1.87318 7.17251 1.88685 7.18533 1.90219 7.19563C1.90766 7.1992 1.91354 7.20173 1.91943 7.20488C1.93877 7.21665 1.95811 7.22842 1.9785 7.23704C1.98523 7.23978 1.99237 7.24125 1.99931 7.24377C2.02012 7.25134 2.04093 7.2589 2.06258 7.26332C2.06952 7.26479 2.07667 7.26479 2.0836 7.26605C2.10631 7.26962 2.12901 7.27278 2.15192 7.27299C2.15318 7.27299 2.15465 7.2732 2.15591 7.2732H19.0296C19.0649 7.2732 19.0989 7.26815 19.1319 7.26058C19.141 7.25848 19.1494 7.25512 19.1584 7.25239C19.1826 7.24524 19.2061 7.23641 19.2284 7.22527C19.2387 7.22022 19.2484 7.21497 19.2583 7.20908C19.2797 7.19647 19.2995 7.18218 19.3186 7.1662C19.3264 7.1599 19.3344 7.15422 19.3417 7.14728C19.3667 7.12353 19.389 7.09704 19.4079 7.06803C19.4088 7.06656 19.4102 7.06572 19.4113 7.06404C19.4174 7.05437 19.421 7.04407 19.4264 7.03419C19.4342 7.01947 19.4426 7.00518 19.4491 6.98963C19.4548 6.97512 19.4588 6.9602 19.463 6.94527C19.467 6.93203 19.4714 6.91879 19.4739 6.90512C19.4773 6.88683 19.4786 6.86876 19.4794 6.85026C19.48 6.84059 19.4823 6.83134 19.4823 6.82167C19.4823 6.81978 19.4817 6.8181 19.4817 6.81621C19.4805 6.79708 19.4777 6.77837 19.475 6.76008L19.4753 6.76006ZM10.5924 1.98813L17.4767 6.36884H3.70807L10.5924 1.98813Z" fill="white" stroke="#4F31B4" stroke-width="0.2"/>
<path d="M4.14231 15.8528C3.89258 15.8528 3.69036 16.0552 3.69036 16.3047V17.1506H2.99101C2.74128 17.1506 2.53906 17.353 2.53906 17.6025C2.53906 17.8521 2.74128 18.0545 2.99101 18.0545H4.63629C4.63713 18.0545 4.63818 18.0547 4.63923 18.0547H6.69484C6.69568 18.0547 6.69673 18.0545 6.69778 18.0545H9.56419C9.56503 18.0545 9.56608 18.0547 9.56714 18.0547H11.6248C11.6257 18.0547 11.6267 18.0545 11.6278 18.0545H14.494C14.4948 18.0545 14.4959 18.0547 14.4969 18.0547H16.5525C16.5534 18.0547 16.5544 18.0545 16.5555 18.0545H18.2008C18.4505 18.0545 18.6527 17.8521 18.6527 17.6025C18.6527 17.353 18.4505 17.1506 18.2008 17.1506H17.5014V16.3047C17.5014 16.0552 17.2992 15.8528 17.0495 15.8528H17.0049V10.4908H17.0495C17.2992 10.4908 17.5014 10.2883 17.5014 10.0388V9.19358H18.2008C18.4505 9.19358 18.6527 8.99115 18.6527 8.74164C18.6527 8.49212 18.4505 8.28969 18.2008 8.28969H16.5584C16.5563 8.28969 16.5544 8.28906 16.5527 8.28906H14.4971C14.495 8.28906 14.4931 8.28969 14.4914 8.28969H11.6309C11.6288 8.28969 11.6269 8.28906 11.6253 8.28906H9.56755C9.56544 8.28906 9.56355 8.28969 9.56187 8.28969H6.70138C6.69928 8.28969 6.69739 8.28906 6.69571 8.28906H4.6401C4.638 8.28906 4.6361 8.28969 4.63442 8.28969H2.99205C2.74232 8.28969 2.5401 8.49212 2.5401 8.74164C2.5401 8.99115 2.74232 9.19358 2.99205 9.19358H3.6914V10.0388C3.6914 10.2883 3.89362 10.4908 4.14334 10.4908H4.18791V15.8528H4.14231ZM4.63882 16.7579C4.88854 16.7579 5.09076 16.5544 5.09076 16.3049L5.09097 10.0389C5.09097 9.78938 4.88875 9.58696 4.63903 9.58696H4.59447V9.19408H6.74134V9.58696H6.69467C6.44495 9.58696 6.24273 9.78938 6.24273 10.0389V16.3071C6.24273 16.5566 6.44495 16.7579 6.69467 16.7579C6.69762 16.7579 6.70035 16.7571 6.7035 16.7571H6.74155V17.1498H4.59467V16.7571H4.63062C4.63314 16.7569 4.63588 16.7579 4.63882 16.7579ZM11.669 16.7568V17.1495H9.52209V16.7568H9.5553C9.5593 16.7568 9.56287 16.7581 9.56708 16.7581C9.8168 16.7581 10.019 16.5557 10.019 16.3062V10.038C10.019 9.7885 9.8168 9.58607 9.56708 9.58607C9.56413 9.58607 9.5614 9.58691 9.55825 9.58691H9.5223V9.19403H11.6692V9.58691H11.6332C11.6303 9.58691 11.6276 9.58607 11.6244 9.58607C11.4056 9.58607 11.2233 9.7412 11.1815 9.94763C11.1754 9.97706 11.1722 10.0075 11.1722 10.0389V10.0403V16.3036V16.3051C11.1722 16.3364 11.1756 16.3669 11.1815 16.3963C11.2233 16.6028 11.4058 16.7583 11.6244 16.7583C11.6284 16.7583 11.6322 16.7571 11.6362 16.7571L11.669 16.7568ZM14.45 9.58679V9.19391H16.5969V9.58679H16.561C16.558 9.58679 16.5553 9.58595 16.5521 9.58595C16.3024 9.58595 16.1002 9.78837 16.1002 10.0379V16.306C16.1002 16.5556 16.3024 16.758 16.5521 16.758C16.5561 16.758 16.5599 16.7567 16.5639 16.7567H16.5967V17.1494H14.45V16.7567H14.4853C14.4893 16.7567 14.4929 16.758 14.4971 16.758C14.7468 16.758 14.9491 16.5556 14.9491 16.306V10.0379C14.9491 9.78837 14.7468 9.58595 14.4971 9.58595C14.4942 9.58595 14.4914 9.58679 14.4883 9.58679H14.45ZM13.9979 10.4907H14.0445V15.8527H13.9979C13.7481 15.8527 13.5459 16.0551 13.5459 16.3046V17.1505H12.5731V16.3046C12.5731 16.0551 12.3709 15.8527 12.1212 15.8527H12.0766V10.4907H12.1212C12.3709 10.4907 12.5731 10.2883 12.5731 10.0387V9.1935H13.5459V10.0387C13.5459 10.2883 13.7481 10.4907 13.9979 10.4907ZM8.61823 9.19352V10.0388C8.61823 10.2883 8.82045 10.4907 9.07017 10.4907H9.11474V15.8527H9.07017C8.82045 15.8527 8.61823 16.0551 8.61823 16.3046V17.1505L7.6454 17.1507V16.3049C7.6454 16.0553 7.44318 15.8529 7.19345 15.8529H7.14679L7.14657 10.4907H7.19324C7.44297 10.4907 7.64519 10.2883 7.64519 10.0388V9.19352L8.61823 9.19352Z" fill="white" stroke="#4F31B4" stroke-width="0.2"/>
</svg>
