<svg width="22" height="22" viewBox="0 0 22 22" fill="none" xmlns="http://www.w3.org/2000/svg">
<path d="M4.77214 16.8333C5.88047 16.8333 6.7513 15.9625 6.7513 14.8542C6.7513 13.7458 5.88047 12.875 4.77214 12.875C3.6638 12.875 2.79297 13.7458 2.79297 14.8542C2.79297 15.9625 3.6638 16.8333 4.77214 16.8333ZM4.77214 13.6667C5.40547 13.6667 5.95964 14.2208 5.95964 14.8542C5.95964 15.4875 5.40547 16.0417 4.77214 16.0417C4.1388 16.0417 3.58464 15.4875 3.58464 14.8542C3.58464 14.2208 4.1388 13.6667 4.77214 13.6667Z" fill="white" stroke="#4F31B4" stroke-width="0.1"/>
<path d="M15.4609 14.8542C15.4609 15.9625 16.3318 16.8333 17.4401 16.8333C18.5484 16.8333 19.4193 15.9625 19.4193 14.8542C19.4193 13.7458 18.5484 12.875 17.4401 12.875C16.3318 12.875 15.4609 13.7458 15.4609 14.8542ZM18.6276 14.8542C18.6276 15.4875 18.0734 16.0417 17.4401 16.0417C16.8068 16.0417 16.2526 15.4875 16.2526 14.8542C16.2526 14.2208 16.8068 13.6667 17.4401 13.6667C18.0734 13.6667 18.6276 14.2208 18.6276 14.8542Z" fill="white" stroke="#4F31B4" stroke-width="0.1"/>
<path d="M9.125 14.8542C9.125 15.9625 9.99583 16.8333 11.1042 16.8333C12.2125 16.8333 13.0833 15.9625 13.0833 14.8542C13.0833 13.7458 12.2125 12.875 11.1042 12.875C9.99583 12.875 9.125 13.7458 9.125 14.8542ZM12.2917 14.8542C12.2917 15.4875 11.7375 16.0417 11.1042 16.0417C10.4708 16.0417 9.91667 15.4875 9.91667 14.8542C9.91667 14.2208 10.4708 13.6667 11.1042 13.6667C11.7375 13.6667 12.2917 14.2208 12.2917 14.8542Z" fill="white" stroke="#4F31B4" stroke-width="0.1"/>
<path d="M4.77083 12.083C5.00833 12.083 5.16667 11.9247 5.16667 11.6872C5.16667 11.4497 5.325 11.2913 5.5625 11.2913H10.7083V11.6872C10.7083 11.9247 10.8667 12.083 11.1042 12.083C11.3417 12.083 11.5 11.9247 11.5 11.6872V11.2913H16.6458C16.8833 11.2913 17.0417 11.4497 17.0417 11.6872C17.0417 11.9247 17.2 12.083 17.4375 12.083C17.675 12.083 17.8333 11.9247 17.8333 11.6872C17.8333 11.0538 17.2792 10.4997 16.6458 10.4997H11.5V10.1038C11.5 9.86634 11.3417 9.70801 11.1042 9.70801C10.8667 9.70801 10.7083 9.86634 10.7083 10.1038V10.4997H5.5625C4.92917 10.4997 4.375 11.0538 4.375 11.6872C4.375 11.9247 4.53333 12.083 4.77083 12.083Z" fill="white" stroke="#4F31B4" stroke-width="0.1"/>
<path d="M5.5625 8.91667H16.6458C17.2792 8.91667 17.8333 8.3625 17.8333 7.72917V2.1875C17.8333 1.55417 17.2792 1 16.6458 1H5.5625C4.92917 1 4.375 1.55417 4.375 2.1875V7.72917C4.375 8.3625 4.92917 8.91667 5.5625 8.91667ZM5.16667 2.1875C5.16667 1.95 5.325 1.79167 5.5625 1.79167H16.6458C16.8833 1.79167 17.0417 1.95 17.0417 2.1875V7.72917C17.0417 7.96667 16.8833 8.125 16.6458 8.125H5.5625C5.325 8.125 5.16667 7.96667 5.16667 7.72917V2.1875Z" fill="white" stroke="#4F31B4" stroke-width="0.1"/>
<path d="M6.35677 6.14551C6.83177 6.14551 7.14844 6.46217 7.14844 6.93717C7.14844 7.17467 7.30677 7.33301 7.54427 7.33301H14.6693C14.9068 7.33301 15.0651 7.17467 15.0651 6.93717C15.0651 6.46217 15.3818 6.14551 15.8568 6.14551C16.0943 6.14551 16.2526 5.98717 16.2526 5.74967V4.16634C16.2526 3.92884 16.0943 3.77051 15.8568 3.77051C15.3818 3.77051 15.0651 3.45384 15.0651 2.97884C15.0651 2.74134 14.9068 2.58301 14.6693 2.58301H7.54427C7.30677 2.58301 7.14844 2.74134 7.14844 2.97884C7.14844 3.45384 6.83177 3.77051 6.35677 3.77051C6.11927 3.77051 5.96094 3.92884 5.96094 4.16634V5.74967C5.96094 5.98717 6.11927 6.14551 6.35677 6.14551ZM6.7526 4.48301C7.30677 4.40384 7.78177 3.92884 7.86094 3.37467H14.2734C14.4318 3.92884 14.8276 4.40384 15.3818 4.48301V5.35384C14.8276 5.51217 14.3526 5.90801 14.2734 6.46217H7.86094C7.78177 5.98717 7.30677 5.51217 6.7526 5.43301V4.48301Z" fill="white" stroke="#4F31B4" stroke-width="0.1"/>
<path d="M5.95833 17.625H3.58333C2.7125 17.625 2 18.3375 2 19.2083V19.6042C2 19.8417 2.15833 20 2.39583 20C2.63333 20 2.79167 19.8417 2.79167 19.6042V19.2083C2.79167 18.7333 3.10833 18.4167 3.58333 18.4167H5.95833C6.43333 18.4167 6.75 18.7333 6.75 19.2083V19.6042C6.75 19.8417 6.90833 20 7.14583 20C7.38333 20 7.54167 19.8417 7.54167 19.6042V19.2083C7.54167 18.3375 6.82917 17.625 5.95833 17.625Z" fill="white" stroke="#4F31B4" stroke-width="0.1"/>
<path d="M12.2943 17.625H9.91927C9.04844 17.625 8.33594 18.3375 8.33594 19.2083V19.6042C8.33594 19.8417 8.49427 20 8.73177 20C8.96927 20 9.1276 19.8417 9.1276 19.6042V19.2083C9.1276 18.7333 9.44427 18.4167 9.91927 18.4167H12.2943C12.7693 18.4167 13.0859 18.7333 13.0859 19.2083V19.6042C13.0859 19.8417 13.2443 20 13.4818 20C13.7193 20 13.8776 19.8417 13.8776 19.6042V19.2083C13.8776 18.3375 13.1651 17.625 12.2943 17.625Z" fill="white" stroke="#4F31B4" stroke-width="0.1"/>
<path d="M18.6263 17.625H16.2513C15.3805 17.625 14.668 18.3375 14.668 19.2083V19.6042C14.668 19.8417 14.8263 20 15.0638 20C15.3013 20 15.4596 19.8417 15.4596 19.6042V19.2083C15.4596 18.7333 15.7763 18.4167 16.2513 18.4167H18.6263C19.1013 18.4167 19.418 18.7333 19.418 19.2083V19.6042C19.418 19.8417 19.5763 20 19.8138 20C20.0513 20 20.2096 19.8417 20.2096 19.6042V19.2083C20.2096 18.3375 19.4971 17.625 18.6263 17.625Z" fill="white" stroke="#4F31B4" stroke-width="0.1"/>
</svg>
