<svg width="20" height="20" viewBox="0 0 20 20" fill="none" xmlns="http://www.w3.org/2000/svg">
<path d="M10.088 1.00017C5.07697 1.00017 1 5.07714 1 10.0882C1 15.0992 5.07697 19.1762 10.088 19.1762C11.3515 19.1762 12.5733 18.9175 13.7246 18.4135C14.3011 18.8896 15.0396 19.1762 15.8439 19.1762C17.6813 19.1762 19.1762 17.6813 19.1762 15.8439C19.1762 15.0397 18.8896 14.3011 18.4135 13.7246C18.9175 12.5737 19.1762 11.352 19.1762 10.088C19.1762 5.07697 15.0992 1 10.0882 1L10.088 1.00017ZM17.8213 6.6105L11.6823 9.11145L16.6972 4.78037C17.1455 5.33714 17.5239 5.95153 17.8214 6.6104L17.8213 6.6105ZM16.3011 4.32188L10.3909 9.4264V1.61383C12.7218 1.69619 14.8152 2.72226 16.3011 4.32212V4.32188ZM9.78507 1.61359V9.78518H1.61348C1.77036 5.34884 5.34874 1.77042 9.78507 1.61359ZM1.61348 10.391H10.088C10.1253 10.391 10.1622 10.3832 10.1974 10.3698C10.1989 10.3693 10.2008 10.3695 10.2026 10.3689L18.0532 7.17048C18.3875 8.08063 18.5702 9.06327 18.5702 10.0881C18.5702 11.1887 18.3628 12.2558 17.9526 13.2662C17.7403 13.092 17.5043 12.9464 17.2529 12.8284C17.2411 12.823 17.2292 12.8166 17.2174 12.8115C17.1471 12.7795 17.0753 12.7509 17.0024 12.7236C16.9797 12.7151 16.9572 12.7067 16.9345 12.6987C16.8685 12.6757 16.8016 12.6548 16.7337 12.636C16.6998 12.6266 16.6658 12.6181 16.6316 12.6096C16.572 12.595 16.5119 12.5811 16.4511 12.5696C16.4002 12.5598 16.3487 12.5532 16.2971 12.5459C16.2495 12.5395 16.2026 12.5317 16.1547 12.5271C16.0517 12.5176 15.9481 12.5115 15.8438 12.5115C14.0065 12.5115 12.5116 14.0065 12.5116 15.8438C12.5116 15.9481 12.5176 16.0517 12.5272 16.1546C12.5318 16.2027 12.5397 16.2497 12.546 16.297C12.5534 16.3485 12.56 16.4001 12.5697 16.4509C12.5809 16.5118 12.5951 16.5718 12.6097 16.6314C12.6183 16.6657 12.6266 16.6996 12.6361 16.7335C12.6549 16.8017 12.6757 16.8686 12.6991 16.9346C12.707 16.9571 12.7155 16.9795 12.7236 17.0016C12.7509 17.0749 12.7796 17.147 12.8118 17.2176C12.8169 17.2288 12.8227 17.24 12.8279 17.2512C12.9461 17.5033 13.0917 17.7396 13.2662 17.9526C12.2556 18.3628 11.1886 18.5702 10.0881 18.5702C5.51257 18.5702 1.7742 14.9281 1.61356 10.391L1.61348 10.391ZM15.8437 18.5702C15.1221 18.5702 14.4669 18.2864 13.979 17.8271C13.9201 17.7717 13.8648 17.7141 13.8114 17.6547C13.8011 17.6432 13.7904 17.6322 13.7806 17.6205C13.7349 17.5677 13.6931 17.5129 13.6518 17.4578C13.6361 17.4365 13.6194 17.416 13.6046 17.3945C13.574 17.3508 13.547 17.3054 13.5191 17.2603C13.4979 17.2254 13.4752 17.1912 13.4552 17.1555C13.4383 17.125 13.4239 17.0928 13.4082 17.0617C13.3828 17.0111 13.3564 16.9608 13.3343 16.9084C13.3276 16.8928 13.3225 16.876 13.3161 16.8603C13.2888 16.7924 13.2626 16.7242 13.2404 16.6541C13.2404 16.6535 13.2401 16.6531 13.2401 16.6526C13.1871 16.4823 13.1505 16.3054 13.132 16.1227C13.1222 16.0307 13.1173 15.9377 13.1173 15.8438C13.1173 14.3407 14.3406 13.1174 15.8437 13.1174C15.9376 13.1174 16.0306 13.1223 16.1225 13.1316C16.3052 13.1502 16.4824 13.1871 16.6526 13.2401C16.6529 13.2401 16.6535 13.2404 16.6538 13.2404C16.7244 13.2625 16.7931 13.2888 16.8613 13.3164C16.8767 13.3227 16.8928 13.3276 16.9079 13.3339C16.9609 13.3567 17.0118 13.383 17.063 13.4087C17.0936 13.4242 17.1251 13.4381 17.1551 13.4547C17.1918 13.475 17.2267 13.498 17.2621 13.5199C17.3063 13.5472 17.3508 13.5739 17.3938 13.6037C17.4163 13.6194 17.4378 13.6367 17.4596 13.6531C17.5141 13.6937 17.568 13.7349 17.6198 13.7797C17.6323 13.7902 17.644 13.8019 17.6562 13.813C17.7143 13.8654 17.7713 13.9199 17.8258 13.9778C18.286 14.466 18.5701 15.1217 18.5701 15.8438C18.5701 17.347 17.3469 18.5702 15.8437 18.5702L15.8437 18.5702Z" fill="white" stroke="white" stroke-width="0.2"/>
</svg>
