<svg width="22" height="22" viewBox="0 0 22 22" fill="none" xmlns="http://www.w3.org/2000/svg">
<path d="M19.3058 5.35742H2.58542C2.45571 5.35742 2.32726 5.38297 2.20742 5.43261C2.08758 5.48225 1.97869 5.55501 1.88697 5.64673C1.79524 5.73845 1.72249 5.84735 1.67285 5.96719C1.62321 6.08703 1.59766 6.21547 1.59766 6.34519V16.2104C1.59766 16.4724 1.70172 16.7236 1.88697 16.9089C2.07221 17.0941 2.32345 17.1982 2.58542 17.1982H19.3058C19.5678 17.1982 19.819 17.0941 20.0043 16.9089C20.1895 16.7236 20.2936 16.4724 20.2936 16.2104V6.34519C20.2936 6.21547 20.268 6.08703 20.2184 5.96719C20.1687 5.84735 20.096 5.73845 20.0043 5.64673C19.9125 5.55501 19.8036 5.48225 19.6838 5.43261C19.564 5.38297 19.4355 5.35742 19.3058 5.35742ZM19.3058 5.98062C19.3537 5.98062 19.4011 5.99005 19.4453 6.00837C19.4895 6.02669 19.5297 6.05355 19.5636 6.0874C19.5974 6.12125 19.6243 6.16144 19.6426 6.20567C19.6609 6.24991 19.6704 6.29731 19.6704 6.34519V10.9662H9.01682C9.22393 10.8157 9.41877 10.649 9.59951 10.4676C10.4065 9.66371 10.9518 8.57312 10.4315 8.05275C9.9111 7.53238 8.82051 8.07768 8.01659 8.88472C7.86955 9.03039 7.73216 9.18547 7.60528 9.349V5.98062H19.3058ZM7.62709 10.8571C7.61315 10.8418 7.60538 10.8218 7.60528 10.801V10.7792C7.60528 10.5673 7.79535 9.98778 8.45594 9.32407C9.11653 8.66037 9.67117 8.47341 9.89552 8.47341C9.9287 8.46978 9.96204 8.47867 9.989 8.49833C10.0794 8.5887 9.93603 9.25552 9.16015 10.0314C8.38427 10.8073 7.71433 10.9475 7.62709 10.8571ZM6.98208 10.801C6.98038 10.8215 6.97281 10.8409 6.96027 10.8571C6.8699 10.9506 6.20308 10.8042 5.4272 10.0283C4.65132 9.2524 4.49241 8.58558 4.59523 8.49522C4.6222 8.47556 4.65554 8.46667 4.68871 8.47029C4.91306 8.47029 5.48329 8.67906 6.1283 9.32407C6.77331 9.96908 6.99143 10.5705 6.98208 10.7792V10.801ZM2.58542 5.98062H6.98208V9.349C6.85833 9.18657 6.72515 9.03154 6.58323 8.88472C5.77619 8.07768 4.68871 7.53238 4.16834 8.05275C3.64797 8.57312 4.19327 9.66371 4.9972 10.4676C5.17503 10.6485 5.36672 10.8152 5.57054 10.9662H2.22085V6.34519C2.22085 6.29731 2.23028 6.24991 2.2486 6.20567C2.26693 6.16144 2.29378 6.12125 2.32763 6.0874C2.36149 6.05355 2.40168 6.02669 2.44591 6.00837C2.49014 5.99005 2.53755 5.98062 2.58542 5.98062ZM2.58542 16.575C2.48873 16.575 2.396 16.5366 2.32763 16.4682C2.25926 16.3998 2.22085 16.3071 2.22085 16.2104V11.5894H6.20931C5.72777 11.9905 5.35756 12.5088 5.1343 13.0944C5.11912 13.1325 5.11159 13.1731 5.11215 13.2141C5.11271 13.2551 5.12134 13.2955 5.13755 13.3331C5.15375 13.3708 5.17722 13.4048 5.20661 13.4334C5.23599 13.4619 5.27072 13.4844 5.30879 13.4995C5.34578 13.513 5.38472 13.5204 5.42409 13.5213C5.48649 13.5214 5.54748 13.5027 5.59915 13.4677C5.65081 13.4327 5.69078 13.383 5.71387 13.325C5.94806 12.6883 6.39641 12.1529 6.98208 11.8106V16.575H2.58542ZM19.3058 16.575H7.60528V11.8106C8.19026 12.1537 8.63839 12.6889 8.87348 13.325C8.89657 13.383 8.93654 13.4327 8.98821 13.4677C9.03987 13.5027 9.10086 13.5214 9.16327 13.5213C9.2026 13.5201 9.2415 13.5127 9.27856 13.4995C9.31664 13.4844 9.35136 13.4619 9.38075 13.4334C9.41013 13.4048 9.4336 13.3708 9.44981 13.3331C9.46602 13.2955 9.47465 13.2551 9.4752 13.2141C9.47576 13.1731 9.46823 13.1325 9.45305 13.0944C9.22879 12.5085 8.8575 11.9902 8.37492 11.5894H19.6704V16.2104C19.6704 16.3071 19.632 16.3998 19.5636 16.4682C19.4952 16.5366 19.4025 16.575 19.3058 16.575ZM18.424 14.0822V15.6402C18.424 15.7228 18.3911 15.8021 18.3327 15.8605C18.2743 15.9189 18.195 15.9518 18.1124 15.9518C18.0297 15.9518 17.9505 15.9189 17.892 15.8605C17.8336 15.8021 17.8008 15.7228 17.8008 15.6402V14.0822C17.8008 13.9995 17.8336 13.9203 17.892 13.8618C17.9505 13.8034 18.0297 13.7706 18.1124 13.7706C18.195 13.7706 18.2743 13.8034 18.3327 13.8618C18.3911 13.9203 18.424 13.9995 18.424 14.0822ZM16.5544 14.0822V15.6402C16.5544 15.7228 16.5216 15.8021 16.4631 15.8605C16.4047 15.9189 16.3254 15.9518 16.2428 15.9518C16.1601 15.9518 16.0809 15.9189 16.0225 15.8605C15.964 15.8021 15.9312 15.7228 15.9312 15.6402V14.0822C15.9312 13.9995 15.964 13.9203 16.0225 13.8618C16.0809 13.8034 16.1601 13.7706 16.2428 13.7706C16.3254 13.7706 16.4047 13.8034 16.4631 13.8618C16.5216 13.9203 16.5544 13.9995 16.5544 14.0822ZM14.6848 14.7054V15.6402C14.6848 15.7228 14.652 15.8021 14.5935 15.8605C14.5351 15.9189 14.4558 15.9518 14.3732 15.9518C14.2906 15.9518 14.2113 15.9189 14.1529 15.8605C14.0944 15.8021 14.0616 15.7228 14.0616 15.6402V14.7054C14.0616 14.6227 14.0944 14.5435 14.1529 14.485C14.2113 14.4266 14.2906 14.3938 14.3732 14.3938C14.4558 14.3938 14.5351 14.4266 14.5935 14.485C14.652 14.5435 14.6848 14.6227 14.6848 14.7054Z" fill="white" stroke="white" stroke-width="0.15"/>
</svg>
