<svg width="22" height="22" viewBox="0 0 22 22" fill="none" xmlns="http://www.w3.org/2000/svg">
<g clip-path="url(#clip0_399_7445)">
<path d="M10.6483 4.5791C9.40552 4.5791 8.39453 5.73498 8.39453 7.15487C8.39453 8.57476 9.40552 9.73063 10.6483 9.73063C11.8911 9.73063 12.9021 8.57476 12.9021 7.15487C12.9021 5.73498 11.8911 4.5791 10.6483 4.5791ZM10.6483 9.08669C9.75969 9.08669 9.03847 8.22059 9.03847 7.15487C9.03847 6.08914 9.75969 5.22304 10.6483 5.22304C11.537 5.22304 12.2582 6.08914 12.2582 7.15487C12.2582 8.22059 11.537 9.08669 10.6483 9.08669Z" fill="white" stroke="#4F31B4" stroke-width="0.1"/>
<path d="M18.0533 2.00374C2.03849 2.00374 3.11066 1.97798 2.81766 2.06169C2.47742 2.15482 2.17718 2.35713 1.96311 2.63751C1.74904 2.9179 1.633 3.26083 1.63281 3.61359V10.6969C1.63281 11.1239 1.80242 11.5334 2.10433 11.8353C2.40623 12.1372 2.81571 12.3068 3.24267 12.3068H5.81843C5.81843 14.9534 5.49646 16.4055 7.00972 17.3746C6.31748 17.864 6.46237 18.5369 6.46237 19.7121C6.46237 20.0537 6.59806 20.3813 6.83958 20.6228C7.08111 20.8643 7.40869 21 7.75025 21H13.8677C14.2093 21 14.5368 20.8643 14.7784 20.6228C15.0199 20.3813 15.1556 20.0537 15.1556 19.7121C15.1556 18.582 15.3005 17.864 14.6082 17.3746C14.9731 17.1421 15.2735 16.8213 15.4817 16.4421C15.6899 16.0628 15.7992 15.6372 15.7995 15.2045V12.3068C18.2111 12.3068 18.2046 12.3293 18.4783 12.2488C18.8186 12.1557 19.1188 11.9534 19.3329 11.673C19.5469 11.3926 19.663 11.0497 19.6632 10.6969V3.61359C19.6632 3.18663 19.4936 2.77716 19.1916 2.47525C18.8897 2.17335 18.4803 2.00374 18.0533 2.00374ZM13.8677 17.7803C14.0385 17.7803 14.2023 17.8481 14.323 17.9689C14.4438 18.0897 14.5116 18.2535 14.5116 18.4242V19.7121C14.5116 19.8829 14.4438 20.0467 14.323 20.1675C14.2023 20.2882 14.0385 20.3561 13.8677 20.3561H7.75025C7.57947 20.3561 7.41568 20.2882 7.29492 20.1675C7.17416 20.0467 7.10631 19.8829 7.10631 19.7121V18.4242C7.10631 18.2535 7.17416 18.0897 7.29492 17.9689C7.41568 17.8481 7.57947 17.7803 7.75025 17.7803H13.8677ZM15.1556 15.2045C15.1556 15.7169 14.952 16.2082 14.5898 16.5705C14.2275 16.9328 13.7361 17.1364 13.2238 17.1364H8.39419C7.88184 17.1364 7.39048 16.9328 7.02819 16.5705C6.6659 16.2082 6.46237 15.7169 6.46237 15.2045V12.3068H10.8701C10.4031 12.6319 10.0218 13.0653 9.75878 13.57C9.4958 14.0746 9.35901 14.6355 9.36011 15.2045C9.36011 15.2899 9.39403 15.3718 9.45441 15.4322C9.51479 15.4926 9.59668 15.5265 9.68208 15.5265C9.76747 15.5265 9.84936 15.4926 9.90974 15.4322C9.97013 15.3718 10.004 15.2899 10.004 15.2045C10.004 14.436 10.3093 13.699 10.8528 13.1555C11.3962 12.6121 12.1333 12.3068 12.9018 12.3068C12.9872 12.3068 13.0691 12.2729 13.1294 12.2125C13.1898 12.1521 13.2238 12.0702 13.2238 11.9848C13.2238 9.38008 13.1175 9.11929 13.5039 8.72648C13.5892 8.63672 13.6916 8.5649 13.8051 8.51524C13.9186 8.46557 14.0408 8.43906 14.1647 8.43726C14.2885 8.43546 14.4115 8.45841 14.5264 8.50476C14.6412 8.5511 14.7457 8.61992 14.8336 8.70716C15.2586 9.12573 15.1556 8.86815 15.1556 15.2045ZM15.265 8.24031C14.9668 7.95119 14.5661 7.79221 14.1508 7.79824C13.7355 7.80428 13.3396 7.97485 13.0499 8.2725C12.4736 8.85527 12.5798 9.4638 12.5798 10.375H4.82032C4.75722 10.0656 4.60454 9.7816 4.38128 9.55833C4.15801 9.33507 3.87401 9.18238 3.56464 9.11929V5.19125C3.87401 5.12815 4.15801 4.97547 4.38128 4.7522C4.60454 4.52893 4.75722 4.24494 4.82032 3.93556H16.4757C16.5388 4.24494 16.6914 4.52893 16.9147 4.7522C17.138 4.97547 17.422 5.12815 17.7313 5.19125V9.11929C17.422 9.18238 17.138 9.33507 16.9147 9.55833C16.6914 9.7816 16.5388 10.0656 16.4757 10.375H15.7995C15.7995 9.50565 15.9058 8.84883 15.265 8.24031ZM19.0192 10.6969C19.0192 10.9531 18.9175 11.1988 18.7363 11.3799C18.5552 11.5611 18.3095 11.6629 18.0533 11.6629H15.7995V11.0189H16.7654C16.8508 11.0189 16.9327 10.985 16.9931 10.9246C17.0535 10.8642 17.0874 10.7823 17.0874 10.6969C17.0874 10.4408 17.1892 10.1951 17.3703 10.0139C17.5515 9.8328 17.7971 9.73103 18.0533 9.73103C18.1387 9.73103 18.2206 9.69711 18.281 9.63673C18.3414 9.57635 18.3753 9.49445 18.3753 9.40906V4.90147C18.3753 4.81608 18.3414 4.73419 18.281 4.67381C18.2206 4.61342 18.1387 4.5795 18.0533 4.5795C17.7971 4.5795 17.5515 4.47774 17.3703 4.29659C17.1892 4.11545 17.0874 3.86977 17.0874 3.61359C17.0874 3.5282 17.0535 3.4463 16.9931 3.38592C16.9327 3.32554 16.8508 3.29162 16.7654 3.29162H4.53055C4.44516 3.29162 4.36326 3.32554 4.30288 3.38592C4.2425 3.4463 4.20858 3.5282 4.20858 3.61359C4.20858 3.86977 4.10681 4.11545 3.92567 4.29659C3.74452 4.47774 3.49884 4.5795 3.24267 4.5795C3.15727 4.5795 3.07538 4.61342 3.015 4.67381C2.95462 4.73419 2.92069 4.81608 2.92069 4.90147V9.40906C2.92069 9.49445 2.95462 9.57635 3.015 9.63673C3.07538 9.69711 3.15727 9.73103 3.24267 9.73103C3.49884 9.73103 3.74452 9.8328 3.92567 10.0139C4.10681 10.1951 4.20858 10.4408 4.20858 10.6969C4.20858 10.7823 4.2425 10.8642 4.30288 10.9246C4.36326 10.985 4.44516 11.0189 4.53055 11.0189H12.5798V11.6629H3.24267C2.98649 11.6629 2.74081 11.5611 2.55966 11.3799C2.37852 11.1988 2.27675 10.9531 2.27675 10.6969V3.61359C2.27675 3.35742 2.37852 3.11173 2.55966 2.93059C2.74081 2.74944 2.98649 2.64768 3.24267 2.64768H18.0533C18.3095 2.64768 18.5552 2.74944 18.7363 2.93059C18.9175 3.11173 19.0192 3.35742 19.0192 3.61359V10.6969Z" fill="white" stroke="#4F31B4" stroke-width="0.1"/>
</g>
<defs>
<clipPath id="clip0_399_7445">
<rect width="21.8015" height="21.8015" fill="white"/>
</clipPath>
</defs>
</svg>
