<svg width="22" height="22" viewBox="0 0 22 22" fill="none" xmlns="http://www.w3.org/2000/svg">
<path d="M18.5203 17.3569H3.21239C2.57094 17.3562 1.95595 17.1011 1.50238 16.6475C1.0488 16.1939 0.793672 15.5789 0.792969 14.9375V6.57177C0.793672 5.93031 1.0488 5.31533 1.50238 4.86175C1.95595 4.40818 2.57094 4.15305 3.21239 4.15234H18.5203C19.1618 4.15305 19.7768 4.40818 20.2304 4.86175C20.6839 5.31533 20.9391 5.93031 20.9398 6.57177V14.9375C20.9391 15.5789 20.6839 16.1939 20.2304 16.6475C19.7768 17.1011 19.1618 17.3562 18.5203 17.3569ZM3.21239 4.94908C2.78224 4.94978 2.36992 5.12097 2.06575 5.42513C1.76159 5.72929 1.59041 6.14162 1.5897 6.57177V14.9375C1.59041 15.3676 1.76159 15.78 2.06575 16.0841C2.36992 16.3883 2.78224 16.5595 3.21239 16.5602H18.5203C18.9505 16.5595 19.3628 16.3883 19.667 16.0841C19.9711 15.78 20.1423 15.3676 20.143 14.9375V6.57177C20.1423 6.14162 19.9711 5.72929 19.667 5.42513C19.3628 5.12097 18.9505 4.94978 18.5203 4.94908H3.21239Z" fill="white"/>
<path d="M20.5414 9.67335H1.19134C1.08568 9.67335 0.984357 9.63138 0.909648 9.55667C0.83494 9.48196 0.792969 9.38064 0.792969 9.27498V7.56731C0.792969 7.46166 0.83494 7.36033 0.909648 7.28562C0.984357 7.21092 1.08568 7.16895 1.19134 7.16895H20.5414C20.6471 7.16895 20.7484 7.21092 20.8231 7.28562C20.8978 7.36033 20.9398 7.46166 20.9398 7.56731V9.27498C20.9398 9.38064 20.8978 9.48196 20.8231 9.55667C20.7484 9.63138 20.6471 9.67335 20.5414 9.67335ZM1.5897 8.87662H20.143V7.96568H1.5897V8.87662Z" fill="white"/>
<path d="M18.755 12.8241H12.9335C12.8279 12.8241 12.7265 12.7821 12.6518 12.7074C12.5771 12.6327 12.5352 12.5314 12.5352 12.4257C12.5352 12.3201 12.5771 12.2187 12.6518 12.144C12.7265 12.0693 12.8279 12.0273 12.9335 12.0273H18.755C18.8607 12.0273 18.962 12.0693 19.0367 12.144C19.1114 12.2187 19.1534 12.3201 19.1534 12.4257C19.1534 12.5314 19.1114 12.6327 19.0367 12.7074C18.962 12.7821 18.8607 12.8241 18.755 12.8241Z" fill="white"/>
<path d="M18.7533 14.2626H14.9609C14.8552 14.2626 14.7539 14.2206 14.6792 14.1459C14.6045 14.0712 14.5625 13.9698 14.5625 13.8642C14.5625 13.7585 14.6045 13.6572 14.6792 13.5825C14.7539 13.5078 14.8552 13.4658 14.9609 13.4658H18.7533C18.859 13.4658 18.9603 13.5078 19.035 13.5825C19.1097 13.6572 19.1517 13.7585 19.1517 13.8642C19.1517 13.9698 19.1097 14.0712 19.035 14.1459C18.9603 14.2206 18.859 14.2626 18.7533 14.2626Z" fill="white"/>
<rect x="4.32581" y="12.1149" width="2.37676" height="2.37676" rx="0.396127" stroke="white" stroke-width="0.792254"/>
</svg>
