<svg width="22" height="22" viewBox="0 0 22 22" fill="none" xmlns="http://www.w3.org/2000/svg">
<path fill-rule="evenodd" clip-rule="evenodd" d="M16.5571 10.866L6.4436 20.1371L7.41359 16.746C7.50041 16.4405 7.81875 16.2637 8.12312 16.3516C8.30211 16.4019 8.43715 16.5327 8.5004 16.6935L15.4574 10.3174L12.2271 4.09216L12.2131 4.13932C12.1252 4.44479 11.808 4.62056 11.5025 4.53375C11.1981 4.44693 11.0213 4.1286 11.1081 3.82422L11.9163 1L16.6793 10.1789C16.7982 10.4083 16.7489 10.6913 16.5571 10.866ZM6.90867 14.7416L11.8734 10.1907L9.5143 5.63869L6.90867 14.7416ZM4.68359 18.3396L13.2978 10.4426L9.2057 2.54558L4.68359 18.3396Z" fill="white" stroke="#4F31B4" stroke-width="0.105514"/>
</svg>
