<svg width="16" height="18" viewBox="0 0 16 18" fill="none" xmlns="http://www.w3.org/2000/svg">
<path d="M4.10919 10.162C4.16456 10.3094 4.29328 10.3828 4.44069 10.3828C4.47736 10.3828 4.51404 10.3828 4.55143 10.3641C4.73551 10.3087 4.82755 10.1066 4.75421 9.92256C3.92512 7.65815 6.2995 4.04994 8.21369 2.65127C8.21369 2.65127 8.21369 2.63258 8.23238 2.63258C8.50851 2.68795 8.96871 2.74331 9.53967 2.74331C10.0919 2.74331 10.5708 2.66997 10.8282 2.63258L10.8469 2.65127C13.0005 4.21598 15.3382 8.08173 14.1792 10.2541C14.0872 10.4195 14.1605 10.6223 14.3266 10.7143C14.382 10.751 14.4374 10.751 14.492 10.751C14.6207 10.751 14.7315 10.6776 14.7868 10.5669C16.1675 8.0085 13.719 3.93989 11.3813 2.17233C11.5467 1.65675 11.7495 1.19654 12.2097 0.552249C12.283 0.441512 12.3017 0.294828 12.2284 0.184083C12.173 0.0733461 12.0443 0.0186955 11.9156 0C10.3509 0.0733461 8.74953 0.0733461 7.18483 0C7.05611 0 6.92741 0.0553685 6.87203 0.184083C6.81666 0.29482 6.81666 0.441505 6.89073 0.552249C7.35094 1.19654 7.55372 1.67545 7.7191 2.17233C5.54471 3.82908 3.17022 7.56615 4.10942 10.1619L4.10919 10.162ZM11.2697 0.736395C11.0122 1.1779 10.8461 1.56477 10.7174 1.95164C10.478 1.98831 10.0364 2.06238 9.53957 2.06238C9.04269 2.06238 8.60045 2.00701 8.36173 1.95164C8.23302 1.56477 8.06691 1.17864 7.80948 0.736395C8.94993 0.773786 10.1098 0.773786 11.2697 0.736395Z" fill="white"/>
<path d="M13.5371 11.4867L10.1682 12.5912V12.5725C10.1682 12.2964 10.0575 12.0203 9.8921 11.7995C9.67135 11.5421 9.37652 11.376 9.02706 11.358L5.54825 11.0819C4.81192 11.0265 4.05688 11.2106 3.4313 11.6154L0.154432 13.7324C0.0810861 13.7878 0.0257175 13.8611 0.00702206 13.9532C-0.0116734 14.0452 0.00702211 14.1372 0.0623906 14.2106L2.25261 17.1747C2.34465 17.3034 2.52874 17.3588 2.67615 17.2854L4.13011 16.5678L6.67064 17.3775C6.9101 17.4508 7.16752 17.5062 7.42568 17.5062C7.86718 17.5062 8.32739 17.3775 8.71426 17.138L14.4941 13.5118C14.7702 13.3277 14.9543 13.0515 14.991 12.7388C15.0464 12.426 14.9543 12.0945 14.7336 11.837C14.4754 11.4869 13.9786 11.3393 13.5371 11.4867ZM14.1448 12.9407L8.36417 16.5491C7.92267 16.8252 7.38838 16.8985 6.89151 16.7332L4.20353 15.8681C4.16685 15.8494 4.13018 15.8494 4.09279 15.8494C4.03742 15.8494 3.98205 15.8681 3.94538 15.8861L2.63809 16.5304L0.835367 14.1007L3.79947 12.1678C4.29635 11.8363 4.88527 11.6889 5.47493 11.7443L8.95373 12.0204C9.10114 12.0391 9.24856 12.1124 9.3406 12.2232C9.41394 12.3152 9.46931 12.4439 9.46931 12.5726C9.46931 12.6834 9.43264 12.7934 9.37727 12.9041L9.35857 12.9228C9.24784 13.0702 9.06375 13.1623 8.89837 13.1436L5.89763 13.0515C5.69484 13.0329 5.54816 13.199 5.54816 13.383C5.54816 13.5671 5.69557 13.7325 5.87966 13.7325L8.87966 13.8432C9.24783 13.8432 9.59729 13.7145 9.85545 13.4197L13.7578 12.1311C13.9419 12.0758 14.126 12.1311 14.2547 12.2785C14.3281 12.3706 14.3654 12.4993 14.3468 12.628C14.3288 12.7567 14.2548 12.8673 14.1448 12.9407Z" fill="white"/>
</svg>
