<svg width="11" height="20" viewBox="0 0 11 20" fill="none" xmlns="http://www.w3.org/2000/svg">
<path d="M9.94686 4.35985C9.64153 4.03016 9.20833 3.84141 8.75861 3.84141H7.81912V0.334035C7.81912 0.149621 7.6695 0 7.48508 0H3.07047C2.88606 0 2.73644 0.149621 2.73644 0.334035V3.84141H1.62212C1.17239 3.84141 0.739195 4.03017 0.433865 4.35985C0.128534 4.68953 -0.0280392 5.13493 0.00413952 5.57073L0.481699 17.9962C0.544331 18.8382 1.25417 19.4976 2.09881 19.4976H8.28203C9.12582 19.4976 9.83652 18.8382 9.9 17.984L10.3767 5.58282C10.4089 5.13484 10.2522 4.68868 9.94686 4.35985ZM3.40444 0.668093H7.15098V5.24705H3.40444V0.668093ZM9.23269 17.9466C9.19616 18.4416 8.7786 18.8296 8.28191 18.8296H2.0987C1.60199 18.8296 1.18444 18.4416 1.14879 17.9588L0.67123 5.53334C0.651223 5.26629 0.740821 5.01053 0.923494 4.81394C1.10617 4.61735 1.35409 4.50948 1.62201 4.50948H2.73633V5.24714H2.20917C2.02476 5.24714 1.87514 5.39676 1.87514 5.58117C1.87514 5.76559 2.02476 5.91521 2.20917 5.91521H8.51153C8.69595 5.91521 8.84557 5.76559 8.84557 5.58117C8.84557 5.39676 8.69595 5.24714 8.51153 5.24714H7.8191V4.50948H8.75858C9.0265 4.50948 9.27442 4.61734 9.4571 4.81394C9.63977 5.01053 9.72938 5.2654 9.70849 5.54463L9.23269 17.9466Z" fill="white"/>
<path d="M8.50761 6.85938H1.92779C1.74337 6.85938 1.59375 7.009 1.59375 7.19341V10.5485C1.59375 10.7329 1.74337 10.8825 1.92779 10.8825H8.50672C8.69114 10.8825 8.84076 10.7329 8.84076 10.5485L8.84163 7.19341C8.84163 7.009 8.69203 6.85938 8.50761 6.85938ZM8.17358 10.2144H2.26182V7.52745H4.96368H8.17269L8.17358 10.2144Z" fill="white"/>
<path d="M4.23805 11.6699H2.20513C2.02071 11.6699 1.87109 11.8195 1.87109 12.004V13.401C1.87109 13.5854 2.02071 13.735 2.20513 13.735H4.23805C4.42246 13.735 4.57208 13.5854 4.57208 13.401V12.004C4.57208 11.8195 4.42246 11.6699 4.23805 11.6699ZM3.90401 13.0678H2.53916V12.3389H3.90401V13.0678Z" fill="white"/>
<path d="M8.02711 11.6699H5.99419C5.80978 11.6699 5.66016 11.8195 5.66016 12.004V13.401C5.66016 13.5854 5.80978 13.735 5.99419 13.735H8.02711C8.21152 13.735 8.36114 13.5854 8.36114 13.401V12.004C8.36114 11.8195 8.21152 11.6699 8.02711 11.6699ZM7.69307 13.0678H6.32823V12.3389H7.69307L7.69307 13.0678Z" fill="white"/>
<path d="M4.23805 14.7871H2.20513C2.02071 14.7871 1.87109 14.9367 1.87109 15.1211V16.5182C1.87109 16.7026 2.02071 16.8522 2.20513 16.8522H4.23805C4.42246 16.8522 4.57208 16.7026 4.57208 16.5182V15.1211C4.57208 14.9367 4.42246 14.7871 4.23805 14.7871ZM3.90401 16.185H2.53916V15.456H3.90401V16.185Z" fill="white"/>
<path d="M8.17555 14.9619H6.14263C5.95821 14.9619 5.80859 15.1115 5.80859 15.2959V16.693C5.80859 16.8774 5.95821 17.027 6.14263 17.027H8.17555C8.35996 17.027 8.50958 16.8774 8.50958 16.693V15.2959C8.50958 15.1115 8.35996 14.9619 8.17555 14.9619ZM7.84151 16.3598H6.47666V15.6309H7.84151L7.84151 16.3598Z" fill="white"/>
<line x1="4.32812" y1="1.55745" x2="6.05826" y2="1.55745" stroke="white" stroke-width="0.346028"/>
<line x1="4.32812" y1="2.42269" x2="6.05826" y2="2.42269" stroke="white" stroke-width="0.346028"/>
<line x1="4.32812" y1="3.28792" x2="6.05826" y2="3.28792" stroke="white" stroke-width="0.346028"/>
</svg>
