<svg width="22" height="22" viewBox="0 0 22 22" fill="none" xmlns="http://www.w3.org/2000/svg">
<path d="M14.7705 3.68945V18.1357C14.7705 18.4005 14.5529 18.619 14.2881 18.6191H4.43066C4.16586 18.6191 3.94824 18.4006 3.94824 18.1357V3.68945H14.7705Z" stroke="white" stroke-width="0.676887"/>
<path d="M8.39941 9.83887V9.87012C8.3994 9.88604 8.39404 9.89594 8.39062 9.90137H6.86133L6.85254 9.87012V9.83887H8.39941ZM8.39062 7.9707C8.39404 7.97611 8.39939 7.98602 8.39941 8.00195V8.0332H6.85254V8.00195C6.85256 7.9867 6.85765 7.97636 6.86133 7.9707H8.39062Z" fill="#1B1B1B" stroke="white" stroke-width="0.369245"/>
<path d="M11.8486 9.83887V9.87012C11.8486 9.88559 11.8435 9.89576 11.8398 9.90137H10.3105C10.3072 9.89586 10.3018 9.8858 10.3018 9.87012V9.83887H11.8486ZM11.8398 7.9707C11.8435 7.97629 11.8486 7.98647 11.8486 8.00195V8.0332H10.3018V8.00195C10.3018 7.98626 10.3072 7.97619 10.3105 7.9707H11.8398Z" fill="#1B1B1B" stroke="white" stroke-width="0.369245"/>
<path d="M8.39941 12.9053V12.9365C8.3994 12.9524 8.39404 12.9623 8.39062 12.9678H6.86133L6.85254 12.9365V12.9053H8.39941ZM8.39062 11.0371C8.39404 11.0425 8.39939 11.0524 8.39941 11.0684V11.0996H6.85254V11.0684C6.85256 11.0531 6.85765 11.0428 6.86133 11.0371H8.39062Z" fill="#1B1B1B" stroke="white" stroke-width="0.369245"/>
<path d="M11.8506 11.0371C11.8527 11.0403 11.8554 11.0463 11.8555 11.0557V11.0742H11.0801C11.078 11.0708 11.0752 11.0646 11.0752 11.0557C11.0752 11.0465 11.078 11.0404 11.0801 11.0371H11.8506Z" fill="#1B1B1B" stroke="white" stroke-width="0.369245"/>
<path d="M11.0771 12.9297C11.0793 12.9329 11.082 12.9389 11.082 12.9482C11.082 12.9574 11.0793 12.9634 11.0771 12.9668H10.3076C10.3054 12.9634 10.3018 12.9573 10.3018 12.9482V12.9297H11.0771Z" fill="#1B1B1B" stroke="white" stroke-width="0.369245"/>
<path d="M8.80762 9.50391H9.51367C9.52862 9.50391 9.53995 9.50925 9.5459 9.51465C9.55155 9.51985 9.55078 9.52329 9.55078 9.52344V10.2656C9.55065 10.2667 9.55024 10.2694 9.5459 10.2734C9.53997 10.2789 9.52872 10.2842 9.51367 10.2842C9.49885 10.2841 9.48827 10.2788 9.48242 10.2734C9.47792 10.2693 9.47665 10.2666 9.47656 10.2656V9.54297H8.80762C8.7929 9.54296 8.78235 9.53755 8.77637 9.53223C8.77071 9.52702 8.77051 9.52359 8.77051 9.52344C8.7705 9.5231 8.7709 9.51968 8.77637 9.51465C8.78236 9.50933 8.79292 9.50394 8.80762 9.50391Z" fill="#1B1B1B" stroke="white" stroke-width="0.369245"/>
<path d="M9.15625 7.9707C9.15946 7.9707 9.16169 7.97193 9.16309 7.97266V8.74902C9.16172 8.74979 9.15965 8.75098 9.15625 8.75098C9.15264 8.75093 9.1507 8.74983 9.14941 8.74902V7.97266C9.15074 7.97188 9.15286 7.97074 9.15625 7.9707Z" fill="#1B1B1B" stroke="white" stroke-width="0.369245"/>
<path d="M4.43066 2.40234H14.2881C14.5175 2.40246 14.707 2.59184 14.707 2.82129V3.8252H4.01172V2.82129C4.01179 2.59182 4.20119 2.40242 4.43066 2.40234Z" stroke="white" stroke-width="0.804674"/>
<path d="M14.707 16.8984V18.1387C14.707 18.3682 14.5176 18.5575 14.2881 18.5576H4.43066C4.20115 18.5575 4.01172 18.3682 4.01172 18.1387V16.8984H14.707Z" stroke="white" stroke-width="0.804674"/>
<path d="M16.5625 7.06934C17.88 8.37507 17.8895 10.4882 16.5837 11.8057" stroke="white" stroke-width="0.768062" stroke-miterlimit="10"/>
<path d="M18.0117 5.60254C20.1344 7.70622 20.1497 11.131 18.046 13.2536" stroke="white" stroke-width="0.768062" stroke-miterlimit="10"/>
</svg>
