<svg width="374" height="481" viewBox="0 0 374 481" fill="none" xmlns="http://www.w3.org/2000/svg">
<rect width="374" height="481" rx="10" fill="#110A27"/>
<rect x="70.2345" y="33.2345" width="232.896" height="65.016" rx="11.6719" fill="#080219" stroke="url(#paint0_linear_4031_11482)" stroke-width="0.469025"/>
<path d="M171.284 48.3503L171.241 48.9718H167.555V47.4609H172.869V48.6075L169.087 53.8903L168.819 53.2473H172.912V54.7582H167.48V53.601L171.284 48.3503Z" fill="white"/>
<rect x="157.016" y="42" width="18.582" height="19" rx="1.57139" fill="#4F31B4"/>
<path d="M161.614 47.2118H170.677L166.316 54.0962" stroke="#B4A1F2" stroke-width="2.05289"/>
<rect x="165.106" y="53.0536" width="2.98359" height="1.06225" fill="#4F31B4"/>
<path d="M169.781 54.9492L161.652 54.9322L165.802 48.5044" stroke="white" stroke-width="1.8518"/>
<rect x="166.899" y="49.0819" width="2.35657" height="1.01423" transform="rotate(180 166.899 49.0819)" fill="#4F31B4"/>
<path d="M178.547 55.8498V53.9371L182.971 49.0215H178.742V46.8602H186.381V48.7729L181.918 53.6885H186.576V55.8498H178.547Z" fill="#4F31B4"/>
<path d="M189.78 59.4457C189.338 59.4457 188.89 59.3947 188.435 59.2927C187.98 59.1907 187.603 59.0632 187.305 58.9101L188.026 56.9401C188.26 57.0293 188.506 57.1058 188.766 57.1696C189.039 57.2461 189.305 57.2844 189.565 57.2844C189.786 57.2844 189.994 57.2525 190.189 57.1887C190.397 57.125 190.585 57.0293 190.754 56.9018C190.936 56.7871 191.092 56.6404 191.222 56.4619L187.519 46.8602H190.403L192.488 53.3825L194.593 46.8602H197.458L193.97 55.8498C193.645 56.7169 193.261 57.4119 192.82 57.9347C192.391 58.4702 191.917 58.8528 191.397 59.0823C190.89 59.3246 190.351 59.4457 189.78 59.4457Z" fill="#4F31B4"/>
<path d="M198.883 55.8498V46.8602H201.436V48.2182C201.696 47.6826 202.034 47.3064 202.449 47.0897C202.865 46.8602 203.326 46.7454 203.833 46.7454C204.002 46.7454 204.151 46.7581 204.281 46.7836C204.424 46.7964 204.534 46.8219 204.612 46.8602V49.3849C204.431 49.3467 204.242 49.3148 204.047 49.2893C203.865 49.2638 203.677 49.251 203.482 49.251C202.949 49.251 202.495 49.4423 202.118 49.8248C201.754 50.2074 201.572 50.7684 201.572 51.508V55.8498H198.883Z" fill="#4F31B4"/>
<path d="M210.409 56.0411C209.435 56.0411 208.564 55.8498 207.798 55.4673C207.044 55.072 206.453 54.5237 206.024 53.8224C205.596 53.1083 205.381 52.2858 205.381 51.355C205.381 50.4114 205.596 49.5889 206.024 48.8876C206.453 48.1863 207.044 47.6444 207.798 47.2618C208.551 46.8665 209.422 46.6689 210.409 46.6689C211.396 46.6689 212.267 46.8665 213.02 47.2618C213.774 47.6444 214.365 48.1863 214.794 48.8876C215.222 49.5889 215.437 50.4114 215.437 51.355C215.437 52.2858 215.222 53.1083 214.794 53.8224C214.365 54.5237 213.774 55.072 213.02 55.4673C212.267 55.8498 211.396 56.0411 210.409 56.0411ZM210.409 53.7459C210.864 53.7459 211.26 53.6502 211.598 53.459C211.949 53.2677 212.215 52.9935 212.397 52.6365C212.592 52.2667 212.689 51.8395 212.689 51.355C212.689 50.8577 212.592 50.4305 212.397 50.0735C212.215 49.7164 211.949 49.4423 211.598 49.251C211.26 49.0598 210.864 48.9641 210.409 48.9641C209.954 48.9641 209.552 49.0598 209.201 49.251C208.863 49.4423 208.597 49.7164 208.402 50.0735C208.22 50.4305 208.129 50.8577 208.129 51.355C208.129 51.8395 208.22 52.2667 208.402 52.6365C208.597 52.9935 208.863 53.2677 209.201 53.459C209.552 53.6502 209.954 53.7459 210.409 53.7459Z" fill="#4F31B4"/>
<path d="M139.282 71.8771V84H137.086V71.8771H139.282ZM141.66 71.8771H144.348L147.947 80.6615H148.089L151.688 71.8771H154.375V84H152.268V75.6715H152.155L148.805 83.9645H147.231L143.88 75.6537H143.768V84H141.66V71.8771ZM156.767 84V71.8771H161.313C162.244 71.8771 163.025 72.0508 163.657 72.3981C164.292 72.7453 164.772 73.2228 165.095 73.8305C165.423 74.4343 165.586 75.121 165.586 75.8905C165.586 76.6679 165.423 77.3585 165.095 77.9623C164.768 78.566 164.284 79.0415 163.645 79.3888C163.006 79.7321 162.218 79.9038 161.283 79.9038H158.27V78.0984H160.987C161.532 78.0984 161.978 78.0037 162.325 77.8143C162.672 77.6248 162.929 77.3644 163.094 77.0329C163.264 76.7014 163.349 76.3206 163.349 75.8905C163.349 75.4603 163.264 75.0815 163.094 74.754C162.929 74.4264 162.67 74.1719 162.319 73.9904C161.972 73.8049 161.524 73.7122 160.975 73.7122H158.963V84H156.767ZM174.082 75.2097C174.027 74.6928 173.794 74.2903 173.384 74.0022C172.977 73.7141 172.448 73.5701 171.797 73.5701C171.34 73.5701 170.947 73.6391 170.619 73.7773C170.292 73.9154 170.041 74.1028 169.868 74.3396C169.694 74.5764 169.605 74.8467 169.601 75.1506C169.601 75.4031 169.658 75.6221 169.773 75.8076C169.891 75.9931 170.051 76.1509 170.252 76.2812C170.454 76.4074 170.677 76.514 170.921 76.6008C171.166 76.6876 171.413 76.7606 171.661 76.8198L172.798 77.1039C173.255 77.2105 173.695 77.3545 174.118 77.5361C174.544 77.7176 174.925 77.9465 175.26 78.2227C175.6 78.4989 175.868 78.8324 176.065 79.2231C176.263 79.6138 176.361 80.0715 176.361 80.5964C176.361 81.3067 176.18 81.9322 175.817 82.4728C175.454 83.0095 174.929 83.4298 174.242 83.7336C173.559 84.0335 172.733 84.1835 171.762 84.1835C170.819 84.1835 170 84.0375 169.305 83.7455C168.615 83.4534 168.074 83.0273 167.683 82.4669C167.297 81.9065 167.088 81.2238 167.056 80.4188H169.217C169.248 80.841 169.378 81.1923 169.607 81.4724C169.836 81.7526 170.134 81.9618 170.501 82.0999C170.872 82.238 171.286 82.3071 171.744 82.3071C172.222 82.3071 172.64 82.236 172.999 82.094C173.362 81.948 173.646 81.7467 173.851 81.4902C174.057 81.2297 174.161 80.9259 174.165 80.5786C174.161 80.2629 174.068 80.0025 173.887 79.7973C173.705 79.5881 173.451 79.4145 173.123 79.2764C172.8 79.1343 172.421 79.008 171.987 78.8975L170.608 78.5423C169.609 78.2858 168.82 77.8971 168.24 77.3762C167.664 76.8514 167.376 76.1549 167.376 75.2867C167.376 74.5724 167.569 73.947 167.956 73.4103C168.346 72.8736 168.877 72.4572 169.548 72.1613C170.219 71.8614 170.978 71.7114 171.827 71.7114C172.687 71.7114 173.441 71.8614 174.088 72.1613C174.739 72.4572 175.25 72.8696 175.621 73.3984C175.992 73.9233 176.184 74.5271 176.195 75.2097H174.082ZM189.042 75.2097C188.987 74.6928 188.754 74.2903 188.343 74.0022C187.937 73.7141 187.408 73.5701 186.757 73.5701C186.299 73.5701 185.907 73.6391 185.579 73.7773C185.252 73.9154 185.001 74.1028 184.827 74.3396C184.654 74.5764 184.565 74.8467 184.561 75.1506C184.561 75.4031 184.618 75.6221 184.733 75.8076C184.851 75.9931 185.011 76.1509 185.212 76.2812C185.413 76.4074 185.636 76.514 185.881 76.6008C186.126 76.6876 186.372 76.7606 186.621 76.8198L187.757 77.1039C188.215 77.2105 188.655 77.3545 189.077 77.5361C189.504 77.7176 189.884 77.9465 190.22 78.2227C190.559 78.4989 190.828 78.8324 191.025 79.2231C191.222 79.6138 191.321 80.0715 191.321 80.5964C191.321 81.3067 191.139 81.9322 190.776 82.4728C190.413 83.0095 189.888 83.4298 189.202 83.7336C188.519 84.0335 187.692 84.1835 186.722 84.1835C185.778 84.1835 184.96 84.0375 184.265 83.7455C183.574 83.4534 183.034 83.0273 182.643 82.4669C182.256 81.9065 182.047 81.2238 182.016 80.4188H184.176C184.208 80.841 184.338 81.1923 184.567 81.4724C184.796 81.7526 185.094 81.9618 185.461 82.0999C185.832 82.238 186.246 82.3071 186.704 82.3071C187.181 82.3071 187.6 82.236 187.959 82.094C188.322 81.948 188.606 81.7467 188.811 81.4902C189.016 81.2297 189.121 80.9259 189.125 80.5786C189.121 80.2629 189.028 80.0025 188.847 79.7973C188.665 79.5881 188.411 79.4145 188.083 79.2764C187.759 79.1343 187.381 79.008 186.946 78.8975L185.567 78.5423C184.569 78.2858 183.78 77.8971 183.2 77.3762C182.623 76.8514 182.335 76.1549 182.335 75.2867C182.335 74.5724 182.529 73.947 182.915 73.4103C183.306 72.8736 183.837 72.4572 184.508 72.1613C185.179 71.8614 185.938 71.7114 186.787 71.7114C187.647 71.7114 188.401 71.8614 189.048 72.1613C189.699 72.4572 190.21 72.8696 190.581 73.3984C190.952 73.9233 191.143 74.5271 191.155 75.2097H189.042ZM195.06 84L192.491 74.9079H194.676L196.274 81.3008H196.357L197.991 74.9079H200.151L201.785 81.2653H201.874L203.448 74.9079H205.638L203.063 84H200.832L199.127 77.8557H199.003L197.298 84H195.06ZM207.134 84V74.9079H209.277V84H207.134ZM208.212 73.6174C207.872 73.6174 207.58 73.505 207.336 73.28C207.091 73.0512 206.969 72.7769 206.969 72.4572C206.969 72.1337 207.091 71.8594 207.336 71.6345C207.58 71.4056 207.872 71.2911 208.212 71.2911C208.555 71.2911 208.847 71.4056 209.088 71.6345C209.333 71.8594 209.455 72.1337 209.455 72.4572C209.455 72.7769 209.333 73.0512 209.088 73.28C208.847 73.505 208.555 73.6174 208.212 73.6174ZM216.021 74.9079V76.5653H210.794V74.9079H216.021ZM212.085 72.7295H214.227V81.2653C214.227 81.5533 214.271 81.7743 214.358 81.9282C214.448 82.0782 214.567 82.1808 214.713 82.236C214.859 82.2913 215.021 82.3189 215.198 82.3189C215.332 82.3189 215.455 82.309 215.565 82.2893C215.68 82.2696 215.766 82.2518 215.826 82.236L216.187 83.9112C216.072 83.9507 215.908 83.9941 215.695 84.0414C215.486 84.0888 215.23 84.1164 214.926 84.1243C214.389 84.1401 213.906 84.0592 213.476 83.8816C213.045 83.7001 212.704 83.4199 212.452 83.0411C212.203 82.6622 212.081 82.1887 212.085 81.6204V72.7295ZM221.681 84.1776C220.774 84.1776 219.994 83.9783 219.343 83.5797C218.696 83.1812 218.197 82.6307 217.846 81.9282C217.498 81.2218 217.325 80.4089 217.325 79.4894C217.325 78.566 217.502 77.7511 217.857 77.0448C218.213 76.3344 218.714 75.782 219.361 75.3873C220.012 74.9888 220.782 74.7895 221.669 74.7895C222.407 74.7895 223.06 74.9256 223.629 75.1979C224.201 75.4663 224.657 75.8471 224.996 76.3403C225.335 76.8297 225.529 77.4019 225.576 78.057H223.528C223.445 77.6189 223.248 77.2539 222.936 76.9619C222.628 76.6659 222.216 76.5179 221.699 76.5179C221.261 76.5179 220.876 76.6363 220.545 76.8731C220.213 77.1059 219.955 77.4413 219.769 77.8794C219.588 78.3174 219.497 78.8423 219.497 79.4539C219.497 80.0735 219.588 80.6062 219.769 81.0522C219.951 81.4941 220.205 81.8355 220.533 82.0762C220.864 82.313 221.253 82.4314 221.699 82.4314C222.015 82.4314 222.297 82.3722 222.546 82.2538C222.798 82.1315 223.009 81.9558 223.179 81.727C223.349 81.4981 223.465 81.2199 223.528 80.8923H225.576C225.525 81.5356 225.335 82.1058 225.008 82.603C224.68 83.0963 224.234 83.483 223.67 83.7632C223.106 84.0395 222.443 84.1776 221.681 84.1776ZM229.479 78.6726V84H227.336V71.8771H229.431V76.4528H229.538C229.751 75.9398 230.08 75.5353 230.526 75.2393C230.976 74.9394 231.548 74.7895 232.243 74.7895C232.874 74.7895 233.425 74.9217 233.894 75.1861C234.364 75.4505 234.727 75.8372 234.984 76.3463C235.244 76.8553 235.374 77.4769 235.374 78.2109V84H233.231V78.5423C233.231 77.9307 233.074 77.4552 232.758 77.1158C232.446 76.7725 232.008 76.6008 231.444 76.6008C231.065 76.6008 230.726 76.6837 230.426 76.8494C230.13 77.0112 229.897 77.246 229.727 77.5538C229.561 77.8616 229.479 78.2345 229.479 78.6726Z" fill="white"/>
<rect x="197.1" y="129.1" width="159.8" height="50.8" rx="3.9" fill="#080219" stroke="url(#paint1_linear_4031_11482)" stroke-width="0.2"/>
<path d="M259.159 160V149.818H260.695V154.68H260.82L265.09 149.818H267.024L262.918 154.402L267.039 160H265.19L261.898 155.451L260.695 156.833V160H259.159ZM268.815 160V152.364H270.302V160H268.815ZM269.566 151.185C269.307 151.185 269.085 151.099 268.9 150.927C268.717 150.751 268.626 150.542 268.626 150.3C268.626 150.055 268.717 149.846 268.9 149.674C269.085 149.498 269.307 149.411 269.566 149.411C269.824 149.411 270.045 149.498 270.227 149.674C270.413 149.846 270.505 150.055 270.505 150.3C270.505 150.542 270.413 150.751 270.227 150.927C270.045 151.099 269.824 151.185 269.566 151.185ZM275.518 160.154C274.802 160.154 274.177 159.99 273.644 159.662C273.11 159.334 272.696 158.875 272.401 158.285C272.106 157.695 271.958 157.005 271.958 156.217C271.958 155.424 272.106 154.732 272.401 154.138C272.696 153.545 273.11 153.085 273.644 152.756C274.177 152.428 274.802 152.264 275.518 152.264C276.234 152.264 276.859 152.428 277.392 152.756C277.926 153.085 278.34 153.545 278.635 154.138C278.93 154.732 279.078 155.424 279.078 156.217C279.078 157.005 278.93 157.695 278.635 158.285C278.34 158.875 277.926 159.334 277.392 159.662C276.859 159.99 276.234 160.154 275.518 160.154ZM275.523 158.906C275.987 158.906 276.371 158.784 276.676 158.538C276.981 158.293 277.207 157.967 277.353 157.559C277.502 157.151 277.576 156.702 277.576 156.212C277.576 155.724 277.502 155.277 277.353 154.869C277.207 154.458 276.981 154.129 276.676 153.88C276.371 153.631 275.987 153.507 275.523 153.507C275.056 153.507 274.668 153.631 274.36 153.88C274.055 154.129 273.828 154.458 273.679 154.869C273.533 155.277 273.46 155.724 273.46 156.212C273.46 156.702 273.533 157.151 273.679 157.559C273.828 157.967 274.055 158.293 274.36 158.538C274.668 158.784 275.056 158.906 275.523 158.906ZM286.459 154.228L285.112 154.467C285.056 154.294 284.966 154.13 284.844 153.974C284.724 153.819 284.562 153.691 284.356 153.592C284.151 153.492 283.894 153.442 283.586 153.442C283.165 153.442 282.813 153.537 282.532 153.726C282.25 153.911 282.109 154.152 282.109 154.447C282.109 154.702 282.204 154.907 282.393 155.063C282.581 155.219 282.886 155.347 283.307 155.446L284.52 155.724C285.223 155.887 285.747 156.137 286.091 156.475C286.436 156.813 286.608 157.252 286.608 157.793C286.608 158.25 286.476 158.658 286.211 159.016C285.949 159.37 285.583 159.649 285.112 159.851C284.645 160.053 284.103 160.154 283.486 160.154C282.631 160.154 281.933 159.972 281.393 159.607C280.853 159.239 280.522 158.717 280.399 158.041L281.836 157.822C281.925 158.197 282.109 158.48 282.388 158.673C282.666 158.862 283.029 158.956 283.476 158.956C283.964 158.956 284.353 158.855 284.645 158.653C284.936 158.447 285.082 158.197 285.082 157.902C285.082 157.663 284.993 157.463 284.814 157.3C284.638 157.138 284.368 157.015 284.003 156.933L282.711 156.649C281.998 156.487 281.471 156.228 281.13 155.874C280.792 155.519 280.623 155.07 280.623 154.526C280.623 154.076 280.749 153.681 281 153.343C281.252 153.005 281.6 152.741 282.044 152.553C282.489 152.36 282.997 152.264 283.571 152.264C284.396 152.264 285.046 152.443 285.52 152.801C285.994 153.156 286.307 153.631 286.459 154.228ZM289.61 157.41L289.6 155.595H289.859L292.901 152.364H294.681L291.211 156.043H290.977L289.61 157.41ZM288.243 160V149.818H289.729V160H288.243ZM293.065 160L290.331 156.371L291.355 155.332L294.89 160H293.065Z" fill="#D5D5D5"/>
<rect x="197.1" y="196.1" width="159.8" height="50.8" rx="3.9" fill="#080219" stroke="url(#paint2_linear_4031_11482)" stroke-width="0.2"/>
<rect x="197.1" y="263.1" width="159.8" height="50.8" rx="3.9" fill="#080219" stroke="url(#paint3_linear_4031_11482)" stroke-width="0.2"/>
<rect x="197.1" y="330.1" width="159.8" height="50.8" rx="3.9" fill="#080219" stroke="url(#paint4_linear_4031_11482)" stroke-width="0.2"/>
<rect x="103.1" y="397.1" width="159.8" height="50.8" rx="3.9" fill="#080219" stroke="url(#paint5_linear_4031_11482)" stroke-width="0.2"/>
<rect x="16.1" y="129.1" width="159.8" height="50.8" rx="3.9" fill="#080219" stroke="url(#paint6_linear_4031_11482)" stroke-width="0.2"/>
<path d="M20 196.1H172C174.154 196.1 175.9 197.846 175.9 200V243C175.9 245.154 174.154 246.9 172 246.9H20C17.8461 246.9 16.0996 245.154 16.0996 243V200C16.0996 197.846 17.8461 196.1 20 196.1Z" fill="#080219" stroke="url(#paint7_linear_4031_11482)" stroke-width="0.2"/>
<path d="M20 263.1H172C174.154 263.1 175.9 264.846 175.9 267V310C175.9 312.154 174.154 313.9 172 313.9H20C17.8461 313.9 16.0996 312.154 16.0996 310V267C16.0996 264.846 17.8461 263.1 20 263.1Z" fill="#080219" stroke="url(#paint8_linear_4031_11482)" stroke-width="0.2"/>
<path d="M20 330.1H172C174.154 330.1 175.9 331.846 175.9 334V377C175.9 379.154 174.154 380.9 172 380.9H20C17.8461 380.9 16.0996 379.154 16.0996 377V334C16.0996 331.846 17.8461 330.1 20 330.1Z" fill="#080219" stroke="url(#paint9_linear_4031_11482)" stroke-width="0.2"/>
<path d="M83.2679 160H81.6372L85.3012 149.818H87.0761L90.7402 160H89.1095L86.2309 151.668H86.1514L83.2679 160ZM83.5413 156.013H88.8311V157.305H83.5413V156.013ZM90.5053 151.141V149.818H98.3852V151.141H95.2084V160H93.6771V151.141H90.5053ZM100.127 149.818H101.991L105.232 157.733H105.352L108.593 149.818H110.457V160H108.996V152.632H108.901L105.899 159.985H104.685L101.683 152.627H101.588V160H100.127V149.818Z" fill="#D5D5D5"/>
<path d="M70.5357 227V216.818H74.2644C74.9869 216.818 75.5852 216.937 76.0591 217.176C76.5331 217.411 76.8877 217.731 77.1231 218.136C77.3584 218.537 77.476 218.989 77.476 219.493C77.476 219.917 77.3982 220.275 77.2424 220.567C77.0866 220.855 76.8778 221.087 76.616 221.263C76.3574 221.435 76.0724 221.561 75.7608 221.641V221.74C76.0989 221.757 76.4287 221.866 76.7502 222.068C77.075 222.267 77.3435 222.55 77.5556 222.918C77.7677 223.286 77.8738 223.734 77.8738 224.261C77.8738 224.781 77.7511 225.248 77.5059 225.663C77.2639 226.074 76.8894 226.4 76.3823 226.642C75.8752 226.881 75.2272 227 74.4384 227H70.5357ZM72.0719 225.683H74.2893C75.0251 225.683 75.552 225.54 75.8702 225.255C76.1884 224.97 76.3475 224.614 76.3475 224.186C76.3475 223.865 76.2663 223.57 76.1039 223.301C75.9415 223.033 75.7095 222.819 75.4079 222.66C75.1096 222.501 74.7549 222.421 74.3439 222.421H72.0719V225.683ZM72.0719 221.223H74.1302C74.4749 221.223 74.7848 221.157 75.0599 221.024C75.3383 220.892 75.5587 220.706 75.7211 220.467C75.8868 220.225 75.9697 219.94 75.9697 219.612C75.9697 219.191 75.8222 218.838 75.5272 218.553C75.2322 218.268 74.7798 218.126 74.1699 218.126H72.0719V221.223ZM79.5765 227V219.364H81.0133V220.577H81.0929C81.2321 220.166 81.4773 219.843 81.8287 219.607C82.1833 219.369 82.5844 219.249 83.0318 219.249C83.1246 219.249 83.234 219.253 83.3599 219.259C83.4892 219.266 83.5903 219.274 83.6632 219.284V220.706C83.6035 220.689 83.4975 220.671 83.345 220.651C83.1925 220.628 83.0401 220.616 82.8876 220.616C82.5363 220.616 82.2231 220.691 81.948 220.84C81.6762 220.986 81.4608 221.19 81.3017 221.452C81.1426 221.71 81.063 222.005 81.063 222.337V227H79.5765ZM87.1035 227.169C86.6196 227.169 86.1821 227.08 85.791 226.901C85.3999 226.718 85.09 226.455 84.8613 226.11C84.636 225.765 84.5233 225.343 84.5233 224.842C84.5233 224.411 84.6061 224.057 84.7719 223.778C84.9376 223.5 85.1613 223.28 85.443 223.117C85.7247 222.955 86.0396 222.832 86.3876 222.749C86.7356 222.666 87.0903 222.603 87.4515 222.56C87.9089 222.507 88.2801 222.464 88.5652 222.431C88.8502 222.395 89.0574 222.337 89.1866 222.257C89.3159 222.178 89.3805 222.048 89.3805 221.869V221.835C89.3805 221.4 89.2579 221.064 89.0126 220.825C88.7707 220.587 88.4094 220.467 87.9288 220.467C87.4283 220.467 87.0339 220.578 86.7456 220.8C86.4605 221.019 86.2633 221.263 86.154 221.531L84.7569 221.213C84.9227 220.749 85.1646 220.375 85.4828 220.089C85.8043 219.801 86.1738 219.592 86.5915 219.463C87.0091 219.33 87.4482 219.264 87.9089 219.264C88.2139 219.264 88.537 219.301 88.8784 219.374C89.2231 219.443 89.5446 219.572 89.8429 219.761C90.1445 219.95 90.3914 220.22 90.5836 220.572C90.7759 220.92 90.872 221.372 90.872 221.929V227H89.4203V225.956H89.3606C89.2645 226.148 89.1203 226.337 88.9281 226.523C88.7359 226.708 88.4889 226.862 88.1873 226.985C87.8857 227.108 87.5245 227.169 87.1035 227.169ZM87.4267 225.976C87.8377 225.976 88.189 225.895 88.4807 225.732C88.7756 225.57 88.9994 225.358 89.1518 225.096C89.3076 224.831 89.3855 224.547 89.3855 224.246V223.261C89.3325 223.314 89.2297 223.364 89.0773 223.411C88.9281 223.454 88.7574 223.492 88.5652 223.525C88.3729 223.555 88.1857 223.583 88.0034 223.609C87.8211 223.633 87.6686 223.652 87.546 223.669C87.2577 223.705 86.9942 223.767 86.7555 223.853C86.5202 223.939 86.3313 224.063 86.1888 224.226C86.0496 224.385 85.98 224.597 85.98 224.862C85.98 225.23 86.1158 225.509 86.3876 225.697C86.6594 225.883 87.0058 225.976 87.4267 225.976ZM94.3384 222.466V227H92.8519V219.364H94.2788V220.607H94.3732C94.5489 220.202 94.824 219.877 95.1985 219.632C95.5764 219.387 96.052 219.264 96.6254 219.264C97.1457 219.264 97.6015 219.374 97.9926 219.592C98.3837 219.808 98.6869 220.129 98.9024 220.557C99.1178 220.984 99.2255 221.513 99.2255 222.143V227H97.739V222.322C97.739 221.768 97.5948 221.336 97.3065 221.024C97.0181 220.709 96.6221 220.552 96.1183 220.552C95.7736 220.552 95.467 220.626 95.1985 220.776C94.9334 220.925 94.7229 221.143 94.5671 221.432C94.4147 221.717 94.3384 222.062 94.3384 222.466ZM104.436 227.154C103.697 227.154 103.06 226.987 102.527 226.652C101.996 226.314 101.589 225.848 101.304 225.255C101.019 224.662 100.876 223.982 100.876 223.217C100.876 222.441 101.022 221.757 101.314 221.163C101.605 220.567 102.016 220.101 102.547 219.766C103.077 219.432 103.702 219.264 104.421 219.264C105.001 219.264 105.518 219.372 105.972 219.587C106.426 219.799 106.792 220.098 107.071 220.482C107.352 220.867 107.52 221.316 107.573 221.83H106.126C106.047 221.472 105.864 221.163 105.579 220.905C105.297 220.646 104.92 220.517 104.446 220.517C104.031 220.517 103.668 220.626 103.357 220.845C103.049 221.061 102.808 221.369 102.636 221.77C102.464 222.168 102.378 222.638 102.378 223.182C102.378 223.739 102.462 224.219 102.631 224.624C102.8 225.028 103.039 225.341 103.347 225.563C103.659 225.785 104.025 225.896 104.446 225.896C104.727 225.896 104.983 225.845 105.211 225.742C105.443 225.636 105.637 225.485 105.793 225.29C105.952 225.094 106.063 224.859 106.126 224.584H107.573C107.52 225.078 107.359 225.518 107.091 225.906C106.822 226.294 106.462 226.599 106.012 226.821C105.564 227.043 105.039 227.154 104.436 227.154ZM110.649 222.466V227H109.162V216.818H110.629V220.607H110.724C110.903 220.196 111.176 219.869 111.544 219.627C111.912 219.385 112.392 219.264 112.986 219.264C113.509 219.264 113.967 219.372 114.358 219.587C114.752 219.803 115.057 220.124 115.273 220.552C115.491 220.976 115.601 221.506 115.601 222.143V227H114.114V222.322C114.114 221.762 113.97 221.327 113.682 221.019C113.393 220.708 112.992 220.552 112.479 220.552C112.127 220.552 111.812 220.626 111.534 220.776C111.259 220.925 111.042 221.143 110.883 221.432C110.727 221.717 110.649 222.062 110.649 222.466Z" fill="#D5D5D5"/>
<path d="M50.6433 283.818V294H49.2314L44.0559 286.533H43.9615V294H42.4252V283.818H43.8471L49.0275 291.295H49.122V283.818H50.6433ZM52.8842 294V283.818H56.5135C57.3023 283.818 57.9569 283.954 58.4773 284.226C59.0009 284.498 59.392 284.874 59.6506 285.354C59.9091 285.832 60.0384 286.384 60.0384 287.01C60.0384 287.633 59.9074 288.182 59.6456 288.656C59.3871 289.126 58.996 289.492 58.4723 289.754C57.9519 290.016 57.2973 290.147 56.5085 290.147H53.7592V288.825H56.3693C56.8665 288.825 57.2708 288.753 57.5824 288.611C57.8973 288.468 58.1276 288.261 58.2734 287.989C58.4193 287.718 58.4922 287.391 58.4922 287.01C58.4922 286.625 58.4176 286.292 58.2685 286.011C58.1226 285.729 57.8923 285.513 57.5774 285.364C57.2659 285.212 56.8565 285.136 56.3494 285.136H54.4205V294H52.8842ZM57.9105 289.406L60.4261 294H58.6761L56.2102 289.406H57.9105ZM63.4439 283.818V294H61.9077V283.818H63.4439ZM69.3862 294V283.818H73.0154C73.8043 283.818 74.4589 283.954 74.9792 284.226C75.5029 284.498 75.894 284.874 76.1525 285.354C76.411 285.832 76.5403 286.384 76.5403 287.01C76.5403 287.633 76.4094 288.182 76.1475 288.656C75.889 289.126 75.4979 289.492 74.9743 289.754C74.4539 290.016 73.7993 290.147 73.0105 290.147H70.2612V288.825H72.8713C73.3684 288.825 73.7728 288.753 74.0843 288.611C74.3992 288.468 74.6296 288.261 74.7754 287.989C74.9212 287.718 74.9941 287.391 74.9941 287.01C74.9941 286.625 74.9196 286.292 74.7704 286.011C74.6246 285.729 74.3942 285.513 74.0794 285.364C73.7678 285.212 73.3585 285.136 72.8514 285.136H70.9224V294H69.3862ZM74.4125 289.406L76.9281 294H75.1781L72.7122 289.406H74.4125ZM81.4858 294.154C80.7334 294.154 80.0855 293.993 79.5419 293.672C79.0017 293.347 78.584 292.891 78.2891 292.305C77.9974 291.715 77.8516 291.024 77.8516 290.232C77.8516 289.449 77.9974 288.76 78.2891 288.163C78.584 287.567 78.995 287.101 79.522 286.766C80.0523 286.432 80.6721 286.264 81.3814 286.264C81.8123 286.264 82.2299 286.335 82.6342 286.478C83.0386 286.621 83.4015 286.844 83.723 287.149C84.0445 287.454 84.2981 287.85 84.4837 288.337C84.6693 288.821 84.7621 289.41 84.7621 290.102V290.629H78.6918V289.516H83.3054C83.3054 289.125 83.2259 288.778 83.0668 288.477C82.9077 288.172 82.6839 287.931 82.3956 287.756C82.1106 287.58 81.7758 287.492 81.3913 287.492C80.9737 287.492 80.6091 287.595 80.2976 287.8C79.9893 288.003 79.7507 288.268 79.5817 288.596C79.416 288.921 79.3331 289.274 79.3331 289.655V290.525C79.3331 291.035 79.4226 291.469 79.6016 291.827C79.7839 292.185 80.0374 292.459 80.3622 292.648C80.687 292.833 81.0665 292.926 81.5007 292.926C81.7824 292.926 82.0393 292.886 82.2713 292.807C82.5033 292.724 82.7038 292.601 82.8729 292.439C83.0419 292.277 83.1712 292.076 83.2607 291.837L84.6676 292.091C84.5549 292.505 84.3527 292.868 84.0611 293.18C83.7727 293.488 83.4098 293.728 82.9723 293.901C82.5381 294.07 82.0426 294.154 81.4858 294.154ZM86.4114 294V286.364H87.8382V287.607H87.9327C88.0918 287.186 88.352 286.857 88.7132 286.622C89.0745 286.384 89.507 286.264 90.0108 286.264C90.5212 286.264 90.9488 286.384 91.2935 286.622C91.6415 286.861 91.8984 287.189 92.0641 287.607H92.1436C92.3259 287.199 92.6159 286.874 93.0137 286.632C93.4114 286.387 93.8854 286.264 94.4355 286.264C95.1283 286.264 95.6934 286.481 96.1309 286.915C96.5717 287.35 96.7921 288.004 96.7921 288.879V294H95.3056V289.018C95.3056 288.501 95.1647 288.127 94.883 287.895C94.6013 287.663 94.2649 287.547 93.8738 287.547C93.3899 287.547 93.0137 287.696 92.7452 287.994C92.4767 288.289 92.3425 288.669 92.3425 289.133V294H90.861V288.924C90.861 288.51 90.7317 288.177 90.4732 287.925C90.2147 287.673 89.8783 287.547 89.464 287.547C89.1822 287.547 88.9221 287.621 88.6834 287.771C88.4481 287.916 88.2575 288.12 88.1117 288.382C87.9692 288.644 87.8979 288.947 87.8979 289.292V294H86.4114ZM98.7844 294V286.364H100.271V294H98.7844ZM99.5352 285.185C99.2766 285.185 99.0546 285.099 98.869 284.927C98.6867 284.751 98.5955 284.542 98.5955 284.3C98.5955 284.055 98.6867 283.846 98.869 283.674C99.0546 283.498 99.2766 283.411 99.5352 283.411C99.7937 283.411 100.014 283.498 100.196 283.674C100.382 283.846 100.475 284.055 100.475 284.3C100.475 284.542 100.382 284.751 100.196 284.927C100.014 285.099 99.7937 285.185 99.5352 285.185ZM105.835 286.364V287.557H101.664V286.364H105.835ZM102.783 284.534H104.269V291.758C104.269 292.046 104.312 292.263 104.399 292.409C104.485 292.552 104.596 292.649 104.732 292.702C104.871 292.752 105.022 292.777 105.184 292.777C105.303 292.777 105.408 292.769 105.497 292.752C105.587 292.736 105.656 292.722 105.706 292.712L105.975 293.94C105.888 293.973 105.766 294.007 105.607 294.04C105.448 294.076 105.249 294.096 105.01 294.099C104.619 294.106 104.254 294.036 103.916 293.891C103.578 293.745 103.305 293.519 103.096 293.214C102.887 292.91 102.783 292.527 102.783 292.066V284.534ZM111.044 286.364V287.557H106.873V286.364H111.044ZM107.992 284.534H109.478V291.758C109.478 292.046 109.521 292.263 109.608 292.409C109.694 292.552 109.805 292.649 109.941 292.702C110.08 292.752 110.231 292.777 110.393 292.777C110.512 292.777 110.617 292.769 110.706 292.752C110.796 292.736 110.865 292.722 110.915 292.712L111.184 293.94C111.097 293.973 110.975 294.007 110.816 294.04C110.657 294.076 110.458 294.096 110.219 294.099C109.828 294.106 109.463 294.036 109.125 293.891C108.787 293.745 108.514 293.519 108.305 293.214C108.096 292.91 107.992 292.527 107.992 292.066V284.534ZM114.911 294.169C114.427 294.169 113.99 294.08 113.599 293.901C113.207 293.718 112.898 293.455 112.669 293.11C112.443 292.765 112.331 292.343 112.331 291.842C112.331 291.411 112.414 291.057 112.579 290.778C112.745 290.5 112.969 290.28 113.251 290.117C113.532 289.955 113.847 289.832 114.195 289.749C114.543 289.666 114.898 289.603 115.259 289.56C115.716 289.507 116.088 289.464 116.373 289.431C116.658 289.395 116.865 289.337 116.994 289.257C117.123 289.178 117.188 289.048 117.188 288.869V288.835C117.188 288.4 117.065 288.064 116.82 287.825C116.578 287.587 116.217 287.467 115.736 287.467C115.236 287.467 114.841 287.578 114.553 287.8C114.268 288.019 114.071 288.263 113.961 288.531L112.564 288.213C112.73 287.749 112.972 287.375 113.29 287.089C113.612 286.801 113.981 286.592 114.399 286.463C114.817 286.33 115.256 286.264 115.716 286.264C116.021 286.264 116.345 286.301 116.686 286.374C117.031 286.443 117.352 286.572 117.65 286.761C117.952 286.95 118.199 287.22 118.391 287.572C118.583 287.92 118.68 288.372 118.68 288.929V294H117.228V292.956H117.168C117.072 293.148 116.928 293.337 116.736 293.523C116.543 293.708 116.296 293.862 115.995 293.985C115.693 294.108 115.332 294.169 114.911 294.169ZM115.234 292.976C115.645 292.976 115.997 292.895 116.288 292.732C116.583 292.57 116.807 292.358 116.959 292.096C117.115 291.831 117.193 291.547 117.193 291.246V290.261C117.14 290.314 117.037 290.364 116.885 290.411C116.736 290.454 116.565 290.492 116.373 290.525C116.18 290.555 115.993 290.583 115.811 290.609C115.629 290.633 115.476 290.652 115.354 290.669C115.065 290.705 114.802 290.767 114.563 290.853C114.328 290.939 114.139 291.063 113.996 291.226C113.857 291.385 113.787 291.597 113.787 291.862C113.787 292.23 113.923 292.509 114.195 292.697C114.467 292.883 114.813 292.976 115.234 292.976ZM122.146 289.466V294H120.659V286.364H122.086V287.607H122.181C122.356 287.202 122.632 286.877 123.006 286.632C123.384 286.387 123.859 286.264 124.433 286.264C124.953 286.264 125.409 286.374 125.8 286.592C126.191 286.808 126.494 287.129 126.71 287.557C126.925 287.984 127.033 288.513 127.033 289.143V294H125.547V289.322C125.547 288.768 125.402 288.336 125.114 288.024C124.826 287.709 124.43 287.552 123.926 287.552C123.581 287.552 123.275 287.626 123.006 287.776C122.741 287.925 122.53 288.143 122.375 288.432C122.222 288.717 122.146 289.062 122.146 289.466ZM132.243 294.154C131.504 294.154 130.868 293.987 130.334 293.652C129.804 293.314 129.396 292.848 129.111 292.255C128.826 291.662 128.684 290.982 128.684 290.217C128.684 289.441 128.829 288.757 129.121 288.163C129.413 287.567 129.824 287.101 130.354 286.766C130.884 286.432 131.509 286.264 132.228 286.264C132.808 286.264 133.325 286.372 133.779 286.587C134.234 286.799 134.6 287.098 134.878 287.482C135.16 287.867 135.327 288.316 135.38 288.83H133.934C133.854 288.472 133.672 288.163 133.387 287.905C133.105 287.646 132.727 287.517 132.253 287.517C131.839 287.517 131.476 287.626 131.164 287.845C130.856 288.061 130.616 288.369 130.444 288.77C130.271 289.168 130.185 289.638 130.185 290.182C130.185 290.739 130.27 291.219 130.439 291.624C130.608 292.028 130.846 292.341 131.154 292.563C131.466 292.785 131.832 292.896 132.253 292.896C132.535 292.896 132.79 292.845 133.019 292.742C133.251 292.636 133.445 292.485 133.6 292.29C133.76 292.094 133.871 291.859 133.934 291.584H135.38C135.327 292.078 135.167 292.518 134.898 292.906C134.63 293.294 134.27 293.599 133.819 293.821C133.372 294.043 132.846 294.154 132.243 294.154ZM140.261 294.154C139.509 294.154 138.861 293.993 138.317 293.672C137.777 293.347 137.359 292.891 137.064 292.305C136.773 291.715 136.627 291.024 136.627 290.232C136.627 289.449 136.773 288.76 137.064 288.163C137.359 287.567 137.77 287.101 138.297 286.766C138.828 286.432 139.448 286.264 140.157 286.264C140.588 286.264 141.005 286.335 141.41 286.478C141.814 286.621 142.177 286.844 142.498 287.149C142.82 287.454 143.073 287.85 143.259 288.337C143.445 288.821 143.537 289.41 143.537 290.102V290.629H137.467V289.516H142.081C142.081 289.125 142.001 288.778 141.842 288.477C141.683 288.172 141.459 287.931 141.171 287.756C140.886 287.58 140.551 287.492 140.167 287.492C139.749 287.492 139.385 287.595 139.073 287.8C138.765 288.003 138.526 288.268 138.357 288.596C138.191 288.921 138.108 289.274 138.108 289.655V290.525C138.108 291.035 138.198 291.469 138.377 291.827C138.559 292.185 138.813 292.459 139.138 292.648C139.462 292.833 139.842 292.926 140.276 292.926C140.558 292.926 140.815 292.886 141.047 292.807C141.279 292.724 141.479 292.601 141.648 292.439C141.817 292.277 141.947 292.076 142.036 291.837L143.443 292.091C143.33 292.505 143.128 292.868 142.836 293.18C142.548 293.488 142.185 293.728 141.748 293.901C141.314 294.07 140.818 294.154 140.261 294.154ZM150.909 288.228L149.562 288.467C149.505 288.294 149.416 288.13 149.293 287.974C149.174 287.819 149.012 287.691 148.806 287.592C148.601 287.492 148.344 287.442 148.036 287.442C147.615 287.442 147.263 287.537 146.982 287.726C146.7 287.911 146.559 288.152 146.559 288.447C146.559 288.702 146.653 288.907 146.842 289.063C147.031 289.219 147.336 289.347 147.757 289.446L148.97 289.724C149.673 289.887 150.196 290.137 150.541 290.475C150.886 290.813 151.058 291.252 151.058 291.793C151.058 292.25 150.926 292.658 150.661 293.016C150.399 293.37 150.032 293.649 149.562 293.851C149.094 294.053 148.553 294.154 147.936 294.154C147.081 294.154 146.383 293.972 145.843 293.607C145.303 293.239 144.971 292.717 144.849 292.041L146.286 291.822C146.375 292.197 146.559 292.48 146.837 292.673C147.116 292.862 147.479 292.956 147.926 292.956C148.413 292.956 148.803 292.855 149.094 292.653C149.386 292.447 149.532 292.197 149.532 291.902C149.532 291.663 149.442 291.463 149.263 291.3C149.088 291.138 148.818 291.015 148.453 290.933L147.161 290.649C146.448 290.487 145.921 290.228 145.58 289.874C145.241 289.519 145.072 289.07 145.072 288.526C145.072 288.076 145.198 287.681 145.45 287.343C145.702 287.005 146.05 286.741 146.494 286.553C146.938 286.36 147.447 286.264 148.021 286.264C148.846 286.264 149.496 286.443 149.969 286.801C150.443 287.156 150.757 287.631 150.909 288.228Z" fill="#D5D5D5"/>
<path d="M87.8799 353.493C87.8269 353.022 87.6081 352.658 87.2236 352.399C86.8392 352.137 86.3553 352.006 85.7719 352.006C85.3543 352.006 84.993 352.073 84.6881 352.205C84.3832 352.335 84.1462 352.513 83.9772 352.742C83.8115 352.968 83.7286 353.224 83.7286 353.513C83.7286 353.755 83.7849 353.964 83.8976 354.139C84.0136 354.315 84.1644 354.462 84.3501 354.582C84.539 354.698 84.7412 354.795 84.9566 354.875C85.172 354.951 85.3792 355.014 85.578 355.064L86.5724 355.322C86.8972 355.402 87.2303 355.51 87.5716 355.646C87.913 355.781 88.2296 355.96 88.5212 356.183C88.8129 356.405 89.0482 356.68 89.2272 357.008C89.4095 357.336 89.5006 357.729 89.5006 358.186C89.5006 358.763 89.3515 359.275 89.0532 359.722C88.7582 360.17 88.329 360.523 87.7655 360.781C87.2054 361.04 86.5276 361.169 85.7322 361.169C84.9698 361.169 84.3103 361.048 83.7535 360.806C83.1966 360.564 82.7608 360.221 82.4459 359.777C82.1311 359.33 81.9571 358.799 81.9239 358.186H83.4651C83.4949 358.554 83.6143 358.861 83.8231 359.106C84.0352 359.348 84.3053 359.528 84.6334 359.648C84.9649 359.764 85.3278 359.822 85.7222 359.822C86.1564 359.822 86.5425 359.754 86.8806 359.618C87.222 359.479 87.4904 359.286 87.686 359.041C87.8815 358.793 87.9793 358.503 87.9793 358.171C87.9793 357.87 87.8931 357.623 87.7208 357.43C87.5518 357.238 87.3214 357.079 87.0297 356.953C86.7414 356.827 86.4149 356.716 86.0503 356.62L84.8472 356.292C84.0319 356.07 83.3856 355.743 82.9083 355.312C82.4343 354.882 82.1974 354.312 82.1974 353.602C82.1974 353.016 82.3564 352.504 82.6746 352.066C82.9928 351.629 83.4237 351.289 83.9672 351.047C84.5108 350.802 85.124 350.679 85.8067 350.679C86.4961 350.679 87.1043 350.8 87.6313 351.042C88.1616 351.284 88.5792 351.617 88.8841 352.041C89.1891 352.462 89.3482 352.946 89.3614 353.493H87.8799ZM91.3364 350.818H93.2007L96.4422 358.733H96.5615L99.803 350.818H101.667V361H100.206V353.632H100.111L97.1084 360.985H95.8953L92.8925 353.627H92.798V361H91.3364V350.818ZM109.454 353.493C109.401 353.022 109.182 352.658 108.798 352.399C108.413 352.137 107.929 352.006 107.346 352.006C106.929 352.006 106.567 352.073 106.262 352.205C105.957 352.335 105.72 352.513 105.551 352.742C105.386 352.968 105.303 353.224 105.303 353.513C105.303 353.755 105.359 353.964 105.472 354.139C105.588 354.315 105.739 354.462 105.924 354.582C106.113 354.698 106.315 354.795 106.531 354.875C106.746 354.951 106.953 355.014 107.152 355.064L108.147 355.322C108.471 355.402 108.804 355.51 109.146 355.646C109.487 355.781 109.804 355.96 110.095 356.183C110.387 356.405 110.622 356.68 110.801 357.008C110.984 357.336 111.075 357.729 111.075 358.186C111.075 358.763 110.926 359.275 110.627 359.722C110.332 360.17 109.903 360.523 109.34 360.781C108.78 361.04 108.102 361.169 107.306 361.169C106.544 361.169 105.884 361.048 105.328 360.806C104.771 360.564 104.335 360.221 104.02 359.777C103.705 359.33 103.531 358.799 103.498 358.186H105.039C105.069 358.554 105.188 358.861 105.397 359.106C105.609 359.348 105.88 359.528 106.208 359.648C106.539 359.764 106.902 359.822 107.296 359.822C107.731 359.822 108.117 359.754 108.455 359.618C108.796 359.479 109.065 359.286 109.26 359.041C109.456 358.793 109.554 358.503 109.554 358.171C109.554 357.87 109.467 357.623 109.295 357.43C109.126 357.238 108.896 357.079 108.604 356.953C108.316 356.827 107.989 356.716 107.625 356.62L106.421 356.292C105.606 356.07 104.96 355.743 104.483 355.312C104.009 354.882 103.772 354.312 103.772 353.602C103.772 353.016 103.931 352.504 104.249 352.066C104.567 351.629 104.998 351.289 105.541 351.047C106.085 350.802 106.698 350.679 107.381 350.679C108.07 350.679 108.679 350.8 109.206 351.042C109.736 351.284 110.153 351.617 110.458 352.041C110.763 352.462 110.922 352.946 110.936 353.493H109.454Z" fill="#D5D5D5"/>
<path d="M263.815 227V216.818H267.445C268.237 216.818 268.893 216.962 269.413 217.251C269.934 217.539 270.323 217.933 270.582 218.434C270.84 218.931 270.969 219.491 270.969 220.114C270.969 220.741 270.838 221.304 270.577 221.805C270.318 222.302 269.927 222.696 269.403 222.988C268.883 223.276 268.228 223.42 267.44 223.42H264.944V222.118H267.3C267.801 222.118 268.207 222.032 268.518 221.859C268.83 221.684 269.059 221.445 269.204 221.143C269.35 220.842 269.423 220.499 269.423 220.114C269.423 219.73 269.35 219.388 269.204 219.09C269.059 218.792 268.828 218.558 268.513 218.389C268.202 218.22 267.791 218.136 267.28 218.136H265.351V227H263.815ZM272.77 227V216.818H276.4C277.192 216.818 277.848 216.962 278.368 217.251C278.889 217.539 279.278 217.933 279.537 218.434C279.795 218.931 279.924 219.491 279.924 220.114C279.924 220.741 279.794 221.304 279.532 221.805C279.273 222.302 278.882 222.696 278.358 222.988C277.838 223.276 277.183 223.42 276.395 223.42H273.899V222.118H276.255C276.756 222.118 277.162 222.032 277.473 221.859C277.785 221.684 278.014 221.445 278.16 221.143C278.305 220.842 278.378 220.499 278.378 220.114C278.378 219.73 278.305 219.388 278.16 219.09C278.014 218.792 277.783 218.558 277.469 218.389C277.157 218.22 276.746 218.136 276.236 218.136H274.307V227H272.77ZM283.262 216.818V227H281.725V216.818H283.262Z" fill="#D5D5D5"/>
<path d="M248.081 285V274.818H251.81C252.533 274.818 253.131 274.937 253.605 275.176C254.079 275.411 254.434 275.731 254.669 276.136C254.904 276.537 255.022 276.989 255.022 277.493C255.022 277.917 254.944 278.275 254.788 278.567C254.632 278.855 254.424 279.087 254.162 279.263C253.903 279.435 253.618 279.561 253.307 279.641V279.74C253.645 279.757 253.974 279.866 254.296 280.068C254.621 280.267 254.889 280.55 255.101 280.918C255.314 281.286 255.42 281.734 255.42 282.261C255.42 282.781 255.297 283.248 255.052 283.663C254.81 284.074 254.435 284.4 253.928 284.642C253.421 284.881 252.773 285 251.984 285H248.081ZM249.618 283.683H251.835C252.571 283.683 253.098 283.54 253.416 283.255C253.734 282.97 253.893 282.614 253.893 282.186C253.893 281.865 253.812 281.57 253.65 281.301C253.487 281.033 253.255 280.819 252.954 280.66C252.655 280.501 252.301 280.421 251.89 280.421H249.618V283.683ZM249.618 279.223H251.676C252.021 279.223 252.331 279.157 252.606 279.024C252.884 278.892 253.104 278.706 253.267 278.467C253.433 278.225 253.515 277.94 253.515 277.612C253.515 277.191 253.368 276.838 253.073 276.553C252.778 276.268 252.326 276.126 251.716 276.126H249.618V279.223ZM261.96 281.833V277.364H263.451V285H261.99V283.678H261.91C261.734 284.085 261.453 284.425 261.065 284.697C260.68 284.965 260.201 285.099 259.628 285.099C259.137 285.099 258.703 284.992 258.325 284.776C257.951 284.558 257.656 284.234 257.441 283.807C257.228 283.379 257.122 282.851 257.122 282.221V277.364H258.609V282.042C258.609 282.562 258.753 282.977 259.041 283.285C259.33 283.593 259.704 283.747 260.165 283.747C260.443 283.747 260.72 283.678 260.995 283.538C261.274 283.399 261.504 283.189 261.686 282.907C261.872 282.625 261.963 282.267 261.96 281.833ZM271.171 279.228L269.824 279.467C269.767 279.294 269.678 279.13 269.555 278.974C269.436 278.819 269.273 278.691 269.068 278.592C268.862 278.492 268.605 278.442 268.297 278.442C267.876 278.442 267.525 278.537 267.243 278.726C266.962 278.911 266.821 279.152 266.821 279.447C266.821 279.702 266.915 279.907 267.104 280.063C267.293 280.219 267.598 280.347 268.019 280.446L269.232 280.724C269.935 280.887 270.458 281.137 270.803 281.475C271.148 281.813 271.32 282.252 271.32 282.793C271.32 283.25 271.187 283.658 270.922 284.016C270.66 284.37 270.294 284.649 269.824 284.851C269.356 285.053 268.814 285.154 268.198 285.154C267.343 285.154 266.645 284.972 266.105 284.607C265.565 284.239 265.233 283.717 265.11 283.041L266.547 282.822C266.637 283.197 266.821 283.48 267.099 283.673C267.377 283.862 267.74 283.956 268.188 283.956C268.675 283.956 269.065 283.855 269.356 283.653C269.648 283.447 269.794 283.197 269.794 282.902C269.794 282.663 269.704 282.463 269.525 282.3C269.35 282.138 269.079 282.015 268.715 281.933L267.422 281.649C266.71 281.487 266.183 281.228 265.841 280.874C265.503 280.519 265.334 280.07 265.334 279.526C265.334 279.076 265.46 278.681 265.712 278.343C265.964 278.005 266.312 277.741 266.756 277.553C267.2 277.36 267.709 277.264 268.282 277.264C269.108 277.264 269.757 277.443 270.231 277.801C270.705 278.156 271.018 278.631 271.171 279.228ZM272.954 285V277.364H274.441V285H272.954ZM273.705 276.185C273.447 276.185 273.224 276.099 273.039 275.927C272.857 275.751 272.765 275.542 272.765 275.3C272.765 275.055 272.857 274.846 273.039 274.674C273.224 274.498 273.447 274.411 273.705 274.411C273.964 274.411 274.184 274.498 274.366 274.674C274.552 274.846 274.645 275.055 274.645 275.3C274.645 275.542 274.552 275.751 274.366 275.927C274.184 276.099 273.964 276.185 273.705 276.185ZM277.927 280.466V285H276.441V277.364H277.868V278.607H277.962C278.138 278.202 278.413 277.877 278.787 277.632C279.165 277.387 279.641 277.264 280.214 277.264C280.734 277.264 281.19 277.374 281.581 277.592C281.972 277.808 282.276 278.129 282.491 278.557C282.707 278.984 282.814 279.513 282.814 280.143V285H281.328V280.322C281.328 279.768 281.184 279.336 280.895 279.024C280.607 278.709 280.211 278.552 279.707 278.552C279.362 278.552 279.056 278.626 278.787 278.776C278.522 278.925 278.312 279.143 278.156 279.432C278.003 279.717 277.927 280.062 277.927 280.466ZM288.099 285.154C287.347 285.154 286.699 284.993 286.155 284.672C285.615 284.347 285.197 283.891 284.902 283.305C284.611 282.715 284.465 282.024 284.465 281.232C284.465 280.449 284.611 279.76 284.902 279.163C285.197 278.567 285.608 278.101 286.135 277.766C286.666 277.432 287.285 277.264 287.995 277.264C288.426 277.264 288.843 277.335 289.248 277.478C289.652 277.621 290.015 277.844 290.336 278.149C290.658 278.454 290.911 278.85 291.097 279.337C291.283 279.821 291.375 280.41 291.375 281.102V281.629H285.305V280.516H289.919C289.919 280.125 289.839 279.778 289.68 279.477C289.521 279.172 289.297 278.931 289.009 278.756C288.724 278.58 288.389 278.492 288.005 278.492C287.587 278.492 287.222 278.595 286.911 278.8C286.603 279.003 286.364 279.268 286.195 279.596C286.029 279.921 285.946 280.274 285.946 280.655V281.525C285.946 282.035 286.036 282.469 286.215 282.827C286.397 283.185 286.651 283.459 286.975 283.648C287.3 283.833 287.68 283.926 288.114 283.926C288.396 283.926 288.653 283.886 288.885 283.807C289.117 283.724 289.317 283.601 289.486 283.439C289.655 283.277 289.784 283.076 289.874 282.837L291.281 283.091C291.168 283.505 290.966 283.868 290.674 284.18C290.386 284.488 290.023 284.728 289.586 284.901C289.151 285.07 288.656 285.154 288.099 285.154ZM298.747 279.228L297.4 279.467C297.343 279.294 297.254 279.13 297.131 278.974C297.012 278.819 296.849 278.691 296.644 278.592C296.439 278.492 296.182 278.442 295.873 278.442C295.452 278.442 295.101 278.537 294.819 278.726C294.538 278.911 294.397 279.152 294.397 279.447C294.397 279.702 294.491 279.907 294.68 280.063C294.869 280.219 295.174 280.347 295.595 280.446L296.808 280.724C297.511 280.887 298.034 281.137 298.379 281.475C298.724 281.813 298.896 282.252 298.896 282.793C298.896 283.25 298.764 283.658 298.498 284.016C298.237 284.37 297.87 284.649 297.4 284.851C296.932 285.053 296.39 285.154 295.774 285.154C294.919 285.154 294.221 284.972 293.681 284.607C293.141 284.239 292.809 283.717 292.687 283.041L294.123 282.822C294.213 283.197 294.397 283.48 294.675 283.673C294.954 283.862 295.317 283.956 295.764 283.956C296.251 283.956 296.641 283.855 296.932 283.653C297.224 283.447 297.37 283.197 297.37 282.902C297.37 282.663 297.28 282.463 297.101 282.3C296.926 282.138 296.656 282.015 296.291 281.933L294.998 281.649C294.286 281.487 293.759 281.228 293.417 280.874C293.079 280.519 292.91 280.07 292.91 279.526C292.91 279.076 293.036 278.681 293.288 278.343C293.54 278.005 293.888 277.741 294.332 277.553C294.776 277.36 295.285 277.264 295.858 277.264C296.684 277.264 297.333 277.443 297.807 277.801C298.281 278.156 298.595 278.631 298.747 279.228ZM306.253 279.228L304.906 279.467C304.849 279.294 304.76 279.13 304.637 278.974C304.518 278.819 304.355 278.691 304.15 278.592C303.944 278.492 303.688 278.442 303.379 278.442C302.958 278.442 302.607 278.537 302.325 278.726C302.044 278.911 301.903 279.152 301.903 279.447C301.903 279.702 301.997 279.907 302.186 280.063C302.375 280.219 302.68 280.347 303.101 280.446L304.314 280.724C305.017 280.887 305.54 281.137 305.885 281.475C306.23 281.813 306.402 282.252 306.402 282.793C306.402 283.25 306.269 283.658 306.004 284.016C305.742 284.37 305.376 284.649 304.906 284.851C304.438 285.053 303.896 285.154 303.28 285.154C302.425 285.154 301.727 284.972 301.187 284.607C300.647 284.239 300.315 283.717 300.192 283.041L301.629 282.822C301.719 283.197 301.903 283.48 302.181 283.673C302.46 283.862 302.822 283.956 303.27 283.956C303.757 283.956 304.147 283.855 304.438 283.653C304.73 283.447 304.876 283.197 304.876 282.902C304.876 282.663 304.786 282.463 304.607 282.3C304.432 282.138 304.161 282.015 303.797 281.933L302.504 281.649C301.792 281.487 301.265 281.228 300.923 280.874C300.585 280.519 300.416 280.07 300.416 279.526C300.416 279.076 300.542 278.681 300.794 278.343C301.046 278.005 301.394 277.741 301.838 277.553C302.282 277.36 302.791 277.264 303.364 277.264C304.19 277.264 304.839 277.443 305.313 277.801C305.787 278.156 306.1 278.631 306.253 279.228ZM236.112 296.129H234.561C234.502 295.798 234.391 295.506 234.228 295.254C234.066 295.002 233.867 294.789 233.632 294.613C233.396 294.437 233.133 294.305 232.841 294.215C232.553 294.126 232.246 294.081 231.921 294.081C231.335 294.081 230.809 294.228 230.345 294.523C229.885 294.818 229.52 295.251 229.252 295.821C228.986 296.391 228.854 297.087 228.854 297.909C228.854 298.738 228.986 299.437 229.252 300.007C229.52 300.577 229.886 301.008 230.35 301.3C230.814 301.591 231.336 301.737 231.916 301.737C232.238 301.737 232.543 301.694 232.831 301.608C233.123 301.518 233.386 301.388 233.622 301.215C233.857 301.043 234.056 300.832 234.218 300.584C234.384 300.332 234.498 300.044 234.561 299.719L236.112 299.724C236.03 300.224 235.869 300.685 235.63 301.106C235.395 301.523 235.092 301.885 234.72 302.19C234.352 302.491 233.932 302.725 233.458 302.891C232.984 303.056 232.467 303.139 231.906 303.139C231.025 303.139 230.239 302.93 229.55 302.513C228.86 302.092 228.317 301.49 227.919 300.708C227.525 299.926 227.328 298.993 227.328 297.909C227.328 296.822 227.526 295.889 227.924 295.11C228.322 294.328 228.865 293.728 229.555 293.31C230.244 292.889 231.028 292.679 231.906 292.679C232.447 292.679 232.95 292.757 233.418 292.913C233.888 293.065 234.311 293.29 234.686 293.589C235.06 293.884 235.37 294.245 235.615 294.673C235.86 295.097 236.026 295.582 236.112 296.129ZM241.048 303.154C240.332 303.154 239.707 302.99 239.174 302.662C238.64 302.334 238.226 301.875 237.931 301.285C237.636 300.695 237.488 300.005 237.488 299.217C237.488 298.424 237.636 297.732 237.931 297.138C238.226 296.545 238.64 296.085 239.174 295.756C239.707 295.428 240.332 295.264 241.048 295.264C241.764 295.264 242.389 295.428 242.922 295.756C243.456 296.085 243.87 296.545 244.165 297.138C244.46 297.732 244.608 298.424 244.608 299.217C244.608 300.005 244.46 300.695 244.165 301.285C243.87 301.875 243.456 302.334 242.922 302.662C242.389 302.99 241.764 303.154 241.048 303.154ZM241.053 301.906C241.517 301.906 241.901 301.784 242.206 301.538C242.511 301.293 242.737 300.967 242.882 300.559C243.032 300.151 243.106 299.702 243.106 299.212C243.106 298.724 243.032 298.277 242.882 297.869C242.737 297.458 242.511 297.129 242.206 296.88C241.901 296.631 241.517 296.507 241.053 296.507C240.586 296.507 240.198 296.631 239.89 296.88C239.585 297.129 239.358 297.458 239.208 297.869C239.063 298.277 238.99 298.724 238.99 299.212C238.99 299.702 239.063 300.151 239.208 300.559C239.358 300.967 239.585 301.293 239.89 301.538C240.198 301.784 240.586 301.906 241.053 301.906ZM246.267 303V295.364H247.704V296.577H247.783C247.922 296.166 248.168 295.843 248.519 295.607C248.874 295.369 249.275 295.249 249.722 295.249C249.815 295.249 249.924 295.253 250.05 295.259C250.18 295.266 250.281 295.274 250.354 295.284V296.706C250.294 296.689 250.188 296.671 250.035 296.651C249.883 296.628 249.73 296.616 249.578 296.616C249.227 296.616 248.913 296.691 248.638 296.84C248.367 296.986 248.151 297.19 247.992 297.452C247.833 297.71 247.753 298.005 247.753 298.337V303H246.267ZM251.64 303V295.364H253.077V296.577H253.156C253.295 296.166 253.541 295.843 253.892 295.607C254.247 295.369 254.648 295.249 255.095 295.249C255.188 295.249 255.297 295.253 255.423 295.259C255.553 295.266 255.654 295.274 255.727 295.284V296.706C255.667 296.689 255.561 296.671 255.408 296.651C255.256 296.628 255.103 296.616 254.951 296.616C254.6 296.616 254.286 296.691 254.011 296.84C253.74 296.986 253.524 297.19 253.365 297.452C253.206 297.71 253.126 298.005 253.126 298.337V303H251.64ZM260.031 303.154C259.278 303.154 258.63 302.993 258.087 302.672C257.547 302.347 257.129 301.891 256.834 301.305C256.542 300.715 256.396 300.024 256.396 299.232C256.396 298.449 256.542 297.76 256.834 297.163C257.129 296.567 257.54 296.101 258.067 295.766C258.597 295.432 259.217 295.264 259.926 295.264C260.357 295.264 260.775 295.335 261.179 295.478C261.584 295.621 261.946 295.844 262.268 296.149C262.589 296.454 262.843 296.85 263.029 297.337C263.214 297.821 263.307 298.41 263.307 299.102V299.629H257.237V298.516H261.85C261.85 298.125 261.771 297.778 261.612 297.477C261.453 297.172 261.229 296.931 260.941 296.756C260.655 296.58 260.321 296.492 259.936 296.492C259.519 296.492 259.154 296.595 258.843 296.8C258.534 297.003 258.296 297.268 258.127 297.596C257.961 297.921 257.878 298.274 257.878 298.655V299.525C257.878 300.035 257.968 300.469 258.146 300.827C258.329 301.185 258.582 301.459 258.907 301.648C259.232 301.833 259.611 301.926 260.046 301.926C260.327 301.926 260.584 301.886 260.816 301.807C261.048 301.724 261.249 301.601 261.418 301.439C261.587 301.277 261.716 301.076 261.806 300.837L263.213 301.091C263.1 301.505 262.898 301.868 262.606 302.18C262.318 302.488 261.955 302.728 261.517 302.901C261.083 303.07 260.588 303.154 260.031 303.154ZM270.679 297.228L269.331 297.467C269.275 297.294 269.185 297.13 269.063 296.974C268.944 296.819 268.781 296.691 268.576 296.592C268.37 296.492 268.113 296.442 267.805 296.442C267.384 296.442 267.033 296.537 266.751 296.726C266.469 296.911 266.328 297.152 266.328 297.447C266.328 297.702 266.423 297.907 266.612 298.063C266.801 298.219 267.106 298.347 267.527 298.446L268.74 298.724C269.442 298.887 269.966 299.137 270.311 299.475C270.655 299.813 270.828 300.252 270.828 300.793C270.828 301.25 270.695 301.658 270.43 302.016C270.168 302.37 269.802 302.649 269.331 302.851C268.864 303.053 268.322 303.154 267.706 303.154C266.85 303.154 266.153 302.972 265.613 302.607C265.072 302.239 264.741 301.717 264.618 301.041L266.055 300.822C266.145 301.197 266.328 301.48 266.607 301.673C266.885 301.862 267.248 301.956 267.696 301.956C268.183 301.956 268.572 301.855 268.864 301.653C269.156 301.447 269.301 301.197 269.301 300.902C269.301 300.663 269.212 300.463 269.033 300.3C268.857 300.138 268.587 300.015 268.223 299.933L266.93 299.649C266.217 299.487 265.69 299.228 265.349 298.874C265.011 298.519 264.842 298.07 264.842 297.526C264.842 297.076 264.968 296.681 265.22 296.343C265.472 296.005 265.82 295.741 266.264 295.553C266.708 295.36 267.217 295.264 267.79 295.264C268.615 295.264 269.265 295.443 269.739 295.801C270.213 296.156 270.526 296.631 270.679 297.228ZM272.462 305.864V295.364H273.914V296.602H274.038C274.124 296.442 274.249 296.259 274.411 296.05C274.573 295.841 274.799 295.659 275.087 295.503C275.376 295.344 275.757 295.264 276.231 295.264C276.847 295.264 277.397 295.42 277.881 295.732C278.365 296.043 278.745 296.492 279.02 297.079C279.298 297.665 279.437 298.371 279.437 299.197C279.437 300.022 279.3 300.73 279.025 301.32C278.75 301.906 278.372 302.359 277.891 302.677C277.411 302.992 276.862 303.149 276.246 303.149C275.782 303.149 275.402 303.071 275.107 302.915C274.815 302.76 274.587 302.577 274.421 302.369C274.255 302.16 274.128 301.974 274.038 301.812H273.949V305.864H272.462ZM273.919 299.182C273.919 299.719 273.997 300.189 274.153 300.594C274.308 300.998 274.534 301.315 274.829 301.543C275.124 301.769 275.485 301.881 275.912 301.881C276.357 301.881 276.728 301.764 277.026 301.528C277.324 301.29 277.55 300.967 277.702 300.559C277.858 300.151 277.936 299.692 277.936 299.182C277.936 298.678 277.86 298.226 277.707 297.825C277.558 297.424 277.333 297.107 277.031 296.875C276.733 296.643 276.36 296.527 275.912 296.527C275.482 296.527 275.117 296.638 274.819 296.86C274.524 297.082 274.3 297.392 274.148 297.79C273.995 298.187 273.919 298.652 273.919 299.182ZM284.319 303.154C283.604 303.154 282.979 302.99 282.445 302.662C281.912 302.334 281.497 301.875 281.202 301.285C280.907 300.695 280.76 300.005 280.76 299.217C280.76 298.424 280.907 297.732 281.202 297.138C281.497 296.545 281.912 296.085 282.445 295.756C282.979 295.428 283.604 295.264 284.319 295.264C285.035 295.264 285.66 295.428 286.194 295.756C286.727 296.085 287.142 296.545 287.437 297.138C287.732 297.732 287.879 298.424 287.879 299.217C287.879 300.005 287.732 300.695 287.437 301.285C287.142 301.875 286.727 302.334 286.194 302.662C285.66 302.99 285.035 303.154 284.319 303.154ZM284.324 301.906C284.788 301.906 285.173 301.784 285.478 301.538C285.783 301.293 286.008 300.967 286.154 300.559C286.303 300.151 286.378 299.702 286.378 299.212C286.378 298.724 286.303 298.277 286.154 297.869C286.008 297.458 285.783 297.129 285.478 296.88C285.173 296.631 284.788 296.507 284.324 296.507C283.857 296.507 283.469 296.631 283.161 296.88C282.856 297.129 282.629 297.458 282.48 297.869C282.334 298.277 282.261 298.724 282.261 299.212C282.261 299.702 282.334 300.151 282.48 300.559C282.629 300.967 282.856 301.293 283.161 301.538C283.469 301.784 283.857 301.906 284.324 301.906ZM291.025 298.466V303H289.538V295.364H290.965V296.607H291.06C291.235 296.202 291.51 295.877 291.885 295.632C292.263 295.387 292.738 295.264 293.312 295.264C293.832 295.264 294.288 295.374 294.679 295.592C295.07 295.808 295.373 296.129 295.589 296.557C295.804 296.984 295.912 297.513 295.912 298.143V303H294.425V298.322C294.425 297.768 294.281 297.336 293.993 297.024C293.705 296.709 293.308 296.552 292.805 296.552C292.46 296.552 292.153 296.626 291.885 296.776C291.62 296.925 291.409 297.143 291.254 297.432C291.101 297.717 291.025 298.062 291.025 298.466ZM300.764 303.149C300.148 303.149 299.598 302.992 299.114 302.677C298.633 302.359 298.255 301.906 297.98 301.32C297.708 300.73 297.572 300.022 297.572 299.197C297.572 298.371 297.71 297.665 297.985 297.079C298.263 296.492 298.645 296.043 299.129 295.732C299.612 295.42 300.161 295.264 300.774 295.264C301.248 295.264 301.629 295.344 301.918 295.503C302.209 295.659 302.435 295.841 302.594 296.05C302.756 296.259 302.882 296.442 302.972 296.602H303.061V292.818H304.548V303H303.096V301.812H302.972C302.882 301.974 302.753 302.16 302.584 302.369C302.418 302.577 302.189 302.76 301.898 302.915C301.606 303.071 301.228 303.149 300.764 303.149ZM301.092 301.881C301.52 301.881 301.881 301.769 302.176 301.543C302.474 301.315 302.7 300.998 302.852 300.594C303.008 300.189 303.086 299.719 303.086 299.182C303.086 298.652 303.01 298.187 302.857 297.79C302.705 297.392 302.481 297.082 302.186 296.86C301.891 296.638 301.527 296.527 301.092 296.527C300.645 296.527 300.272 296.643 299.974 296.875C299.675 297.107 299.45 297.424 299.298 297.825C299.148 298.226 299.074 298.678 299.074 299.182C299.074 299.692 299.15 300.151 299.303 300.559C299.455 300.967 299.68 301.29 299.979 301.528C300.28 301.764 300.652 301.881 301.092 301.881ZM309.96 303.154C309.208 303.154 308.56 302.993 308.017 302.672C307.476 302.347 307.059 301.891 306.764 301.305C306.472 300.715 306.326 300.024 306.326 299.232C306.326 298.449 306.472 297.76 306.764 297.163C307.059 296.567 307.47 296.101 307.997 295.766C308.527 295.432 309.147 295.264 309.856 295.264C310.287 295.264 310.704 295.335 311.109 295.478C311.513 295.621 311.876 295.844 312.198 296.149C312.519 296.454 312.773 296.85 312.958 297.337C313.144 297.821 313.237 298.41 313.237 299.102V299.629H307.166V298.516H311.78C311.78 298.125 311.7 297.778 311.541 297.477C311.382 297.172 311.159 296.931 310.87 296.756C310.585 296.58 310.25 296.492 309.866 296.492C309.448 296.492 309.084 296.595 308.772 296.8C308.464 297.003 308.225 297.268 308.056 297.596C307.891 297.921 307.808 298.274 307.808 298.655V299.525C307.808 300.035 307.897 300.469 308.076 300.827C308.258 301.185 308.512 301.459 308.837 301.648C309.162 301.833 309.541 301.926 309.975 301.926C310.257 301.926 310.514 301.886 310.746 301.807C310.978 301.724 311.178 301.601 311.347 301.439C311.517 301.277 311.646 301.076 311.735 300.837L313.142 301.091C313.03 301.505 312.827 301.868 312.536 302.18C312.247 302.488 311.884 302.728 311.447 302.901C311.013 303.07 310.517 303.154 309.96 303.154ZM316.373 298.466V303H314.886V295.364H316.313V296.607H316.407C316.583 296.202 316.858 295.877 317.233 295.632C317.61 295.387 318.086 295.264 318.659 295.264C319.18 295.264 319.636 295.374 320.027 295.592C320.418 295.808 320.721 296.129 320.936 296.557C321.152 296.984 321.26 297.513 321.26 298.143V303H319.773V298.322C319.773 297.768 319.629 297.336 319.341 297.024C319.052 296.709 318.656 296.552 318.152 296.552C317.808 296.552 317.501 296.626 317.233 296.776C316.967 296.925 316.757 297.143 316.601 297.432C316.449 297.717 316.373 298.062 316.373 298.466ZM326.818 295.364V296.557H322.647V295.364H326.818ZM323.765 293.534H325.252V300.758C325.252 301.046 325.295 301.263 325.381 301.409C325.467 301.552 325.578 301.649 325.714 301.702C325.853 301.752 326.004 301.777 326.167 301.777C326.286 301.777 326.39 301.769 326.48 301.752C326.569 301.736 326.639 301.722 326.689 301.712L326.957 302.94C326.871 302.973 326.748 303.007 326.589 303.04C326.43 303.076 326.231 303.096 325.993 303.099C325.601 303.106 325.237 303.036 324.899 302.891C324.561 302.745 324.287 302.519 324.078 302.214C323.87 301.91 323.765 301.527 323.765 301.066V293.534Z" fill="#D5D5D5"/>
<path d="M228.397 350.818H230.261L233.503 358.733H233.622L236.864 350.818H238.728V361H237.266V353.632H237.172L234.169 360.985H232.956L229.953 353.627H229.859V361H228.397V350.818ZM244.059 361.154C243.343 361.154 242.718 360.99 242.184 360.662C241.651 360.334 241.236 359.875 240.941 359.285C240.647 358.695 240.499 358.005 240.499 357.217C240.499 356.424 240.647 355.732 240.941 355.138C241.236 354.545 241.651 354.085 242.184 353.756C242.718 353.428 243.343 353.264 244.059 353.264C244.775 353.264 245.399 353.428 245.933 353.756C246.467 354.085 246.881 354.545 247.176 355.138C247.471 355.732 247.618 356.424 247.618 357.217C247.618 358.005 247.471 358.695 247.176 359.285C246.881 359.875 246.467 360.334 245.933 360.662C245.399 360.99 244.775 361.154 244.059 361.154ZM244.064 359.906C244.528 359.906 244.912 359.784 245.217 359.538C245.522 359.293 245.747 358.967 245.893 358.559C246.042 358.151 246.117 357.702 246.117 357.212C246.117 356.724 246.042 356.277 245.893 355.869C245.747 355.458 245.522 355.129 245.217 354.88C244.912 354.631 244.528 354.507 244.064 354.507C243.596 354.507 243.209 354.631 242.9 354.88C242.595 355.129 242.368 355.458 242.219 355.869C242.073 356.277 242 356.724 242 357.212C242 357.702 242.073 358.151 242.219 358.559C242.368 358.967 242.595 359.293 242.9 359.538C243.209 359.784 243.596 359.906 244.064 359.906ZM249.397 361V350.818H250.883V354.602H250.973C251.059 354.442 251.183 354.259 251.346 354.05C251.508 353.841 251.734 353.659 252.022 353.503C252.31 353.344 252.691 353.264 253.165 353.264C253.782 353.264 254.332 353.42 254.816 353.732C255.3 354.043 255.679 354.492 255.954 355.079C256.233 355.665 256.372 356.371 256.372 357.197C256.372 358.022 256.235 358.73 255.959 359.32C255.684 359.906 255.306 360.359 254.826 360.677C254.345 360.992 253.797 361.149 253.18 361.149C252.716 361.149 252.337 361.071 252.042 360.915C251.75 360.76 251.521 360.577 251.356 360.369C251.19 360.16 251.062 359.974 250.973 359.812H250.849V361H249.397ZM250.854 357.182C250.854 357.719 250.931 358.189 251.087 358.594C251.243 358.998 251.468 359.315 251.763 359.543C252.058 359.769 252.42 359.881 252.847 359.881C253.291 359.881 253.663 359.764 253.961 359.528C254.259 359.29 254.485 358.967 254.637 358.559C254.793 358.151 254.871 357.692 254.871 357.182C254.871 356.678 254.794 356.226 254.642 355.825C254.493 355.424 254.267 355.107 253.966 354.875C253.668 354.643 253.295 354.527 252.847 354.527C252.416 354.527 252.052 354.638 251.753 354.86C251.458 355.082 251.235 355.392 251.082 355.79C250.93 356.187 250.854 356.652 250.854 357.182ZM258.041 361V353.364H259.528V361H258.041ZM258.792 352.185C258.533 352.185 258.311 352.099 258.126 351.927C257.944 351.751 257.852 351.542 257.852 351.3C257.852 351.055 257.944 350.846 258.126 350.674C258.311 350.498 258.533 350.411 258.792 350.411C259.051 350.411 259.271 350.498 259.453 350.674C259.639 350.846 259.732 351.055 259.732 351.3C259.732 351.542 259.639 351.751 259.453 351.927C259.271 352.099 259.051 352.185 258.792 352.185ZM263.014 350.818V361H261.528V350.818H263.014ZM268.305 361.154C267.553 361.154 266.905 360.993 266.361 360.672C265.821 360.347 265.403 359.891 265.108 359.305C264.817 358.715 264.671 358.024 264.671 357.232C264.671 356.449 264.817 355.76 265.108 355.163C265.403 354.567 265.814 354.101 266.341 353.766C266.872 353.432 267.491 353.264 268.201 353.264C268.632 353.264 269.049 353.335 269.454 353.478C269.858 353.621 270.221 353.844 270.542 354.149C270.864 354.454 271.117 354.85 271.303 355.337C271.489 355.821 271.581 356.41 271.581 357.102V357.629H265.511V356.516H270.125C270.125 356.125 270.045 355.778 269.886 355.477C269.727 355.172 269.503 354.931 269.215 354.756C268.93 354.58 268.595 354.492 268.211 354.492C267.793 354.492 267.428 354.595 267.117 354.8C266.809 355.003 266.57 355.268 266.401 355.596C266.235 355.921 266.152 356.274 266.152 356.655V357.525C266.152 358.035 266.242 358.469 266.421 358.827C266.603 359.185 266.857 359.459 267.182 359.648C267.506 359.833 267.886 359.926 268.32 359.926C268.602 359.926 268.859 359.886 269.091 359.807C269.323 359.724 269.523 359.601 269.692 359.439C269.861 359.277 269.991 359.076 270.08 358.837L271.487 359.091C271.374 359.505 271.172 359.868 270.88 360.18C270.592 360.488 270.229 360.728 269.792 360.901C269.357 361.07 268.862 361.154 268.305 361.154ZM277.055 361V350.818H280.784C281.506 350.818 282.105 350.937 282.579 351.176C283.053 351.411 283.407 351.731 283.642 352.136C283.878 352.537 283.995 352.989 283.995 353.493C283.995 353.917 283.918 354.275 283.762 354.567C283.606 354.855 283.397 355.087 283.135 355.263C282.877 355.435 282.592 355.561 282.28 355.641V355.74C282.618 355.757 282.948 355.866 283.27 356.068C283.594 356.267 283.863 356.55 284.075 356.918C284.287 357.286 284.393 357.734 284.393 358.261C284.393 358.781 284.271 359.248 284.025 359.663C283.783 360.074 283.409 360.4 282.902 360.642C282.395 360.881 281.747 361 280.958 361H277.055ZM278.591 359.683H280.809C281.544 359.683 282.071 359.54 282.39 359.255C282.708 358.97 282.867 358.614 282.867 358.186C282.867 357.865 282.786 357.57 282.623 357.301C282.461 357.033 282.229 356.819 281.927 356.66C281.629 356.501 281.274 356.421 280.863 356.421H278.591V359.683ZM278.591 355.223H280.65C280.994 355.223 281.304 355.157 281.579 355.024C281.858 354.892 282.078 354.706 282.241 354.467C282.406 354.225 282.489 353.94 282.489 353.612C282.489 353.191 282.342 352.838 282.047 352.553C281.752 352.268 281.299 352.126 280.689 352.126H278.591V355.223ZM288.318 361.169C287.834 361.169 287.397 361.08 287.006 360.901C286.615 360.718 286.305 360.455 286.076 360.11C285.851 359.765 285.738 359.343 285.738 358.842C285.738 358.411 285.821 358.057 285.987 357.778C286.152 357.5 286.376 357.28 286.658 357.117C286.939 356.955 287.254 356.832 287.602 356.749C287.95 356.666 288.305 356.603 288.666 356.56C289.124 356.507 289.495 356.464 289.78 356.431C290.065 356.395 290.272 356.337 290.401 356.257C290.531 356.178 290.595 356.048 290.595 355.869V355.835C290.595 355.4 290.473 355.064 290.227 354.825C289.985 354.587 289.624 354.467 289.144 354.467C288.643 354.467 288.249 354.578 287.96 354.8C287.675 355.019 287.478 355.263 287.369 355.531L285.972 355.213C286.137 354.749 286.379 354.375 286.698 354.089C287.019 353.801 287.389 353.592 287.806 353.463C288.224 353.33 288.663 353.264 289.124 353.264C289.429 353.264 289.752 353.301 290.093 353.374C290.438 353.443 290.759 353.572 291.058 353.761C291.359 353.95 291.606 354.22 291.798 354.572C291.991 354.92 292.087 355.372 292.087 355.929V361H290.635V359.956H290.575C290.479 360.148 290.335 360.337 290.143 360.523C289.951 360.708 289.704 360.862 289.402 360.985C289.1 361.108 288.739 361.169 288.318 361.169ZM288.641 359.976C289.052 359.976 289.404 359.895 289.695 359.732C289.99 359.57 290.214 359.358 290.367 359.096C290.522 358.831 290.6 358.547 290.6 358.246V357.261C290.547 357.314 290.444 357.364 290.292 357.411C290.143 357.454 289.972 357.492 289.78 357.525C289.588 357.555 289.4 357.583 289.218 357.609C289.036 357.633 288.883 357.652 288.761 357.669C288.472 357.705 288.209 357.767 287.97 357.853C287.735 357.939 287.546 358.063 287.403 358.226C287.264 358.385 287.195 358.597 287.195 358.862C287.195 359.23 287.331 359.509 287.602 359.697C287.874 359.883 288.22 359.976 288.641 359.976ZM295.553 356.466V361H294.067V353.364H295.494V354.607H295.588C295.764 354.202 296.039 353.877 296.413 353.632C296.791 353.387 297.267 353.264 297.84 353.264C298.36 353.264 298.816 353.374 299.207 353.592C299.598 353.808 299.902 354.129 300.117 354.557C300.333 354.984 300.44 355.513 300.44 356.143V361H298.954V356.322C298.954 355.768 298.81 355.336 298.521 355.024C298.233 354.709 297.837 354.552 297.333 354.552C296.988 354.552 296.682 354.626 296.413 354.776C296.148 354.925 295.938 355.143 295.782 355.432C295.629 355.717 295.553 356.062 295.553 356.466ZM303.801 358.41L303.791 356.595H304.05L307.092 353.364H308.872L305.402 357.043H305.168L303.801 358.41ZM302.434 361V350.818H303.92V361H302.434ZM307.256 361L304.522 357.371L305.546 356.332L309.081 361H307.256ZM310.227 361V353.364H311.713V361H310.227ZM310.978 352.185C310.719 352.185 310.497 352.099 310.311 351.927C310.129 351.751 310.038 351.542 310.038 351.3C310.038 351.055 310.129 350.846 310.311 350.674C310.497 350.498 310.719 350.411 310.978 350.411C311.236 350.411 311.456 350.498 311.639 350.674C311.824 350.846 311.917 351.055 311.917 351.3C311.917 351.542 311.824 351.751 311.639 351.927C311.456 352.099 311.236 352.185 310.978 352.185ZM315.2 356.466V361H313.713V353.364H315.14V354.607H315.234C315.41 354.202 315.685 353.877 316.06 353.632C316.438 353.387 316.913 353.264 317.487 353.264C318.007 353.264 318.463 353.374 318.854 353.592C319.245 353.808 319.548 354.129 319.764 354.557C319.979 354.984 320.087 355.513 320.087 356.143V361H318.6V356.322C318.6 355.768 318.456 355.336 318.168 355.024C317.879 354.709 317.483 354.552 316.979 354.552C316.635 354.552 316.328 354.626 316.06 354.776C315.795 354.925 315.584 355.143 315.428 355.432C315.276 355.717 315.2 356.062 315.2 356.466ZM325.282 364.023C324.676 364.023 324.153 363.943 323.716 363.784C323.282 363.625 322.927 363.415 322.652 363.153C322.377 362.891 322.171 362.604 322.036 362.293L323.313 361.766C323.403 361.911 323.522 362.066 323.671 362.228C323.824 362.394 324.029 362.535 324.288 362.651C324.55 362.767 324.886 362.825 325.297 362.825C325.86 362.825 326.326 362.687 326.694 362.412C327.062 362.14 327.246 361.706 327.246 361.109V359.608H327.151C327.062 359.77 326.933 359.951 326.764 360.15C326.598 360.349 326.369 360.521 326.078 360.667C325.786 360.813 325.406 360.886 324.939 360.886C324.336 360.886 323.792 360.745 323.308 360.463C322.828 360.178 322.447 359.759 322.165 359.205C321.886 358.648 321.747 357.964 321.747 357.152C321.747 356.34 321.885 355.644 322.16 355.064C322.438 354.484 322.819 354.04 323.303 353.732C323.787 353.42 324.336 353.264 324.949 353.264C325.423 353.264 325.806 353.344 326.097 353.503C326.389 353.659 326.616 353.841 326.778 354.05C326.944 354.259 327.072 354.442 327.161 354.602H327.271V353.364H328.727V361.169C328.727 361.825 328.575 362.364 328.27 362.785C327.965 363.206 327.552 363.517 327.032 363.719C326.515 363.922 325.932 364.023 325.282 364.023ZM325.267 359.653C325.695 359.653 326.056 359.553 326.351 359.354C326.649 359.152 326.875 358.864 327.027 358.489C327.183 358.112 327.261 357.659 327.261 357.132C327.261 356.618 327.185 356.166 327.032 355.775C326.88 355.384 326.656 355.079 326.361 354.86C326.066 354.638 325.701 354.527 325.267 354.527C324.82 354.527 324.447 354.643 324.149 354.875C323.85 355.104 323.625 355.415 323.472 355.81C323.323 356.204 323.249 356.645 323.249 357.132C323.249 357.633 323.325 358.072 323.477 358.45C323.63 358.827 323.855 359.122 324.153 359.335C324.455 359.547 324.826 359.653 325.267 359.653Z" fill="#D5D5D5"/>
<path d="M148.126 420.493C148.073 420.022 147.854 419.658 147.47 419.399C147.085 419.137 146.601 419.006 146.018 419.006C145.6 419.006 145.239 419.073 144.934 419.205C144.629 419.335 144.392 419.513 144.223 419.742C144.058 419.968 143.975 420.224 143.975 420.513C143.975 420.755 144.031 420.964 144.144 421.139C144.26 421.315 144.411 421.462 144.596 421.582C144.785 421.698 144.987 421.795 145.203 421.875C145.418 421.951 145.625 422.014 145.824 422.064L146.818 422.322C147.143 422.402 147.476 422.51 147.818 422.646C148.159 422.781 148.476 422.96 148.767 423.183C149.059 423.405 149.294 423.68 149.473 424.008C149.656 424.336 149.747 424.729 149.747 425.186C149.747 425.763 149.598 426.275 149.299 426.722C149.004 427.17 148.575 427.523 148.012 427.781C147.451 428.04 146.774 428.169 145.978 428.169C145.216 428.169 144.556 428.048 144 427.806C143.443 427.564 143.007 427.221 142.692 426.777C142.377 426.33 142.203 425.799 142.17 425.186H143.711C143.741 425.554 143.86 425.861 144.069 426.106C144.281 426.348 144.551 426.528 144.88 426.648C145.211 426.764 145.574 426.822 145.968 426.822C146.402 426.822 146.789 426.754 147.127 426.618C147.468 426.479 147.737 426.286 147.932 426.041C148.128 425.793 148.225 425.503 148.225 425.171C148.225 424.87 148.139 424.623 147.967 424.43C147.798 424.238 147.568 424.079 147.276 423.953C146.987 423.827 146.661 423.716 146.296 423.62L145.093 423.292C144.278 423.07 143.632 422.743 143.154 422.312C142.68 421.882 142.443 421.312 142.443 420.602C142.443 420.016 142.603 419.504 142.921 419.066C143.239 418.629 143.67 418.289 144.213 418.047C144.757 417.802 145.37 417.679 146.053 417.679C146.742 417.679 147.35 417.8 147.877 418.042C148.408 418.284 148.825 418.617 149.13 419.041C149.435 419.462 149.594 419.946 149.608 420.493H148.126ZM156.301 424.833V420.364H157.792V428H156.33V426.678H156.251C156.075 427.085 155.793 427.425 155.406 427.697C155.021 427.965 154.542 428.099 153.969 428.099C153.478 428.099 153.044 427.992 152.666 427.776C152.292 427.558 151.997 427.234 151.781 426.807C151.569 426.379 151.463 425.851 151.463 425.221V420.364H152.95V425.042C152.95 425.562 153.094 425.977 153.382 426.285C153.671 426.593 154.045 426.747 154.506 426.747C154.784 426.747 155.061 426.678 155.336 426.538C155.614 426.399 155.845 426.189 156.027 425.907C156.213 425.625 156.304 425.267 156.301 424.833ZM159.909 428V417.818H161.395V421.602H161.485C161.571 421.442 161.695 421.259 161.858 421.05C162.02 420.841 162.245 420.659 162.534 420.503C162.822 420.344 163.203 420.264 163.677 420.264C164.294 420.264 164.844 420.42 165.328 420.732C165.812 421.043 166.191 421.492 166.466 422.079C166.745 422.665 166.884 423.371 166.884 424.197C166.884 425.022 166.746 425.73 166.471 426.32C166.196 426.906 165.818 427.359 165.338 427.677C164.857 427.992 164.309 428.149 163.692 428.149C163.228 428.149 162.849 428.071 162.554 427.915C162.262 427.76 162.033 427.577 161.867 427.369C161.702 427.16 161.574 426.974 161.485 426.812H161.36V428H159.909ZM161.365 424.182C161.365 424.719 161.443 425.189 161.599 425.594C161.755 425.998 161.98 426.315 162.275 426.543C162.57 426.769 162.931 426.881 163.359 426.881C163.803 426.881 164.174 426.764 164.473 426.528C164.771 426.29 164.996 425.967 165.149 425.559C165.304 425.151 165.382 424.692 165.382 424.182C165.382 423.678 165.306 423.226 165.154 422.825C165.005 422.424 164.779 422.107 164.478 421.875C164.179 421.643 163.806 421.527 163.359 421.527C162.928 421.527 162.563 421.638 162.265 421.86C161.97 422.082 161.746 422.392 161.594 422.79C161.442 423.187 161.365 423.652 161.365 424.182ZM173.052 423.053V424.341H168.538V423.053H173.052ZM183.371 417.818V428H181.959L176.783 420.533H176.689V428H175.153V417.818H176.575L181.755 425.295H181.85V417.818H183.371ZM190.33 424.833V420.364H191.821V428H190.36V426.678H190.28C190.104 427.085 189.823 427.425 189.435 427.697C189.05 427.965 188.572 428.099 187.998 428.099C187.508 428.099 187.073 427.992 186.696 427.776C186.321 427.558 186.026 427.234 185.811 426.807C185.599 426.379 185.492 425.851 185.492 425.221V420.364H186.979V425.042C186.979 425.562 187.123 425.977 187.411 426.285C187.7 426.593 188.074 426.747 188.535 426.747C188.813 426.747 189.09 426.678 189.365 426.538C189.644 426.399 189.874 426.189 190.056 425.907C190.242 425.625 190.333 425.267 190.33 424.833ZM193.819 428V420.364H195.245V421.607H195.34C195.499 421.186 195.759 420.857 196.12 420.622C196.482 420.384 196.914 420.264 197.418 420.264C197.928 420.264 198.356 420.384 198.701 420.622C199.049 420.861 199.306 421.189 199.471 421.607H199.551C199.733 421.199 200.023 420.874 200.421 420.632C200.819 420.387 201.293 420.264 201.843 420.264C202.535 420.264 203.101 420.481 203.538 420.915C203.979 421.35 204.199 422.004 204.199 422.879V428H202.713V423.018C202.713 422.501 202.572 422.127 202.29 421.895C202.008 421.663 201.672 421.547 201.281 421.547C200.797 421.547 200.421 421.696 200.152 421.994C199.884 422.289 199.75 422.669 199.75 423.133V428H198.268V422.924C198.268 422.51 198.139 422.177 197.88 421.925C197.622 421.673 197.285 421.547 196.871 421.547C196.589 421.547 196.329 421.621 196.091 421.771C195.855 421.916 195.665 422.12 195.519 422.382C195.376 422.644 195.305 422.947 195.305 423.292V428H193.819ZM206.311 428V417.818H207.797V421.602H207.887C207.973 421.442 208.097 421.259 208.26 421.05C208.422 420.841 208.648 420.659 208.936 420.503C209.224 420.344 209.605 420.264 210.079 420.264C210.696 420.264 211.246 420.42 211.73 420.732C212.214 421.043 212.593 421.492 212.869 422.079C213.147 422.665 213.286 423.371 213.286 424.197C213.286 425.022 213.149 425.73 212.873 426.32C212.598 426.906 212.221 427.359 211.74 427.677C211.259 427.992 210.711 428.149 210.094 428.149C209.63 428.149 209.251 428.071 208.956 427.915C208.664 427.76 208.436 427.577 208.27 427.369C208.104 427.16 207.976 426.974 207.887 426.812H207.763V428H206.311ZM207.768 424.182C207.768 424.719 207.846 425.189 208.001 425.594C208.157 425.998 208.382 426.315 208.677 426.543C208.972 426.769 209.334 426.881 209.761 426.881C210.205 426.881 210.577 426.764 210.875 426.528C211.173 426.29 211.399 425.967 211.551 425.559C211.707 425.151 211.785 424.692 211.785 424.182C211.785 423.678 211.708 423.226 211.556 422.825C211.407 422.424 211.181 422.107 210.88 421.875C210.582 421.643 210.209 421.527 209.761 421.527C209.33 421.527 208.966 421.638 208.668 421.86C208.373 422.082 208.149 422.392 207.996 422.79C207.844 423.187 207.768 423.652 207.768 424.182ZM218.247 428.154C217.494 428.154 216.846 427.993 216.303 427.672C215.762 427.347 215.345 426.891 215.05 426.305C214.758 425.715 214.612 425.024 214.612 424.232C214.612 423.449 214.758 422.76 215.05 422.163C215.345 421.567 215.756 421.101 216.283 420.766C216.813 420.432 217.433 420.264 218.142 420.264C218.573 420.264 218.991 420.335 219.395 420.478C219.799 420.621 220.162 420.844 220.484 421.149C220.805 421.454 221.059 421.85 221.244 422.337C221.43 422.821 221.523 423.41 221.523 424.102V424.629H215.453V423.516H220.066C220.066 423.125 219.987 422.778 219.828 422.477C219.668 422.172 219.445 421.931 219.156 421.756C218.871 421.58 218.537 421.492 218.152 421.492C217.734 421.492 217.37 421.595 217.058 421.8C216.75 422.003 216.511 422.268 216.342 422.596C216.177 422.921 216.094 423.274 216.094 423.655V424.525C216.094 425.035 216.183 425.469 216.362 425.827C216.545 426.185 216.798 426.459 217.123 426.648C217.448 426.833 217.827 426.926 218.261 426.926C218.543 426.926 218.8 426.886 219.032 426.807C219.264 426.724 219.465 426.601 219.634 426.439C219.803 426.277 219.932 426.076 220.021 425.837L221.428 426.091C221.316 426.505 221.113 426.868 220.822 427.18C220.533 427.488 220.171 427.728 219.733 427.901C219.299 428.07 218.803 428.154 218.247 428.154ZM223.172 428V420.364H224.609V421.577H224.688C224.828 421.166 225.073 420.843 225.424 420.607C225.779 420.369 226.18 420.249 226.627 420.249C226.72 420.249 226.83 420.253 226.956 420.259C227.085 420.266 227.186 420.274 227.259 420.284V421.706C227.199 421.689 227.093 421.671 226.941 421.651C226.788 421.628 226.636 421.616 226.483 421.616C226.132 421.616 225.819 421.691 225.544 421.84C225.272 421.986 225.056 422.19 224.897 422.452C224.738 422.71 224.659 423.005 224.659 423.337V428H223.172Z" fill="#D5D5D5"/>
<path d="M116.5 125C116.5 125.276 116.724 125.5 117 125.5L121.5 125.5C121.776 125.5 122 125.276 122 125C122 124.724 121.776 124.5 121.5 124.5L117.5 124.5L117.5 120.5C117.5 120.224 117.276 120 117 120C116.724 120 116.5 120.224 116.5 120.5L116.5 125ZM140 102L139.646 101.646L116.646 124.646L117 125L117.354 125.354L140.354 102.354L140 102Z" fill="white"/>
<path d="M257.221 125.282C257.497 125.279 257.719 125.053 257.716 124.777L257.674 120.277C257.671 120.001 257.445 119.779 257.169 119.782C256.893 119.785 256.671 120.01 256.674 120.287L256.712 124.286L252.712 124.324C252.436 124.327 252.214 124.553 252.216 124.829C252.219 125.105 252.445 125.327 252.721 125.324L257.221 125.282ZM234 102L233.65 102.357L256.866 125.139L257.216 124.782L257.566 124.425L234.35 101.643L234 102Z" fill="white"/>
<defs>
<linearGradient id="paint0_linear_4031_11482" x1="97.4015" y1="41.3492" x2="153.079" y2="186.823" gradientUnits="userSpaceOnUse">
<stop stop-color="#A901A3"/>
<stop offset="0.360577" stop-color="#6F41D2"/>
</linearGradient>
<linearGradient id="paint1_linear_4031_11482" x1="215.787" y1="135.502" x2="263.281" y2="244.746" gradientUnits="userSpaceOnUse">
<stop stop-color="#A901A3"/>
<stop offset="0.360577" stop-color="#6F41D2"/>
</linearGradient>
<linearGradient id="paint2_linear_4031_11482" x1="215.787" y1="202.502" x2="263.281" y2="311.746" gradientUnits="userSpaceOnUse">
<stop stop-color="#A901A3"/>
<stop offset="0.360577" stop-color="#6F41D2"/>
</linearGradient>
<linearGradient id="paint3_linear_4031_11482" x1="215.787" y1="269.502" x2="263.281" y2="378.746" gradientUnits="userSpaceOnUse">
<stop stop-color="#A901A3"/>
<stop offset="0.360577" stop-color="#6F41D2"/>
</linearGradient>
<linearGradient id="paint4_linear_4031_11482" x1="215.787" y1="336.502" x2="263.281" y2="445.746" gradientUnits="userSpaceOnUse">
<stop stop-color="#A901A3"/>
<stop offset="0.360577" stop-color="#6F41D2"/>
</linearGradient>
<linearGradient id="paint5_linear_4031_11482" x1="121.787" y1="403.502" x2="169.281" y2="512.746" gradientUnits="userSpaceOnUse">
<stop stop-color="#A901A3"/>
<stop offset="0.360577" stop-color="#6F41D2"/>
</linearGradient>
<linearGradient id="paint6_linear_4031_11482" x1="34.787" y1="135.502" x2="82.281" y2="244.746" gradientUnits="userSpaceOnUse">
<stop stop-color="#A901A3"/>
<stop offset="0.360577" stop-color="#6F41D2"/>
</linearGradient>
<linearGradient id="paint7_linear_4031_11482" x1="44.6572" y1="202.502" x2="92.1512" y2="311.746" gradientUnits="userSpaceOnUse">
<stop stop-color="#A901A3"/>
<stop offset="0.360577" stop-color="#6F41D2"/>
</linearGradient>
<linearGradient id="paint8_linear_4031_11482" x1="44.6572" y1="269.502" x2="92.1512" y2="378.746" gradientUnits="userSpaceOnUse">
<stop stop-color="#A901A3"/>
<stop offset="0.360577" stop-color="#6F41D2"/>
</linearGradient>
<linearGradient id="paint9_linear_4031_11482" x1="44.6572" y1="336.502" x2="92.1512" y2="445.746" gradientUnits="userSpaceOnUse">
<stop stop-color="#A901A3"/>
<stop offset="0.360577" stop-color="#6F41D2"/>
</linearGradient>
</defs>
</svg>
