<svg width="27" height="28" viewBox="0 0 27 28" fill="none" xmlns="http://www.w3.org/2000/svg">
<path d="M24.6102 12.0277H0.554688L12.5824 0L24.6102 12.0277ZM3.3218 10.8812H21.8431L12.5824 1.62434L3.3218 10.8812Z" fill="white"/>
<path d="M18.5272 18.9108H5.41406V10.8809H19.7465V17.9859H18.5999V12.0275H6.56065V17.7642H18.5272V18.9108Z" fill="white"/>
<path d="M12.0078 11.4551H13.1544V18.3385H12.0078V11.4551Z" fill="white"/>
<path d="M16.47 23.0647H1.64844V17.7637H18.5263V18.9103H2.79503V21.9182H16.47V23.0647Z" fill="white"/>
<path d="M20.9826 27.221H0.53125V21.9199H16.4689V23.0665H1.67784V26.0744H20.9826V27.221Z" fill="white"/>
<path d="M12.1641 5.18555C12.5784 5.10314 13.0082 5.14499 13.3984 5.30664C13.7886 5.4683 14.1218 5.74259 14.3564 6.09375C14.5911 6.44494 14.7168 6.85792 14.7168 7.28027C14.7167 7.84662 14.4913 8.38957 14.0908 8.79004C13.6903 9.19051 13.1474 9.41594 12.5811 9.41602C12.1587 9.41602 11.7457 9.29028 11.3945 9.05566C11.0434 8.82103 10.7691 8.48782 10.6074 8.09766C10.4458 7.7074 10.4039 7.27758 10.4863 6.86328C10.5688 6.44902 10.7716 6.0682 11.0703 5.76953C11.369 5.47086 11.7498 5.26797 12.1641 5.18555ZM12.5811 6.20117C12.367 6.20117 12.1575 6.26489 11.9795 6.38379C11.8015 6.50285 11.6619 6.67222 11.5801 6.87012C11.4983 7.06801 11.4775 7.28614 11.5195 7.49609C11.5616 7.70609 11.6647 7.89959 11.8164 8.05078C11.9682 8.20198 12.1619 8.30439 12.3721 8.3457C12.5823 8.38701 12.8003 8.36476 12.998 8.28223C13.1956 8.19967 13.3641 8.06023 13.4824 7.88184C13.6007 7.70348 13.6638 7.49429 13.6631 7.28027C13.662 6.99391 13.5476 6.71872 13.3447 6.5166C13.142 6.31469 12.8672 6.20124 12.5811 6.20117Z" fill="white" stroke="#080219" stroke-width="0.0931555"/>
<path d="M20.0029 17.1904C20.981 16.9961 21.9949 17.0956 22.916 17.4775C23.8371 17.8595 24.6242 18.5065 25.1777 19.3359C25.7313 20.1654 26.0271 21.1405 26.0264 22.1377L26.0195 22.3877C25.956 23.6318 25.4339 24.8122 24.5488 25.6973C23.6047 26.6414 22.3245 27.1728 20.9893 27.1748L20.6162 27.1611C19.7503 27.0975 18.9132 26.8105 18.1875 26.3262C17.3581 25.7726 16.711 24.9856 16.3291 24.0645C15.9472 23.1433 15.8476 22.1294 16.042 21.1514C16.2364 20.1733 16.7158 19.2744 17.4209 18.5693C18.126 17.8642 19.0249 17.3848 20.0029 17.1904ZM20.9893 18.1465C20.2007 18.1457 19.4295 18.379 18.7734 18.8164C18.1174 19.2538 17.6062 19.8763 17.3037 20.6045C17.0012 21.3327 16.9211 22.1346 17.0742 22.9082C17.2273 23.6815 17.6063 24.3922 18.1631 24.9502C18.7201 25.5083 19.4308 25.8894 20.2041 26.0439C20.9773 26.1985 21.7791 26.1203 22.5078 25.8193C23.2366 25.5183 23.8601 25.0078 24.2988 24.3525C24.7376 23.6973 24.9719 22.9263 24.9727 22.1377C24.9716 21.0809 24.5522 20.0673 23.8057 19.3193C23.0591 18.5714 22.046 18.1496 20.9893 18.1465Z" fill="white" stroke="#080219" stroke-width="0.0931555"/>
<path d="M20.4141 20.3867H21.5607V23.88H20.4141V20.3867Z" fill="white"/>
<path d="M19.2344 21.5605H22.7277V22.7071H19.2344V21.5605Z" fill="white"/>
</svg>
