<svg width="29" height="29" viewBox="0 0 29 29" fill="none" xmlns="http://www.w3.org/2000/svg">
<path d="M1.72656 0.0253906H16.2734C17.2116 0.0254568 17.9746 0.788393 17.9746 1.72656V11.2188L18.0176 11.1758L19.0635 10.1289C19.2223 9.97012 19.4798 9.97022 19.6387 10.1289L28.2998 18.791C28.4587 18.9499 28.4587 19.2063 28.2998 19.3652C28.1409 19.524 27.8845 19.5241 27.7256 19.3652L19.3516 10.9912L17.9746 12.3682V26.7588C17.9744 27.6968 17.2115 28.4599 16.2734 28.46H1.72656C0.788477 28.46 0.0255944 27.6968 0.0253906 26.7588V1.72656C0.0253906 0.788352 0.788352 0.0253906 1.72656 0.0253906ZM0.838867 26.7588C0.838867 27.2484 1.23697 27.6465 1.72656 27.6465H16.2734C16.7629 27.6464 17.1615 27.2486 17.1621 26.7588V24.2764H0.838867V26.7588ZM0.838867 23.4629H17.1611V13.1816L15.916 14.4268C15.7642 14.5785 15.494 14.5786 15.3418 14.4268L8.30957 7.39355L8.2666 7.35059V9.80664C8.2666 10.0313 8.08496 10.2137 7.86035 10.2139C7.6356 10.2139 7.45312 10.0314 7.45312 9.80664V6.37012C7.45312 6.14536 7.6356 5.96289 7.86035 5.96289H11.2979C11.5223 5.96315 11.7039 6.14474 11.7041 6.36914C11.7041 6.59373 11.5224 6.7761 11.2979 6.77637H8.8418L8.88477 6.81934L15.6123 13.5459L15.6299 13.5635L17.1543 12.0391L17.1621 12.0322V3.42773H0.838867V23.4629ZM1.72656 0.837891C1.23696 0.837891 0.838867 1.23653 0.838867 1.72656V2.61426H17.1611V1.72559C17.1609 1.23622 16.7628 0.837957 16.2734 0.837891H1.72656Z" fill="white" stroke="black" stroke-width="0.05"/>
<path d="M9.00488 12.4922C11.5396 12.4922 13.6015 14.5542 13.6016 17.0889C13.6016 19.6236 11.5396 21.6855 9.00488 21.6855C6.47021 21.6855 4.4082 19.6236 4.4082 17.0889C4.40823 14.5538 6.47022 12.4922 9.00488 12.4922ZM9.00488 13.3047C6.91839 13.3047 5.22073 15.0024 5.2207 17.0889C5.2207 19.1754 6.91838 20.873 9.00488 20.873C11.0914 20.873 12.7891 19.1754 12.7891 17.0889C12.789 15.0024 11.0914 13.3047 9.00488 13.3047Z" fill="white" stroke="black" stroke-width="0.05"/>
<path d="M6.91602 25.5547H11.0996C11.3243 25.5547 11.5068 25.7362 11.5068 25.9609C11.5068 26.1857 11.3244 26.3682 11.0996 26.3682H6.91602C6.6913 26.3681 6.50977 26.1857 6.50977 25.9609C6.50981 25.7363 6.69133 25.5547 6.91602 25.5547Z" fill="white" stroke="black" stroke-width="0.05"/>
<path d="M9.82549 16.546V16.6177H10.4195V17.0376H9.79477C9.75722 17.2663 9.68553 17.4489 9.57971 17.5855C9.47731 17.7186 9.33052 17.8159 9.13936 17.8773C8.9482 17.9354 8.70072 17.9644 8.39691 17.9644V18.2869C8.39691 18.4747 8.43616 18.6232 8.51468 18.7324C8.5966 18.8417 8.73315 18.8963 8.92431 18.8963C9.27249 18.8963 9.44658 18.7 9.44658 18.3074H9.98422C9.98081 18.6522 9.88693 18.9133 9.7026 19.0908C9.52168 19.2649 9.25884 19.352 8.91407 19.352C8.56929 19.352 8.30474 19.2564 8.12041 19.0652C7.93949 18.8741 7.84903 18.6061 7.84903 18.2613V17.5599C8.22794 17.5599 8.50614 17.5496 8.68365 17.5291C8.86115 17.5052 8.99258 17.4575 9.07792 17.3858C9.16667 17.3141 9.2247 17.198 9.25201 17.0376H7.63397V16.6177H9.27761V16.546V16.162H7.63397V15.737H10.4195V16.162H9.82549V16.546Z" fill="white"/>
</svg>
