<svg width="28" height="28" viewBox="0 0 28 28" fill="none" xmlns="http://www.w3.org/2000/svg">
<path fill-rule="evenodd" clip-rule="evenodd" d="M7.00001 0C3.13955 0 0 3.13955 0 7.00001C0 10.8605 3.13955 14 7.00001 14C10.8605 14 14 10.8605 14 7.00001C14 3.13955 10.8605 0 7.00001 0ZM7.00001 0.933335C10.3561 0.933336 13.0667 3.64397 13.0667 7.00001C13.0667 10.3561 10.3561 13.0667 7.00001 13.0667C3.64397 13.0667 0.933335 10.3561 0.933335 7.00001C0.933335 3.64397 3.64397 0.933335 7.00001 0.933335ZM15.4 4.66668C15.2763 4.66668 15.1576 4.71584 15.07 4.80336C14.9825 4.89088 14.9334 5.00958 14.9334 5.13334C14.9334 5.25711 14.9825 5.37581 15.07 5.46333C15.1576 5.55084 15.2763 5.60001 15.4 5.60001H22.8667C23.1333 5.60001 23.3334 5.80007 23.3334 6.06668V11.7288L22.6589 11.2785C22.556 11.21 22.4301 11.185 22.3089 11.2092C22.2487 11.2212 22.1915 11.2449 22.1406 11.279C22.0896 11.3131 22.0458 11.3569 22.0118 11.4079C21.9431 11.5109 21.9182 11.6369 21.9425 11.7583C21.9667 11.8796 22.0382 11.9864 22.1412 12.055L23.5412 12.9884C23.6179 13.0395 23.7079 13.0668 23.8001 13.0668C23.8922 13.0668 23.9823 13.0395 24.0589 12.9884L25.4589 12.055C25.5619 11.9864 25.6334 11.8796 25.6576 11.7583C25.6819 11.6369 25.657 11.5109 25.5883 11.4079C25.5197 11.3049 25.4129 11.2335 25.2916 11.2092C25.1702 11.1849 25.0442 11.2098 24.9412 11.2785L24.2667 11.7288V6.06668C24.2667 5.29915 23.6343 4.66668 22.8667 4.66668H15.4ZM1.81207 13.537C1.73908 13.5455 1.66913 13.5711 1.6079 13.6118L0.2079 14.5451C0.104927 14.6138 0.0334416 14.7205 0.0091699 14.8419C-0.0151018 14.9632 0.00982771 15.0893 0.0784748 15.1923C0.147129 15.2952 0.253877 15.3667 0.375235 15.391C0.496594 15.4153 0.622624 15.3903 0.725603 15.3217L1.40008 14.8714V21.4668C1.40008 22.2344 2.03255 22.8668 2.80008 22.8668H6.53342C6.65719 22.8668 6.77589 22.8177 6.8634 22.7301C6.95092 22.6426 7.00009 22.5239 7.00009 22.4002C7.00009 22.2764 6.95092 22.1577 6.8634 22.0702C6.77589 21.9827 6.65719 21.9335 6.53342 21.9335H2.80008C2.53347 21.9335 2.33341 21.7334 2.33341 21.4668V14.8714L3.00789 15.3217C3.11087 15.3903 3.2369 15.4153 3.35825 15.391C3.47961 15.3667 3.58636 15.2952 3.65501 15.1923C3.72366 15.0893 3.74859 14.9632 3.72432 14.8419C3.70005 14.7205 3.62856 14.6138 3.52559 14.5451L2.12559 13.6118C2.03326 13.5504 1.92214 13.5239 1.81207 13.537ZM12.6 14.4667C11.8325 14.4667 11.2 15.0992 11.2 15.8667V17.2667H9.80002C9.03249 17.2667 8.40001 17.8992 8.40001 18.6667V26.6001C8.40001 27.3676 9.03249 28.0001 9.80002 28.0001H23.8C24.5676 28.0001 25.2 27.3676 25.2 26.6001V25.2001H26.6C27.3676 25.2001 28 24.5676 28 23.8001V15.8667C28 15.0992 27.3676 14.4667 26.6 14.4667H12.6ZM12.6 15.4001H26.6C26.8667 15.4001 27.0667 15.6001 27.0667 15.8667V23.8001C27.0667 24.0667 26.8667 24.2668 26.6 24.2668H12.6C12.3334 24.2668 12.1334 24.0667 12.1334 23.8001V15.8667C12.1334 15.6001 12.3334 15.4001 12.6 15.4001ZM9.80002 18.2001H11.2V23.8001C11.2 24.5676 11.8325 25.2001 12.6 25.2001H24.2667V26.6001C24.2667 26.8667 24.0667 27.0668 23.8 27.0668H9.80002C9.53341 27.0668 9.33335 26.8667 9.33335 26.6001V18.6667C9.33335 18.4001 9.53341 18.2001 9.80002 18.2001Z" fill="white" stroke="#080219" stroke-width="0.01"/>
<path d="M8.52582 5.69498V5.81758H9.54164V6.53565H8.47328C8.40906 6.9268 8.28646 7.23913 8.10549 7.47265C7.93035 7.70033 7.67931 7.86672 7.35238 7.9718C7.02545 8.07105 6.6022 8.12067 6.08262 8.12067V8.67236C6.08262 8.99345 6.14975 9.24741 6.28403 9.43422C6.42414 9.62104 6.65766 9.71445 6.98459 9.71445C7.58007 9.71445 7.8778 9.37876 7.8778 8.70739H8.79729C8.79145 9.29703 8.63091 9.74364 8.31565 10.0472C8.00624 10.345 7.55671 10.4938 6.96707 10.4938C6.37744 10.4938 5.92499 10.3304 5.60974 10.0034C5.30032 9.6765 5.14562 9.21822 5.14562 8.62858V7.42887C5.79364 7.42887 6.26943 7.41135 6.57301 7.37632C6.87659 7.33546 7.10135 7.25373 7.2473 7.13113C7.39909 7.00853 7.49833 6.81004 7.54504 6.53565H4.77782V5.81758H7.58882V5.69498V5.0382H4.77782V4.31137H9.54164V5.0382H8.52582V5.69498Z" fill="white"/>
<path d="M8.52582 5.81758H8.47582V5.86758H8.52582V5.81758ZM9.54164 5.81758H9.59164V5.76758H9.54164V5.81758ZM9.54164 6.53565V6.58565H9.59164V6.53565H9.54164ZM8.47328 6.53565V6.48565H8.43082L8.42394 6.52755L8.47328 6.53565ZM8.10549 7.47265L8.06596 7.44202L8.06585 7.44217L8.10549 7.47265ZM7.35238 7.9718L7.36691 8.01965L7.36768 8.0194L7.35238 7.9718ZM6.08262 8.12067V8.07067H6.03262V8.12067H6.08262ZM6.28403 9.43422L6.24342 9.46341L6.24403 9.46422L6.28403 9.43422ZM7.8778 8.70739V8.65739H7.8278V8.70739H7.8778ZM8.79729 8.70739L8.84729 8.70789L8.84779 8.65739H8.79729V8.70739ZM8.31565 10.0472L8.35032 10.0832L8.35034 10.0832L8.31565 10.0472ZM5.60974 10.0034L5.57342 10.0378L5.57375 10.0381L5.60974 10.0034ZM5.14562 7.42887V7.37887H5.09562V7.42887H5.14562ZM6.57301 7.37633L6.57874 7.426L6.57968 7.42588L6.57301 7.37633ZM7.2473 7.13113L7.21588 7.09222L7.21514 7.09284L7.2473 7.13113ZM7.54504 6.53565L7.59433 6.54404L7.60427 6.48565H7.54504V6.53565ZM4.77782 6.53565H4.72782V6.58565H4.77782V6.53565ZM4.77782 5.81758V5.76758H4.72782V5.81758H4.77782ZM7.58882 5.81758V5.86758H7.63882V5.81758H7.58882ZM7.58882 5.0382H7.63882V4.9882H7.58882V5.0382ZM4.77782 5.0382H4.72782V5.0882H4.77782V5.0382ZM4.77782 4.31137V4.26137H4.72782V4.31137H4.77782ZM9.54164 4.31137H9.59164V4.26137H9.54164V4.31137ZM9.54164 5.0382V5.0882H9.59164V5.0382H9.54164ZM8.52582 5.0382V4.9882H8.47582V5.0382H8.52582ZM8.52582 5.69498H8.47582V5.81758H8.52582H8.57582V5.69498H8.52582ZM8.52582 5.81758V5.86758H9.54164V5.81758V5.76758H8.52582V5.81758ZM9.54164 5.81758H9.49164V6.53565H9.54164H9.59164V5.81758H9.54164ZM9.54164 6.53565V6.48565H8.47328V6.53565V6.58565H9.54164V6.53565ZM8.47328 6.53565L8.42394 6.52755C8.36063 6.91318 8.2404 7.21694 8.06597 7.44202L8.10549 7.47265L8.14501 7.50328C8.33252 7.26132 8.4575 6.94042 8.52262 6.54375L8.47328 6.53565ZM8.10549 7.47265L8.06585 7.44217C7.89803 7.66034 7.65628 7.8216 7.33708 7.9242L7.35238 7.9718L7.36768 8.0194C7.70235 7.91183 7.96266 7.74033 8.14512 7.50314L8.10549 7.47265ZM7.35238 7.9718L7.33786 7.92396C7.01741 8.02124 6.59956 8.07067 6.08262 8.07067V8.12067V8.17067C6.60484 8.17067 7.0335 8.12086 7.36691 8.01965L7.35238 7.9718ZM6.08262 8.12067H6.03262V8.67236H6.08262H6.13262V8.12067H6.08262ZM6.08262 8.67236H6.03262C6.03262 8.9999 6.10105 9.26531 6.24343 9.4634L6.28403 9.43422L6.32463 9.40504C6.19846 9.2295 6.13262 8.98701 6.13262 8.67236H6.08262ZM6.28403 9.43422L6.24403 9.46422C6.39699 9.66817 6.64863 9.76445 6.98459 9.76445V9.71445V9.66445C6.66669 9.66445 6.45129 9.57391 6.32403 9.40422L6.28403 9.43422ZM6.98459 9.71445V9.76445C7.29169 9.76445 7.5307 9.67761 7.69191 9.49586C7.8521 9.31525 7.9278 9.0494 7.9278 8.70739H7.8778H7.8278C7.8278 9.03675 7.75464 9.27443 7.61709 9.4295C7.48056 9.58344 7.27296 9.66445 6.98459 9.66445V9.71445ZM7.8778 8.70739V8.75739H8.79729V8.70739V8.65739H7.8778V8.70739ZM8.79729 8.70739L8.74729 8.7069C8.74154 9.28793 8.58357 9.7198 8.28097 10.0112L8.31565 10.0472L8.35034 10.0832C8.67824 9.76747 8.84136 9.30613 8.84729 8.70789L8.79729 8.70739ZM8.31565 10.0472L8.28098 10.0112C7.9839 10.2971 7.54869 10.4438 6.96707 10.4438V10.4938V10.5438C7.56474 10.5438 8.02857 10.3928 8.35032 10.0832L8.31565 10.0472ZM6.96707 10.4938V10.4438C6.38677 10.4438 5.94897 10.2832 5.64573 9.96872L5.60974 10.0034L5.57375 10.0381C5.90101 10.3775 6.36811 10.5438 6.96707 10.5438V10.4938ZM5.60974 10.0034L5.64605 9.96906C5.34788 9.65401 5.19562 9.20952 5.19562 8.62858H5.14562H5.09562C5.09562 9.22692 5.25277 9.69899 5.57342 10.0378L5.60974 10.0034ZM5.14562 8.62858H5.19562V7.42887H5.14562H5.09562V8.62858H5.14562ZM5.14562 7.42887V7.47887C5.79392 7.47887 6.27214 7.46137 6.57874 7.426L6.57301 7.37633L6.56728 7.32665C6.26673 7.36133 5.79335 7.37887 5.14562 7.37887V7.42887ZM6.57301 7.37633L6.57968 7.42588C6.88747 7.38444 7.12309 7.30077 7.27946 7.16941L7.2473 7.13113L7.21514 7.09284C7.07961 7.20669 6.8657 7.28647 6.56634 7.32677L6.57301 7.37633ZM7.2473 7.13113L7.27872 7.17003C7.44333 7.03707 7.54644 6.82537 7.59433 6.54404L7.54504 6.53565L7.49575 6.52726C7.45022 6.79471 7.35484 6.97999 7.21588 7.09223L7.2473 7.13113ZM7.54504 6.53565V6.48565H4.77782V6.53565V6.58565H7.54504V6.53565ZM4.77782 6.53565H4.82782V5.81758H4.77782H4.72782V6.53565H4.77782ZM4.77782 5.81758V5.86758H7.58882V5.81758V5.76758H4.77782V5.81758ZM7.58882 5.81758H7.63882V5.69498H7.58882H7.53882V5.81758H7.58882ZM7.58882 5.69498H7.63882V5.0382H7.58882H7.53882V5.69498H7.58882ZM7.58882 5.0382V4.9882H4.77782V5.0382V5.0882H7.58882V5.0382ZM4.77782 5.0382H4.82782V4.31137H4.77782H4.72782V5.0382H4.77782ZM4.77782 4.31137V4.36137H9.54164V4.31137V4.26137H4.77782V4.31137ZM9.54164 4.31137H9.49164V5.0382H9.54164H9.59164V4.31137H9.54164ZM9.54164 5.0382V4.9882H8.52582V5.0382V5.0882H9.54164V5.0382ZM8.52582 5.0382H8.47582V5.69498H8.52582H8.57582V5.0382H8.52582Z" fill="#080219"/>
</svg>
