<svg width="29" height="25" viewBox="0 0 29 25" fill="none" xmlns="http://www.w3.org/2000/svg">
<path d="M26.9215 15.6714C26.5053 15.5224 26.0584 15.5355 25.6554 15.7152L19.6534 17.5946C19.6665 17.5202 19.6796 17.4457 19.684 17.3712C19.7147 16.92 19.5526 16.4818 19.2328 16.1401C18.8911 15.7765 18.4135 15.5706 17.9141 15.5706H13.9273L10.4707 14.3089C9.60324 13.989 8.69199 13.8313 7.76759 13.8313H5.69535V12.8193C5.69535 12.2892 5.26163 11.8555 4.73153 11.8555H0.963829C0.433723 11.8555 0 12.2892 0 12.8193V23.1279C0 23.658 0.433723 24.0917 0.963829 24.0917H4.73153C5.26163 24.0917 5.69535 23.658 5.69535 23.1279V22.0589H6.79938C7.05348 22.0589 7.29882 22.1027 7.53539 22.186L14.9525 24.8277C15.1891 24.911 15.4388 24.9504 15.6841 24.9504C16.0609 24.9504 16.4377 24.854 16.7706 24.6613L27.0617 18.7994C27.4385 18.6198 27.7364 18.3131 27.9029 17.9276C27.9204 17.8925 27.9335 17.8619 27.9379 17.84C28.0912 17.415 28.0693 16.9419 27.8766 16.5432C27.6838 16.1357 27.3465 15.8291 26.9215 15.6714ZM4.81915 23.1279C4.81915 23.1761 4.77972 23.2155 4.73153 23.2155H0.963829C0.915638 23.2155 0.876208 23.1761 0.876208 23.1279V12.8149C0.876208 12.7667 0.915638 12.7273 0.963829 12.7273H4.73153C4.77972 12.7273 4.81915 12.7667 4.81915 12.8149V23.1279ZM27.1187 17.5421C27.1143 17.5508 27.1099 17.564 27.1055 17.5727C27.0266 17.7699 26.8821 17.9188 26.663 18.0284L16.3369 23.9033C16.0039 24.0917 15.6053 24.1268 15.246 24.0041L7.8333 21.3623C7.50472 21.244 7.15862 21.1827 6.79938 21.1827H5.69535V14.7075H7.76759C8.59122 14.7075 9.39733 14.8521 10.1728 15.1325L13.6995 16.4205C13.7477 16.438 13.8003 16.4468 13.8485 16.4468H17.9097C18.1638 16.4468 18.4135 16.5519 18.5888 16.7403C18.7421 16.9024 18.8166 17.1083 18.8034 17.3142C18.7903 17.5114 18.707 17.6998 18.5712 17.84C18.5011 17.9057 18.4267 17.9626 18.3434 18.0021L18.12 18.0722C18.0762 18.0809 18.0324 18.0809 17.9886 18.0809H13.8485C13.6075 18.0809 13.4104 18.2781 13.4104 18.519C13.4104 18.76 13.6075 18.9571 13.8485 18.9571H17.9886C18.2208 18.9571 18.4442 18.9089 18.6545 18.8213L25.9445 16.5388C25.9621 16.5344 25.9796 16.5257 25.9971 16.5169C26.1942 16.4249 26.4177 16.4161 26.6236 16.4906C26.8295 16.5651 26.9916 16.714 27.088 16.9156C27.1756 17.1083 27.1887 17.3274 27.1187 17.5421Z" fill="white"/>
<path d="M20.8068 14.4574C24.7936 14.4574 28.0356 11.2155 28.0356 7.22872C28.0356 3.24197 24.7936 0 20.8068 0C16.8201 0 13.5781 3.24197 13.5781 7.22872C13.5781 11.2155 16.8201 14.4574 20.8068 14.4574ZM20.8068 0.876208C24.3117 0.876208 27.1594 3.72389 27.1594 7.22872C27.1594 10.7336 24.3117 13.5812 20.8068 13.5812C17.302 13.5812 14.4543 10.7336 14.4543 7.22872C14.4543 3.72389 17.302 0.876208 20.8068 0.876208Z" fill="white"/>
<path d="M21.9848 5.70328V5.79628H22.7555V6.34103H21.945C21.8963 6.63776 21.8033 6.8747 21.666 7.05186C21.5331 7.22458 21.3427 7.3508 21.0946 7.43052C20.8466 7.50581 20.5255 7.54346 20.1314 7.54346V7.96198C20.1314 8.20557 20.1823 8.39822 20.2842 8.53994C20.3905 8.68167 20.5676 8.75253 20.8156 8.75253C21.2674 8.75253 21.4932 8.49787 21.4932 7.98855H22.1908C22.1863 8.43587 22.0646 8.77467 21.8254 9.00497C21.5907 9.23084 21.2497 9.34378 20.8023 9.34378C20.355 9.34378 20.0118 9.21977 19.7726 8.97175C19.5379 8.72374 19.4205 8.37608 19.4205 7.92876V7.01864C19.9121 7.01864 20.2731 7.00535 20.5034 6.97878C20.7337 6.94778 20.9042 6.88577 21.0149 6.79277C21.1301 6.69976 21.2054 6.54918 21.2408 6.34103H19.1415V5.79628H21.274V5.70328V5.20503H19.1415V4.65364H22.7555V5.20503H21.9848V5.70328Z" fill="white"/>
</svg>
