<svg width="469" height="406" viewBox="0 0 469 406" fill="none" xmlns="http://www.w3.org/2000/svg">
<path d="M363.136 196.015C364.192 196.033 365.243 196.07 366.29 196.125L366.271 196.526C367.323 196.582 368.371 196.656 369.413 196.748L369.448 196.347C370.502 196.44 371.549 196.553 372.592 196.683L372.543 197.081C373.586 197.211 374.624 197.359 375.656 197.525L375.719 197.129C376.762 197.297 377.8 197.483 378.831 197.687L378.754 198.08C379.786 198.284 380.812 198.507 381.831 198.747L381.922 198.356C382.95 198.599 383.971 198.858 384.985 199.136L384.88 199.522C385.893 199.8 386.899 200.095 387.897 200.407L388.017 200.024C389.025 200.34 390.026 200.671 391.019 201.021L390.885 201.401C391.876 201.751 392.859 202.118 393.834 202.502L393.98 202.127C394.962 202.514 395.935 202.918 396.899 203.338L396.74 203.707C397.703 204.127 398.656 204.563 399.601 205.016L399.773 204.653C400.725 205.11 401.668 205.581 402.601 206.07L402.415 206.427C403.345 206.914 404.266 207.418 405.176 207.938L405.374 207.589C406.29 208.112 407.196 208.65 408.091 209.204L407.88 209.546C408.772 210.098 409.654 210.666 410.525 211.249L410.749 210.916C411.625 211.503 412.491 212.104 413.345 212.721L413.109 213.047C413.96 213.661 414.8 214.291 415.628 214.935L415.873 214.618C416.705 215.265 417.525 215.927 418.333 216.603L418.076 216.911C418.881 217.584 419.674 218.271 420.454 218.973L420.722 218.674C421.506 219.379 422.277 220.097 423.035 220.829L422.757 221.117C423.512 221.846 424.254 222.588 424.982 223.343L425.271 223.064C426.002 223.823 426.721 224.593 427.426 225.377L427.127 225.646C427.828 226.426 428.516 227.219 429.189 228.023L429.496 227.765C430.172 228.573 430.834 229.393 431.481 230.226L431.165 230.473C431.809 231.3 432.438 232.14 433.053 232.99L433.378 232.756C433.995 233.61 434.597 234.474 435.184 235.351L434.851 235.574C435.434 236.445 436.002 237.327 436.555 238.22L436.895 238.008C437.449 238.903 437.987 239.809 438.51 240.725L438.162 240.925C438.681 241.835 439.185 242.755 439.673 243.686L440.028 243.498C440.517 244.431 440.99 245.373 441.446 246.325L441.084 246.499C441.537 247.443 441.973 248.398 442.393 249.36L442.762 249.198C443.182 250.163 443.585 251.136 443.972 252.118H443.973L443.598 252.267C443.981 253.241 444.349 254.224 444.698 255.215L445.077 255.081C445.427 256.073 445.76 257.074 446.075 258.082L445.692 258.202C446.005 259.2 446.3 260.207 446.577 261.22L446.964 261.114C447.241 262.128 447.501 263.149 447.743 264.177L447.354 264.27C447.593 265.288 447.815 266.314 448.02 267.347L448.412 267.269C448.616 268.299 448.803 269.336 448.971 270.38L448.575 270.444C448.741 271.476 448.889 272.513 449.019 273.557L449.417 273.507C449.547 274.55 449.659 275.598 449.752 276.651L449.352 276.688C449.444 277.73 449.518 278.778 449.573 279.83L449.974 279.809C450.029 280.856 450.065 281.907 450.084 282.964L449.684 282.971C449.693 283.496 449.697 284.022 449.697 284.55C449.697 285.077 449.693 285.604 449.684 286.13L450.084 286.136C450.065 287.192 450.029 288.243 449.974 289.29L449.573 289.271C449.518 290.323 449.444 291.371 449.352 292.413L449.752 292.447C449.659 293.501 449.547 294.549 449.417 295.592L449.019 295.543C448.889 296.586 448.741 297.624 448.575 298.656L448.971 298.719C448.803 299.762 448.616 300.8 448.412 301.831L448.02 301.754C447.815 302.786 447.593 303.812 447.354 304.831L447.743 304.922C447.501 305.95 447.241 306.971 446.964 307.985L446.577 307.88C446.3 308.893 446.005 309.899 445.692 310.897L446.075 311.017C445.76 312.025 445.427 313.026 445.077 314.019L444.698 313.885C444.349 314.876 443.981 315.859 443.598 316.834L443.973 316.981C443.586 317.963 443.182 318.936 442.762 319.9L442.393 319.74C441.973 320.703 441.537 321.656 441.084 322.601L441.446 322.773C440.99 323.725 440.517 324.668 440.028 325.601L439.673 325.415C439.185 326.345 438.682 327.266 438.162 328.176L438.51 328.374C437.987 329.29 437.45 330.196 436.896 331.091L436.555 330.88C436.002 331.772 435.434 332.654 434.851 333.525L435.184 333.749C434.597 334.625 433.995 335.49 433.378 336.344L433.053 336.109C432.438 336.96 431.809 337.8 431.165 338.628L431.481 338.873C430.834 339.705 430.172 340.526 429.496 341.334L429.189 341.076C428.516 341.881 427.828 342.674 427.127 343.454L427.425 343.723C426.72 344.506 426.002 345.277 425.271 346.035L424.982 345.757C424.254 346.512 423.512 347.254 422.757 347.982L423.035 348.271C422.277 349.002 421.506 349.72 420.723 350.425L420.454 350.127C419.674 350.828 418.881 351.516 418.076 352.189L418.334 352.496C417.526 353.172 416.705 353.834 415.873 354.481L415.628 354.165C414.8 354.809 413.96 355.438 413.109 356.053L413.344 356.378C412.49 356.995 411.625 357.597 410.749 358.184L410.525 357.851C409.654 358.434 408.772 359.002 407.88 359.555L408.091 359.896C407.196 360.45 406.29 360.987 405.374 361.51L405.176 361.162C404.266 361.682 403.345 362.185 402.415 362.673L402.601 363.028C401.668 363.517 400.725 363.99 399.773 364.446L399.601 364.084C398.656 364.537 397.703 364.973 396.74 365.393L396.9 365.762C395.936 366.182 394.963 366.586 393.981 366.973L393.834 366.598C392.859 366.981 391.876 367.349 390.885 367.698L391.019 368.077C390.026 368.427 389.025 368.76 388.017 369.075L387.897 368.692C386.899 369.005 385.893 369.3 384.88 369.577L384.985 369.964C383.971 370.241 382.95 370.501 381.922 370.743L381.831 370.354C380.812 370.593 379.786 370.815 378.754 371.02L378.831 371.412C377.8 371.616 376.762 371.803 375.719 371.971L375.656 371.575C374.624 371.741 373.586 371.889 372.543 372.019L372.592 372.417C371.549 372.547 370.501 372.659 369.447 372.752L369.413 372.352C368.371 372.444 367.323 372.518 366.271 372.573L366.29 372.974C365.243 373.029 364.192 373.065 363.136 373.084L363.13 372.684C362.604 372.693 362.077 372.697 361.55 372.697C361.022 372.697 360.496 372.693 359.971 372.684L359.964 373.084C358.907 373.065 357.856 373.029 356.809 372.974L356.83 372.573C355.778 372.518 354.73 372.444 353.688 372.352L353.651 372.752C352.598 372.659 351.55 372.547 350.507 372.417L350.557 372.019C349.513 371.889 348.476 371.741 347.444 371.575L347.38 371.971C346.336 371.803 345.299 371.616 344.269 371.412L344.347 371.02C343.314 370.815 342.288 370.593 341.27 370.354L341.177 370.743C340.149 370.501 339.128 370.241 338.114 369.964L338.22 369.577C337.207 369.3 336.2 369.005 335.202 368.692L335.082 369.075C334.074 368.76 333.073 368.427 332.081 368.077L332.215 367.698C331.224 367.349 330.24 366.981 329.266 366.598L329.118 366.972C328.136 366.585 327.163 366.182 326.198 365.762L326.36 365.393C325.398 364.973 324.443 364.537 323.499 364.084L323.325 364.446C322.373 363.99 321.431 363.517 320.498 363.028L320.686 362.673C319.755 362.185 318.835 361.681 317.925 361.162L317.725 361.51C316.809 360.987 315.903 360.449 315.008 359.895L315.22 359.555C314.327 359.002 313.445 358.434 312.574 357.851L312.351 358.184C311.474 357.597 310.61 356.995 309.756 356.378L309.99 356.053C309.14 355.438 308.3 354.809 307.473 354.165L307.226 354.481C306.393 353.834 305.573 353.172 304.765 352.496L305.023 352.189C304.219 351.516 303.426 350.828 302.646 350.127L302.377 350.426C301.593 349.721 300.823 349.002 300.064 348.271L300.343 347.982C299.588 347.254 298.846 346.512 298.117 345.757L297.829 346.035C297.097 345.277 296.379 344.506 295.674 343.722L295.973 343.454C295.271 342.674 294.583 341.881 293.91 341.076L293.603 341.333C292.927 340.525 292.265 339.705 291.618 338.873L291.935 338.628C291.291 337.8 290.661 336.96 290.047 336.109L289.721 336.345C289.104 335.491 288.503 334.625 287.916 333.749L288.249 333.525C287.666 332.654 287.098 331.772 286.546 330.88L286.204 331.091C285.65 330.196 285.112 329.29 284.589 328.374L284.938 328.176C284.418 327.266 283.914 326.345 283.427 325.415L283.07 325.601C282.581 324.668 282.11 323.725 281.653 322.773L282.016 322.601C281.563 321.656 281.127 320.703 280.707 319.74L280.338 319.899C279.918 318.935 279.514 317.962 279.127 316.98L279.502 316.834C279.118 315.859 278.751 314.876 278.401 313.885L278.021 314.018C277.671 313.025 277.34 312.025 277.024 311.017L277.407 310.897C277.095 309.899 276.8 308.893 276.522 307.88L276.136 307.985C275.858 306.971 275.599 305.95 275.356 304.922L275.747 304.831C275.507 303.812 275.284 302.785 275.08 301.753L274.687 301.831C274.483 300.8 274.297 299.762 274.129 298.719L274.525 298.656C274.359 297.624 274.211 296.586 274.081 295.543L273.683 295.592C273.553 294.549 273.44 293.502 273.347 292.448L273.748 292.413C273.656 291.371 273.582 290.322 273.526 289.27L273.125 289.29C273.07 288.243 273.033 287.192 273.015 286.136L273.416 286.13C273.407 285.604 273.402 285.077 273.402 284.55C273.402 284.022 273.407 283.496 273.416 282.971L273.015 282.964C273.033 281.907 273.07 280.856 273.125 279.809L273.526 279.83C273.582 278.778 273.656 277.73 273.748 276.688L273.348 276.651L273.347 276.65C273.44 275.597 273.553 274.549 273.683 273.507L274.081 273.557C274.211 272.513 274.359 271.476 274.525 270.444L274.129 270.38C274.297 269.337 274.483 268.299 274.687 267.269L275.08 267.347C275.284 266.314 275.507 265.289 275.747 264.27L275.356 264.177C275.598 263.149 275.858 262.128 276.136 261.114L276.522 261.22C276.8 260.207 277.095 259.2 277.407 258.202L277.024 258.082C277.34 257.074 277.671 256.073 278.021 255.081L278.401 255.215C278.751 254.224 279.118 253.24 279.502 252.266L279.128 252.118C279.514 251.137 279.918 250.163 280.338 249.199L280.707 249.36C281.127 248.398 281.563 247.443 282.016 246.499L281.653 246.325C282.11 245.373 282.581 244.431 283.07 243.498L283.427 243.686C283.914 242.756 284.418 241.835 284.938 240.925L284.589 240.725C285.112 239.809 285.65 238.903 286.204 238.008L286.546 238.22C287.098 237.327 287.666 236.445 288.249 235.574L287.915 235.351C288.502 234.474 289.104 233.609 289.721 232.755L290.047 232.99C290.661 232.14 291.291 231.3 291.935 230.473L291.618 230.226C292.265 229.394 292.927 228.573 293.603 227.766L293.911 228.023C294.584 227.219 295.272 226.426 295.973 225.646L295.674 225.378C296.379 224.594 297.097 223.823 297.829 223.064L298.117 223.343C298.846 222.588 299.588 221.846 300.343 221.117L300.064 220.829C300.823 220.097 301.594 219.379 302.378 218.674L302.646 218.973C303.426 218.271 304.219 217.584 305.023 216.91L304.766 216.603C305.573 215.927 306.394 215.265 307.226 214.618L307.473 214.935C308.3 214.291 309.14 213.661 309.99 213.047L309.755 212.721C310.609 212.104 311.474 211.502 312.351 210.915L312.574 211.249C313.445 210.666 314.327 210.098 315.22 209.546L315.008 209.204C315.903 208.65 316.809 208.112 317.725 207.589L317.925 207.938C318.835 207.418 319.756 206.914 320.686 206.427L320.498 206.07C321.431 205.581 322.373 205.11 323.325 204.653L323.499 205.016C324.443 204.563 325.398 204.127 326.36 203.707L326.199 203.338C327.163 202.918 328.137 202.514 329.118 202.128L329.267 202.502C330.241 202.118 331.224 201.751 332.215 201.401L332.081 201.021C333.073 200.671 334.074 200.34 335.082 200.024L335.202 200.407C336.2 200.095 337.207 199.8 338.22 199.522L338.114 199.136C339.128 198.858 340.149 198.598 341.177 198.356L341.27 198.747C342.289 198.507 343.314 198.284 344.347 198.08L344.269 197.687C345.299 197.483 346.337 197.297 347.38 197.129L347.444 197.525C348.476 197.359 349.513 197.211 350.557 197.081L350.507 196.683C351.549 196.553 352.597 196.44 353.65 196.347L353.651 196.348L353.688 196.748C354.73 196.656 355.778 196.582 356.83 196.526L356.809 196.125C357.856 196.07 358.907 196.033 359.964 196.015L359.971 196.416C360.496 196.407 361.022 196.402 361.55 196.402C362.077 196.402 362.604 196.407 363.13 196.416L363.136 196.015Z" stroke="url(#paint0_linear_431_12599)" stroke-width="0.805263" stroke-dasharray="3.22 3.22"/>
<path d="M131.136 8.01465C132.192 8.03319 133.243 8.06979 134.29 8.125L134.271 8.52637C135.323 8.5819 136.371 8.65591 137.413 8.74805L137.448 8.34668C138.502 8.43978 139.549 8.55296 140.592 8.68262L140.543 9.08105C141.586 9.21086 142.624 9.35944 143.656 9.52539L143.719 9.12891C144.762 9.29675 145.8 9.48254 146.831 9.68652L146.754 10.0801C147.786 10.2843 148.812 10.5071 149.831 10.7471L149.922 10.3564C150.95 10.5985 151.971 10.8582 152.985 11.1357L152.88 11.5225C153.893 11.7998 154.899 12.095 155.897 12.4072L156.017 12.0244C157.025 12.3398 158.026 12.6713 159.019 13.0215L158.885 13.4014C159.876 13.7511 160.859 14.1182 161.834 14.502L161.98 14.127C162.962 14.5135 163.935 14.9176 164.899 15.3379L164.74 15.707C165.703 16.1266 166.656 16.563 167.601 17.0156L167.773 16.6533C168.725 17.1095 169.668 17.5815 170.601 18.0703L170.415 18.4268C171.345 18.9143 172.266 19.4181 173.176 19.9375L173.374 19.5889C174.29 20.1116 175.196 20.65 176.091 21.2041L175.88 21.5459C176.772 22.0984 177.654 22.666 178.525 23.249L178.749 22.916C179.625 23.5027 180.491 24.104 181.345 24.7207L181.109 25.0469C181.96 25.6615 182.8 26.2907 183.628 26.9346L183.873 26.6182C184.705 27.2653 185.525 27.9267 186.333 28.6025L186.076 28.9111C186.881 29.5845 187.674 30.2715 188.454 30.9727L188.722 30.6738C189.506 31.3785 190.277 32.0972 191.035 32.8291L190.757 33.1172C191.512 33.8457 192.254 34.5879 192.982 35.3428L193.271 35.0645C194.002 35.8226 194.721 36.5931 195.426 37.377L195.127 37.6455C195.828 38.4256 196.516 39.2186 197.189 40.0234L197.496 39.7646C198.172 40.5728 198.834 41.3933 199.481 42.2256L199.165 42.4727C199.809 43.3002 200.438 44.1395 201.053 44.9902L201.378 44.7559C201.995 45.6096 202.597 46.4744 203.184 47.3506L202.851 47.5742C203.434 48.4453 204.002 49.3271 204.555 50.2197L204.895 50.0078C205.449 50.9029 205.987 51.8087 206.51 52.7246L206.162 52.9248C206.681 53.835 207.185 54.7555 207.673 55.6855L208.028 55.498C208.517 56.4308 208.99 57.3733 209.446 58.3252L209.084 58.499C209.537 59.4435 209.973 60.3977 210.393 61.3604L210.762 61.1982C211.182 62.1626 211.585 63.1363 211.972 64.1182H211.973L211.598 64.2666C211.981 65.241 212.349 66.2238 212.698 67.2148L213.077 67.0811C213.427 68.0734 213.76 69.0739 214.075 70.082L213.692 70.2021C214.005 71.2004 214.3 72.2066 214.577 73.2197L214.964 73.1143C215.241 74.128 215.501 75.1489 215.743 76.1768L215.354 76.2695C215.593 77.2885 215.815 78.3144 216.02 79.3467L216.412 79.2686C216.616 80.2994 216.803 81.3365 216.971 82.3799L216.575 82.4443C216.741 83.4759 216.889 84.5134 217.019 85.5566L217.417 85.5068C217.547 86.5495 217.659 87.5978 217.752 88.6514L217.352 88.6875C217.444 89.7299 217.518 90.7776 217.573 91.8301L217.974 91.8086C218.029 92.8556 218.065 93.9075 218.084 94.9639L217.684 94.9707C217.693 95.496 217.697 96.0223 217.697 96.5498C217.697 97.0774 217.693 97.6045 217.684 98.1299L218.084 98.1357C218.065 99.1918 218.029 100.243 217.974 101.29L217.573 101.271C217.518 102.323 217.444 103.371 217.352 104.413L217.752 104.447C217.659 105.501 217.547 106.549 217.417 107.592L217.019 107.543C216.889 108.586 216.741 109.624 216.575 110.656L216.971 110.719C216.803 111.762 216.616 112.8 216.412 113.831L216.02 113.754C215.815 114.786 215.593 115.812 215.354 116.831L215.743 116.922C215.501 117.95 215.241 118.971 214.964 119.985L214.577 119.88C214.3 120.893 214.005 121.899 213.692 122.897L214.075 123.017C213.76 124.025 213.427 125.026 213.077 126.019L212.698 125.885C212.349 126.876 211.981 127.859 211.598 128.834L211.973 128.981C211.586 129.963 211.182 130.936 210.762 131.9L210.393 131.74C209.973 132.703 209.537 133.656 209.084 134.601L209.446 134.773C208.99 135.725 208.517 136.668 208.028 137.601L207.673 137.415C207.185 138.345 206.682 139.266 206.162 140.176L206.51 140.374C205.987 141.29 205.45 142.196 204.896 143.091L204.555 142.88C204.002 143.772 203.434 144.654 202.851 145.525L203.184 145.749C202.597 146.625 201.995 147.49 201.378 148.344L201.053 148.109C200.438 148.96 199.809 149.8 199.165 150.628L199.481 150.873C198.834 151.705 198.172 152.526 197.496 153.334L197.189 153.076C196.516 153.881 195.828 154.674 195.127 155.454L195.425 155.723C194.72 156.506 194.002 157.277 193.271 158.035L192.982 157.757C192.254 158.512 191.512 159.254 190.757 159.982L191.035 160.271C190.277 161.002 189.506 161.72 188.723 162.425L188.454 162.127C187.674 162.828 186.881 163.516 186.076 164.189L186.334 164.496C185.526 165.172 184.705 165.834 183.873 166.481L183.628 166.165C182.8 166.809 181.96 167.438 181.109 168.053L181.344 168.378C180.49 168.995 179.625 169.597 178.749 170.184L178.525 169.851C177.654 170.434 176.772 171.002 175.88 171.555L176.091 171.896C175.196 172.45 174.29 172.987 173.374 173.51L173.176 173.162C172.266 173.682 171.345 174.185 170.415 174.673L170.601 175.028C169.668 175.517 168.725 175.99 167.773 176.446L167.601 176.084C166.656 176.537 165.703 176.973 164.74 177.393L164.9 177.762C163.936 178.182 162.963 178.586 161.981 178.973L161.834 178.598C160.859 178.981 159.876 179.349 158.885 179.698L159.019 180.077C158.026 180.427 157.025 180.76 156.017 181.075L155.897 180.692C154.899 181.005 153.893 181.3 152.88 181.577L152.985 181.964C151.971 182.241 150.95 182.501 149.922 182.743L149.831 182.354C148.812 182.593 147.786 182.815 146.754 183.02L146.831 183.412C145.8 183.616 144.762 183.803 143.719 183.971L143.656 183.575C142.624 183.741 141.586 183.889 140.543 184.019L140.592 184.417C139.549 184.547 138.501 184.659 137.447 184.752L137.413 184.352C136.371 184.444 135.323 184.518 134.271 184.573L134.29 184.974C133.243 185.029 132.192 185.065 131.136 185.084L131.13 184.684C130.604 184.693 130.077 184.697 129.55 184.697C129.022 184.697 128.496 184.693 127.971 184.684L127.964 185.084C126.907 185.065 125.856 185.029 124.809 184.974L124.83 184.573C123.778 184.518 122.73 184.444 121.688 184.352L121.651 184.752C120.598 184.659 119.55 184.547 118.507 184.417L118.557 184.019C117.513 183.889 116.476 183.741 115.444 183.575L115.38 183.971C114.336 183.803 113.299 183.616 112.269 183.412L112.347 183.02C111.314 182.815 110.288 182.593 109.27 182.354L109.177 182.743C108.149 182.501 107.128 182.241 106.114 181.964L106.22 181.577C105.207 181.3 104.2 181.005 103.202 180.692L103.082 181.075C102.074 180.76 101.073 180.427 100.081 180.077L100.215 179.698C99.2237 179.349 98.2402 178.981 97.2656 178.598L97.1182 178.972C96.1363 178.585 95.1626 178.182 94.1982 177.762L94.3604 177.393C93.3977 176.973 92.4435 176.537 91.499 176.084L91.3252 176.446C90.3733 175.99 89.4308 175.517 88.498 175.028L88.6855 174.673C87.7555 174.185 86.8349 173.681 85.9248 173.162L85.7246 173.51C84.8087 172.987 83.9029 172.449 83.0078 171.895L83.2197 171.555C82.3271 171.002 81.4453 170.434 80.5742 169.851L80.3506 170.184C79.4744 169.597 78.6096 168.995 77.7559 168.378L77.9902 168.053C77.1395 167.438 76.3002 166.809 75.4727 166.165L75.2256 166.481C74.3933 165.834 73.5728 165.172 72.7646 164.496L73.0234 164.189C72.2186 163.516 71.4256 162.828 70.6455 162.127L70.377 162.426C69.5931 161.721 68.8226 161.002 68.0645 160.271L68.3428 159.982C67.5879 159.254 66.8457 158.512 66.1172 157.757L65.8291 158.035C65.0972 157.277 64.3785 156.506 63.6738 155.722L63.9727 155.454C63.2715 154.674 62.5835 153.881 61.9102 153.076L61.6025 153.333C60.9267 152.525 60.2653 151.705 59.6182 150.873L59.9346 150.628C59.2907 149.8 58.6615 148.96 58.0469 148.109L57.7207 148.345C57.104 147.491 56.5027 146.625 55.916 145.749L56.249 145.525C55.666 144.654 55.0984 143.772 54.5459 142.88L54.2041 143.091C53.65 142.196 53.1116 141.29 52.5889 140.374L52.9375 140.176C52.4181 139.266 51.9143 138.345 51.4268 137.415L51.0703 137.601C50.5815 136.668 50.1095 135.725 49.6533 134.773L50.0156 134.601C49.563 133.656 49.1266 132.703 48.707 131.74L48.3379 131.899C47.9176 130.935 47.5135 129.962 47.127 128.98L47.502 128.834C47.1182 127.859 46.7511 126.876 46.4014 125.885L46.0215 126.018C45.6714 125.025 45.3397 124.025 45.0244 123.017L45.4072 122.897C45.0949 121.899 44.7998 120.893 44.5225 119.88L44.1357 119.985C43.8582 118.971 43.5985 117.95 43.3564 116.922L43.7471 116.831C43.5071 115.812 43.2843 114.785 43.0801 113.753L42.6865 113.831C42.4825 112.8 42.2967 111.762 42.1289 110.719L42.5254 110.656C42.3594 109.624 42.2109 108.586 42.0811 107.543L41.6826 107.592C41.553 106.549 41.4398 105.502 41.3467 104.448L41.748 104.413C41.6559 103.371 41.5819 102.322 41.5264 101.27L41.125 101.29C41.0698 100.243 41.0332 99.1918 41.0146 98.1357L41.416 98.1299C41.4068 97.6045 41.4023 97.0774 41.4023 96.5498C41.4023 96.0223 41.4068 95.496 41.416 94.9707L41.0146 94.9639C41.0332 93.9075 41.0698 92.8556 41.125 91.8086L41.5264 91.8301C41.5819 90.7776 41.6559 89.7299 41.748 88.6875L41.3477 88.6514L41.3467 88.6504C41.4398 87.5971 41.5529 86.5492 41.6826 85.5068L42.0811 85.5566C42.2108 84.5134 42.3595 83.4759 42.5254 82.4443L42.1289 82.3799C42.2967 81.3366 42.4826 80.2993 42.6865 79.2686L43.0801 79.3467C43.2843 78.3144 43.5071 77.2885 43.7471 76.2695L43.3564 76.1768C43.5985 75.1489 43.8582 74.128 44.1357 73.1143L44.5225 73.2197C44.7998 72.2066 45.095 71.2004 45.4072 70.2021L45.0244 70.082C45.3398 69.074 45.6714 68.0733 46.0215 67.0811L46.4014 67.2148C46.7511 66.2237 47.1182 65.2402 47.502 64.2656L47.1279 64.1182C47.5145 63.1365 47.9176 62.1633 48.3379 61.1992L48.707 61.3604C49.1267 60.3977 49.563 59.4435 50.0156 58.499L49.6533 58.3252C50.1095 57.3734 50.5815 56.4306 51.0703 55.498L51.4268 55.6855C51.9142 54.7555 52.4181 53.8349 52.9375 52.9248L52.5889 52.7246C53.1116 51.8087 53.65 50.9029 54.2041 50.0078L54.5459 50.2197C55.0984 49.3273 55.666 48.4451 56.249 47.5742L55.915 47.3506C56.5018 46.4741 57.1039 45.6088 57.7207 44.7549L58.0469 44.9902C58.6614 44.1395 59.2908 43.3002 59.9346 42.4727L59.6182 42.2256C60.2653 41.3937 60.9267 40.5734 61.6025 39.7656L61.9111 40.0234C62.5844 39.2187 63.2716 38.4255 63.9727 37.6455L63.6738 37.3779C64.3785 36.5939 65.0972 35.8228 65.8291 35.0645L66.1172 35.3428C66.8457 34.5879 67.5879 33.8457 68.3428 33.1172L68.0645 32.8291C68.8228 32.0972 69.5939 31.3785 70.3779 30.6738L70.6455 30.9727C71.4256 30.2715 72.2186 29.5835 73.0234 28.9102L72.7656 28.6025C73.5734 27.9267 74.3937 27.2653 75.2256 26.6182L75.4727 26.9346C76.3002 26.2908 77.1395 25.6614 77.9902 25.0469L77.7549 24.7207C78.6088 24.1039 79.4741 23.5018 80.3506 22.915L80.5742 23.249C81.4451 22.666 82.3273 22.0984 83.2197 21.5459L83.0078 21.2041C83.9029 20.65 84.8087 20.1116 85.7246 19.5889L85.9248 19.9375C86.8349 19.4181 87.7555 18.9142 88.6855 18.4268L88.498 18.0703C89.4306 17.5815 90.3734 17.1095 91.3252 16.6533L91.499 17.0156C92.4435 16.563 93.3977 16.1267 94.3604 15.707L94.1992 15.3379C95.1633 14.9176 96.1365 14.5145 97.1182 14.1279L97.2666 14.502C98.241 14.1182 99.2238 13.751 100.215 13.4014L100.081 13.0215C101.073 12.6714 102.074 12.3398 103.082 12.0244L103.202 12.4072C104.2 12.095 105.207 11.7998 106.22 11.5225L106.114 11.1357C107.128 10.8582 108.149 10.5985 109.177 10.3564L109.27 10.7471C110.289 10.5071 111.314 10.2843 112.347 10.0801L112.269 9.68652C113.299 9.4826 114.337 9.29671 115.38 9.12891L115.444 9.52539C116.476 9.35948 117.513 9.21083 118.557 9.08105L118.507 8.68262C119.549 8.55294 120.597 8.4398 121.65 8.34668L121.651 8.34766L121.688 8.74805C122.73 8.65592 123.778 8.58189 124.83 8.52637L124.809 8.125C125.856 8.06976 126.907 8.0332 127.964 8.01465L127.971 8.41602C128.496 8.40679 129.022 8.40234 129.55 8.40234C130.077 8.40234 130.604 8.40678 131.13 8.41602L131.136 8.01465Z" stroke="url(#paint1_linear_431_12599)" stroke-width="0.805263" stroke-dasharray="3.22 3.22"/>
<path d="M234.49 40.166C327.453 40.1661 402.814 115.528 402.814 208.49C402.814 301.453 327.453 376.814 234.49 376.814C141.528 376.814 66.1661 301.453 66.166 208.49C66.166 115.527 141.527 40.166 234.49 40.166Z" fill="#0B051E" stroke="url(#paint2_linear_431_12599)" stroke-width="0.331887"/>
<path d="M121.393 35.2412H191.607C198.319 35.2413 203.759 40.6815 203.759 47.3926V113.559C203.759 120.27 198.318 125.71 191.607 125.71H121.393C114.682 125.71 109.241 120.27 109.241 113.559V47.3926C109.241 40.6815 114.681 35.2413 121.393 35.2412Z" fill="#0B051E" stroke="url(#paint3_linear_431_12599)" stroke-width="0.481792"/>
<path d="M123.01 105.394V110.314C123.01 111.414 131.32 112.304 141.58 112.304C151.84 112.304 160.15 111.414 160.15 110.314V105.394H123.01Z" fill="#DBA435"/>
<path d="M160.14 105.394C160.14 106.494 151.83 107.384 141.57 107.384C131.31 107.384 123 106.494 123 105.394C123 104.294 131.31 103.404 141.57 103.404C151.83 103.404 160.14 104.294 160.14 105.394Z" fill="#CCCCCC"/>
<path d="M123.01 100.554V105.474C123.01 106.574 131.32 107.464 141.58 107.464C151.84 107.464 160.15 106.574 160.15 105.474V100.554H123.01Z" fill="white"/>
<path d="M141.58 102.534C151.836 102.534 160.15 101.643 160.15 100.544C160.15 99.4445 151.836 98.5536 141.58 98.5536C131.324 98.5536 123.01 99.4445 123.01 100.544C123.01 101.643 131.324 102.534 141.58 102.534Z" fill="#CCCCCC"/>
<path d="M123.01 95.7036V100.624C123.01 101.724 131.32 102.614 141.58 102.614C151.84 102.614 160.15 101.724 160.15 100.624V95.7036H123.01Z" fill="#DBA435"/>
<path d="M160.14 95.7036C160.14 96.8036 151.83 97.6936 141.57 97.6936C131.31 97.6936 123 96.8036 123 95.7036C123 94.6036 131.31 93.7136 141.57 93.7136C151.83 93.7136 160.14 94.6036 160.14 95.7036Z" fill="#CCCCCC"/>
<path d="M123.01 86.0035V90.9235C123.01 92.0235 131.32 92.9135 141.58 92.9135C151.84 92.9135 160.15 92.0235 160.15 90.9235V86.0035H123.01Z" fill="#DBA435"/>
<path d="M160.14 86.0035C160.14 87.1035 151.83 87.9936 141.57 87.9936C131.31 87.9936 123 87.1035 123 86.0035C123 84.9035 131.31 84.0135 141.57 84.0135C151.83 84.0135 160.14 84.9035 160.14 86.0035Z" fill="#CCCCCC"/>
<path d="M123.01 90.8535V95.7735C123.01 96.8735 131.32 97.7635 141.58 97.7635C151.84 97.7635 160.15 96.8735 160.15 95.7735V90.8535H123.01Z" fill="white"/>
<path d="M160.14 90.8535C160.14 91.9535 151.83 92.8435 141.57 92.8435C131.31 92.8435 123 91.9535 123 90.8535C123 89.7535 131.31 88.8635 141.57 88.8635C151.83 88.8635 160.14 89.7535 160.14 90.8535Z" fill="#DBA435"/>
<path d="M123.01 81.1536V86.0736C123.01 87.1736 131.32 88.0636 141.58 88.0636C151.84 88.0636 160.15 87.1736 160.15 86.0736V81.1536H123.01Z" fill="white"/>
<path d="M160.14 81.1536C160.14 82.2536 151.83 83.1436 141.57 83.1436C131.31 83.1436 123 82.2536 123 81.1536C123 80.0536 131.31 79.1636 141.57 79.1636C151.83 79.1636 160.14 80.0536 160.14 81.1536Z" fill="#DBA435"/>
<path d="M183.882 74.244C186.281 63.9944 179.916 53.7411 169.666 51.3427C159.417 48.9443 149.163 55.3091 146.765 65.5587C144.367 75.8084 150.731 86.0617 160.981 88.4601C171.231 90.8585 181.484 84.4937 183.882 74.244Z" fill="#DBA435"/>
<path d="M165.33 86.6737C156.09 86.6737 148.57 79.1537 148.57 69.9137C148.57 60.6737 156.09 53.1537 165.33 53.1537C174.57 53.1537 182.09 60.6737 182.09 69.9137C182.09 79.1537 174.57 86.6737 165.33 86.6737ZM165.33 54.5837C156.88 54.5837 150.01 61.4537 150.01 69.9037C150.01 78.3537 156.88 85.2237 165.33 85.2237C173.78 85.2237 180.65 78.3537 180.65 69.9037C180.65 61.4537 173.78 54.5837 165.33 54.5837Z" fill="white"/>
<path d="M169.665 67.3745L169.215 68.9097H160.639L161.089 67.3745H169.665ZM165.642 77.7241L160.798 71.7949L160.772 70.6832H163.18C163.807 70.6832 164.341 70.595 164.782 70.4185C165.223 70.2376 165.56 69.9685 165.794 69.6112C166.028 69.2494 166.145 68.795 166.145 68.248C166.145 67.4407 165.902 66.8076 165.417 66.3488C164.932 65.8856 164.186 65.654 163.18 65.654H160.639L161.089 64.1717H163.18C164.257 64.1717 165.139 64.3503 165.827 64.7077C166.52 65.0606 167.032 65.5459 167.363 66.1635C167.698 66.7767 167.865 67.4716 167.865 68.248C167.865 68.9494 167.711 69.5957 167.402 70.1869C167.098 70.7736 166.608 71.2457 165.933 71.603C165.263 71.9604 164.376 72.139 163.273 72.139H163.233L167.707 77.6182V77.7241H165.642ZM169.665 64.1717L169.215 65.7069L162.466 65.654L162.916 64.1717H169.665Z" fill="white"/>
<path d="M385.542 79.6492L378.102 78.6099C376.112 78.332 374.552 76.7848 374.025 74.8466C373.495 72.8981 374.059 70.7855 375.639 69.5276L381.493 64.8657C384.616 62.3742 385.136 57.8256 382.646 54.6935L377.118 47.7595C374.626 44.6368 370.078 44.1162 366.946 46.6064L360.313 51.888C359.197 52.7771 357.651 52.838 356.411 52.1308C355.167 51.4213 354.41 50.0458 354.608 48.6275L355.78 40.2341C356.333 36.2737 353.572 32.6157 349.612 32.0625L340.828 30.8354C336.867 30.2822 333.209 33.0434 332.656 37.0038L331.483 45.4035C331.285 46.8202 330.192 47.9365 328.802 48.2754C327.411 48.6145 325.932 48.1291 325.1 46.9646L320.172 40.0725C317.851 36.8206 313.326 36.0641 310.073 38.3939L302.857 43.5475C299.605 45.868 298.848 50.3932 301.178 53.6464L305.531 59.734C306.705 61.3766 306.669 63.5631 305.625 65.2916C304.586 67.0111 302.662 68.0716 300.673 67.7937L293.233 66.7545C289.273 66.2012 285.615 68.9625 285.061 72.9228L283.834 81.707C283.281 85.6674 286.042 89.3253 290.003 89.8785L297.443 90.9178C299.432 91.1957 300.992 92.743 301.519 94.6812C302.049 96.6296 301.485 98.7423 299.906 100L294.051 104.662C290.929 107.154 290.408 111.702 292.898 114.834L298.426 121.768C300.918 124.891 305.466 125.412 308.599 122.921L315.231 117.64C316.348 116.751 317.893 116.69 319.133 117.397C320.377 118.106 321.135 119.482 320.937 120.9L319.764 129.294C319.211 133.254 321.972 136.912 325.932 137.465L334.717 138.692C338.677 139.246 342.335 136.484 342.888 132.524L344.061 124.124C344.259 122.708 345.353 121.591 346.742 121.252C348.133 120.913 349.612 121.399 350.445 122.563L355.372 129.455C357.693 132.707 362.218 133.464 365.471 131.134L372.688 125.98C375.94 123.66 376.696 119.135 374.366 115.881L370.014 109.794C368.839 108.151 368.876 105.965 369.919 104.236C370.958 102.517 372.882 101.456 374.871 101.734L382.311 102.773C386.272 103.327 389.93 100.565 390.483 96.6049L391.71 87.8208C392.263 83.8604 389.502 80.2025 385.542 79.6492ZM334.457 108.632C321.3 106.794 312.087 94.5901 313.925 81.4327C315.763 68.2752 327.967 59.063 341.125 60.901C354.282 62.739 363.494 74.9429 361.656 88.1003C359.818 101.258 347.615 110.47 334.457 108.632Z" fill="url(#paint4_linear_431_12599)"/>
<rect x="36.3649" y="166.367" width="187.48" height="169.265" rx="6.97959" fill="#0B051E" stroke="url(#paint5_linear_431_12599)" stroke-width="0.734694" stroke-dasharray="2.94 2.94"/>
<path d="M86.6831 192.167V181.881H89.71C90.9149 181.881 91.9043 182.092 92.6782 182.513C93.4619 182.924 94.0398 183.517 94.4121 184.291C94.7941 185.055 94.9851 185.976 94.9851 187.053C94.9851 188.111 94.7941 189.022 94.4121 189.786C94.0398 190.55 93.4619 191.138 92.6782 191.549C91.9043 191.961 90.9149 192.167 89.71 192.167H86.6831ZM87.9174 191.138H89.6806C90.6798 191.138 91.4733 190.976 92.0611 190.653C92.6488 190.32 93.07 189.85 93.3247 189.243C93.5794 188.625 93.7068 187.896 93.7068 187.053C93.7068 186.191 93.5794 185.452 93.3247 184.834C93.07 184.217 92.6488 183.742 92.0611 183.409C91.4733 183.076 90.6798 182.909 89.6806 182.909H87.9174V191.138ZM99.1358 192.343C98.5383 192.343 98.0387 192.24 97.637 192.034C97.2354 191.819 96.9366 191.54 96.7407 191.197C96.5448 190.844 96.4468 190.462 96.4468 190.051C96.4468 189.551 96.5742 189.13 96.8289 188.787C97.0934 188.434 97.4607 188.17 97.9309 187.994C98.4109 187.807 98.9742 187.714 99.6207 187.714H101.575C101.575 187.254 101.502 186.872 101.355 186.568C101.217 186.255 101.012 186.02 100.737 185.863C100.473 185.706 100.14 185.628 99.7383 185.628C99.2681 185.628 98.8615 185.745 98.5187 185.981C98.1758 186.216 97.9652 186.563 97.8868 187.024H96.6232C96.6819 186.495 96.8583 186.054 97.1521 185.701C97.4558 185.339 97.8379 185.065 98.2983 184.878C98.7587 184.683 99.2387 184.585 99.7383 184.585C100.424 184.585 100.992 184.712 101.443 184.967C101.903 185.212 102.246 185.559 102.471 186.01C102.697 186.451 102.809 186.975 102.809 187.582V192.167H101.707L101.634 190.859C101.536 191.065 101.408 191.261 101.252 191.447C101.105 191.623 100.928 191.78 100.723 191.917C100.517 192.044 100.282 192.147 100.017 192.225C99.7628 192.304 99.4689 192.343 99.1358 192.343ZM99.3268 191.3C99.6697 191.3 99.9783 191.231 100.253 191.094C100.537 190.947 100.777 190.751 100.973 190.506C101.168 190.252 101.315 189.972 101.413 189.669C101.521 189.365 101.575 189.047 101.575 188.714V188.669H99.7236C99.2436 188.669 98.8566 188.728 98.5628 188.846C98.2689 188.954 98.0583 189.11 97.9309 189.316C97.8036 189.512 97.7399 189.737 97.7399 189.992C97.7399 190.256 97.7987 190.487 97.9162 190.683C98.0436 190.878 98.2248 191.03 98.4599 191.138C98.7048 191.246 98.9938 191.3 99.3268 191.3ZM107.511 192.343C106.893 192.343 106.355 192.24 105.894 192.034C105.444 191.829 105.081 191.545 104.807 191.182C104.542 190.81 104.381 190.374 104.322 189.874H105.586C105.635 190.129 105.737 190.364 105.894 190.58C106.051 190.795 106.262 190.972 106.526 191.109C106.8 191.236 107.133 191.3 107.525 191.3C107.868 191.3 108.152 191.251 108.377 191.153C108.603 191.045 108.769 190.903 108.877 190.727C108.995 190.55 109.053 190.359 109.053 190.154C109.053 189.85 108.98 189.62 108.833 189.463C108.696 189.306 108.49 189.184 108.216 189.096C107.942 188.998 107.608 188.914 107.217 188.846C106.893 188.787 106.575 188.709 106.262 188.611C105.948 188.513 105.669 188.385 105.424 188.229C105.179 188.062 104.983 187.861 104.836 187.626C104.699 187.391 104.631 187.102 104.631 186.759C104.631 186.338 104.738 185.966 104.954 185.643C105.169 185.309 105.478 185.05 105.88 184.864C106.291 184.678 106.766 184.585 107.305 184.585C108.098 184.585 108.74 184.776 109.23 185.158C109.72 185.54 110.008 186.093 110.097 186.818H108.877C108.828 186.446 108.666 186.157 108.392 185.951C108.128 185.736 107.76 185.628 107.29 185.628C106.83 185.628 106.477 185.721 106.232 185.907C105.997 186.093 105.88 186.338 105.88 186.642C105.88 186.838 105.943 187.014 106.071 187.171C106.208 187.318 106.404 187.445 106.658 187.553C106.923 187.661 107.246 187.749 107.628 187.817C108.118 187.905 108.564 188.023 108.965 188.17C109.367 188.317 109.69 188.537 109.935 188.831C110.19 189.115 110.317 189.522 110.317 190.051C110.317 190.511 110.2 190.913 109.964 191.256C109.739 191.598 109.416 191.868 108.995 192.064C108.573 192.25 108.079 192.343 107.511 192.343ZM112.094 192.167V181.587H113.329V186.01C113.574 185.569 113.916 185.221 114.357 184.967C114.808 184.712 115.298 184.585 115.827 184.585C116.395 184.585 116.889 184.702 117.311 184.937C117.732 185.163 118.055 185.51 118.28 185.981C118.506 186.451 118.618 187.043 118.618 187.758V192.167H117.399V187.891C117.399 187.146 117.242 186.588 116.929 186.216C116.615 185.834 116.16 185.643 115.562 185.643C115.141 185.643 114.759 185.745 114.416 185.951C114.083 186.157 113.818 186.451 113.622 186.833C113.427 187.215 113.329 187.685 113.329 188.243V192.167H112.094ZM120.546 192.167V184.761H121.663L121.722 186.054C121.957 185.594 122.29 185.236 122.721 184.981C123.162 184.717 123.661 184.585 124.22 184.585C124.798 184.585 125.297 184.702 125.718 184.937C126.14 185.163 126.468 185.51 126.703 185.981C126.938 186.441 127.056 187.029 127.056 187.744V192.167H125.821V187.876C125.821 187.132 125.655 186.573 125.322 186.201C124.998 185.829 124.538 185.643 123.94 185.643C123.529 185.643 123.162 185.745 122.838 185.951C122.515 186.147 122.256 186.436 122.06 186.818C121.874 187.19 121.78 187.656 121.78 188.214V192.167H120.546ZM132.29 192.343C131.604 192.343 130.987 192.186 130.438 191.873C129.89 191.549 129.459 191.099 129.145 190.521C128.832 189.933 128.675 189.252 128.675 188.478C128.675 187.685 128.832 186.999 129.145 186.421C129.469 185.834 129.904 185.383 130.453 185.069C131.011 184.746 131.633 184.585 132.319 184.585C133.024 184.585 133.647 184.746 134.185 185.069C134.734 185.383 135.165 185.834 135.478 186.421C135.802 186.999 135.963 187.68 135.963 188.464C135.963 189.247 135.802 189.933 135.478 190.521C135.155 191.099 134.719 191.549 134.171 191.873C133.622 192.186 132.995 192.343 132.29 192.343ZM132.304 191.285C132.726 191.285 133.118 191.182 133.48 190.976C133.842 190.761 134.136 190.443 134.362 190.021C134.587 189.6 134.7 189.081 134.7 188.464C134.7 187.837 134.587 187.318 134.362 186.906C134.146 186.485 133.857 186.172 133.495 185.966C133.142 185.75 132.75 185.643 132.319 185.643C131.908 185.643 131.516 185.75 131.144 185.966C130.781 186.172 130.487 186.485 130.262 186.906C130.047 187.318 129.939 187.837 129.939 188.464C129.939 189.081 130.047 189.6 130.262 190.021C130.487 190.443 130.776 190.761 131.129 190.976C131.491 191.182 131.883 191.285 132.304 191.285ZM140.104 192.343C139.506 192.343 139.006 192.24 138.605 192.034C138.203 191.819 137.904 191.54 137.709 191.197C137.513 190.844 137.415 190.462 137.415 190.051C137.415 189.551 137.542 189.13 137.797 188.787C138.061 188.434 138.429 188.17 138.899 187.994C139.379 187.807 139.942 187.714 140.589 187.714H142.543C142.543 187.254 142.469 186.872 142.322 186.568C142.185 186.255 141.98 186.02 141.705 185.863C141.441 185.706 141.108 185.628 140.706 185.628C140.236 185.628 139.829 185.745 139.486 185.981C139.144 186.216 138.933 186.563 138.855 187.024H137.591C137.65 186.495 137.826 186.054 138.12 185.701C138.424 185.339 138.806 185.065 139.266 184.878C139.726 184.683 140.206 184.585 140.706 184.585C141.392 184.585 141.96 184.712 142.411 184.967C142.871 185.212 143.214 185.559 143.439 186.01C143.664 186.451 143.777 186.975 143.777 187.582V192.167H142.675L142.602 190.859C142.504 191.065 142.376 191.261 142.22 191.447C142.073 191.623 141.896 191.78 141.691 191.917C141.485 192.044 141.25 192.147 140.985 192.225C140.731 192.304 140.437 192.343 140.104 192.343ZM140.295 191.3C140.637 191.3 140.946 191.231 141.22 191.094C141.504 190.947 141.744 190.751 141.94 190.506C142.136 190.252 142.283 189.972 142.381 189.669C142.489 189.365 142.543 189.047 142.543 188.714V188.669H140.691C140.211 188.669 139.824 188.728 139.531 188.846C139.237 188.954 139.026 189.11 138.899 189.316C138.771 189.512 138.708 189.737 138.708 189.992C138.708 190.256 138.766 190.487 138.884 190.683C139.011 190.878 139.193 191.03 139.428 191.138C139.673 191.246 139.962 191.3 140.295 191.3ZM145.686 192.167V184.761H146.803L146.891 186.172C147.058 185.838 147.269 185.554 147.523 185.319C147.788 185.084 148.101 184.903 148.464 184.776C148.836 184.648 149.257 184.585 149.727 184.585V185.878H149.272C148.958 185.878 148.66 185.922 148.375 186.01C148.091 186.088 147.837 186.221 147.611 186.407C147.396 186.593 147.224 186.847 147.097 187.171C146.98 187.484 146.921 187.876 146.921 188.346V192.167H145.686ZM154.114 192.343C153.399 192.343 152.772 192.176 152.234 191.843C151.695 191.501 151.278 191.035 150.985 190.447C150.691 189.86 150.544 189.194 150.544 188.449C150.544 187.705 150.691 187.043 150.985 186.465C151.278 185.878 151.695 185.417 152.234 185.084C152.782 184.751 153.414 184.585 154.129 184.585C154.736 184.585 155.265 184.707 155.716 184.952C156.176 185.197 156.529 185.54 156.774 185.981V181.587H158.008V192.167H156.891L156.789 190.947C156.632 191.192 156.431 191.422 156.186 191.638C155.941 191.843 155.647 192.015 155.305 192.152C154.962 192.279 154.565 192.343 154.114 192.343ZM154.261 191.27C154.751 191.27 155.182 191.153 155.554 190.918C155.927 190.683 156.216 190.359 156.421 189.948C156.627 189.527 156.73 189.032 156.73 188.464C156.73 187.905 156.627 187.416 156.421 186.994C156.216 186.573 155.927 186.245 155.554 186.01C155.182 185.775 154.751 185.657 154.261 185.657C153.781 185.657 153.355 185.775 152.983 186.01C152.611 186.245 152.322 186.573 152.116 186.994C151.91 187.416 151.807 187.905 151.807 188.464C151.807 189.032 151.91 189.527 152.116 189.948C152.322 190.359 152.611 190.683 152.983 190.918C153.355 191.153 153.781 191.27 154.261 191.27Z" fill="#9F9F9F"/>
<path d="M55.2826 246.36C54.8359 246.36 54.4539 246.284 54.1365 246.131C53.8191 245.978 53.5723 245.773 53.3959 245.514C53.2196 245.25 53.1197 244.947 53.0962 244.606H54.2599C54.2952 244.812 54.401 244.988 54.5773 245.135C54.7595 245.276 54.9946 245.347 55.2826 245.347C55.4942 245.347 55.6764 245.297 55.8292 245.197C55.9821 245.097 56.0996 244.959 56.1819 244.782C56.2701 244.606 56.3141 244.406 56.3141 244.183C56.3141 243.954 56.2701 243.757 56.1819 243.592C56.0996 243.422 55.9821 243.292 55.8292 243.204C55.6823 243.116 55.5089 243.072 55.3091 243.072C55.074 243.072 54.8712 243.122 54.7007 243.222C54.5362 243.322 54.4098 243.436 54.3216 243.566H53.1579L53.6163 240.083H57.1429V241.124H54.5068L54.2864 242.543C54.4157 242.408 54.5861 242.302 54.7977 242.226C55.0093 242.143 55.2503 242.102 55.5207 242.102C55.8498 242.102 56.1349 242.158 56.3758 242.27C56.6168 242.381 56.8167 242.537 56.9754 242.737C57.1399 242.931 57.2604 243.151 57.3368 243.398C57.4191 243.645 57.4603 243.901 57.4603 244.165C57.4603 244.488 57.4044 244.785 57.2927 245.056C57.1869 245.32 57.0371 245.549 56.8431 245.743C56.6492 245.937 56.4199 246.09 56.1554 246.202C55.8909 246.308 55.6 246.36 55.2826 246.36ZM60.9608 246.36C60.4259 246.36 59.9674 246.225 59.5854 245.955C59.2034 245.685 58.9065 245.311 58.695 244.835C58.4892 244.353 58.3864 243.798 58.3864 243.169C58.3864 242.54 58.4892 241.988 58.695 241.511C58.9065 241.029 59.2034 240.653 59.5854 240.383C59.9674 240.113 60.4259 239.977 60.9608 239.977C61.4956 239.977 61.9511 240.113 62.3273 240.383C62.7093 240.653 63.0032 241.029 63.2089 241.511C63.4146 241.988 63.5175 242.54 63.5175 243.169C63.5175 243.798 63.4146 244.353 63.2089 244.835C63.0032 245.311 62.7093 245.685 62.3273 245.955C61.9511 246.225 61.4956 246.36 60.9608 246.36ZM60.9608 245.294C61.2252 245.294 61.4574 245.208 61.6572 245.038C61.863 244.862 62.0216 244.615 62.1333 244.297C62.2509 243.98 62.3096 243.604 62.3096 243.169C62.3096 242.728 62.2509 242.352 62.1333 242.04C62.0216 241.723 61.863 241.479 61.6572 241.309C61.4574 241.138 61.2252 241.053 60.9608 241.053C60.6904 241.053 60.4523 241.138 60.2466 241.309C60.0409 241.479 59.8822 241.723 59.7705 242.04C59.6589 242.352 59.603 242.728 59.603 243.169C59.603 243.604 59.6589 243.98 59.7705 244.297C59.8822 244.615 60.0409 244.862 60.2466 245.038C60.4523 245.208 60.6904 245.294 60.9608 245.294ZM66.9359 246.36C66.401 246.36 65.9426 246.225 65.5605 245.955C65.1785 245.685 64.8817 245.311 64.6701 244.835C64.4644 244.353 64.3615 243.798 64.3615 243.169C64.3615 242.54 64.4644 241.988 64.6701 241.511C64.8817 241.029 65.1785 240.653 65.5605 240.383C65.9426 240.113 66.401 239.977 66.9359 239.977C67.4707 239.977 67.9262 240.113 68.3024 240.383C68.6844 240.653 68.9783 241.029 69.184 241.511C69.3898 241.988 69.4926 242.54 69.4926 243.169C69.4926 243.798 69.3898 244.353 69.184 244.835C68.9783 245.311 68.6844 245.685 68.3024 245.955C67.9262 246.225 67.4707 246.36 66.9359 246.36ZM66.9359 245.294C67.2004 245.294 67.4325 245.208 67.6324 245.038C67.8381 244.862 67.9968 244.615 68.1084 244.297C68.226 243.98 68.2848 243.604 68.2848 243.169C68.2848 242.728 68.226 242.352 68.1084 242.04C67.9968 241.723 67.8381 241.479 67.6324 241.309C67.4325 241.138 67.2004 241.053 66.9359 241.053C66.6655 241.053 66.4275 241.138 66.2218 241.309C66.016 241.479 65.8573 241.723 65.7457 242.04C65.634 242.352 65.5782 242.728 65.5782 243.169C65.5782 243.604 65.634 243.98 65.7457 244.297C65.8573 244.615 66.016 244.862 66.2218 245.038C66.4275 245.208 66.6655 245.294 66.9359 245.294Z" fill="white" fill-opacity="0.5"/>
<path opacity="0.5" d="M55.1768 282.789C54.7772 282.789 54.4098 282.716 54.0748 282.569C53.7398 282.422 53.4723 282.199 53.2725 281.899C53.0727 281.599 52.9669 281.22 52.9551 280.762H54.1189C54.1247 280.955 54.1688 281.132 54.2511 281.29C54.3334 281.443 54.4539 281.567 54.6126 281.661C54.7713 281.749 54.9594 281.793 55.1768 281.793C55.3825 281.793 55.5589 281.752 55.7058 281.67C55.8527 281.587 55.9644 281.479 56.0408 281.343C56.1172 281.208 56.1554 281.052 56.1554 280.876C56.1554 280.676 56.1025 280.512 55.9967 280.382C55.8968 280.247 55.7558 280.147 55.5736 280.083C55.3972 280.012 55.1945 279.977 54.9652 279.977H54.5068V278.998H54.9652C55.2709 278.998 55.5236 278.928 55.7234 278.787C55.9292 278.646 56.032 278.434 56.032 278.152C56.032 277.929 55.9556 277.749 55.8028 277.614C55.65 277.479 55.4384 277.411 55.168 277.411C54.8683 277.411 54.6332 277.494 54.4627 277.658C54.2981 277.823 54.207 278.026 54.1894 278.266H53.0256C53.0433 277.879 53.1432 277.546 53.3254 277.27C53.5076 276.988 53.7574 276.774 54.0748 276.627C54.3922 276.48 54.7566 276.406 55.168 276.406C55.6088 276.406 55.9791 276.483 56.2789 276.635C56.5845 276.788 56.8167 276.991 56.9754 277.244C57.1341 277.491 57.2134 277.764 57.2134 278.064C57.2134 278.305 57.1634 278.522 57.0635 278.716C56.9695 278.91 56.8431 279.072 56.6844 279.201C56.5257 279.324 56.3494 279.416 56.1554 279.474C56.3847 279.515 56.5845 279.604 56.7549 279.739C56.9313 279.868 57.0694 280.033 57.1693 280.233C57.2692 280.432 57.3192 280.662 57.3192 280.92C57.3192 281.255 57.2369 281.567 57.0723 281.855C56.9078 282.137 56.6668 282.363 56.3494 282.534C56.032 282.704 55.6412 282.789 55.1768 282.789ZM60.9177 282.789C60.3828 282.789 59.9244 282.654 59.5424 282.384C59.1603 282.113 58.8635 281.74 58.6519 281.264C58.4462 280.782 58.3433 280.227 58.3433 279.598C58.3433 278.969 58.4462 278.416 58.6519 277.94C58.8635 277.458 59.1603 277.082 59.5424 276.812C59.9244 276.541 60.3828 276.406 60.9177 276.406C61.4526 276.406 61.9081 276.541 62.2842 276.812C62.6663 277.082 62.9602 277.458 63.1659 277.94C63.3716 278.416 63.4744 278.969 63.4744 279.598C63.4744 280.227 63.3716 280.782 63.1659 281.264C62.9602 281.74 62.6663 282.113 62.2842 282.384C61.9081 282.654 61.4526 282.789 60.9177 282.789ZM60.9177 281.722C61.1822 281.722 61.4144 281.637 61.6142 281.467C61.8199 281.29 61.9786 281.044 62.0903 280.726C62.2078 280.409 62.2666 280.033 62.2666 279.598C62.2666 279.157 62.2078 278.781 62.0903 278.469C61.9786 278.152 61.8199 277.908 61.6142 277.738C61.4144 277.567 61.1822 277.482 60.9177 277.482C60.6473 277.482 60.4093 277.567 60.2036 277.738C59.9979 277.908 59.8392 278.152 59.7275 278.469C59.6158 278.781 59.56 279.157 59.56 279.598C59.56 280.033 59.6158 280.409 59.7275 280.726C59.8392 281.044 59.9979 281.29 60.2036 281.467C60.4093 281.637 60.6473 281.722 60.9177 281.722ZM66.8928 282.789C66.358 282.789 65.8995 282.654 65.5175 282.384C65.1354 282.113 64.8386 281.74 64.627 281.264C64.4213 280.782 64.3185 280.227 64.3185 279.598C64.3185 278.969 64.4213 278.416 64.627 277.94C64.8386 277.458 65.1354 277.082 65.5175 276.812C65.8995 276.541 66.358 276.406 66.8928 276.406C67.4277 276.406 67.8832 276.541 68.2594 276.812C68.6414 277.082 68.9353 277.458 69.141 277.94C69.3467 278.416 69.4496 278.969 69.4496 279.598C69.4496 280.227 69.3467 280.782 69.141 281.264C68.9353 281.74 68.6414 282.113 68.2594 282.384C67.8832 282.654 67.4277 282.789 66.8928 282.789ZM66.8928 281.722C67.1573 281.722 67.3895 281.637 67.5893 281.467C67.795 281.29 67.9537 281.044 68.0654 280.726C68.183 280.409 68.2417 280.033 68.2417 279.598C68.2417 279.157 68.183 278.781 68.0654 278.469C67.9537 278.152 67.795 277.908 67.5893 277.738C67.3895 277.567 67.1573 277.482 66.8928 277.482C66.6225 277.482 66.3844 277.567 66.1787 277.738C65.973 277.908 65.8143 278.152 65.7026 278.469C65.591 278.781 65.5351 279.157 65.5351 279.598C65.5351 280.033 65.591 280.409 65.7026 280.726C65.8143 281.044 65.973 281.29 66.1787 281.467C66.3844 281.637 66.6225 281.722 66.8928 281.722Z" fill="white"/>
<path opacity="0.5" d="M69.3486 320.085C68.8138 320.085 68.3553 319.95 67.9733 319.68C67.5912 319.409 67.2944 319.036 67.0828 318.56C66.8771 318.078 66.7743 317.523 66.7743 316.894C66.7743 316.265 66.8771 315.712 67.0828 315.236C67.2944 314.754 67.5912 314.378 67.9733 314.108C68.3553 313.837 68.8138 313.702 69.3486 313.702C69.8835 313.702 70.339 313.837 70.7152 314.108C71.0972 314.378 71.3911 314.754 71.5968 315.236C71.8025 315.712 71.9054 316.265 71.9054 316.894C71.9054 317.523 71.8025 318.078 71.5968 318.56C71.3911 319.036 71.0972 319.409 70.7152 319.68C70.339 319.95 69.8835 320.085 69.3486 320.085ZM69.3486 319.018C69.6131 319.018 69.8453 318.933 70.0451 318.763C70.2508 318.586 70.4095 318.34 70.5212 318.022C70.6387 317.705 70.6975 317.329 70.6975 316.894C70.6975 316.453 70.6387 316.077 70.5212 315.765C70.4095 315.448 70.2508 315.204 70.0451 315.033C69.8453 314.863 69.6131 314.778 69.3486 314.778C69.0783 314.778 68.8402 314.863 68.6345 315.033C68.4288 315.204 68.2701 315.448 68.1584 315.765C68.0467 316.077 67.9909 316.453 67.9909 316.894C67.9909 317.329 68.0467 317.705 68.1584 318.022C68.2701 318.34 68.4288 318.586 68.6345 318.763C68.8402 318.933 69.0783 319.018 69.3486 319.018Z" fill="white"/>
<line x1="85.4375" y1="244.56" x2="207.733" y2="244.56" stroke="#D8D8D8" stroke-opacity="0.4" stroke-width="0.734694" stroke-dasharray="1.47 1.47"/>
<line x1="85.4375" y1="280.989" x2="207.733" y2="280.989" stroke="#D8D8D8" stroke-opacity="0.4" stroke-width="0.734694" stroke-dasharray="1.47 1.47"/>
<line x1="85.4375" y1="318.285" x2="207.733" y2="318.285" stroke="#D8D8D8" stroke-opacity="0.4" stroke-width="0.734694" stroke-dasharray="1.47 1.47"/>
<rect x="94.1069" y="290.03" width="26.0204" height="32.0918" rx="3.67347" fill="#BADFDF"/>
<rect x="132.272" y="272.683" width="26.0204" height="49.4388" rx="3.67347" fill="#DCD4EF"/>
<rect x="170.438" y="236.254" width="26.0204" height="85.8673" rx="3.67347" fill="#E4833D"/>
<path d="M99.8324 314.775V310.771L98.745 311.153V310.293L100.244 309.632H100.854V314.775H99.8324ZM103.744 314.863C103.371 314.863 103.053 314.8 102.789 314.672C102.524 314.545 102.318 314.373 102.171 314.158C102.024 313.937 101.941 313.685 101.922 313.401H102.891C102.921 313.573 103.009 313.72 103.156 313.842C103.308 313.96 103.504 314.018 103.744 314.018C103.92 314.018 104.072 313.977 104.199 313.893C104.327 313.81 104.424 313.695 104.493 313.548C104.567 313.401 104.603 313.235 104.603 313.048C104.603 312.857 104.567 312.693 104.493 312.556C104.424 312.414 104.327 312.306 104.199 312.233C104.077 312.16 103.932 312.123 103.766 312.123C103.57 312.123 103.401 312.164 103.259 312.248C103.122 312.331 103.016 312.426 102.943 312.534H101.973L102.355 309.632H105.294V310.499H103.097L102.913 311.682C103.021 311.569 103.163 311.481 103.34 311.417C103.516 311.349 103.717 311.315 103.942 311.315C104.216 311.315 104.454 311.361 104.655 311.454C104.856 311.547 105.022 311.677 105.154 311.844C105.291 312.005 105.392 312.189 105.456 312.395C105.524 312.6 105.558 312.813 105.558 313.034C105.558 313.303 105.512 313.551 105.419 313.776C105.331 313.996 105.206 314.187 105.044 314.349C104.882 314.511 104.691 314.638 104.471 314.731C104.251 314.819 104.008 314.863 103.744 314.863ZM107.513 314.775L110.393 309.632H111.363L108.475 314.775H107.513ZM111.297 314.863C111.062 314.863 110.846 314.812 110.65 314.709C110.459 314.601 110.305 314.449 110.187 314.253C110.075 314.053 110.018 313.817 110.018 313.548C110.018 313.274 110.075 313.039 110.187 312.843C110.305 312.647 110.459 312.497 110.65 312.395C110.846 312.287 111.062 312.233 111.297 312.233C111.542 312.233 111.757 312.287 111.943 312.395C112.134 312.497 112.286 312.647 112.399 312.843C112.511 313.039 112.568 313.274 112.568 313.548C112.568 313.817 112.511 314.053 112.399 314.253C112.286 314.449 112.134 314.601 111.943 314.709C111.752 314.812 111.537 314.863 111.297 314.863ZM111.289 314.18C111.387 314.18 111.473 314.155 111.546 314.106C111.625 314.057 111.686 313.986 111.73 313.893C111.774 313.8 111.796 313.685 111.796 313.548C111.796 313.406 111.774 313.288 111.73 313.195C111.686 313.097 111.625 313.024 111.546 312.975C111.473 312.926 111.39 312.902 111.297 312.902C111.204 312.902 111.118 312.926 111.04 312.975C110.966 313.024 110.907 313.097 110.863 313.195C110.819 313.288 110.797 313.406 110.797 313.548C110.797 313.685 110.819 313.8 110.863 313.893C110.907 313.986 110.966 314.057 111.04 314.106C111.113 314.155 111.196 314.18 111.289 314.18ZM107.609 312.182C107.369 312.182 107.151 312.128 106.955 312.02C106.764 311.912 106.612 311.76 106.499 311.564C106.386 311.368 106.33 311.136 106.33 310.866C106.33 310.587 106.386 310.352 106.499 310.161C106.617 309.965 106.771 309.813 106.962 309.706C107.158 309.598 107.376 309.544 107.616 309.544C107.856 309.544 108.069 309.598 108.255 309.706C108.446 309.813 108.598 309.965 108.711 310.161C108.823 310.352 108.88 310.587 108.88 310.866C108.88 311.136 108.823 311.368 108.711 311.564C108.598 311.76 108.446 311.912 108.255 312.02C108.064 312.128 107.849 312.182 107.609 312.182ZM107.609 311.498C107.702 311.498 107.785 311.474 107.858 311.425C107.937 311.376 107.995 311.305 108.035 311.212C108.079 311.119 108.101 311.004 108.101 310.866C108.101 310.72 108.079 310.6 108.035 310.506C107.995 310.413 107.937 310.342 107.858 310.293C107.785 310.244 107.702 310.22 107.609 310.22C107.515 310.22 107.43 310.244 107.351 310.293C107.273 310.342 107.212 310.416 107.168 310.514C107.129 310.607 107.109 310.724 107.109 310.866C107.109 311.004 107.129 311.119 107.168 311.212C107.212 311.305 107.273 311.376 107.351 311.425C107.43 311.474 107.515 311.498 107.609 311.498Z" fill="black"/>
<path d="M137.011 314.775V314.048C137.334 313.798 137.648 313.548 137.951 313.298C138.255 313.048 138.527 312.801 138.767 312.556C139.007 312.306 139.198 312.064 139.34 311.829C139.482 311.594 139.553 311.366 139.553 311.146C139.553 311.008 139.526 310.884 139.472 310.771C139.418 310.653 139.335 310.56 139.222 310.492C139.11 310.418 138.963 310.382 138.782 310.382C138.605 310.382 138.456 310.421 138.333 310.499C138.216 310.577 138.125 310.683 138.062 310.815C138.003 310.942 137.973 311.087 137.973 311.248H137.018C137.028 310.871 137.111 310.555 137.268 310.301C137.43 310.046 137.645 309.857 137.915 309.735C138.184 309.608 138.483 309.544 138.811 309.544C139.183 309.544 139.497 309.613 139.751 309.75C140.006 309.882 140.202 310.063 140.339 310.293C140.476 310.524 140.545 310.788 140.545 311.087C140.545 311.312 140.501 311.533 140.413 311.748C140.324 311.964 140.207 312.174 140.06 312.38C139.913 312.581 139.747 312.774 139.56 312.96C139.379 313.146 139.186 313.325 138.98 313.497C138.779 313.663 138.581 313.82 138.385 313.967H140.662V314.775H137.011ZM142.358 314.775V310.771L141.27 311.153V310.293L142.769 309.632H143.379V314.775H142.358ZM145.461 314.775L148.341 309.632H149.31L146.423 314.775H145.461ZM149.244 314.863C149.009 314.863 148.794 314.812 148.598 314.709C148.407 314.601 148.253 314.449 148.135 314.253C148.022 314.053 147.966 313.817 147.966 313.548C147.966 313.274 148.022 313.039 148.135 312.843C148.253 312.647 148.407 312.497 148.598 312.395C148.794 312.287 149.009 312.233 149.244 312.233C149.489 312.233 149.705 312.287 149.891 312.395C150.082 312.497 150.234 312.647 150.346 312.843C150.459 313.039 150.515 313.274 150.515 313.548C150.515 313.817 150.459 314.053 150.346 314.253C150.234 314.449 150.082 314.601 149.891 314.709C149.7 314.812 149.484 314.863 149.244 314.863ZM149.237 314.18C149.335 314.18 149.421 314.155 149.494 314.106C149.573 314.057 149.634 313.986 149.678 313.893C149.722 313.8 149.744 313.685 149.744 313.548C149.744 313.406 149.722 313.288 149.678 313.195C149.634 313.097 149.573 313.024 149.494 312.975C149.421 312.926 149.337 312.902 149.244 312.902C149.151 312.902 149.066 312.926 148.987 312.975C148.914 313.024 148.855 313.097 148.811 313.195C148.767 313.288 148.745 313.406 148.745 313.548C148.745 313.685 148.767 313.8 148.811 313.893C148.855 313.986 148.914 314.057 148.987 314.106C149.061 314.155 149.144 314.18 149.237 314.18ZM145.556 312.182C145.316 312.182 145.098 312.128 144.902 312.02C144.711 311.912 144.559 311.76 144.447 311.564C144.334 311.368 144.278 311.136 144.278 310.866C144.278 310.587 144.334 310.352 144.447 310.161C144.564 309.965 144.719 309.813 144.91 309.706C145.106 309.598 145.324 309.544 145.564 309.544C145.804 309.544 146.017 309.598 146.203 309.706C146.394 309.813 146.546 309.965 146.658 310.161C146.771 310.352 146.827 310.587 146.827 310.866C146.827 311.136 146.771 311.368 146.658 311.564C146.546 311.76 146.394 311.912 146.203 312.02C146.012 312.128 145.796 312.182 145.556 312.182ZM145.556 311.498C145.649 311.498 145.733 311.474 145.806 311.425C145.884 311.376 145.943 311.305 145.982 311.212C146.026 311.119 146.048 311.004 146.048 310.866C146.048 310.72 146.026 310.6 145.982 310.506C145.943 310.413 145.884 310.342 145.806 310.293C145.733 310.244 145.649 310.22 145.556 310.22C145.463 310.22 145.377 310.244 145.299 310.293C145.221 310.342 145.159 310.416 145.115 310.514C145.076 310.607 145.057 310.724 145.057 310.866C145.057 311.004 145.076 311.119 145.115 311.212C145.159 311.305 145.221 311.376 145.299 311.425C145.377 311.474 145.463 311.498 145.556 311.498Z" fill="black"/>
<path d="M177.101 314.863C176.759 314.863 176.448 314.8 176.168 314.672C175.889 314.545 175.666 314.366 175.5 314.136C175.333 313.906 175.25 313.639 175.25 313.335C175.25 313.124 175.284 312.933 175.353 312.762C175.421 312.591 175.517 312.439 175.639 312.306C175.762 312.174 175.909 312.074 176.08 312.005C175.87 311.902 175.698 311.755 175.566 311.564C175.439 311.373 175.375 311.158 175.375 310.918C175.375 310.678 175.439 310.453 175.566 310.242C175.698 310.031 175.892 309.862 176.146 309.735C176.406 309.608 176.724 309.544 177.101 309.544C177.479 309.544 177.792 309.608 178.042 309.735C178.297 309.862 178.488 310.031 178.615 310.242C178.747 310.453 178.813 310.678 178.813 310.918C178.813 311.153 178.75 311.368 178.622 311.564C178.495 311.755 178.326 311.902 178.115 312.005C178.287 312.079 178.434 312.182 178.556 312.314C178.679 312.441 178.774 312.591 178.843 312.762C178.911 312.933 178.946 313.124 178.946 313.335C178.946 313.639 178.862 313.906 178.696 314.136C178.534 314.366 178.314 314.545 178.035 314.672C177.755 314.8 177.444 314.863 177.101 314.863ZM177.101 314.033C177.386 314.033 177.601 313.96 177.748 313.813C177.895 313.666 177.968 313.48 177.968 313.254C177.968 313.004 177.89 312.808 177.733 312.666C177.581 312.52 177.371 312.446 177.101 312.446C176.827 312.446 176.612 312.52 176.455 312.666C176.298 312.808 176.22 313.004 176.22 313.254C176.22 313.48 176.293 313.666 176.44 313.813C176.592 313.96 176.812 314.033 177.101 314.033ZM177.101 311.719C177.332 311.719 177.513 311.655 177.645 311.528C177.777 311.4 177.843 311.236 177.843 311.035C177.843 310.82 177.777 310.653 177.645 310.536C177.518 310.413 177.337 310.352 177.101 310.352C176.866 310.352 176.683 310.413 176.55 310.536C176.423 310.653 176.359 310.822 176.359 311.043C176.359 311.239 176.423 311.4 176.55 311.528C176.683 311.655 176.866 311.719 177.101 311.719ZM181.92 314.863C181.474 314.863 181.092 314.751 180.774 314.525C180.455 314.3 180.208 313.989 180.031 313.592C179.86 313.191 179.774 312.728 179.774 312.204C179.774 311.68 179.86 311.219 180.031 310.822C180.208 310.421 180.455 310.107 180.774 309.882C181.092 309.657 181.474 309.544 181.92 309.544C182.365 309.544 182.745 309.657 183.058 309.882C183.377 310.107 183.622 310.421 183.793 310.822C183.965 311.219 184.05 311.68 184.05 312.204C184.05 312.728 183.965 313.191 183.793 313.592C183.622 313.989 183.377 314.3 183.058 314.525C182.745 314.751 182.365 314.863 181.92 314.863ZM181.92 313.974C182.14 313.974 182.334 313.903 182.5 313.761C182.671 313.614 182.804 313.408 182.897 313.144C182.995 312.88 183.044 312.566 183.044 312.204C183.044 311.836 182.995 311.523 182.897 311.263C182.804 310.999 182.671 310.795 182.5 310.653C182.334 310.511 182.14 310.44 181.92 310.44C181.694 310.44 181.496 310.511 181.325 310.653C181.153 310.795 181.021 310.999 180.928 311.263C180.835 311.523 180.788 311.836 180.788 312.204C180.788 312.566 180.835 312.88 180.928 313.144C181.021 313.408 181.153 313.614 181.325 313.761C181.496 313.903 181.694 313.974 181.92 313.974ZM185.936 314.775L188.816 309.632H189.786L186.899 314.775H185.936ZM189.72 314.863C189.485 314.863 189.27 314.812 189.074 314.709C188.883 314.601 188.728 314.449 188.611 314.253C188.498 314.053 188.442 313.817 188.442 313.548C188.442 313.274 188.498 313.039 188.611 312.843C188.728 312.647 188.883 312.497 189.074 312.395C189.27 312.287 189.485 312.233 189.72 312.233C189.965 312.233 190.181 312.287 190.367 312.395C190.558 312.497 190.71 312.647 190.822 312.843C190.935 313.039 190.991 313.274 190.991 313.548C190.991 313.817 190.935 314.053 190.822 314.253C190.71 314.449 190.558 314.601 190.367 314.709C190.176 314.812 189.96 314.863 189.72 314.863ZM189.713 314.18C189.811 314.18 189.896 314.155 189.97 314.106C190.048 314.057 190.11 313.986 190.154 313.893C190.198 313.8 190.22 313.685 190.22 313.548C190.22 313.406 190.198 313.288 190.154 313.195C190.11 313.097 190.048 313.024 189.97 312.975C189.896 312.926 189.813 312.902 189.72 312.902C189.627 312.902 189.541 312.926 189.463 312.975C189.39 313.024 189.331 313.097 189.287 313.195C189.243 313.288 189.221 313.406 189.221 313.548C189.221 313.685 189.243 313.8 189.287 313.893C189.331 313.986 189.39 314.057 189.463 314.106C189.536 314.155 189.62 314.18 189.713 314.18ZM186.032 312.182C185.792 312.182 185.574 312.128 185.378 312.02C185.187 311.912 185.035 311.76 184.923 311.564C184.81 311.368 184.754 311.136 184.754 310.866C184.754 310.587 184.81 310.352 184.923 310.161C185.04 309.965 185.194 309.813 185.385 309.706C185.581 309.598 185.799 309.544 186.039 309.544C186.279 309.544 186.492 309.598 186.679 309.706C186.87 309.813 187.021 309.965 187.134 310.161C187.247 310.352 187.303 310.587 187.303 310.866C187.303 311.136 187.247 311.368 187.134 311.564C187.021 311.76 186.87 311.912 186.679 312.02C186.487 312.128 186.272 312.182 186.032 312.182ZM186.032 311.498C186.125 311.498 186.208 311.474 186.282 311.425C186.36 311.376 186.419 311.305 186.458 311.212C186.502 311.119 186.524 311.004 186.524 310.866C186.524 310.72 186.502 310.6 186.458 310.506C186.419 310.413 186.36 310.342 186.282 310.293C186.208 310.244 186.125 310.22 186.032 310.22C185.939 310.22 185.853 310.244 185.775 310.293C185.696 310.342 185.635 310.416 185.591 310.514C185.552 310.607 185.532 310.724 185.532 310.866C185.532 311.004 185.552 311.119 185.591 311.212C185.635 311.305 185.696 311.376 185.775 311.425C185.853 311.474 185.939 311.498 186.032 311.498Z" fill="white"/>
<g clip-path="url(#clip0_431_12599)">
<path d="M278.672 280.206H358.328C364.66 280.206 369.794 285.359 369.794 291.718V367.282C369.794 373.641 364.66 378.794 358.328 378.794H278.672C272.34 378.794 267.206 373.641 267.206 367.282V291.718C267.206 285.359 272.34 280.206 278.672 280.206Z" fill="#0B051E" stroke="url(#paint6_linear_431_12599)" stroke-width="0.411704"/>
<path d="M327.019 317.621C327.766 312.758 324.445 308.21 319.602 307.46C314.759 306.711 310.227 310.045 309.481 314.907C308.735 319.769 312.056 324.318 316.899 325.068C321.742 325.817 326.273 322.483 327.019 317.621Z" fill="#BBBBBB"/>
<path d="M325.78 324.039C323.829 325.943 321.173 327.115 318.241 327.115C315.31 327.115 312.653 325.943 310.702 324.039C306.514 326.496 303.692 330.933 303.692 336.012V343.879H332.779V336.012C332.779 330.933 329.969 326.496 325.769 324.039H325.78Z" fill="#4F31B4"/>
<path d="M353.697 331.948C358.052 329.693 359.762 324.321 357.516 319.949C355.27 315.576 349.919 313.86 345.564 316.115C341.208 318.369 339.498 323.742 341.744 328.114C343.99 332.486 349.342 334.203 353.697 331.948Z" fill="#BBBBBB"/>
<path d="M357.17 331.807C355.22 333.71 352.563 334.883 349.631 334.883C346.7 334.883 344.043 333.71 342.092 331.807C337.904 334.263 335.083 338.701 335.083 343.78V351.647H364.169V343.78C364.169 338.701 361.359 334.263 357.159 331.807H357.17Z" fill="#4F31B4"/>
<path d="M296.013 326.062C297.136 321.274 294.179 316.478 289.409 315.352C284.639 314.225 279.862 317.193 278.74 321.982C277.617 326.771 280.574 331.566 285.344 332.693C290.114 333.82 294.891 330.851 296.013 326.062Z" fill="#BBBBBB"/>
<path d="M294.908 331.807C292.957 333.71 290.301 334.883 287.369 334.883C284.437 334.883 281.781 333.71 279.83 331.807C275.641 334.263 272.82 338.701 272.82 343.78V351.647H301.907V343.78C301.907 338.701 299.096 334.263 294.897 331.807H294.908Z" fill="#4F31B4"/>
</g>
<rect x="346.235" y="158.165" width="97.5308" height="98.6704" rx="11.0251" fill="#0B051E" stroke="url(#paint7_linear_431_12599)" stroke-width="0.469151"/>
<path d="M419.889 172.744H371.245C369.264 172.744 367.648 174.356 367.648 176.331V228.2C367.648 228.422 367.738 228.644 367.9 228.798L381.14 242.004C381.302 242.166 381.519 242.255 381.739 242.255H419.889C421.87 242.255 423.486 240.643 423.486 238.668V176.331C423.486 174.355 421.87 172.744 419.889 172.744ZM380.888 239.364L370.556 229.049H379C380.046 229.049 380.897 229.898 380.897 230.941V239.364L380.888 239.364ZM421.78 238.668C421.78 239.711 420.929 240.56 419.883 240.56L382.594 240.563V230.935C382.594 228.959 380.978 227.347 378.997 227.347H369.354V176.322C369.354 175.28 370.205 174.43 371.251 174.43H419.898C420.943 174.43 421.794 175.28 421.794 176.322V238.668L421.78 238.668ZM378.635 217.72H381.363C382.742 217.72 383.862 216.602 383.862 215.227V204.798C383.862 203.423 382.742 202.306 381.363 202.306H378.635C377.257 202.306 376.136 203.423 376.136 204.798V215.227C376.145 216.602 377.263 217.72 378.635 217.72ZM377.842 204.807C377.842 204.371 378.198 204.01 378.641 204.01H381.369C381.806 204.01 382.168 204.365 382.168 204.807V215.236C382.168 215.672 381.812 216.033 381.369 216.033H378.641C378.204 216.033 377.842 215.678 377.842 215.236V204.807ZM389.014 193.576C387.635 193.576 386.515 194.694 386.515 196.069V215.229C386.515 216.604 387.635 217.722 389.014 217.722H391.742C393.12 217.722 394.241 216.604 394.241 215.229V196.066C394.241 194.691 393.12 193.573 391.742 193.573L389.014 193.576ZM392.544 196.066V215.226C392.544 215.662 392.188 216.023 391.745 216.023H389.017C388.579 216.023 388.218 215.668 388.218 215.226L388.212 196.066C388.212 195.63 388.568 195.269 389.011 195.269H391.739C392.188 195.275 392.544 195.63 392.544 196.066ZM399.393 198.819C398.014 198.819 396.893 199.937 396.893 201.312V215.229C396.893 216.604 398.014 217.722 399.393 217.722H402.12C403.499 217.722 404.62 216.604 404.62 215.229V201.309C404.62 199.934 403.499 198.816 402.12 198.816L399.393 198.819ZM402.923 201.309V215.226C402.923 215.662 402.566 216.023 402.123 216.023H399.395C398.958 216.023 398.596 215.668 398.596 215.226L398.59 201.309C398.59 200.873 398.947 200.512 399.39 200.512H402.118C402.558 200.518 402.923 200.873 402.923 201.309ZM409.763 190.078C408.384 190.078 407.263 191.196 407.263 192.571V215.229C407.263 216.604 408.384 217.722 409.763 217.722H412.49C413.869 217.722 414.99 216.604 414.99 215.229V192.568C414.99 191.193 413.869 190.075 412.49 190.075L409.763 190.078ZM413.293 192.568V215.226C413.293 215.662 412.936 216.023 412.493 216.023H409.765C409.328 216.023 408.966 215.668 408.966 215.226L408.963 192.568C408.963 192.132 409.319 191.77 409.763 191.77H412.49C412.936 191.776 413.293 192.132 413.293 192.568ZM415.517 229.019C415.517 229.484 415.138 229.868 414.666 229.868H389.243C388.777 229.868 388.392 229.49 388.392 229.019C388.392 228.545 388.771 228.17 389.243 228.17H414.663C415.132 228.167 415.517 228.551 415.517 229.019ZM415.517 222.895C415.517 223.36 415.138 223.745 414.666 223.745H376.47C376.004 223.745 375.619 223.366 375.619 222.895C375.619 222.422 375.998 222.046 376.47 222.046H414.664C415.133 222.052 415.517 222.43 415.517 222.895Z" fill="#D5D5D5" stroke="#0B051E" stroke-width="0.239302"/>
<defs>
<linearGradient id="paint0_linear_431_12599" x1="361.55" y1="196" x2="361.55" y2="373.1" gradientUnits="userSpaceOnUse">
<stop stop-color="#332075"/>
<stop offset="1" stop-color="#828282"/>
</linearGradient>
<linearGradient id="paint1_linear_431_12599" x1="129.55" y1="8" x2="129.55" y2="185.1" gradientUnits="userSpaceOnUse">
<stop stop-color="#332075"/>
<stop offset="1" stop-color="#828282"/>
</linearGradient>
<linearGradient id="paint2_linear_431_12599" x1="234.49" y1="40" x2="234.49" y2="376.98" gradientUnits="userSpaceOnUse">
<stop offset="0.0625" stop-color="#4F31B4"/>
<stop offset="1" stop-color="#22154E"/>
</linearGradient>
<linearGradient id="paint3_linear_431_12599" x1="156.5" y1="35" x2="156.5" y2="125.951" gradientUnits="userSpaceOnUse">
<stop offset="0.0625" stop-color="#4F31B4"/>
<stop offset="1" stop-color="#22154E"/>
</linearGradient>
<linearGradient id="paint4_linear_431_12599" x1="345.22" y1="31.449" x2="331.481" y2="129.797" gradientUnits="userSpaceOnUse">
<stop stop-color="#3C17BF"/>
<stop offset="1" stop-color="#8C8C8C" stop-opacity="0.04"/>
</linearGradient>
<linearGradient id="paint5_linear_431_12599" x1="130.105" y1="166" x2="130.105" y2="336" gradientUnits="userSpaceOnUse">
<stop stop-color="#332075"/>
<stop offset="1" stop-color="#828282"/>
</linearGradient>
<linearGradient id="paint6_linear_431_12599" x1="318.5" y1="280" x2="318.5" y2="379" gradientUnits="userSpaceOnUse">
<stop offset="0.0625" stop-color="#4F31B4"/>
<stop offset="1" stop-color="#22154E"/>
</linearGradient>
<linearGradient id="paint7_linear_431_12599" x1="395" y1="157.93" x2="395" y2="257.07" gradientUnits="userSpaceOnUse">
<stop offset="0.0625" stop-color="#4F31B4"/>
<stop offset="1" stop-color="#22154E"/>
</linearGradient>
<clipPath id="clip0_431_12599">
<rect width="103" height="99" fill="white" transform="translate(267 280)"/>
</clipPath>
</defs>
</svg>
