<svg width="391" height="341" viewBox="0 0 391 341" fill="none" xmlns="http://www.w3.org/2000/svg">
<path d="M187.38 33.002H168.562C168.284 33.002 168.058 33.2277 168.058 33.506C168.058 33.7842 168.284 34.01 168.562 34.01H187.38C187.658 34.01 187.884 33.7842 187.884 33.506C187.884 33.2279 187.658 33.002 187.38 33.002V33.002Z" fill="white"/>
<path d="M170.776 29.4C170.497 29.4 170.272 29.6257 170.272 29.904V30.8473H169.492C169.213 30.8473 168.988 31.0731 168.988 31.3514C168.988 31.6296 169.213 31.8554 169.492 31.8554H171.327C171.328 31.8554 171.329 31.8556 171.33 31.8556H173.622C173.623 31.8556 173.624 31.8554 173.626 31.8554H176.822C176.823 31.8554 176.824 31.8556 176.826 31.8556H179.12C179.121 31.8556 179.122 31.8554 179.124 31.8554H182.32C182.321 31.8554 182.322 31.8556 182.323 31.8556H184.616C184.617 31.8556 184.618 31.8554 184.619 31.8554H186.454C186.732 31.8554 186.958 31.6296 186.958 31.3514C186.958 31.0731 186.732 30.8473 186.454 30.8473H185.674V29.904C185.674 29.6257 185.448 29.4 185.17 29.4H185.12V23.4202H185.17C185.448 23.4202 185.674 23.1945 185.674 22.9162V21.9736H186.454C186.732 21.9736 186.958 21.7478 186.958 21.4696C186.958 21.1913 186.732 20.9655 186.454 20.9655H184.622C184.62 20.9655 184.618 20.9648 184.616 20.9648H182.324C182.321 20.9648 182.319 20.9655 182.317 20.9655H179.127C179.125 20.9655 179.123 20.9648 179.121 20.9648H176.826C176.824 20.9648 176.822 20.9655 176.82 20.9655H173.63C173.627 20.9655 173.625 20.9648 173.623 20.9648H171.331C171.329 20.9648 171.326 20.9655 171.325 20.9655H169.493C169.214 20.9655 168.989 21.1913 168.989 21.4696C168.989 21.7478 169.214 21.9736 169.493 21.9736H170.273V22.9162C170.273 23.1945 170.498 23.4202 170.777 23.4202H170.827V29.4H170.776ZM171.329 30.4094C171.608 30.4094 171.833 30.1825 171.833 29.9042L171.834 22.9163C171.834 22.638 171.608 22.4123 171.33 22.4123H171.28V21.9741H173.674V22.4123H173.622C173.344 22.4123 173.118 22.638 173.118 22.9163V29.9066C173.118 30.1849 173.344 30.4095 173.622 30.4095C173.625 30.4095 173.629 30.4085 173.632 30.4085H173.674V30.8464H171.28V30.4085H171.32C171.323 30.4083 171.326 30.4095 171.329 30.4095V30.4094ZM179.17 30.4082V30.8461H176.775V30.4082H176.812C176.817 30.4082 176.821 30.4096 176.826 30.4096C177.104 30.4096 177.33 30.1839 177.33 29.9056V22.9153C177.33 22.637 177.104 22.4113 176.826 22.4113C176.822 22.4113 176.819 22.4122 176.816 22.4122H176.776V21.9741H179.17V22.4122H179.13C179.126 22.4122 179.123 22.4113 179.12 22.4113C178.876 22.4113 178.673 22.5843 178.626 22.8145C178.619 22.8473 178.616 22.8813 178.616 22.9162V22.9179V29.9028V29.9044C178.616 29.9394 178.619 29.9734 178.626 30.0062C178.673 30.2364 178.876 30.4099 179.12 30.4099C179.124 30.4099 179.129 30.4085 179.133 30.4085L179.17 30.4082ZM182.271 22.4121V21.9739H184.665V22.4121H184.625C184.622 22.4121 184.619 22.4111 184.615 22.4111C184.337 22.4111 184.111 22.6369 184.111 22.9152V29.9055C184.111 30.1838 184.337 30.4095 184.615 30.4095C184.62 30.4095 184.624 30.4081 184.628 30.4081H184.665V30.846H182.271V30.4081H182.31C182.315 30.4081 182.319 30.4095 182.324 30.4095C182.602 30.4095 182.828 30.1838 182.828 29.9055V22.9152C182.828 22.6369 182.602 22.4111 182.324 22.4111C182.32 22.4111 182.317 22.4121 182.314 22.4121H182.271ZM181.767 23.4201H181.819V29.3999H181.767C181.488 29.3999 181.263 29.6256 181.263 29.9039V30.8473H180.178V29.9039C180.178 29.6256 179.952 29.3999 179.674 29.3999H179.624V23.4201H179.674C179.952 23.4201 180.178 23.1944 180.178 22.9161V21.9735H181.263V22.9161C181.263 23.1944 181.488 23.4201 181.767 23.4201ZM175.767 21.9735V22.9161C175.767 23.1944 175.993 23.4201 176.271 23.4201H176.321V29.3999H176.271C175.993 29.3999 175.767 29.6257 175.767 29.9039V30.8473L174.682 30.8475V29.9042C174.682 29.6259 174.457 29.4001 174.178 29.4001H174.126L174.126 23.4201H174.178C174.457 23.4201 174.682 23.1944 174.682 22.9161V21.9735L175.767 21.9735Z" fill="white"/>
<circle cx="187.19" cy="181.745" r="158.443" stroke="white" stroke-width="1.45567" stroke-linejoin="round" stroke-dasharray="9.83 9.83"/>
<g filter="url(#filter0_d_3023_5580)">
<rect x="2.97998" y="88.6016" width="147.594" height="179.472" rx="4.70099" fill="white"/>
</g>
<path d="M19.1402 105.477C19.1402 105.828 19.0576 106.159 18.8922 106.469C18.7269 106.78 18.4624 107.035 18.0986 107.233C17.7349 107.425 17.2686 107.521 16.6999 107.521H15.45V110.318H14.3191V103.424H16.6999C17.229 103.424 17.6754 103.516 18.0391 103.702C18.4095 103.88 18.6839 104.125 18.8625 104.436C19.0476 104.747 19.1402 105.094 19.1402 105.477ZM16.6999 106.598C17.1298 106.598 17.4505 106.502 17.6621 106.311C17.8738 106.112 17.9796 105.834 17.9796 105.477C17.9796 104.723 17.553 104.346 16.6999 104.346H15.45V106.598H16.6999ZM19.8418 107.561C19.8418 107.012 19.9543 106.526 20.1791 106.102C20.4106 105.679 20.7214 105.352 21.1116 105.12C21.5084 104.882 21.9449 104.763 22.4211 104.763C22.8509 104.763 23.2246 104.849 23.542 105.021C23.8661 105.186 24.124 105.395 24.3158 105.646V104.852H25.4566V110.318H24.3158V109.505C24.124 109.763 23.8628 109.978 23.5321 110.15C23.2015 110.322 22.8245 110.408 22.4012 110.408C21.9317 110.408 21.5018 110.289 21.1116 110.051C20.7214 109.806 20.4106 109.469 20.1791 109.039C19.9543 108.602 19.8418 108.109 19.8418 107.561ZM24.3158 107.58C24.3158 107.203 24.2365 106.876 24.0777 106.598C23.9256 106.321 23.7239 106.109 23.4726 105.963C23.2213 105.818 22.9501 105.745 22.6592 105.745C22.3682 105.745 22.097 105.818 21.8457 105.963C21.5944 106.102 21.3894 106.311 21.2307 106.588C21.0786 106.86 21.0025 107.184 21.0025 107.561C21.0025 107.938 21.0786 108.268 21.2307 108.553C21.3894 108.837 21.5944 109.055 21.8457 109.207C22.1036 109.353 22.3748 109.426 22.6592 109.426C22.9501 109.426 23.2213 109.353 23.4726 109.207C23.7239 109.062 23.9256 108.85 24.0777 108.572C24.2365 108.288 24.3158 107.957 24.3158 107.58ZM31.8624 104.852L28.5094 112.888H27.3388L28.4499 110.229L26.2972 104.852H27.557L29.0947 109.019L30.6918 104.852H31.8624ZM39.3325 104.763C39.7624 104.763 40.146 104.852 40.4832 105.031C40.8271 105.21 41.095 105.474 41.2868 105.825C41.4852 106.175 41.5844 106.598 41.5844 107.094V110.318H40.4634V107.263C40.4634 106.774 40.3411 106.4 40.0964 106.142C39.8517 105.877 39.5177 105.745 39.0944 105.745C38.6712 105.745 38.3339 105.877 38.0826 106.142C37.8379 106.4 37.7155 106.774 37.7155 107.263V110.318H36.5946V107.263C36.5946 106.774 36.4722 106.4 36.2275 106.142C35.9828 105.877 35.6488 105.745 35.2256 105.745C34.8023 105.745 34.465 105.877 34.2137 106.142C33.969 106.4 33.8467 106.774 33.8467 107.263V110.318H32.7158V104.852H33.8467V105.477C34.0319 105.252 34.2666 105.077 34.551 104.952C34.8354 104.826 35.1396 104.763 35.4637 104.763C35.9002 104.763 36.2903 104.856 36.6342 105.041C36.9781 105.226 37.2427 105.494 37.4278 105.844C37.5932 105.514 37.8511 105.252 38.2016 105.061C38.5521 104.862 38.9291 104.763 39.3325 104.763ZM48.0331 107.451C48.0331 107.656 48.0198 107.842 47.9934 108.007H43.817C43.8501 108.443 44.0121 108.794 44.3031 109.059C44.5941 109.323 44.9512 109.455 45.3745 109.455C45.9829 109.455 46.4128 109.201 46.6641 108.691H47.8842C47.7189 109.194 47.418 109.607 46.9815 109.931C46.5516 110.249 46.016 110.408 45.3745 110.408C44.852 110.408 44.3825 110.292 43.9658 110.06C43.5558 109.822 43.2317 109.492 42.9936 109.068C42.7622 108.639 42.6464 108.143 42.6464 107.58C42.6464 107.018 42.7589 106.526 42.9837 106.102C43.2152 105.672 43.5359 105.342 43.946 105.11C44.3626 104.879 44.8388 104.763 45.3745 104.763C45.8903 104.763 46.3499 104.876 46.7534 105.1C47.1568 105.325 47.4709 105.643 47.6958 106.053C47.9206 106.456 48.0331 106.922 48.0331 107.451ZM46.8526 107.094C46.8459 106.678 46.6971 106.344 46.4062 106.092C46.1152 105.841 45.7547 105.715 45.3249 105.715C44.9347 105.715 44.6007 105.841 44.3229 106.092C44.0452 106.337 43.8798 106.671 43.8269 107.094H46.8526ZM51.9037 104.763C52.3336 104.763 52.7172 104.852 53.0545 105.031C53.3984 105.21 53.6662 105.474 53.858 105.825C54.0498 106.175 54.1457 106.598 54.1457 107.094V110.318H53.0247V107.263C53.0247 106.774 52.9024 106.4 52.6577 106.142C52.413 105.877 52.079 105.745 51.6557 105.745C51.2325 105.745 50.8952 105.877 50.6439 106.142C50.3992 106.4 50.2768 106.774 50.2768 107.263V110.318H49.146V104.852H50.2768V105.477C50.462 105.252 50.6968 105.077 50.9812 104.952C51.2722 104.826 51.5797 104.763 51.9037 104.763ZM56.9076 105.775V108.801C56.9076 109.006 56.9539 109.154 57.0465 109.247C57.1457 109.333 57.311 109.376 57.5425 109.376H58.2369V110.318H57.3441C56.8348 110.318 56.4446 110.199 56.1735 109.961C55.9023 109.723 55.7668 109.336 55.7668 108.801V105.775H55.122V104.852H55.7668V103.493H56.9076V104.852H58.2369V105.775H56.9076ZM67.3617 103.424V110.318H66.2308V107.303H62.987V110.318H61.8561V103.424H62.987V106.38H66.2308V103.424H67.3617ZM69.4259 104.128C69.2209 104.128 69.0489 104.059 68.91 103.92C68.7712 103.781 68.7017 103.609 68.7017 103.404C68.7017 103.199 68.7712 103.027 68.91 102.888C69.0489 102.749 69.2209 102.68 69.4259 102.68C69.6243 102.68 69.7929 102.749 69.9318 102.888C70.0707 103.027 70.1401 103.199 70.1401 103.404C70.1401 103.609 70.0707 103.781 69.9318 103.92C69.7929 104.059 69.6243 104.128 69.4259 104.128ZM69.9814 104.852V110.318H68.8505V104.852H69.9814ZM73.4502 110.408C73.0203 110.408 72.6334 110.332 72.2895 110.179C71.9523 110.021 71.6844 109.809 71.486 109.545C71.2876 109.273 71.1818 108.973 71.1686 108.642H72.3391C72.359 108.873 72.4681 109.068 72.6665 109.227C72.8715 109.379 73.1261 109.455 73.4303 109.455C73.7478 109.455 73.9925 109.396 74.1644 109.277C74.343 109.151 74.4323 108.992 74.4323 108.801C74.4323 108.596 74.3331 108.443 74.1347 108.344C73.9429 108.245 73.6354 108.136 73.2121 108.017C72.8021 107.904 72.4681 107.795 72.2102 107.69C71.9523 107.584 71.7274 107.422 71.5356 107.203C71.3504 106.985 71.2578 106.698 71.2578 106.34C71.2578 106.049 71.3438 105.785 71.5158 105.547C71.6877 105.302 71.9324 105.11 72.2499 104.971C72.5739 104.833 72.9443 104.763 73.3609 104.763C73.9826 104.763 74.4819 104.922 74.8588 105.239C75.2424 105.55 75.4474 105.977 75.4739 106.519H74.343C74.3232 106.274 74.224 106.079 74.0454 105.934C73.8668 105.788 73.6254 105.715 73.3212 105.715C73.0236 105.715 72.7955 105.772 72.6367 105.884C72.478 105.997 72.3987 106.145 72.3987 106.33C72.3987 106.476 72.4516 106.598 72.5574 106.698C72.6632 106.797 72.7922 106.876 72.9443 106.936C73.0964 106.989 73.3212 107.058 73.6188 107.144C74.0156 107.25 74.3397 107.359 74.591 107.471C74.8489 107.577 75.0705 107.736 75.2556 107.947C75.4408 108.159 75.5367 108.44 75.5433 108.791C75.5433 109.101 75.4574 109.379 75.2854 109.624C75.1135 109.869 74.8688 110.06 74.5513 110.199C74.2405 110.338 73.8734 110.408 73.4502 110.408ZM78.0847 105.775V108.801C78.0847 109.006 78.1309 109.154 78.2235 109.247C78.3227 109.333 78.4881 109.376 78.7195 109.376H79.4139V110.318H78.5211C78.0119 110.318 77.6217 110.199 77.3506 109.961C77.0794 109.723 76.9438 109.336 76.9438 108.801V105.775H76.299V104.852H76.9438V103.493H78.0847V104.852H79.4139V105.775H78.0847ZM82.8272 110.408C82.3113 110.408 81.8451 110.292 81.4284 110.06C81.0118 109.822 80.6844 109.492 80.4463 109.068C80.2083 108.639 80.0892 108.143 80.0892 107.58C80.0892 107.025 80.2116 106.532 80.4563 106.102C80.701 105.672 81.0349 105.342 81.4582 105.11C81.8814 104.879 82.3543 104.763 82.8768 104.763C83.3992 104.763 83.8721 104.879 84.2953 105.11C84.7186 105.342 85.0526 105.672 85.2973 106.102C85.542 106.532 85.6643 107.025 85.6643 107.58C85.6643 108.136 85.5387 108.629 85.2873 109.059C85.036 109.488 84.6921 109.822 84.2557 110.06C83.8258 110.292 83.3496 110.408 82.8272 110.408ZM82.8272 109.426C83.1181 109.426 83.3893 109.356 83.6406 109.217C83.8985 109.078 84.1069 108.87 84.2656 108.592C84.4243 108.315 84.5037 107.977 84.5037 107.58C84.5037 107.184 84.4276 106.85 84.2755 106.578C84.1234 106.301 83.9217 106.092 83.6704 105.954C83.4191 105.815 83.1479 105.745 82.8569 105.745C82.5659 105.745 82.2948 105.815 82.0435 105.954C81.7988 106.092 81.6037 106.301 81.4582 106.578C81.3127 106.85 81.2399 107.184 81.2399 107.58C81.2399 108.169 81.3887 108.625 81.6863 108.949C81.9906 109.267 82.3708 109.426 82.8272 109.426ZM87.9131 105.646C88.0785 105.368 88.2967 105.153 88.5679 105.001C88.8456 104.842 89.173 104.763 89.55 104.763V105.934H89.2623C88.8192 105.934 88.4819 106.046 88.2504 106.271C88.0256 106.496 87.9131 106.886 87.9131 107.442V110.318H86.7822V104.852H87.9131V105.646ZM95.5098 104.852L92.1569 112.888H90.9863L92.0973 110.229L89.9447 104.852H91.2045L92.7421 109.019L94.3393 104.852H95.5098Z" fill="#515151"/>
<path d="M19.0596 124.072C15.9003 124.072 13.3628 126.61 13.3628 129.769C13.3628 132.928 15.9006 135.466 19.0596 135.466C22.219 135.466 24.7565 132.928 24.7565 129.769C24.7565 126.61 22.2187 124.072 19.0596 124.072ZM22.1671 127.18C22.2966 127.18 22.4257 127.232 22.5292 127.335C22.7364 127.543 22.7364 127.853 22.5292 128.06L18.386 132.203C18.2824 132.307 18.1793 132.359 18.0239 132.359C17.8685 132.359 17.7653 132.307 17.6618 132.203L15.5901 130.131C15.3829 129.924 15.3829 129.614 15.5901 129.407C15.7973 129.2 16.1072 129.2 16.3144 129.407L18.0239 131.116L21.805 127.335C21.9086 127.232 22.0377 127.18 22.1671 127.18V127.18Z" fill="#5801B7"/>
<path d="M19.0596 148.379C15.9003 148.379 13.3628 150.917 13.3628 154.076C13.3628 157.235 15.9006 159.773 19.0596 159.773C22.219 159.773 24.7565 157.235 24.7565 154.076C24.7565 150.916 22.2187 148.379 19.0596 148.379ZM22.1671 151.486C22.2966 151.486 22.4257 151.539 22.5292 151.642C22.7364 151.849 22.7364 152.159 22.5292 152.366L18.386 156.51C18.2824 156.613 18.1793 156.665 18.0239 156.665C17.8685 156.665 17.7653 156.613 17.6618 156.51L15.5901 154.438C15.3829 154.231 15.3829 153.921 15.5901 153.714C15.7973 153.507 16.1072 153.507 16.3144 153.714L18.0239 155.422L21.805 151.642C21.9086 151.539 22.0377 151.487 22.1671 151.487V151.486Z" fill="#5801B7"/>
<path d="M19.0596 172.684C15.9003 172.684 13.3628 175.221 13.3628 178.38C13.3628 181.54 15.9006 184.077 19.0596 184.077C22.219 184.077 24.7565 181.539 24.7565 178.38C24.7565 175.221 22.2187 172.684 19.0596 172.684ZM22.1671 175.791C22.2966 175.791 22.4257 175.843 22.5292 175.947C22.7364 176.154 22.7364 176.464 22.5292 176.671L18.386 180.814C18.2824 180.918 18.1793 180.97 18.0239 180.97C17.8685 180.97 17.7653 180.918 17.6618 180.814L15.5901 178.743C15.3829 178.536 15.3829 178.226 15.5901 178.018C15.7973 177.811 16.1072 177.811 16.3144 178.018L18.0239 179.727L21.805 175.947C21.9086 175.843 22.0377 175.791 22.1671 175.791V175.791Z" fill="#5801B7"/>
<path d="M19.0596 221.291C15.9003 221.291 13.3628 223.829 13.3628 226.988C13.3628 230.147 15.9006 232.685 19.0596 232.685C22.219 232.685 24.7565 230.147 24.7565 226.988C24.7565 223.829 22.2187 221.291 19.0596 221.291ZM22.1671 224.398C22.2966 224.398 22.4257 224.451 22.5292 224.554C22.7364 224.761 22.7364 225.071 22.5292 225.278L18.386 229.422C18.2824 229.525 18.1793 229.578 18.0239 229.578C17.8685 229.578 17.7653 229.525 17.6618 229.422L15.5901 227.35C15.3829 227.143 15.3829 226.833 15.5901 226.626C15.7973 226.419 16.1072 226.419 16.3144 226.626L18.0239 228.334L21.805 224.554C21.9086 224.451 22.0377 224.399 22.1671 224.399V224.398Z" fill="#5801B7"/>
<path d="M19.0596 196.982C15.9003 196.982 13.3628 199.52 13.3628 202.679C13.3628 205.839 15.9006 208.376 19.0596 208.376C22.219 208.376 24.7565 205.838 24.7565 202.679C24.7565 199.52 22.2187 196.982 19.0596 196.982ZM22.1671 200.09C22.2966 200.09 22.4257 200.142 22.5292 200.246C22.7364 200.453 22.7364 200.763 22.5292 200.97L18.386 205.113C18.2824 205.217 18.1793 205.269 18.0239 205.269C17.8685 205.269 17.7653 205.217 17.6618 205.113L15.5901 203.042C15.3829 202.834 15.3829 202.525 15.5901 202.317C15.7973 202.11 16.1072 202.11 16.3144 202.317L18.0239 204.026L21.805 200.246C21.9086 200.142 22.0377 200.09 22.1671 200.09V200.09Z" fill="#5801B7"/>
<rect x="36.9097" y="125.207" width="96.8465" height="7.9756" rx="3.9878" fill="#EDEDED"/>
<rect x="36.9097" y="198.119" width="99.1253" height="7.9756" rx="3.9878" fill="#EDEDED"/>
<rect x="36.9097" y="149.518" width="85.8326" height="7.9756" rx="3.9878" fill="#EDEDED"/>
<rect x="36.9019" y="222.426" width="89.2507" height="7.9756" rx="3.9878" fill="#EDEDED"/>
<rect x="36.9097" y="173.826" width="99.1253" height="7.9756" rx="3.9878" fill="#EDEDED"/>
<g filter="url(#filter1_d_3023_5580)">
<rect x="86.5737" y="154.096" width="177.316" height="83.0668" rx="7.02759" fill="white"/>
</g>
<rect x="97.9612" y="166.552" width="154.536" height="26.2084" rx="3.11655" stroke="#B0B0B0" stroke-width="0.415539"/>
<path d="M135.029 182.572H132.142L131.646 183.98H130.466L132.936 177.076H134.245L136.715 183.98H135.525L135.029 182.572ZM134.711 181.649L133.59 178.445L132.46 181.649H134.711ZM137.412 181.223C137.412 180.674 137.525 180.188 137.75 179.764C137.981 179.341 138.292 179.014 138.682 178.782C139.079 178.544 139.519 178.425 140.002 178.425C140.359 178.425 140.709 178.505 141.053 178.663C141.404 178.815 141.681 179.02 141.886 179.278V176.64H143.027V183.98H141.886V183.157C141.701 183.422 141.443 183.64 141.113 183.812C140.788 183.984 140.415 184.07 139.992 184.07C139.515 184.07 139.079 183.951 138.682 183.713C138.292 183.468 137.981 183.131 137.75 182.701C137.525 182.264 137.412 181.772 137.412 181.223ZM141.886 181.243C141.886 180.866 141.807 180.538 141.648 180.26C141.496 179.983 141.294 179.771 141.043 179.626C140.792 179.48 140.521 179.407 140.23 179.407C139.939 179.407 139.668 179.48 139.416 179.626C139.165 179.764 138.96 179.973 138.801 180.251C138.649 180.522 138.573 180.846 138.573 181.223C138.573 181.6 138.649 181.93 138.801 182.215C138.96 182.499 139.165 182.717 139.416 182.869C139.674 183.015 139.945 183.088 140.23 183.088C140.521 183.088 140.792 183.015 141.043 182.869C141.294 182.724 141.496 182.512 141.648 182.235C141.807 181.95 141.886 181.619 141.886 181.243ZM144.136 181.223C144.136 180.674 144.248 180.188 144.473 179.764C144.704 179.341 145.015 179.014 145.405 178.782C145.802 178.544 146.242 178.425 146.725 178.425C147.082 178.425 147.432 178.505 147.776 178.663C148.127 178.815 148.404 179.02 148.61 179.278V176.64H149.75V183.98H148.61V183.157C148.424 183.422 148.166 183.64 147.836 183.812C147.512 183.984 147.138 184.07 146.715 184.07C146.239 184.07 145.802 183.951 145.405 183.713C145.015 183.468 144.704 183.131 144.473 182.701C144.248 182.264 144.136 181.772 144.136 181.223ZM148.61 181.243C148.61 180.866 148.53 180.538 148.371 180.26C148.219 179.983 148.018 179.771 147.766 179.626C147.515 179.48 147.244 179.407 146.953 179.407C146.662 179.407 146.391 179.48 146.139 179.626C145.888 179.764 145.683 179.973 145.524 180.251C145.372 180.522 145.296 180.846 145.296 181.223C145.296 181.6 145.372 181.93 145.524 182.215C145.683 182.499 145.888 182.717 146.139 182.869C146.397 183.015 146.668 183.088 146.953 183.088C147.244 183.088 147.515 183.015 147.766 182.869C148.018 182.724 148.219 182.512 148.371 182.235C148.53 181.95 148.61 181.619 148.61 181.243ZM154.943 179.328C155.135 179.063 155.397 178.848 155.727 178.683C156.064 178.511 156.438 178.425 156.848 178.425C157.331 178.425 157.767 178.541 158.158 178.772C158.548 179.004 158.855 179.335 159.08 179.764C159.305 180.188 159.417 180.674 159.417 181.223C159.417 181.772 159.305 182.264 159.08 182.701C158.855 183.131 158.544 183.468 158.148 183.713C157.757 183.951 157.324 184.07 156.848 184.07C156.425 184.07 156.048 183.987 155.717 183.822C155.393 183.656 155.135 183.445 154.943 183.187V183.98H153.813V176.64H154.943V179.328ZM158.267 181.223C158.267 180.846 158.187 180.522 158.029 180.251C157.877 179.973 157.672 179.764 157.414 179.626C157.162 179.48 156.891 179.407 156.6 179.407C156.316 179.407 156.045 179.48 155.787 179.626C155.535 179.771 155.33 179.983 155.172 180.26C155.02 180.538 154.943 180.866 154.943 181.243C154.943 181.619 155.02 181.95 155.172 182.235C155.33 182.512 155.535 182.724 155.787 182.869C156.045 183.015 156.316 183.088 156.6 183.088C156.891 183.088 157.162 183.015 157.414 182.869C157.672 182.717 157.877 182.499 158.029 182.215C158.187 181.93 158.267 181.6 158.267 181.223ZM160.159 181.223C160.159 180.674 160.271 180.188 160.496 179.764C160.728 179.341 161.038 179.014 161.429 178.782C161.825 178.544 162.262 178.425 162.738 178.425C163.168 178.425 163.542 178.511 163.859 178.683C164.183 178.848 164.441 179.057 164.633 179.308V178.514H165.774V183.98H164.633V183.167C164.441 183.425 164.18 183.64 163.849 183.812C163.518 183.984 163.141 184.07 162.718 184.07C162.249 184.07 161.819 183.951 161.429 183.713C161.038 183.468 160.728 183.131 160.496 182.701C160.271 182.264 160.159 181.772 160.159 181.223ZM164.633 181.243C164.633 180.866 164.553 180.538 164.395 180.26C164.243 179.983 164.041 179.771 163.79 179.626C163.538 179.48 163.267 179.407 162.976 179.407C162.685 179.407 162.414 179.48 162.163 179.626C161.911 179.764 161.706 179.973 161.548 180.251C161.396 180.522 161.319 180.846 161.319 181.223C161.319 181.6 161.396 181.93 161.548 182.215C161.706 182.499 161.911 182.717 162.163 182.869C162.421 183.015 162.692 183.088 162.976 183.088C163.267 183.088 163.538 183.015 163.79 182.869C164.041 182.724 164.243 182.512 164.395 182.235C164.553 181.95 164.633 181.619 164.633 181.243ZM170.017 178.425C170.447 178.425 170.83 178.514 171.167 178.693C171.511 178.872 171.779 179.136 171.971 179.487C172.163 179.837 172.259 180.26 172.259 180.756V183.98H171.138V180.925C171.138 180.436 171.015 180.062 170.771 179.804C170.526 179.54 170.192 179.407 169.769 179.407C169.345 179.407 169.008 179.54 168.757 179.804C168.512 180.062 168.39 180.436 168.39 180.925V183.98H167.259V178.514H168.39V179.139C168.575 178.915 168.81 178.739 169.094 178.614C169.385 178.488 169.693 178.425 170.017 178.425ZM175.864 181.252L178.384 183.98H176.856L174.832 181.629V183.98H173.701V176.64H174.832V180.905L176.816 178.514H178.384L175.864 181.252ZM181.394 181.223C181.394 180.674 181.506 180.188 181.731 179.764C181.963 179.341 182.274 179.014 182.664 178.782C183.061 178.544 183.497 178.425 183.973 178.425C184.403 178.425 184.777 178.511 185.094 178.683C185.418 178.848 185.676 179.057 185.868 179.308V178.514H187.009V183.98H185.868V183.167C185.676 183.425 185.415 183.64 185.084 183.812C184.754 183.984 184.377 184.07 183.953 184.07C183.484 184.07 183.054 183.951 182.664 183.713C182.274 183.468 181.963 183.131 181.731 182.701C181.506 182.264 181.394 181.772 181.394 181.223ZM185.868 181.243C185.868 180.866 185.789 180.538 185.63 180.26C185.478 179.983 185.276 179.771 185.025 179.626C184.773 179.48 184.502 179.407 184.211 179.407C183.92 179.407 183.649 179.48 183.398 179.626C183.147 179.764 182.942 179.973 182.783 180.251C182.631 180.522 182.555 180.846 182.555 181.223C182.555 181.6 182.631 181.93 182.783 182.215C182.942 182.499 183.147 182.717 183.398 182.869C183.656 183.015 183.927 183.088 184.211 183.088C184.502 183.088 184.773 183.015 185.025 182.869C185.276 182.724 185.478 182.512 185.63 182.235C185.789 181.95 185.868 181.619 185.868 181.243ZM188.117 181.243C188.117 180.68 188.23 180.188 188.454 179.764C188.686 179.335 189.003 179.004 189.407 178.772C189.81 178.541 190.273 178.425 190.796 178.425C191.457 178.425 192.003 178.584 192.432 178.901C192.869 179.212 193.163 179.659 193.315 180.241H192.095C191.996 179.969 191.837 179.758 191.619 179.606C191.401 179.454 191.126 179.378 190.796 179.378C190.333 179.378 189.962 179.543 189.685 179.874C189.413 180.198 189.278 180.654 189.278 181.243C189.278 181.831 189.413 182.291 189.685 182.621C189.962 182.952 190.333 183.117 190.796 183.117C191.45 183.117 191.884 182.83 192.095 182.254H193.315C193.157 182.81 192.859 183.253 192.423 183.584C191.986 183.908 191.444 184.07 190.796 184.07C190.273 184.07 189.81 183.954 189.407 183.723C189.003 183.484 188.686 183.154 188.454 182.731C188.23 182.301 188.117 181.805 188.117 181.243ZM194.065 181.243C194.065 180.68 194.178 180.188 194.403 179.764C194.634 179.335 194.952 179.004 195.355 178.772C195.758 178.541 196.221 178.425 196.744 178.425C197.405 178.425 197.951 178.584 198.381 178.901C198.817 179.212 199.111 179.659 199.264 180.241H198.043C197.944 179.969 197.785 179.758 197.567 179.606C197.349 179.454 197.074 179.378 196.744 179.378C196.281 179.378 195.911 179.543 195.633 179.874C195.362 180.198 195.226 180.654 195.226 181.243C195.226 181.831 195.362 182.291 195.633 182.621C195.911 182.952 196.281 183.117 196.744 183.117C197.399 183.117 197.832 182.83 198.043 182.254H199.264C199.105 182.81 198.807 183.253 198.371 183.584C197.934 183.908 197.392 184.07 196.744 184.07C196.221 184.07 195.758 183.954 195.355 183.723C194.952 183.484 194.634 183.154 194.403 182.731C194.178 182.301 194.065 181.805 194.065 181.243ZM202.761 184.07C202.246 184.07 201.779 183.954 201.363 183.723C200.946 183.484 200.619 183.154 200.381 182.731C200.143 182.301 200.023 181.805 200.023 181.243C200.023 180.687 200.146 180.194 200.391 179.764C200.635 179.335 200.969 179.004 201.392 178.772C201.816 178.541 202.289 178.425 202.811 178.425C203.333 178.425 203.806 178.541 204.23 178.772C204.653 179.004 204.987 179.335 205.232 179.764C205.476 180.194 205.599 180.687 205.599 181.243C205.599 181.798 205.473 182.291 205.222 182.721C204.97 183.15 204.626 183.484 204.19 183.723C203.76 183.954 203.284 184.07 202.761 184.07ZM202.761 183.088C203.052 183.088 203.324 183.018 203.575 182.879C203.833 182.74 204.041 182.532 204.2 182.254C204.359 181.977 204.438 181.639 204.438 181.243C204.438 180.846 204.362 180.512 204.21 180.241C204.058 179.963 203.856 179.755 203.605 179.616C203.353 179.477 203.082 179.407 202.791 179.407C202.5 179.407 202.229 179.477 201.978 179.616C201.733 179.755 201.538 179.963 201.392 180.241C201.247 180.512 201.174 180.846 201.174 181.243C201.174 181.831 201.323 182.287 201.621 182.611C201.925 182.929 202.305 183.088 202.761 183.088ZM211.667 178.514V183.98H210.536V183.336C210.357 183.561 210.122 183.739 209.831 183.871C209.547 183.997 209.243 184.06 208.919 184.06C208.489 184.06 208.102 183.971 207.758 183.792C207.421 183.613 207.153 183.349 206.955 182.998C206.763 182.648 206.667 182.225 206.667 181.729V178.514H207.788V181.56C207.788 182.049 207.91 182.426 208.155 182.691C208.4 182.949 208.734 183.078 209.157 183.078C209.58 183.078 209.914 182.949 210.159 182.691C210.41 182.426 210.536 182.049 210.536 181.56V178.514H211.667ZM215.917 178.425C216.346 178.425 216.73 178.514 217.067 178.693C217.411 178.872 217.679 179.136 217.871 179.487C218.063 179.837 218.159 180.26 218.159 180.756V183.98H217.038V180.925C217.038 180.436 216.915 180.062 216.67 179.804C216.426 179.54 216.092 179.407 215.669 179.407C215.245 179.407 214.908 179.54 214.657 179.804C214.412 180.062 214.29 180.436 214.29 180.925V183.98H213.159V178.514H214.29V179.139C214.475 178.915 214.71 178.739 214.994 178.614C215.285 178.488 215.593 178.425 215.917 178.425ZM220.92 179.437V182.463C220.92 182.668 220.967 182.817 221.059 182.909C221.158 182.995 221.324 183.038 221.555 183.038H222.25V183.98H221.357C220.848 183.98 220.457 183.861 220.186 183.623C219.915 183.385 219.78 182.998 219.78 182.463V179.437H219.135V178.514H219.78V177.155H220.92V178.514H222.25V179.437H220.92Z" fill="#6F41D2"/>
<path d="M119.329 186.277H107.333C107.155 186.277 107.011 186.421 107.011 186.599C107.011 186.776 107.155 186.92 107.333 186.92H119.329C119.506 186.92 119.65 186.776 119.65 186.599C119.65 186.421 119.506 186.277 119.329 186.277V186.277Z" fill="#6F41D2"/>
<path d="M120.899 175.703C120.898 175.693 120.897 175.683 120.895 175.673C120.892 175.66 120.887 175.647 120.883 175.634C120.879 175.622 120.877 175.611 120.872 175.599C120.867 175.587 120.86 175.577 120.853 175.565C120.847 175.554 120.842 175.543 120.835 175.532C120.828 175.522 120.819 175.513 120.811 175.504C120.803 175.493 120.795 175.483 120.785 175.473C120.778 175.466 120.77 175.46 120.762 175.453C120.749 175.442 120.737 175.432 120.724 175.423C120.722 175.422 120.721 175.421 120.72 175.42L113.27 170.68C113.139 170.596 112.972 170.596 112.842 170.68L105.392 175.42C105.39 175.421 105.389 175.422 105.388 175.424C105.374 175.432 105.362 175.443 105.35 175.453C105.342 175.46 105.333 175.466 105.326 175.473C105.316 175.483 105.308 175.494 105.3 175.504C105.292 175.514 105.283 175.523 105.276 175.533C105.269 175.543 105.264 175.555 105.258 175.566C105.252 175.577 105.244 175.588 105.239 175.6C105.234 175.611 105.232 175.623 105.228 175.635C105.224 175.648 105.219 175.66 105.216 175.674C105.214 175.684 105.213 175.694 105.212 175.704C105.21 175.72 105.207 175.736 105.207 175.753C105.207 175.755 105.207 175.756 105.207 175.758C105.207 175.767 105.209 175.775 105.209 175.783C105.21 175.799 105.211 175.816 105.214 175.831C105.216 175.844 105.22 175.855 105.224 175.867C105.227 175.88 105.23 175.893 105.236 175.906C105.241 175.92 105.249 175.932 105.256 175.945C105.261 175.954 105.264 175.963 105.269 175.972C105.27 175.973 105.272 175.974 105.273 175.976C105.281 175.988 105.29 175.999 105.299 176.01C105.307 176.02 105.314 176.03 105.323 176.038C105.329 176.045 105.337 176.05 105.344 176.056C105.357 176.067 105.369 176.079 105.382 176.088C105.387 176.091 105.392 176.093 105.398 176.096C105.415 176.106 105.432 176.117 105.45 176.124C105.456 176.127 105.462 176.128 105.468 176.13C105.486 176.137 105.505 176.144 105.524 176.148C105.53 176.149 105.536 176.149 105.542 176.15C105.563 176.153 105.583 176.156 105.603 176.156C105.604 176.156 105.605 176.156 105.606 176.156H120.505C120.537 176.156 120.567 176.152 120.596 176.145C120.604 176.143 120.611 176.14 120.619 176.138C120.641 176.132 120.661 176.124 120.681 176.114C120.69 176.11 120.699 176.105 120.707 176.1C120.726 176.089 120.744 176.076 120.761 176.062C120.768 176.056 120.775 176.051 120.781 176.045C120.803 176.024 120.823 176.001 120.84 175.975C120.84 175.974 120.842 175.973 120.843 175.972C120.848 175.963 120.851 175.954 120.856 175.945C120.863 175.932 120.87 175.92 120.876 175.906C120.881 175.893 120.884 175.88 120.888 175.867C120.892 175.855 120.896 175.843 120.898 175.831C120.901 175.815 120.902 175.799 120.903 175.783C120.903 175.774 120.905 175.766 120.905 175.758C120.905 175.756 120.905 175.754 120.905 175.753C120.904 175.736 120.901 175.719 120.899 175.703L120.899 175.703ZM113.056 171.49L119.134 175.358H106.977L113.056 171.49Z" fill="#6F41D2"/>
<path d="M107.357 183.739C107.136 183.739 106.957 183.918 106.957 184.138V184.885H106.34C106.119 184.885 105.941 185.064 105.941 185.284C105.941 185.504 106.119 185.683 106.34 185.683H107.793L107.795 185.683H109.61L109.613 185.683H112.144L112.147 185.683H113.963L113.966 185.683H116.497L116.499 185.683H118.315L118.317 185.683H119.77C119.99 185.683 120.169 185.504 120.169 185.284C120.169 185.064 119.99 184.885 119.77 184.885H119.152V184.138C119.152 183.918 118.974 183.739 118.753 183.739H118.714V179.005H118.753C118.974 179.005 119.152 178.826 119.152 178.606V177.859H119.77C119.99 177.859 120.169 177.68 120.169 177.46C120.169 177.24 119.99 177.061 119.77 177.061H118.32C118.318 177.061 118.316 177.061 118.315 177.061H116.5C116.498 177.061 116.496 177.061 116.495 177.061H113.969C113.967 177.061 113.965 177.061 113.964 177.061H112.147C112.145 177.061 112.143 177.061 112.142 177.061H109.616C109.614 177.061 109.613 177.061 109.611 177.061H107.796C107.794 177.061 107.793 177.061 107.791 177.061H106.341C106.12 177.061 105.942 177.24 105.942 177.46C105.942 177.68 106.12 177.859 106.341 177.859H106.958V178.606C106.958 178.826 107.137 179.005 107.357 179.005H107.397V183.739H107.357ZM107.795 184.538C108.015 184.538 108.194 184.359 108.194 184.138L108.194 178.606C108.194 178.385 108.016 178.207 107.795 178.207H107.756V177.86H109.651V178.207H109.61C109.39 178.207 109.211 178.385 109.211 178.606V184.14C109.211 184.361 109.39 184.538 109.61 184.538C109.613 184.538 109.615 184.538 109.618 184.538H109.652V184.884H107.756V184.538H107.788C107.79 184.537 107.792 184.538 107.795 184.538ZM114.002 184.537V184.884H112.107V184.537H112.136C112.14 184.537 112.143 184.539 112.147 184.539C112.367 184.539 112.546 184.36 112.546 184.14V178.605C112.546 178.385 112.367 178.206 112.147 178.206C112.144 178.206 112.142 178.207 112.139 178.207H112.107V177.86H114.003V178.207H113.971C113.968 178.207 113.966 178.206 113.963 178.206C113.77 178.206 113.609 178.343 113.572 178.525C113.567 178.551 113.564 178.578 113.564 178.606V178.607V184.137V184.139C113.564 184.166 113.567 184.193 113.572 184.219C113.609 184.401 113.77 184.539 113.963 184.539C113.967 184.539 113.97 184.538 113.974 184.538L114.002 184.537ZM116.458 178.206V177.86H118.354V178.206H118.322C118.319 178.206 118.317 178.206 118.314 178.206C118.094 178.206 117.915 178.384 117.915 178.605V184.139C117.915 184.36 118.094 184.538 118.314 184.538C118.318 184.538 118.321 184.537 118.325 184.537H118.354V184.884H116.458V184.537H116.489C116.493 184.537 116.496 184.538 116.5 184.538C116.72 184.538 116.899 184.36 116.899 184.139V178.605C116.899 178.384 116.72 178.206 116.5 178.206C116.497 178.206 116.495 178.206 116.492 178.206H116.458ZM116.059 179.005H116.1V183.739H116.059C115.838 183.739 115.66 183.918 115.66 184.138V184.885H114.801V184.138C114.801 183.918 114.622 183.739 114.402 183.739H114.362V179.005H114.402C114.622 179.005 114.801 178.826 114.801 178.605V177.859H115.66V178.605C115.66 178.826 115.838 179.005 116.059 179.005ZM111.309 177.859V178.606C111.309 178.826 111.487 179.005 111.708 179.005H111.747V183.739H111.708C111.487 183.739 111.309 183.918 111.309 184.138V184.885L110.45 184.885V184.138C110.45 183.918 110.271 183.739 110.051 183.739H110.009L110.009 179.005H110.05C110.271 179.005 110.45 178.826 110.45 178.605V177.859L111.309 177.859Z" fill="#6F41D2"/>
<circle cx="118.756" cy="184.766" r="3.91662" fill="#F4EBF8"/>
<path d="M116.165 183.366C116.034 183.578 115.758 183.647 115.542 183.524C115.325 183.401 115.245 183.129 115.359 182.908C115.92 181.894 116.893 181.175 118.026 180.936C119.159 180.697 120.34 180.962 121.262 181.662C122.184 182.362 122.757 183.429 122.83 184.584C122.904 185.74 122.472 186.87 121.647 187.682C120.899 188.428 119.886 188.846 118.831 188.846C117.775 188.846 116.762 188.428 116.014 187.683C115.266 186.938 114.844 185.927 114.839 184.871C114.839 184.794 114.839 184.703 114.849 184.609C114.858 184.514 114.865 184.44 114.876 184.344V184.344C114.91 184.089 115.144 183.909 115.4 183.943C115.655 183.977 115.835 184.211 115.801 184.466C115.79 184.533 115.783 184.599 115.779 184.666V184.871C115.777 185.893 116.285 186.849 117.134 187.418C117.983 187.987 119.06 188.094 120.005 187.703C120.949 187.312 121.636 186.475 121.834 185.473C122.033 184.47 121.718 183.435 120.994 182.713C120.515 182.239 119.894 181.936 119.226 181.849C118.558 181.762 117.88 181.897 117.295 182.232C116.829 182.507 116.441 182.898 116.169 183.366L116.165 183.366Z" fill="#6F41D2"/>
<path d="M118.366 183.37C118.35 183.238 118.391 183.104 118.479 183.004C118.568 182.903 118.695 182.846 118.829 182.846C118.963 182.846 119.09 182.903 119.179 183.004C119.267 183.104 119.308 183.238 119.291 183.37V186.381C119.262 186.614 119.064 186.789 118.829 186.789C118.594 186.789 118.396 186.614 118.366 186.381L118.366 183.37Z" fill="#6F41D2"/>
<path d="M117.317 185.341C117.077 185.319 116.894 185.119 116.894 184.878C116.894 184.638 117.077 184.437 117.317 184.416H120.352C120.591 184.437 120.774 184.638 120.774 184.878C120.774 185.119 120.591 185.319 120.352 185.341H117.317Z" fill="#6F41D2"/>
<rect x="96.1987" y="207.158" width="131.086" height="5.77469" rx="2.88735" fill="#EDEDED"/>
<rect x="97.7534" y="222.26" width="61.2117" height="5.77469" rx="2.88735" fill="#7BD184"/>
<circle cx="336.944" cy="155.783" r="22.4566" fill="#4F31B4"/>
<circle cx="112.241" cy="316.586" r="22.4566" fill="#4F31B4"/>
<path d="M121.7 326.393H102.882C102.604 326.393 102.378 326.619 102.378 326.897C102.378 327.175 102.604 327.401 102.882 327.401H121.7C121.979 327.401 122.204 327.175 122.204 326.897C122.204 326.619 121.979 326.393 121.7 326.393V326.393Z" fill="white"/>
<path d="M122.198 312.65C122.197 312.638 122.196 312.625 122.194 312.613C122.19 312.596 122.183 312.579 122.178 312.563C122.173 312.548 122.17 312.533 122.164 312.519C122.158 312.504 122.149 312.49 122.141 312.476C122.133 312.462 122.126 312.447 122.117 312.434C122.109 312.422 122.097 312.41 122.087 312.398C122.077 312.385 122.066 312.372 122.055 312.359C122.045 312.35 122.035 312.343 122.024 312.334C122.009 312.321 121.994 312.308 121.977 312.296C121.975 312.295 121.974 312.294 121.972 312.292L112.563 306.306C112.398 306.2 112.187 306.2 112.022 306.306L102.612 312.293C102.611 312.294 102.609 312.296 102.607 312.297C102.59 312.308 102.575 312.322 102.559 312.335C102.549 312.343 102.538 312.351 102.529 312.36C102.517 312.372 102.507 312.386 102.496 312.399C102.486 312.411 102.475 312.422 102.466 312.435C102.458 312.448 102.451 312.463 102.443 312.477C102.435 312.491 102.426 312.505 102.42 312.52C102.414 312.534 102.41 312.549 102.406 312.564C102.4 312.58 102.394 312.596 102.39 312.613C102.388 312.625 102.387 312.639 102.385 312.651C102.383 312.672 102.379 312.692 102.379 312.713C102.379 312.715 102.378 312.717 102.378 312.719C102.378 312.73 102.381 312.74 102.382 312.751C102.383 312.771 102.384 312.792 102.388 312.812C102.391 312.828 102.396 312.842 102.4 312.857C102.405 312.873 102.409 312.89 102.415 312.907C102.422 312.924 102.432 312.94 102.441 312.956C102.447 312.967 102.451 312.979 102.458 312.989C102.459 312.992 102.461 312.993 102.462 312.995C102.472 313.01 102.484 313.023 102.496 313.038C102.505 313.05 102.514 313.062 102.525 313.073C102.534 313.082 102.543 313.088 102.552 313.096C102.568 313.11 102.583 313.125 102.6 313.136C102.607 313.14 102.613 313.143 102.62 313.146C102.641 313.159 102.663 313.173 102.686 313.182C102.693 313.185 102.701 313.187 102.709 313.19C102.732 313.198 102.755 313.207 102.779 313.211C102.787 313.213 102.795 313.213 102.803 313.215C102.828 313.219 102.853 313.222 102.879 313.222C102.88 313.222 102.882 313.223 102.883 313.223H121.701C121.74 313.223 121.778 313.217 121.815 313.208C121.825 313.206 121.835 313.202 121.845 313.199C121.872 313.191 121.898 313.181 121.923 313.169C121.934 313.163 121.945 313.158 121.956 313.151C121.98 313.137 122.002 313.121 122.023 313.103C122.032 313.096 122.041 313.09 122.049 313.082C122.077 313.056 122.102 313.026 122.123 312.994C122.124 312.992 122.126 312.991 122.127 312.989C122.134 312.978 122.138 312.967 122.144 312.956C122.152 312.94 122.162 312.924 122.169 312.906C122.175 312.89 122.18 312.873 122.184 312.857C122.189 312.842 122.194 312.827 122.197 312.812C122.2 312.792 122.202 312.771 122.203 312.751C122.203 312.74 122.206 312.73 122.206 312.719C122.206 312.717 122.205 312.715 122.205 312.713C122.204 312.692 122.201 312.671 122.198 312.65L122.198 312.65ZM112.292 307.329L119.969 312.214H104.614L112.292 307.329Z" fill="white"/>
<path d="M105.096 322.791C104.818 322.791 104.592 323.016 104.592 323.295V324.238H103.812C103.534 324.238 103.308 324.464 103.308 324.742C103.308 325.02 103.534 325.246 103.812 325.246H105.647C105.648 325.246 105.649 325.246 105.65 325.246H107.943C107.944 325.246 107.945 325.246 107.946 325.246H111.143C111.144 325.246 111.145 325.246 111.146 325.246H113.441C113.442 325.246 113.443 325.246 113.444 325.246H116.64C116.641 325.246 116.642 325.246 116.644 325.246H118.936C118.937 325.246 118.938 325.246 118.939 325.246H120.774C121.053 325.246 121.278 325.02 121.278 324.742C121.278 324.464 121.053 324.238 120.774 324.238H119.994V323.295C119.994 323.016 119.769 322.791 119.49 322.791H119.441V316.811H119.49C119.769 316.811 119.994 316.585 119.994 316.307V315.364H120.774C121.053 315.364 121.278 315.138 121.278 314.86C121.278 314.582 121.053 314.356 120.774 314.356H118.943C118.94 314.356 118.938 314.355 118.936 314.355H116.644C116.642 314.355 116.639 314.356 116.638 314.356H113.447C113.445 314.356 113.443 314.355 113.441 314.355H111.146C111.144 314.355 111.142 314.356 111.14 314.356H107.95C107.948 314.356 107.946 314.355 107.944 314.355H105.651C105.649 314.355 105.647 314.356 105.645 314.356H103.813C103.535 314.356 103.309 314.582 103.309 314.86C103.309 315.138 103.535 315.364 103.813 315.364H104.593V316.307C104.593 316.585 104.819 316.811 105.097 316.811H105.147V322.791H105.096ZM105.65 323.8C105.928 323.8 106.154 323.573 106.154 323.295L106.154 316.307C106.154 316.029 105.929 315.803 105.65 315.803H105.6V315.365H107.995V315.803H107.942C107.664 315.803 107.438 316.029 107.438 316.307V323.297C107.438 323.576 107.664 323.8 107.942 323.8C107.946 323.8 107.949 323.799 107.952 323.799H107.995V324.237H105.601V323.799H105.641C105.643 323.799 105.646 323.8 105.65 323.8ZM113.49 323.799V324.237H111.096V323.799H111.133C111.137 323.799 111.141 323.8 111.146 323.8C111.424 323.8 111.65 323.575 111.65 323.296V316.306C111.65 316.028 111.424 315.802 111.146 315.802C111.143 315.802 111.14 315.803 111.136 315.803H111.096V315.365H113.49V315.803H113.45C113.447 315.803 113.444 315.802 113.44 315.802C113.196 315.802 112.993 315.975 112.946 316.205C112.939 316.238 112.936 316.272 112.936 316.307V316.309V323.293V323.295C112.936 323.33 112.94 323.364 112.946 323.397C112.993 323.627 113.196 323.8 113.44 323.8C113.445 323.8 113.449 323.799 113.453 323.799L113.49 323.799ZM116.591 315.803V315.365H118.986V315.803H118.946C118.942 315.803 118.939 315.802 118.936 315.802C118.657 315.802 118.432 316.028 118.432 316.306V323.296C118.432 323.574 118.657 323.8 118.936 323.8C118.94 323.8 118.944 323.799 118.949 323.799H118.985V324.237H116.591V323.799H116.631C116.635 323.799 116.639 323.8 116.644 323.8C116.922 323.8 117.148 323.574 117.148 323.296V316.306C117.148 316.028 116.922 315.802 116.644 315.802C116.641 315.802 116.638 315.803 116.634 315.803H116.591ZM116.087 316.811H116.139V322.791H116.087C115.809 322.791 115.583 323.016 115.583 323.295V324.238H114.498V323.295C114.498 323.016 114.273 322.791 113.994 322.791H113.944V316.811H113.994C114.273 316.811 114.498 316.585 114.498 316.307V315.364H115.583V316.307C115.583 316.585 115.809 316.811 116.087 316.811ZM110.088 315.364V316.307C110.088 316.585 110.313 316.811 110.592 316.811H110.641V322.791H110.592C110.313 322.791 110.088 323.016 110.088 323.295V324.238L109.003 324.238V323.295C109.003 323.017 108.777 322.791 108.499 322.791H108.447L108.446 316.811H108.499C108.777 316.811 109.003 316.585 109.003 316.307V315.364L110.088 315.364Z" fill="white"/>
<circle cx="177.733" cy="23.191" r="22.4566" fill="#4F31B4"/>
<path d="M346.395 165.203H327.578C327.299 165.203 327.074 165.429 327.074 165.707C327.074 165.986 327.299 166.211 327.578 166.211H346.395C346.674 166.211 346.899 165.986 346.899 165.707C346.899 165.429 346.674 165.203 346.395 165.203V165.203Z" fill="white"/>
<path d="M346.894 151.461C346.892 151.448 346.891 151.435 346.889 151.423C346.885 151.406 346.879 151.39 346.873 151.373C346.869 151.359 346.865 151.344 346.859 151.33C346.853 151.315 346.844 151.301 346.836 151.287C346.828 151.273 346.822 151.258 346.813 151.245C346.804 151.232 346.793 151.221 346.783 151.209C346.772 151.195 346.762 151.182 346.75 151.17C346.741 151.161 346.73 151.153 346.72 151.145C346.704 151.131 346.689 151.118 346.672 151.107C346.67 151.106 346.669 151.104 346.667 151.103L337.258 145.116C337.093 145.011 336.882 145.011 336.717 145.116L327.307 151.104C327.306 151.104 327.304 151.106 327.302 151.108C327.285 151.119 327.27 151.132 327.254 151.145C327.244 151.154 327.233 151.161 327.224 151.171C327.212 151.182 327.202 151.196 327.192 151.209C327.182 151.221 327.171 151.233 327.162 151.246C327.153 151.259 327.146 151.273 327.138 151.287C327.131 151.302 327.121 151.315 327.115 151.33C327.109 151.345 327.106 151.359 327.101 151.374C327.096 151.39 327.089 151.407 327.085 151.424C327.083 151.436 327.082 151.449 327.081 151.462C327.078 151.482 327.075 151.503 327.074 151.524C327.074 151.526 327.074 151.528 327.074 151.53C327.074 151.541 327.076 151.551 327.077 151.562C327.078 151.582 327.079 151.603 327.083 151.623C327.086 151.638 327.091 151.653 327.095 151.668C327.1 151.684 327.104 151.701 327.111 151.717C327.118 151.735 327.127 151.75 327.136 151.767C327.142 151.778 327.146 151.789 327.153 151.8C327.154 151.802 327.156 151.803 327.157 151.805C327.168 151.821 327.18 151.834 327.191 151.848C327.201 151.86 327.21 151.873 327.22 151.884C327.229 151.892 327.239 151.899 327.248 151.907C327.263 151.921 327.279 151.935 327.296 151.947C327.302 151.951 327.308 151.953 327.315 151.957C327.337 151.97 327.358 151.983 327.381 151.993C327.388 151.996 327.396 151.997 327.404 152C327.427 152.009 327.45 152.017 327.475 152.022C327.482 152.024 327.49 152.024 327.498 152.025C327.523 152.029 327.549 152.033 327.574 152.033C327.576 152.033 327.577 152.033 327.579 152.033H346.396C346.436 152.033 346.474 152.027 346.511 152.019C346.521 152.017 346.53 152.013 346.54 152.01C346.567 152.002 346.593 151.992 346.618 151.98C346.63 151.974 346.64 151.968 346.651 151.962C346.675 151.947 346.697 151.932 346.719 151.914C346.727 151.907 346.736 151.9 346.745 151.893C346.772 151.866 346.797 151.837 346.818 151.804C346.819 151.803 346.821 151.802 346.822 151.8C346.829 151.789 346.833 151.778 346.839 151.767C346.848 151.75 346.857 151.734 346.864 151.717C346.871 151.701 346.875 151.684 346.88 151.667C346.884 151.653 346.889 151.638 346.892 151.623C346.896 151.602 346.897 151.582 346.898 151.561C346.899 151.551 346.901 151.54 346.901 151.53C346.901 151.527 346.901 151.526 346.901 151.523C346.899 151.502 346.896 151.481 346.893 151.461L346.894 151.461ZM336.987 146.139L344.665 151.025H329.31L336.987 146.139Z" fill="white"/>
<path d="M187.82 19.4237C187.818 19.4113 187.818 19.3981 187.815 19.386C187.811 19.3691 187.805 19.3527 187.8 19.3363C187.795 19.3217 187.792 19.3067 187.786 19.2927C187.779 19.2774 187.77 19.2638 187.762 19.2495C187.754 19.2357 187.748 19.2209 187.739 19.2078C187.73 19.1951 187.719 19.1836 187.709 19.1715C187.698 19.1583 187.688 19.145 187.676 19.1328C187.667 19.1236 187.656 19.1164 187.646 19.1075C187.631 19.0943 187.616 19.081 187.598 19.0697C187.597 19.0688 187.595 19.0671 187.593 19.0657L178.184 13.0789C178.019 12.9737 177.808 12.9737 177.643 13.0789L168.234 19.0665C168.232 19.0674 168.231 19.069 168.229 19.0704C168.211 19.0815 168.196 19.0951 168.181 19.1082C168.171 19.1166 168.16 19.1244 168.151 19.1335C168.138 19.1452 168.129 19.159 168.118 19.1722C168.108 19.1844 168.097 19.1956 168.088 19.2085C168.079 19.2216 168.072 19.2362 168.065 19.2502C168.057 19.2648 168.048 19.2784 168.041 19.2934C168.035 19.3074 168.032 19.3222 168.027 19.337C168.022 19.3534 168.015 19.3696 168.012 19.3867C168.009 19.3989 168.009 19.412 168.007 19.4244C168.004 19.4453 168.001 19.4657 168.001 19.4865C168.001 19.4887 168 19.4905 168 19.4926C168 19.5037 168.003 19.5137 168.003 19.5245C168.005 19.5449 168.006 19.5655 168.009 19.5857C168.012 19.6012 168.017 19.6157 168.022 19.6305C168.026 19.6469 168.03 19.6638 168.037 19.6799C168.044 19.6975 168.053 19.7132 168.062 19.7296C168.068 19.7407 168.072 19.7521 168.079 19.7629C168.081 19.765 168.082 19.7662 168.084 19.7683C168.094 19.7836 168.106 19.7969 168.117 19.811C168.127 19.8232 168.136 19.8358 168.147 19.8466C168.155 19.8551 168.165 19.8619 168.174 19.8698C168.19 19.8837 168.205 19.898 168.222 19.9094C168.228 19.9134 168.235 19.9162 168.241 19.9198C168.263 19.9329 168.284 19.946 168.307 19.9556C168.315 19.9587 168.323 19.9603 168.33 19.9631C168.354 19.9716 168.377 19.98 168.401 19.9849C168.409 19.9866 168.417 19.9866 168.424 19.988C168.45 19.992 168.475 19.9955 168.501 19.9957C168.502 19.9957 168.504 19.996 168.505 19.996H187.323C187.362 19.996 187.4 19.9903 187.437 19.9819C187.447 19.9795 187.456 19.9758 187.466 19.9727C187.493 19.9648 187.52 19.9549 187.544 19.9425C187.556 19.9369 187.567 19.931 187.578 19.9245C187.602 19.9104 187.624 19.8944 187.645 19.8766C187.654 19.8696 187.663 19.8633 187.671 19.8555C187.699 19.829 187.724 19.7995 187.745 19.7671C187.746 19.7655 187.747 19.7646 187.748 19.7627C187.755 19.7519 187.759 19.7404 187.765 19.7294C187.774 19.713 187.783 19.6971 187.791 19.6797C187.797 19.6635 187.801 19.6469 187.806 19.6302C187.811 19.6155 187.815 19.6007 187.818 19.5855C187.822 19.5651 187.823 19.5449 187.824 19.5243C187.825 19.5135 187.828 19.5032 187.828 19.4924C187.828 19.4903 187.827 19.4884 187.827 19.4863C187.826 19.465 187.822 19.4441 187.819 19.4237L187.82 19.4237ZM177.913 14.102L185.591 18.9874H170.236L177.913 14.102Z" fill="white"/>
<path d="M329.791 161.601C329.513 161.601 329.287 161.827 329.287 162.105V163.049H328.507C328.229 163.049 328.003 163.274 328.003 163.553C328.003 163.831 328.229 164.057 328.507 164.057H330.342C330.343 164.057 330.344 164.057 330.346 164.057H332.638C332.639 164.057 332.64 164.057 332.641 164.057H335.838C335.839 164.057 335.84 164.057 335.841 164.057H338.136C338.137 164.057 338.138 164.057 338.139 164.057H341.336C341.337 164.057 341.338 164.057 341.339 164.057H343.631C343.632 164.057 343.634 164.057 343.635 164.057H345.47C345.748 164.057 345.974 163.831 345.974 163.553C345.974 163.274 345.748 163.049 345.47 163.049H344.69V162.105C344.69 161.827 344.464 161.601 344.186 161.601H344.136V155.621H344.186C344.464 155.621 344.69 155.396 344.69 155.117V154.175H345.47C345.748 154.175 345.974 153.949 345.974 153.671C345.974 153.392 345.748 153.167 345.47 153.167H343.638C343.636 153.167 343.633 153.166 343.632 153.166H341.339C341.337 153.166 341.335 153.167 341.333 153.167H338.143C338.14 153.167 338.138 153.166 338.136 153.166H335.842C335.839 153.166 335.837 153.167 335.835 153.167H332.645C332.643 153.167 332.641 153.166 332.639 153.166H330.347C330.344 153.166 330.342 153.167 330.34 153.167H328.509C328.23 153.167 328.005 153.392 328.005 153.671C328.005 153.949 328.23 154.175 328.509 154.175H329.289V155.117C329.289 155.396 329.514 155.621 329.793 155.621H329.842V161.601H329.791ZM330.345 162.611C330.624 162.611 330.849 162.384 330.849 162.105L330.849 155.117C330.849 154.839 330.624 154.613 330.345 154.613H330.296V154.175H332.69V154.613H332.638C332.359 154.613 332.134 154.839 332.134 155.117V162.108C332.134 162.386 332.359 162.611 332.638 162.611C332.641 162.611 332.644 162.61 332.648 162.61H332.69V163.048H330.296V162.61H330.336C330.339 162.609 330.342 162.611 330.345 162.611V162.611ZM338.185 162.609V163.047H335.791V162.609H335.828C335.832 162.609 335.836 162.611 335.841 162.611C336.12 162.611 336.345 162.385 336.345 162.107V155.116C336.345 154.838 336.12 154.612 335.841 154.612C335.838 154.612 335.835 154.613 335.831 154.613H335.791V154.175H338.185V154.613H338.145C338.142 154.613 338.139 154.612 338.136 154.612C337.891 154.612 337.688 154.785 337.642 155.016C337.635 155.048 337.631 155.082 337.631 155.117V155.119V162.104V162.106C337.631 162.141 337.635 162.175 337.642 162.207C337.688 162.438 337.892 162.611 338.136 162.611C338.14 162.611 338.144 162.61 338.149 162.61L338.185 162.609ZM341.287 154.613V154.175H343.681V154.613H343.641C343.638 154.613 343.634 154.612 343.631 154.612C343.352 154.612 343.127 154.838 343.127 155.116V162.107C343.127 162.385 343.352 162.611 343.631 162.611C343.635 162.611 343.64 162.609 343.644 162.609H343.681V163.047H341.287V162.609H341.326C341.331 162.609 341.335 162.611 341.339 162.611C341.618 162.611 341.843 162.385 341.843 162.107V155.116C341.843 154.838 341.618 154.612 341.339 154.612C341.336 154.612 341.333 154.613 341.329 154.613H341.287ZM340.782 155.621H340.834V161.601H340.782C340.504 161.601 340.278 161.827 340.278 162.105V163.048H339.194V162.105C339.194 161.827 338.968 161.601 338.689 161.601H338.64V155.621H338.689C338.968 155.621 339.194 155.396 339.194 155.117V154.175H340.278V155.117C340.278 155.396 340.504 155.621 340.782 155.621ZM334.783 154.175V155.117C334.783 155.396 335.009 155.621 335.287 155.621H335.337V161.601H335.287C335.009 161.601 334.783 161.827 334.783 162.105V163.048L333.698 163.049V162.105C333.698 161.827 333.473 161.601 333.194 161.601H333.142L333.142 155.621H333.194C333.472 155.621 333.698 155.396 333.698 155.117V154.175L334.783 154.175Z" fill="white"/>
<path d="M187.02 32.5801H168.203C167.924 32.5801 167.699 32.8058 167.699 33.0841C167.699 33.3624 167.924 33.5881 168.203 33.5881H187.02C187.299 33.5881 187.524 33.3624 187.524 33.0841C187.524 32.8061 187.299 32.5801 187.02 32.5801V32.5801Z" fill="white"/>
<path d="M170.416 28.9781C170.138 28.9781 169.912 29.2039 169.912 29.4821V30.4255H169.132C168.854 30.4255 168.628 30.6512 168.628 30.9295C168.628 31.2077 168.854 31.4335 169.132 31.4335H170.967C170.968 31.4335 170.969 31.4337 170.971 31.4337H173.263C173.264 31.4337 173.265 31.4335 173.266 31.4335H176.463C176.464 31.4335 176.465 31.4337 176.466 31.4337H178.761C178.762 31.4337 178.763 31.4335 178.764 31.4335H181.961C181.962 31.4335 181.963 31.4337 181.964 31.4337H184.256C184.257 31.4337 184.259 31.4335 184.26 31.4335H186.095C186.373 31.4335 186.599 31.2077 186.599 30.9295C186.599 30.6512 186.373 30.4255 186.095 30.4255H185.315V29.4821C185.315 29.2039 185.089 28.9781 184.811 28.9781H184.761V22.9983H184.811C185.089 22.9983 185.315 22.7726 185.315 22.4943V21.5517H186.095C186.373 21.5517 186.599 21.3259 186.599 21.0477C186.599 20.7694 186.373 20.5437 186.095 20.5437H184.263C184.261 20.5437 184.258 20.543 184.257 20.543H181.964C181.962 20.543 181.96 20.5437 181.958 20.5437H178.768C178.765 20.5437 178.763 20.543 178.761 20.543H176.467C176.464 20.543 176.462 20.5437 176.46 20.5437H173.27C173.268 20.5437 173.266 20.543 173.264 20.543H170.972C170.969 20.543 170.967 20.5437 170.965 20.5437H169.134C168.855 20.5437 168.63 20.7694 168.63 21.0477C168.63 21.3259 168.855 21.5517 169.134 21.5517H169.914V22.4943C169.914 22.7726 170.139 22.9983 170.418 22.9983H170.467V28.9781H170.416ZM170.97 29.9875C171.249 29.9875 171.474 29.7606 171.474 29.4823L171.474 22.4944C171.474 22.2161 171.249 21.9904 170.97 21.9904H170.921V21.5523H173.315V21.9904H173.263C172.984 21.9904 172.759 22.2161 172.759 22.4944V29.4847C172.759 29.763 172.984 29.9876 173.263 29.9876C173.266 29.9876 173.269 29.9866 173.273 29.9866H173.315V30.4246H170.921V29.9866H170.961C170.964 29.9864 170.967 29.9876 170.97 29.9876V29.9875ZM178.81 29.9864V30.4243H176.416V29.9864H176.453C176.457 29.9864 176.461 29.9878 176.466 29.9878C176.745 29.9878 176.97 29.762 176.97 29.4837V22.4934C176.97 22.2152 176.745 21.9894 176.466 21.9894C176.463 21.9894 176.46 21.9903 176.456 21.9903H176.416V21.5522H178.81V21.9903H178.77C178.767 21.9903 178.764 21.9894 178.761 21.9894C178.516 21.9894 178.313 22.1624 178.267 22.3926C178.26 22.4254 178.256 22.4594 178.256 22.4944V22.496V29.4809V29.4826C178.256 29.5175 178.26 29.5515 178.267 29.5843C178.313 29.8145 178.517 29.988 178.761 29.988C178.765 29.988 178.769 29.9866 178.774 29.9866L178.81 29.9864ZM181.912 21.9902V21.5521H184.306V21.9902H184.266C184.263 21.9902 184.259 21.9893 184.256 21.9893C183.977 21.9893 183.752 22.215 183.752 22.4933V29.4836C183.752 29.7619 183.977 29.9876 184.256 29.9876C184.26 29.9876 184.265 29.9862 184.269 29.9862H184.306V30.4241H181.912V29.9862H181.951C181.956 29.9862 181.96 29.9876 181.964 29.9876C182.243 29.9876 182.468 29.7619 182.468 29.4836V22.4933C182.468 22.215 182.243 21.9893 181.964 21.9893C181.961 21.9893 181.958 21.9902 181.954 21.9902H181.912ZM181.407 22.9982H181.459V28.978H181.407C181.129 28.978 180.903 29.2038 180.903 29.482V30.4254H179.819V29.482C179.819 29.2038 179.593 28.978 179.314 28.978H179.265V22.9982H179.314C179.593 22.9982 179.819 22.7725 179.819 22.4942V21.5516H180.903V22.4942C180.903 22.7725 181.129 22.9982 181.407 22.9982ZM175.408 21.5516V22.4943C175.408 22.7725 175.634 22.9983 175.912 22.9983H175.962V28.978H175.912C175.634 28.978 175.408 29.2038 175.408 29.4821V30.4254L174.323 30.4256V29.4823C174.323 29.204 174.098 28.9783 173.819 28.9783H173.767L173.767 22.9983H173.819C174.097 22.9983 174.323 22.7725 174.323 22.4943V21.5516L175.408 21.5516Z" fill="white"/>
<g filter="url(#filter2_d_3023_5580)">
<rect x="215.98" y="211.598" width="107.028" height="123.003" rx="6.10627" fill="white"/>
</g>
<path d="M231.507 233.215V240.111H230.375V233.215H231.507ZM235.75 234.555C236.18 234.555 236.564 234.644 236.901 234.823C237.245 235.001 237.513 235.266 237.705 235.617C237.897 235.967 237.992 236.391 237.992 236.887V240.111H236.871V237.055C236.871 236.566 236.749 236.192 236.504 235.934C236.259 235.669 235.925 235.537 235.502 235.537C235.079 235.537 234.741 235.669 234.49 235.934C234.245 236.192 234.123 236.566 234.123 237.055V240.111H232.992V234.644H234.123V235.269C234.308 235.044 234.543 234.869 234.827 234.743C235.118 234.618 235.426 234.555 235.75 234.555ZM241.549 239.099L243.097 234.644H244.297L242.214 240.111H240.864L238.79 234.644H240.001L241.549 239.099ZM247.524 240.201C247.008 240.201 246.541 240.085 246.125 239.853C245.708 239.615 245.38 239.284 245.142 238.861C244.904 238.431 244.785 237.935 244.785 237.373C244.785 236.817 244.907 236.324 245.152 235.894C245.397 235.464 245.731 235.134 246.154 234.902C246.578 234.671 247.051 234.555 247.573 234.555C248.096 234.555 248.569 234.671 248.992 234.902C249.415 235.134 249.749 235.464 249.994 235.894C250.239 236.324 250.361 236.817 250.361 237.373C250.361 237.928 250.236 238.421 249.984 238.851C249.733 239.281 249.389 239.615 248.952 239.853C248.522 240.085 248.046 240.201 247.524 240.201ZM247.524 239.218C247.815 239.218 248.086 239.149 248.337 239.01C248.595 238.871 248.804 238.663 248.962 238.385C249.121 238.107 249.2 237.77 249.2 237.373C249.2 236.976 249.124 236.642 248.972 236.371C248.82 236.093 248.618 235.884 248.367 235.746C248.116 235.607 247.844 235.537 247.553 235.537C247.262 235.537 246.991 235.607 246.74 235.746C246.495 235.884 246.3 236.093 246.154 236.371C246.009 236.642 245.936 236.976 245.936 237.373C245.936 237.962 246.085 238.418 246.383 238.742C246.687 239.06 247.067 239.218 247.524 239.218ZM252.055 233.92C251.85 233.92 251.678 233.85 251.539 233.712C251.4 233.573 251.331 233.401 251.331 233.196C251.331 232.99 251.4 232.819 251.539 232.68C251.678 232.541 251.85 232.471 252.055 232.471C252.253 232.471 252.422 232.541 252.561 232.68C252.7 232.819 252.769 232.99 252.769 233.196C252.769 233.401 252.7 233.573 252.561 233.712C252.422 233.85 252.253 233.92 252.055 233.92ZM252.611 234.644V240.111H251.48V234.644H252.611ZM253.719 237.373C253.719 236.811 253.831 236.318 254.056 235.894C254.288 235.464 254.605 235.134 255.009 234.902C255.412 234.671 255.875 234.555 256.398 234.555C257.059 234.555 257.605 234.714 258.035 235.031C258.471 235.342 258.766 235.789 258.918 236.371H257.697C257.598 236.099 257.44 235.888 257.221 235.736C257.003 235.583 256.728 235.507 256.398 235.507C255.935 235.507 255.564 235.673 255.286 236.004C255.015 236.328 254.88 236.784 254.88 237.373C254.88 237.962 255.015 238.421 255.286 238.752C255.564 239.083 255.935 239.248 256.398 239.248C257.053 239.248 257.486 238.96 257.697 238.385H258.918C258.759 238.941 258.462 239.384 258.025 239.714C257.588 240.039 257.046 240.201 256.398 240.201C255.875 240.201 255.412 240.085 255.009 239.853C254.605 239.615 254.288 239.284 254.056 238.861C253.831 238.431 253.719 237.935 253.719 237.373ZM265.056 237.244C265.056 237.449 265.043 237.634 265.016 237.799H260.839C260.872 238.236 261.034 238.587 261.325 238.851C261.616 239.116 261.973 239.248 262.397 239.248C263.005 239.248 263.435 238.993 263.687 238.484H264.907C264.742 238.987 264.441 239.4 264.004 239.724C263.574 240.042 263.038 240.201 262.397 240.201C261.874 240.201 261.405 240.085 260.988 239.853C260.578 239.615 260.254 239.284 260.015 238.861C259.784 238.431 259.668 237.935 259.668 237.373C259.668 236.811 259.781 236.318 260.005 235.894C260.237 235.464 260.558 235.134 260.968 234.902C261.385 234.671 261.861 234.555 262.397 234.555C262.913 234.555 263.372 234.667 263.776 234.892C264.179 235.117 264.494 235.435 264.719 235.845C264.943 236.248 265.056 236.715 265.056 237.244ZM263.875 236.887C263.869 236.47 263.72 236.136 263.429 235.884C263.138 235.633 262.777 235.507 262.347 235.507C261.957 235.507 261.623 235.633 261.345 235.884C261.067 236.129 260.902 236.463 260.849 236.887H263.875ZM270.999 233.215C271.733 233.215 272.375 233.358 272.924 233.642C273.479 233.92 273.906 234.323 274.204 234.853C274.508 235.375 274.66 235.987 274.66 236.688C274.66 237.389 274.508 237.998 274.204 238.514C273.906 239.03 273.479 239.427 272.924 239.705C272.375 239.976 271.733 240.111 270.999 240.111H268.746V233.215H270.999ZM270.999 239.189C271.806 239.189 272.424 238.97 272.854 238.534C273.284 238.097 273.499 237.482 273.499 236.688C273.499 235.888 273.284 235.263 272.854 234.813C272.424 234.363 271.806 234.138 270.999 234.138H269.878V239.189H270.999ZM280.792 237.244C280.792 237.449 280.779 237.634 280.752 237.799H276.575C276.608 238.236 276.77 238.587 277.061 238.851C277.352 239.116 277.709 239.248 278.133 239.248C278.741 239.248 279.171 238.993 279.423 238.484H280.643C280.478 238.987 280.177 239.4 279.74 239.724C279.31 240.042 278.774 240.201 278.133 240.201C277.61 240.201 277.141 240.085 276.724 239.853C276.314 239.615 275.99 239.284 275.751 238.861C275.52 238.431 275.404 237.935 275.404 237.373C275.404 236.811 275.517 236.318 275.741 235.894C275.973 235.464 276.294 235.134 276.704 234.902C277.121 234.671 277.597 234.555 278.133 234.555C278.649 234.555 279.108 234.667 279.512 234.892C279.915 235.117 280.23 235.435 280.455 235.845C280.679 236.248 280.792 236.715 280.792 237.244ZM279.611 236.887C279.605 236.47 279.456 236.136 279.165 235.884C278.874 235.633 278.513 235.507 278.083 235.507C277.693 235.507 277.359 235.633 277.081 235.884C276.803 236.129 276.638 236.463 276.585 236.887H279.611ZM283.225 235.567V238.593C283.225 238.798 283.271 238.947 283.364 239.04C283.463 239.126 283.628 239.169 283.86 239.169H284.554V240.111H283.661C283.152 240.111 282.762 239.992 282.49 239.754C282.219 239.516 282.084 239.129 282.084 238.593V235.567H281.439V234.644H282.084V233.285H283.225V234.644H284.554V235.567H283.225ZM285.22 237.353C285.22 236.804 285.332 236.318 285.557 235.894C285.789 235.471 286.1 235.144 286.49 234.912C286.887 234.674 287.323 234.555 287.8 234.555C288.229 234.555 288.603 234.641 288.921 234.813C289.245 234.978 289.503 235.187 289.695 235.438V234.644H290.836V240.111H289.695V239.298C289.503 239.556 289.242 239.771 288.911 239.943C288.58 240.115 288.203 240.201 287.78 240.201C287.31 240.201 286.88 240.082 286.49 239.843C286.1 239.599 285.789 239.261 285.557 238.831C285.332 238.395 285.22 237.902 285.22 237.353ZM289.695 237.373C289.695 236.996 289.615 236.668 289.457 236.391C289.304 236.113 289.103 235.901 288.851 235.755C288.6 235.61 288.329 235.537 288.038 235.537C287.747 235.537 287.475 235.61 287.224 235.755C286.973 235.894 286.768 236.103 286.609 236.381C286.457 236.652 286.381 236.976 286.381 237.353C286.381 237.73 286.457 238.061 286.609 238.345C286.768 238.63 286.973 238.848 287.224 239C287.482 239.146 287.753 239.218 288.038 239.218C288.329 239.218 288.6 239.146 288.851 239C289.103 238.855 289.304 238.643 289.457 238.365C289.615 238.081 289.695 237.75 289.695 237.373ZM292.897 233.92C292.692 233.92 292.52 233.85 292.381 233.712C292.242 233.573 292.173 233.401 292.173 233.196C292.173 232.99 292.242 232.819 292.381 232.68C292.52 232.541 292.692 232.471 292.897 232.471C293.095 232.471 293.264 232.541 293.403 232.68C293.542 232.819 293.611 232.99 293.611 233.196C293.611 233.401 293.542 233.573 293.403 233.712C293.264 233.85 293.095 233.92 292.897 233.92ZM293.453 234.644V240.111H292.321V234.644H293.453ZM296.069 232.769V240.111H294.938V232.769H296.069ZM299.538 240.201C299.108 240.201 298.721 240.125 298.377 239.972C298.04 239.814 297.772 239.602 297.574 239.337C297.375 239.066 297.269 238.765 297.256 238.434H298.427C298.447 238.666 298.556 238.861 298.754 239.02C298.959 239.172 299.214 239.248 299.518 239.248C299.836 239.248 300.081 239.189 300.253 239.069C300.431 238.944 300.521 238.785 300.521 238.593C300.521 238.388 300.421 238.236 300.223 238.137C300.031 238.038 299.723 237.928 299.3 237.809C298.89 237.697 298.556 237.588 298.298 237.482C298.04 237.376 297.815 237.214 297.623 236.996C297.438 236.777 297.345 236.49 297.345 236.133C297.345 235.841 297.431 235.577 297.603 235.339C297.775 235.094 298.02 234.902 298.338 234.763C298.662 234.624 299.032 234.555 299.449 234.555C300.071 234.555 300.57 234.714 300.947 235.031C301.331 235.342 301.536 235.769 301.562 236.311H300.431C300.411 236.066 300.312 235.871 300.134 235.726C299.955 235.58 299.714 235.507 299.409 235.507C299.112 235.507 298.883 235.564 298.725 235.676C298.566 235.789 298.487 235.937 298.487 236.123C298.487 236.268 298.539 236.391 298.645 236.49C298.751 236.589 298.88 236.668 299.032 236.728C299.184 236.781 299.409 236.85 299.707 236.936C300.104 237.042 300.428 237.151 300.679 237.264C300.937 237.369 301.159 237.528 301.344 237.74C301.529 237.952 301.625 238.233 301.632 238.583C301.632 238.894 301.546 239.172 301.374 239.417C301.202 239.662 300.957 239.853 300.64 239.992C300.329 240.131 299.962 240.201 299.538 240.201Z" fill="#515151"/>
<rect x="228.16" y="249.135" width="83.6337" height="4.64631" rx="2.32316" fill="#EDEDED"/>
<rect x="228.16" y="287.232" width="83.6337" height="4.64631" rx="2.32316" fill="#EDEDED"/>
<rect x="228.16" y="262.607" width="83.6337" height="4.64631" rx="2.32316" fill="#EDEDED"/>
<rect x="228.16" y="302.098" width="83.6337" height="4.64631" rx="2.32316" fill="#EDEDED"/>
<rect x="273.488" y="317.027" width="38.3385" height="4.79232" rx="2.39616" fill="#929292"/>
<line x1="229.285" y1="279.495" x2="311.572" y2="279.495" stroke="#BBBBBB" stroke-width="0.53248"/>
<defs>
<filter id="filter0_d_3023_5580" x="0.159385" y="86.9562" width="151.825" height="183.703" filterUnits="userSpaceOnUse" color-interpolation-filters="sRGB">
<feFlood flood-opacity="0" result="BackgroundImageFix"/>
<feColorMatrix in="SourceAlpha" type="matrix" values="0 0 0 0 0 0 0 0 0 0 0 0 0 0 0 0 0 0 127 0" result="hardAlpha"/>
<feOffset dx="-0.705149" dy="0.470099"/>
<feGaussianBlur stdDeviation="1.05772"/>
<feComposite in2="hardAlpha" operator="out"/>
<feColorMatrix type="matrix" values="0 0 0 0 0 0 0 0 0 0 0 0 0 0 0 0 0 0 0.25 0"/>
<feBlend mode="normal" in2="BackgroundImageFix" result="effect1_dropShadow_3023_5580"/>
<feBlend mode="normal" in="SourceGraphic" in2="effect1_dropShadow_3023_5580" result="shape"/>
</filter>
<filter id="filter1_d_3023_5580" x="82.6977" y="150.752" width="182.938" height="88.689" filterUnits="userSpaceOnUse" color-interpolation-filters="sRGB">
<feFlood flood-opacity="0" result="BackgroundImageFix"/>
<feColorMatrix in="SourceAlpha" type="matrix" values="0 0 0 0 0 0 0 0 0 0 0 0 0 0 0 0 0 0 127 0" result="hardAlpha"/>
<feOffset dx="-1.06496" dy="-0.53248"/>
<feGaussianBlur stdDeviation="1.40552"/>
<feComposite in2="hardAlpha" operator="out"/>
<feColorMatrix type="matrix" values="0 0 0 0 0 0 0 0 0 0 0 0 0 0 0 0 0 0 0.25 0"/>
<feBlend mode="normal" in2="BackgroundImageFix" result="effect1_dropShadow_3023_5580"/>
<feBlend mode="normal" in="SourceGraphic" in2="effect1_dropShadow_3023_5580" result="shape"/>
</filter>
<filter id="filter2_d_3023_5580" x="212.316" y="209.155" width="111.913" height="127.888" filterUnits="userSpaceOnUse" color-interpolation-filters="sRGB">
<feFlood flood-opacity="0" result="BackgroundImageFix"/>
<feColorMatrix in="SourceAlpha" type="matrix" values="0 0 0 0 0 0 0 0 0 0 0 0 0 0 0 0 0 0 127 0" result="hardAlpha"/>
<feOffset dx="-1.22125"/>
<feGaussianBlur stdDeviation="1.22125"/>
<feComposite in2="hardAlpha" operator="out"/>
<feColorMatrix type="matrix" values="0 0 0 0 0 0 0 0 0 0 0 0 0 0 0 0 0 0 0.25 0"/>
<feBlend mode="normal" in2="BackgroundImageFix" result="effect1_dropShadow_3023_5580"/>
<feBlend mode="normal" in="SourceGraphic" in2="effect1_dropShadow_3023_5580" result="shape"/>
</filter>
</defs>
</svg>
