<svg width="103" height="112" viewBox="0 0 103 112" fill="none" xmlns="http://www.w3.org/2000/svg">
<path opacity="0.998053" d="M20.5564 50.1428C19.9874 50.3088 19.5681 50.7918 19.4807 51.377C19.0273 54.4441 19.0273 57.5556 19.4807 60.6227C19.5681 61.208 19.9874 61.691 20.5564 61.8569L24.6162 63.0423C25.2251 65.3389 26.1452 67.5673 27.3632 69.6861L25.3303 73.3888C25.0458 73.9089 25.0888 74.5475 25.4429 75.0246C27.2906 77.5123 29.4894 79.7111 31.9771 81.5588C32.4572 81.9114 33.0899 81.9559 33.6129 81.6714L37.3156 79.6385C39.4359 80.8564 41.6628 81.7766 43.9594 82.3841L45.1448 86.4453C45.3107 87.0143 45.7923 87.4336 46.379 87.521C47.9125 87.7477 49.4579 87.8618 51.0018 87.8618C52.5457 87.8618 54.0911 87.7477 55.6246 87.521C56.2114 87.4336 56.6929 87.0143 56.8589 86.4453L58.0442 82.3841C60.3408 81.7766 62.5678 80.8564 64.6881 79.6385L68.3908 81.6714C68.9108 81.9544 69.5465 81.9114 70.0265 81.5588C72.5143 79.7111 74.7131 77.5123 76.5607 75.0246C76.9148 74.5475 76.9578 73.9089 76.6733 73.3888L74.6405 69.6861C75.8584 67.5673 76.7785 65.3389 77.3875 63.0423L81.4473 61.8569C82.0162 61.691 82.4356 61.208 82.523 60.6227C82.9764 57.5556 82.9764 54.4441 82.523 51.377C82.4356 50.7918 82.0162 50.3088 81.4473 50.1428L77.3875 48.9575C76.7785 46.6609 75.8584 44.4324 74.6405 42.3136L76.6733 38.6109C76.9578 38.0909 76.9148 37.4523 76.5607 36.9752C74.7131 34.4874 72.5143 32.2886 70.0265 30.441C69.5479 30.0854 68.9123 30.0454 68.3908 30.3284L64.6881 32.3612C62.5693 31.1433 60.3408 30.2232 58.0442 29.6142L56.8589 25.5544C56.6929 24.9854 56.2099 24.5661 55.6246 24.4787C52.5576 24.0253 49.4461 24.0253 46.379 24.4787C45.7937 24.5661 45.3107 24.9854 45.1448 25.5544L43.9594 29.6142C41.6628 30.2232 39.4344 31.1433 37.3156 32.3612L33.6129 30.3284C33.0869 30.0439 32.4542 30.0854 31.9771 30.441C29.4894 32.2886 27.2906 34.4874 25.4429 36.9752C25.0888 37.4523 25.0458 38.0909 25.3303 38.6109L27.3632 42.3136C26.1452 44.4324 25.2251 46.6609 24.6162 48.9575L20.5564 50.1428ZM27.3587 50.5073C27.9455 47.9455 28.9693 45.4666 30.4021 43.1404C30.6881 42.6752 30.7029 42.0929 30.4406 41.6143L28.4685 38.0197C29.8109 36.3351 31.337 34.809 33.0217 33.4666L36.6162 35.4387C37.0963 35.7009 37.6786 35.6861 38.1424 35.4001C40.4686 33.9674 42.9474 32.9435 45.5093 32.3568C46.0456 32.2338 46.4738 31.8308 46.6279 31.3033L47.7807 27.3561C49.9202 27.1131 52.0834 27.1131 54.223 27.3561L55.3757 31.3033C55.5298 31.8308 55.958 32.2338 56.4944 32.3568C59.0562 32.9435 61.535 33.9674 63.8613 35.4001C64.3236 35.6861 64.9088 35.7009 65.3874 35.4387L68.9819 33.4666C70.6666 34.809 72.1927 36.3351 73.5351 38.0197L71.563 41.6143C71.3008 42.0929 71.3156 42.6752 71.6016 43.1404C73.0343 45.4666 74.0582 47.9455 74.6449 50.5073C74.7679 51.0437 75.1709 51.4719 75.6984 51.626L79.6456 52.7787C79.89 54.9197 79.89 57.08 79.6456 59.221L75.6984 60.3738C75.1709 60.5279 74.7679 60.9561 74.6449 61.4924C74.0582 64.0543 73.0343 66.5331 71.6016 68.8593C71.3156 69.3246 71.3008 69.9069 71.563 70.3855L73.5351 73.98C72.1927 75.6647 70.6666 77.1908 68.9819 78.5332L65.3874 76.5611C64.9088 76.2988 64.3236 76.3122 63.8613 76.5996C61.5336 78.0339 59.0547 79.0562 56.4944 79.6415C55.958 79.763 55.5298 80.1675 55.3757 80.6949L54.223 84.6436C52.0805 84.8866 49.9232 84.8866 47.7807 84.6436L46.6279 80.6949C46.4738 80.1675 46.0456 79.763 45.5093 79.6415C42.9489 79.0562 40.4701 78.0339 38.1424 76.5996C37.6786 76.3122 37.0963 76.2988 36.6162 76.5611L33.0217 78.5332C31.337 77.1908 29.8109 75.6647 28.4685 73.98L30.4406 70.3855C30.7029 69.9069 30.6881 69.3246 30.4021 68.8593C28.9693 66.5331 27.9455 64.0543 27.3587 61.4924C27.2358 60.9561 26.8327 60.5279 26.3053 60.3738L22.3581 59.221C22.1136 57.08 22.1136 54.9197 22.3581 52.7787L26.3053 51.626C26.8327 51.4719 27.2358 51.0437 27.3587 50.5073Z" fill="url(#paint0_linear_4057_12473)"/>
<path opacity="0.998053" d="M50.9973 67.6215C57.4055 67.6215 62.6195 62.4075 62.6195 55.9992C62.6195 55.2806 62.5469 54.5724 62.4047 53.8967C62.2313 53.0759 61.4238 52.5558 60.6074 52.7247C59.7866 52.8981 59.262 53.7026 59.4354 54.522C59.5347 54.9932 59.585 55.4895 59.585 55.9992C59.585 60.7346 55.7327 64.587 50.9973 64.587C46.2618 64.587 42.4095 60.7346 42.4095 55.9992C42.4095 51.2638 46.2618 47.4114 50.9973 47.4114C51.4936 47.4114 51.9663 47.4603 52.4449 47.5611C53.2598 47.7315 54.0688 47.2099 54.2421 46.3891C54.4155 45.5697 53.891 44.7652 53.0701 44.5918C52.3841 44.4466 51.707 44.377 50.9973 44.377C44.589 44.377 39.375 49.591 39.375 55.9992C39.375 62.4075 44.589 67.6215 50.9973 67.6215Z" fill="url(#paint1_linear_4057_12473)"/>
<path opacity="0.998053" d="M13.0703 86.344C13.0703 90.5268 16.4737 93.9302 20.6565 93.9302C22.6038 93.9302 24.3638 93.1717 25.7084 91.9612C33.1696 97.2056 41.8746 99.9991 51.0012 99.9991C57.5828 99.9991 63.9273 98.5693 69.8585 95.7511C70.6156 95.3911 70.9386 94.4858 70.5786 93.7301C70.2215 92.9745 69.3088 92.6544 68.5576 93.01C63.0354 95.6341 57.1279 96.9646 51.0012 96.9646C42.5329 96.9646 34.452 94.3791 27.5189 89.527C27.9715 88.5558 28.2427 87.4843 28.2427 86.344C28.2427 82.1612 24.8393 78.7578 20.6565 78.7578C16.4737 78.7578 13.0703 82.1612 13.0703 86.344ZM20.6565 81.7923C23.1664 81.7923 25.2082 83.834 25.2082 86.344C25.2082 88.8539 23.1664 90.8957 20.6565 90.8957C18.1465 90.8957 16.1048 88.8539 16.1048 86.344C16.1048 83.834 18.1465 81.7923 20.6565 81.7923Z" fill="url(#paint2_linear_4057_12473)"/>
<path opacity="0.998053" d="M81.3428 33.2413C85.5255 33.2413 88.9289 29.8379 88.9289 25.6551C88.9289 21.4723 85.5255 18.0689 81.3428 18.0689C79.3955 18.0689 77.6354 18.8274 76.2908 20.0379C68.8297 14.7935 60.1246 12 50.9981 12C44.4165 12 38.0719 13.4298 32.1408 16.248C31.3837 16.608 31.0607 17.5133 31.4207 18.269C31.7793 19.0261 32.6905 19.3447 33.4417 18.9891C38.9639 16.365 44.8713 15.0345 50.9981 15.0345C59.4664 15.0345 67.5473 17.62 74.4804 22.4721C74.0277 23.4433 73.7566 24.5148 73.7566 25.6551C73.7566 29.8379 77.16 33.2413 81.3428 33.2413ZM81.3428 21.1034C83.8527 21.1034 85.8945 23.1452 85.8945 25.6551C85.8945 28.1651 83.8527 30.2068 81.3428 30.2068C78.8328 30.2068 76.7911 28.1651 76.7911 25.6551C76.7911 23.1452 78.8328 21.1034 81.3428 21.1034Z" fill="url(#paint3_linear_4057_12473)"/>
<path opacity="0.998053" d="M12.62 75.7248C12.8378 75.7248 13.0601 75.6774 13.269 75.5781C14.0261 75.218 14.3491 74.3127 13.9891 73.5571C11.365 68.0334 10.0345 62.126 10.0345 55.9992C10.0345 47.5309 12.62 39.45 17.4721 32.5169C18.4433 32.9696 19.5148 33.2407 20.6551 33.2407C24.8379 33.2407 28.2413 29.8373 28.2413 25.6545C28.2413 21.4718 24.8379 18.0684 20.6551 18.0684C16.4723 18.0684 13.0689 21.4718 13.0689 25.6545C13.0689 27.6018 13.8274 29.3619 15.0379 30.7065C9.79351 38.1677 7 46.8727 7 55.9992C7 62.5794 8.42982 68.9254 11.248 74.858C11.5073 75.4047 12.0525 75.7248 12.62 75.7248ZM20.6551 21.1028C23.1651 21.1028 25.2068 23.1446 25.2068 25.6545C25.2068 28.1645 23.1651 30.2062 20.6551 30.2062C18.1452 30.2062 16.1034 28.1645 16.1034 25.6545C16.1034 23.1446 18.1452 21.1028 20.6551 21.1028Z" fill="url(#paint4_linear_4057_12473)"/>
<path opacity="0.998053" d="M90.7511 37.1415C90.3926 36.3843 89.4843 36.0643 88.7301 36.4214C87.973 36.7814 87.65 37.6867 88.01 38.4424C90.6341 43.9646 91.9646 49.872 91.9646 55.9987C91.9646 64.4671 89.3791 72.5479 84.527 79.4811C83.5558 79.0284 82.4843 78.7573 81.344 78.7573C77.1612 78.7573 73.7578 82.1607 73.7578 86.3434C73.7578 90.5262 77.1612 93.9296 81.344 93.9296C85.5268 93.9296 88.9302 90.5262 88.9302 86.3434C88.9302 84.3961 88.1717 82.6361 86.9612 81.2915C92.2056 73.8303 94.9991 65.1253 94.9991 55.9987C94.9991 49.4171 93.5693 43.0726 90.7511 37.1415ZM81.344 90.8951C78.834 90.8951 76.7923 88.8534 76.7923 86.3434C76.7923 83.8335 78.834 81.7917 81.344 81.7917C83.8539 81.7917 85.8957 83.8335 85.8957 86.3434C85.8957 88.8534 83.8539 90.8951 81.344 90.8951Z" fill="url(#paint5_linear_4057_12473)"/>
<path opacity="0.998053" d="M59.2072 49.93C59.7997 49.3374 59.7997 48.3769 59.2072 47.7842C58.6147 47.1917 57.654 47.1917 57.0616 47.7842C56.4691 48.3769 56.4691 49.3374 57.0616 49.93C57.654 50.5225 58.6147 50.5225 59.2072 49.93Z" fill="url(#paint6_linear_4057_12473)"/>
<defs>
<linearGradient id="paint0_linear_4057_12473" x1="51.0014" y1="87.8618" x2="51.0014" y2="24.1387" gradientUnits="userSpaceOnUse">
<stop stop-color="#FEED7A"/>
<stop offset="0.0001" stop-color="#B55E00"/>
<stop offset="1" stop-color="#6036D4"/>
</linearGradient>
<linearGradient id="paint1_linear_4057_12473" x1="50.9971" y1="67.6215" x2="50.9971" y2="44.377" gradientUnits="userSpaceOnUse">
<stop stop-color="#FEED7A"/>
<stop offset="0.0001" stop-color="#B55E00"/>
<stop offset="1" stop-color="#6036D4"/>
</linearGradient>
<linearGradient id="paint2_linear_4057_12473" x1="41.8977" y1="99.9991" x2="41.8977" y2="78.7578" gradientUnits="userSpaceOnUse">
<stop stop-color="#FEED7A"/>
<stop offset="0.0001" stop-color="#B55E00"/>
<stop offset="1" stop-color="#6036D4"/>
</linearGradient>
<linearGradient id="paint3_linear_4057_12473" x1="60.1008" y1="33.2413" x2="60.1008" y2="12" gradientUnits="userSpaceOnUse">
<stop stop-color="#FEED7A"/>
<stop offset="0.0001" stop-color="#B55E00"/>
<stop offset="1" stop-color="#6036D4"/>
</linearGradient>
<linearGradient id="paint4_linear_4057_12473" x1="17.6205" y1="75.7248" x2="17.6205" y2="18.0684" gradientUnits="userSpaceOnUse">
<stop stop-color="#FEED7A"/>
<stop offset="0.0001" stop-color="#B55E00"/>
<stop offset="1" stop-color="#6036D4"/>
</linearGradient>
<linearGradient id="paint5_linear_4057_12473" x1="84.3783" y1="93.9296" x2="84.3783" y2="36.2754" gradientUnits="userSpaceOnUse">
<stop stop-color="#FEED7A"/>
<stop offset="0.0001" stop-color="#B55E00"/>
<stop offset="1" stop-color="#6036D4"/>
</linearGradient>
<linearGradient id="paint6_linear_4057_12473" x1="58.1344" y1="50.3744" x2="58.1344" y2="47.3398" gradientUnits="userSpaceOnUse">
<stop stop-color="#FEED7A"/>
<stop offset="0.0001" stop-color="#B55E00"/>
<stop offset="1" stop-color="#6036D4"/>
</linearGradient>
</defs>
</svg>
