<svg width="103" height="112" viewBox="0 0 103 112" fill="none" xmlns="http://www.w3.org/2000/svg">
<path opacity="0.998053" d="M43.451 87.532C40.785 87.532 38.617 89.701 38.617 92.366C38.617 95.032 40.786 97.201 43.451 97.201C46.117 97.201 48.286 95.032 48.286 92.366C48.285 89.701 46.117 87.532 43.451 87.532ZM43.451 94.863C42.074 94.863 40.954 93.743 40.954 92.366C40.954 90.989 42.074 89.869 43.451 89.869C44.828 89.869 45.948 90.989 45.948 92.366C45.948 93.743 44.828 94.863 43.451 94.863ZM34.002 16.343C34.002 15.698 34.525 15.174 35.171 15.174H51.732C52.377 15.174 52.901 15.697 52.901 16.343C52.901 16.989 52.378 17.512 51.732 17.512H35.17C34.525 17.512 34.002 16.989 34.002 16.343ZM85.946 40.342H73.902V17.567C73.902 13.946 70.956 11 67.335 11H19.567C15.946 11 13 13.946 13 17.567V94.433C13 98.054 15.946 101 19.567 101H67.335C70.956 101 73.902 98.054 73.902 94.433V71.658H85.946C88.688 71.658 90.918 69.427 90.918 66.686V45.314C90.918 42.573 88.687 40.342 85.946 40.342ZM88.58 45.314V46.681H39.482V45.314C39.482 43.861 40.664 42.679 42.117 42.679H85.946C87.398 42.68 88.58 43.862 88.58 45.314ZM39.482 49.019H88.581V51.028H39.482V49.019ZM19.567 13.338H67.335C69.667 13.338 71.564 15.235 71.564 17.567V19.349H15.338V17.567C15.338 15.235 17.235 13.338 19.567 13.338ZM67.335 98.662H19.567C17.235 98.662 15.338 96.765 15.338 94.432V86.071H71.565V94.432C71.564 96.765 69.667 98.662 67.335 98.662ZM71.564 83.734H15.338V21.687H71.565V40.342H42.116C39.374 40.342 37.144 42.573 37.144 45.314V66.685C37.144 69.427 39.375 71.657 42.116 71.657H71.564V83.734ZM85.946 69.32H42.116C40.663 69.32 39.481 68.138 39.481 66.686V53.366H88.58V66.686C88.58 68.138 87.398 69.32 85.946 69.32ZM54.091 59.469H41.903C41.258 59.469 40.734 59.992 40.734 60.638V66.664C40.734 67.309 41.257 67.833 41.903 67.833H54.091C54.736 67.833 55.26 67.31 55.26 66.664V60.638C55.26 59.992 54.736 59.469 54.091 59.469ZM52.922 65.495H43.071V61.807H52.922V65.495ZM69.928 63.651C69.928 64.296 69.405 64.82 68.759 64.82H58.625C57.98 64.82 57.456 64.297 57.456 63.651C57.456 63.005 57.979 62.482 58.625 62.482H68.759C69.404 62.482 69.928 63.005 69.928 63.651ZM86.225 63.651C86.225 64.296 85.702 64.82 85.056 64.82H74.921C74.276 64.82 73.752 64.297 73.752 63.651C73.752 63.005 74.275 62.482 74.921 62.482H85.055C85.701 62.482 86.225 63.005 86.225 63.651Z" fill="url(#paint0_linear_4057_12487)"/>
<defs>
<linearGradient id="paint0_linear_4057_12487" x1="51.9585" y1="101" x2="51.9585" y2="11" gradientUnits="userSpaceOnUse">
<stop stop-color="#FEED7A"/>
<stop offset="0.0001" stop-color="#B55E00"/>
<stop offset="1" stop-color="#6036D4"/>
</linearGradient>
</defs>
</svg>
