<svg width="103" height="112" viewBox="0 0 103 112" fill="none" xmlns="http://www.w3.org/2000/svg">
<path opacity="0.998053" d="M77.9221 71.5962L65.8871 81.7206C65.6761 81.3385 65.4382 80.9761 65.1464 80.6577C64.1813 79.5801 62.875 78.9826 61.4701 78.9826H52.5283L49.9383 75.8869C47.9497 73.477 45.0948 72.091 42.1007 72.091C39.2279 72.091 36.4448 73.389 34.4742 75.6518L31.8931 78.5808L29.523 79.1245L29.5095 79.0168C29.3794 77.9441 28.4816 77.18 27.494 77.3318L18.2785 78.6591C17.8071 78.7277 17.3762 78.9971 17.0889 79.4086C16.8016 79.82 16.6714 80.3441 16.7343 80.8583L19.6969 105.3C19.7597 105.814 20.0066 106.284 20.3837 106.598C20.6979 106.862 21.0839 106.999 21.4745 106.999C21.5553 106.999 21.6316 106.994 21.7079 106.98L30.9235 105.647C31.7719 105.525 32.3689 104.766 32.4407 103.874L44.0528 101.538L60.5407 104.369C61.0839 104.467 61.6315 104.511 62.1747 104.511C65.3259 104.511 68.3693 102.953 70.3893 100.225L85.3868 79.8741C86.1589 78.8161 86.5673 77.5523 86.5673 76.23C86.5673 74.8732 86.1319 73.5458 85.3284 72.478C83.4745 70.0339 80.2159 69.6517 77.9221 71.5962ZM23.0274 102.841L20.536 82.2833L26.192 81.4654L28.6833 102.023L23.0274 102.841ZM82.5853 77.4345L67.6016 97.7717C66.0394 99.8779 63.5616 100.931 61.1108 100.5L44.3183 97.6149C44.1208 97.5806 43.9188 97.5855 43.7123 97.6247L32.0542 99.9709L29.9983 83.0143L33.1763 82.2844C33.531 82.2061 33.8497 82.0101 34.1011 81.7261L37.0726 78.3562C38.3744 76.8623 40.2059 76.0051 42.1046 76.0051C44.0798 76.0051 45.9651 76.9161 47.2758 78.508L50.409 82.2551C50.7502 82.6616 51.2305 82.8918 51.7377 82.8918H61.4696C61.905 82.8918 62.2865 83.0633 62.5918 83.4012C62.8836 83.7196 63.0452 84.1506 63.0452 84.6111C63.0452 85.5711 62.3539 86.3254 61.474 86.3254L51.7377 86.3303C50.7456 86.3303 49.9421 87.2071 49.9421 88.2895C49.9421 89.372 50.7456 90.2488 51.7377 90.2488H61.4696C63.7947 90.2488 65.743 88.554 66.3893 86.2422L80.125 74.6925C80.8747 74.0557 81.97 74.1929 82.5714 74.9766C82.8363 75.3292 82.9889 75.7848 82.9889 76.2305C82.9799 76.6664 82.8412 77.0818 82.5853 77.4345Z" fill="url(#paint0_linear_4057_12449)" stroke="#0F072A" stroke-width="0.969386"/>
<path opacity="0.998053" d="M70.4107 32.5899L68.4829 23.779C68.2658 22.799 67.4326 22.1455 66.5329 22.2841C56.8763 23.685 44.6585 27.531 34.3946 32.3721H34.3857C34.2085 32.4414 33.6501 32.7087 33.5482 32.7582C33.5482 32.7582 33.5083 32.778 33.4861 32.7879C30.9556 34.1342 29.3203 37.02 29.3203 40.1435V62.2203C29.3203 66.71 32.5953 70.3581 36.6237 70.3581H67.6808C71.7092 70.3581 74.9842 66.705 74.9842 62.2203V59.2404C76.3891 58.7058 77.4127 57.2357 77.4127 55.4835V46.8607C77.4127 45.1134 76.389 43.6382 74.9842 43.1087V40.1387C74.9842 36.7282 73.0873 33.8026 70.4107 32.5899ZM66.3335 55.5082C64.1974 55.5082 62.4557 53.5628 62.4557 51.1769C62.4557 48.7911 64.1974 46.8457 66.3335 46.8457L73.8673 46.8655V55.4883C73.8673 55.4982 73.8584 55.5081 73.8495 55.5081L66.3335 55.5082ZM66.626 31.9867H45.4118C52.2454 29.4573 59.2914 27.4872 65.4166 26.4576L66.626 31.9867ZM67.6807 66.3983H36.6236C34.5496 66.3983 32.8655 64.5223 32.8655 62.2206V40.1488C32.8655 38.55 33.7031 37.0699 34.9839 36.3868C35.1611 36.3026 35.3517 36.2185 35.529 36.1343C35.9012 36.0155 36.2602 35.9462 36.6236 35.9462H67.6807C69.7547 35.9462 71.4388 37.8272 71.4388 40.1437V42.8861H66.3335C62.243 42.8861 58.9104 46.6084 58.9104 51.1772C58.9104 55.7461 62.243 59.4684 66.3335 59.4684H71.4388V62.2206C71.4388 64.5273 69.7503 66.3983 67.6807 66.3983Z" fill="url(#paint1_linear_4057_12449)" stroke="#0F072A" stroke-width="0.969386"/>
<path opacity="0.998053" d="M52.1472 5.08984C32.7455 5.08984 16.6345 17.5996 14.5689 33.8973H12.7888C12.1269 33.8973 11.5141 34.2996 11.2055 34.9472C10.8969 35.5898 10.9372 36.3698 11.3173 36.9733L17.3642 46.6083C17.6997 47.1381 18.2498 47.457 18.8358 47.457C19.4261 47.457 19.9763 47.1381 20.3073 46.6083L26.3363 36.9733C26.712 36.3699 26.7522 35.5898 26.4436 34.9472C26.135 34.3045 25.5268 33.8973 24.8604 33.8973L23.9837 33.9022C26.1887 23.3106 38.0636 15.3001 52.148 15.3001C67.8915 15.3001 80.7015 25.2393 80.7015 37.4551C80.7015 38.657 80.5718 39.8295 80.3303 40.8401C80.2095 41.3454 80.2766 41.885 80.5226 42.3364C80.7641 42.7877 81.1622 43.1164 81.6273 43.239L87.1913 44.7697C87.6519 44.8972 88.1395 44.8138 88.5509 44.5489C88.9579 44.2791 89.2531 43.8425 89.3649 43.3372C89.7898 41.4436 90.009 39.4617 90.009 37.4502C90.0045 19.6079 73.0221 5.09114 52.149 5.09114L52.1472 5.08984ZM86.2333 40.4606L84.1357 39.8817C84.2296 39.0918 84.2788 38.2726 84.2788 37.4484C84.2788 23.0698 69.8635 11.3687 52.1483 11.3687C35.2999 11.3687 21.2247 22.0486 20.1118 35.6864C20.067 36.2358 20.2325 36.7804 20.5724 37.1827C20.8184 37.4819 21.1449 37.683 21.4983 37.7713L18.8326 42.0295L16.1893 37.8252C17.1241 37.8154 17.8979 37.0207 17.9605 35.9954C18.8819 20.8658 33.8963 9.01901 52.1439 9.01901C71.0453 9.01901 86.4224 21.7738 86.4224 37.4535C86.4268 38.469 86.3642 39.4747 86.2345 40.4607L86.2333 40.4606Z" fill="url(#paint2_linear_4057_12449)" stroke="#0F072A" stroke-width="0.969386"/>
<defs>
<linearGradient id="paint0_linear_4057_12449" x1="51.6426" y1="106.999" x2="51.6426" y2="70.3574" gradientUnits="userSpaceOnUse">
<stop stop-color="#FEED7A"/>
<stop offset="0.0001" stop-color="#B55E00"/>
<stop offset="1" stop-color="#6036D4"/>
</linearGradient>
<linearGradient id="paint1_linear_4057_12449" x1="53.3662" y1="70.3581" x2="53.3662" y2="22.2656" gradientUnits="userSpaceOnUse">
<stop stop-color="#FEED7A"/>
<stop offset="0.0001" stop-color="#B55E00"/>
<stop offset="1" stop-color="#6036D4"/>
</linearGradient>
<linearGradient id="paint2_linear_4057_12449" x1="50.504" y1="47.457" x2="50.504" y2="5.08984" gradientUnits="userSpaceOnUse">
<stop stop-color="#FEED7A"/>
<stop offset="0.0001" stop-color="#B55E00"/>
<stop offset="1" stop-color="#6036D4"/>
</linearGradient>
</defs>
</svg>
