<svg width="103" height="112" viewBox="0 0 103 112" fill="none" xmlns="http://www.w3.org/2000/svg">
<path opacity="0.998053" d="M46.3698 20.1141H60.9781C61.3401 20.1141 61.6528 20.0525 61.912 19.9253C62.1711 19.798 62.4139 19.5927 62.636 19.3053C62.854 19.0262 62.9939 18.7388 63.0515 18.4555C63.1132 18.164 63.1009 17.8397 63.0104 17.4989C62.2946 14.6784 60.0771 12.5353 57.1234 11.0819C54.0627 9.57926 50.2326 8.82799 46.3696 8.82799C42.5066 8.82799 38.6766 9.58341 35.6158 11.0819C32.662 12.5312 30.4488 14.6784 29.7289 17.4989C29.6384 17.8438 29.626 18.1681 29.6878 18.4555C29.7495 18.7388 29.8852 19.0262 30.1033 19.3053C30.3254 19.5886 30.5681 19.798 30.8273 19.9253C31.0824 20.0525 31.3991 20.1141 31.7612 20.1141H46.3698ZM27.236 61.8963C25.899 61.8963 24.817 60.8166 24.817 59.4823C24.817 58.148 25.8989 57.0682 27.236 57.0682H47.9168C49.2538 57.0682 50.3358 58.1479 50.3358 59.4823C50.3358 60.8165 49.2539 61.8963 47.9168 61.8963H27.236ZM27.236 43.803C25.899 43.803 24.817 42.7233 24.817 41.389C24.817 40.0546 25.8989 38.9749 27.236 38.9749H65.5035C66.8405 38.9749 67.9225 40.0546 67.9225 41.389C67.9225 42.7233 66.8406 43.803 65.5035 43.803H27.236ZM85.4925 90.0195C87.8333 90.0195 89.9602 90.972 91.4987 92.5075L91.507 92.5157C93.0455 94.0511 94 96.1738 94 98.5098C94 100.85 93.0456 102.968 91.507 104.504L91.4987 104.512C89.9602 106.047 87.8332 107 85.4925 107C83.1475 107 81.0248 106.048 79.4862 104.512L79.478 104.504C77.9394 102.968 76.9849 100.85 76.9849 98.5098C76.9849 96.1737 77.9394 94.0511 79.478 92.5157L79.4862 92.5075C81.0248 90.972 83.1517 90.0195 85.4925 90.0195ZM88.0925 95.9151C87.4302 95.2541 86.5087 94.8477 85.4925 94.8477C84.4763 94.8477 83.5549 95.2582 82.8924 95.9151C82.2301 96.5761 81.8229 97.4957 81.8229 98.5099C81.8229 99.524 82.2342 100.444 82.8924 101.105C83.5548 101.766 84.4763 102.172 85.4925 102.172C86.5087 102.172 87.4301 101.766 88.0925 101.105C88.7549 100.444 89.1621 99.524 89.1621 98.5099C89.1621 97.4957 88.7507 96.5762 88.0925 95.9151ZM65.6476 70.6822C67.9967 70.6822 70.1235 71.6347 71.6621 73.1702C73.2006 74.7056 74.1551 76.8324 74.1551 79.1725C74.1551 81.5086 73.2007 83.627 71.6621 85.1665L71.6539 85.1747C70.1153 86.7102 67.9883 87.6627 65.6476 87.6627C63.2985 87.6627 61.1717 86.7102 59.6331 85.1747C58.0946 83.6393 57.1401 81.5126 57.1401 79.1725C57.1401 76.8405 58.0945 74.7179 59.6331 73.1743L59.6496 73.1579C61.1964 71.6266 63.3151 70.6781 65.6476 70.6781L65.6476 70.6822ZM68.2434 76.586C67.5811 75.925 66.6596 75.5104 65.6476 75.5104C64.6274 75.5104 63.71 75.9169 63.0518 76.5737L63.0436 76.5819C62.3853 77.2388 61.9781 78.1503 61.9781 79.1725C61.9781 80.1865 62.3895 81.0979 63.0518 81.763C63.7141 82.424 64.6356 82.8345 65.6476 82.8345C66.6637 82.8345 67.5852 82.4281 68.2476 81.7671C68.91 81.1061 69.3172 80.1865 69.3172 79.1724C69.3172 78.1583 68.9058 77.2428 68.2435 76.5818L68.2434 76.586ZM83.7122 77.3045C84.6584 76.3602 86.1888 76.3602 87.135 77.3045C88.0812 78.2488 88.0812 79.7761 87.135 80.7203L67.4335 100.386C66.4873 101.33 64.9569 101.33 64.0108 100.386C63.0646 99.4416 63.0646 97.9143 64.0108 96.9701L83.7122 77.3045ZM66.3393 13.0115H72.144C75.3406 13.0115 78.2408 14.3089 80.3388 16.4069C82.441 18.5048 83.7411 21.3992 83.7411 24.585V59.6344C83.7411 60.9687 82.6592 62.0485 81.3221 62.0485C79.9851 62.0485 78.9031 60.9688 78.9031 59.6344V24.585C78.9031 22.7294 78.142 21.042 76.9202 19.8185C75.6942 18.595 74.0035 17.8355 72.1439 17.8355H67.9148C67.9354 18.3733 67.886 18.9111 67.775 19.4325C67.5611 20.4548 67.1167 21.4114 66.4503 22.2653C65.788 23.1152 64.9694 23.7803 64.0272 24.2401C63.081 24.6999 62.0566 24.938 60.9788 24.938H31.7621C30.6843 24.938 29.6599 24.6999 28.7138 24.2401C27.7717 23.7803 26.953 23.1193 26.2907 22.2653C25.6242 21.4114 25.1799 20.4548 24.966 19.4325C24.8549 18.907 24.8097 18.3733 24.8261 17.8355H20.5971C18.7376 17.8355 17.0468 18.595 15.8208 19.8185C14.5948 21.042 13.8379 22.7293 13.8379 24.585V91.8292C13.8379 93.6849 14.599 95.3723 15.8208 96.5958C17.0468 97.8193 18.7375 98.5747 20.5971 98.5747H50.7437C52.0807 98.5747 53.1627 99.6544 53.1627 100.989C53.1627 102.323 52.0808 103.403 50.7437 103.403H20.5971C17.4047 103.403 14.5002 102.105 12.4022 100.008C10.3 97.9096 9 95.0152 9 91.8294V24.5852C9 21.3993 10.3 18.5007 12.4022 16.407C14.5044 14.309 17.4047 13.0116 20.5971 13.0116H26.4018C27.9651 10.3266 30.4622 8.24927 33.4818 6.76712C37.2378 4.92374 41.8248 4 46.3704 4C50.9244 4 55.5074 4.92375 59.2589 6.76712C62.2785 8.25337 64.776 10.3306 66.3393 13.0115Z" fill="url(#paint0_linear_4057_12377)" stroke="#0F072A" stroke-width="0.969386"/>
<defs>
<linearGradient id="paint0_linear_4057_12377" x1="51.4995" y1="107" x2="51.4995" y2="4" gradientUnits="userSpaceOnUse">
<stop stop-color="#FEED7A"/>
<stop offset="0.0001" stop-color="#B55E00"/>
<stop offset="1" stop-color="#6036D4"/>
</linearGradient>
</defs>
</svg>
