<svg width="103" height="112" viewBox="0 0 103 112" fill="none" xmlns="http://www.w3.org/2000/svg">
<g opacity="0.998053">
<path d="M26.9463 30.127H62.7363C62.9803 30.127 63.1826 30.3293 63.1826 30.5732C63.1824 30.8186 62.9832 31.0186 62.7363 31.0186H26.9463C26.7025 31.0186 26.5002 30.817 26.5 30.5732C26.5 30.3293 26.7023 30.127 26.9463 30.127Z" fill="url(#paint0_linear_4057_12379)" stroke="url(#paint1_linear_4057_12379)" stroke-width="0.969386"/>
<path d="M26.9463 36.6992H62.7363C62.9803 36.6992 63.1826 36.9016 63.1826 37.1455C63.1824 37.3908 62.9832 37.5908 62.7363 37.5908H26.9463C26.7025 37.5908 26.5002 37.3893 26.5 37.1455C26.5 36.9016 26.7023 36.6992 26.9463 36.6992Z" fill="url(#paint2_linear_4057_12379)" stroke="url(#paint3_linear_4057_12379)" stroke-width="0.969386"/>
<path d="M26.9463 43.2695H62.7363C62.9803 43.2695 63.1826 43.4719 63.1826 43.7158C63.1824 43.9611 62.9832 44.1611 62.7363 44.1611H26.9463C26.7025 44.1611 26.5002 43.9596 26.5 43.7158C26.5 43.4719 26.7023 43.2695 26.9463 43.2695Z" fill="url(#paint4_linear_4057_12379)" stroke="url(#paint5_linear_4057_12379)" stroke-width="0.969386"/>
<path d="M26.9463 49.8438H62.7363C62.9803 49.8438 63.1826 50.0461 63.1826 50.29C63.1824 50.5354 62.9832 50.7354 62.7363 50.7354H26.9463C26.7025 50.7354 26.5002 50.5338 26.5 50.29C26.5 50.0461 26.7023 49.8438 26.9463 49.8438Z" fill="url(#paint6_linear_4057_12379)" stroke="url(#paint7_linear_4057_12379)" stroke-width="0.969386"/>
<path d="M26.9463 56.418H62.7363C62.9803 56.418 63.1826 56.6203 63.1826 56.8643C63.1824 57.1096 62.9832 57.3096 62.7363 57.3096H26.9463C26.7025 57.3096 26.5002 57.108 26.5 56.8643C26.5 56.6203 26.7023 56.418 26.9463 56.418Z" fill="url(#paint8_linear_4057_12379)" stroke="url(#paint9_linear_4057_12379)" stroke-width="0.969386"/>
<path d="M26.9463 62.9922H49.8486C50.0924 62.9924 50.2939 63.1947 50.2939 63.4385C50.2937 63.6821 50.0922 63.8836 49.8486 63.8838H26.9463C26.7025 63.8838 26.5002 63.6822 26.5 63.4385C26.5 63.1945 26.7023 62.9922 26.9463 62.9922Z" fill="url(#paint10_linear_4057_12379)" stroke="url(#paint11_linear_4057_12379)" stroke-width="0.969386"/>
<path d="M10.4834 11.4932C12.4667 11.4234 14.3344 12.0878 15.8037 13.375L16.0928 13.6416C17.6073 15.1036 18.4374 17.0613 18.4375 19.167V26.1055H7.52734C5.07875 26.1055 3.08594 24.1136 3.08594 21.665V19.3398C3.08594 15.1536 6.41495 11.6373 10.4834 11.4932ZM10.7646 12.376C10.6875 12.376 10.5984 12.3752 10.5029 12.3809C6.88622 12.5178 3.97754 15.644 3.97754 19.335V21.6602C3.97754 23.6213 5.57176 25.21 7.52734 25.21H17.5469V19.1631C17.5469 17.3059 16.8097 15.5704 15.4736 14.2793H15.4727C14.1965 13.0482 12.5321 12.376 10.7646 12.376Z" fill="url(#paint12_linear_4057_12379)" stroke="url(#paint13_linear_4057_12379)" stroke-width="0.969386"/>
<path d="M65.6562 11.501C69.6614 11.7519 72.8457 15.0912 72.8457 19.1631V25.1758H71.9541V19.1631C71.9541 15.5843 69.169 12.6441 65.6562 12.3945V11.501Z" fill="url(#paint14_linear_4057_12379)" stroke="url(#paint15_linear_4057_12379)" stroke-width="0.969386"/>
<path d="M64.6904 11.4844V12.376H11.25V11.4844H64.6904Z" fill="url(#paint16_linear_4057_12379)" stroke="url(#paint17_linear_4057_12379)" stroke-width="0.969386"/>
<path d="M49.1885 77.2461H95.6025C98.051 77.2463 100.043 79.239 100.043 81.6875V85.4639C100.047 93.0477 94.0096 99.2482 86.4873 99.5049V98.6133C93.5171 98.3572 99.1562 92.56 99.1562 85.4688V81.6924C99.1562 79.7312 97.562 78.1426 95.6064 78.1426H49.1924C47.2314 78.1428 45.6426 79.7369 45.6426 81.6924V85.1992C45.6425 89.0357 44.0633 92.7905 41.3047 95.4951C38.6756 98.0762 35.2577 99.496 31.6709 99.5127L31.3232 99.5098L30.9678 99.498C23.7007 99.1751 17.8091 93.2094 17.5566 85.9492H18.4482C18.7038 92.8497 24.3837 98.4859 31.3369 98.6182H31.3379C34.8043 98.6762 38.1389 97.3461 40.6768 94.8564C43.2618 92.3196 44.7471 88.7998 44.7471 85.1943V81.6875C44.7471 79.2389 46.7399 77.2461 49.1885 77.2461Z" fill="url(#paint18_linear_4057_12379)" stroke="url(#paint19_linear_4057_12379)" stroke-width="0.969386"/>
<path d="M85.5264 98.625V99.5166H32.0859V98.625H85.5264Z" fill="url(#paint20_linear_4057_12379)" stroke="url(#paint21_linear_4057_12379)" stroke-width="0.969386"/>
<path d="M18.4385 19.6484V85.0889H17.5469V19.6484H18.4385Z" fill="url(#paint22_linear_4057_12379)" stroke="url(#paint23_linear_4057_12379)" stroke-width="0.969386"/>
<path d="M72.8447 26.1445V77.2129H71.9531V26.1445H72.8447Z" fill="url(#paint24_linear_4057_12379)" stroke="url(#paint25_linear_4057_12379)" stroke-width="0.969386"/>
</g>
<defs>
<linearGradient id="paint0_linear_4057_12379" x1="44.841" y1="31.503" x2="44.841" y2="29.6426" gradientUnits="userSpaceOnUse">
<stop stop-color="#FEED7A"/>
<stop stop-color="#B55E00"/>
<stop offset="1" stop-color="#6036D4"/>
</linearGradient>
<linearGradient id="paint1_linear_4057_12379" x1="44.8412" y1="29.6426" x2="44.8412" y2="31.503" gradientUnits="userSpaceOnUse">
<stop stop-color="#FEED7A" stop-opacity="0.4"/>
<stop offset="0.0001" stop-color="#B55E00"/>
<stop offset="1" stop-color="#6036D4"/>
</linearGradient>
<linearGradient id="paint2_linear_4057_12379" x1="44.841" y1="38.0753" x2="44.841" y2="36.2148" gradientUnits="userSpaceOnUse">
<stop stop-color="#FEED7A"/>
<stop stop-color="#B55E00"/>
<stop offset="1" stop-color="#6036D4"/>
</linearGradient>
<linearGradient id="paint3_linear_4057_12379" x1="44.8412" y1="36.2148" x2="44.8412" y2="38.0753" gradientUnits="userSpaceOnUse">
<stop stop-color="#FEED7A" stop-opacity="0.4"/>
<stop offset="0.0001" stop-color="#B55E00"/>
<stop offset="1" stop-color="#6036D4"/>
</linearGradient>
<linearGradient id="paint4_linear_4057_12379" x1="44.841" y1="44.6456" x2="44.841" y2="42.7852" gradientUnits="userSpaceOnUse">
<stop stop-color="#FEED7A"/>
<stop stop-color="#B55E00"/>
<stop offset="1" stop-color="#6036D4"/>
</linearGradient>
<linearGradient id="paint5_linear_4057_12379" x1="44.8412" y1="42.7852" x2="44.8412" y2="44.6456" gradientUnits="userSpaceOnUse">
<stop stop-color="#FEED7A" stop-opacity="0.4"/>
<stop offset="0.0001" stop-color="#B55E00"/>
<stop offset="1" stop-color="#6036D4"/>
</linearGradient>
<linearGradient id="paint6_linear_4057_12379" x1="44.841" y1="51.2198" x2="44.841" y2="49.3594" gradientUnits="userSpaceOnUse">
<stop stop-color="#FEED7A"/>
<stop stop-color="#B55E00"/>
<stop offset="1" stop-color="#6036D4"/>
</linearGradient>
<linearGradient id="paint7_linear_4057_12379" x1="44.8412" y1="49.3594" x2="44.8412" y2="51.2198" gradientUnits="userSpaceOnUse">
<stop stop-color="#FEED7A" stop-opacity="0.4"/>
<stop offset="0.0001" stop-color="#B55E00"/>
<stop offset="1" stop-color="#6036D4"/>
</linearGradient>
<linearGradient id="paint8_linear_4057_12379" x1="44.841" y1="57.7941" x2="44.841" y2="55.9336" gradientUnits="userSpaceOnUse">
<stop stop-color="#FEED7A"/>
<stop stop-color="#B55E00"/>
<stop offset="1" stop-color="#6036D4"/>
</linearGradient>
<linearGradient id="paint9_linear_4057_12379" x1="44.8412" y1="55.9336" x2="44.8412" y2="57.7941" gradientUnits="userSpaceOnUse">
<stop stop-color="#FEED7A" stop-opacity="0.4"/>
<stop offset="0.0001" stop-color="#B55E00"/>
<stop offset="1" stop-color="#6036D4"/>
</linearGradient>
<linearGradient id="paint10_linear_4057_12379" x1="38.3969" y1="64.3683" x2="38.3969" y2="62.5078" gradientUnits="userSpaceOnUse">
<stop stop-color="#FEED7A"/>
<stop stop-color="#B55E00"/>
<stop offset="1" stop-color="#6036D4"/>
</linearGradient>
<linearGradient id="paint11_linear_4057_12379" x1="38.397" y1="62.5078" x2="38.397" y2="64.3683" gradientUnits="userSpaceOnUse">
<stop stop-color="#FEED7A" stop-opacity="0.4"/>
<stop offset="0.0001" stop-color="#B55E00"/>
<stop offset="1" stop-color="#6036D4"/>
</linearGradient>
<linearGradient id="paint12_linear_4057_12379" x1="10.7619" y1="26.5906" x2="10.7619" y2="11.0039" gradientUnits="userSpaceOnUse">
<stop stop-color="#FEED7A"/>
<stop stop-color="#B55E00"/>
<stop offset="1" stop-color="#6036D4"/>
</linearGradient>
<linearGradient id="paint13_linear_4057_12379" x1="10.762" y1="11.0039" x2="10.762" y2="26.5906" gradientUnits="userSpaceOnUse">
<stop stop-color="#FEED7A" stop-opacity="0.4"/>
<stop offset="0.0001" stop-color="#B55E00"/>
<stop offset="1" stop-color="#6036D4"/>
</linearGradient>
<linearGradient id="paint14_linear_4057_12379" x1="69.2509" y1="25.6605" x2="69.2509" y2="11" gradientUnits="userSpaceOnUse">
<stop stop-color="#FEED7A"/>
<stop stop-color="#B55E00"/>
<stop offset="1" stop-color="#6036D4"/>
</linearGradient>
<linearGradient id="paint15_linear_4057_12379" x1="69.2509" y1="11" x2="69.2509" y2="25.6605" gradientUnits="userSpaceOnUse">
<stop stop-color="#FEED7A" stop-opacity="0.4"/>
<stop offset="0.0001" stop-color="#B55E00"/>
<stop offset="1" stop-color="#6036D4"/>
</linearGradient>
<linearGradient id="paint16_linear_4057_12379" x1="37.97" y1="12.8605" x2="37.97" y2="11" gradientUnits="userSpaceOnUse">
<stop stop-color="#FEED7A"/>
<stop stop-color="#B55E00"/>
<stop offset="1" stop-color="#6036D4"/>
</linearGradient>
<linearGradient id="paint17_linear_4057_12379" x1="37.9703" y1="11" x2="37.9703" y2="12.8605" gradientUnits="userSpaceOnUse">
<stop stop-color="#FEED7A" stop-opacity="0.4"/>
<stop offset="0.0001" stop-color="#B55E00"/>
<stop offset="1" stop-color="#6036D4"/>
</linearGradient>
<linearGradient id="paint18_linear_4057_12379" x1="58.7946" y1="99.999" x2="58.7946" y2="76.7617" gradientUnits="userSpaceOnUse">
<stop stop-color="#FEED7A"/>
<stop stop-color="#B55E00"/>
<stop offset="1" stop-color="#6036D4"/>
</linearGradient>
<linearGradient id="paint19_linear_4057_12379" x1="58.7951" y1="76.7617" x2="58.7951" y2="99.999" gradientUnits="userSpaceOnUse">
<stop stop-color="#FEED7A" stop-opacity="0.4"/>
<stop offset="0.0001" stop-color="#B55E00"/>
<stop offset="1" stop-color="#6036D4"/>
</linearGradient>
<linearGradient id="paint20_linear_4057_12379" x1="58.8059" y1="100.001" x2="58.8059" y2="98.1406" gradientUnits="userSpaceOnUse">
<stop stop-color="#FEED7A"/>
<stop stop-color="#B55E00"/>
<stop offset="1" stop-color="#6036D4"/>
</linearGradient>
<linearGradient id="paint21_linear_4057_12379" x1="58.8063" y1="98.1406" x2="58.8063" y2="100.001" gradientUnits="userSpaceOnUse">
<stop stop-color="#FEED7A" stop-opacity="0.4"/>
<stop offset="0.0001" stop-color="#B55E00"/>
<stop offset="1" stop-color="#6036D4"/>
</linearGradient>
<linearGradient id="paint22_linear_4057_12379" x1="17.9927" y1="85.5735" x2="17.9927" y2="19.1641" gradientUnits="userSpaceOnUse">
<stop stop-color="#FEED7A"/>
<stop stop-color="#B55E00"/>
<stop offset="1" stop-color="#6036D4"/>
</linearGradient>
<linearGradient id="paint23_linear_4057_12379" x1="17.9927" y1="19.1641" x2="17.9927" y2="85.5735" gradientUnits="userSpaceOnUse">
<stop stop-color="#FEED7A" stop-opacity="0.4"/>
<stop offset="0.0001" stop-color="#B55E00"/>
<stop offset="1" stop-color="#6036D4"/>
</linearGradient>
<linearGradient id="paint24_linear_4057_12379" x1="72.399" y1="77.6974" x2="72.399" y2="25.6602" gradientUnits="userSpaceOnUse">
<stop stop-color="#FEED7A"/>
<stop stop-color="#B55E00"/>
<stop offset="1" stop-color="#6036D4"/>
</linearGradient>
<linearGradient id="paint25_linear_4057_12379" x1="72.399" y1="25.6602" x2="72.399" y2="77.6974" gradientUnits="userSpaceOnUse">
<stop stop-color="#FEED7A" stop-opacity="0.4"/>
<stop offset="0.0001" stop-color="#B55E00"/>
<stop offset="1" stop-color="#6036D4"/>
</linearGradient>
</defs>
</svg>
