<svg width="103" height="112" viewBox="0 0 103 112" fill="none" xmlns="http://www.w3.org/2000/svg">
<g opacity="0.998053">
<path d="M52.0209 33.125C39.3694 33.125 29.2188 43.4227 29.2188 55.9271C29.2188 68.5786 39.5165 78.7292 52.0209 78.7292C64.5252 78.7292 74.823 68.4315 74.823 55.9271C74.823 43.2756 64.6723 33.125 52.0209 33.125ZM69.2328 45.9236C67.1732 47.2476 64.231 48.1303 61.2888 48.5716C60.7004 43.8641 59.3764 39.5979 57.611 36.8028C62.4657 38.2739 66.5848 41.5103 69.2328 45.9236ZM71.8807 55.9271C71.8807 57.5453 71.7336 59.0164 71.2923 60.4875C69.6741 62.8413 65.4079 64.3124 60.8475 65.0479C61.2888 62.1057 61.583 59.0164 61.583 55.9271C61.583 54.456 61.583 52.9849 61.4359 51.5138C64.8195 50.9254 67.9088 49.8956 70.4096 48.5716C71.4394 50.9254 71.8807 53.2791 71.8807 55.9271ZM52.0209 75.787C50.2555 75.787 48.196 72.9919 47.0191 68.4315C50.844 68.8728 53.492 68.7257 57.1697 68.4315C55.8457 72.9919 53.7862 75.787 52.0209 75.787ZM46.2836 65.4893C45.6951 62.6942 45.4009 59.4578 45.4009 55.9271C45.4009 54.6031 45.4009 53.2791 45.548 51.9551C49.8142 52.5436 53.9333 52.5436 58.6408 51.9551C58.7879 53.2791 58.7879 54.456 58.7879 55.9271C58.7879 59.4578 58.4937 62.6942 57.9053 65.4893C53.7862 65.9306 50.2555 65.9306 46.2836 65.4893ZM32.7494 60.4875C32.4552 59.0164 32.161 57.5453 32.161 55.9271C32.161 53.2791 32.7494 50.9254 33.6321 48.5716C35.8387 49.8956 38.928 50.9254 42.6058 51.5138C42.4587 52.9849 42.4587 54.456 42.4587 55.9271C42.4587 59.0164 42.7529 62.1057 43.1942 65.0479C38.6338 64.1653 34.3676 62.6942 32.7494 60.4875ZM52.0209 36.0672C54.5217 36.0672 57.1697 41.3632 58.1995 49.16C53.7862 49.7485 49.8142 49.6014 45.6951 49.16C46.872 41.3632 49.52 36.0672 52.0209 36.0672ZM46.5778 36.8028C44.8124 39.745 43.4885 44.0112 42.9 48.5716C39.6636 47.9831 36.8685 46.9534 34.9561 45.9236C37.4569 41.5103 41.576 38.2739 46.5778 36.8028ZM34.6618 65.4893C37.4569 66.8133 40.8405 67.5488 43.7827 67.9902C44.5182 70.7852 45.4009 73.139 46.5778 74.9043C41.4289 73.5803 37.1627 70.0497 34.6618 65.4893ZM57.4639 75.0514C58.6408 73.139 59.5235 70.7852 60.259 68.1373C63.3483 67.6959 66.7319 66.9604 69.3799 65.6364C66.879 70.0497 62.6128 73.5803 57.4639 75.0514Z" fill="url(#paint0_linear_4057_12481)"/>
<path d="M89.828 46.6585C88.6511 46.6585 87.6213 46.9527 86.5916 47.2469L76.7352 30.3292C78.7947 28.5639 80.1187 26.063 80.1187 23.268C80.1187 18.1191 75.9996 14 70.8507 14C66.2903 14 62.4655 17.3835 61.7299 21.7968H42.3113C41.5758 17.3835 37.7509 14 33.1905 14C28.0416 14 23.9225 18.1191 23.9225 23.268C23.9225 26.2102 25.2465 28.711 27.3061 30.4764L17.4497 47.2469C16.4199 46.8056 15.3901 46.6585 14.2133 46.6585C9.0644 46.6585 4.94531 50.7776 4.94531 55.9264C4.94531 61.0753 9.0644 65.1944 14.2133 65.1944C15.3901 65.1944 16.4199 64.9002 17.4497 64.606L27.159 81.5236C25.0994 83.289 23.7754 85.7898 23.7754 88.732C23.7754 93.8809 27.8945 98 33.0434 98C37.6038 98 41.4287 94.6165 42.1642 90.2031H61.5828C62.3183 94.6165 66.1432 98 70.7036 98C75.8525 98 79.9716 93.8809 79.9716 88.732C79.9716 85.937 78.6476 83.289 76.5881 81.6708L86.4444 64.7531C87.4742 65.1944 88.6511 65.3415 89.6809 65.3415C94.8297 65.3415 98.9488 61.2224 98.9488 56.0736C99.0959 50.7776 94.9768 46.6585 89.828 46.6585ZM70.8507 16.7951C74.3814 16.7951 77.1765 19.5902 77.1765 23.1208C77.1765 26.6515 74.3814 29.4466 70.8507 29.4466C67.3201 29.4466 64.525 26.6515 64.525 23.1208C64.525 19.5902 67.3201 16.7951 70.8507 16.7951ZM33.0434 16.7951C36.574 16.7951 39.3691 19.5902 39.3691 23.1208C39.3691 26.6515 36.574 29.4466 33.0434 29.4466C29.5127 29.4466 26.7176 26.6515 26.7176 23.1208C26.7176 19.5902 29.6599 16.7951 33.0434 16.7951ZM7.88752 55.9264C7.88752 52.3958 10.6826 49.6007 14.2133 49.6007C17.7439 49.6007 20.539 52.3958 20.539 55.9264C20.539 59.4571 17.7439 62.2522 14.2133 62.2522C10.6826 62.2522 7.88752 59.4571 7.88752 55.9264ZM33.0434 95.0578C29.5127 95.0578 26.7176 92.2627 26.7176 88.732C26.7176 85.2014 29.5127 82.4063 33.0434 82.4063C36.574 82.4063 39.3691 85.2014 39.3691 88.732C39.3691 92.1156 36.574 95.0578 33.0434 95.0578ZM70.8507 95.0578C67.3201 95.0578 64.525 92.2627 64.525 88.732C64.525 85.2014 67.3201 82.4063 70.8507 82.4063C74.3814 82.4063 77.1765 85.2014 77.1765 88.732C77.1765 92.1156 74.3814 95.0578 70.8507 95.0578ZM74.2343 80.0525C73.2045 79.6112 72.0276 79.4641 70.8507 79.4641C66.2903 79.4641 62.4655 82.8476 61.7299 87.2609H42.3113C41.5758 82.8476 37.7509 79.4641 33.1905 79.4641C32.0136 79.4641 30.9838 79.7583 29.9541 80.0525L20.2448 63.1349C22.3043 61.3695 23.6283 58.8687 23.6283 55.9264C23.6283 52.9842 22.3043 50.4834 20.2448 48.718L29.9541 31.8004C30.9838 32.2417 32.0136 32.3888 33.1905 32.3888C37.7509 32.3888 41.5758 29.0053 42.3113 24.5919H61.7299C62.4655 29.0053 66.2903 32.3888 70.8507 32.3888C72.0276 32.3888 73.2045 32.0946 74.2343 31.8004L84.0907 48.718C82.0311 50.4834 80.7071 52.9842 80.7071 55.9264C80.7071 58.8687 82.0311 61.3695 84.0907 63.1349L74.2343 80.0525ZM89.828 62.2522C86.2973 62.2522 83.5022 59.4571 83.5022 55.9264C83.5022 52.3958 86.2973 49.6007 89.828 49.6007C93.3586 49.6007 96.1537 52.3958 96.1537 55.9264C96.1537 59.4571 93.3586 62.2522 89.828 62.2522Z" fill="url(#paint1_linear_4057_12481)"/>
</g>
<defs>
<linearGradient id="paint0_linear_4057_12481" x1="52.0206" y1="78.7292" x2="52.0206" y2="33.125" gradientUnits="userSpaceOnUse">
<stop stop-color="#FEED7A"/>
<stop offset="0.0001" stop-color="#B55E00"/>
<stop offset="1" stop-color="#6036D4"/>
</linearGradient>
<linearGradient id="paint1_linear_4057_12481" x1="51.9484" y1="98" x2="51.9484" y2="14" gradientUnits="userSpaceOnUse">
<stop stop-color="#FEED7A"/>
<stop offset="0.0001" stop-color="#B55E00"/>
<stop offset="1" stop-color="#6036D4"/>
</linearGradient>
</defs>
</svg>
