<svg width="103" height="112" viewBox="0 0 103 112" fill="none" xmlns="http://www.w3.org/2000/svg">
<g opacity="0.998053">
<path d="M8.56569 62.134H40.7658C40.7658 63.417 41.3264 64.6353 42.3003 65.4726L54.9826 76.405C56.2871 77.519 58.1236 77.7706 59.6832 77.0519C61.2393 76.3295 62.2348 74.7698 62.2348 73.052V71.3737C81.9504 72.3727 88.085 92.577 89.5257 98.8772C89.8599 100.315 90.9489 101.454 92.3683 101.849C93.7879 102.248 95.308 101.842 96.3394 100.789C97.1121 100.002 97.529 98.9312 97.5002 97.8278V97.8206C97.0222 78.806 91.4448 67.6795 84.3147 61.2542C84.9041 60.6792 85.2347 59.8886 85.2347 59.0656V13.0655C85.2347 12.2533 84.9113 11.4734 84.3363 10.8984C83.7613 10.3234 82.9814 10 82.1656 10H8.56545C6.87283 10 5.5 11.3728 5.5 13.0654V59.0656C5.5 59.8814 5.82344 60.6612 6.39844 61.2362C6.97344 61.8112 7.75351 62.134 8.56569 62.134ZM94.435 97.8918C94.4422 98.1721 94.338 98.4452 94.1439 98.6428C93.896 98.8944 93.533 98.9914 93.1952 98.898C92.8574 98.8046 92.5951 98.535 92.5088 98.1936C90.906 91.175 83.9053 68.265 60.7007 68.265C59.8525 68.265 59.1661 68.9514 59.1661 69.7996V73.052C59.1733 73.5803 58.8642 74.0619 58.3827 74.2774C57.9191 74.5002 57.3656 74.4212 56.9775 74.0798L44.299 63.1511C44.0043 62.8959 43.8318 62.5257 43.8318 62.134C43.8318 61.7459 44.0043 61.3721 44.299 61.1205L56.9775 50.1881C57.3621 49.8431 57.9191 49.7641 58.3827 49.9905C58.8678 50.2061 59.1733 50.6877 59.1697 51.2159V54.4646C59.1697 54.8707 59.3314 55.2625 59.6189 55.55C59.9064 55.8375 60.2945 55.9992 60.7007 55.9992C75.6111 55.9992 93.562 63.2696 94.435 97.8918ZM68.4956 52.934H62.2352V51.2197C62.2388 49.4983 61.2398 47.9351 59.6801 47.2163C58.1204 46.4939 56.284 46.7455 54.9759 47.8631L49.1001 52.9339H22.2369C21.989 51.4856 21.4068 50.12 20.5263 48.9449C19.1176 47.0545 17.0295 45.7824 14.7008 45.3942V26.732C16.1455 26.4876 17.5147 25.9054 18.6863 25.0249C20.5802 23.6162 21.8524 21.5282 22.2369 19.1994H68.4992C69.1461 23.0591 72.1721 26.0851 76.0354 26.7356V45.3978C74.5871 45.6422 73.2214 46.228 72.0463 47.1049C70.156 48.5173 68.8837 50.6053 68.4956 52.934ZM8.56569 13.0648H82.1659V59.0649H81.5801C78.4715 56.8799 75 55.2627 71.3239 54.2924C71.3994 54.1019 71.4497 53.9042 71.4784 53.703C71.6797 52.0498 72.553 50.5513 73.8863 49.5594C74.7524 48.9161 75.773 48.5065 76.8476 48.377C78.145 48.1829 79.1009 47.0689 79.1009 45.7571V26.3764C79.0973 25.0538 78.1269 23.9362 76.8224 23.7493C74.0228 23.4115 71.8199 21.2049 71.4784 18.4054C71.2916 17.1008 70.1775 16.1341 68.8586 16.1341H21.8777C20.5516 16.1376 19.4303 17.1187 19.2506 18.4341C19.0494 20.0836 18.1797 21.5786 16.8464 22.5741C15.9803 23.2174 14.9597 23.6234 13.8851 23.7528C12.5914 23.9504 11.6318 25.0645 11.6354 26.3763V45.757C11.639 47.0831 12.6201 48.2044 13.9354 48.3805C15.585 48.5854 17.08 49.4515 18.0754 50.7847C18.7187 51.6508 19.1248 52.6715 19.2541 53.7461C19.4518 55.0434 20.5659 55.9993 21.8776 55.9993H45.5465L42.3014 58.7989C42.208 58.8815 42.1361 58.9786 42.0498 59.0684L8.56634 59.0648L8.56569 13.0648Z" fill="url(#paint0_linear_4057_12453)"/>
<path d="M45.3648 25.334C41.0235 25.334 37.1099 27.9466 35.45 31.9573C33.7896 35.9679 34.7061 40.5859 37.7751 43.6551C40.8477 46.7241 45.4622 47.6441 49.4729 45.9838C53.4836 44.3199 56.0998 40.4063 56.0998 36.0653C56.0926 30.1427 51.2909 25.3413 45.3648 25.334ZM45.3648 43.734C42.2634 43.734 39.4711 41.8653 38.2816 39.0011C37.0956 36.1368 37.7533 32.8378 39.9455 30.6456C42.1376 28.4534 45.4368 27.7957 48.3009 28.9817C51.1652 30.1713 53.0339 32.9636 53.0339 36.065C53.0267 40.2985 49.5982 43.7269 45.3648 43.734Z" fill="url(#paint1_linear_4057_12453)"/>
</g>
<defs>
<linearGradient id="paint0_linear_4057_12453" x1="51.5002" y1="102" x2="51.5002" y2="10" gradientUnits="userSpaceOnUse">
<stop stop-color="#FEED7A"/>
<stop offset="0.0001" stop-color="#B55E00"/>
<stop offset="1" stop-color="#6036D4"/>
</linearGradient>
<linearGradient id="paint1_linear_4057_12453" x1="45.3662" y1="46.8" x2="45.3662" y2="25.334" gradientUnits="userSpaceOnUse">
<stop stop-color="#FEED7A"/>
<stop offset="0.0001" stop-color="#B55E00"/>
<stop offset="1" stop-color="#6036D4"/>
</linearGradient>
</defs>
</svg>
