<svg width="103" height="112" viewBox="0 0 103 112" fill="none" xmlns="http://www.w3.org/2000/svg">
<g opacity="0.998053">
<path d="M4 19.575C4 13.7367 8.73666 9 14.575 9H52.175C58.0133 9 62.75 13.7367 62.75 19.575V28.975H60.4V19.575C60.4 15.031 56.719 11.35 52.175 11.35H14.575C10.031 11.35 6.35 15.031 6.35 19.575V92.425C6.35 96.969 10.031 100.65 14.575 100.65H52.175C56.719 100.65 60.4 96.969 60.4 92.425V80.675H62.75V92.425C62.75 98.2633 58.0133 103 52.175 103H14.575C8.73666 103 4 98.2633 4 92.425V19.575Z" fill="url(#paint0_linear_4057_12436)"/>
<path fill-rule="evenodd" clip-rule="evenodd" d="M33.3766 13.6992C31.4305 13.6992 29.8516 15.2782 29.8516 17.2242C29.8516 19.1703 31.4305 20.7492 33.3766 20.7492C35.3226 20.7492 36.9016 19.1703 36.9016 17.2242C36.9016 15.2782 35.3226 13.6992 33.3766 13.6992ZM32.2016 17.2242C32.2016 16.5771 32.7294 16.0492 33.3766 16.0492C34.0237 16.0492 34.5516 16.5771 34.5516 17.2242C34.5516 17.8714 34.0237 18.3992 33.3766 18.3992C32.7294 18.3992 32.2016 17.8714 32.2016 17.2242Z" fill="url(#paint1_linear_4057_12436)"/>
<path fill-rule="evenodd" clip-rule="evenodd" d="M81.5484 60.6992C79.6024 60.6992 78.0234 62.2782 78.0234 64.2242V66.5742C78.0234 68.5203 79.6024 70.0992 81.5484 70.0992H83.8984C85.8445 70.0992 87.4234 68.5203 87.4234 66.5742V64.2242C87.4234 62.2782 85.8445 60.6992 83.8984 60.6992H81.5484ZM80.3734 64.2242C80.3734 63.5771 80.9013 63.0492 81.5484 63.0492H83.8984C84.5456 63.0492 85.0734 63.5771 85.0734 64.2242V66.5742C85.0734 67.2214 84.5456 67.7492 83.8984 67.7492H81.5484C80.9013 67.7492 80.3734 67.2214 80.3734 66.5742V64.2242Z" fill="url(#paint2_linear_4057_12436)"/>
<path fill-rule="evenodd" clip-rule="evenodd" d="M42.7781 31.3242C37.5273 31.3242 33.1715 35.1476 32.3454 40.1642C32.2536 40.3294 32.2031 40.5222 32.2031 40.7242V67.7492C32.2031 73.5875 36.9398 78.3242 42.7781 78.3242H87.4281C93.2665 78.3242 98.0031 73.5875 98.0031 67.7492V40.7242C98.0031 40.5222 97.9526 40.3294 97.8608 40.1642C97.0347 35.1476 92.6789 31.3242 87.4281 31.3242H42.7781ZM42.7781 33.6742C39.0511 33.6742 35.9071 36.1528 34.8928 39.5492H95.3136C94.2993 36.1528 91.1552 33.6742 87.4283 33.6742H42.7781ZM34.5531 67.7492V55.9992H95.6531V67.7492C95.6531 72.2932 91.9721 75.9742 87.4281 75.9742H42.7781C38.2342 75.9742 34.5531 72.2932 34.5531 67.7492ZM95.6531 41.8992V53.6492H34.5531V41.8992H95.6531Z" fill="url(#paint3_linear_4057_12436)"/>
</g>
<defs>
<linearGradient id="paint0_linear_4057_12436" x1="33.3746" y1="103" x2="33.3746" y2="9" gradientUnits="userSpaceOnUse">
<stop stop-color="#FEED7A"/>
<stop offset="0.0001" stop-color="#B55E00"/>
<stop offset="1" stop-color="#6036D4"/>
</linearGradient>
<linearGradient id="paint1_linear_4057_12436" x1="33.3765" y1="20.7492" x2="33.3765" y2="13.6992" gradientUnits="userSpaceOnUse">
<stop stop-color="#FEED7A"/>
<stop offset="0.0001" stop-color="#B55E00"/>
<stop offset="1" stop-color="#6036D4"/>
</linearGradient>
<linearGradient id="paint2_linear_4057_12436" x1="82.7234" y1="70.0992" x2="82.7234" y2="60.6992" gradientUnits="userSpaceOnUse">
<stop stop-color="#FEED7A"/>
<stop offset="0.0001" stop-color="#B55E00"/>
<stop offset="1" stop-color="#6036D4"/>
</linearGradient>
<linearGradient id="paint3_linear_4057_12436" x1="65.1027" y1="78.3242" x2="65.1027" y2="31.3242" gradientUnits="userSpaceOnUse">
<stop stop-color="#FEED7A"/>
<stop offset="0.0001" stop-color="#B55E00"/>
<stop offset="1" stop-color="#6036D4"/>
</linearGradient>
</defs>
</svg>
