<svg width="21" height="21" viewBox="0 0 21 21" fill="none" xmlns="http://www.w3.org/2000/svg">
<path d="M12.2312 10.5L20.9367 0.421933C21.0826 0.254448 20.9599 0 20.7344 0H18.0879C17.9321 0 17.7828 0.0676379 17.68 0.183589L10.5 8.49662L3.31999 0.183589C3.22049 0.0676379 3.07126 0 2.91207 0H0.265578C0.0400627 0 -0.0826445 0.254448 0.0632773 0.421933L8.76884 10.5L0.0632773 20.5781C0.0305895 20.6154 0.00961902 20.6611 0.00285477 20.7096C-0.00390948 20.7582 0.00381662 20.8076 0.0251166 20.852C0.0464166 20.8965 0.0803958 20.934 0.123019 20.9602C0.165643 20.9865 0.21512 21.0003 0.265578 21H2.91207C3.06794 21 3.21718 20.9324 3.31999 20.8164L10.5 12.5034L17.68 20.8164C17.7795 20.9324 17.9287 21 18.0879 21H20.7344C20.9599 21 21.0826 20.7456 20.9367 20.5781L12.2312 10.5Z" fill="#BABABA"/>
</svg>
