<svg width="108" height="35" viewBox="0 0 108 35" fill="none" xmlns="http://www.w3.org/2000/svg">
<path d="M25.0423 12.5382L24.9791 13.4541H19.5469V11.2275H27.3794V12.9172L21.805 20.7023L21.4103 19.7549H27.4426V21.9814H19.4363V20.276L25.0423 12.5382Z" fill="white"/>
<rect width="34.23" height="35" rx="2.31573" fill="#4F31B4"/>
<path d="M8.78857 9.97559H25.4842L17.4508 22.6575" stroke="#B4A1F2" stroke-width="3.02531"/>
<rect x="15.2107" y="20.7373" width="5.49609" height="1.95678" fill="#4F31B4"/>
<path d="M23.8435 24.2285L8.86825 24.1971L16.5126 12.3564" stroke="white" stroke-width="2.72897"/>
<rect x="18.5312" y="13.4209" width="4.34104" height="1.86833" transform="rotate(180 18.5312 13.4209)" fill="#4F31B4"/>
<path d="M40.0078 25.8869V22.3635L48.1568 13.3084H40.3668V9.32695H54.4391V12.8503L46.2183 21.9054H54.798V25.8869H40.0078Z" fill="#4F31B4"/>
<path d="M60.6997 32.5108C59.886 32.5108 59.0603 32.4169 58.2227 32.229C57.3851 32.0411 56.691 31.8062 56.1406 31.5243L57.4688 27.8952C57.8996 28.0596 58.3543 28.2006 58.833 28.318C59.3356 28.4589 59.8262 28.5294 60.3048 28.5294C60.7117 28.5294 61.0946 28.4707 61.4536 28.3532C61.8365 28.2358 62.1835 28.0596 62.4946 27.8247C62.8297 27.6133 63.1169 27.3432 63.3562 27.0144L56.5355 9.32695H61.8485L65.6896 21.3417L69.5667 9.32695H74.8438L68.4179 25.8869C67.8196 27.4841 67.1136 28.7643 66.2999 29.7274C65.5101 30.7139 64.6366 31.4186 63.6793 31.8414C62.7459 32.2877 61.7527 32.5108 60.6997 32.5108Z" fill="#4F31B4"/>
<path d="M77.4691 25.8869V9.32695H82.1718V11.8286C82.6505 10.842 83.2727 10.1491 84.0386 9.74975C84.8044 9.32695 85.654 9.11555 86.5874 9.11555C86.8985 9.11555 87.1737 9.13903 87.413 9.18601C87.6763 9.2095 87.8797 9.25648 88.0233 9.32695V13.9778C87.6883 13.9074 87.3412 13.8486 86.9823 13.8017C86.6472 13.7547 86.3002 13.7312 85.9412 13.7312C84.96 13.7312 84.1223 14.0835 83.4283 14.7882C82.7582 15.4929 82.4231 16.5264 82.4231 17.8888V25.8869H77.4691Z" fill="#4F31B4"/>
<path d="M98.7012 26.2392C96.9063 26.2392 95.3028 25.8869 93.8908 25.1822C92.5027 24.454 91.4138 23.444 90.624 22.1521C89.8342 20.8367 89.4393 19.3216 89.4393 17.6069C89.4393 15.8687 89.8342 14.3536 90.624 13.0617C91.4138 11.7698 92.5027 10.7715 93.8908 10.0669C95.2789 9.33869 96.8823 8.97461 98.7012 8.97461C100.52 8.97461 102.124 9.33869 103.512 10.0669C104.9 10.7715 105.989 11.7698 106.778 13.0617C107.568 14.3536 107.963 15.8687 107.963 17.6069C107.963 19.3216 107.568 20.8367 106.778 22.1521C105.989 23.444 104.9 24.454 103.512 25.1822C102.124 25.8869 100.52 26.2392 98.7012 26.2392ZM98.7012 22.0111C99.5388 22.0111 100.269 21.835 100.891 21.4826C101.537 21.1303 102.028 20.6253 102.363 19.9676C102.722 19.2864 102.901 18.4995 102.901 17.6069C102.901 16.6908 102.722 15.9039 102.363 15.2462C102.028 14.5885 101.537 14.0835 100.891 13.7312C100.269 13.3788 99.5388 13.2027 98.7012 13.2027C97.8636 13.2027 97.1217 13.3788 96.4755 13.7312C95.8532 14.0835 95.3626 14.5885 95.0036 15.2462C94.6686 15.9039 94.501 16.6908 94.501 17.6069C94.501 18.4995 94.6686 19.2864 95.0036 19.9676C95.3626 20.6253 95.8532 21.1303 96.4755 21.4826C97.1217 21.835 97.8636 22.0111 98.7012 22.0111Z" fill="#4F31B4"/>
</svg>
