<svg width="34" height="29" viewBox="0 0 34 29" fill="none" xmlns="http://www.w3.org/2000/svg">
<path d="M18.1901 18.1055H15.6593C14.2794 18.1055 13.1562 19.228 13.1562 20.6085V25.9196C13.1562 27.3 14.2788 28.4226 15.6593 28.4226H18.1901C19.5705 28.4226 20.6931 27.3 20.6931 25.9196V20.6085C20.6931 19.2286 19.5705 18.1055 18.1901 18.1055ZM19.1238 25.9201C19.1238 26.4348 18.7048 26.8538 18.1901 26.8538H15.6593C15.1446 26.8538 14.7256 26.4348 14.7256 25.9201V20.6085C14.7256 20.0938 15.1446 19.6748 15.6593 19.6748H18.1901C18.7048 19.6748 19.1238 20.0938 19.1238 20.6085V25.9201Z" fill="white" stroke="#080219" stroke-width="0.2"/>
<path d="M6.03825 18.1055H3.50695C2.12701 18.1055 1.00391 19.228 1.00391 20.6085V25.9196C1.00391 27.3 2.12649 28.4226 3.50695 28.4226H6.03773C7.41819 28.4226 8.54077 27.3 8.54077 25.9196V20.6085C8.5413 19.2286 7.41872 18.1055 6.03825 18.1055ZM6.97199 25.9201C6.97199 26.4348 6.55298 26.8538 6.03825 26.8538H3.50695C2.99222 26.8538 2.57322 26.4348 2.57322 25.9201V20.6085C2.57322 20.0938 2.99222 19.6748 3.50695 19.6748H6.03773C6.55246 19.6748 6.97147 20.0938 6.97147 20.6085L6.97199 25.9201Z" fill="white" stroke="#080219" stroke-width="0.2"/>
<path d="M31.0885 18.1055H28.5572C27.1773 18.1055 26.0547 19.228 26.0547 20.6085V25.9196C26.0547 27.3 27.1773 28.4226 28.5572 28.4226H31.0885C32.469 28.4226 33.5916 27.3 33.5916 25.9196V20.6085C33.5916 19.2286 32.469 18.1055 31.0885 18.1055ZM32.0222 25.9201C32.0222 26.4348 31.6032 26.8538 31.0885 26.8538H28.5572C28.043 26.8538 27.624 26.4348 27.624 25.9201V20.6085C27.624 20.0938 28.043 19.6748 28.5572 19.6748H31.0885C31.6032 19.6748 32.0222 20.0938 32.0222 20.6085V25.9201Z" fill="white" stroke="#080219" stroke-width="0.2"/>
<path d="M18.1292 4.63012L16.2716 6.3663L15.8019 5.75322C15.5383 5.40954 15.0465 5.34415 14.7018 5.6078C14.3581 5.87144 14.2927 6.36368 14.5564 6.70788L15.5524 8.00727C15.6868 8.18303 15.8898 8.29341 16.11 8.31172C16.132 8.31381 16.1534 8.31433 16.1749 8.31433C16.3731 8.31433 16.5646 8.23901 16.7105 8.103L19.201 5.77624C19.517 5.48016 19.5342 4.98374 19.2382 4.66726C18.9421 4.35078 18.4451 4.33509 18.1292 4.63012Z" fill="white" stroke="#080219" stroke-width="0.2"/>
<path d="M16.9241 1C13.9654 1 11.5586 3.40732 11.5586 6.36547C11.5586 9.32361 13.9659 11.7309 16.9241 11.7309C19.8822 11.7309 22.2895 9.32361 22.2895 6.36547C22.2895 3.40732 19.8822 1 16.9241 1ZM16.9241 10.1621C14.8311 10.1621 13.1279 8.45893 13.1279 6.36599C13.1279 4.27306 14.8311 2.56983 16.9241 2.56983C19.017 2.56983 20.7202 4.27306 20.7202 6.36599C20.7202 8.45893 19.017 10.1621 16.9241 10.1621Z" fill="white" stroke="#080219" stroke-width="0.2"/>
<path d="M10.5633 5.58301H8.89303C6.18755 5.58301 3.98633 7.78161 3.98633 10.4845V17.0578H5.55564V10.484C5.55564 8.64682 7.05276 7.15179 8.89303 7.15179H10.5643C10.5324 6.89338 10.511 6.63183 10.511 6.36452C10.511 6.09983 10.5319 5.83985 10.5633 5.58301Z" fill="white" stroke="#080219" stroke-width="0.2"/>
<path d="M16.9253 12.7774C16.659 12.7774 16.3985 12.756 16.1406 12.7246V17.0585H17.7099V12.7246C17.452 12.756 17.1915 12.7774 16.9253 12.7774Z" fill="white" stroke="#080219" stroke-width="0.2"/>
<path d="M29.0419 10.4845V17.0578H30.6112V10.4845C30.6112 7.78161 28.4126 5.58301 25.7097 5.58301H23.2857C23.3171 5.83985 23.3385 6.09983 23.3385 6.36505C23.3385 6.63235 23.3171 6.8939 23.2852 7.15232L25.7097 7.15179C27.5474 7.15284 29.0419 8.64735 29.0419 10.4845Z" fill="white" stroke="#080219" stroke-width="0.2"/>
</svg>
