<svg width="27" height="27" viewBox="0 0 27 27" fill="none" xmlns="http://www.w3.org/2000/svg">
<path d="M13.5 26.25C20.4751 26.25 26.0729 20.7614 26.2461 13.8311V13.8281C26.0706 20.6922 20.4045 26.25 13.5 26.25ZM13.5 26.25C6.52492 26.25 0.927107 20.7614 0.753906 13.8311V13.8281C0.929424 20.6922 6.59548 26.25 13.5 26.25ZM13.5 0.75C20.5858 0.75 26.25 6.41421 26.25 13.5L26.2461 13.1719C26.0706 6.30778 20.4045 0.75 13.5 0.75ZM13.5 0.75C6.48579 0.75 0.75 6.48579 0.75 13.5L0.753906 13.1689C0.927107 6.23861 6.52492 0.75 13.5 0.75Z" stroke="white" stroke-width="1.5"/>
<path d="M7.19844 15.5977C6.89844 14.8477 6.89844 14.0977 6.89844 13.3477C6.89844 9.59766 9.89844 6.59766 13.6484 6.59766C17.3984 6.59766 20.3984 9.59766 20.3984 13.3477C20.3984 17.0977 17.3984 20.0977 13.6484 20.0977C11.8484 20.0977 10.3484 19.3477 9.14844 18.2977" stroke="white" stroke-width="1.5" stroke-miterlimit="10"/>
<path d="M4.49414 13.9463L7.19414 15.5963L9.29414 13.1963" stroke="white" stroke-width="1.5" stroke-miterlimit="10"/>
</svg>
