<svg width="28" height="28" viewBox="0 0 28 28" fill="none" xmlns="http://www.w3.org/2000/svg">
<path d="M22.0254 2.26855C21.998 2.13355 22.0511 1.99429 22.1514 1.88672C22.2517 1.77919 22.3937 1.70907 22.5322 1.70898C22.6742 1.70898 22.8182 1.76632 22.9258 1.85938C23.0331 1.95228 23.1016 2.07854 23.1016 2.21582V2.2168L23.1641 4.38379C23.1637 4.49464 23.1062 4.66721 22.9932 4.78027C22.9345 4.83893 22.8777 4.88124 22.8154 4.90918C22.7534 4.93698 22.6827 4.95113 22.5957 4.95117L20.4297 4.88867H20.4287C20.2914 4.88867 20.1652 4.82023 20.0723 4.71289C19.9792 4.60526 19.9219 4.46131 19.9219 4.31934C19.9221 4.04106 20.1429 3.81349 20.4912 3.81348H21.0469L20.959 3.72754C20.8375 3.60834 20.7097 3.48107 20.5801 3.41309H20.5811C15.6709 -0.0694131 9.01866 0.55263 4.79102 4.78027C0.564256 9.00429 0.00567038 15.656 3.42188 20.5654V20.5664C3.59631 20.8564 3.53505 21.1951 3.31348 21.3643C3.18665 21.4253 3.07712 21.4794 2.96973 21.4795C2.88359 21.4795 2.79824 21.4656 2.71387 21.4238C2.65054 21.3924 2.58572 21.3443 2.51953 21.2725L2.45312 21.1924C-1.2468 15.8264 -0.629531 8.61122 3.99609 3.98535C8.47782 -0.496373 15.3899 -1.21529 20.6963 2.16602L21.2051 2.50586C21.4513 2.68932 21.7002 2.87474 21.9463 3.06055L22.0264 3.12109V2.27832H22.0273L22.0254 2.26855Z" fill="white" stroke="#080219" stroke-width="0.1"/>
<path d="M3.95117 24.8711L3.8877 22.7051C3.88771 22.5942 3.94612 22.4211 4.05957 22.3076C4.11829 22.2489 4.17499 22.2067 4.2373 22.1787C4.29923 22.151 4.36932 22.1359 4.45605 22.1357L6.62305 22.1992H6.62402C6.76142 22.1992 6.88754 22.2675 6.98047 22.375C7.07343 22.4825 7.12977 22.6257 7.12988 22.7676C7.12988 22.9049 7.06148 23.0311 6.9541 23.124C6.84657 23.217 6.70338 23.2743 6.56152 23.2744H6.00586L6.09277 23.3604C6.15823 23.4245 6.22356 23.4723 6.28516 23.5186C6.34714 23.5651 6.4061 23.6103 6.46484 23.6689L6.50098 23.6338L6.46484 23.6699L6.47168 23.6748C11.3818 27.1572 18.0331 26.5351 22.2607 22.3076C26.4148 18.1532 27.0722 11.781 23.9424 7.03223L23.6279 6.57812C23.4561 6.28876 23.5182 5.9515 23.7393 5.7832C23.9932 5.63191 24.2844 5.66068 24.4658 5.81934L24.5361 5.89551C28.299 11.2615 27.6816 18.4766 23.0557 23.1025C20.4655 25.6928 17.0128 27.0498 13.5576 27.0498C11.0144 27.0497 8.52408 26.3446 6.29102 24.8848L5.84766 24.582C5.60134 24.3985 5.35269 24.2123 5.10645 24.0264L5.02637 23.9668V24.8096H5.02539L5.02734 24.8193C5.05468 24.9543 5.00161 25.0936 4.90137 25.2012C4.80097 25.3088 4.65819 25.3779 4.51953 25.3779C4.37768 25.3778 4.23448 25.3215 4.12695 25.2285C4.01947 25.1356 3.95117 25.0095 3.95117 24.8721V24.8711Z" fill="white" stroke="#080219" stroke-width="0.1"/>
<path d="M12.9785 5.34082H14.1885C14.6896 5.34082 15.0913 5.69322 15.1914 6.14355L15.4551 7.35352L15.4609 7.38281L15.4902 7.3916C15.8555 7.49513 16.2195 7.65169 16.584 7.85938L16.6104 7.87402L16.6357 7.85742L17.6875 7.17383L17.6865 7.17285C18.0878 6.92252 18.5883 6.97401 18.9395 7.3252L19.7812 8.16699C20.1322 8.51794 20.1834 9.01785 19.9336 9.41895L19.249 10.4707L19.2324 10.4961L19.248 10.5225C19.455 10.8856 19.6118 11.303 19.7158 11.668L19.7236 11.6973L19.7529 11.7031L20.9629 11.9668H20.9639C21.4019 12.0541 21.6862 12.3704 21.7529 12.7861L21.7676 12.9697V14.1787C21.7676 14.6173 21.4981 14.9802 21.1289 15.1309L20.9648 15.1816L19.7549 15.4453L19.7246 15.4512L19.7168 15.4814C19.6134 15.8973 19.4575 16.2607 19.25 16.625L19.2344 16.6514L19.251 16.6777L19.9346 17.7275V17.7285C20.1851 18.1298 20.1354 18.6302 19.7842 18.9814L18.9414 19.8232L18.9395 19.8262C18.6414 20.1726 18.0917 20.2263 17.6885 19.9746H17.6895L16.6377 19.291L16.6104 19.2734L16.583 19.291C16.273 19.4963 15.8577 19.6527 15.4922 19.7568L15.4629 19.7656L15.457 19.7949L15.1934 21.0039C15.0935 21.4564 14.6919 21.8076 14.1904 21.8076H12.9814C12.5427 21.8076 12.1799 21.5374 12.0293 21.168L11.9785 21.0039L11.7148 19.7949L11.709 19.7646L11.6787 19.7568L11.376 19.6689C11.1793 19.604 10.9923 19.5265 10.8086 19.4355L10.5078 19.2744L10.4824 19.291L9.43066 19.9746C9.02953 20.2245 8.52972 20.1742 8.17871 19.8232L7.33691 18.9814C6.98584 18.6304 6.93449 18.1297 7.18457 17.7285L7.18555 17.7295L7.86914 16.6777L7.88574 16.6514L7.87109 16.625C7.66424 16.262 7.50731 15.8453 7.40332 15.4805L7.39453 15.4512L7.36523 15.4453L6.15527 15.1816H6.15625C5.70373 15.0817 5.35254 14.6802 5.35254 14.1787L5.35059 12.918C5.35059 12.4791 5.62071 12.1164 5.99023 11.9658L6.15332 11.915L7.36328 11.6523L7.39258 11.6455L7.40137 11.6172C7.50489 11.2518 7.66136 10.8871 7.86914 10.5225L7.88379 10.4961L7.86719 10.4707L7.18262 9.41895C6.93292 9.01786 6.98404 8.51791 7.33496 8.16699L8.17676 7.3252C8.52766 6.97428 9.02763 6.92316 9.42871 7.17285V7.17383L10.4805 7.85742L10.5059 7.87402L10.5322 7.85938C10.8953 7.65246 11.3128 7.49561 11.6777 7.3916L11.707 7.38281L11.7129 7.35352L11.9766 6.14355C12.0763 5.69289 12.5293 5.34106 12.9785 5.34082ZM20.8115 12.877L20.7734 12.8672L19.251 12.5C19.1222 12.4577 19.0006 12.3782 18.9404 12.2344L18.9189 12.168C18.8106 11.6896 18.5989 11.2105 18.335 10.7363L18.333 10.7334L18.3018 10.6787C18.2402 10.5461 18.251 10.3865 18.333 10.2627L18.334 10.2617L19.0693 9.05176L19.0889 9.01855L19.0625 8.99121L18.2207 8.09766L18.1924 8.06836L18.1582 8.08887L16.79 8.93164L16.7881 8.93262C16.6467 9.02607 16.4587 9.02622 16.3174 8.93262L16.3164 8.93164C15.8892 8.6649 15.4106 8.50485 14.8848 8.34668C14.7557 8.30445 14.6336 8.22521 14.5732 8.08105L14.5518 8.01465L14.2354 6.49316L14.2275 6.45508L14.1885 6.45312L12.9277 6.39941L12.8867 6.39746L12.877 6.4375L12.5107 7.95801C12.4687 8.08759 12.3887 8.2099 12.2441 8.27051L12.1777 8.29297C11.6996 8.40132 11.2211 8.61316 10.7471 8.87695L10.7705 8.9209L10.7461 8.87695L10.7432 8.87891C10.6017 8.97255 10.4139 8.97257 10.2725 8.87891L8.95703 8.03613L8.9248 8.01562L8.89648 8.04199L8.00293 8.88477L7.97266 8.91211L7.99414 8.94727L8.83691 10.3145V10.3154L8.83789 10.3164C8.93137 10.4578 8.93143 10.6458 8.83789 10.7871L8.83691 10.7881C8.57237 11.2117 8.3585 11.688 8.25195 12.2188C8.20986 12.3482 8.13073 12.4707 7.98633 12.5312L7.91992 12.5527L6.39746 12.8691L6.35938 12.877L6.3584 12.916L6.30469 14.1768L6.30273 14.2207L6.3457 14.2285L8.02637 14.5439C8.17283 14.5922 8.30939 14.6885 8.35742 14.873V14.874C8.46569 15.3528 8.67823 15.832 8.94238 16.3066L8.94434 16.3105C9.0377 16.4518 9.03769 16.639 8.94434 16.7803L8.94336 16.7812L8.10156 18.0957L8.08105 18.1289L8.10742 18.1572L8.94922 19.0508L8.97754 19.0801L9.01172 19.0586L10.3799 18.2168L10.3809 18.2178L10.3887 18.21C10.4341 18.1664 10.5271 18.1191 10.6172 18.1191C10.6704 18.1191 10.7057 18.1201 10.7402 18.126C10.7731 18.1316 10.8076 18.1418 10.8555 18.166C11.2787 18.43 11.7542 18.6426 12.2842 18.749V18.75C12.4321 18.7981 12.5704 18.8951 12.6182 19.082L12.9346 20.6045L12.9424 20.6426L12.9814 20.6436L14.2422 20.6973L14.2832 20.6992L14.293 20.6592L14.6611 19.1348L14.6602 19.1338C14.7086 18.9878 14.8059 18.8514 14.9902 18.8037L14.9912 18.8047C15.4089 18.7102 15.8672 18.5355 16.2607 18.3154L16.4258 18.2188L16.4268 18.2178C16.5682 18.1242 16.7561 18.1242 16.8975 18.2178L16.8984 18.2188L18.2129 19.0605L18.2451 19.082L18.2734 19.0547L19.167 18.2129L19.1973 18.1846L19.1758 18.1504L18.333 16.7822V16.7803L18.3018 16.7256C18.2404 16.593 18.2511 16.4342 18.333 16.3105V16.3086C18.5974 15.8851 18.8114 15.4094 18.918 14.8789C18.9661 14.7308 19.0628 14.5917 19.25 14.5439L19.249 14.543L20.7725 14.2285L20.8115 14.2197V12.877Z" fill="white" stroke="#080219" stroke-width="0.1"/>
<path d="M13.5576 9.44238C15.8429 9.44238 17.6611 11.2606 17.6611 13.5459C17.6611 15.8312 15.8429 17.6494 13.5576 17.6494C11.2724 17.6494 9.4541 15.8312 9.4541 13.5459C9.45411 11.2606 11.2724 9.44239 13.5576 9.44238ZM13.5576 10.4492C11.8483 10.4492 10.4062 11.8377 10.4062 13.6016C10.4064 15.3108 11.7939 16.7529 13.5576 16.7529C15.3213 16.7529 16.7088 15.3108 16.709 13.6016C16.709 11.8917 15.2675 10.4492 13.5576 10.4492Z" fill="white" stroke="#080219" stroke-width="0.1"/>
</svg>
