<svg width="29" height="32" viewBox="0 0 29 32" fill="none" xmlns="http://www.w3.org/2000/svg">
<path d="M28.0264 16C28.0222 14.9827 27.7942 13.9788 27.3585 13.0595C26.9228 12.1403 26.2901 11.3282 25.5053 10.6809C24.7205 10.0336 23.8028 9.56703 22.8174 9.31426C21.832 9.06148 20.8031 9.02871 19.8036 9.21827L19.8036 3.14286C19.803 2.57474 19.577 2.03007 19.1753 1.62835C18.7736 1.22662 18.2289 1.00065 17.6608 1H3.14286C2.57474 1.00065 2.03007 1.22662 1.62835 1.62835C1.22662 2.03007 1.00065 2.57474 1 3.14286V28.8571C1.00065 29.4253 1.22662 29.9699 1.62835 30.3717C2.03007 30.7734 2.57474 30.9993 3.14286 31H17.6608C18.2289 30.9993 18.7736 30.7734 19.1753 30.3717C19.577 29.9699 19.803 29.4253 19.8036 28.8571V22.7818C20.8031 22.9713 21.832 22.9385 22.8174 22.6857C23.8028 22.4329 24.7204 21.9663 25.5052 21.319C26.29 20.6718 26.9228 19.8597 27.3585 18.9404C27.7942 18.0212 28.0222 17.0173 28.0264 16ZM26.9549 16C26.9532 17.548 26.3375 19.0321 25.2429 20.1268C24.1483 21.2214 22.6642 21.8372 21.1162 21.839C13.3701 21.5181 13.3723 10.4808 21.1163 10.161C22.6643 10.1628 24.1484 10.7786 25.2429 11.8732C26.3375 12.9679 26.9532 14.452 26.9549 16ZM3.14286 2.07143H17.6608C17.9448 2.07171 18.2172 2.18469 18.4181 2.38556C18.6189 2.58643 18.7319 2.85878 18.7322 3.14286V5.73668H2.07143V3.14286C2.07171 2.85878 2.18469 2.58643 2.38556 2.38556C2.58643 2.18469 2.85878 2.07171 3.14286 2.07143ZM17.6608 29.9286H3.14286C2.85878 29.9283 2.58643 29.8153 2.38556 29.6144C2.18469 29.4136 2.07171 29.1412 2.07143 28.8571V26.2633H18.7322V28.8571C18.7319 29.1412 18.6189 29.4136 18.4181 29.6144C18.2172 29.8153 17.9448 29.9283 17.6608 29.9286ZM18.7322 25.1919H2.07143V6.80811H18.7322V9.52232C12.7319 11.7421 12.7373 20.2611 18.7323 22.4777L18.7322 25.1919Z" fill="white" stroke="#080219" stroke-width="0.2"/>
<path d="M22.4315 7.24482H26.6174L25.9246 7.85534C25.8212 7.95013 25.7591 8.0817 25.7516 8.22179C25.7442 8.36187 25.792 8.4993 25.8847 8.60453C25.9775 8.70977 26.1078 8.77441 26.2478 8.78458C26.3877 8.79475 26.526 8.74963 26.633 8.65891L28.3895 7.11091C28.4465 7.06066 28.4922 6.99885 28.5235 6.92957C28.5548 6.86029 28.571 6.78514 28.571 6.70912C28.571 6.6331 28.5548 6.55795 28.5235 6.48868C28.4922 6.4194 28.4465 6.35758 28.3895 6.30734L26.633 4.75931C26.5259 4.66887 26.3877 4.62398 26.248 4.63426C26.1082 4.64453 25.978 4.70916 25.8854 4.81429C25.7927 4.91941 25.7449 5.05666 25.7523 5.1966C25.7596 5.33654 25.8215 5.46803 25.9247 5.56288L26.6173 6.17338H22.4315C22.2912 6.17615 22.1577 6.23382 22.0595 6.33398C21.9613 6.43415 21.9062 6.56883 21.9063 6.70911C21.9063 6.84939 21.9613 6.98407 22.0595 7.08423C22.1577 7.18439 22.2913 7.24205 22.4315 7.24482Z" fill="white" stroke="#080219" stroke-width="0.2"/>
<path d="M28.0332 25.1893H23.8474L24.5401 24.5787C24.6433 24.4839 24.7053 24.3524 24.7127 24.2124C24.7201 24.0724 24.6723 23.9351 24.5796 23.8299C24.4869 23.7247 24.3566 23.6601 24.2168 23.6499C24.077 23.6396 23.9387 23.6846 23.8317 23.7752L22.0753 25.3232C22.0195 25.3742 21.975 25.4363 21.9446 25.5055C21.9142 25.5747 21.8984 25.6494 21.8984 25.725C21.8984 25.8006 21.9142 25.8753 21.9446 25.9445C21.9751 26.0136 22.0196 26.0757 22.0753 26.1268L23.8318 27.6748C23.9388 27.7652 24.077 27.8101 24.2168 27.7998C24.3565 27.7896 24.4867 27.7249 24.5794 27.6198C24.672 27.5147 24.7198 27.3774 24.7125 27.2375C24.7051 27.0976 24.6432 26.9661 24.5401 26.8712L23.8474 26.2607H28.0333C28.1736 26.258 28.3073 26.2004 28.4056 26.1002C28.5039 26.0001 28.5589 25.8653 28.5589 25.725C28.5589 25.5846 28.5038 25.4499 28.4055 25.3497C28.3072 25.2495 28.1736 25.1919 28.0332 25.1893Z" fill="white" stroke="#080219" stroke-width="0.2"/>
<path d="M23.4509 14.7806H22.6791C22.6342 14.297 22.4086 13.8486 22.0482 13.5262H23.452C23.5821 13.5262 23.6878 13.4196 23.6878 13.2885C23.6878 13.1574 23.5821 13.0508 23.452 13.0508L19.198 13.063H19.1751C19.167 13.0627 19.1589 13.0627 19.1508 13.063C19.1438 13.0645 19.1368 13.0664 19.1298 13.069L19.1062 13.0764L19.0863 13.0879L19.0664 13.0983L19.0476 13.1136L19.0314 13.1277C19.0259 13.1332 19.0211 13.1399 19.0152 13.1466C19.0097 13.1533 19.0056 13.157 19.0019 13.163H19.0027C18.9982 13.17 18.9945 13.1774 18.9912 13.1849L18.9809 13.2031L18.9735 13.228V13.2276C18.971 13.2343 18.9691 13.241 18.9676 13.2477C18.9673 13.2562 18.9673 13.2647 18.9676 13.2733C18.9673 13.2807 18.9673 13.2885 18.9676 13.2959C18.9673 13.3049 18.9673 13.3134 18.9676 13.3219C18.9673 13.329 18.9673 13.3364 18.9676 13.3435C18.9695 13.3524 18.9721 13.3609 18.9754 13.3695L18.9809 13.3884C18.9853 13.3977 18.9905 13.4063 18.996 13.4148C18.9975 13.4196 18.9997 13.4241 19.0027 13.4282L19.0226 13.4531C19.0226 13.4531 19.0281 13.4605 19.0321 13.4635H19.0318C19.0391 13.4705 19.0472 13.4772 19.0554 13.4835L19.0668 13.4932V13.4928C19.076 13.4987 19.0852 13.5036 19.0952 13.508L19.1066 13.5147L19.135 13.5233L19.1512 13.5281H19.1508C19.1667 13.5318 19.1825 13.534 19.1987 13.5337H20.8405C21.1792 13.5385 21.505 13.6678 21.7563 13.8969C22.0076 14.1261 22.1672 14.44 22.2055 14.7795H19.1968C19.0667 14.7795 18.9609 14.8861 18.9609 15.0172C18.9609 15.1487 19.0667 15.2549 19.1968 15.2549H22.1886C22.1303 15.5744 21.9638 15.8634 21.7176 16.0725C21.4714 16.282 21.1607 16.3986 20.8386 16.4027H19.1968C19.1088 16.4053 19.0292 16.457 18.9905 16.5368C18.9518 16.6167 18.9606 16.7114 19.0129 16.7831L21.3159 19.6584C21.3605 19.7145 21.4276 19.7472 21.499 19.7472C21.5897 19.7465 21.6719 19.6933 21.711 19.6109C21.75 19.5281 21.7386 19.4304 21.6818 19.359L19.6903 16.8781H20.8387C21.2846 16.8733 21.7139 16.7076 22.0489 16.4109C22.3839 16.1144 22.6025 15.7066 22.6651 15.2616H23.4508C23.5813 15.2616 23.6867 15.155 23.6867 15.0239C23.6867 14.8927 23.5813 14.7861 23.4508 14.7861L23.4509 14.7806Z" fill="white" stroke="white" stroke-width="0.09"/>
</svg>
