<svg width="52" height="52" viewBox="0 0 52 52" fill="none" xmlns="http://www.w3.org/2000/svg">
<rect x="0.188339" y="0.188339" width="51.6233" height="51.6233" rx="10.759" fill="#080219" stroke="url(#paint0_linear_785_1047)" stroke-width="0.376677"/>
<path fill-rule="evenodd" clip-rule="evenodd" d="M17.1543 10H37.2931C37.9548 10 37.9548 11.0016 37.2931 11.0016H17.1543C16.4746 11.0015 16.4746 10 17.1543 10Z" fill="white" stroke="#080219" stroke-width="0.187044"/>
<path fill-rule="evenodd" clip-rule="evenodd" d="M18.1378 15.6684H36.2914C36.971 15.6684 36.971 16.6879 36.2914 16.6879H35.5759V18.8341H37.436C37.7043 18.8341 37.9368 18.6016 37.9368 18.3154V13.5043C37.9368 13.236 37.7043 13.0035 37.436 13.0035H17.0111C16.7249 13.0035 16.5103 13.2361 16.5103 13.5043V18.3154C16.5103 18.6016 16.7249 18.8341 17.0111 18.8341H18.8532V16.6879H18.1378C17.4761 16.6879 17.4761 15.6684 18.1378 15.6684ZM34.5744 16.6879H19.8727V33.9293C19.8727 35.4853 19.1394 36.934 17.9232 37.8641H30.6396C32.8037 37.8641 34.5565 36.1113 34.5744 33.9293V16.6879ZM30.6396 38.8657C25.3992 38.8835 20.1588 38.8657 14.9185 38.8657C12.2178 38.8657 10 36.6479 10 33.9293V30.1734C10 29.2434 10.7512 28.4922 11.6812 28.4922H18.8532V19.8357H17.011C16.1704 19.8357 15.4908 19.1561 15.4908 18.3155V13.5043C15.4908 12.6816 16.1704 12.002 17.011 12.002H37.436C38.2587 12.002 38.9384 12.6816 38.9384 13.5043V18.3154C38.9384 19.1561 38.2587 19.8357 37.436 19.8357H35.5759V33.9293C35.5759 36.6658 33.3582 38.8657 30.6396 38.8657ZM14.9363 37.8641C12.7722 37.8641 11.0015 36.0934 11.0015 33.9293V30.1734C11.0015 29.7978 11.3056 29.4937 11.6812 29.4937H18.8532V33.9293C18.8532 36.0934 17.1005 37.8641 14.9363 37.8641Z" fill="white" stroke="#080219" stroke-width="0.187044"/>
<path fill-rule="evenodd" clip-rule="evenodd" d="M22.0359 19.9434H23.896C24.5399 19.9434 25.0764 20.4799 25.0764 21.1238V22.9839C25.0764 23.6277 24.5399 24.1643 23.896 24.1643H22.0359C21.392 24.1643 20.8555 23.6277 20.8555 22.9839V21.1238C20.8555 20.4799 21.392 19.9434 22.0359 19.9434ZM22.0359 20.9628H23.896C23.9854 20.9628 24.0569 21.0344 24.0569 21.1238V22.9839C24.0569 23.0733 23.9854 23.1448 23.896 23.1448H22.0359C21.9465 23.1448 21.8571 23.0733 21.8571 22.9839V21.1238C21.8571 21.0344 21.9465 20.9628 22.0359 20.9628Z" fill="white" stroke="#080219" stroke-width="0.187044"/>
<path fill-rule="evenodd" clip-rule="evenodd" d="M22.0359 25.166H23.896C24.5399 25.166 25.0764 25.7026 25.0764 26.3464V28.2065C25.0764 28.8504 24.5399 29.387 23.896 29.387H22.0359C21.392 29.387 20.8555 28.8504 20.8555 28.2065V26.3464C20.8555 25.7026 21.392 25.166 22.0359 25.166ZM22.0359 26.1676H23.896C23.9854 26.1676 24.0569 26.257 24.0569 26.3464V28.2065C24.0569 28.2959 23.9854 28.3674 23.896 28.3674H22.0359C21.9465 28.3674 21.8571 28.2959 21.8571 28.2065V26.3464C21.8571 26.257 21.9465 26.1676 22.0359 26.1676Z" fill="white" stroke="#080219" stroke-width="0.187044"/>
<path fill-rule="evenodd" clip-rule="evenodd" d="M22.0359 30.3887H23.896C24.5399 30.3887 25.0764 30.9252 25.0764 31.5691V33.4292C25.0764 34.0731 24.5399 34.6096 23.896 34.6096H22.0359C21.392 34.6096 20.8555 34.0731 20.8555 33.4292V31.5691C20.8555 30.9252 21.392 30.3887 22.0359 30.3887ZM22.0359 31.3903H23.896C23.9854 31.3903 24.0569 31.4797 24.0569 31.5691V33.4292C24.0569 33.5186 23.9854 33.5902 23.896 33.5902H22.0359C21.9465 33.5902 21.8571 33.5186 21.8571 33.4292V31.5691C21.8571 31.4797 21.9465 31.3903 22.0359 31.3903Z" fill="white" stroke="#080219" stroke-width="0.187044"/>
<path fill-rule="evenodd" clip-rule="evenodd" d="M26.5793 20.5352H33.0717C33.7513 20.5352 33.7513 21.5546 33.0717 21.5546H26.5793C25.9176 21.5546 25.9176 20.5352 26.5793 20.5352Z" fill="white" stroke="#080219" stroke-width="0.187044"/>
<path fill-rule="evenodd" clip-rule="evenodd" d="M26.5793 22.5547H28.815C29.4767 22.5547 29.4767 23.5741 28.815 23.5741H26.5793C25.9176 23.5742 25.9176 22.5547 26.5793 22.5547Z" fill="white" stroke="#080219" stroke-width="0.187044"/>
<path fill-rule="evenodd" clip-rule="evenodd" d="M26.5793 25.7559H33.0717C33.7513 25.7559 33.7513 26.7753 33.0717 26.7753H26.5793C25.9176 26.7753 25.9176 25.7559 26.5793 25.7559Z" fill="white" stroke="#080219" stroke-width="0.187044"/>
<path fill-rule="evenodd" clip-rule="evenodd" d="M26.5793 30.9785H33.0717C33.7513 30.9785 33.7513 31.998 33.0717 31.998H26.5793C25.9176 31.998 25.9176 30.9785 26.5793 30.9785Z" fill="white" stroke="#080219" stroke-width="0.187044"/>
<path fill-rule="evenodd" clip-rule="evenodd" d="M26.5793 27.7793H28.815C29.4767 27.7793 29.4767 28.7809 28.815 28.7809H26.5793C25.9176 28.7809 25.9176 27.7793 26.5793 27.7793Z" fill="white" stroke="#080219" stroke-width="0.187044"/>
<path fill-rule="evenodd" clip-rule="evenodd" d="M26.5793 33H28.815C29.4767 33 29.4767 34.0016 28.815 34.0016H26.5793C25.9176 34.0016 25.9176 33 26.5793 33Z" fill="white" stroke="#080219" stroke-width="0.187044"/>
<defs>
<linearGradient id="paint0_linear_785_1047" x1="6.10578" y1="6.62987" x2="69.2589" y2="52.9321" gradientUnits="userSpaceOnUse">
<stop stop-color="#A901A3"/>
<stop offset="0.360577" stop-color="#6F41D2"/>
</linearGradient>
</defs>
</svg>
