<svg width="114" height="115" viewBox="0 0 114 115" fill="none" xmlns="http://www.w3.org/2000/svg">
<circle cx="56.8374" cy="57.517" r="56.4151" fill="#080219" stroke="url(#paint0_linear_774_1869)" stroke-width="0.688161"/>
<path fill-rule="evenodd" clip-rule="evenodd" d="M67.6286 58.6038C65.5607 58.6038 63.8844 60.2802 63.8844 62.348C63.8844 62.5909 63.9073 62.8266 63.9507 63.0541C64.0697 63.6797 64.301 64.3051 64.5947 65.0787C64.6041 65.1033 64.6136 65.1281 64.623 65.1529C64.8943 65.8669 65.2182 66.7191 65.3994 67.6254L65.7347 69.3015H69.5225L69.858 67.6254C70.0392 66.7191 70.3631 65.8669 70.6342 65.1532C70.6438 65.1281 70.6533 65.1033 70.6625 65.0787C70.9564 64.3051 71.1875 63.6797 71.3067 63.0541C71.3499 62.8266 71.3728 62.5909 71.3728 62.348C71.3728 60.2802 69.6965 58.6038 67.6286 58.6038ZM70.5469 72.5108H64.7103L57.4652 75.2276V76.7899H77.7907V75.2274L70.5469 72.5108ZM62.5782 69.8828L62.2526 68.2551C62.1264 67.6243 61.8904 66.9972 61.5945 66.218L61.5844 66.1915C61.3076 65.4623 60.9759 64.589 60.7979 63.6542C60.7173 63.2299 60.6751 62.7933 60.6751 62.348C60.6751 58.5078 63.7883 55.3945 67.6286 55.3945C71.4691 55.3945 74.5821 58.5078 74.5821 62.348C74.5821 62.7933 74.5401 63.2299 74.4593 63.6542C74.2815 64.589 73.9498 65.4623 73.673 66.1915L73.6629 66.218C73.3668 66.9972 73.131 67.6243 73.0048 68.2551L72.6792 69.8828L81 73.0035V78.3945C81 79.2807 80.2816 79.9992 79.3954 79.9992H55.8605C54.9743 79.9992 54.2559 79.2807 54.2559 78.3945V73.0033L62.5782 69.8828Z" fill="white" stroke="#080219"/>
<path fill-rule="evenodd" clip-rule="evenodd" d="M35 35.6047C35 34.7184 35.7184 34 36.6047 34H68.6977C69.5839 34 70.3023 34.7184 70.3023 35.6047V50.5814H67.093V37.2093H38.2093V76.7907H49.4419V80H36.6047C35.7184 80 35 79.2815 35 78.3954V35.6047Z" fill="white" stroke="#080219"/>
<path fill-rule="evenodd" clip-rule="evenodd" d="M59.1712 45.2614L49.9362 55.1119L45.0254 49.4996L47.4406 47.3863L50.0182 50.3321L56.8297 43.0664L59.1712 45.2614Z" fill="white" stroke="#080219"/>
<path fill-rule="evenodd" clip-rule="evenodd" d="M53.7211 62.8831H43.0234V59.6738H53.7211V62.8831ZM53.7211 69.3017H43.0234V66.0924H53.7211V69.3017Z" fill="white" stroke="#080219"/>
<defs>
<linearGradient id="paint0_linear_774_1869" x1="13.4073" y1="15.2311" x2="151.273" y2="116.311" gradientUnits="userSpaceOnUse">
<stop stop-color="#A901A3"/>
<stop offset="0.360577" stop-color="#6F41D2"/>
</linearGradient>
</defs>
</svg>
