<svg width="52" height="52" viewBox="0 0 52 52" fill="none" xmlns="http://www.w3.org/2000/svg">
<rect x="0.188339" y="0.188339" width="51.6233" height="51.6233" rx="10.759" fill="#080219" stroke="url(#paint0_linear_884_3969)" stroke-width="0.376677"/>
<path d="M27.4845 19.7277H26.7137C26.6688 19.2447 26.4435 18.7969 26.0836 18.4749H27.4856C27.6155 18.4749 27.7212 18.3684 27.7212 18.2374C27.7212 18.1065 27.6155 18 27.4856 18L23.2368 18.0122H23.2139C23.2058 18.0119 23.1977 18.0119 23.1896 18.0122C23.1826 18.0137 23.1757 18.0156 23.1687 18.0182L23.1451 18.0256L23.1252 18.0371L23.1053 18.0475L23.0866 18.0627L23.0704 18.0768C23.0649 18.0824 23.0601 18.089 23.0542 18.0957C23.0487 18.1024 23.0446 18.1061 23.0409 18.112C23.0365 18.1191 23.0336 18.1265 23.0303 18.1339L23.0199 18.1521L23.0126 18.177C23.01 18.1836 23.0082 18.19 23.0067 18.1966C23.0063 18.2052 23.0063 18.2137 23.0067 18.2222C23.0063 18.2297 23.0063 18.2374 23.0067 18.2449C23.0063 18.2538 23.0063 18.2623 23.0067 18.2708C23.0063 18.2779 23.0063 18.2853 23.0067 18.2923C23.0085 18.3013 23.0111 18.3098 23.0144 18.3183L23.0199 18.3372C23.0244 18.3465 23.0295 18.355 23.035 18.3636C23.0365 18.3684 23.0387 18.3729 23.0417 18.3769L23.0615 18.4018C23.0615 18.4018 23.0671 18.4092 23.0711 18.4122C23.0785 18.4192 23.0862 18.4259 23.0943 18.4322L23.1057 18.4419C23.1149 18.4478 23.1241 18.4523 23.1341 18.4567L23.1455 18.4634L23.1738 18.4719L23.19 18.4767C23.2058 18.4804 23.2213 18.4827 23.2375 18.4823H24.8773C25.2156 18.4871 25.541 18.6162 25.792 18.8451C26.043 19.074 26.2024 19.3875 26.2407 19.7266H23.2356C23.1056 19.7266 23 19.8331 23 19.9641C23 20.0954 23.1056 20.2015 23.2356 20.2015H26.2237C26.1656 20.5206 25.9992 20.8092 25.7533 21.0181C25.5074 21.2273 25.1971 21.3438 24.8754 21.3479H23.2356C23.1476 21.3505 23.0681 21.4021 23.0295 21.4818C22.9908 21.5616 22.9997 21.6562 23.0519 21.7278L25.3521 24.5997C25.3966 24.6557 25.4636 24.6884 25.535 24.6884C25.6256 24.6876 25.7077 24.6346 25.7467 24.5522C25.7857 24.4695 25.7743 24.3719 25.7176 24.3007L23.7285 21.8227H24.8755C25.3209 21.8179 25.7497 21.6525 26.0843 21.356C26.4189 21.06 26.6371 20.6526 26.6997 20.2081H27.4845C27.6148 20.2081 27.7201 20.1017 27.7201 19.9707C27.7201 19.8397 27.6148 19.7333 27.4845 19.7333L27.4845 19.7277Z" fill="white" stroke="white" stroke-width="0.15"/>
<path fill-rule="evenodd" clip-rule="evenodd" d="M25.5172 27.1622C22.1856 27.1622 19.4841 24.4608 19.4841 21.1292C19.4841 17.7976 22.1856 15.0972 25.5172 15.0972C28.8488 15.0972 31.5502 17.7976 31.5502 21.1292C31.5502 24.4608 28.8488 27.1622 25.5172 27.1622ZM18.388 21.1292C18.388 25.0676 21.5798 28.2594 25.5172 28.2594C29.4545 28.2594 32.6464 25.0676 32.6464 21.1292C32.6464 17.1918 29.4545 14 25.5172 14C21.5798 14 18.388 17.1918 18.388 21.1292Z" fill="white"/>
<path fill-rule="evenodd" clip-rule="evenodd" d="M14.0002 32.6457C14.0002 31.1321 15.228 29.9043 16.7427 29.9043H18.936C20.4507 29.9043 21.6785 31.1321 21.6785 32.6457V34.8401C21.6785 36.3537 20.4507 37.5815 18.936 37.5815H16.7427C15.228 37.5815 14.0002 36.3537 14.0002 34.8401V32.6457ZM16.7427 31.0004C15.8337 31.0004 15.0974 31.7377 15.0974 32.6457V34.8401C15.0974 35.7481 15.8337 36.4854 16.7427 36.4854H18.936C19.845 36.4854 20.5813 35.7481 20.5813 34.8401V32.6457C20.5813 31.7377 19.845 31.0004 18.936 31.0004H16.7427Z" fill="white"/>
<path fill-rule="evenodd" clip-rule="evenodd" d="M29.3558 32.6457C29.3558 31.1321 30.5836 29.9043 32.0983 29.9043H34.2916C35.8063 29.9043 37.0341 31.1321 37.0341 32.6457V34.8401C37.0341 36.3537 35.8063 37.5815 34.2916 37.5815H32.0983C30.5836 37.5815 29.3558 36.3537 29.3558 34.8401V32.6457ZM32.0983 31.0004C31.1892 31.0004 30.453 31.7377 30.453 32.6457V34.8401C30.453 35.7481 31.1892 36.4854 32.0983 36.4854H34.2916C35.2006 36.4854 35.9369 35.7481 35.9369 34.8401V32.6457C35.9369 31.7377 35.2006 31.0004 34.2916 31.0004H32.0983Z" fill="white"/>
<path fill-rule="evenodd" clip-rule="evenodd" d="M29.3558 26.0657C29.3558 25.7633 29.6015 25.5176 29.9049 25.5176H32.0982C33.0072 25.5176 33.7435 26.2538 33.7435 27.1629V28.2601C33.7435 28.5624 33.4977 28.8081 33.1954 28.8081C32.8921 28.8081 32.6463 28.5624 32.6463 28.2601V27.1629C32.6463 26.8595 32.4016 26.6148 32.0983 26.6148H29.9049C29.6016 26.6148 29.3558 26.369 29.3558 26.0657Z" fill="white"/>
<path fill-rule="evenodd" clip-rule="evenodd" d="M21.6784 26.0657C21.6784 25.7633 21.4326 25.5176 21.1293 25.5176H18.9359C18.0269 25.5176 17.2906 26.2538 17.2906 27.1629V28.2601C17.2906 28.5624 17.5364 28.8081 17.8387 28.8081C18.1421 28.8081 18.3878 28.5624 18.3878 28.2601V27.1629C18.3878 26.8595 18.6326 26.6148 18.9359 26.6148H21.1292C21.4326 26.6148 21.6784 26.369 21.6784 26.0657Z" fill="white"/>
<defs>
<linearGradient id="paint0_linear_884_3969" x1="6.10578" y1="6.62987" x2="69.2589" y2="52.9321" gradientUnits="userSpaceOnUse">
<stop stop-color="#A901A3"/>
<stop offset="0.360577" stop-color="#6F41D2"/>
</linearGradient>
</defs>
</svg>
