<svg width="115" height="115" viewBox="0 0 115 115" fill="none" xmlns="http://www.w3.org/2000/svg">
<path d="M57.6025 1.10156C88.7596 1.10156 114.018 26.3596 114.019 57.5166C114.019 88.6738 88.7598 113.933 57.6025 113.933C26.4455 113.932 1.1875 88.6737 1.1875 57.5166C1.18774 26.3597 26.4457 1.1018 57.6025 1.10156Z" fill="#080219" stroke="url(#paint0_linear_774_1868)" stroke-width="0.688161"/>
<path d="M73.3747 32H58.76C56.4063 32 54.4905 33.9158 54.4905 36.2695V42.6189C54.3263 42.7832 54.1074 43.0021 53.8884 43.1663L53.3411 43.7137C47.5937 49.1874 42.0105 54.8253 41.4632 58C40.6968 62.8168 41.2442 71.0274 41.5179 74.2021C40.0947 74.5853 39 75.8989 39 77.4863V80.6063C39 82.4674 40.5326 84 42.3937 84H56.68C58.5411 84 60.0737 82.4674 60.0737 80.6063V77.4863C60.0737 76.2821 59.4168 75.1874 58.4316 74.5853C59.1432 73.6547 59.9642 72.3411 60.7305 70.5895C61.3326 69.1663 61.6611 67.5242 61.7705 65.9368H73.4295C75.7832 65.9368 77.6989 64.0211 77.6989 61.6674V36.2695C77.6442 33.9158 75.7284 32 73.3747 32ZM57.9389 80.6063C57.9389 81.3179 57.3368 81.92 56.6253 81.92H42.3937C41.6821 81.92 41.08 81.3179 41.08 80.6063V77.4863C41.08 76.7747 41.6821 76.1726 42.3937 76.1726H56.68C57.3916 76.1726 57.9937 76.7747 57.9937 77.4863V80.6063H57.9389ZM58.76 69.7684C57.7747 72.0674 56.68 73.4358 56.0779 74.0926H43.5979C43.3242 71.0274 42.8316 62.9263 43.5432 58.3284C43.9811 55.6463 50.8779 48.9684 54.4905 45.52V52.3621L48.9074 58.4926C48.5242 58.9305 48.5789 59.5874 48.9621 59.9705C49.4 60.3537 50.0568 60.2989 50.44 59.9158L58.3221 51.2126C59.0884 50.3916 60.4568 50.3916 61.3874 51.2674C61.88 51.7053 62.1537 52.2526 62.2084 52.8547C62.2632 53.4021 62.0989 53.9495 61.7705 54.3326L61.7158 54.3874L58.2674 58.9305C57.2821 60.1895 56.5158 61.7221 55.9137 63.3642C55.5305 64.3495 54.8737 65.8274 53.7789 67.3053C53.4505 67.7432 53.5053 68.4 53.9979 68.7832C54.1621 68.9474 54.4358 69.0021 54.6547 69.0021C54.9832 69.0021 55.2568 68.8379 55.4758 68.6189C56.2421 67.6337 56.8442 66.5937 57.2821 65.7179C57.7747 65.9368 58.3221 66.0463 58.8695 66.0463H59.7453C59.4716 67.3053 59.1979 68.6189 58.76 69.7684ZM69.6526 63.8568H58.7053C58.4316 63.8568 58.1579 63.8021 57.9389 63.6926C58.4316 62.3789 59.0884 61.2295 59.8547 60.1895L63.3032 55.6463C64.0147 54.8253 64.3979 53.7305 64.2884 52.6358C64.1789 51.5411 63.6316 50.5011 62.8105 49.7347C61.0042 48.0926 58.3221 48.1474 56.7895 49.8442L56.5158 50.1179V36.2695C56.5158 35.0653 57.5011 34.08 58.7053 34.08H69.6526V63.8568ZM75.5642 61.6674C75.5642 62.8716 74.5789 63.8568 73.3747 63.8568H71.7326V34.08H73.3747C74.5789 34.08 75.5642 35.0653 75.5642 36.2695V61.6674Z" fill="white" stroke="#080219" stroke-width="0.541667"/>
<path d="M45.2406 78.0332H43.7627C43.1606 78.0332 42.7227 78.5258 42.7227 79.0732C42.7227 79.6206 43.2153 80.1132 43.7627 80.1132H45.2406C45.8427 80.1132 46.2806 79.6206 46.2806 79.0732C46.2806 78.5258 45.8427 78.0332 45.2406 78.0332Z" fill="white" stroke="#080219" stroke-width="0.541667"/>
<path d="M65.2744 46.6162C65.8765 46.6162 66.3144 46.1235 66.3144 45.5762V37.9677C66.3144 37.3656 65.8217 36.9277 65.2744 36.9277C64.6723 36.9277 64.2344 37.4204 64.2344 37.9677V45.5762C64.2344 46.1783 64.6723 46.6162 65.2744 46.6162Z" fill="white" stroke="#080219" stroke-width="0.541667"/>
<path d="M60.9492 44.0435C61.5513 44.0435 61.9892 43.5509 61.9892 43.0035V37.9677C61.9892 37.3656 61.4965 36.9277 60.9492 36.9277C60.3471 36.9277 59.9092 37.4204 59.9092 37.9677V43.0035C59.9092 43.6056 60.4018 44.0435 60.9492 44.0435Z" fill="white" stroke="#080219" stroke-width="0.541667"/>
<defs>
<linearGradient id="paint0_linear_774_1868" x1="14.173" y1="15.2311" x2="152.039" y2="116.311" gradientUnits="userSpaceOnUse">
<stop stop-color="#A901A3"/>
<stop offset="0.360577" stop-color="#6F41D2"/>
</linearGradient>
</defs>
</svg>
