<svg width="33" height="33" viewBox="0 0 33 33" fill="none" xmlns="http://www.w3.org/2000/svg">
<path d="M25.8425 18.934C26.1331 18.8769 26.3459 18.6174 26.3459 18.3216V14.6471C26.3459 14.346 26.1331 14.0917 25.8425 14.0346L25.0951 13.8893C24.9238 13.3184 24.6955 12.7631 24.41 12.2337L24.8356 11.5953C25.0017 11.3462 24.9706 11.0141 24.7578 10.8013L22.1783 8.2063C21.9656 7.99351 21.6386 7.96237 21.3895 8.12845L20.7563 8.55921C20.2321 8.27377 19.6768 8.04541 19.1111 7.87414L18.9657 7.12159C18.9087 6.82576 18.6544 6.61816 18.3533 6.61816H14.7048C14.409 6.61816 14.1495 6.83095 14.0924 7.12159L13.947 7.87414C13.3761 8.04541 12.826 8.27896 12.3018 8.5644L11.6686 8.13364C11.4195 7.96756 11.0926 7.9987 10.8798 8.21149L8.30035 10.8065C8.09275 11.0193 8.05642 11.3514 8.2225 11.6005L8.64808 12.2389C8.36263 12.7683 8.13427 13.3236 7.96301 13.8945L7.21046 14.0398C6.91982 14.0969 6.70703 14.3564 6.70703 14.6522V18.3267C6.70703 18.6278 6.91982 18.8821 7.21046 18.9392L7.96301 19.0845C8.13427 19.6554 8.36263 20.2107 8.64808 20.7401L8.2225 21.3785C8.05642 21.6276 8.08756 21.9597 8.30035 22.1673L10.8798 24.7623C11.0874 24.9751 11.4195 25.0062 11.6686 24.8402L12.3018 24.4094C12.826 24.6948 13.3813 24.9232 13.947 25.0997L14.0924 25.8522C14.1495 26.148 14.4038 26.3556 14.7048 26.3556H18.3533C18.6492 26.3556 18.9087 26.1428 18.9657 25.8522L19.1111 25.0997C19.682 24.9284 20.2321 24.6948 20.7563 24.4146L21.3895 24.8454C21.6386 25.0114 21.9656 24.9803 22.1783 24.7675L24.7578 22.1725C24.9654 21.9597 25.0017 21.6276 24.8356 21.3836L24.41 20.7453C24.6955 20.2159 24.9238 19.6606 25.0951 19.0897L25.8425 18.934ZM23.9948 18.389C23.8132 19.1104 23.5277 19.8059 23.1489 20.4494C23.0243 20.657 23.0347 20.9165 23.1644 21.119L23.5225 21.6535L21.6645 23.5219L21.1352 23.1638C20.9328 23.0289 20.6733 23.0237 20.4708 23.143C19.8325 23.5271 19.1422 23.8126 18.426 23.9942C18.1924 24.0513 18.016 24.2433 17.9693 24.4821L17.8447 25.11H15.2186L15.094 24.4821C15.0473 24.2433 14.8709 24.0565 14.6373 23.9942C13.9211 23.8126 13.2308 23.5271 12.5925 23.143C12.3849 23.0185 12.1254 23.0237 11.9281 23.1638L11.3988 23.5219L9.54076 21.6535L9.89887 21.119C10.0338 20.9165 10.039 20.657 9.91444 20.4494C9.53557 19.8059 9.24493 19.1156 9.06847 18.389C9.01138 18.1555 8.81935 17.9738 8.5858 17.9271L7.96301 17.8026V15.1609L8.5858 15.0363C8.82454 14.9896 9.01138 14.8079 9.06847 14.5744C9.25012 13.853 9.53557 13.1575 9.91444 12.514C10.039 12.3064 10.0286 12.0469 9.89887 11.8445L9.54076 11.3099L11.3988 9.44151L11.9281 9.79962C12.1254 9.93456 12.3849 9.93975 12.5925 9.82038C13.2308 9.43632 13.9211 9.15087 14.6373 8.96922C14.8709 8.91213 15.0473 8.7201 15.094 8.48136L15.2186 7.85338H17.8447L17.9693 8.48136C18.016 8.7201 18.1924 8.90694 18.426 8.96922C19.1422 9.15087 19.8325 9.44151 20.4708 9.82038C20.6784 9.94494 20.9379 9.93456 21.1352 9.79962L21.6645 9.44151L23.5225 11.3099L23.1644 11.8445C23.0295 12.0469 23.0243 12.3064 23.1489 12.514C23.5277 13.1575 23.8184 13.8478 23.9948 14.5744C24.0519 14.8079 24.244 14.9896 24.4775 15.0363L25.1003 15.1609V17.8026L24.4775 17.9271C24.244 17.9738 24.0519 18.1555 23.9948 18.389Z" fill="white" stroke="#080219" stroke-width="0.15"/>
<path d="M16.5369 10.3301C13.1635 10.3301 10.418 13.0911 10.418 16.4854C10.418 19.8796 13.1635 22.6407 16.5369 22.6407C19.9104 22.6407 22.6559 19.8796 22.6559 16.4854C22.6559 13.0911 19.9104 10.3301 16.5369 10.3301ZM16.5369 21.3899C13.8485 21.3899 11.6636 19.1894 11.6636 16.4854C11.6636 13.7814 13.8485 11.5809 16.5369 11.5809C19.2254 11.5809 21.4103 13.7814 21.4103 16.4854C21.4103 19.1894 19.2254 21.3899 16.5369 21.3899Z" fill="white" stroke="#080219" stroke-width="0.15"/>
<path d="M2.10389 19.5334C2.13503 19.5334 2.17136 19.5282 2.2025 19.523C2.53985 19.4659 2.7734 19.1442 2.71631 18.8068C2.59694 18.0439 2.52947 17.2654 2.52947 16.4869C2.52947 8.63445 8.8768 2.25078 16.6773 2.25078C19.7394 2.25078 22.6199 3.21612 25.0591 5.03261C24.7685 5.5568 24.6076 6.16403 24.6076 6.80239C24.6076 8.83167 26.2477 10.4821 28.2614 10.4821C30.2751 10.4821 31.9151 8.83167 31.9151 6.80239C31.9151 4.77311 30.2751 3.1227 28.2614 3.1227C27.3324 3.1227 26.4812 3.47562 25.8376 4.0569C23.2011 2.08989 19.973 1 16.6773 1C8.19173 1 1.28906 7.94419 1.28906 16.4869C1.28906 17.3329 1.35653 18.1788 1.49147 19.0092C1.54337 19.3154 1.80287 19.5334 2.10389 19.5334ZM28.2666 4.37348C29.5952 4.37348 30.6799 5.46338 30.6799 6.80239C30.6799 8.14141 29.5952 9.2313 28.2666 9.2313C26.9379 9.2313 25.8532 8.14141 25.8532 6.80239C25.8532 5.46338 26.9379 4.37348 28.2666 4.37348Z" fill="white" stroke="#080219" stroke-width="0.15"/>
<path d="M31.9219 14.2873C31.8752 13.9447 31.5586 13.7112 31.2212 13.7579C30.8787 13.8046 30.6451 14.1212 30.6918 14.4637C30.7853 15.128 30.832 15.8131 30.832 16.4878C30.832 24.3403 24.4846 30.7239 16.6841 30.7239C13.4456 30.7239 10.3212 29.5977 7.81444 27.558C8.12584 27.0183 8.30748 26.3903 8.30748 25.7208C8.30748 23.6915 6.66745 22.0411 4.65374 22.0411C2.64003 22.0411 1 23.6915 1 25.7208C1 27.7501 2.64003 29.4005 4.65374 29.4005C5.5568 29.4005 6.382 29.0683 7.02037 28.5182C9.75549 30.7395 13.1549 31.9747 16.6893 31.9747C25.1749 31.9747 32.0828 25.0253 32.0828 16.4878C32.0724 15.7508 32.0205 15.0087 31.9219 14.2873ZM2.23521 25.7208C2.23521 24.3818 3.31992 23.2919 4.64855 23.2919C5.97719 23.2919 7.06189 24.3818 7.06189 25.7208C7.06189 27.0598 5.97719 28.1497 4.64855 28.1497C3.31992 28.1497 2.23521 27.0598 2.23521 25.7208Z" fill="white" stroke="#080219" stroke-width="0.15"/>
<path d="M19.1502 15.2904L16.768 13.6348C16.3217 13.3286 15.7508 13.2923 15.2733 13.5466C14.7958 13.8009 14.5 14.294 14.5 14.8337V18.1397C14.5 18.6795 14.7958 19.1725 15.2733 19.4268C15.4861 19.541 15.7145 19.5929 15.948 19.5929C16.2335 19.5929 16.5189 19.5047 16.768 19.3334L19.1502 17.6778C19.5395 17.4079 19.773 16.9564 19.773 16.4789C19.773 16.0118 19.5395 15.5655 19.1502 15.2904ZM18.4444 16.6554L16.0622 18.311C15.974 18.3733 15.8961 18.3473 15.8546 18.3214C15.8131 18.3006 15.7456 18.2487 15.7456 18.1397V14.8337C15.7456 14.7247 15.8131 14.678 15.8546 14.6521C15.8753 14.6417 15.9117 14.6261 15.948 14.6261C15.9843 14.6261 16.0207 14.6365 16.0622 14.6624L18.4444 16.318C18.5222 16.3699 18.5326 16.4426 18.5326 16.4841C18.5326 16.5308 18.5222 16.6035 18.4444 16.6554Z" fill="white" stroke="#080219" stroke-width="0.15"/>
</svg>
