<svg width="36" height="36" viewBox="0 0 36 36" fill="none" xmlns="http://www.w3.org/2000/svg">
<path fill-rule="evenodd" clip-rule="evenodd" d="M27.4368 14.4513C28.9254 15.1648 30.2217 16.3184 31.1079 17.8535C31.9761 19.3572 32.3306 21.017 32.2254 22.6302H33.4451C34.1091 22.6302 34.6468 23.168 34.6468 23.8319C34.6468 24.4959 34.1091 25.0336 33.4451 25.0336H31.7132C31.183 26.4666 30.2652 27.7644 29.0065 28.7528L31.4218 32.9361C31.7538 33.5114 31.5555 34.2475 30.9817 34.5779C30.4079 34.9084 29.6719 34.7131 29.3399 34.1378L26.9246 29.9544C23.0746 31.5016 18.5686 30.0205 16.4341 26.3254C16.1922 25.9063 15.9895 25.4737 15.8257 25.0336H2.20167C1.53773 25.0336 1 24.4959 1 23.8319V16.6219C1 14.6301 2.61324 13.0169 4.60502 13.0169C6.59679 13.0169 8.21003 14.6301 8.21003 16.6219V22.6302H10.6134V11.8152C10.6134 9.82342 12.2266 8.21018 14.2184 8.21018C16.2102 8.21018 17.8234 9.82342 17.8234 11.8152V16.0539C18.3251 15.5597 18.8974 15.1211 19.5358 14.7531C19.7626 14.6209 19.9939 14.5023 20.2267 14.3941V4.60502C20.2267 3.64968 20.6068 2.73191 21.2827 2.05597C21.9587 1.38004 22.8749 1 23.8318 1C24.7886 1 25.7049 1.38003 26.3808 2.05597C27.0567 2.73191 27.4368 3.64968 27.4368 4.60502V14.4513ZM21.816 16.3439C21.4495 16.4701 21.0875 16.6323 20.7375 16.8336C19.1348 17.7589 18.1149 19.3076 17.8039 20.9958C17.6703 21.7153 17.6673 22.4619 17.8024 23.1949C17.8235 23.3045 17.8475 23.4142 17.8745 23.5239C17.876 23.5359 17.8806 23.5509 17.8836 23.5629C18.0172 24.0976 18.2275 24.6234 18.5159 25.1236C20.1908 28.0241 23.9056 29.0201 26.8061 27.3451C28.2842 26.4904 29.268 25.107 29.6556 23.5719C29.6601 23.5524 29.6646 23.5328 29.6691 23.5133C30.0236 22.0533 29.8373 20.4581 29.0262 19.055C28.2812 17.7632 27.1321 16.8499 25.8298 16.3813C24.559 15.9247 23.1441 15.8903 21.816 16.3439ZM25.0335 13.7138V4.60493C25.0335 4.28649 24.9073 3.98007 24.682 3.75477C24.4567 3.52945 24.1503 3.40328 23.8319 3.40328C23.5134 3.40328 23.207 3.52945 22.9817 3.75477C22.7564 3.98008 22.6302 4.2865 22.6302 4.60493V13.6942C23.4338 13.586 24.2434 13.5936 25.0335 13.7138ZM15.4201 20.6747V11.8153C15.4201 11.1514 14.8824 10.6137 14.2185 10.6137C13.5545 10.6137 13.0168 11.1514 13.0168 11.8153V22.6304H15.3165C15.2744 21.974 15.3105 21.3175 15.4201 20.6747ZM5.80676 22.6304V16.622C5.80676 15.9581 5.26903 15.4203 4.60509 15.4203C3.94115 15.4203 3.40342 15.9581 3.40342 16.622V22.6304H5.80676Z" fill="white" stroke="#080219" stroke-width="0.85"/>
</svg>
