<svg width="30" height="31" viewBox="0 0 30 31" fill="none" xmlns="http://www.w3.org/2000/svg">
<path d="M25.4564 2.77043H24.0182V1.87118C24.0182 0.840191 23.1764 0 22.147 0C21.116 0 20.2758 0.841741 20.2758 1.87118V2.77043H9.0486V1.87118C9.0486 0.840191 8.20686 0 7.17742 0C6.14643 0 5.30624 0.841741 5.30624 1.87118V2.77043H3.86804C1.73646 2.77043 0 4.5069 0 6.63848V22.2529C0 24.3845 1.73646 26.1209 3.86804 26.1209H7.21226L6.86406 26.4237C6.76717 26.5085 6.70964 26.6296 6.7051 26.7568C6.70056 26.8839 6.74749 27.0081 6.83681 27.1019L9.08799 29.4152C9.17731 29.5045 9.30145 29.5545 9.42559 29.5545C9.55275 29.5545 9.67387 29.5 9.75865 29.4107L10.8865 28.2207L12.467 29.0852V30.5431C12.467 30.7989 12.676 31.0078 12.9318 31.0078H16.4002C16.656 31.0078 16.8649 30.7989 16.8649 30.5431V29.0852L18.4454 28.2207L19.5733 29.4107C19.6581 29.503 19.7822 29.5545 19.9064 29.5545C20.0305 29.5545 20.1501 29.5045 20.2394 29.4152L22.4906 27.1019C22.5799 27.0096 22.6269 26.8855 22.6223 26.7568C22.6178 26.6296 22.5602 26.5085 22.4633 26.4237L22.1151 26.1209H25.4594C27.5909 26.1209 29.3274 24.3845 29.3274 22.2529V6.64158C29.3274 4.51 27.5909 2.77353 25.4594 2.77353L25.4564 2.77043ZM21.2052 1.87118C21.2052 1.35193 21.6276 0.929524 22.1469 0.929524C22.6662 0.929524 23.0885 1.35189 23.0885 1.87118V4.59619C23.0885 5.11544 22.6662 5.53785 22.1469 5.53785C21.6276 5.53785 21.2052 5.11548 21.2052 4.59619V1.87118ZM6.23417 1.87118C6.23417 1.35193 6.65654 0.929524 7.17583 0.929524C7.69512 0.929524 8.11748 1.35189 8.11748 1.87118V4.59619C8.11748 5.11544 7.69512 5.53785 7.17583 5.53785C6.65654 5.53785 6.23417 5.11548 6.23417 4.59619V1.87118ZM19.9092 28.4221L18.8707 27.3261C18.7269 27.1717 18.4952 27.1368 18.309 27.2368L16.1729 28.404C16.0215 28.4857 15.9322 28.6401 15.9322 28.8112V30.0784H13.3934V28.8112C13.3934 28.6402 13.301 28.4857 13.1527 28.404L11.0166 27.2368C10.8303 27.1353 10.6018 27.1701 10.4549 27.3261L9.41636 28.4221L7.84643 26.8098L8.69573 26.0771C8.83955 25.953 8.89405 25.7516 8.83198 25.573L8.02962 23.2779C7.963 23.0917 7.78891 22.9675 7.5921 22.9675H6.1115V20.6846H7.5921C7.79042 20.6846 7.96452 20.5604 8.02962 20.3742L8.83198 18.0791C8.89405 17.9005 8.83955 17.6991 8.69573 17.575L7.84643 16.8423L9.41636 15.2299L10.4549 16.326C10.5987 16.4804 10.8304 16.5152 11.0166 16.4153L13.1527 15.2481C13.3041 15.1663 13.3934 15.0119 13.3934 14.8408V13.5737H15.9322V14.8408C15.9322 15.0119 16.0246 15.1663 16.1729 15.2481L18.309 16.4153C18.4952 16.5167 18.7238 16.4819 18.8707 16.326L19.9092 15.2299L21.4792 16.8423L20.6299 17.575C20.486 17.6991 20.4315 17.9005 20.4936 18.0791L21.296 20.3742C21.3626 20.5604 21.5367 20.6846 21.7335 20.6846H23.2141V22.9675H21.7335C21.5352 22.9675 21.3611 23.0917 21.296 23.2779L20.4936 25.573C20.4315 25.7516 20.486 25.9529 20.6299 26.0771L21.4792 26.8098L19.9092 28.4221ZM25.4548 25.1945H21.6095L22.0637 23.8956H23.6805C23.9364 23.8956 24.1453 23.6866 24.1453 23.4308V20.2183C24.1453 19.9624 23.9364 19.7535 23.6805 19.7535H22.0637L21.4748 18.067L22.4558 17.2177C22.5527 17.1329 22.6102 17.0118 22.6147 16.8846C22.6193 16.7575 22.5723 16.6333 22.483 16.5395L20.2318 14.2262C20.1425 14.1369 20.0229 14.0869 19.8942 14.0869C19.7671 14.0869 19.646 14.1414 19.5612 14.2307L18.4333 15.4207L16.8528 14.5562V13.0983C16.8528 12.8425 16.6439 12.6336 16.388 12.6336H12.9197C12.6638 12.6336 12.4549 12.8425 12.4549 13.0983V14.5562L10.8744 15.4207L9.74653 14.2307C9.66176 14.1384 9.53762 14.0869 9.41347 14.0869C9.28933 14.0869 9.16973 14.1369 9.08041 14.2262L6.82923 16.5395C6.73991 16.6318 6.69298 16.756 6.69752 16.8846C6.70206 17.0118 6.75959 17.1329 6.85648 17.2177L7.83748 18.067L7.24858 19.7535H5.63172C5.37586 19.7535 5.16695 19.9624 5.16695 20.2183V23.4308C5.16695 23.6866 5.37587 23.8956 5.63172 23.8956H7.24858L7.70276 25.1945H3.85743C2.23754 25.1945 0.920459 23.8774 0.920459 22.2575L0.915917 9.60292H28.3978V22.256C28.3978 23.8759 27.0807 25.193 25.4608 25.193L25.4548 25.1945ZM28.3918 8.67321H0.926579V6.64305C0.926579 5.02317 2.24366 3.70608 3.86355 3.70608H5.30174V4.60534C5.30174 5.63632 6.14349 6.47652 7.17292 6.47652C8.20391 6.47652 9.0441 5.63477 9.0441 4.60534V3.70608H20.2713V4.60534C20.2713 5.63632 21.1131 6.47652 22.1425 6.47652C23.1735 6.47652 24.0137 5.63477 24.0137 4.60534V3.70608H25.4519C27.0718 3.70608 28.3889 5.02317 28.3889 6.64305V8.67321H28.3918Z" fill="white"/>
</svg>
