<svg width="114" height="114" viewBox="0 0 114 114" fill="none" xmlns="http://www.w3.org/2000/svg">
<circle cx="56.7592" cy="56.7592" r="56.4151" fill="#080219" stroke="url(#paint0_linear_774_1867)" stroke-width="0.688161"/>
<path d="M38.4892 68.8535V69.311C38.4892 70.1603 38.8266 70.9748 39.4272 71.5754C40.0277 72.1759 40.8422 72.5133 41.6915 72.5133H53.5857C54.435 72.5133 55.2495 72.1759 55.8501 71.5754C56.4506 70.9748 56.788 70.1603 56.788 69.311V68.8535C56.8248 67.2747 56.3361 65.7284 55.3988 64.4574C54.4615 63.1865 53.1286 62.2628 51.6095 61.8314C52.5056 61.0277 53.1367 59.9709 53.4194 58.8008C53.7021 57.6308 53.6231 56.4025 53.1928 55.2783C52.7625 54.154 52.0012 53.1869 51.0095 52.5046C50.0178 51.8223 48.8424 51.457 47.6386 51.457C46.4349 51.457 45.2595 51.8223 44.2678 52.5046C43.2761 53.1869 42.5148 54.154 42.0845 55.2783C41.6542 56.4025 41.5752 57.6308 41.8579 58.8008C42.1406 59.9709 42.7717 61.0277 43.6678 61.8314C42.1486 62.2628 40.8157 63.1865 39.8784 64.4574C38.9411 65.7284 38.4525 67.2747 38.4892 68.8535ZM47.6386 53.2996C48.4529 53.2996 49.249 53.541 49.926 53.9935C50.6031 54.4459 51.1308 55.0889 51.4424 55.8412C51.7541 56.5935 51.8356 57.4214 51.6767 58.22C51.5179 59.0187 51.1257 59.7523 50.5499 60.3281C49.9741 60.9039 49.2405 61.296 48.4419 61.4549C47.6432 61.6138 46.8154 61.5322 46.063 61.2206C45.3107 60.909 44.6677 60.3813 44.2153 59.7042C43.7629 59.0271 43.5214 58.2311 43.5214 57.4168C43.5214 56.3248 43.9552 55.2776 44.7273 54.5055C45.4994 53.7334 46.5467 53.2996 47.6386 53.2996ZM45.8087 63.3639H49.4685C50.1939 63.3476 50.915 63.4785 51.5884 63.7487C52.2617 64.0188 52.8734 64.4226 53.3864 64.9356C53.8995 65.4486 54.3032 66.0603 54.5734 66.7337C54.8435 67.407 54.9744 68.1282 54.9581 68.8535V69.311C54.9581 69.675 54.8135 70.0241 54.5562 70.2814C54.2988 70.5388 53.9497 70.6834 53.5857 70.6834H41.6915C41.3275 70.6834 40.9785 70.5388 40.7211 70.2814C40.4637 70.0241 40.3191 69.675 40.3191 69.311V68.8535C40.3029 68.1282 40.4338 67.407 40.7039 66.7337C40.974 66.0603 41.3778 65.4486 41.8908 64.9356C42.4038 64.4226 43.0155 64.0188 43.6889 63.7487C44.3623 63.4785 45.0834 63.3476 45.8087 63.3639Z" fill="#E3E3E3"/>
<path d="M76.0021 62.4502C75.7595 62.4502 75.5267 62.5466 75.3552 62.7182C75.1836 62.8898 75.0872 63.1225 75.0872 63.3652V74.8019C75.0872 75.1659 74.9426 75.515 74.6852 75.7724C74.4278 76.0297 74.0788 76.1743 73.7148 76.1743H36.2023C35.8383 76.1743 35.4892 76.0297 35.2318 75.7724C34.9745 75.515 34.8299 75.1659 34.8299 74.8019V48.2687C34.8299 47.9047 34.9745 47.5556 35.2318 47.2983C35.4892 47.0409 35.8383 46.8963 36.2023 46.8963H56.3309C56.5736 46.8963 56.8063 46.7999 56.9779 46.6283C57.1495 46.4567 57.2459 46.224 57.2459 45.9813C57.2459 45.7387 57.1495 45.506 56.9779 45.3344C56.8063 45.1628 56.5736 45.0664 56.3309 45.0664H36.2023C35.353 45.0664 34.5385 45.4038 33.9379 46.0043C33.3374 46.6049 33 47.4194 33 48.2687V74.8019C33 75.6512 33.3374 76.4657 33.9379 77.0663C34.5385 77.6668 35.353 78.0042 36.2023 78.0042H73.7148C74.5641 78.0042 75.3786 77.6668 75.9791 77.0663C76.5797 76.4657 76.9171 75.6512 76.9171 74.8019V63.3652C76.9171 63.1225 76.8207 62.8898 76.6491 62.7182C76.4775 62.5466 76.2448 62.4502 76.0021 62.4502Z" fill="#E3E3E3"/>
<path d="M75.2016 45.3357L69.4467 51.0907L65.8235 47.4675C65.6518 47.2958 65.419 47.1994 65.1762 47.1994C64.9334 47.1994 64.7006 47.2958 64.5289 47.4675C64.3572 47.6392 64.2607 47.872 64.2607 48.1148C64.2607 48.3576 64.3572 48.5905 64.5289 48.7621L68.7971 53.0303C68.8822 53.1159 68.9834 53.1839 69.0949 53.2302C69.2064 53.2765 69.3259 53.3003 69.4467 53.3002C69.6889 53.2992 69.9209 53.2021 70.0917 53.0303L76.4963 46.6258C76.6537 46.4514 76.738 46.2233 76.7318 45.9885C76.7256 45.7537 76.6294 45.5303 76.463 45.3645C76.2966 45.1987 76.0729 45.1033 75.8381 45.0979C75.6033 45.0925 75.3754 45.1777 75.2016 45.3357Z" fill="#E3E3E3"/>
<path d="M81.6203 40.2492C81.5977 40.0379 81.5022 39.841 81.3503 39.6924C81.1984 39.5439 80.9994 39.4528 80.7877 39.4349C79.0425 39.2091 77.3387 38.7347 75.7281 38.0259C74.0645 37.3331 72.5146 36.3939 71.1305 35.2399C70.9619 35.0856 70.7415 35 70.5129 35C70.2843 35 70.064 35.0856 69.8954 35.2399C68.5116 36.3945 66.9617 37.3337 65.2978 38.0259C63.6957 38.7317 62.0013 39.2061 60.2656 39.4349C60.0531 39.4518 59.8531 39.5424 59.7002 39.6911C59.5474 39.8398 59.4512 40.0372 59.4284 40.2492C59.3873 40.638 58.4723 49.7737 60.7322 54.2843C63.4359 59.6733 69.8816 62.6972 70.1515 62.8253C70.272 62.881 70.4031 62.9099 70.5358 62.9099C70.6685 62.9099 70.7996 62.881 70.9201 62.8253C71.19 62.6972 77.6357 59.6733 80.3394 54.2843C82.5764 49.7737 81.6615 40.638 81.6203 40.2492ZM78.6788 53.4655C76.6247 57.569 71.8853 60.2543 70.5129 60.9725C69.1405 60.2543 64.4011 57.569 62.3471 53.4655C60.6636 50.0985 61.0021 43.36 61.1668 41.155C62.8342 40.8644 64.4617 40.3793 66.016 39.7094C67.6182 39.0318 69.129 38.1557 70.5129 37.1018C71.8969 38.1557 73.4077 39.0318 75.0099 39.7094C76.5641 40.3793 78.1917 40.8644 79.859 41.155C80.0283 43.36 80.3668 50.0985 78.6788 53.4655Z" fill="#E3E3E3"/>
<path d="M61.3632 72.5135H70.5126C70.7552 72.5135 70.9879 72.4171 71.1595 72.2455C71.3311 72.0739 71.4275 71.8412 71.4275 71.5985C71.4275 71.3559 71.3311 71.1232 71.1595 70.9516C70.9879 70.78 70.7552 70.6836 70.5126 70.6836H61.3632C61.1205 70.6836 60.8878 70.78 60.7162 70.9516C60.5446 71.1232 60.4482 71.3559 60.4482 71.5985C60.4482 71.8412 60.5446 72.0739 60.7162 72.2455C60.8878 72.4171 61.1205 72.5135 61.3632 72.5135Z" fill="#E3E3E3"/>
<path d="M61.3632 67.0252H66.8528C67.0955 67.0252 67.3282 66.9288 67.4998 66.7572C67.6714 66.5856 67.7678 66.3529 67.7678 66.1103C67.7678 65.8676 67.6714 65.6349 67.4998 65.4633C67.3282 65.2917 67.0955 65.1953 66.8528 65.1953H61.3632C61.1205 65.1953 60.8878 65.2917 60.7162 65.4633C60.5446 65.6349 60.4482 65.8676 60.4482 66.1103C60.4482 66.3529 60.5446 66.5856 60.7162 66.7572C60.8878 66.9288 61.1205 67.0252 61.3632 67.0252Z" fill="#E3E3E3"/>
<defs>
<linearGradient id="paint0_linear_774_1867" x1="13.3292" y1="14.4733" x2="151.195" y2="115.553" gradientUnits="userSpaceOnUse">
<stop stop-color="#A901A3"/>
<stop offset="0.360577" stop-color="#6F41D2"/>
</linearGradient>
</defs>
</svg>
