<svg width="52" height="52" viewBox="0 0 52 52" fill="none" xmlns="http://www.w3.org/2000/svg">
<rect x="0.188339" y="0.188339" width="51.6233" height="51.6233" rx="10.759" fill="#080219" stroke="url(#paint0_linear_785_1049)" stroke-width="0.376677"/>
<path fill-rule="evenodd" clip-rule="evenodd" d="M34.5609 16.1288C34.6415 16.1288 34.7188 16.1608 34.7758 16.2178C34.8328 16.2748 34.8648 16.3521 34.8648 16.4327C34.8648 16.5133 34.8328 16.5906 34.7758 16.6475C34.7188 16.7045 34.6415 16.7366 34.5609 16.7366H22.0356C21.955 16.7366 21.8777 16.7045 21.8207 16.6475C21.7638 16.5906 21.7317 16.5133 21.7317 16.4327C21.7317 16.3521 21.7638 16.2748 21.8207 16.2178C21.8777 16.1608 21.955 16.1288 22.0356 16.1288H34.5609ZM38.9172 18.2165V15.0414C38.9167 14.9265 38.8709 14.8165 38.7897 14.7352C38.7085 14.6539 38.5984 14.608 38.4836 14.6075H15.8728C15.7578 14.608 15.6478 14.6538 15.5665 14.7351C15.4852 14.8164 15.4394 14.9265 15.4389 15.0414V18.216L38.9172 18.2165ZM21.8022 25.9475C21.7292 25.8745 21.6331 25.829 21.5304 25.8188C21.4276 25.8087 21.3245 25.8345 21.2387 25.8918C21.1528 25.9492 21.0895 26.0345 21.0595 26.1333C21.0295 26.2321 21.0347 26.3383 21.0742 26.4337C21.1137 26.5291 21.185 26.6078 21.2761 26.6565C21.3671 26.7052 21.4723 26.7208 21.5735 26.7006C21.6748 26.6805 21.766 26.6259 21.8315 26.5461C21.897 26.4662 21.9328 26.3662 21.9328 26.2629C21.9329 26.2043 21.9214 26.1463 21.899 26.0922C21.8765 26.0381 21.8437 25.9889 21.8022 25.9475ZM23.8729 22.798C23.7999 22.725 23.7038 22.6795 23.6011 22.6693C23.4983 22.6592 23.3952 22.685 23.3094 22.7423C23.2235 22.7996 23.1602 22.885 23.1302 22.9838C23.1002 23.0826 23.1054 23.1887 23.1449 23.2841C23.1844 23.3796 23.2557 23.4583 23.3468 23.507C23.4378 23.5557 23.543 23.5713 23.6442 23.5511C23.7455 23.531 23.8367 23.4764 23.9022 23.3965C23.9677 23.3167 24.0035 23.2167 24.0035 23.1134C24.0035 23.0548 23.992 22.9968 23.9696 22.9427C23.9471 22.8886 23.9143 22.8394 23.8729 22.798ZM29.7404 20.9021C29.6674 20.8291 29.5713 20.7836 29.4686 20.7734C29.3658 20.7633 29.2627 20.7891 29.1769 20.8464C29.091 20.9038 29.0277 20.9891 28.9977 21.0879C28.9677 21.1867 28.9729 21.2928 29.0124 21.3882C29.0519 21.4837 29.1232 21.5624 29.2143 21.6111C29.3053 21.6598 29.4105 21.6754 29.5117 21.6552C29.613 21.6351 29.7042 21.5805 29.7697 21.5006C29.8352 21.4208 29.871 21.3208 29.871 21.2175C29.871 21.1589 29.8595 21.1009 29.8371 21.0468C29.8146 20.9927 29.7818 20.9435 29.7404 20.9021ZM27.4212 24.6966C27.3482 24.6235 27.2522 24.578 27.1494 24.5679C27.0467 24.5577 26.9436 24.5835 26.8577 24.6409C26.7718 24.6982 26.7085 24.7835 26.6785 24.8823C26.6485 24.9811 26.6537 25.0873 26.6932 25.1827C26.7327 25.2781 26.804 25.3569 26.8951 25.4055C26.9862 25.4542 27.0913 25.4698 27.1926 25.4497C27.2938 25.4295 27.385 25.3749 27.4505 25.2951C27.516 25.2153 27.5518 25.1152 27.5518 25.012C27.5518 24.9534 27.5403 24.8954 27.5179 24.8412C27.4955 24.7871 27.4626 24.738 27.4212 24.6966ZM21.6407 36.2954H38.4836C38.7595 36.2948 39.024 36.185 39.2191 35.9899C39.4142 35.7947 39.5241 35.5302 39.5247 35.2543V15.0414C39.524 14.7654 39.4142 14.501 39.2191 14.3058C39.024 14.1107 38.7595 14.0007 38.4836 14H15.8728C15.5968 14.0006 15.3323 14.1105 15.1371 14.3057C14.9419 14.5009 14.832 14.7654 14.8314 15.0414V29.691C14.6794 29.8099 14.5347 29.9379 14.3981 30.0742C13.9329 30.5405 13.5689 31.0978 13.3289 31.7112C13.089 32.3246 12.9782 32.981 13.0035 33.6392C13.0289 34.2974 13.1898 34.9433 13.4763 35.5364C13.7627 36.1296 14.1685 36.6572 14.6682 37.0863C15.1679 37.5155 15.7508 37.8368 16.3805 38.0303C17.0101 38.2239 17.6729 38.2853 18.3273 38.2109C18.9818 38.1365 19.6139 37.9278 20.184 37.5979C20.7541 37.268 21.25 36.824 21.6407 36.2936V36.2954ZM17.7828 28.6746C16.9618 28.6734 16.1544 28.8844 15.4389 29.2872V18.8232H38.9172V35.2543C38.9166 35.3691 38.8708 35.4791 38.7896 35.5603C38.7084 35.6415 38.5984 35.6873 38.4836 35.6879H22.0212C22.4042 34.9582 22.5925 34.1421 22.5677 33.3184C22.5429 32.4947 22.3059 31.6914 21.8797 30.9861C21.4535 30.2808 20.8524 29.6975 20.1347 29.2925C19.417 28.8876 18.6069 28.6748 17.7828 28.6746ZM36.2599 23.0294C36.3388 23.0319 36.4137 23.0649 36.4686 23.1216C36.5236 23.1783 36.5543 23.2542 36.5543 23.3331C36.5543 23.4121 36.5236 23.488 36.4686 23.5447C36.4137 23.6014 36.3388 23.6344 36.2599 23.6369H32.5211C32.4805 23.6382 32.4399 23.6312 32.402 23.6166C32.364 23.6019 32.3294 23.5797 32.3002 23.5514C32.2709 23.523 32.2477 23.4891 32.2318 23.4516C32.216 23.4141 32.2078 23.3739 32.2078 23.3331C32.2078 23.2924 32.216 23.2522 32.2318 23.2147C32.2477 23.1772 32.2709 23.1433 32.3002 23.1149C32.3294 23.0866 32.364 23.0644 32.402 23.0497C32.4399 23.035 32.4805 23.0281 32.5211 23.0294H36.2599ZM36.2599 21.2732C36.3388 21.2757 36.4137 21.3088 36.4686 21.3654C36.5236 21.4221 36.5543 21.498 36.5543 21.577C36.5543 21.6559 36.5236 21.7318 36.4686 21.7885C36.4137 21.8452 36.3388 21.8783 36.2599 21.8807H32.5211C32.4805 21.882 32.4399 21.8751 32.402 21.8604C32.364 21.8457 32.3294 21.8235 32.3002 21.7952C32.2709 21.7668 32.2477 21.7329 32.2318 21.6954C32.216 21.658 32.2078 21.6177 32.2078 21.577C32.2078 21.5363 32.216 21.496 32.2318 21.4585C32.2477 21.421 32.2709 21.3871 32.3002 21.3588C32.3294 21.3304 32.364 21.3083 32.402 21.2936C32.4399 21.2789 32.4805 21.2719 32.5211 21.2732H36.2599ZM34.4153 33.3843V26.4625H35.8947V33.3843H34.4153ZM30.6922 33.3843V28.4029H32.1716V33.3843H30.6922ZM26.9693 33.3843V30.7719H28.4484V33.3843H26.9693ZM37.1498 33.3843C37.1905 33.3831 37.231 33.39 37.2689 33.4047C37.3069 33.4194 37.3415 33.4415 37.3707 33.4699C37.4 33.4982 37.4232 33.5321 37.4391 33.5696C37.455 33.6071 37.4631 33.6474 37.4631 33.6881C37.4631 33.7288 37.455 33.7691 37.4391 33.8066C37.4232 33.844 37.4 33.878 37.3707 33.9063C37.3415 33.9346 37.3069 33.9568 37.2689 33.9715C37.231 33.9862 37.1905 33.9931 37.1498 33.9918H25.7131C25.6724 33.9931 25.6319 33.9862 25.5939 33.9715C25.5559 33.9568 25.5213 33.9346 25.4921 33.9063C25.4629 33.878 25.4396 33.844 25.4237 33.8066C25.4079 33.7691 25.3997 33.7288 25.3997 33.6881C25.3997 33.6474 25.4079 33.6071 25.4237 33.5696C25.4396 33.5321 25.4629 33.4982 25.4921 33.4699C25.5213 33.4415 25.5559 33.4194 25.5939 33.4047C25.6319 33.39 25.6724 33.3831 25.7131 33.3843H26.3615V30.4683C26.3615 30.3877 26.3935 30.3105 26.4504 30.2535C26.5074 30.1965 26.5846 30.1644 26.6651 30.1644H28.752C28.8326 30.1644 28.9099 30.1965 28.9668 30.2535C29.0238 30.3104 29.0559 30.3877 29.0559 30.4683V33.3843H30.0844V28.0993C30.0844 28.0187 30.1165 27.9414 30.1735 27.8845C30.2304 27.8275 30.3077 27.7955 30.3883 27.7954H32.4752C32.5557 27.7955 32.6329 27.8275 32.6899 27.8845C32.7468 27.9415 32.7788 28.0187 32.7788 28.0993V33.3843H33.8075V26.1589C33.8074 26.119 33.8153 26.0795 33.8305 26.0426C33.8457 26.0057 33.8681 25.9722 33.8963 25.944C33.9245 25.9158 33.958 25.8934 33.9948 25.8781C34.0317 25.8628 34.0712 25.855 34.1111 25.855H36.198C36.2786 25.855 36.3559 25.887 36.4129 25.944C36.4699 26.001 36.5019 26.0783 36.5019 26.1589V33.3843H37.1498ZM21.951 33.7652C21.8928 34.5637 21.6065 35.3288 21.126 35.9692C20.6455 36.6097 19.9912 37.0987 19.2408 37.378C18.4904 37.6573 17.6756 37.7152 16.8933 37.5447C16.1109 37.3743 15.3941 36.9827 14.8279 36.4165C14.2617 35.8503 13.8701 35.1334 13.6997 34.3511C13.5292 33.5688 13.5871 32.754 13.8664 32.0036C14.1457 31.2532 14.6347 30.5989 15.2751 30.1184C15.9156 29.6379 16.6807 29.3515 17.4792 29.2933V33.4616C17.4792 33.5421 17.5112 33.6193 17.5681 33.6762C17.6251 33.7332 17.7023 33.7652 17.7828 33.7652H21.951ZM18.0867 29.2933C19.0875 29.3662 20.0286 29.7967 20.7381 30.5063C21.4476 31.2158 21.8782 32.1569 21.951 33.1577H18.0867V29.2933ZM19.111 22.9454C19.1841 23.0184 19.2295 23.1144 19.2397 23.2172C19.2498 23.3199 19.2241 23.423 19.1667 23.5089C19.1094 23.5948 19.024 23.6581 18.9252 23.6881C18.8264 23.7181 18.7203 23.7129 18.6249 23.6734C18.5295 23.6339 18.4507 23.5625 18.402 23.4715C18.3534 23.3804 18.3378 23.2753 18.3579 23.174C18.378 23.0728 18.4327 22.9816 18.5125 22.9161C18.5923 22.8506 18.6924 22.8148 18.7956 22.8148C18.8542 22.8147 18.9122 22.8262 18.9664 22.8486C19.0205 22.871 19.0697 22.9039 19.111 22.9454ZM16.5148 26.7006C16.4919 26.7341 16.4625 26.7626 16.4284 26.7844C16.3944 26.8063 16.3562 26.8212 16.3163 26.8281C16.2764 26.835 16.2355 26.8339 16.1961 26.8247C16.1566 26.8156 16.1194 26.7986 16.0866 26.7749C16.0538 26.7511 16.0261 26.721 16.0051 26.6864C15.9841 26.6517 15.9703 26.6132 15.9644 26.5731C15.9586 26.533 15.9608 26.4922 15.971 26.453C15.9811 26.4138 15.9991 26.377 16.0237 26.3449L17.8789 23.7804C17.7874 23.6189 17.7402 23.4361 17.742 23.2504C17.7439 23.0648 17.7948 22.8829 17.8896 22.7233C17.9843 22.5636 18.1196 22.4319 18.2817 22.3413C18.4438 22.2508 18.6269 22.2047 18.8126 22.2077C18.9982 22.2107 19.1797 22.2627 19.3388 22.3585C19.4978 22.4542 19.6288 22.5903 19.7183 22.753C19.8078 22.9156 19.8528 23.099 19.8487 23.2846C19.8445 23.4702 19.7914 23.6515 19.6946 23.8099L21.0379 25.3088C21.2727 25.199 21.5397 25.1789 21.7883 25.2525L22.7501 23.7902C22.6364 23.6543 22.5587 23.492 22.5243 23.3182C22.49 23.1444 22.5 22.9647 22.5536 22.7958C22.6071 22.6269 22.7024 22.4742 22.8306 22.3519C22.9588 22.2296 23.1157 22.1416 23.287 22.0961C23.4582 22.0506 23.6382 22.049 23.8102 22.0915C23.9822 22.134 24.1407 22.2192 24.271 22.3393C24.4013 22.4593 24.4993 22.6103 24.5558 22.7782C24.6122 22.9461 24.6254 23.1256 24.5942 23.3L26.3209 24.3092C26.3338 24.2948 26.3471 24.2798 26.3609 24.2668C26.4955 24.132 26.6641 24.0362 26.8487 23.9895C27.0334 23.9428 27.2272 23.9469 27.4097 24.0015L28.6424 21.9217C28.4734 21.734 28.3775 21.4918 28.3723 21.2393C28.367 20.9869 28.4528 20.7409 28.6138 20.5464C28.7749 20.3519 29.0005 20.2218 29.2496 20.1798C29.4986 20.1379 29.7544 20.1869 29.9703 20.3179C30.1862 20.449 30.3478 20.6533 30.4255 20.8935C30.5033 21.1338 30.492 21.3941 30.3938 21.6267C30.2956 21.8594 30.117 22.049 29.8906 22.1609C29.6642 22.2728 29.4051 22.2995 29.1606 22.2362L27.9158 24.337C28.028 24.4719 28.1047 24.6327 28.139 24.8049C28.1732 24.977 28.1639 25.1549 28.1119 25.3226C28.06 25.4902 27.9669 25.6422 27.8413 25.7647C27.7156 25.8872 27.5614 25.9764 27.3925 26.0242C27.2236 26.0719 27.0455 26.0768 26.8743 26.0382C26.7031 25.9996 26.5442 25.9189 26.4121 25.8034C26.28 25.6878 26.1789 25.5411 26.1179 25.3765C26.0569 25.212 26.038 25.0348 26.0629 24.861L24.318 23.8409L24.302 23.8568C24.1676 23.9912 23.9994 24.0868 23.8151 24.1335C23.6308 24.1802 23.4373 24.1763 23.2551 24.1221L22.2935 25.5844C22.418 25.7328 22.4991 25.9128 22.5279 26.1044C22.5567 26.2959 22.5321 26.4918 22.4568 26.6703C22.3815 26.8488 22.2585 27.0031 22.1012 27.1161C21.9438 27.2292 21.7584 27.2967 21.5652 27.3112C21.372 27.3257 21.1786 27.2866 21.0061 27.1982C20.8337 27.1099 20.689 26.9757 20.5879 26.8104C20.4869 26.6451 20.4333 26.4552 20.4333 26.2614C20.4332 26.0677 20.4865 25.8777 20.5875 25.7123L19.2451 24.2143C19.1006 24.2822 18.9425 24.3163 18.7829 24.3142C18.6232 24.312 18.4661 24.2737 18.3234 24.202L16.5148 26.7006Z" fill="white" stroke="white" stroke-width="0.15"/>
<defs>
<linearGradient id="paint0_linear_785_1049" x1="6.10578" y1="6.62987" x2="69.2589" y2="52.9321" gradientUnits="userSpaceOnUse">
<stop stop-color="#A901A3"/>
<stop offset="0.360577" stop-color="#6F41D2"/>
</linearGradient>
</defs>
</svg>
