<svg width="52" height="52" viewBox="0 0 52 52" fill="none" xmlns="http://www.w3.org/2000/svg">
<rect x="0.188339" y="0.188339" width="51.6233" height="51.6233" rx="10.759" fill="#080219" stroke="url(#paint0_linear_785_1048)" stroke-width="0.376677"/>
<path d="M15.2725 13.1387H33.707C34.8834 13.1387 35.8407 14.0961 35.8408 15.2725V16.3711H36.5859C37.7623 16.3711 38.7196 17.3285 38.7197 18.5049V28.4043C38.7196 29.5806 37.7623 30.538 36.5859 30.5381H30.9043L31.0225 30.7451L34.5479 36.9365C34.7828 37.3495 34.4825 37.8613 34.0098 37.8613H17.8486C17.3734 37.8613 17.0769 37.3473 17.3105 36.9365L20.8359 30.7451L20.9541 30.5381H18.1514C16.975 30.538 16.0177 29.5806 16.0176 28.4043V27.3057H15.2725C14.0962 27.3055 13.1388 26.3482 13.1387 25.1719V15.2725C13.1388 14.0962 14.0962 13.1388 15.2725 13.1387ZM25.8086 24.5127L19.0312 36.416L18.9131 36.624H32.9463L32.8281 36.416L26.0498 24.5127L25.9297 24.3008L25.8086 24.5127ZM17.2549 28.4043C17.255 28.8986 17.6571 29.3007 18.1514 29.3008H21.6582L21.6982 29.2305L22.6768 27.5127L22.7949 27.3057H17.2549V28.4043ZM35.8408 25.1719C35.8407 26.3483 34.8835 27.3057 33.707 27.3057H29.0645L29.1826 27.5127L30.1602 29.2305L30.2002 29.3008H36.5859C37.0802 29.3007 37.4823 28.8986 37.4824 28.4043V18.5049C37.4823 18.0106 37.0803 17.6084 36.5859 17.6084H35.8408V25.1719ZM14.376 25.1719C14.3761 25.6661 14.7782 26.0682 15.2725 26.0684H23.499L23.5391 25.998L25.3916 22.7441C25.6285 22.3283 26.2298 22.3284 26.4668 22.7441L28.3193 25.998L28.3594 26.0684H33.707C34.2014 26.0684 34.6034 25.6662 34.6035 25.1719V20.8408H14.376V25.1719ZM14.376 19.6035H34.6035V17.6084H14.376V19.6035ZM15.2725 14.376C14.7782 14.3761 14.3761 14.7782 14.376 15.2725V16.3711H34.6035V15.2725C34.6034 14.7781 34.2014 14.376 33.707 14.376H15.2725Z" fill="white" stroke="#080219" stroke-width="0.277778"/>
<path d="M25.9297 27.6836C26.2713 27.6837 26.5479 27.9611 26.5479 28.3027V32.3428C26.5479 32.6844 26.2713 32.9618 25.9297 32.9619C25.588 32.9619 25.3105 32.6845 25.3105 32.3428V28.3027C25.3105 27.9611 25.588 27.6836 25.9297 27.6836Z" fill="white" stroke="#080219" stroke-width="0.277778"/>
<path d="M25.748 34.1758C26.0995 34.0714 26.4576 34.2826 26.5352 34.6436V34.6445C26.5925 34.9511 26.4304 35.2551 26.1084 35.3584C25.8428 35.439 25.5389 35.3347 25.3906 35.0684L25.3369 34.9443C25.2469 34.6454 25.3909 34.2939 25.7471 34.1748L25.748 34.1758Z" fill="white" stroke="#080219" stroke-width="0.277778"/>
<defs>
<linearGradient id="paint0_linear_785_1048" x1="6.10578" y1="6.62987" x2="69.2589" y2="52.9321" gradientUnits="userSpaceOnUse">
<stop stop-color="#A901A3"/>
<stop offset="0.360577" stop-color="#6F41D2"/>
</linearGradient>
</defs>
</svg>
