<svg width="114" height="114" viewBox="0 0 114 114" fill="none" xmlns="http://www.w3.org/2000/svg">
<path d="M57.1885 0.818359C88.3456 0.818359 113.604 26.0764 113.604 57.2334C113.604 88.3906 88.3457 113.649 57.1885 113.649C26.0315 113.649 0.773438 88.3905 0.773438 57.2334C0.773675 26.0765 26.0316 0.818596 57.1885 0.818359Z" fill="#080219" stroke="url(#paint0_linear_774_1870)" stroke-width="0.688161"/>
<path fill-rule="evenodd" clip-rule="evenodd" d="M34.9061 39.5828L46.4305 27.9321H46.4331C47.0185 27.3283 47.8245 26.9923 48.6645 27.0001H69.8053C71.5353 27.0028 72.9372 28.4046 72.9424 30.1347V47.6712C76.2528 48.5349 79.0513 50.7453 80.6576 53.7669C82.2642 56.7885 82.5346 60.3457 81.4006 63.5749C80.2665 66.8039 77.8329 69.4107 74.6905 70.7625L75.4781 75.0153C76.2052 75.2095 76.7565 75.8055 76.8957 76.5484L78.8226 87.023L78.82 87.0204C79.009 88.0809 78.3028 89.0942 77.2448 89.2885C76.011 89.5196 74.7719 89.7427 73.5354 89.9711V89.9684C72.4749 90.1601 71.4616 89.4592 71.2646 88.4012C70.8577 85.7498 70.2775 83.0825 69.7788 80.4206H37.1345C35.4045 80.418 34.0026 79.0161 34 77.2861V41.7882C34 40.8878 34.3098 40.2394 34.9083 39.5831L34.9061 39.5828ZM51.1537 63.9784H56.4933V63.981C56.7217 63.9889 56.9422 63.9049 57.1076 63.7473C57.273 63.5898 57.3649 63.3719 57.3649 63.1435C57.3649 62.9151 57.273 62.6973 57.1076 62.5371C56.9422 62.3796 56.7217 62.2956 56.4933 62.3061H51.1537C50.7048 62.3218 50.3477 62.692 50.3477 63.1435C50.3477 63.5925 50.7048 63.9626 51.1537 63.981V63.9784ZM51.1537 59.8305H56.0891V59.8358C56.3175 59.8436 56.5406 59.7596 56.706 59.6021C56.8688 59.442 56.9633 59.2241 56.9633 58.9957C56.9633 58.7673 56.8688 58.5494 56.706 58.3919C56.5406 58.2344 56.3175 58.1504 56.0891 58.1583H51.1537C50.7048 58.1766 50.3477 58.5468 50.3477 58.9957C50.3477 59.4472 50.7048 59.8174 51.1537 59.8358V59.8305ZM51.1537 52.036H58.4226V52.0413C58.651 52.0492 58.8715 51.9652 59.0369 51.8077C59.2023 51.6475 59.2942 51.4296 59.2942 51.2012C59.2942 50.9728 59.2023 50.7549 59.0369 50.5974C58.8715 50.4399 58.651 50.3559 58.4226 50.3638H51.1537C50.7048 50.3822 50.3477 50.7523 50.3477 51.2012C50.3477 51.6528 50.7048 52.023 51.1537 52.0413V52.036ZM51.1537 47.8908L62.379 47.8961C62.841 47.8961 63.219 47.518 63.219 47.056C63.219 46.594 62.841 46.2186 62.379 46.2186H51.1537C50.6916 46.2186 50.3136 46.594 50.3136 47.056C50.3136 47.5181 50.6916 47.8961 51.1537 47.8961V47.8908ZM51.1537 40.0964H63.9858V40.1016C64.4479 40.1016 64.8259 39.7236 64.8259 39.2615C64.8259 38.7995 64.4479 38.4241 63.9858 38.4241H51.1537C50.6916 38.4241 50.3136 38.7995 50.3136 39.2615C50.3136 39.7236 50.6916 40.1016 51.1537 40.1016V40.0964ZM51.1537 35.9485H63.9858V35.9538C64.4348 35.9354 64.7918 35.5652 64.7918 35.1163C64.7918 34.6648 64.4347 34.2946 63.9858 34.2789H51.1537C50.7048 34.2946 50.3477 34.6648 50.3477 35.1163C50.3477 35.5652 50.7048 35.9354 51.1537 35.9538V35.9485ZM73.7988 75.1319L73.0979 71.3253C72.4232 71.5091 71.7328 71.6351 71.0371 71.7033L71.738 75.5152L73.7988 75.1319ZM70.1235 75.9982L69.3359 71.7428V71.7402C66.0177 71.5984 62.8989 70.1125 60.6987 67.6238C58.4988 65.1378 57.4041 61.8615 57.664 58.5511C57.9265 55.2381 59.5226 52.1771 62.0874 50.0665C64.6523 47.9558 67.9653 46.9792 71.265 47.3573V30.1332C71.2624 29.3273 70.6113 28.6762 69.8054 28.6762H48.5382L48.5409 38.5473C48.5356 40.2773 47.1337 41.6792 45.4037 41.6819H35.6798V77.2852C35.6824 78.0885 36.3335 78.7396 37.1394 78.7422H69.4766C69.4293 78.4718 69.3847 78.2014 69.3453 77.931C69.2088 77.1907 69.5133 76.4399 70.1224 75.9989L70.1235 75.9982ZM71.1814 77.3108H71.1788C71.0581 77.3502 70.9767 77.4683 70.9846 77.5943C72.922 88.1267 71.0108 77.7046 72.922 88.1267H72.9193C72.9613 88.2501 73.0768 88.3315 73.2055 88.3262C74.3868 88.0637 75.7782 87.8012 76.9805 87.6332V87.6306C77.1013 87.5912 77.1801 87.4731 77.1748 87.3445C75.2374 76.812 77.1643 86.738 75.2374 76.812C75.198 76.6913 75.0825 76.6099 74.9539 76.6178L71.1736 77.3108L71.1814 77.3108ZM80.4249 59.3778C80.3881 56.574 79.2383 53.9016 77.2326 51.9455C75.2243 49.9897 72.523 48.9108 69.7218 48.9476C66.918 48.9817 64.2456 50.1315 62.2895 52.1372C60.3311 54.1455 59.2522 56.8468 59.2889 59.6507C59.3257 62.4519 60.4729 65.1243 62.4812 67.083C64.4869 69.0388 67.1882 70.1177 69.9921 70.0809C75.883 69.7817 80.5015 65.4002 80.4249 59.3778ZM69.7426 50.6229C66.1487 50.6702 62.9354 52.8754 61.602 56.2146C60.2684 59.5539 61.077 63.3659 63.6523 65.8754C66.225 68.3851 70.0578 69.0965 73.3628 67.6789C76.6653 66.2613 78.7891 62.9929 78.7445 59.3965V59.3991C78.7156 57.0391 77.7495 54.7919 76.0615 53.1459C74.3735 51.4999 72.1 50.5914 69.7426 50.6229ZM69.7636 52.2926H69.761C66.8444 52.3319 64.2349 54.1276 63.156 56.8394C62.0744 59.5513 62.7333 62.6463 64.8256 64.6836C66.9179 66.7207 70.0288 67.2957 72.7115 66.1432C75.3944 64.9908 77.1166 62.3367 77.0798 59.4173C77.0273 55.4296 73.7537 52.2398 69.7659 52.2922L69.7636 52.2926ZM36.8464 40.0041H45.4044C46.2077 40.0015 46.8588 39.3504 46.864 38.5471V29.8836L36.8464 40.0041Z" fill="white" stroke="#080219" stroke-width="0.4"/>
<path d="M41.6303 49.2969H40.0688C39.998 49.2969 39.935 49.3414 39.9107 49.4079C39.8891 49.4752 39.9102 49.5492 39.9642 49.5948L43.3088 52.2654C43.3429 52.2931 43.3871 52.3064 43.431 52.3018C43.4749 52.2971 43.5151 52.2752 43.5428 52.2408C43.6006 52.1683 43.5888 52.0625 43.5162 52.0048L40.5455 49.6337H41.6303C42.118 49.6337 42.588 49.4506 42.9474 49.1209C43.3068 48.791 43.5296 48.3386 43.5718 47.8527H44.5272C44.6193 47.8515 44.6936 47.7764 44.6936 47.6843C44.6936 47.5924 44.6191 47.5179 44.5272 47.5179H43.5718C43.5186 46.9352 43.2063 46.407 42.7213 46.0797H44.5272C44.6193 46.0786 44.6936 46.0035 44.6936 45.9113C44.6976 45.8648 44.6818 45.8186 44.6503 45.7842C44.6185 45.7498 44.5737 45.7305 44.5272 45.7305H40.0689C39.9771 45.7305 39.9025 45.805 39.9025 45.8969C39.9025 45.9893 39.9768 46.0641 40.0689 46.0653H41.6304C42.0297 46.0659 42.4148 46.2138 42.7115 46.4813C43.0082 46.7488 43.1954 47.1166 43.237 47.5138H40.0689C39.9771 47.5138 39.9025 47.5884 39.9025 47.6802C39.9025 47.7724 39.9768 47.8475 40.0689 47.8487H43.237C43.1948 48.2456 43.0076 48.6131 42.7109 48.8803C42.4145 49.1478 42.0295 49.2961 41.6303 49.2969Z" fill="#D7D7D7" stroke="white" stroke-width="0.328671"/>
<path d="M41.6303 60.7227H40.0688C39.998 60.7227 39.935 60.7672 39.9107 60.8337C39.8891 60.901 39.9102 60.9749 39.9642 61.0206L43.3088 63.6911C43.3429 63.7189 43.3871 63.7322 43.431 63.7275C43.4749 63.7229 43.5151 63.701 43.5428 63.6666C43.6006 63.5941 43.5888 63.4883 43.5162 63.4305L40.5455 61.0595H41.6303C42.118 61.0595 42.588 60.8764 42.9474 60.5467C43.3068 60.2168 43.5296 59.7644 43.5718 59.2785H44.5272C44.6193 59.2773 44.6936 59.2022 44.6936 59.11C44.6936 59.0182 44.6191 58.9436 44.5272 58.9436H43.5718C43.5186 58.3609 43.2063 57.8328 42.7213 57.5055H44.5272C44.6193 57.5044 44.6936 57.4293 44.6936 57.3371C44.6976 57.2906 44.6818 57.2444 44.6503 57.21C44.6185 57.1756 44.5737 57.1562 44.5272 57.1562H40.0689C39.9771 57.1562 39.9025 57.2308 39.9025 57.3227C39.9025 57.4151 39.9768 57.4899 40.0689 57.4911H41.6304C42.0297 57.4917 42.4148 57.6396 42.7115 57.9071C43.0082 58.1746 43.1954 58.5424 43.237 58.9396H40.0689C39.9771 58.9396 39.9025 59.0141 39.9025 59.106C39.9025 59.1982 39.9768 59.2733 40.0689 59.2744H43.237C43.1948 59.6714 43.0076 60.0389 42.7109 60.3061C42.4145 60.5736 42.0295 60.7219 41.6303 60.7227Z" fill="#D7D7D7" stroke="white" stroke-width="0.328671"/>
<defs>
<linearGradient id="paint0_linear_774_1870" x1="13.7589" y1="14.9479" x2="151.625" y2="116.028" gradientUnits="userSpaceOnUse">
<stop stop-color="#A901A3"/>
<stop offset="0.360577" stop-color="#6F41D2"/>
</linearGradient>
</defs>
</svg>
