<svg width="117" height="117" viewBox="0 0 117 117" fill="none" xmlns="http://www.w3.org/2000/svg">
<circle cx="58.6869" cy="58.7084" r="57.8897" fill="#080219" stroke="url(#paint0_linear_774_1866)" stroke-width="0.688161"/>
<path fill-rule="evenodd" clip-rule="evenodd" d="M64.8267 70.2448C63.0899 71.4479 62.2499 72.9376 62.2499 74.3747C62.2499 75.8119 63.0899 77.3015 64.8267 78.5046C66.5592 79.7033 69.0441 80.4996 71.8747 80.4996C74.7053 80.4996 77.1902 79.7033 78.9227 78.5046C80.6595 77.3015 81.4995 75.8119 81.4995 74.3747C81.4995 72.9376 80.6595 71.4479 78.9227 70.2448C77.1902 69.0461 74.7053 68.2499 71.8747 68.2499C69.0441 68.2499 66.5592 69.0461 64.8267 70.2448ZM62.8361 67.3684C65.2205 65.7169 68.4229 64.75 71.8749 64.75C75.3268 64.75 78.5292 65.7169 80.9136 67.3684C83.2935 69.0155 84.9997 71.4633 84.9997 74.3749C84.9997 77.2865 83.2935 79.7341 80.9136 81.3814C78.5293 83.0329 75.3268 83.9998 71.8749 83.9998C68.4229 83.9998 65.2206 83.0329 62.8361 81.3814C60.4562 79.7343 58.75 77.2865 58.75 74.3749C58.75 71.4633 60.4562 69.0157 62.8361 67.3684Z" fill="#E3E3E3" stroke="#080219"/>
<path fill-rule="evenodd" clip-rule="evenodd" d="M71.8745 48.9996C69.4574 48.9996 67.4996 50.9574 67.4996 53.3745C67.4996 55.7916 69.4574 57.7494 71.8745 57.7494C74.2916 57.7494 76.2494 55.7916 76.2494 53.3745C76.2494 50.9574 74.2916 48.9996 71.8745 48.9996ZM64 53.3745C64 49.0259 67.5262 45.5 71.8745 45.5C76.2228 45.5 79.749 49.0262 79.749 53.3745C79.749 57.7228 76.2228 61.249 71.8745 61.249C67.5262 61.249 64 57.7228 64 53.3745Z" fill="#E3E3E3" stroke="#080219"/>
<path fill-rule="evenodd" clip-rule="evenodd" d="M36.0003 43.7498C36.0003 38.9177 39.918 35 44.75 35H64.8748C69.2234 35 72.7493 38.5262 72.7493 42.8745H69.2494C69.2494 40.4574 67.2916 38.4996 64.8745 38.4996H44.7498C41.8514 38.4996 39.4999 40.8511 39.4999 43.7495V75.2486C39.4999 78.1492 41.8514 80.4985 44.7498 80.4985H56.9994V83.9984H44.7498C39.9177 83.9984 36 80.0807 36 75.2486L36.0003 43.7498Z" fill="#E3E3E3" stroke="#080219"/>
<path fill-rule="evenodd" clip-rule="evenodd" d="M57.3623 44.9874L48.2497 54.0983L43.5117 49.3625L45.9879 46.8863L48.2497 49.1503L54.8867 42.5117L57.3623 44.9874Z" fill="#E3E3E3" stroke="#080219"/>
<path fill-rule="evenodd" clip-rule="evenodd" d="M58.7496 59.4999H43V56H58.7496V59.4999Z" fill="#E3E3E3" stroke="#080219"/>
<path fill-rule="evenodd" clip-rule="evenodd" d="M55.2497 73.4999H43V70H55.2497V73.4999Z" fill="#E3E3E3" stroke="#080219"/>
<path fill-rule="evenodd" clip-rule="evenodd" d="M51.7498 66.4999H43V63H51.7498V66.4999Z" fill="#E3E3E3" stroke="#080219"/>
<defs>
<linearGradient id="paint0_linear_774_1866" x1="14.1286" y1="15.3239" x2="155.576" y2="119.03" gradientUnits="userSpaceOnUse">
<stop stop-color="#A901A3"/>
<stop offset="0.360577" stop-color="#6F41D2"/>
</linearGradient>
</defs>
</svg>
