<svg width="45" height="45" viewBox="0 0 45 45" fill="none" xmlns="http://www.w3.org/2000/svg">
<path d="M34.4816 15.728C34.1931 15.728 33.9103 15.7449 33.6331 15.7789C33.7915 15.1963 33.8707 14.5854 33.8707 13.9631C33.8707 10.1224 30.754 7 26.9189 7C23.5137 7 20.6175 9.46623 20.0519 12.7923C19.5032 12.6056 18.9206 12.5094 18.3153 12.5094C16.0867 12.5094 14.0899 13.8726 13.2697 15.926C12.7494 15.7959 12.2007 15.728 11.635 15.728C7.79426 15.728 4.67188 18.8504 4.67188 22.6911C4.67188 26.5319 7.79426 29.6543 11.635 29.6543H14.6556C14.599 30.5367 14.0673 31.3173 13.2471 31.6736C12.9756 31.7924 12.8229 32.1092 12.9021 32.4033C13.134 33.2461 13.4734 34.0776 13.9202 34.8696C14.073 35.1411 14.4067 35.2485 14.7122 35.1298C15.5776 34.8017 16.5562 35.011 17.2067 35.6671C17.8628 36.3233 18.0778 37.3075 17.7497 38.1673C17.6309 38.4727 17.744 38.8065 18.0155 38.9649C18.8075 39.4061 19.6333 39.7455 20.4761 39.9774C20.7759 40.0566 21.0814 39.9152 21.2115 39.6323C21.5848 38.7782 22.4276 38.2239 23.3666 38.2239C24.2999 38.2239 25.1484 38.7782 25.5217 39.6323C25.6179 39.8642 25.8385 40 26.0874 40C26.1439 40 26.2005 39.9943 26.2571 39.9774C27.0942 39.7511 27.9257 39.4061 28.7176 38.9649C28.9892 38.8065 29.1023 38.4727 28.9835 38.173C28.6554 37.3075 28.8704 36.3289 29.5265 35.6728C30.177 35.0166 31.1612 34.8073 32.021 35.1354C32.3265 35.2542 32.6602 35.1467 32.8186 34.8752C33.2655 34.0833 33.6049 33.2575 33.8368 32.409C33.916 32.1148 33.7689 31.7981 33.4917 31.6793C32.6772 31.3286 32.1398 30.5423 32.0889 29.6599H34.4816C38.3167 29.6599 41.4391 26.5375 41.4391 22.6968C41.4391 18.856 38.3167 15.728 34.4816 15.728ZM33.2711 32.194C33.2881 32.1997 33.3051 32.2336 33.2937 32.2563C33.0731 33.0538 32.7507 33.8401 32.3321 34.5867C32.3152 34.615 32.2699 34.615 32.2303 34.598C31.1556 34.1908 29.9451 34.451 29.1306 35.2599C28.316 36.0744 28.0558 37.2905 28.4631 38.3653C28.4744 38.3992 28.4744 38.4445 28.4461 38.4614C27.6938 38.88 26.9132 39.2024 26.1213 39.423C26.0987 39.4287 26.0647 39.423 26.0534 39.4004C25.5839 38.337 24.5375 37.6526 23.3779 37.6526C22.2127 37.6526 21.1606 38.337 20.7024 39.3948C20.6911 39.423 20.6515 39.4344 20.6289 39.423C19.8313 39.2081 19.0507 38.8857 18.304 38.4671C18.2701 38.4501 18.2701 38.4049 18.2871 38.3653C18.6943 37.2962 18.4285 36.0744 17.6196 35.2599C17.0653 34.7055 16.3186 34.4057 15.555 34.4057C15.2043 34.4057 14.8536 34.4679 14.5198 34.598C14.4859 34.615 14.4406 34.6094 14.4237 34.5867C13.9994 33.8344 13.677 33.0538 13.4564 32.2506C13.4508 32.228 13.4677 32.1884 13.479 32.1827C14.5481 31.7189 15.2326 30.6668 15.2326 29.5015C15.2326 28.342 14.5425 27.2955 13.479 26.826C13.4621 26.8204 13.4451 26.7864 13.4564 26.7638C13.677 25.9606 13.9994 25.1743 14.418 24.439C14.435 24.4107 14.4802 24.405 14.5198 24.422C15.5946 24.8293 16.8107 24.5691 17.6253 23.7602C18.4341 22.9513 18.7 21.7295 18.2871 20.6548C18.2757 20.6208 18.2757 20.5756 18.304 20.5586C19.0563 20.14 19.8369 19.8176 20.6289 19.597C20.6628 19.5914 20.6911 19.6027 20.7024 19.6196C21.1606 20.6831 22.2127 21.3675 23.3779 21.3675C24.5375 21.3675 25.5896 20.6831 26.0534 19.6196C26.0591 19.6027 26.093 19.5914 26.1157 19.597C26.9132 19.812 27.6938 20.1344 28.4405 20.553C28.4744 20.5699 28.4744 20.6152 28.4574 20.6548C28.0502 21.7295 28.3104 22.9457 29.1193 23.7602C29.9281 24.5691 31.1499 24.8293 32.2247 24.422C32.2586 24.4107 32.3039 24.4107 32.3208 24.439C32.7394 25.18 33.0675 25.9606 33.2881 26.7638C33.2937 26.7864 33.2768 26.8204 33.2655 26.8317C32.202 27.3012 31.5119 28.3533 31.5119 29.5072C31.5119 30.6781 32.202 31.7302 33.2711 32.194ZM34.4816 29.0943H32.1229C32.2643 28.3363 32.7677 27.6745 33.4974 27.3577C33.7745 27.2389 33.9216 26.9222 33.8424 26.628C33.6105 25.7796 33.2655 24.9537 32.8243 24.1675C32.6659 23.896 32.3321 23.7828 32.0323 23.9016C31.1669 24.2297 30.1827 24.0204 29.5322 23.3642C28.876 22.7081 28.6667 21.7295 28.9948 20.8641C29.1136 20.5586 29.0005 20.2249 28.729 20.0665C27.937 19.6253 27.1112 19.2859 26.2684 19.054C25.9742 18.9748 25.6575 19.1219 25.5387 19.399C25.1597 20.2532 24.3169 20.8075 23.3779 20.8075C22.4389 20.8075 21.5905 20.2532 21.2171 19.3877C21.087 19.1162 20.7816 18.9748 20.4818 19.054C19.639 19.2859 18.8131 19.6253 18.0212 20.0665C17.7497 20.2249 17.6366 20.5586 17.7554 20.8584C18.0834 21.7239 17.8741 22.7081 17.218 23.3586C16.5618 24.0147 15.5833 24.224 14.7178 23.896C14.4124 23.7772 14.0786 23.8903 13.9259 24.1618C13.479 24.9424 13.1396 25.7683 12.9077 26.6224C12.8285 26.9165 12.9756 27.2333 13.2528 27.3521C13.9825 27.6745 14.4859 28.3307 14.6273 29.0886H11.635C8.10537 29.0886 5.23752 26.2208 5.23752 22.6911C5.23752 19.1615 8.10537 16.2936 11.635 16.2936C12.2403 16.2936 12.8229 16.3728 13.3659 16.5369C13.513 16.5764 13.6657 16.5029 13.711 16.3558C14.3841 14.393 16.2338 13.0751 18.3153 13.0751C18.9715 13.0751 19.5937 13.1995 20.165 13.4427C20.2442 13.4767 20.3404 13.471 20.4196 13.4258C20.4988 13.3805 20.5497 13.3013 20.561 13.2165C20.9456 9.99229 23.6777 7.56565 26.9189 7.56565C30.4429 7.56565 33.3051 10.4335 33.3051 13.9631C33.3051 14.6872 33.1863 15.3829 32.96 16.0391C32.9261 16.1352 32.9487 16.2427 33.0166 16.3162C33.0845 16.3954 33.1863 16.4294 33.2881 16.4068C33.6671 16.3276 34.0687 16.288 34.4873 16.288C38.0113 16.288 40.8791 19.1558 40.8791 22.6855C40.8791 26.2151 38.0056 29.0943 34.4816 29.0943Z" fill="white" stroke="white" stroke-width="0.3"/>
<path d="M23.372 23.7715C20.2044 23.7715 17.625 26.3508 17.625 29.5185C17.625 32.6861 20.2044 35.2598 23.372 35.2598C26.5396 35.2598 29.1133 32.6861 29.1133 29.5185C29.1133 26.3508 26.5396 23.7715 23.372 23.7715ZM23.372 34.6942C20.5155 34.6942 18.1906 32.375 18.1906 29.5185C18.1906 26.662 20.5155 24.3371 23.372 24.3371C26.2285 24.3371 28.5477 26.662 28.5477 29.5185C28.5477 32.375 26.2229 34.6942 23.372 34.6942Z" fill="white" stroke="white" stroke-width="0.3"/>
<path d="M21.3775 28.0528C21.2813 27.8548 20.9589 27.8548 20.8628 28.0528L19.59 30.7622C19.5222 30.9037 19.5844 31.0733 19.7258 31.1412C19.8672 31.2091 20.0369 31.1469 20.1048 31.0055L20.4611 30.2532H21.7848L22.1411 31.0055C22.1864 31.1073 22.2938 31.1695 22.3957 31.1695C22.4353 31.1695 22.4749 31.1582 22.5145 31.1412C22.6559 31.0733 22.7181 30.9037 22.6502 30.7622L21.3775 28.0528ZM20.727 29.6819L21.123 28.8334L21.5189 29.6819H20.727Z" fill="white" stroke="white" stroke-width="0.3"/>
<path d="M24.746 27.709H23.6656C23.5073 27.709 23.3828 27.8334 23.3828 27.9918V29.2815V29.2871V30.9445C23.3828 31.1029 23.5073 31.2273 23.6656 31.2273C23.824 31.2273 23.9485 31.1029 23.9485 30.9445V29.5643H24.746C25.2608 29.5643 25.6737 29.1457 25.6737 28.6367C25.6793 28.1219 25.2608 27.709 24.746 27.709ZM24.746 28.9987H23.9485V28.2746H24.746C24.944 28.2746 25.108 28.4387 25.108 28.631C25.1137 28.8346 24.9497 28.9987 24.746 28.9987Z" fill="white" stroke="white" stroke-width="0.3"/>
<path d="M26.6094 27.9918V31.0407C26.6094 31.199 26.7338 31.3235 26.8922 31.3235C27.0506 31.3235 27.175 31.199 27.175 31.0407V27.9918C27.175 27.8334 27.0506 27.709 26.8922 27.709C26.7338 27.709 26.6094 27.8334 26.6094 27.9918Z" fill="white" stroke="white" stroke-width="0.3"/>
</svg>
