<svg width="45" height="45" viewBox="0 0 45 45" fill="none" xmlns="http://www.w3.org/2000/svg">
<path d="M40.2292 4H4.77083C4.34687 4 4 4.34687 4 4.77083V34.0625C4 34.4865 4.34687 34.8333 4.77083 34.8333H18.6458V40.2292C18.6458 40.5375 18.8308 40.8227 19.1238 40.9383C19.409 41.054 19.7404 40.9923 19.964 40.7687L22.5 38.2327L25.036 40.7687C25.1825 40.9229 25.3829 41 25.5833 41C25.6835 41 25.7838 40.9846 25.8762 40.9383C26.1692 40.8227 26.3542 40.5375 26.3542 40.2292V34.8333H40.2292C40.6531 34.8333 41 34.4865 41 34.0625V4.77083C41 4.34687 40.6531 4 40.2292 4ZM24.8125 38.3715L23.0473 36.6062C22.7467 36.3056 22.261 36.3056 21.9604 36.6062L20.1875 38.3715V32.1663C20.9198 32.3975 21.6983 32.5208 22.5 32.5208C23.3017 32.5208 24.0802 32.3975 24.8125 32.1663V38.3715ZM22.5 30.9792C19.1006 30.9792 16.3333 28.2119 16.3333 24.8125C16.3333 21.4131 19.1006 18.6458 22.5 18.6458C25.8994 18.6458 28.6667 21.4131 28.6667 24.8125C28.6667 28.2119 25.8994 30.9792 22.5 30.9792ZM39.4583 33.2917H26.3542V31.4802C28.6512 30.1467 30.2083 27.6569 30.2083 24.8125C30.2083 20.5652 26.7473 17.1042 22.5 17.1042C18.2527 17.1042 14.7917 20.5652 14.7917 24.8125C14.7917 27.6569 16.3488 30.139 18.6458 31.4802V33.2917H5.54167V11.7083H39.4583V33.2917ZM39.4583 10.1667H5.54167V5.54167H39.4583V10.1667Z" fill="white" stroke="#0B051E" stroke-width="0.4"/>
<path d="M7.07812 7.08301H8.61979V8.62467H7.07812V7.08301Z" fill="white" stroke="#0B051E" stroke-width="0.3"/>
<path d="M10.1719 7.08301H11.7135V8.62467H10.1719V7.08301Z" fill="white" stroke="#0B051E" stroke-width="0.3"/>
<path d="M22.4948 20.958C20.3673 20.958 18.6406 22.6847 18.6406 24.8122C18.6406 26.9397 20.3673 28.6663 22.4948 28.6663C24.6223 28.6663 26.349 26.9397 26.349 24.8122C26.349 22.6847 24.6223 20.958 22.4948 20.958ZM22.4948 27.1247C21.2229 27.1247 20.1823 26.084 20.1823 24.8122C20.1823 23.5403 21.2229 22.4997 22.4948 22.4997C23.7667 22.4997 24.8073 23.5403 24.8073 24.8122C24.8073 26.084 23.7667 27.1247 22.4948 27.1247Z" fill="white" stroke="#0B051E" stroke-width="0.4"/>
</svg>
