<svg width="45" height="45" viewBox="0 0 45 45" fill="none" xmlns="http://www.w3.org/2000/svg">
<path d="M22 34.75C21.379 34.75 20.875 34.246 20.875 33.625V29.875C20.875 29.668 20.707 29.5 20.5 29.5H7.75C5.683 29.5 4 27.817 4 25.75C4 23.683 5.683 22 7.75 22H36.25C37.0765 22 37.75 21.3265 37.75 20.5C37.75 19.6735 37.0765 19 36.25 19H23.5C22.0525 19 20.875 17.8225 20.875 16.375V14.125C20.875 13.504 21.379 13 22 13C22.621 13 23.125 13.504 23.125 14.125V16.375C23.125 16.582 23.293 16.75 23.5 16.75H36.25C38.317 16.75 40 18.433 40 20.5C40 22.567 38.317 24.25 36.25 24.25H7.75C6.9235 24.25 6.25 24.9235 6.25 25.75C6.25 26.5765 6.9235 27.25 7.75 27.25H20.5C21.9475 27.25 23.125 28.4275 23.125 29.875V33.625C23.125 34.246 22.621 34.75 22 34.75Z" fill="white" stroke="#0B051E" stroke-width="0.654545"/>
<path d="M24.8126 12.25C24.4766 12.25 24.1466 12.1 23.9246 11.815C22.8551 10.441 21.1436 10.441 20.0756 11.815C19.6961 12.304 18.9866 12.3925 18.4976 12.0115C18.0056 11.6305 17.9186 10.924 18.2996 10.435C19.2551 9.205 20.6051 8.5 22.0001 8.5C23.3951 8.5 24.7451 9.205 25.7006 10.435C26.0816 10.9255 25.9946 11.632 25.5041 12.013C25.2986 12.172 25.0556 12.25 24.8126 12.25Z" fill="white" stroke="#0B051E" stroke-width="0.654545"/>
<path d="M27.6252 9.25C27.2892 9.25 26.9577 9.1 26.7357 8.815C25.4532 7.1605 23.7702 6.25 22.0002 6.25C20.2302 6.25 18.5472 7.1605 17.2632 8.815C16.8837 9.307 16.1757 9.3955 15.6852 9.013C15.1947 8.632 15.1047 7.9255 15.4872 7.435C17.1807 5.2525 19.5552 4 22.0002 4C24.4452 4 26.8197 5.2525 28.5132 7.435C28.8942 7.9255 28.8057 8.632 28.3152 9.013C28.1097 9.1735 27.8667 9.25 27.6252 9.25Z" fill="white" stroke="#0B051E" stroke-width="0.654545"/>
<path d="M26.875 40H17.125C15.6775 40 14.5 38.8225 14.5 37.375V35.125C14.5 33.6775 15.6775 32.5 17.125 32.5H26.875C28.3225 32.5 29.5 33.6775 29.5 35.125V37.375C29.5 38.8225 28.3225 40 26.875 40ZM17.125 34.75C16.918 34.75 16.75 34.918 16.75 35.125V37.375C16.75 37.582 16.918 37.75 17.125 37.75H26.875C27.082 37.75 27.25 37.582 27.25 37.375V35.125C27.25 34.918 27.082 34.75 26.875 34.75H17.125Z" fill="white" stroke="#0B051E" stroke-width="0.654545"/>
</svg>
