<svg width="45" height="45" viewBox="0 0 45 45" fill="none" xmlns="http://www.w3.org/2000/svg">
<path fill-rule="evenodd" clip-rule="evenodd" d="M20.8557 24.624C20.8262 24.624 20.7918 24.624 20.7672 24.6139C20.5064 24.5632 20.3342 24.3048 20.3834 24.0362L22.1202 14.7386C22.1645 14.4752 22.4204 14.2978 22.6811 14.3485C22.937 14.3941 23.1092 14.6576 23.06 14.921L21.3281 24.2186C21.2789 24.4619 21.0821 24.624 20.8557 24.624Z" fill="white" stroke="white" stroke-width="0.2"/>
<path fill-rule="evenodd" clip-rule="evenodd" d="M18.3933 23.7116C18.2703 23.7116 18.1473 23.6659 18.0538 23.5646L14.4178 19.8152C14.2357 19.6277 14.2357 19.3136 14.4178 19.121L18.0538 15.3817C18.2359 15.1892 18.5459 15.1892 18.7279 15.3817C18.9149 15.5692 18.9149 15.8884 18.7279 16.0759L15.4363 19.4706L18.7378 22.8705C18.9198 23.0579 18.9198 23.3771 18.7378 23.5646C18.6394 23.6659 18.5163 23.7116 18.3933 23.7116Z" fill="white" stroke="white" stroke-width="0.2"/>
<path fill-rule="evenodd" clip-rule="evenodd" d="M25.0451 23.7114C24.9221 23.7114 24.7991 23.6658 24.7105 23.5746C24.5236 23.382 24.5236 23.0679 24.7105 22.8753L28.0071 19.4806L24.7105 16.0807C24.5236 15.8933 24.5236 15.5741 24.7105 15.3866C24.8926 15.1941 25.2026 15.1941 25.3846 15.3866L29.0207 19.1259C29.2027 19.3184 29.2027 19.6326 29.0207 19.8251L25.3846 23.5746C25.2911 23.6658 25.1681 23.7114 25.0451 23.7114Z" fill="white" stroke="white" stroke-width="0.2"/>
<path fill-rule="evenodd" clip-rule="evenodd" d="M31.5075 27.2636H11.9299C8.30371 27.2636 5.35156 24.2286 5.35156 20.4842C5.35156 18.5588 6.14864 16.7145 7.55091 15.4376C8.88429 14.2115 10.6457 13.5984 12.4219 13.7352C13.7307 12.0682 15.748 11.141 17.8145 11.222C18.0901 7.75128 20.929 5 24.3732 5C27.9994 5 30.9516 8.03502 30.9516 11.7693C30.9516 12.4533 30.8532 13.1221 30.6613 13.7605C32.3784 13.5325 34.1054 14.0037 35.5028 15.1032C37.1461 16.4003 38.0859 18.3561 38.0859 20.4791C38.0908 24.2184 35.1338 27.2636 31.5075 27.2636ZM11.9299 14.6979C10.5572 14.6979 9.21887 15.2198 8.1807 16.1673C6.98508 17.2668 6.30117 18.8425 6.30117 20.4842C6.30117 23.6813 8.82033 26.2806 11.9201 26.2806H31.5026C34.6024 26.2806 37.1215 23.6813 37.1215 20.4842C37.1215 18.6703 36.3195 16.9982 34.9173 15.8936C33.5101 14.784 31.729 14.4243 30.0216 14.9006C29.8445 14.9512 29.6526 14.8854 29.5296 14.7485C29.4066 14.5965 29.3869 14.3939 29.4607 14.2216C29.8101 13.4514 29.9774 12.6357 29.9774 11.7794C29.9774 8.5873 27.4582 5.98803 24.3584 5.98803C21.2636 5.98803 18.7445 8.57717 18.7395 11.7642C18.7395 11.9061 18.6756 12.0378 18.5722 12.129C18.4738 12.2202 18.3361 12.2658 18.1983 12.2506C16.1958 11.9973 14.2031 12.8738 13.0025 14.5408C12.8992 14.6827 12.7368 14.7587 12.5646 14.7384C12.358 14.7131 12.1464 14.6979 11.9299 14.6979Z" fill="white" stroke="white" stroke-width="0.2"/>
<path fill-rule="evenodd" clip-rule="evenodd" d="M11.2507 35.3255C10.985 35.3255 10.7734 35.1076 10.7734 34.834V30.5019C10.7734 30.2283 10.985 30.0104 11.2507 30.0104H21.2388V26.7727C21.2388 26.4991 21.4504 26.2812 21.716 26.2812C21.9817 26.2812 22.1933 26.4991 22.1933 26.7727V30.5019C22.1933 30.7755 21.9817 30.9934 21.716 30.9934H11.728V34.834C11.728 35.1026 11.5164 35.3255 11.2507 35.3255Z" fill="white" stroke="white" stroke-width="0.2"/>
<path fill-rule="evenodd" clip-rule="evenodd" d="M32.1897 35.3255C31.924 35.3255 31.7125 35.1076 31.7125 34.834V30.9934H21.7195C21.4538 30.9934 21.2422 30.7755 21.2422 30.5019V26.7727C21.2422 26.4991 21.4538 26.2812 21.7195 26.2812C21.9851 26.2812 22.1967 26.4991 22.1967 26.7727V30.0104H32.1897C32.4554 30.0104 32.667 30.2283 32.667 30.5019V34.834C32.667 35.1026 32.4554 35.3255 32.1897 35.3255Z" fill="white" stroke="white" stroke-width="0.2"/>
<path fill-rule="evenodd" clip-rule="evenodd" d="M21.7195 35.3249C21.4538 35.3249 21.2422 35.107 21.2422 34.8334V30.5012C21.2422 30.2276 21.4538 30.0098 21.7195 30.0098C21.9851 30.0098 22.1967 30.2276 22.1967 30.5012V34.8334C22.1967 35.1019 21.9851 35.3249 21.7195 35.3249Z" fill="white" stroke="white" stroke-width="0.2"/>
<path fill-rule="evenodd" clip-rule="evenodd" d="M11.2453 41C9.4642 41 8.00781 39.5052 8.00781 37.666C8.00781 35.8318 9.4642 34.332 11.2453 34.332C13.0314 34.332 14.4779 35.8318 14.4779 37.666C14.4779 39.5052 13.0314 41 11.2453 41ZM11.2453 35.3251C9.99067 35.3251 8.96726 36.379 8.96726 37.6761C8.96726 38.9682 9.99067 40.0221 11.2453 40.0221C12.5049 40.0221 13.5234 38.9682 13.5234 37.6761C13.5234 36.379 12.5049 35.3251 11.2453 35.3251Z" fill="white" stroke="white" stroke-width="0.2"/>
<path fill-rule="evenodd" clip-rule="evenodd" d="M21.717 41C19.9358 41 18.4844 39.5052 18.4844 37.666C18.4844 35.8318 19.9358 34.332 21.717 34.332C23.4981 34.332 24.9545 35.8318 24.9545 37.666C24.9545 39.5052 23.5079 41 21.717 41ZM21.717 35.3251C20.4574 35.3251 19.4438 36.379 19.4438 37.6761C19.4438 38.9682 20.4574 40.0221 21.717 40.0221C22.9716 40.0221 23.995 38.9682 23.995 37.6761C23.995 36.379 22.9716 35.3251 21.717 35.3251Z" fill="white" stroke="white" stroke-width="0.2"/>
<path fill-rule="evenodd" clip-rule="evenodd" d="M32.1906 41C30.4046 41 28.9531 39.5052 28.9531 37.666C28.9531 35.8318 30.4046 34.332 32.1906 34.332C33.9718 34.332 35.4282 35.8318 35.4282 37.666C35.4282 39.5052 33.9718 41 32.1906 41ZM32.1906 35.3251C30.9311 35.3251 29.9077 36.379 29.9077 37.6761C29.9077 38.9682 30.9311 40.0221 32.1906 40.0221C33.4453 40.0221 34.4687 38.9682 34.4687 37.6761C34.4687 36.379 33.4453 35.3251 32.1906 35.3251Z" fill="white" stroke="white" stroke-width="0.2"/>
</svg>
