<svg width="51" height="8" viewBox="0 0 51 8" fill="none" xmlns="http://www.w3.org/2000/svg">
<path d="M50.6936 3.69727L44.3988 7.33151V0.0630178L50.6936 3.69727ZM0.335938 3.69727L0.335937 3.0678L1.59488 3.0678L1.59488 3.69727L1.59488 4.32674H0.335938L0.335938 3.69727ZM4.11276 3.69727V3.0678L6.63064 3.0678V3.69727V4.32674L4.11276 4.32674V3.69727ZM9.14852 3.69727V3.0678L11.6664 3.0678V3.69727V4.32674L9.14852 4.32674V3.69727ZM14.1843 3.69727V3.0678L16.7022 3.0678V3.69727V4.32674L14.1843 4.32674V3.69727ZM19.22 3.69727V3.0678L21.7379 3.0678V3.69727V4.32674L19.22 4.32674V3.69727ZM24.2558 3.69727V3.0678L26.7737 3.0678V3.69727V4.32674L24.2558 4.32674V3.69727ZM29.2916 3.69727V3.0678L31.8095 3.0678V3.69727V4.32674L29.2916 4.32674V3.69727ZM34.3273 3.69727V3.0678L36.8452 3.0678V3.69727V4.32674H34.3273V3.69727ZM39.3631 3.69727V3.0678L41.881 3.0678V3.69727V4.32674L39.3631 4.32674V3.69727ZM44.3988 3.69727V3.0678L46.9167 3.0678V3.69727V4.32674L44.3988 4.32674V3.69727Z" fill="#D7D7D7"/>
</svg>
