<svg width="9" height="51" viewBox="0 0 9 51" fill="none" xmlns="http://www.w3.org/2000/svg">
<path d="M4.5625 50.6857L8.19675 44.391H0.928252L4.5625 50.6857ZM4.5625 0.328125L3.93303 0.328125V1.58707H4.5625H5.19197V0.328125L4.5625 0.328125ZM4.5625 4.10495H3.93303L3.93303 6.62283H4.5625H5.19197V4.10495H4.5625ZM4.5625 9.14071H3.93303L3.93303 11.6586H4.5625H5.19197L5.19197 9.14071H4.5625ZM4.5625 14.1765H3.93303L3.93303 16.6943H4.5625H5.19197V14.1765H4.5625ZM4.5625 19.2122H3.93303L3.93303 21.7301H4.5625H5.19197V19.2122H4.5625ZM4.5625 24.248H3.93303V26.7659H4.5625H5.19197V24.248H4.5625ZM4.5625 29.2838H3.93303L3.93303 31.8016H4.5625H5.19197L5.19197 29.2838H4.5625ZM4.5625 34.3195H3.93303L3.93303 36.8374H4.5625H5.19197L5.19197 34.3195H4.5625ZM4.5625 39.3553H3.93303L3.93303 41.8732H4.5625H5.19197V39.3553H4.5625ZM4.5625 44.391H3.93303V46.9089H4.5625H5.19197V44.391H4.5625Z" fill="#D7D7D7"/>
</svg>
