<svg width="43" height="8" viewBox="0 0 43 8" fill="none" xmlns="http://www.w3.org/2000/svg">
<path d="M-0.00321198 4L5.36926 7.10179L5.36926 0.898199L-0.00321198 4ZM42.9766 4L42.9766 3.46275L41.9021 3.46275L41.9021 4L41.9021 4.53725L42.9766 4.53725L42.9766 4ZM39.7531 4L39.7531 3.46275L37.6041 3.46275L37.6041 4L37.6041 4.53725L39.7531 4.53725L39.7531 4ZM35.4551 4L35.4551 3.46275L33.3061 3.46275L33.3061 4L33.3061 4.53725L35.4551 4.53725L35.4551 4ZM31.1571 4L31.1571 3.46275L29.0081 3.46275L29.0081 4L29.0081 4.53725L31.1571 4.53725L31.1571 4ZM26.8591 4L26.8591 3.46275L24.7102 3.46275L24.7102 4L24.7102 4.53725L26.8591 4.53725L26.8591 4ZM22.5612 4L22.5612 3.46275L20.4122 3.46275L20.4122 4L20.4122 4.53725L22.5612 4.53725L22.5612 4ZM18.2632 4L18.2632 3.46275L16.1142 3.46275L16.1142 4L16.1142 4.53724L18.2632 4.53725L18.2632 4ZM13.9652 4L13.9652 3.46275L11.8162 3.46275L11.8162 4L11.8162 4.53724L13.9652 4.53724L13.9652 4ZM9.66724 4L9.66724 3.46275L7.51825 3.46275L7.51825 4L7.51825 4.53724L9.66724 4.53724L9.66724 4ZM5.36926 4L5.36926 3.46275L3.22028 3.46275L3.22028 4L3.22028 4.53724L5.36926 4.53724L5.36926 4Z" fill="#D7D7D7"/>
</svg>
